<?xml version="1.0" encoding="UTF-8"?>
<svg xmlns="http://www.w3.org/2000/svg" version="1.1" width="300" height="300" viewBox="0 0 300 300"><rect x="0" y="0" width="300" height="300" fill="#ffffff"/><g transform="scale(4.615)"><g transform="translate(0,0)"><path fill-rule="evenodd" d="M9 0L9 1L8 1L8 2L9 2L9 3L8 3L8 4L9 4L9 5L8 5L8 7L9 7L9 8L6 8L6 9L7 9L7 10L5 10L5 12L4 12L4 10L3 10L3 13L2 13L2 11L1 11L1 12L0 12L0 13L1 13L1 15L0 15L0 19L1 19L1 21L0 21L0 23L1 23L1 24L0 24L0 25L1 25L1 26L0 26L0 30L1 30L1 31L0 31L0 32L1 32L1 33L0 33L0 36L1 36L1 37L0 37L0 40L2 40L2 41L0 41L0 43L1 43L1 44L2 44L2 43L3 43L3 40L4 40L4 39L7 39L7 38L6 38L6 37L7 37L7 36L8 36L8 35L9 35L9 36L10 36L10 35L13 35L13 36L12 36L12 38L13 38L13 36L14 36L14 35L16 35L16 36L15 36L15 37L18 37L18 39L17 39L17 38L16 38L16 39L17 39L17 40L15 40L15 41L19 41L19 42L17 42L17 43L15 43L15 42L12 42L12 41L9 41L9 40L13 40L13 41L14 41L14 39L11 39L11 38L10 38L10 39L9 39L9 38L8 38L8 39L9 39L9 40L5 40L5 41L9 41L9 43L7 43L7 42L6 42L6 43L7 43L7 44L6 44L6 45L4 45L4 44L5 44L5 43L4 43L4 44L3 44L3 45L2 45L2 48L4 48L4 49L1 49L1 48L0 48L0 49L1 49L1 51L0 51L0 52L1 52L1 51L3 51L3 52L2 52L2 55L3 55L3 56L1 56L1 55L0 55L0 56L1 56L1 57L3 57L3 56L4 56L4 57L5 57L5 56L4 56L4 53L5 53L5 55L7 55L7 56L6 56L6 57L8 57L8 59L9 59L9 60L8 60L8 65L9 65L9 64L10 64L10 65L11 65L11 64L10 64L10 63L12 63L12 64L13 64L13 65L14 65L14 64L13 64L13 63L14 63L14 62L15 62L15 63L16 63L16 64L15 64L15 65L17 65L17 61L16 61L16 59L18 59L18 61L19 61L19 62L20 62L20 63L19 63L19 64L18 64L18 65L19 65L19 64L20 64L20 65L22 65L22 62L24 62L24 61L26 61L26 62L25 62L25 65L26 65L26 62L27 62L27 61L26 61L26 60L28 60L28 59L26 59L26 60L24 60L24 58L25 58L25 57L26 57L26 58L27 58L27 57L29 57L29 59L30 59L30 60L29 60L29 63L28 63L28 64L27 64L27 65L39 65L39 64L41 64L41 65L43 65L43 63L44 63L44 64L45 64L45 63L44 63L44 60L46 60L46 61L48 61L48 62L46 62L46 64L47 64L47 63L48 63L48 62L50 62L50 65L52 65L52 64L53 64L53 65L55 65L55 63L56 63L56 64L57 64L57 65L61 65L61 63L62 63L62 62L63 62L63 64L62 64L62 65L63 65L63 64L64 64L64 60L62 60L62 57L63 57L63 58L65 58L65 55L64 55L64 57L63 57L63 56L62 56L62 55L63 55L63 54L62 54L62 55L60 55L60 54L61 54L61 53L59 53L59 51L58 51L58 50L61 50L61 51L60 51L60 52L62 52L62 53L64 53L64 54L65 54L65 52L62 52L62 51L63 51L63 50L61 50L61 49L64 49L64 50L65 50L65 49L64 49L64 48L62 48L62 47L63 47L63 46L62 46L62 47L61 47L61 45L60 45L60 44L62 44L62 45L63 45L63 44L64 44L64 45L65 45L65 44L64 44L64 42L65 42L65 41L64 41L64 40L65 40L65 39L63 39L63 40L62 40L62 41L63 41L63 42L62 42L62 43L60 43L60 44L59 44L59 43L58 43L58 44L59 44L59 46L60 46L60 47L58 47L58 48L57 48L57 46L55 46L55 45L52 45L52 44L53 44L53 42L55 42L55 41L53 41L53 42L52 42L52 44L50 44L50 45L49 45L49 44L48 44L48 45L47 45L47 46L46 46L46 47L43 47L43 48L41 48L41 47L40 47L40 46L41 46L41 45L42 45L42 46L43 46L43 45L44 45L44 46L45 46L45 45L44 45L44 44L45 44L45 43L47 43L47 42L48 42L48 43L51 43L51 42L50 42L50 39L51 39L51 41L52 41L52 40L54 40L54 38L56 38L56 37L54 37L54 34L56 34L56 35L55 35L55 36L57 36L57 39L58 39L58 40L56 40L56 39L55 39L55 40L56 40L56 41L57 41L57 42L61 42L61 41L58 41L58 40L60 40L60 38L65 38L65 37L63 37L63 36L64 36L64 35L63 35L63 34L65 34L65 33L63 33L63 32L62 32L62 33L63 33L63 34L62 34L62 35L61 35L61 28L60 28L60 27L59 27L59 26L60 26L60 25L61 25L61 24L60 24L60 25L59 25L59 24L58 24L58 23L59 23L59 22L62 22L62 21L63 21L63 24L62 24L62 27L63 27L63 28L62 28L62 29L64 29L64 28L65 28L65 27L64 27L64 26L65 26L65 25L64 25L64 26L63 26L63 24L64 24L64 22L65 22L65 20L64 20L64 19L63 19L63 18L65 18L65 15L64 15L64 16L62 16L62 13L64 13L64 14L65 14L65 11L64 11L64 10L65 10L65 9L64 9L64 8L63 8L63 9L64 9L64 10L62 10L62 11L63 11L63 12L60 12L60 11L61 11L61 10L60 10L60 11L59 11L59 10L58 10L58 11L54 11L54 12L53 12L53 10L55 10L55 8L53 8L53 6L54 6L54 7L55 7L55 5L54 5L54 4L56 4L56 5L57 5L57 4L56 4L56 3L57 3L57 1L56 1L56 0L55 0L55 1L56 1L56 3L55 3L55 2L54 2L54 3L53 3L53 1L54 1L54 0L52 0L52 3L51 3L51 1L50 1L50 0L49 0L49 1L48 1L48 2L47 2L47 1L45 1L45 0L41 0L41 1L45 1L45 2L44 2L44 3L42 3L42 2L40 2L40 1L36 1L36 2L40 2L40 3L42 3L42 5L45 5L45 4L46 4L46 3L48 3L48 4L49 4L49 5L48 5L48 7L47 7L47 5L46 5L46 7L45 7L45 6L44 6L44 8L45 8L45 10L46 10L46 11L44 11L44 10L43 10L43 9L42 9L42 10L41 10L41 9L40 9L40 8L41 8L41 6L40 6L40 7L39 7L39 5L38 5L38 4L39 4L39 3L38 3L38 4L37 4L37 3L36 3L36 5L35 5L35 1L34 1L34 0L29 0L29 1L34 1L34 2L31 2L31 3L30 3L30 2L28 2L28 1L27 1L27 0L24 0L24 2L23 2L23 0L21 0L21 1L20 1L20 0L19 0L19 3L20 3L20 4L21 4L21 6L20 6L20 7L19 7L19 6L18 6L18 7L17 7L17 6L16 6L16 8L18 8L18 9L19 9L19 10L18 10L18 11L19 11L19 12L18 12L18 13L17 13L17 14L16 14L16 13L15 13L15 12L14 12L14 13L13 13L13 12L12 12L12 10L13 10L13 11L15 11L15 10L13 10L13 9L14 9L14 7L15 7L15 6L14 6L14 7L13 7L13 6L12 6L12 5L13 5L13 4L14 4L14 2L16 2L16 0L15 0L15 1L14 1L14 2L11 2L11 3L13 3L13 4L11 4L11 5L10 5L10 2L9 2L9 1L12 1L12 0ZM17 0L17 2L18 2L18 0ZM21 1L21 2L22 2L22 1ZM24 2L24 4L25 4L25 7L24 7L24 5L23 5L23 4L22 4L22 3L21 3L21 4L22 4L22 5L23 5L23 7L24 7L24 9L23 9L23 8L22 8L22 9L23 9L23 12L22 12L22 11L21 11L21 9L20 9L20 10L19 10L19 11L21 11L21 12L20 12L20 13L18 13L18 14L17 14L17 16L19 16L19 17L16 17L16 16L15 16L15 13L14 13L14 17L15 17L15 18L14 18L14 19L11 19L11 18L13 18L13 17L12 17L12 16L13 16L13 15L12 15L12 14L13 14L13 13L12 13L12 12L10 12L10 13L9 13L9 12L8 12L8 11L11 11L11 9L13 9L13 7L12 7L12 6L11 6L11 7L10 7L10 6L9 6L9 7L10 7L10 8L9 8L9 9L8 9L8 10L7 10L7 11L6 11L6 12L5 12L5 13L6 13L6 14L7 14L7 13L9 13L9 14L8 14L8 19L6 19L6 18L7 18L7 17L5 17L5 14L4 14L4 15L3 15L3 14L2 14L2 15L3 15L3 16L1 16L1 17L2 17L2 18L4 18L4 17L5 17L5 19L4 19L4 20L5 20L5 21L4 21L4 22L2 22L2 24L1 24L1 25L2 25L2 26L1 26L1 27L2 27L2 26L3 26L3 27L4 27L4 28L2 28L2 29L1 29L1 30L3 30L3 29L4 29L4 30L5 30L5 28L7 28L7 27L6 27L6 26L7 26L7 25L6 25L6 26L5 26L5 24L9 24L9 26L8 26L8 29L6 29L6 30L8 30L8 29L9 29L9 30L10 30L10 32L9 32L9 33L10 33L10 32L11 32L11 34L12 34L12 33L13 33L13 34L18 34L18 35L17 35L17 36L18 36L18 37L20 37L20 39L18 39L18 40L20 40L20 39L21 39L21 37L22 37L22 39L23 39L23 40L21 40L21 41L20 41L20 42L19 42L19 43L18 43L18 44L15 44L15 43L14 43L14 44L13 44L13 43L12 43L12 44L13 44L13 46L9 46L9 45L10 45L10 44L11 44L11 42L10 42L10 44L9 44L9 45L8 45L8 44L7 44L7 45L6 45L6 46L4 46L4 48L5 48L5 49L4 49L4 50L3 50L3 51L4 51L4 52L8 52L8 53L9 53L9 54L8 54L8 55L9 55L9 57L11 57L11 56L12 56L12 58L13 58L13 59L12 59L12 60L11 60L11 58L10 58L10 60L9 60L9 61L10 61L10 60L11 60L11 61L13 61L13 62L12 62L12 63L13 63L13 62L14 62L14 61L15 61L15 62L16 62L16 61L15 61L15 60L14 60L14 58L17 58L17 57L14 57L14 56L15 56L15 55L14 55L14 56L12 56L12 55L13 55L13 54L17 54L17 53L18 53L18 52L17 52L17 51L18 51L18 50L19 50L19 51L21 51L21 52L22 52L22 53L20 53L20 52L19 52L19 53L20 53L20 54L19 54L19 57L18 57L18 59L20 59L20 60L19 60L19 61L21 61L21 62L22 62L22 61L24 61L24 60L23 60L23 58L21 58L21 57L23 57L23 55L20 55L20 54L24 54L24 53L26 53L26 55L27 55L27 54L30 54L30 55L31 55L31 56L34 56L34 55L36 55L36 56L38 56L38 54L40 54L40 53L41 53L41 56L39 56L39 57L35 57L35 60L37 60L37 61L35 61L35 62L32 62L32 63L31 63L31 61L30 61L30 64L37 64L37 63L38 63L38 64L39 64L39 63L40 63L40 62L41 62L41 61L42 61L42 60L43 60L43 58L42 58L42 60L40 60L40 62L39 62L39 60L37 60L37 59L38 59L38 58L39 58L39 59L41 59L41 58L40 58L40 57L41 57L41 56L42 56L42 57L43 57L43 56L44 56L44 57L45 57L45 58L44 58L44 59L46 59L46 60L49 60L49 59L50 59L50 60L51 60L51 59L50 59L50 58L51 58L51 57L53 57L53 58L52 58L52 59L53 59L53 60L52 60L52 62L51 62L51 61L50 61L50 62L51 62L51 63L53 63L53 64L54 64L54 63L55 63L55 62L56 62L56 63L58 63L58 64L59 64L59 62L58 62L58 61L57 61L57 62L56 62L56 61L55 61L55 62L53 62L53 60L56 60L56 59L55 59L55 58L56 58L56 56L57 56L57 55L56 55L56 54L57 54L57 52L58 52L58 51L57 51L57 50L56 50L56 49L57 49L57 48L55 48L55 50L54 50L54 49L53 49L53 48L54 48L54 47L55 47L55 46L52 46L52 47L53 47L53 48L52 48L52 50L51 50L51 49L50 49L50 48L51 48L51 47L46 47L46 48L49 48L49 49L45 49L45 48L44 48L44 49L43 49L43 50L41 50L41 48L40 48L40 50L39 50L39 49L38 49L38 48L39 48L39 47L38 47L38 46L39 46L39 45L41 45L41 44L40 44L40 43L36 43L36 42L37 42L37 41L38 41L38 42L41 42L41 41L43 41L43 40L42 40L42 39L43 39L43 38L42 38L42 37L43 37L43 36L44 36L44 39L45 39L45 40L44 40L44 41L45 41L45 40L46 40L46 42L47 42L47 40L49 40L49 39L50 39L50 38L51 38L51 39L52 39L52 38L53 38L53 36L52 36L52 38L51 38L51 35L50 35L50 34L51 34L51 33L53 33L53 34L52 34L52 35L53 35L53 34L54 34L54 33L56 33L56 32L55 32L55 30L57 30L57 29L56 29L56 28L58 28L58 30L59 30L59 28L58 28L58 27L57 27L57 26L59 26L59 25L58 25L58 24L57 24L57 25L56 25L56 24L55 24L55 23L57 23L57 21L56 21L56 20L58 20L58 22L59 22L59 20L61 20L61 21L62 21L62 20L63 20L63 19L60 19L60 18L62 18L62 17L59 17L59 16L61 16L61 15L60 15L60 13L59 13L59 11L58 11L58 12L57 12L57 13L56 13L56 14L52 14L52 15L53 15L53 16L51 16L51 15L50 15L50 14L51 14L51 13L53 13L53 12L50 12L50 11L48 11L48 10L49 10L49 9L50 9L50 10L52 10L52 9L53 9L53 8L52 8L52 9L50 9L50 8L51 8L51 7L52 7L52 6L51 6L51 7L50 7L50 5L51 5L51 3L50 3L50 5L49 5L49 7L48 7L48 8L47 8L47 9L46 9L46 10L47 10L47 13L46 13L46 14L47 14L47 13L48 13L48 12L49 12L49 14L48 14L48 15L47 15L47 16L44 16L44 17L43 17L43 18L42 18L42 19L41 19L41 20L39 20L39 19L38 19L38 18L39 18L39 17L38 17L38 16L40 16L40 17L41 17L41 16L40 16L40 13L41 13L41 15L45 15L45 12L44 12L44 11L43 11L43 10L42 10L42 11L43 11L43 12L44 12L44 14L42 14L42 13L41 13L41 12L40 12L40 11L41 11L41 10L40 10L40 9L38 9L38 8L39 8L39 7L38 7L38 5L36 5L36 6L35 6L35 8L37 8L37 9L34 9L34 10L35 10L35 12L30 12L30 11L31 11L31 9L30 9L30 8L29 8L29 9L28 9L28 8L25 8L25 7L26 7L26 6L27 6L27 7L28 7L28 6L27 6L27 4L25 4L25 3L26 3L26 2ZM27 2L27 3L28 3L28 2ZM45 2L45 3L44 3L44 4L45 4L45 3L46 3L46 2ZM48 2L48 3L49 3L49 2ZM17 3L17 4L16 4L16 5L17 5L17 4L18 4L18 5L19 5L19 4L18 4L18 3ZM29 3L29 4L28 4L28 5L29 5L29 7L30 7L30 3ZM32 3L32 4L34 4L34 3ZM52 3L52 4L53 4L53 3ZM31 5L31 8L34 8L34 5ZM21 6L21 7L22 7L22 6ZM32 6L32 7L33 7L33 6ZM36 6L36 7L37 7L37 6ZM42 6L42 8L43 8L43 6ZM56 6L56 7L57 7L57 6ZM11 7L11 8L12 8L12 7ZM18 7L18 8L19 8L19 7ZM0 8L0 9L1 9L1 10L2 10L2 9L5 9L5 8ZM48 8L48 9L49 9L49 8ZM56 8L56 9L58 9L58 8ZM59 8L59 9L60 9L60 8ZM61 8L61 9L62 9L62 8ZM16 9L16 10L17 10L17 9ZM24 9L24 10L25 10L25 9ZM26 9L26 10L27 10L27 11L26 11L26 12L25 12L25 11L24 11L24 12L23 12L23 13L22 13L22 12L21 12L21 16L20 16L20 17L19 17L19 18L18 18L18 19L17 19L17 20L18 20L18 21L17 21L17 22L18 22L18 23L20 23L20 21L22 21L22 20L20 20L20 19L22 19L22 18L23 18L23 19L24 19L24 20L26 20L26 19L25 19L25 17L22 17L22 16L23 16L23 15L24 15L24 16L27 16L27 17L26 17L26 18L28 18L28 17L29 17L29 19L28 19L28 21L27 21L27 22L26 22L26 21L24 21L24 22L23 22L23 23L22 23L22 22L21 22L21 24L20 24L20 25L21 25L21 27L20 27L20 26L19 26L19 28L18 28L18 29L16 29L16 28L15 28L15 25L17 25L17 26L18 26L18 25L19 25L19 24L16 24L16 23L15 23L15 22L16 22L16 21L15 21L15 22L14 22L14 23L13 23L13 25L12 25L12 23L11 23L11 22L13 22L13 21L14 21L14 20L16 20L16 18L15 18L15 19L14 19L14 20L13 20L13 21L12 21L12 20L10 20L10 19L8 19L8 20L10 20L10 21L8 21L8 22L6 22L6 21L7 21L7 20L6 20L6 19L5 19L5 20L6 20L6 21L5 21L5 23L3 23L3 24L5 24L5 23L9 23L9 24L11 24L11 25L10 25L10 27L9 27L9 28L10 28L10 30L13 30L13 31L11 31L11 32L13 32L13 33L17 33L17 31L18 31L18 33L19 33L19 34L20 34L20 35L21 35L21 36L20 36L20 37L21 37L21 36L22 36L22 37L23 37L23 38L25 38L25 37L27 37L27 39L26 39L26 40L25 40L25 39L24 39L24 40L25 40L25 41L21 41L21 42L20 42L20 43L22 43L22 44L23 44L23 45L21 45L21 47L22 47L22 46L23 46L23 47L24 47L24 48L25 48L25 49L22 49L22 48L20 48L20 49L22 49L22 50L21 50L21 51L22 51L22 50L25 50L25 49L26 49L26 50L28 50L28 52L27 52L27 53L29 53L29 52L30 52L30 53L33 53L33 52L34 52L34 54L35 54L35 52L36 52L36 53L37 53L37 52L36 52L36 49L37 49L37 51L38 51L38 53L40 53L40 52L41 52L41 50L40 50L40 51L39 51L39 50L38 50L38 49L37 49L37 48L36 48L36 46L35 46L35 47L34 47L34 46L32 46L32 45L33 45L33 44L34 44L34 45L37 45L37 46L38 46L38 44L35 44L35 43L33 43L33 42L36 42L36 41L37 41L37 40L41 40L41 39L42 39L42 38L41 38L41 37L39 37L39 36L38 36L38 37L39 37L39 38L37 38L37 40L35 40L35 39L33 39L33 38L32 38L32 41L33 41L33 42L31 42L31 43L30 43L30 42L29 42L29 43L28 43L28 41L30 41L30 40L31 40L31 39L30 39L30 38L31 38L31 37L33 37L33 36L36 36L36 37L37 37L37 36L36 36L36 35L37 35L37 34L36 34L36 35L35 35L35 33L37 33L37 32L39 32L39 34L38 34L38 35L40 35L40 36L41 36L41 35L40 35L40 34L44 34L44 36L45 36L45 37L49 37L49 38L48 38L48 39L49 39L49 38L50 38L50 37L49 37L49 36L50 36L50 35L49 35L49 36L46 36L46 35L47 35L47 34L46 34L46 32L45 32L45 31L47 31L47 30L44 30L44 28L45 28L45 29L49 29L49 28L51 28L51 30L50 30L50 31L49 31L49 30L48 30L48 31L49 31L49 32L47 32L47 33L48 33L48 34L49 34L49 32L50 32L50 31L52 31L52 32L53 32L53 31L54 31L54 30L55 30L55 27L56 27L56 25L54 25L54 23L52 23L52 22L55 22L55 21L54 21L54 20L56 20L56 17L57 17L57 19L59 19L59 18L58 18L58 16L55 16L55 15L54 15L54 16L55 16L55 17L54 17L54 18L53 18L53 17L52 17L52 18L53 18L53 19L52 19L52 20L51 20L51 18L50 18L50 17L51 17L51 16L50 16L50 17L49 17L49 16L47 16L47 18L46 18L46 19L44 19L44 20L43 20L43 19L42 19L42 20L43 20L43 21L42 21L42 22L41 22L41 21L40 21L40 22L38 22L38 23L37 23L37 24L36 24L36 23L35 23L35 22L37 22L37 20L38 20L38 19L37 19L37 16L36 16L36 18L34 18L34 19L32 19L32 18L33 18L33 17L35 17L35 16L34 16L34 15L35 15L35 14L36 14L36 15L37 15L37 14L38 14L38 15L39 15L39 14L38 14L38 13L39 13L39 12L38 12L38 13L37 13L37 12L35 12L35 14L33 14L33 13L32 13L32 14L33 14L33 15L32 15L32 16L33 16L33 17L32 17L32 18L31 18L31 17L29 17L29 16L31 16L31 15L29 15L29 16L28 16L28 15L27 15L27 14L28 14L28 13L26 13L26 12L29 12L29 10L28 10L28 9ZM37 9L37 10L36 10L36 11L39 11L39 10L38 10L38 9ZM6 12L6 13L7 13L7 12ZM54 12L54 13L55 13L55 12ZM23 13L23 14L22 14L22 15L23 15L23 14L24 14L24 13ZM25 13L25 15L26 15L26 13ZM30 13L30 14L31 14L31 13ZM36 13L36 14L37 14L37 13ZM10 14L10 17L11 17L11 16L12 16L12 15L11 15L11 14ZM18 14L18 15L20 15L20 14ZM56 14L56 15L59 15L59 14ZM6 15L6 16L7 16L7 15ZM20 17L20 18L22 18L22 17ZM44 17L44 18L45 18L45 17ZM47 18L47 21L46 21L46 20L44 20L44 21L43 21L43 22L42 22L42 23L41 23L41 22L40 22L40 23L41 23L41 24L38 24L38 25L37 25L37 27L34 27L34 26L35 26L35 25L33 25L33 24L32 24L32 23L33 23L33 22L32 22L32 21L33 21L33 20L32 20L32 21L31 21L31 20L30 20L30 21L28 21L28 22L29 22L29 23L28 23L28 24L27 24L27 23L24 23L24 24L21 24L21 25L23 25L23 26L22 26L22 27L24 27L24 25L25 25L25 28L26 28L26 29L24 29L24 28L19 28L19 29L18 29L18 30L19 30L19 31L20 31L20 30L19 30L19 29L21 29L21 30L22 30L22 29L24 29L24 30L23 30L23 31L24 31L24 32L22 32L22 33L20 33L20 34L21 34L21 35L22 35L22 33L25 33L25 32L26 32L26 33L27 33L27 34L30 34L30 32L29 32L29 33L28 33L28 31L27 31L27 30L28 30L28 29L29 29L29 27L31 27L31 28L30 28L30 29L31 29L31 30L35 30L35 28L38 28L38 30L37 30L37 31L35 31L35 32L37 32L37 31L38 31L38 30L39 30L39 32L40 32L40 33L45 33L45 32L44 32L44 30L42 30L42 31L41 31L41 30L40 30L40 29L43 29L43 28L44 28L44 27L45 27L45 26L44 26L44 25L46 25L46 26L48 26L48 28L49 28L49 27L50 27L50 26L51 26L51 27L52 27L52 26L53 26L53 27L55 27L55 26L53 26L53 24L52 24L52 23L50 23L50 22L51 22L51 20L50 20L50 18L49 18L49 19L48 19L48 18ZM54 18L54 19L55 19L55 18ZM2 19L2 21L3 21L3 19ZM35 19L35 21L34 21L34 22L35 22L35 21L36 21L36 20L37 20L37 19ZM19 20L19 21L20 21L20 20ZM48 20L48 22L46 22L46 21L44 21L44 22L43 22L43 23L44 23L44 24L43 24L43 25L42 25L42 26L43 26L43 25L44 25L44 24L45 24L45 23L49 23L49 22L50 22L50 20ZM52 20L52 21L53 21L53 20ZM10 21L10 22L9 22L9 23L10 23L10 22L11 22L11 21ZM30 21L30 22L31 22L31 21ZM29 23L29 24L28 24L28 25L26 25L26 27L27 27L27 29L26 29L26 30L27 30L27 29L28 29L28 27L29 27L29 26L28 26L28 25L30 25L30 26L31 26L31 27L32 27L32 28L34 28L34 27L33 27L33 25L32 25L32 24L31 24L31 23ZM34 23L34 24L35 24L35 23ZM30 24L30 25L31 25L31 26L32 26L32 25L31 25L31 24ZM48 24L48 26L50 26L50 25L51 25L51 26L52 26L52 25L51 25L51 24ZM3 25L3 26L4 26L4 25ZM11 25L11 26L12 26L12 27L10 27L10 28L11 28L11 29L13 29L13 27L14 27L14 25L13 25L13 26L12 26L12 25ZM39 25L39 26L38 26L38 28L41 28L41 25ZM39 26L39 27L40 27L40 26ZM42 27L42 28L43 28L43 27ZM46 27L46 28L47 28L47 27ZM14 28L14 29L15 29L15 30L16 30L16 29L15 29L15 28ZM52 28L52 29L53 29L53 28ZM29 30L29 31L30 31L30 30ZM62 30L62 31L63 31L63 30ZM1 31L1 32L3 32L3 34L2 34L2 33L1 33L1 35L3 35L3 34L4 34L4 31ZM5 31L5 34L8 34L8 31ZM14 31L14 32L16 32L16 31ZM26 31L26 32L27 32L27 31ZM31 31L31 34L34 34L34 31ZM40 31L40 32L41 32L41 31ZM42 31L42 32L43 32L43 31ZM57 31L57 34L60 34L60 31ZM6 32L6 33L7 33L7 32ZM32 32L32 33L33 33L33 32ZM58 32L58 33L59 33L59 32ZM4 35L4 36L5 36L5 35ZM6 35L6 36L7 36L7 35ZM23 35L23 36L24 36L24 37L25 37L25 36L26 36L26 35ZM28 35L28 36L30 36L30 35ZM32 35L32 36L33 36L33 35ZM62 35L62 36L63 36L63 35ZM58 36L58 37L59 37L59 36ZM60 36L60 37L61 37L61 36ZM2 37L2 38L1 38L1 39L2 39L2 40L3 40L3 39L2 39L2 38L3 38L3 37ZM28 37L28 39L27 39L27 40L26 40L26 41L27 41L27 40L30 40L30 39L29 39L29 38L30 38L30 37ZM34 37L34 38L35 38L35 37ZM40 38L40 39L41 39L41 38ZM46 38L46 40L47 40L47 38ZM58 38L58 39L59 39L59 38ZM34 40L34 41L35 41L35 40ZM22 42L22 43L23 43L23 44L24 44L24 43L26 43L26 45L27 45L27 44L28 44L28 46L25 46L25 47L27 47L27 48L26 48L26 49L27 49L27 48L28 48L28 47L29 47L29 48L30 48L30 47L31 47L31 46L30 46L30 45L29 45L29 44L28 44L28 43L26 43L26 42ZM42 42L42 44L44 44L44 43L43 43L43 42ZM31 43L31 45L32 45L32 43ZM54 43L54 44L56 44L56 45L57 45L57 43ZM62 43L62 44L63 44L63 43ZM14 44L14 46L13 46L13 49L17 49L17 50L15 50L15 51L14 51L14 53L15 53L15 52L16 52L16 53L17 53L17 52L16 52L16 51L17 51L17 50L18 50L18 49L19 49L19 48L18 48L18 49L17 49L17 48L16 48L16 47L15 47L15 46L16 46L16 45L15 45L15 44ZM18 44L18 45L20 45L20 44ZM0 45L0 47L1 47L1 45ZM23 45L23 46L24 46L24 45ZM50 45L50 46L51 46L51 45ZM6 46L6 47L5 47L5 48L6 48L6 49L7 49L7 50L4 50L4 51L9 51L9 53L10 53L10 55L11 55L11 53L12 53L12 52L10 52L10 49L11 49L11 51L12 51L12 49L11 49L11 47L10 47L10 49L7 49L7 48L8 48L8 47L9 47L9 46L8 46L8 47L7 47L7 46ZM18 46L18 47L20 47L20 46ZM29 46L29 47L30 47L30 46ZM6 47L6 48L7 48L7 47ZM32 47L32 48L31 48L31 49L32 49L32 50L30 50L30 49L28 49L28 50L30 50L30 52L33 52L33 51L32 51L32 50L33 50L33 49L34 49L34 51L35 51L35 49L34 49L34 48L33 48L33 47ZM60 47L60 49L61 49L61 47ZM32 48L32 49L33 49L33 48ZM58 48L58 49L59 49L59 48ZM43 50L43 51L42 51L42 52L43 52L43 53L42 53L42 54L45 54L45 55L44 55L44 56L45 56L45 57L47 57L47 58L46 58L46 59L47 59L47 58L50 58L50 57L51 57L51 56L50 56L50 57L49 57L49 56L46 56L46 55L48 55L48 53L49 53L49 54L50 54L50 55L52 55L52 56L54 56L54 58L55 58L55 56L56 56L56 55L52 55L52 54L50 54L50 53L49 53L49 52L50 52L50 51L51 51L51 52L53 52L53 51L54 51L54 52L57 52L57 51L56 51L56 50L55 50L55 51L54 51L54 50L52 50L52 51L51 51L51 50L48 50L48 51L47 51L47 50L46 50L46 51L45 51L45 50ZM24 51L24 52L26 52L26 51ZM43 51L43 52L44 52L44 53L45 53L45 54L47 54L47 53L46 53L46 52L47 52L47 51L46 51L46 52L44 52L44 51ZM48 51L48 52L49 52L49 51ZM0 53L0 54L1 54L1 53ZM6 53L6 54L7 54L7 53ZM53 53L53 54L56 54L56 53ZM32 54L32 55L33 55L33 54ZM36 54L36 55L37 55L37 54ZM58 54L58 55L59 55L59 54ZM16 55L16 56L17 56L17 55ZM28 55L28 56L29 56L29 55ZM42 55L42 56L43 56L43 55ZM20 56L20 57L21 57L21 56ZM24 56L24 57L25 57L25 56ZM26 56L26 57L27 57L27 56ZM31 57L31 60L34 60L34 57ZM57 57L57 60L60 60L60 57ZM32 58L32 59L33 59L33 58ZM36 58L36 59L37 59L37 58ZM58 58L58 59L59 59L59 58ZM13 60L13 61L14 61L14 60ZM60 61L60 62L61 62L61 61ZM9 62L9 63L10 63L10 62ZM36 62L36 63L37 63L37 62ZM38 62L38 63L39 63L39 62ZM42 62L42 63L41 63L41 64L42 64L42 63L43 63L43 62ZM23 63L23 65L24 65L24 63ZM48 64L48 65L49 65L49 64ZM0 0L0 7L7 7L7 0ZM1 1L1 6L6 6L6 1ZM2 2L2 5L5 5L5 2ZM58 0L58 7L65 7L65 0ZM59 1L59 6L64 6L64 1ZM60 2L60 5L63 5L63 2ZM0 58L0 65L7 65L7 58ZM1 59L1 64L6 64L6 59ZM2 60L2 63L5 63L5 60Z" fill="#000000"/></g></g></svg>
