<?xml version="1.0" encoding="UTF-8"?>
<svg xmlns="http://www.w3.org/2000/svg" version="1.1" width="300" height="300" viewBox="0 0 300 300"><rect x="0" y="0" width="300" height="300" fill="#ffffff"/><g transform="scale(4.615)"><g transform="translate(0,0)"><path fill-rule="evenodd" d="M9 0L9 1L8 1L8 2L9 2L9 1L10 1L10 3L8 3L8 4L10 4L10 5L8 5L8 7L9 7L9 8L6 8L6 9L5 9L5 8L0 8L0 12L1 12L1 13L2 13L2 14L1 14L1 16L0 16L0 18L1 18L1 19L0 19L0 20L1 20L1 23L0 23L0 24L1 24L1 25L0 25L0 27L1 27L1 28L3 28L3 29L0 29L0 30L3 30L3 29L4 29L4 25L3 25L3 24L4 24L4 23L8 23L8 24L9 24L9 25L7 25L7 24L6 24L6 25L7 25L7 26L6 26L6 27L5 27L5 28L6 28L6 29L5 29L5 30L4 30L4 32L3 32L3 31L0 31L0 33L1 33L1 34L0 34L0 35L1 35L1 34L4 34L4 35L2 35L2 36L1 36L1 37L0 37L0 39L2 39L2 38L3 38L3 39L4 39L4 41L7 41L7 40L5 40L5 38L6 38L6 39L7 39L7 38L8 38L8 39L9 39L9 40L8 40L8 41L9 41L9 43L8 43L8 42L4 42L4 43L2 43L2 42L3 42L3 40L0 40L0 47L2 47L2 48L1 48L1 49L5 49L5 48L4 48L4 47L5 47L5 45L7 45L7 44L6 44L6 43L8 43L8 44L9 44L9 43L10 43L10 44L11 44L11 45L8 45L8 46L6 46L6 47L7 47L7 48L6 48L6 49L7 49L7 50L4 50L4 51L5 51L5 53L4 53L4 52L3 52L3 51L1 51L1 50L0 50L0 51L1 51L1 52L0 52L0 54L1 54L1 52L3 52L3 53L2 53L2 55L3 55L3 56L1 56L1 55L0 55L0 56L1 56L1 57L3 57L3 56L4 56L4 57L5 57L5 56L4 56L4 54L5 54L5 55L7 55L7 54L5 54L5 53L7 53L7 52L6 52L6 51L8 51L8 50L9 50L9 49L10 49L10 51L9 51L9 54L8 54L8 55L9 55L9 54L10 54L10 58L9 58L9 56L8 56L8 59L11 59L11 60L10 60L10 61L9 61L9 60L8 60L8 65L9 65L9 63L10 63L10 64L11 64L11 65L13 65L13 62L16 62L16 61L13 61L13 60L14 60L14 59L13 59L13 58L12 58L12 59L11 59L11 57L15 57L15 56L16 56L16 57L19 57L19 59L18 59L18 58L17 58L17 59L18 59L18 61L20 61L20 60L19 60L19 59L21 59L21 60L22 60L22 59L23 59L23 58L25 58L25 59L24 59L24 62L23 62L23 61L22 61L22 62L21 62L21 63L23 63L23 65L24 65L24 63L25 63L25 61L26 61L26 62L27 62L27 61L29 61L29 62L30 62L30 63L31 63L31 64L30 64L30 65L31 65L31 64L32 64L32 65L33 65L33 63L31 63L31 62L30 62L30 61L32 61L32 62L33 62L33 61L34 61L34 63L35 63L35 64L34 64L34 65L35 65L35 64L36 64L36 65L37 65L37 64L36 64L36 63L35 63L35 62L36 62L36 61L37 61L37 63L39 63L39 64L38 64L38 65L40 65L40 64L41 64L41 65L42 65L42 64L41 64L41 63L40 63L40 62L43 62L43 61L44 61L44 62L45 62L45 63L44 63L44 64L43 64L43 65L44 65L44 64L47 64L47 65L51 65L51 64L53 64L53 65L57 65L57 64L55 64L55 63L56 63L56 62L57 62L57 63L58 63L58 62L57 62L57 61L59 61L59 64L58 64L58 65L61 65L61 64L62 64L62 65L63 65L63 64L64 64L64 61L65 61L65 60L62 60L62 61L61 61L61 58L62 58L62 57L63 57L63 58L65 58L65 57L63 57L63 56L62 56L62 57L61 57L61 55L60 55L60 56L59 56L59 55L58 55L58 54L63 54L63 55L64 55L64 56L65 56L65 55L64 55L64 54L65 54L65 53L63 53L63 52L64 52L64 50L65 50L65 49L64 49L64 48L62 48L62 46L61 46L61 45L59 45L59 43L58 43L58 45L59 45L59 47L58 47L58 46L57 46L57 47L56 47L56 45L57 45L57 44L56 44L56 43L55 43L55 44L54 44L54 42L55 42L55 40L56 40L56 41L57 41L57 42L58 42L58 41L57 41L57 40L61 40L61 39L60 39L60 38L62 38L62 37L63 37L63 40L62 40L62 41L63 41L63 42L62 42L62 43L60 43L60 44L62 44L62 45L64 45L64 44L62 44L62 43L63 43L63 42L65 42L65 40L64 40L64 38L65 38L65 37L64 37L64 36L65 36L65 35L64 35L64 34L65 34L65 32L64 32L64 31L63 31L63 32L62 32L62 31L61 31L61 30L58 30L58 28L59 28L59 26L60 26L60 27L61 27L61 28L60 28L60 29L63 29L63 28L64 28L64 29L65 29L65 28L64 28L64 26L65 26L65 25L64 25L64 24L65 24L65 23L63 23L63 21L64 21L64 22L65 22L65 19L64 19L64 18L65 18L65 15L64 15L64 16L62 16L62 15L63 15L63 14L62 14L62 15L61 15L61 14L60 14L60 15L59 15L59 14L56 14L56 13L57 13L57 12L58 12L58 11L61 11L61 12L59 12L59 13L61 13L61 12L62 12L62 13L64 13L64 14L65 14L65 13L64 13L64 12L65 12L65 11L64 11L64 10L65 10L65 9L64 9L64 8L63 8L63 9L64 9L64 10L62 10L62 8L61 8L61 9L60 9L60 8L59 8L59 10L58 10L58 8L56 8L56 9L53 9L53 10L52 10L52 9L51 9L51 5L50 5L50 4L51 4L51 3L48 3L48 5L46 5L46 4L47 4L47 1L46 1L46 0L45 0L45 1L43 1L43 0L42 0L42 1L43 1L43 2L42 2L42 3L43 3L43 4L42 4L42 5L40 5L40 4L39 4L39 5L38 5L38 7L37 7L37 6L36 6L36 5L37 5L37 3L38 3L38 2L40 2L40 3L41 3L41 2L40 2L40 1L41 1L41 0L39 0L39 1L38 1L38 0L36 0L36 1L34 1L34 0L33 0L33 2L32 2L32 0L29 0L29 2L30 2L30 1L31 1L31 3L33 3L33 4L30 4L30 7L29 7L29 6L28 6L28 4L29 4L29 3L27 3L27 0L26 0L26 1L25 1L25 0L22 0L22 1L20 1L20 3L19 3L19 1L18 1L18 0L13 0L13 1L15 1L15 3L14 3L14 2L13 2L13 3L11 3L11 1L12 1L12 0L11 0L11 1L10 1L10 0ZM53 0L53 1L54 1L54 0ZM55 0L55 1L56 1L56 3L55 3L55 2L54 2L54 3L53 3L53 2L52 2L52 1L48 1L48 2L52 2L52 3L53 3L53 6L52 6L52 8L53 8L53 6L54 6L54 8L55 8L55 5L54 5L54 4L56 4L56 5L57 5L57 4L56 4L56 3L57 3L57 1L56 1L56 0ZM17 1L17 2L16 2L16 3L15 3L15 4L14 4L14 3L13 3L13 5L12 5L12 4L11 4L11 5L10 5L10 6L9 6L9 7L10 7L10 8L9 8L9 9L6 9L6 10L5 10L5 9L1 9L1 10L3 10L3 11L4 11L4 13L3 13L3 12L2 12L2 13L3 13L3 15L2 15L2 16L1 16L1 18L2 18L2 16L3 16L3 15L4 15L4 17L3 17L3 19L1 19L1 20L3 20L3 21L2 21L2 22L4 22L4 21L5 21L5 22L10 22L10 21L11 21L11 20L12 20L12 21L14 21L14 16L15 16L15 19L16 19L16 21L15 21L15 22L16 22L16 21L17 21L17 23L18 23L18 24L17 24L17 25L15 25L15 24L16 24L16 23L15 23L15 24L13 24L13 23L11 23L11 24L13 24L13 25L12 25L12 27L11 27L11 26L10 26L10 28L9 28L9 29L8 29L8 30L11 30L11 29L10 29L10 28L12 28L12 30L13 30L13 31L12 31L12 32L11 32L11 33L10 33L10 34L9 34L9 35L10 35L10 34L12 34L12 35L11 35L11 36L10 36L10 37L9 37L9 36L8 36L8 37L9 37L9 38L10 38L10 37L11 37L11 39L10 39L10 40L9 40L9 41L10 41L10 42L11 42L11 43L12 43L12 45L13 45L13 46L11 46L11 49L13 49L13 48L12 48L12 47L14 47L14 50L13 50L13 51L14 51L14 52L15 52L15 53L13 53L13 52L12 52L12 53L10 53L10 54L12 54L12 53L13 53L13 56L15 56L15 53L16 53L16 54L17 54L17 55L16 55L16 56L17 56L17 55L18 55L18 56L19 56L19 57L20 57L20 58L21 58L21 59L22 59L22 58L21 58L21 57L25 57L25 56L24 56L24 55L23 55L23 53L22 53L22 52L21 52L21 51L22 51L22 50L21 50L21 49L23 49L23 50L24 50L24 49L25 49L25 50L26 50L26 49L27 49L27 48L26 48L26 47L28 47L28 48L29 48L29 49L28 49L28 50L30 50L30 51L29 51L29 53L27 53L27 51L26 51L26 54L27 54L27 56L26 56L26 57L27 57L27 56L29 56L29 57L28 57L28 59L27 59L27 58L26 58L26 59L27 59L27 60L26 60L26 61L27 61L27 60L28 60L28 59L29 59L29 60L30 60L30 58L29 58L29 57L30 57L30 55L31 55L31 56L33 56L33 54L34 54L34 55L36 55L36 56L37 56L37 55L38 55L38 54L39 54L39 53L38 53L38 52L39 52L39 51L38 51L38 50L39 50L39 49L42 49L42 48L44 48L44 50L45 50L45 52L44 52L44 51L43 51L43 50L42 50L42 52L40 52L40 54L41 54L41 56L38 56L38 57L37 57L37 58L36 58L36 57L35 57L35 58L36 58L36 59L35 59L35 60L37 60L37 59L38 59L38 62L39 62L39 61L42 61L42 60L40 60L40 59L41 59L41 57L43 57L43 58L42 58L42 59L43 59L43 60L44 60L44 61L45 61L45 62L47 62L47 64L49 64L49 63L50 63L50 64L51 64L51 63L53 63L53 64L54 64L54 63L55 63L55 62L54 62L54 63L53 63L53 61L54 61L54 60L56 60L56 59L55 59L55 58L56 58L56 56L58 56L58 55L56 55L56 56L54 56L54 55L55 55L55 54L53 54L53 56L52 56L52 58L51 58L51 55L50 55L50 58L51 58L51 59L53 59L53 56L54 56L54 57L55 57L55 58L54 58L54 60L52 60L52 62L51 62L51 60L49 60L49 59L48 59L48 58L49 58L49 57L47 57L47 56L49 56L49 55L48 55L48 54L49 54L49 53L50 53L50 54L52 54L52 53L56 53L56 54L57 54L57 52L58 52L58 53L59 53L59 52L60 52L60 53L62 53L62 52L63 52L63 51L62 51L62 52L60 52L60 51L61 51L61 50L63 50L63 49L62 49L62 48L60 48L60 47L59 47L59 48L58 48L58 49L59 49L59 50L58 50L58 51L57 51L57 48L55 48L55 46L54 46L54 45L53 45L53 44L52 44L52 43L53 43L53 42L52 42L52 43L50 43L50 42L51 42L51 41L53 41L53 40L55 40L55 39L56 39L56 40L57 40L57 37L58 37L58 39L59 39L59 37L61 37L61 35L62 35L62 36L63 36L63 35L62 35L62 34L64 34L64 32L63 32L63 33L62 33L62 32L61 32L61 35L59 35L59 36L55 36L55 35L56 35L56 31L55 31L55 30L54 30L54 31L53 31L53 32L52 32L52 31L51 31L51 32L49 32L49 31L50 31L50 30L51 30L51 28L50 28L50 27L48 27L48 26L47 26L47 25L46 25L46 26L45 26L45 28L44 28L44 27L43 27L43 26L42 26L42 25L43 25L43 24L42 24L42 23L44 23L44 21L45 21L45 23L46 23L46 22L47 22L47 24L49 24L49 25L50 25L50 26L51 26L51 27L52 27L52 26L53 26L53 28L52 28L52 29L56 29L56 30L57 30L57 29L56 29L56 28L58 28L58 26L59 26L59 25L56 25L56 26L53 26L53 25L54 25L54 24L52 24L52 25L50 25L50 24L51 24L51 23L49 23L49 22L48 22L48 20L49 20L49 19L50 19L50 18L51 18L51 16L52 16L52 17L53 17L53 16L52 16L52 15L55 15L55 16L57 16L57 15L55 15L55 14L54 14L54 12L52 12L52 10L51 10L51 9L49 9L49 10L48 10L48 8L50 8L50 5L48 5L48 6L47 6L47 7L46 7L46 6L45 6L45 5L44 5L44 4L46 4L46 3L44 3L44 2L43 2L43 3L44 3L44 4L43 4L43 5L42 5L42 6L41 6L41 7L42 7L42 6L43 6L43 8L44 8L44 9L43 9L43 10L42 10L42 8L40 8L40 5L39 5L39 7L38 7L38 10L37 10L37 9L36 9L36 10L35 10L35 9L33 9L33 10L32 10L32 9L30 9L30 11L31 11L31 12L30 12L30 13L27 13L27 12L26 12L26 11L28 11L28 12L29 12L29 11L28 11L28 10L29 10L29 9L28 9L28 10L26 10L26 9L27 9L27 8L29 8L29 7L28 7L28 6L27 6L27 7L26 7L26 6L25 6L25 8L21 8L21 7L22 7L22 6L23 6L23 7L24 7L24 6L23 6L23 4L25 4L25 3L26 3L26 4L27 4L27 3L26 3L26 2L25 2L25 1L22 1L22 2L21 2L21 3L22 3L22 4L20 4L20 6L19 6L19 5L18 5L18 6L17 6L17 8L16 8L16 3L17 3L17 4L18 4L18 3L17 3L17 2L18 2L18 1ZM36 1L36 2L34 2L34 3L35 3L35 5L36 5L36 3L37 3L37 2L38 2L38 1ZM45 1L45 2L46 2L46 1ZM24 2L24 3L25 3L25 2ZM11 5L11 6L10 6L10 7L11 7L11 6L12 6L12 7L13 7L13 8L12 8L12 9L13 9L13 10L10 10L10 9L11 9L11 8L10 8L10 9L9 9L9 11L8 11L8 10L6 10L6 11L7 11L7 12L5 12L5 15L7 15L7 16L5 16L5 17L4 17L4 18L5 18L5 17L9 17L9 19L8 19L8 20L6 20L6 19L7 19L7 18L6 18L6 19L4 19L4 20L5 20L5 21L8 21L8 20L10 20L10 18L11 18L11 19L12 19L12 18L13 18L13 17L11 17L11 16L10 16L10 17L9 17L9 16L8 16L8 14L6 14L6 13L7 13L7 12L8 12L8 13L9 13L9 11L10 11L10 12L11 12L11 13L10 13L10 14L11 14L11 15L12 15L12 16L13 16L13 15L14 15L14 14L13 14L13 13L14 13L14 12L15 12L15 14L17 14L17 13L19 13L19 14L18 14L18 15L17 15L17 16L16 16L16 15L15 15L15 16L16 16L16 19L18 19L18 17L21 17L21 18L20 18L20 19L21 19L21 20L20 20L20 21L18 21L18 20L17 20L17 21L18 21L18 22L19 22L19 23L21 23L21 24L18 24L18 25L19 25L19 26L20 26L20 27L21 27L21 28L23 28L23 29L22 29L22 30L23 30L23 31L24 31L24 32L23 32L23 33L22 33L22 34L21 34L21 35L19 35L19 34L18 34L18 35L17 35L17 34L16 34L16 37L15 37L15 32L16 32L16 33L17 33L17 32L16 32L16 31L15 31L15 32L12 32L12 34L13 34L13 35L12 35L12 37L14 37L14 38L12 38L12 40L13 40L13 39L14 39L14 40L15 40L15 41L13 41L13 43L14 43L14 45L16 45L16 46L15 46L15 47L16 47L16 48L15 48L15 49L17 49L17 47L18 47L18 49L19 49L19 51L20 51L20 49L21 49L21 48L24 48L24 47L22 47L22 46L24 46L24 45L26 45L26 46L27 46L27 45L26 45L26 44L28 44L28 45L29 45L29 44L28 44L28 43L30 43L30 44L31 44L31 42L32 42L32 43L33 43L33 44L32 44L32 45L30 45L30 46L29 46L29 47L30 47L30 50L31 50L31 46L32 46L32 47L33 47L33 46L34 46L34 45L35 45L35 46L38 46L38 47L37 47L37 48L36 48L36 47L34 47L34 48L32 48L32 49L35 49L35 48L36 48L36 49L37 49L37 48L39 48L39 46L38 46L38 45L39 45L39 44L41 44L41 45L40 45L40 46L41 46L41 47L40 47L40 48L42 48L42 46L44 46L44 48L46 48L46 49L47 49L47 50L46 50L46 51L47 51L47 52L48 52L48 53L49 53L49 52L48 52L48 49L49 49L49 51L51 51L51 52L50 52L50 53L52 53L52 52L53 52L53 50L56 50L56 49L55 49L55 48L53 48L53 47L52 47L52 46L53 46L53 45L52 45L52 44L51 44L51 46L50 46L50 44L48 44L48 43L47 43L47 42L50 42L50 41L51 41L51 40L47 40L47 42L46 42L46 41L44 41L44 40L45 40L45 39L47 39L47 38L45 38L45 37L44 37L44 38L45 38L45 39L44 39L44 40L43 40L43 41L42 41L42 42L43 42L43 43L44 43L44 44L43 44L43 45L42 45L42 43L41 43L41 41L40 41L40 43L39 43L39 42L38 42L38 41L39 41L39 40L41 40L41 39L40 39L40 38L41 38L41 37L39 37L39 35L40 35L40 36L41 36L41 35L40 35L40 34L41 34L41 33L42 33L42 34L43 34L43 33L44 33L44 34L45 34L45 33L49 33L49 32L46 32L46 31L48 31L48 30L50 30L50 28L48 28L48 29L47 29L47 28L46 28L46 29L47 29L47 30L45 30L45 31L44 31L44 32L42 32L42 31L41 31L41 30L44 30L44 28L42 28L42 26L41 26L41 25L39 25L39 26L38 26L38 27L39 27L39 26L40 26L40 28L42 28L42 29L40 29L40 31L39 31L39 30L38 30L38 29L39 29L39 28L38 28L38 29L37 29L37 28L34 28L34 27L35 27L35 26L34 26L34 25L33 25L33 27L32 27L32 26L31 26L31 25L30 25L30 26L31 26L31 27L29 27L29 26L28 26L28 25L29 25L29 24L28 24L28 23L29 23L29 22L33 22L33 21L35 21L35 22L34 22L34 24L35 24L35 25L38 25L38 23L39 23L39 24L41 24L41 23L42 23L42 22L43 22L43 21L42 21L42 22L40 22L40 23L39 23L39 22L37 22L37 20L34 20L34 19L35 19L35 18L34 18L34 17L35 17L35 16L34 16L34 15L37 15L37 13L39 13L39 14L38 14L38 16L36 16L36 17L37 17L37 18L36 18L36 19L37 19L37 18L38 18L38 19L39 19L39 20L38 20L38 21L40 21L40 20L41 20L41 19L42 19L42 18L43 18L43 19L44 19L44 20L45 20L45 21L47 21L47 20L46 20L46 19L49 19L49 17L50 17L50 16L48 16L48 18L46 18L46 17L47 17L47 15L48 15L48 14L50 14L50 15L52 15L52 14L53 14L53 13L51 13L51 12L50 12L50 13L49 13L49 12L48 12L48 10L46 10L46 9L47 9L47 8L46 8L46 7L45 7L45 6L44 6L44 8L45 8L45 9L44 9L44 10L46 10L46 11L44 11L44 12L45 12L45 13L48 13L48 14L46 14L46 15L45 15L45 14L43 14L43 13L42 13L42 12L43 12L43 11L42 11L42 12L41 12L41 11L39 11L39 10L38 10L38 12L36 12L36 14L34 14L34 15L32 15L32 14L33 14L33 13L32 13L32 12L33 12L33 11L32 11L32 12L31 12L31 15L30 15L30 16L33 16L33 17L32 17L32 18L34 18L34 19L32 19L32 20L31 20L31 19L28 19L28 18L27 18L27 17L26 17L26 16L28 16L28 17L29 17L29 16L28 16L28 15L27 15L27 13L25 13L25 12L24 12L24 13L22 13L22 12L23 12L23 9L22 9L22 11L20 11L20 10L18 10L18 9L19 9L19 8L20 8L20 9L21 9L21 8L20 8L20 7L21 7L21 6L22 6L22 5L21 5L21 6L20 6L20 7L19 7L19 6L18 6L18 8L17 8L17 10L18 10L18 11L19 11L19 12L16 12L16 11L13 11L13 10L15 10L15 5L13 5L13 6L12 6L12 5ZM31 5L31 8L34 8L34 5ZM13 6L13 7L14 7L14 6ZM32 6L32 7L33 7L33 6ZM35 6L35 8L37 8L37 7L36 7L36 6ZM48 6L48 7L49 7L49 6ZM56 6L56 7L57 7L57 6ZM13 8L13 9L14 9L14 8ZM24 9L24 10L25 10L25 9ZM40 9L40 10L41 10L41 9ZM56 9L56 10L57 10L57 9ZM34 10L34 11L35 11L35 10ZM36 10L36 11L37 11L37 10ZM50 10L50 11L51 11L51 10ZM54 10L54 11L55 11L55 12L57 12L57 11L55 11L55 10ZM46 11L46 12L47 12L47 11ZM62 11L62 12L63 12L63 11ZM12 12L12 13L13 13L13 12ZM19 12L19 13L21 13L21 12ZM39 12L39 13L41 13L41 12ZM24 13L24 14L22 14L22 15L21 15L21 17L23 17L23 18L24 18L24 19L23 19L23 21L22 21L22 20L21 20L21 21L20 21L20 22L21 22L21 21L22 21L22 24L21 24L21 25L20 25L20 26L21 26L21 25L23 25L23 26L22 26L22 27L23 27L23 28L24 28L24 27L25 27L25 31L26 31L26 33L27 33L27 34L25 34L25 35L24 35L24 34L22 34L22 35L21 35L21 36L22 36L22 37L20 37L20 38L19 38L19 39L18 39L18 38L17 38L17 37L18 37L18 36L17 36L17 37L16 37L16 38L17 38L17 40L19 40L19 41L18 41L18 42L17 42L17 41L15 41L15 42L14 42L14 43L15 43L15 42L17 42L17 43L16 43L16 45L17 45L17 46L18 46L18 47L20 47L20 46L19 46L19 45L21 45L21 44L22 44L22 45L24 45L24 44L23 44L23 43L24 43L24 41L25 41L25 44L26 44L26 43L27 43L27 42L26 42L26 41L28 41L28 42L30 42L30 41L31 41L31 40L29 40L29 41L28 41L28 38L30 38L30 39L33 39L33 41L32 41L32 42L33 42L33 43L35 43L35 44L39 44L39 43L37 43L37 41L38 41L38 40L39 40L39 39L38 39L38 38L39 38L39 37L38 37L38 34L40 34L40 33L41 33L41 32L39 32L39 31L37 31L37 29L33 29L33 28L32 28L32 29L31 29L31 28L29 28L29 29L27 29L27 28L26 28L26 26L24 26L24 25L25 25L25 24L26 24L26 25L28 25L28 24L26 24L26 23L27 23L27 22L29 22L29 21L31 21L31 20L29 20L29 21L27 21L27 20L28 20L28 19L27 19L27 18L26 18L26 17L25 17L25 16L26 16L26 15L25 15L25 13ZM50 13L50 14L51 14L51 13ZM12 14L12 15L13 15L13 14ZM19 14L19 15L20 15L20 14ZM40 14L40 15L39 15L39 16L38 16L38 18L39 18L39 19L41 19L41 17L43 17L43 16L44 16L44 17L45 17L45 16L44 16L44 15L43 15L43 14ZM22 15L22 16L24 16L24 15ZM40 15L40 16L41 16L41 15ZM42 15L42 16L43 16L43 15ZM58 15L58 16L59 16L59 15ZM60 15L60 16L61 16L61 15ZM17 16L17 17L18 17L18 16ZM24 17L24 18L25 18L25 19L26 19L26 18L25 18L25 17ZM30 17L30 18L31 18L31 17ZM56 17L56 19L55 19L55 18L54 18L54 19L55 19L55 20L54 20L54 21L55 21L55 22L52 22L52 21L53 21L53 20L51 20L51 21L50 21L50 22L52 22L52 23L58 23L58 24L63 24L63 23L62 23L62 20L63 20L63 19L61 19L61 18L62 18L62 17L60 17L60 19L58 19L58 20L57 20L57 18L59 18L59 17ZM21 18L21 19L22 19L22 18ZM32 20L32 21L33 21L33 20ZM56 20L56 21L57 21L57 20ZM59 20L59 22L58 22L58 23L59 23L59 22L61 22L61 20ZM23 21L23 22L24 22L24 23L23 23L23 25L24 25L24 24L25 24L25 21ZM26 21L26 22L27 22L27 21ZM35 22L35 23L36 23L36 24L37 24L37 23L36 23L36 22ZM1 23L1 24L2 24L2 23ZM9 23L9 24L10 24L10 23ZM30 23L30 24L31 24L31 23ZM32 23L32 24L33 24L33 23ZM44 24L44 25L45 25L45 24ZM1 25L1 27L2 27L2 25ZM60 25L60 26L61 26L61 25ZM7 26L7 27L6 27L6 28L8 28L8 27L9 27L9 26ZM13 26L13 27L14 27L14 28L16 28L16 27L17 27L17 29L20 29L20 28L19 28L19 27L17 27L17 26ZM36 26L36 27L37 27L37 26ZM46 26L46 27L47 27L47 26ZM56 26L56 27L57 27L57 26ZM54 27L54 28L55 28L55 27ZM62 27L62 28L63 28L63 27ZM6 29L6 30L7 30L7 29ZM13 29L13 30L16 30L16 29ZM23 29L23 30L24 30L24 29ZM26 29L26 30L27 30L27 29ZM30 29L30 30L28 30L28 31L27 31L27 33L29 33L29 34L27 34L27 35L26 35L26 36L25 36L25 37L23 37L23 38L25 38L25 39L24 39L24 40L25 40L25 41L26 41L26 40L27 40L27 39L26 39L26 38L27 38L27 37L26 37L26 36L28 36L28 37L29 37L29 36L30 36L30 37L31 37L31 36L30 36L30 35L33 35L33 36L32 36L32 37L33 37L33 39L34 39L34 40L35 40L35 39L34 39L34 38L37 38L37 36L35 36L35 34L36 34L36 35L37 35L37 34L38 34L38 32L36 32L36 30L33 30L33 29L32 29L32 30L31 30L31 29ZM18 30L18 33L19 33L19 31L20 31L20 30ZM5 31L5 34L8 34L8 31ZM9 31L9 32L10 32L10 31ZM28 31L28 32L29 32L29 33L30 33L30 31ZM31 31L31 34L34 34L34 31ZM54 31L54 32L55 32L55 31ZM57 31L57 34L60 34L60 31ZM2 32L2 33L3 33L3 32ZM6 32L6 33L7 33L7 32ZM20 32L20 33L21 33L21 32ZM24 32L24 33L25 33L25 32ZM32 32L32 33L33 33L33 32ZM35 32L35 33L36 33L36 32ZM44 32L44 33L45 33L45 32ZM51 32L51 34L50 34L50 35L52 35L52 36L53 36L53 37L51 37L51 36L50 36L50 37L49 37L49 36L48 36L48 35L49 35L49 34L48 34L48 35L47 35L47 34L46 34L46 35L42 35L42 36L46 36L46 37L47 37L47 36L48 36L48 37L49 37L49 39L52 39L52 40L53 40L53 39L54 39L54 38L56 38L56 37L54 37L54 35L52 35L52 34L55 34L55 33L52 33L52 32ZM58 32L58 33L59 33L59 32ZM13 33L13 34L14 34L14 33ZM5 35L5 36L7 36L7 35ZM23 35L23 36L24 36L24 35ZM28 35L28 36L29 36L29 35ZM46 35L46 36L47 36L47 35ZM6 37L6 38L7 38L7 37ZM42 37L42 38L43 38L43 37ZM50 37L50 38L51 38L51 37ZM20 38L20 39L22 39L22 38ZM52 38L52 39L53 39L53 38ZM10 40L10 41L11 41L11 40ZM20 40L20 41L21 41L21 40ZM36 40L36 41L34 41L34 42L36 42L36 41L37 41L37 40ZM63 40L63 41L64 41L64 40ZM1 41L1 42L2 42L2 41ZM22 41L22 43L23 43L23 41ZM59 41L59 42L61 42L61 41ZM18 42L18 43L17 43L17 45L19 45L19 42ZM44 42L44 43L45 43L45 44L44 44L44 46L45 46L45 47L46 47L46 48L47 48L47 47L48 47L48 48L49 48L49 49L50 49L50 50L51 50L51 51L52 51L52 50L53 50L53 48L52 48L52 50L51 50L51 49L50 49L50 48L51 48L51 47L50 47L50 46L49 46L49 45L46 45L46 43L45 43L45 42ZM1 43L1 44L2 44L2 43ZM20 43L20 44L21 44L21 43ZM3 44L3 46L4 46L4 44ZM33 44L33 45L32 45L32 46L33 46L33 45L34 45L34 44ZM55 44L55 45L56 45L56 44ZM8 46L8 47L9 47L9 48L10 48L10 47L9 47L9 46ZM46 46L46 47L47 47L47 46ZM48 46L48 47L49 47L49 46ZM7 48L7 49L8 49L8 48ZM19 48L19 49L20 49L20 48ZM59 48L59 49L60 49L60 50L61 50L61 49L60 49L60 48ZM11 50L11 51L12 51L12 50ZM14 50L14 51L15 51L15 50ZM16 50L16 51L18 51L18 50ZM40 50L40 51L41 51L41 50ZM24 51L24 53L25 53L25 51ZM30 51L30 53L31 53L31 55L32 55L32 53L37 53L37 54L36 54L36 55L37 55L37 54L38 54L38 53L37 53L37 52L35 52L35 51ZM54 51L54 52L56 52L56 51ZM58 51L58 52L59 52L59 51ZM16 52L16 53L18 53L18 55L20 55L20 57L21 57L21 56L22 56L22 55L21 55L21 54L22 54L22 53L21 53L21 52L20 52L20 53L21 53L21 54L19 54L19 53L18 53L18 52ZM31 52L31 53L32 53L32 52ZM42 52L42 54L43 54L43 55L42 55L42 56L43 56L43 57L44 57L44 58L45 58L45 59L44 59L44 60L45 60L45 61L47 61L47 62L49 62L49 60L48 60L48 61L47 61L47 60L46 60L46 59L47 59L47 58L46 58L46 56L47 56L47 54L46 54L46 56L45 56L45 55L44 55L44 54L43 54L43 52ZM3 53L3 54L4 54L4 53ZM28 54L28 55L30 55L30 54ZM11 55L11 56L12 56L12 55ZM6 56L6 57L7 57L7 56ZM44 56L44 57L45 57L45 56ZM31 57L31 60L34 60L34 57ZM39 57L39 58L38 58L38 59L39 59L39 58L40 58L40 57ZM57 57L57 60L60 60L60 57ZM32 58L32 59L33 59L33 58ZM58 58L58 59L59 59L59 58ZM12 59L12 60L13 60L13 59ZM11 61L11 63L12 63L12 61ZM60 61L60 62L61 62L61 63L62 63L62 64L63 64L63 62L61 62L61 61ZM18 62L18 63L20 63L20 62ZM50 62L50 63L51 63L51 62ZM14 63L14 65L15 65L15 64L16 64L16 65L19 65L19 64L16 64L16 63ZM26 63L26 64L25 64L25 65L26 65L26 64L27 64L27 63ZM20 64L20 65L21 65L21 64ZM28 64L28 65L29 65L29 64ZM0 0L0 7L7 7L7 0ZM1 1L1 6L6 6L6 1ZM2 2L2 5L5 5L5 2ZM58 0L58 7L65 7L65 0ZM59 1L59 6L64 6L64 1ZM60 2L60 5L63 5L63 2ZM0 58L0 65L7 65L7 58ZM1 59L1 64L6 64L6 59ZM2 60L2 63L5 63L5 60Z" fill="#000000"/></g></g></svg>
