<?xml version="1.0" encoding="UTF-8"?>
<svg xmlns="http://www.w3.org/2000/svg" version="1.1" width="300" height="300" viewBox="0 0 300 300"><rect x="0" y="0" width="300" height="300" fill="#ffffff"/><g transform="scale(4.615)"><g transform="translate(0,0)"><path fill-rule="evenodd" d="M9 0L9 1L8 1L8 2L11 2L11 6L10 6L10 3L8 3L8 4L9 4L9 5L8 5L8 7L9 7L9 6L10 6L10 8L11 8L11 9L10 9L10 11L9 11L9 8L6 8L6 9L7 9L7 10L6 10L6 11L5 11L5 10L4 10L4 9L5 9L5 8L0 8L0 9L1 9L1 10L0 10L0 11L1 11L1 10L2 10L2 11L3 11L3 13L2 13L2 16L3 16L3 14L4 14L4 12L6 12L6 13L7 13L7 14L6 14L6 15L7 15L7 16L6 16L6 17L7 17L7 18L6 18L6 19L8 19L8 22L6 22L6 23L7 23L7 24L5 24L5 26L6 26L6 27L7 27L7 28L6 28L6 29L8 29L8 30L4 30L4 35L5 35L5 37L4 37L4 36L2 36L2 35L0 35L0 36L1 36L1 37L0 37L0 38L1 38L1 40L0 40L0 42L1 42L1 41L2 41L2 43L1 43L1 44L0 44L0 46L1 46L1 45L3 45L3 46L2 46L2 47L0 47L0 49L3 49L3 47L4 47L4 48L5 48L5 49L7 49L7 48L5 48L5 47L7 47L7 46L8 46L8 48L10 48L10 49L11 49L11 50L9 50L9 49L8 49L8 50L5 50L5 55L7 55L7 54L6 54L6 53L8 53L8 55L9 55L9 56L8 56L8 59L9 59L9 60L8 60L8 65L9 65L9 61L10 61L10 62L11 62L11 63L12 63L12 64L11 64L11 65L13 65L13 64L14 64L14 63L16 63L16 64L15 64L15 65L19 65L19 64L20 64L20 65L22 65L22 64L21 64L21 61L19 61L19 60L18 60L18 59L19 59L19 58L20 58L20 57L21 57L21 58L22 58L22 60L23 60L23 58L25 58L25 59L24 59L24 60L25 60L25 61L22 61L22 63L24 63L24 64L23 64L23 65L24 65L24 64L25 64L25 65L26 65L26 63L24 63L24 62L25 62L25 61L26 61L26 62L27 62L27 61L26 61L26 60L28 60L28 61L31 61L31 62L30 62L30 63L32 63L32 64L34 64L34 65L37 65L37 64L36 64L36 63L37 63L37 62L36 62L36 63L35 63L35 62L34 62L34 61L38 61L38 60L39 60L39 62L38 62L38 63L39 63L39 64L38 64L38 65L39 65L39 64L42 64L42 65L44 65L44 64L45 64L45 65L47 65L47 64L48 64L48 65L49 65L49 64L48 64L48 62L49 62L49 63L51 63L51 64L50 64L50 65L52 65L52 64L53 64L53 65L54 65L54 64L53 64L53 63L51 63L51 62L52 62L52 60L53 60L53 62L55 62L55 64L56 64L56 65L57 65L57 64L58 64L58 65L61 65L61 64L62 64L62 65L63 65L63 64L64 64L64 61L65 61L65 60L64 60L64 59L63 59L63 60L62 60L62 61L63 61L63 62L62 62L62 63L61 63L61 62L60 62L60 61L61 61L61 58L63 58L63 57L64 57L64 58L65 58L65 56L62 56L62 54L65 54L65 53L64 53L64 52L62 52L62 51L64 51L64 50L65 50L65 49L64 49L64 48L62 48L62 47L63 47L63 46L65 46L65 43L64 43L64 42L65 42L65 41L64 41L64 40L62 40L62 39L63 39L63 38L65 38L65 37L64 37L64 34L65 34L65 33L64 33L64 32L65 32L65 31L64 31L64 32L62 32L62 31L63 31L63 30L62 30L62 29L64 29L64 28L65 28L65 27L63 27L63 24L64 24L64 26L65 26L65 24L64 24L64 22L65 22L65 20L64 20L64 18L65 18L65 15L64 15L64 16L62 16L62 15L63 15L63 14L62 14L62 15L61 15L61 16L60 16L60 13L64 13L64 14L65 14L65 13L64 13L64 12L65 12L65 11L64 11L64 12L60 12L60 11L59 11L59 10L58 10L58 8L56 8L56 9L57 9L57 10L56 10L56 11L57 11L57 12L56 12L56 13L55 13L55 11L54 11L54 12L53 12L53 10L55 10L55 9L52 9L52 11L51 11L51 10L50 10L50 9L51 9L51 8L47 8L47 10L46 10L46 11L44 11L44 9L43 9L43 8L42 8L42 7L43 7L43 6L42 6L42 7L41 7L41 6L40 6L40 7L39 7L39 5L38 5L38 4L39 4L39 3L42 3L42 5L43 5L43 4L44 4L44 5L45 5L45 4L46 4L46 3L47 3L47 2L48 2L48 1L50 1L50 3L48 3L48 5L46 5L46 7L47 7L47 6L48 6L48 7L49 7L49 6L48 6L48 5L50 5L50 7L51 7L51 5L52 5L52 8L53 8L53 6L54 6L54 8L55 8L55 5L54 5L54 4L56 4L56 5L57 5L57 4L56 4L56 3L57 3L57 1L56 1L56 0L55 0L55 1L56 1L56 3L55 3L55 2L54 2L54 3L53 3L53 2L52 2L52 1L54 1L54 0L51 0L51 1L50 1L50 0L48 0L48 1L46 1L46 0L44 0L44 1L45 1L45 2L44 2L44 3L42 3L42 2L40 2L40 1L43 1L43 0L39 0L39 1L38 1L38 0L35 0L35 1L33 1L33 0L30 0L30 1L32 1L32 3L33 3L33 4L30 4L30 3L31 3L31 2L30 2L30 3L28 3L28 4L26 4L26 5L27 5L27 6L26 6L26 8L27 8L27 9L22 9L22 7L23 7L23 6L22 6L22 7L21 7L21 6L20 6L20 5L19 5L19 4L18 4L18 3L15 3L15 4L13 4L13 1L14 1L14 2L15 2L15 0L13 0L13 1L12 1L12 0ZM16 0L16 2L18 2L18 1L17 1L17 0ZM19 0L19 2L21 2L21 1L20 1L20 0ZM22 0L22 1L23 1L23 2L25 2L25 0ZM26 0L26 3L27 3L27 2L28 2L28 0ZM11 1L11 2L12 2L12 1ZM35 1L35 2L33 2L33 3L34 3L34 4L35 4L35 3L37 3L37 4L36 4L36 5L35 5L35 8L37 8L37 9L36 9L36 10L35 10L35 9L33 9L33 10L32 10L32 9L30 9L30 8L29 8L29 9L28 9L28 11L27 11L27 10L26 10L26 11L25 11L25 10L23 10L23 12L22 12L22 13L25 13L25 14L21 14L21 9L20 9L20 8L19 8L19 9L18 9L18 11L15 11L15 12L14 12L14 11L13 11L13 10L14 10L14 9L15 9L15 10L17 10L17 8L16 8L16 6L17 6L17 7L18 7L18 6L19 6L19 7L20 7L20 6L19 6L19 5L18 5L18 4L15 4L15 5L16 5L16 6L15 6L15 7L14 7L14 6L13 6L13 4L12 4L12 6L11 6L11 7L12 7L12 8L13 8L13 9L11 9L11 10L12 10L12 13L13 13L13 14L11 14L11 15L13 15L13 16L10 16L10 17L9 17L9 15L10 15L10 13L9 13L9 12L8 12L8 10L7 10L7 11L6 11L6 12L8 12L8 14L9 14L9 15L8 15L8 16L7 16L7 17L8 17L8 19L10 19L10 18L12 18L12 17L14 17L14 18L13 18L13 19L11 19L11 20L9 20L9 22L10 22L10 23L11 23L11 22L10 22L10 21L12 21L12 22L13 22L13 23L14 23L14 22L13 22L13 21L14 21L14 20L13 20L13 19L15 19L15 17L16 17L16 16L17 16L17 15L15 15L15 17L14 17L14 15L13 15L13 14L17 14L17 13L15 13L15 12L18 12L18 11L19 11L19 12L20 12L20 13L18 13L18 14L20 14L20 15L19 15L19 16L21 16L21 17L20 17L20 18L19 18L19 17L18 17L18 18L17 18L17 19L18 19L18 18L19 18L19 20L21 20L21 21L20 21L20 22L19 22L19 24L21 24L21 23L20 23L20 22L22 22L22 23L24 23L24 21L25 21L25 20L26 20L26 21L28 21L28 22L29 22L29 21L28 21L28 20L29 20L29 19L34 19L34 20L32 20L32 21L31 21L31 20L30 20L30 21L31 21L31 22L35 22L35 23L33 23L33 24L30 24L30 25L27 25L27 24L26 24L26 22L25 22L25 24L24 24L24 25L27 25L27 27L25 27L25 26L24 26L24 29L25 29L25 31L21 31L21 32L22 32L22 33L25 33L25 36L24 36L24 35L22 35L22 34L21 34L21 33L20 33L20 32L19 32L19 31L20 31L20 30L19 30L19 29L23 29L23 28L21 28L21 27L19 27L19 25L16 25L16 24L18 24L18 23L17 23L17 21L18 21L18 20L15 20L15 21L16 21L16 22L15 22L15 23L16 23L16 24L8 24L8 25L6 25L6 26L7 26L7 27L8 27L8 29L9 29L9 30L10 30L10 27L8 27L8 25L16 25L16 26L17 26L17 27L18 27L18 28L16 28L16 29L14 29L14 28L12 28L12 29L14 29L14 30L13 30L13 31L12 31L12 30L11 30L11 32L9 32L9 33L10 33L10 37L9 37L9 36L8 36L8 35L6 35L6 36L8 36L8 37L9 37L9 38L10 38L10 39L8 39L8 40L11 40L11 41L10 41L10 42L9 42L9 43L8 43L8 42L7 42L7 41L6 41L6 42L7 42L7 43L4 43L4 42L5 42L5 41L3 41L3 43L2 43L2 44L4 44L4 45L5 45L5 44L7 44L7 45L6 45L6 46L7 46L7 45L8 45L8 46L9 46L9 45L11 45L11 47L10 47L10 48L11 48L11 49L13 49L13 51L10 51L10 52L12 52L12 53L13 53L13 55L12 55L12 54L11 54L11 53L9 53L9 52L8 52L8 53L9 53L9 54L10 54L10 55L12 55L12 57L13 57L13 59L14 59L14 58L17 58L17 59L16 59L16 61L15 61L15 60L14 60L14 61L12 61L12 63L13 63L13 62L16 62L16 61L17 61L17 63L18 63L18 62L19 62L19 63L20 63L20 62L19 62L19 61L17 61L17 59L18 59L18 58L19 58L19 57L20 57L20 56L21 56L21 57L23 57L23 56L21 56L21 55L20 55L20 56L19 56L19 57L18 57L18 55L19 55L19 54L18 54L18 55L17 55L17 53L18 53L18 52L17 52L17 53L16 53L16 51L18 51L18 50L19 50L19 51L21 51L21 52L22 52L22 55L23 55L23 51L22 51L22 49L25 49L25 48L26 48L26 49L27 49L27 50L26 50L26 53L25 53L25 52L24 52L24 53L25 53L25 54L24 54L24 57L25 57L25 58L26 58L26 59L27 59L27 58L30 58L30 56L31 56L31 55L35 55L35 54L36 54L36 56L37 56L37 57L38 57L38 58L39 58L39 57L41 57L41 56L39 56L39 55L38 55L38 54L40 54L40 55L42 55L42 57L43 57L43 58L42 58L42 59L41 59L41 58L40 58L40 59L41 59L41 60L40 60L40 62L39 62L39 63L40 63L40 62L41 62L41 63L43 63L43 64L44 64L44 63L45 63L45 60L46 60L46 62L47 62L47 60L49 60L49 59L50 59L50 62L51 62L51 59L50 59L50 58L51 58L51 57L53 57L53 58L52 58L52 59L55 59L55 60L54 60L54 61L55 61L55 60L56 60L56 59L55 59L55 58L56 58L56 56L57 56L57 55L56 55L56 54L57 54L57 53L58 53L58 55L59 55L59 56L60 56L60 55L59 55L59 53L61 53L61 54L62 54L62 52L60 52L60 51L61 51L61 50L64 50L64 49L61 49L61 48L60 48L60 49L61 49L61 50L58 50L58 51L57 51L57 52L54 52L54 51L55 51L55 50L54 50L54 51L53 51L53 50L52 50L52 51L53 51L53 52L52 52L52 53L50 53L50 54L49 54L49 53L46 53L46 52L49 52L49 51L50 51L50 50L51 50L51 49L54 49L54 48L55 48L55 49L56 49L56 50L57 50L57 47L60 47L60 45L62 45L62 44L64 44L64 43L61 43L61 42L59 42L59 41L62 41L62 42L63 42L63 41L62 41L62 40L61 40L61 39L62 39L62 38L63 38L63 37L61 37L61 36L57 36L57 37L58 37L58 39L60 39L60 40L57 40L57 38L54 38L54 39L53 39L53 38L52 38L52 39L53 39L53 40L51 40L51 39L50 39L50 38L51 38L51 37L53 37L53 36L52 36L52 35L54 35L54 37L56 37L56 36L55 36L55 35L56 35L56 32L55 32L55 31L56 31L56 30L57 30L57 29L56 29L56 28L58 28L58 30L59 30L59 28L63 28L63 27L62 27L62 25L60 25L60 24L61 24L61 22L59 22L59 21L56 21L56 20L54 20L54 21L55 21L55 22L53 22L53 20L52 20L52 21L50 21L50 20L49 20L49 19L50 19L50 18L51 18L51 19L53 19L53 17L55 17L55 16L54 16L54 15L55 15L55 14L52 14L52 15L51 15L51 16L50 16L50 14L51 14L51 13L53 13L53 12L51 12L51 13L49 13L49 14L48 14L48 15L46 15L46 14L47 14L47 13L48 13L48 12L50 12L50 11L48 11L48 10L49 10L49 9L48 9L48 10L47 10L47 11L46 11L46 12L47 12L47 13L46 13L46 14L45 14L45 12L44 12L44 11L43 11L43 10L42 10L42 8L40 8L40 9L41 9L41 11L43 11L43 12L44 12L44 14L42 14L42 12L40 12L40 11L39 11L39 13L38 13L38 12L37 12L37 11L36 11L36 10L37 10L37 9L38 9L38 10L39 10L39 9L38 9L38 8L39 8L39 7L38 7L38 5L37 5L37 4L38 4L38 3L39 3L39 2L37 2L37 1ZM45 2L45 3L44 3L44 4L45 4L45 3L46 3L46 2ZM51 2L51 3L50 3L50 5L51 5L51 4L52 4L52 5L53 5L53 3L52 3L52 2ZM20 3L20 4L21 4L21 5L23 5L23 4L24 4L24 5L25 5L25 4L24 4L24 3L23 3L23 4L22 4L22 3ZM28 4L28 5L30 5L30 4ZM31 5L31 8L34 8L34 5ZM36 5L36 7L37 7L37 5ZM12 6L12 7L13 7L13 8L14 8L14 7L13 7L13 6ZM24 6L24 8L25 8L25 6ZM27 6L27 7L28 7L28 6ZM29 6L29 7L30 7L30 6ZM32 6L32 7L33 7L33 6ZM44 6L44 8L45 8L45 6ZM56 6L56 7L57 7L57 6ZM59 8L59 9L60 9L60 8ZM61 8L61 9L62 9L62 8ZM63 8L63 10L62 10L62 11L63 11L63 10L65 10L65 9L64 9L64 8ZM2 9L2 10L3 10L3 11L4 11L4 10L3 10L3 9ZM19 9L19 10L20 10L20 9ZM33 10L33 11L30 11L30 12L29 12L29 11L28 11L28 13L26 13L26 14L27 14L27 15L26 15L26 16L27 16L27 17L22 17L22 18L20 18L20 19L21 19L21 20L24 20L24 19L25 19L25 18L27 18L27 19L26 19L26 20L28 20L28 19L29 19L29 18L27 18L27 17L29 17L29 16L28 16L28 15L29 15L29 14L30 14L30 16L31 16L31 17L30 17L30 18L31 18L31 17L32 17L32 18L33 18L33 17L32 17L32 16L33 16L33 15L35 15L35 14L38 14L38 15L37 15L37 16L35 16L35 17L38 17L38 16L39 16L39 18L38 18L38 19L37 19L37 18L36 18L36 19L35 19L35 18L34 18L34 19L35 19L35 21L37 21L37 20L38 20L38 19L40 19L40 20L41 20L41 19L42 19L42 20L43 20L43 21L42 21L42 22L41 22L41 21L40 21L40 24L36 24L36 23L37 23L37 22L36 22L36 23L35 23L35 26L34 26L34 27L32 27L32 28L33 28L33 29L36 29L36 31L35 31L35 30L31 30L31 29L30 29L30 30L29 30L29 31L30 31L30 33L29 33L29 32L28 32L28 33L29 33L29 34L28 34L28 36L27 36L27 35L26 35L26 36L25 36L25 37L23 37L23 38L20 38L20 39L19 39L19 37L18 37L18 36L16 36L16 35L18 35L18 34L16 34L16 33L19 33L19 32L17 32L17 29L16 29L16 30L14 30L14 33L13 33L13 32L11 32L11 34L12 34L12 33L13 33L13 34L14 34L14 38L13 38L13 37L12 37L12 35L11 35L11 40L13 40L13 39L14 39L14 41L11 41L11 42L10 42L10 44L12 44L12 43L11 43L11 42L14 42L14 43L13 43L13 45L12 45L12 48L13 48L13 49L14 49L14 50L15 50L15 51L16 51L16 49L19 49L19 50L20 50L20 49L21 49L21 48L25 48L25 46L27 46L27 47L26 47L26 48L27 48L27 49L30 49L30 48L31 48L31 45L33 45L33 46L32 46L32 49L31 49L31 51L30 51L30 50L28 50L28 51L30 51L30 52L31 52L31 54L32 54L32 53L36 53L36 54L37 54L37 52L36 52L36 51L37 51L37 50L36 50L36 49L39 49L39 48L42 48L42 49L40 49L40 52L41 52L41 50L43 50L43 51L42 51L42 52L43 52L43 53L42 53L42 54L43 54L43 53L44 53L44 54L45 54L45 55L44 55L44 56L46 56L46 55L47 55L47 57L48 57L48 58L43 58L43 59L42 59L42 60L43 60L43 61L41 61L41 62L43 62L43 63L44 63L44 60L45 60L45 59L46 59L46 60L47 60L47 59L48 59L48 58L49 58L49 57L50 57L50 56L53 56L53 55L51 55L51 54L50 54L50 55L49 55L49 54L48 54L48 55L47 55L47 54L45 54L45 53L44 53L44 52L46 52L46 51L47 51L47 50L46 50L46 51L44 51L44 50L43 50L43 47L40 47L40 46L41 46L41 45L39 45L39 44L38 44L38 45L37 45L37 44L36 44L36 43L39 43L39 42L40 42L40 40L41 40L41 42L43 42L43 41L42 41L42 40L47 40L47 38L50 38L50 37L51 37L51 36L46 36L46 35L47 35L47 34L48 34L48 35L49 35L49 34L50 34L50 35L52 35L52 34L53 34L53 33L54 33L54 34L55 34L55 32L54 32L54 31L53 31L53 30L56 30L56 29L52 29L52 28L54 28L54 27L53 27L53 25L52 25L52 27L51 27L51 26L50 26L50 27L51 27L51 28L50 28L50 29L49 29L49 28L48 28L48 27L49 27L49 26L48 26L48 27L47 27L47 26L45 26L45 25L49 25L49 24L50 24L50 23L51 23L51 24L54 24L54 26L55 26L55 28L56 28L56 25L59 25L59 24L60 24L60 23L59 23L59 22L57 22L57 23L53 23L53 22L52 22L52 23L51 23L51 22L50 22L50 21L49 21L49 20L47 20L47 18L48 18L48 19L49 19L49 18L50 18L50 16L48 16L48 17L47 17L47 16L46 16L46 15L44 15L44 16L45 16L45 17L44 17L44 19L42 19L42 18L43 18L43 17L42 17L42 15L41 15L41 13L40 13L40 15L39 15L39 14L38 14L38 13L37 13L37 12L35 12L35 14L34 14L34 13L32 13L32 14L33 14L33 15L31 15L31 14L30 14L30 12L33 12L33 11L35 11L35 10ZM24 11L24 12L25 12L25 11ZM26 11L26 12L27 12L27 11ZM58 11L58 12L57 12L57 13L56 13L56 15L57 15L57 14L59 14L59 11ZM0 12L0 14L1 14L1 12ZM13 12L13 13L14 13L14 12ZM28 13L28 14L29 14L29 13ZM4 15L4 17L3 17L3 18L1 18L1 19L2 19L2 20L0 20L0 22L3 22L3 23L0 23L0 24L1 24L1 27L0 27L0 28L1 28L1 29L0 29L0 30L1 30L1 31L0 31L0 34L1 34L1 33L2 33L2 34L3 34L3 33L2 33L2 32L3 32L3 28L2 28L2 26L3 26L3 27L4 27L4 25L2 25L2 24L4 24L4 22L5 22L5 21L4 21L4 22L3 22L3 21L2 21L2 20L5 20L5 19L3 19L3 18L4 18L4 17L5 17L5 15ZM21 15L21 16L22 16L22 15ZM23 15L23 16L25 16L25 15ZM52 15L52 16L53 16L53 15ZM0 16L0 17L1 17L1 16ZM40 16L40 17L41 17L41 16ZM59 16L59 17L58 17L58 18L57 18L57 17L56 17L56 18L57 18L57 19L58 19L58 20L61 20L61 21L62 21L62 24L63 24L63 21L64 21L64 20L63 20L63 19L60 19L60 18L62 18L62 17L60 17L60 16ZM45 17L45 19L46 19L46 18L47 18L47 17ZM22 18L22 19L24 19L24 18ZM40 18L40 19L41 19L41 18ZM54 18L54 19L55 19L55 18ZM58 18L58 19L59 19L59 18ZM36 19L36 20L37 20L37 19ZM6 20L6 21L7 21L7 20ZM44 20L44 21L46 21L46 22L47 22L47 23L46 23L46 24L47 24L47 23L48 23L48 24L49 24L49 23L50 23L50 22L49 22L49 23L48 23L48 22L47 22L47 21L46 21L46 20ZM62 20L62 21L63 21L63 20ZM22 21L22 22L23 22L23 21ZM38 22L38 23L39 23L39 22ZM42 22L42 23L41 23L41 24L40 24L40 25L43 25L43 26L42 26L42 27L41 27L41 26L40 26L40 27L41 27L41 28L39 28L39 27L38 27L38 28L37 28L37 26L35 26L35 27L34 27L34 28L37 28L37 31L36 31L36 32L37 32L37 33L38 33L38 34L39 34L39 35L35 35L35 36L34 36L34 35L33 35L33 36L34 36L34 37L36 37L36 38L33 38L33 37L32 37L32 36L31 36L31 35L29 35L29 36L31 36L31 37L28 37L28 39L27 39L27 38L26 38L26 37L27 37L27 36L26 36L26 37L25 37L25 38L23 38L23 40L22 40L22 41L25 41L25 42L24 42L24 43L25 43L25 44L22 44L22 43L23 43L23 42L21 42L21 41L20 41L20 42L21 42L21 44L20 44L20 45L18 45L18 46L17 46L17 44L19 44L19 43L18 43L18 42L19 42L19 41L16 41L16 42L15 42L15 41L14 41L14 42L15 42L15 45L13 45L13 47L14 47L14 48L15 48L15 47L16 47L16 48L17 48L17 47L19 47L19 48L21 48L21 45L25 45L25 44L26 44L26 45L27 45L27 46L30 46L30 45L31 45L31 44L29 44L29 45L27 45L27 44L26 44L26 43L29 43L29 42L30 42L30 43L31 43L31 42L32 42L32 43L33 43L33 41L34 41L34 43L36 43L36 42L37 42L37 41L34 41L34 40L33 40L33 41L32 41L32 39L31 39L31 38L33 38L33 39L35 39L35 40L37 40L37 38L39 38L39 37L41 37L41 38L40 38L40 39L41 39L41 38L42 38L42 39L43 39L43 38L42 38L42 37L43 37L43 36L44 36L44 37L45 37L45 38L44 38L44 39L46 39L46 38L47 38L47 37L45 37L45 36L44 36L44 35L45 35L45 34L47 34L47 33L48 33L48 32L50 32L50 34L52 34L52 33L53 33L53 32L51 32L51 31L48 31L48 30L49 30L49 29L46 29L46 30L45 30L45 28L44 28L44 25L45 25L45 24L42 24L42 23L43 23L43 22ZM28 23L28 24L29 24L29 23ZM58 23L58 24L59 24L59 23ZM22 24L22 25L20 25L20 26L22 26L22 27L23 27L23 26L22 26L22 25L23 25L23 24ZM31 25L31 26L29 26L29 27L30 27L30 28L31 28L31 26L32 26L32 25ZM38 25L38 26L39 26L39 25ZM11 26L11 27L12 27L12 26ZM13 26L13 27L14 27L14 26ZM58 26L58 28L59 28L59 26ZM60 26L60 27L61 27L61 26ZM27 27L27 29L26 29L26 32L27 32L27 31L28 31L28 29L29 29L29 28L28 28L28 27ZM42 27L42 28L43 28L43 29L42 29L42 30L41 30L41 29L40 29L40 30L41 30L41 31L40 31L40 32L41 32L41 33L40 33L40 35L39 35L39 36L38 36L38 37L39 37L39 36L41 36L41 35L42 35L42 34L43 34L43 32L45 32L45 30L44 30L44 28L43 28L43 27ZM18 28L18 29L19 29L19 28ZM50 29L50 30L51 30L51 29ZM60 29L60 30L61 30L61 29ZM18 30L18 31L19 31L19 30ZM38 30L38 31L37 31L37 32L39 32L39 30ZM42 30L42 31L44 31L44 30ZM46 30L46 31L47 31L47 32L46 32L46 33L47 33L47 32L48 32L48 31L47 31L47 30ZM1 31L1 32L2 32L2 31ZM5 31L5 34L8 34L8 31ZM15 31L15 33L14 33L14 34L15 34L15 33L16 33L16 31ZM31 31L31 34L34 34L34 31ZM57 31L57 34L60 34L60 31ZM6 32L6 33L7 33L7 32ZM32 32L32 33L33 33L33 32ZM58 32L58 33L59 33L59 32ZM61 32L61 35L62 35L62 36L63 36L63 35L62 35L62 34L63 34L63 33L62 33L62 32ZM26 33L26 34L27 34L27 33ZM44 33L44 34L45 34L45 33ZM19 34L19 35L20 35L20 37L21 37L21 34ZM36 36L36 37L37 37L37 36ZM1 37L1 38L2 38L2 39L3 39L3 40L4 40L4 39L5 39L5 40L7 40L7 39L6 39L6 38L7 38L7 37L5 37L5 38L4 38L4 37L3 37L3 38L2 38L2 37ZM15 37L15 38L17 38L17 39L16 39L16 40L17 40L17 39L18 39L18 37ZM60 37L60 39L61 39L61 37ZM3 38L3 39L4 39L4 38ZM12 38L12 39L13 39L13 38ZM29 38L29 39L28 39L28 40L27 40L27 39L24 39L24 40L27 40L27 41L26 41L26 42L27 42L27 41L30 41L30 42L31 42L31 39L30 39L30 38ZM29 39L29 40L30 40L30 39ZM38 39L38 42L39 42L39 39ZM54 39L54 40L56 40L56 41L57 41L57 43L54 43L54 42L55 42L55 41L54 41L54 42L53 42L53 41L51 41L51 40L50 40L50 41L49 41L49 40L48 40L48 41L47 41L47 42L45 42L45 41L44 41L44 42L45 42L45 43L44 43L44 44L43 44L43 45L42 45L42 46L43 46L43 45L44 45L44 46L45 46L45 47L44 47L44 48L45 48L45 47L46 47L46 49L47 49L47 48L48 48L48 49L49 49L49 48L51 48L51 47L52 47L52 48L54 48L54 47L52 47L52 46L59 46L59 45L58 45L58 44L59 44L59 43L58 43L58 41L57 41L57 40L56 40L56 39ZM48 41L48 42L47 42L47 44L46 44L46 46L47 46L47 45L48 45L48 44L52 44L52 45L53 45L53 44L54 44L54 43L53 43L53 42L52 42L52 43L49 43L49 41ZM50 41L50 42L51 42L51 41ZM16 43L16 44L17 44L17 43ZM40 43L40 44L41 44L41 43ZM52 43L52 44L53 44L53 43ZM60 43L60 44L61 44L61 43ZM34 44L34 45L35 45L35 44ZM44 44L44 45L45 45L45 44ZM55 44L55 45L57 45L57 44ZM15 45L15 46L16 46L16 45ZM36 45L36 46L34 46L34 47L35 47L35 48L38 48L38 47L36 47L36 46L37 46L37 45ZM38 45L38 46L39 46L39 45ZM50 45L50 46L49 46L49 47L48 47L48 48L49 48L49 47L50 47L50 46L51 46L51 45ZM19 46L19 47L20 47L20 46ZM22 46L22 47L23 47L23 46ZM28 47L28 48L30 48L30 47ZM55 47L55 48L56 48L56 47ZM33 48L33 49L32 49L32 51L31 51L31 52L33 52L33 50L34 50L34 51L36 51L36 50L35 50L35 49L34 49L34 48ZM58 48L58 49L59 49L59 48ZM1 50L1 53L0 53L0 54L1 54L1 53L2 53L2 55L3 55L3 56L1 56L1 55L0 55L0 56L1 56L1 57L3 57L3 56L4 56L4 57L5 57L5 56L4 56L4 53L2 53L2 52L4 52L4 50ZM38 50L38 53L39 53L39 50ZM6 51L6 52L7 52L7 51ZM58 51L58 53L59 53L59 51ZM19 52L19 53L20 53L20 54L21 54L21 53L20 53L20 52ZM27 52L27 53L26 53L26 54L25 54L25 55L27 55L27 57L26 57L26 58L27 58L27 57L29 57L29 56L30 56L30 54L29 54L29 56L28 56L28 55L27 55L27 53L29 53L29 52ZM14 53L14 54L15 54L15 53ZM53 53L53 54L56 54L56 53ZM13 55L13 57L15 57L15 56L14 56L14 55ZM48 55L48 56L49 56L49 55ZM55 55L55 56L56 56L56 55ZM6 56L6 57L7 57L7 56ZM9 56L9 58L11 58L11 60L10 60L10 61L11 61L11 60L12 60L12 58L11 58L11 56ZM16 56L16 57L17 57L17 56ZM38 56L38 57L39 57L39 56ZM61 56L61 57L62 57L62 56ZM31 57L31 60L34 60L34 57ZM35 57L35 59L36 59L36 60L37 60L37 59L36 59L36 57ZM54 57L54 58L55 58L55 57ZM57 57L57 60L60 60L60 57ZM32 58L32 59L33 59L33 58ZM58 58L58 59L59 59L59 58ZM20 59L20 60L21 60L21 59ZM28 59L28 60L30 60L30 59ZM63 60L63 61L64 61L64 60ZM58 61L58 62L59 62L59 61ZM28 62L28 65L31 65L31 64L29 64L29 62ZM32 62L32 63L33 63L33 62ZM56 62L56 64L57 64L57 62ZM34 63L34 64L35 64L35 63ZM46 63L46 64L47 64L47 63ZM58 63L58 64L59 64L59 63ZM62 63L62 64L63 64L63 63ZM0 0L0 7L7 7L7 0ZM1 1L1 6L6 6L6 1ZM2 2L2 5L5 5L5 2ZM58 0L58 7L65 7L65 0ZM59 1L59 6L64 6L64 1ZM60 2L60 5L63 5L63 2ZM0 58L0 65L7 65L7 58ZM1 59L1 64L6 64L6 59ZM2 60L2 63L5 63L5 60Z" fill="#000000"/></g></g></svg>
