<?xml version="1.0" encoding="UTF-8"?>
<svg xmlns="http://www.w3.org/2000/svg" version="1.1" width="300" height="300" viewBox="0 0 300 300"><rect x="0" y="0" width="300" height="300" fill="#ffffff"/><g transform="scale(4.615)"><g transform="translate(0,0)"><path fill-rule="evenodd" d="M9 0L9 1L8 1L8 2L10 2L10 3L8 3L8 4L9 4L9 5L8 5L8 7L9 7L9 6L10 6L10 7L11 7L11 8L10 8L10 9L9 9L9 8L6 8L6 9L5 9L5 8L0 8L0 9L1 9L1 11L0 11L0 12L2 12L2 13L1 13L1 15L0 15L0 19L1 19L1 20L0 20L0 21L1 21L1 22L0 22L0 23L2 23L2 24L1 24L1 27L3 27L3 26L4 26L4 27L5 27L5 28L0 28L0 29L1 29L1 31L0 31L0 32L1 32L1 31L2 31L2 33L3 33L3 32L4 32L4 34L3 34L3 35L2 35L2 34L1 34L1 35L0 35L0 36L1 36L1 37L0 37L0 39L1 39L1 37L4 37L4 36L5 36L5 35L7 35L7 36L6 36L6 37L5 37L5 38L2 38L2 43L1 43L1 41L0 41L0 43L1 43L1 44L0 44L0 49L1 49L1 50L0 50L0 51L3 51L3 50L2 50L2 49L4 49L4 48L6 48L6 49L7 49L7 48L6 48L6 47L7 47L7 46L6 46L6 47L4 47L4 46L1 46L1 45L2 45L2 43L3 43L3 41L4 41L4 44L5 44L5 41L4 41L4 40L3 40L3 39L5 39L5 40L6 40L6 41L7 41L7 42L6 42L6 43L7 43L7 42L8 42L8 43L11 43L11 44L10 44L10 47L12 47L12 48L13 48L13 47L14 47L14 46L15 46L15 47L16 47L16 49L17 49L17 50L15 50L15 55L14 55L14 54L13 54L13 55L11 55L11 54L12 54L12 53L14 53L14 50L13 50L13 52L11 52L11 50L12 50L12 49L9 49L9 48L8 48L8 50L9 50L9 51L10 51L10 53L7 53L7 52L8 52L8 51L7 51L7 50L4 50L4 51L7 51L7 52L6 52L6 53L5 53L5 52L4 52L4 53L3 53L3 54L2 54L2 53L1 53L1 54L2 54L2 55L3 55L3 56L1 56L1 55L0 55L0 56L1 56L1 57L3 57L3 56L4 56L4 57L5 57L5 56L4 56L4 54L5 54L5 55L7 55L7 56L6 56L6 57L7 57L7 56L8 56L8 59L9 59L9 56L8 56L8 55L9 55L9 54L10 54L10 55L11 55L11 56L10 56L10 58L11 58L11 59L12 59L12 60L13 60L13 62L12 62L12 63L11 63L11 60L10 60L10 63L9 63L9 60L8 60L8 65L10 65L10 63L11 63L11 64L14 64L14 63L15 63L15 65L17 65L17 64L16 64L16 63L15 63L15 62L16 62L16 61L15 61L15 62L14 62L14 60L13 60L13 59L14 59L14 57L15 57L15 58L16 58L16 59L15 59L15 60L18 60L18 61L20 61L20 60L18 60L18 59L22 59L22 60L23 60L23 61L21 61L21 64L20 64L20 65L22 65L22 62L23 62L23 63L24 63L24 64L23 64L23 65L24 65L24 64L25 64L25 65L26 65L26 62L27 62L27 64L28 64L28 65L31 65L31 64L30 64L30 63L32 63L32 64L33 64L33 65L35 65L35 64L36 64L36 65L38 65L38 64L36 64L36 63L37 63L37 62L36 62L36 63L35 63L35 64L34 64L34 62L33 62L33 61L38 61L38 60L39 60L39 62L38 62L38 63L39 63L39 64L41 64L41 65L42 65L42 64L43 64L43 65L44 65L44 64L45 64L45 65L46 65L46 64L45 64L45 63L47 63L47 64L48 64L48 65L49 65L49 64L48 64L48 63L47 63L47 62L50 62L50 63L51 63L51 62L52 62L52 60L53 60L53 62L55 62L55 63L54 63L54 64L53 64L53 63L52 63L52 64L50 64L50 65L52 65L52 64L53 64L53 65L56 65L56 62L57 62L57 61L58 61L58 62L59 62L59 64L58 64L58 63L57 63L57 65L63 65L63 64L64 64L64 60L65 60L65 59L64 59L64 60L62 60L62 59L63 59L63 58L65 58L65 57L63 57L63 56L59 56L59 55L58 55L58 56L56 56L56 55L57 55L57 54L56 54L56 53L53 53L53 54L56 54L56 55L55 55L55 56L56 56L56 58L55 58L55 57L54 57L54 55L52 55L52 54L50 54L50 53L49 53L49 52L50 52L50 51L51 51L51 52L53 52L53 51L54 51L54 52L57 52L57 51L58 51L58 54L59 54L59 53L60 53L60 54L61 54L61 53L60 53L60 52L62 52L62 53L63 53L63 54L62 54L62 55L63 55L63 54L65 54L65 52L62 52L62 51L63 51L63 50L61 50L61 49L58 49L58 48L60 48L60 47L62 47L62 45L63 45L63 44L62 44L62 45L60 45L60 46L59 46L59 45L58 45L58 44L59 44L59 43L58 43L58 44L57 44L57 43L54 43L54 44L57 44L57 45L58 45L58 46L59 46L59 47L57 47L57 46L56 46L56 45L52 45L52 44L53 44L53 43L52 43L52 44L50 44L50 45L49 45L49 44L48 44L48 45L47 45L47 44L45 44L45 43L44 43L44 44L43 44L43 43L42 43L42 42L43 42L43 41L44 41L44 42L46 42L46 43L47 43L47 42L46 42L46 41L49 41L49 42L48 42L48 43L51 43L51 42L50 42L50 41L52 41L52 40L53 40L53 42L55 42L55 41L54 41L54 40L56 40L56 41L57 41L57 42L61 42L61 41L58 41L58 40L61 40L61 38L63 38L63 36L65 36L65 35L63 35L63 34L65 34L65 33L63 33L63 32L65 32L65 31L63 31L63 30L61 30L61 29L64 29L64 28L65 28L65 27L63 27L63 26L65 26L65 25L64 25L64 24L65 24L65 23L63 23L63 24L62 24L62 22L61 22L61 20L58 20L58 21L57 21L57 20L56 20L56 21L57 21L57 23L54 23L54 24L56 24L56 25L51 25L51 23L52 23L52 24L53 24L53 23L52 23L52 22L55 22L55 21L54 21L54 20L55 20L55 19L52 19L52 18L53 18L53 17L51 17L51 15L52 15L52 16L54 16L54 18L55 18L55 17L59 17L59 16L58 16L58 15L61 15L61 16L60 16L60 18L58 18L58 19L60 19L60 18L61 18L61 19L63 19L63 17L64 17L64 18L65 18L65 15L64 15L64 16L62 16L62 15L63 15L63 14L62 14L62 15L61 15L61 12L60 12L60 11L59 11L59 10L60 10L60 8L59 8L59 10L58 10L58 8L56 8L56 9L54 9L54 10L55 10L55 11L54 11L54 12L53 12L53 10L52 10L52 11L51 11L51 10L50 10L50 9L49 9L49 8L51 8L51 9L52 9L52 8L53 8L53 6L54 6L54 7L55 7L55 5L54 5L54 4L56 4L56 5L57 5L57 4L56 4L56 3L57 3L57 1L56 1L56 0L55 0L55 1L56 1L56 3L55 3L55 2L54 2L54 3L53 3L53 2L52 2L52 3L48 3L48 0L47 0L47 1L44 1L44 0L42 0L42 1L43 1L43 2L44 2L44 3L45 3L45 4L46 4L46 3L48 3L48 4L49 4L49 5L48 5L48 7L49 7L49 8L47 8L47 5L46 5L46 8L45 8L45 5L44 5L44 4L43 4L43 3L42 3L42 2L40 2L40 1L38 1L38 0L37 0L37 1L36 1L36 0L35 0L35 1L33 1L33 0L30 0L30 1L32 1L32 3L31 3L31 2L28 2L28 1L27 1L27 0L24 0L24 2L23 2L23 3L24 3L24 2L25 2L25 3L26 3L26 2L25 2L25 1L27 1L27 2L28 2L28 4L27 4L27 6L26 6L26 8L27 8L27 9L22 9L22 7L23 7L23 8L24 8L24 7L25 7L25 5L26 5L26 4L24 4L24 5L23 5L23 6L22 6L22 7L21 7L21 6L20 6L20 4L22 4L22 3L21 3L21 2L22 2L22 1L23 1L23 0L21 0L21 1L20 1L20 0L19 0L19 1L18 1L18 0L15 0L15 1L16 1L16 3L15 3L15 2L14 2L14 1L12 1L12 3L11 3L11 2L10 2L10 0ZM49 0L49 1L50 1L50 2L51 2L51 1L50 1L50 0ZM52 0L52 1L54 1L54 0ZM17 1L17 2L18 2L18 1ZM37 1L37 2L36 2L36 3L37 3L37 4L36 4L36 6L35 6L35 7L36 7L36 8L37 8L37 11L34 11L34 12L37 12L37 14L36 14L36 16L37 16L37 17L33 17L33 16L29 16L29 17L28 17L28 18L27 18L27 20L28 20L28 19L32 19L32 17L33 17L33 18L35 18L35 20L37 20L37 21L36 21L36 22L37 22L37 23L35 23L35 24L37 24L37 25L36 25L36 26L35 26L35 25L33 25L33 24L34 24L34 22L35 22L35 21L34 21L34 19L33 19L33 20L32 20L32 21L31 21L31 20L30 20L30 22L29 22L29 21L28 21L28 23L27 23L27 24L26 24L26 22L27 22L27 21L25 21L25 20L26 20L26 19L25 19L25 20L24 20L24 19L23 19L23 20L24 20L24 21L25 21L25 22L23 22L23 21L22 21L22 20L21 20L21 19L22 19L22 17L25 17L25 18L26 18L26 17L27 17L27 16L28 16L28 15L27 15L27 16L25 16L25 15L26 15L26 13L27 13L27 14L28 14L28 13L29 13L29 15L30 15L30 14L31 14L31 15L33 15L33 14L35 14L35 13L33 13L33 12L32 12L32 11L33 11L33 10L35 10L35 9L33 9L33 10L32 10L32 9L31 9L31 12L28 12L28 11L29 11L29 9L30 9L30 8L29 8L29 7L30 7L30 4L31 4L31 3L29 3L29 4L28 4L28 5L29 5L29 7L28 7L28 6L27 6L27 7L28 7L28 8L29 8L29 9L28 9L28 11L27 11L27 12L26 12L26 10L23 10L23 11L22 11L22 10L21 10L21 9L20 9L20 8L21 8L21 7L20 7L20 6L19 6L19 9L18 9L18 6L17 6L17 8L16 8L16 6L15 6L15 7L14 7L14 6L13 6L13 7L12 7L12 6L11 6L11 7L12 7L12 8L16 8L16 9L14 9L14 10L11 10L11 11L9 11L9 13L8 13L8 12L7 12L7 11L6 11L6 10L7 10L7 9L6 9L6 10L4 10L4 9L3 9L3 11L4 11L4 12L3 12L3 13L4 13L4 14L5 14L5 15L6 15L6 16L7 16L7 15L8 15L8 17L6 17L6 18L5 18L5 16L3 16L3 14L2 14L2 15L1 15L1 18L2 18L2 20L1 20L1 21L2 21L2 22L3 22L3 24L2 24L2 25L3 25L3 24L4 24L4 26L5 26L5 24L8 24L8 23L4 23L4 22L5 22L5 21L6 21L6 22L9 22L9 23L10 23L10 24L9 24L9 25L8 25L8 27L10 27L10 26L17 26L17 28L16 28L16 27L15 27L15 28L14 28L14 29L13 29L13 30L12 30L12 28L13 28L13 27L12 27L12 28L11 28L11 29L10 29L10 28L8 28L8 29L5 29L5 30L8 30L8 29L9 29L9 31L10 31L10 32L9 32L9 36L10 36L10 37L9 37L9 39L8 39L8 38L7 38L7 37L6 37L6 38L7 38L7 39L6 39L6 40L9 40L9 42L11 42L11 41L13 41L13 43L12 43L12 45L13 45L13 46L14 46L14 45L15 45L15 46L16 46L16 45L18 45L18 46L17 46L17 49L18 49L18 51L16 51L16 52L18 52L18 53L16 53L16 55L15 55L15 56L16 56L16 55L17 55L17 56L18 56L18 55L19 55L19 54L18 54L18 53L19 53L19 51L22 51L22 49L25 49L25 50L23 50L23 53L22 53L22 52L21 52L21 53L20 53L20 56L21 56L21 57L20 57L20 58L21 58L21 57L23 57L23 56L21 56L21 53L22 53L22 55L25 55L25 56L24 56L24 57L25 57L25 58L22 58L22 59L23 59L23 60L24 60L24 59L25 59L25 58L26 58L26 57L27 57L27 58L29 58L29 57L27 57L27 56L28 56L28 54L30 54L30 55L29 55L29 56L31 56L31 55L33 55L33 56L34 56L34 55L35 55L35 57L36 57L36 58L35 58L35 59L36 59L36 60L38 60L38 59L37 59L37 57L38 57L38 58L39 58L39 57L41 57L41 58L40 58L40 59L41 59L41 60L40 60L40 62L39 62L39 63L40 63L40 62L41 62L41 64L42 64L42 63L43 63L43 64L44 64L44 63L45 63L45 62L47 62L47 60L49 60L49 59L50 59L50 60L51 60L51 59L53 59L53 60L56 60L56 59L55 59L55 58L53 58L53 56L51 56L51 55L50 55L50 54L49 54L49 53L48 53L48 56L51 56L51 57L50 57L50 58L49 58L49 59L47 59L47 60L44 60L44 63L43 63L43 62L41 62L41 60L42 60L42 61L43 61L43 60L42 60L42 59L43 59L43 58L45 58L45 57L46 57L46 58L47 58L47 55L45 55L45 56L44 56L44 55L43 55L43 54L47 54L47 53L46 53L46 52L47 52L47 51L48 51L48 52L49 52L49 51L50 51L50 50L52 50L52 51L53 51L53 50L54 50L54 51L55 51L55 50L56 50L56 51L57 51L57 50L56 50L56 49L57 49L57 48L55 48L55 47L56 47L56 46L52 46L52 47L53 47L53 48L52 48L52 49L51 49L51 47L50 47L50 48L49 48L49 47L48 47L48 46L49 46L49 45L48 45L48 46L47 46L47 45L45 45L45 44L44 44L44 45L43 45L43 44L42 44L42 43L41 43L41 42L42 42L42 41L43 41L43 40L42 40L42 39L43 39L43 38L42 38L42 37L44 37L44 39L46 39L46 38L47 38L47 40L49 40L49 41L50 41L50 40L51 40L51 39L52 39L52 38L53 38L53 36L52 36L52 38L51 38L51 36L50 36L50 34L51 34L51 35L52 35L52 34L54 34L54 37L55 37L55 38L54 38L54 39L53 39L53 40L54 40L54 39L56 39L56 40L57 40L57 39L60 39L60 37L61 37L61 35L62 35L62 36L63 36L63 35L62 35L62 34L63 34L63 33L62 33L62 32L63 32L63 31L62 31L62 32L61 32L61 35L59 35L59 36L57 36L57 35L56 35L56 34L54 34L54 33L56 33L56 32L54 32L54 31L55 31L55 30L57 30L57 29L56 29L56 27L57 27L57 28L58 28L58 30L59 30L59 28L63 28L63 27L62 27L62 26L63 26L63 25L62 25L62 24L61 24L61 22L59 22L59 21L58 21L58 22L59 22L59 23L58 23L58 24L59 24L59 23L60 23L60 24L61 24L61 26L60 26L60 25L56 25L56 27L55 27L55 26L52 26L52 27L55 27L55 30L54 30L54 31L53 31L53 32L52 32L52 34L51 34L51 33L50 33L50 32L51 32L51 31L50 31L50 30L51 30L51 28L49 28L49 27L50 27L50 26L51 26L51 25L49 25L49 26L47 26L47 25L46 25L46 26L44 26L44 27L43 27L43 26L42 26L42 24L40 24L40 23L38 23L38 22L42 22L42 23L43 23L43 24L44 24L44 25L45 25L45 24L44 24L44 23L45 23L45 22L44 22L44 21L46 21L46 22L48 22L48 20L49 20L49 21L50 21L50 22L49 22L49 23L46 23L46 24L50 24L50 22L51 22L51 21L50 21L50 20L52 20L52 21L53 21L53 20L52 20L52 19L48 19L48 18L49 18L49 17L48 17L48 18L47 18L47 17L45 17L45 16L46 16L46 15L45 15L45 12L44 12L44 11L43 11L43 10L41 10L41 9L43 9L43 8L42 8L42 6L43 6L43 7L44 7L44 6L43 6L43 5L42 5L42 3L39 3L39 2L38 2L38 1ZM45 2L45 3L46 3L46 2ZM12 3L12 4L10 4L10 5L12 5L12 4L14 4L14 3ZM17 3L17 4L15 4L15 5L17 5L17 4L18 4L18 3ZM19 3L19 4L20 4L20 3ZM32 3L32 4L35 4L35 3ZM38 3L38 4L37 4L37 5L38 5L38 7L37 7L37 6L36 6L36 7L37 7L37 8L41 8L41 6L40 6L40 5L38 5L38 4L39 4L39 3ZM52 3L52 4L53 4L53 3ZM50 4L50 5L51 5L51 4ZM31 5L31 8L34 8L34 5ZM23 6L23 7L24 7L24 6ZM32 6L32 7L33 7L33 6ZM39 6L39 7L40 7L40 6ZM49 6L49 7L50 7L50 6ZM51 6L51 7L52 7L52 6ZM56 6L56 7L57 7L57 6ZM44 8L44 9L45 9L45 8ZM46 8L46 10L47 10L47 13L46 13L46 14L47 14L47 13L48 13L48 12L49 12L49 14L48 14L48 15L47 15L47 16L49 16L49 15L50 15L50 14L51 14L51 13L53 13L53 12L50 12L50 11L48 11L48 10L47 10L47 8ZM61 8L61 10L62 10L62 8ZM63 8L63 10L65 10L65 9L64 9L64 8ZM19 9L19 11L18 11L18 10L14 10L14 11L15 11L15 12L14 12L14 13L11 13L11 12L13 12L13 11L11 11L11 12L10 12L10 13L9 13L9 14L8 14L8 13L7 13L7 12L6 12L6 11L5 11L5 12L6 12L6 13L5 13L5 14L6 14L6 15L7 15L7 14L8 14L8 15L11 15L11 14L13 14L13 15L12 15L12 16L11 16L11 17L10 17L10 19L9 19L9 18L8 18L8 19L7 19L7 18L6 18L6 19L4 19L4 18L3 18L3 17L2 17L2 18L3 18L3 20L6 20L6 21L7 21L7 20L8 20L8 19L9 19L9 22L10 22L10 23L12 23L12 24L11 24L11 25L12 25L12 24L13 24L13 25L17 25L17 26L18 26L18 27L19 27L19 28L18 28L18 29L17 29L17 31L18 31L18 33L19 33L19 34L18 34L18 35L17 35L17 36L16 36L16 37L17 37L17 38L15 38L15 37L14 37L14 36L15 36L15 35L14 35L14 34L13 34L13 32L15 32L15 33L17 33L17 32L16 32L16 31L14 31L14 30L16 30L16 29L14 29L14 30L13 30L13 32L10 32L10 35L11 35L11 34L12 34L12 36L11 36L11 37L10 37L10 38L12 38L12 39L11 39L11 40L10 40L10 41L11 41L11 40L13 40L13 41L14 41L14 42L15 42L15 43L13 43L13 44L15 44L15 45L16 45L16 43L17 43L17 42L15 42L15 40L16 40L16 41L17 41L17 40L18 40L18 41L19 41L19 42L20 42L20 43L21 43L21 44L24 44L24 45L22 45L22 46L21 46L21 45L19 45L19 44L18 44L18 45L19 45L19 46L18 46L18 47L19 47L19 48L18 48L18 49L19 49L19 48L20 48L20 49L22 49L22 48L21 48L21 47L22 47L22 46L24 46L24 45L26 45L26 46L27 46L27 45L26 45L26 44L25 44L25 43L26 43L26 42L27 42L27 41L30 41L30 42L29 42L29 43L27 43L27 44L29 44L29 43L30 43L30 42L31 42L31 45L33 45L33 46L32 46L32 47L33 47L33 48L32 48L32 49L34 49L34 48L35 48L35 47L34 47L34 45L33 45L33 44L35 44L35 45L37 45L37 44L35 44L35 43L32 43L32 42L31 42L31 39L30 39L30 38L27 38L27 39L25 39L25 38L26 38L26 37L24 37L24 38L20 38L20 37L22 37L22 36L20 36L20 37L19 37L19 34L20 34L20 35L22 35L22 34L23 34L23 35L25 35L25 36L26 36L26 35L25 35L25 34L27 34L27 37L33 37L33 38L32 38L32 39L33 39L33 40L32 40L32 41L33 41L33 42L35 42L35 41L38 41L38 40L41 40L41 39L42 39L42 38L41 38L41 37L39 37L39 36L41 36L41 35L40 35L40 34L41 34L41 33L42 33L42 34L43 34L43 33L42 33L42 32L41 32L41 31L39 31L39 30L37 30L37 28L35 28L35 26L33 26L33 25L32 25L32 27L29 27L29 28L31 28L31 29L32 29L32 30L30 30L30 31L28 31L28 33L29 33L29 34L27 34L27 33L26 33L26 32L27 32L27 31L26 31L26 32L25 32L25 29L26 29L26 30L28 30L28 27L26 27L26 28L24 28L24 26L27 26L27 25L29 25L29 24L27 24L27 25L24 25L24 24L25 24L25 23L24 23L24 24L23 24L23 23L22 23L22 21L21 21L21 20L20 20L20 19L21 19L21 18L20 18L20 17L22 17L22 16L24 16L24 15L22 15L22 14L24 14L24 13L25 13L25 11L24 11L24 13L22 13L22 14L21 14L21 13L19 13L19 12L20 12L20 11L21 11L21 12L22 12L22 11L21 11L21 10L20 10L20 9ZM56 9L56 11L55 11L55 12L54 12L54 13L55 13L55 12L57 12L57 13L56 13L56 14L52 14L52 15L54 15L54 16L57 16L57 15L56 15L56 14L59 14L59 11L58 11L58 12L57 12L57 9ZM38 10L38 11L37 11L37 12L39 12L39 10ZM17 11L17 12L16 12L16 13L14 13L14 14L15 14L15 16L14 16L14 17L15 17L15 18L14 18L14 19L13 19L13 17L11 17L11 19L10 19L10 21L11 21L11 20L12 20L12 21L13 21L13 20L16 20L16 21L14 21L14 22L16 22L16 21L17 21L17 24L20 24L20 23L21 23L21 21L20 21L20 20L19 20L19 17L20 17L20 16L19 16L19 15L20 15L20 14L19 14L19 13L18 13L18 11ZM40 11L40 12L42 12L42 13L40 13L40 15L39 15L39 14L38 14L38 15L37 15L37 16L42 16L42 17L41 17L41 18L38 18L38 19L37 19L37 18L36 18L36 19L37 19L37 20L38 20L38 19L39 19L39 20L41 20L41 19L42 19L42 20L43 20L43 21L42 21L42 22L43 22L43 21L44 21L44 20L46 20L46 21L47 21L47 18L46 18L46 19L42 19L42 18L43 18L43 17L44 17L44 18L45 18L45 17L44 17L44 16L45 16L45 15L43 15L43 16L42 16L42 14L44 14L44 12L42 12L42 11ZM27 12L27 13L28 13L28 12ZM31 12L31 13L32 13L32 14L33 14L33 13L32 13L32 12ZM62 12L62 13L64 13L64 14L65 14L65 12ZM6 13L6 14L7 14L7 13ZM16 14L16 16L15 16L15 17L16 17L16 19L18 19L18 18L17 18L17 17L19 17L19 16L17 16L17 14ZM18 14L18 15L19 15L19 14ZM34 15L34 16L35 16L35 15ZM30 17L30 18L31 18L31 17ZM50 17L50 18L51 18L51 17ZM61 17L61 18L62 18L62 17ZM56 18L56 19L57 19L57 18ZM6 19L6 20L7 20L7 19ZM12 19L12 20L13 20L13 19ZM17 20L17 21L18 21L18 23L20 23L20 21L18 21L18 20ZM62 20L62 21L63 21L63 22L65 22L65 21L63 21L63 20ZM3 21L3 22L4 22L4 21ZM30 22L30 24L31 24L31 23L32 23L32 24L33 24L33 22ZM13 23L13 24L14 24L14 23ZM15 23L15 24L16 24L16 23ZM22 24L22 25L20 25L20 26L22 26L22 25L23 25L23 24ZM38 24L38 25L37 25L37 26L36 26L36 27L39 27L39 28L38 28L38 29L39 29L39 28L41 28L41 29L40 29L40 30L41 30L41 29L42 29L42 30L44 30L44 32L46 32L46 33L49 33L49 34L48 34L48 35L49 35L49 34L50 34L50 33L49 33L49 32L46 32L46 31L47 31L47 30L44 30L44 28L45 28L45 29L49 29L49 28L48 28L48 27L47 27L47 26L46 26L46 27L44 27L44 28L43 28L43 29L42 29L42 28L41 28L41 25L40 25L40 27L39 27L39 26L38 26L38 25L39 25L39 24ZM6 25L6 26L7 26L7 25ZM9 25L9 26L10 26L10 25ZM18 25L18 26L19 26L19 25ZM58 26L58 28L59 28L59 27L60 27L60 26ZM6 27L6 28L7 28L7 27ZM21 27L21 28L20 28L20 29L18 29L18 30L20 30L20 31L19 31L19 32L21 32L21 28L22 28L22 29L23 29L23 30L24 30L24 29L23 29L23 28L22 28L22 27ZM46 27L46 28L47 28L47 27ZM26 28L26 29L27 29L27 28ZM32 28L32 29L33 29L33 30L35 30L35 28ZM52 28L52 29L53 29L53 28ZM2 29L2 30L3 30L3 29ZM48 30L48 31L49 31L49 30ZM5 31L5 34L8 34L8 31ZM23 31L23 32L22 32L22 33L20 33L20 34L22 34L22 33L25 33L25 32L24 32L24 31ZM31 31L31 34L34 34L34 31ZM35 31L35 34L36 34L36 36L37 36L37 37L35 37L35 36L33 36L33 35L28 35L28 36L33 36L33 37L34 37L34 39L36 39L36 40L37 40L37 39L36 39L36 38L39 38L39 37L38 37L38 36L39 36L39 35L37 35L37 34L39 34L39 33L41 33L41 32L39 32L39 31ZM57 31L57 34L60 34L60 31ZM6 32L6 33L7 33L7 32ZM29 32L29 33L30 33L30 32ZM32 32L32 33L33 33L33 32ZM36 32L36 34L37 34L37 32ZM38 32L38 33L39 33L39 32ZM58 32L58 33L59 33L59 32ZM44 33L44 34L45 34L45 35L44 35L44 36L45 36L45 37L49 37L49 38L48 38L48 39L51 39L51 38L50 38L50 36L46 36L46 35L47 35L47 34L45 34L45 33ZM1 35L1 36L2 36L2 35ZM13 35L13 36L12 36L12 37L13 37L13 36L14 36L14 35ZM55 35L55 36L56 36L56 35ZM17 36L17 37L18 37L18 36ZM56 37L56 38L57 38L57 37ZM58 37L58 38L59 38L59 37ZM64 37L64 38L65 38L65 37ZM18 38L18 39L19 39L19 41L20 41L20 42L21 42L21 41L20 41L20 40L21 40L21 39L20 39L20 38ZM40 38L40 39L41 39L41 38ZM13 39L13 40L14 40L14 39ZM16 39L16 40L17 40L17 39ZM28 39L28 40L30 40L30 39ZM64 39L64 42L65 42L65 39ZM22 40L22 41L25 41L25 42L24 42L24 43L25 43L25 42L26 42L26 41L27 41L27 40ZM34 40L34 41L35 41L35 40ZM44 40L44 41L45 41L45 40ZM62 40L62 43L63 43L63 40ZM40 41L40 42L38 42L38 45L39 45L39 46L36 46L36 47L38 47L38 49L39 49L39 47L40 47L40 48L41 48L41 47L42 47L42 48L43 48L43 49L41 49L41 51L40 51L40 52L41 52L41 51L42 51L42 52L43 52L43 53L42 53L42 54L43 54L43 53L44 53L44 52L46 52L46 51L47 51L47 50L45 50L45 51L44 51L44 48L47 48L47 46L45 46L45 45L44 45L44 46L45 46L45 47L42 47L42 46L43 46L43 45L39 45L39 43L40 43L40 44L41 44L41 43L40 43L40 42L41 42L41 41ZM22 42L22 43L23 43L23 42ZM36 42L36 43L37 43L37 42ZM60 43L60 44L61 44L61 43ZM6 44L6 45L8 45L8 44ZM50 45L50 46L51 46L51 45ZM8 46L8 47L9 47L9 46ZM19 46L19 47L20 47L20 46ZM29 46L29 47L28 47L28 48L27 48L27 47L25 47L25 49L26 49L26 50L25 50L25 51L24 51L24 52L25 52L25 53L23 53L23 54L25 54L25 55L27 55L27 54L25 54L25 53L27 53L27 51L28 51L28 49L29 49L29 47L30 47L30 50L29 50L29 51L30 51L30 52L31 52L31 47L30 47L30 46ZM40 46L40 47L41 47L41 46ZM1 47L1 48L3 48L3 47ZM23 47L23 48L24 48L24 47ZM26 48L26 49L27 49L27 48ZM36 48L36 49L37 49L37 48ZM48 48L48 49L49 49L49 48ZM62 48L62 49L64 49L64 50L65 50L65 49L64 49L64 48ZM54 49L54 50L55 50L55 49ZM32 50L32 53L33 53L33 55L34 55L34 54L35 54L35 55L36 55L36 54L37 54L37 52L36 52L36 54L35 54L35 53L34 53L34 52L35 52L35 51L33 51L33 50ZM36 50L36 51L38 51L38 53L39 53L39 50ZM42 50L42 51L43 51L43 52L44 52L44 51L43 51L43 50ZM58 50L58 51L61 51L61 50ZM25 51L25 52L26 52L26 51ZM28 52L28 53L29 53L29 52ZM6 53L6 54L7 54L7 55L8 55L8 54L7 54L7 53ZM17 54L17 55L18 55L18 54ZM38 54L38 55L37 55L37 56L36 56L36 57L37 57L37 56L39 56L39 54ZM13 55L13 56L12 56L12 58L13 58L13 56L14 56L14 55ZM40 55L40 56L41 56L41 55ZM64 55L64 56L65 56L65 55ZM16 57L16 58L17 58L17 57ZM18 57L18 58L19 58L19 57ZM31 57L31 60L34 60L34 57ZM42 57L42 58L43 58L43 57ZM51 57L51 58L50 58L50 59L51 59L51 58L52 58L52 57ZM57 57L57 60L60 60L60 57ZM61 57L61 59L62 59L62 58L63 58L63 57ZM32 58L32 59L33 59L33 58ZM58 58L58 59L59 59L59 58ZM28 59L28 60L26 60L26 61L27 61L27 62L29 62L29 63L28 63L28 64L29 64L29 63L30 63L30 62L31 62L31 61L28 61L28 60L30 60L30 59ZM23 61L23 62L24 62L24 61ZM50 61L50 62L51 62L51 61ZM60 61L60 62L61 62L61 63L62 63L62 64L63 64L63 63L62 63L62 62L63 62L63 61ZM13 62L13 63L14 63L14 62ZM19 62L19 63L20 63L20 62ZM32 62L32 63L33 63L33 62ZM18 64L18 65L19 65L19 64ZM0 0L0 7L7 7L7 0ZM1 1L1 6L6 6L6 1ZM2 2L2 5L5 5L5 2ZM58 0L58 7L65 7L65 0ZM59 1L59 6L64 6L64 1ZM60 2L60 5L63 5L63 2ZM0 58L0 65L7 65L7 58ZM1 59L1 64L6 64L6 59ZM2 60L2 63L5 63L5 60Z" fill="#000000"/></g></g></svg>
