<?xml version="1.0" encoding="UTF-8"?>
<svg xmlns="http://www.w3.org/2000/svg" version="1.1" width="300" height="300" viewBox="0 0 300 300"><rect x="0" y="0" width="300" height="300" fill="#ffffff"/><g transform="scale(4.615)"><g transform="translate(0,0)"><path fill-rule="evenodd" d="M9 0L9 1L8 1L8 2L10 2L10 3L8 3L8 4L9 4L9 5L8 5L8 7L9 7L9 6L10 6L10 8L6 8L6 9L5 9L5 8L0 8L0 10L1 10L1 11L0 11L0 12L2 12L2 13L1 13L1 15L0 15L0 17L1 17L1 18L0 18L0 19L1 19L1 20L0 20L0 21L2 21L2 23L0 23L0 25L1 25L1 26L0 26L0 29L1 29L1 28L2 28L2 29L3 29L3 30L1 30L1 31L0 31L0 32L1 32L1 31L2 31L2 33L1 33L1 34L0 34L0 36L1 36L1 37L2 37L2 38L1 38L1 40L0 40L0 41L1 41L1 40L3 40L3 41L2 41L2 42L1 42L1 43L2 43L2 44L0 44L0 45L1 45L1 48L0 48L0 49L2 49L2 48L4 48L4 49L3 49L3 50L4 50L4 51L1 51L1 52L0 52L0 54L1 54L1 53L2 53L2 52L3 52L3 53L4 53L4 54L2 54L2 55L3 55L3 56L1 56L1 55L0 55L0 56L1 56L1 57L3 57L3 56L4 56L4 57L5 57L5 56L4 56L4 54L5 54L5 55L7 55L7 56L6 56L6 57L7 57L7 56L8 56L8 59L9 59L9 60L8 60L8 65L10 65L10 64L9 64L9 62L11 62L11 63L12 63L12 62L13 62L13 59L14 59L14 58L15 58L15 60L14 60L14 63L13 63L13 64L12 64L12 65L13 65L13 64L14 64L14 65L19 65L19 64L20 64L20 65L22 65L22 63L23 63L23 64L24 64L24 63L23 63L23 62L24 62L24 61L25 61L25 62L27 62L27 61L26 61L26 58L27 58L27 59L28 59L28 60L29 60L29 61L32 61L32 62L34 62L34 61L35 61L35 63L37 63L37 64L33 64L33 63L31 63L31 62L29 62L29 63L28 63L28 64L27 64L27 63L26 63L26 64L25 64L25 65L26 65L26 64L27 64L27 65L29 65L29 64L30 64L30 65L31 65L31 64L32 64L32 65L39 65L39 64L41 64L41 65L43 65L43 63L42 63L42 64L41 64L41 63L40 63L40 62L43 62L43 61L44 61L44 62L45 62L45 63L44 63L44 64L45 64L45 63L46 63L46 64L47 64L47 65L50 65L50 63L51 63L51 62L52 62L52 60L53 60L53 62L55 62L55 63L54 63L54 64L56 64L56 62L57 62L57 63L58 63L58 62L59 62L59 64L58 64L58 65L61 65L61 63L63 63L63 64L62 64L62 65L63 65L63 64L64 64L64 60L62 60L62 59L63 59L63 58L65 58L65 57L63 57L63 56L62 56L62 55L63 55L63 54L65 54L65 53L63 53L63 52L62 52L62 51L63 51L63 50L65 50L65 49L64 49L64 48L62 48L62 47L60 47L60 48L61 48L61 49L58 49L58 48L59 48L59 47L57 47L57 48L56 48L56 46L57 46L57 45L59 45L59 46L63 46L63 44L64 44L64 45L65 45L65 44L64 44L64 42L65 42L65 39L64 39L64 41L63 41L63 40L62 40L62 43L63 43L63 44L62 44L62 45L60 45L60 44L61 44L61 43L60 43L60 44L59 44L59 43L58 43L58 42L57 42L57 45L56 45L56 46L55 46L55 44L56 44L56 43L55 43L55 44L53 44L53 42L55 42L55 41L53 41L53 42L52 42L52 44L50 44L50 43L51 43L51 42L50 42L50 39L51 39L51 41L52 41L52 40L53 40L53 39L54 39L54 40L56 40L56 41L57 41L57 40L56 40L56 39L54 39L54 38L56 38L56 37L57 37L57 39L58 39L58 41L59 41L59 42L61 42L61 41L59 41L59 40L60 40L60 38L63 38L63 37L64 37L64 38L65 38L65 37L64 37L64 36L65 36L65 35L64 35L64 36L62 36L62 35L63 35L63 34L62 34L62 35L61 35L61 31L62 31L62 30L63 30L63 29L64 29L64 28L65 28L65 27L64 27L64 26L65 26L65 25L64 25L64 24L65 24L65 23L63 23L63 24L62 24L62 25L64 25L64 26L62 26L62 27L63 27L63 28L59 28L59 26L60 26L60 27L61 27L61 26L60 26L60 25L61 25L61 24L58 24L58 23L59 23L59 22L62 22L62 21L63 21L63 22L65 22L65 21L63 21L63 20L64 20L64 18L65 18L65 15L64 15L64 16L62 16L62 15L63 15L63 14L62 14L62 15L61 15L61 12L60 12L60 13L59 13L59 14L56 14L56 13L57 13L57 12L58 12L58 11L61 11L61 10L62 10L62 8L61 8L61 9L60 9L60 8L59 8L59 10L58 10L58 11L57 11L57 10L56 10L56 13L55 13L55 11L53 11L53 10L55 10L55 9L58 9L58 8L54 8L54 7L55 7L55 5L54 5L54 4L56 4L56 5L57 5L57 4L56 4L56 3L57 3L57 1L56 1L56 0L55 0L55 1L56 1L56 3L55 3L55 2L54 2L54 3L53 3L53 2L51 2L51 1L52 1L52 0L51 0L51 1L50 1L50 2L49 2L49 1L48 1L48 2L49 2L49 3L48 3L48 4L49 4L49 6L48 6L48 7L47 7L47 5L46 5L46 4L47 4L47 1L46 1L46 2L44 2L44 3L46 3L46 4L45 4L45 5L44 5L44 4L42 4L42 5L41 5L41 6L40 6L40 5L38 5L38 7L37 7L37 6L36 6L36 4L37 4L37 3L38 3L38 2L39 2L39 3L41 3L41 2L40 2L40 1L36 1L36 2L35 2L35 1L34 1L34 0L33 0L33 1L34 1L34 2L32 2L32 0L29 0L29 1L28 1L28 0L26 0L26 1L25 1L25 0L24 0L24 1L25 1L25 2L24 2L24 3L25 3L25 4L24 4L24 5L23 5L23 6L22 6L22 4L23 4L23 0L22 0L22 2L21 2L21 1L20 1L20 0L19 0L19 1L20 1L20 2L21 2L21 3L20 3L20 4L18 4L18 3L17 3L17 2L18 2L18 1L16 1L16 2L15 2L15 0L14 0L14 3L13 3L13 4L12 4L12 2L10 2L10 0ZM41 0L41 1L45 1L45 0ZM53 0L53 1L54 1L54 0ZM27 1L27 2L28 2L28 1ZM30 1L30 2L29 2L29 4L25 4L25 5L30 5L30 4L31 4L31 3L32 3L32 4L33 4L33 3L32 3L32 2L31 2L31 1ZM25 2L25 3L26 3L26 2ZM30 2L30 3L31 3L31 2ZM34 2L34 3L35 3L35 2ZM36 2L36 3L37 3L37 2ZM42 2L42 3L43 3L43 2ZM50 2L50 3L49 3L49 4L50 4L50 5L51 5L51 2ZM15 3L15 4L16 4L16 5L15 5L15 7L14 7L14 6L13 6L13 5L12 5L12 6L11 6L11 7L12 7L12 8L10 8L10 9L8 9L8 10L10 10L10 9L12 9L12 8L13 8L13 9L14 9L14 10L16 10L16 13L14 13L14 12L15 12L15 11L14 11L14 12L13 12L13 10L11 10L11 12L12 12L12 13L10 13L10 11L8 11L8 12L7 12L7 11L5 11L5 9L4 9L4 11L5 11L5 12L7 12L7 13L6 13L6 14L7 14L7 15L6 15L6 16L5 16L5 13L4 13L4 12L3 12L3 11L2 11L2 12L3 12L3 13L2 13L2 14L3 14L3 15L2 15L2 16L3 16L3 19L2 19L2 18L1 18L1 19L2 19L2 20L4 20L4 18L5 18L5 19L6 19L6 20L7 20L7 19L6 19L6 18L7 18L7 17L6 17L6 16L8 16L8 17L9 17L9 18L10 18L10 19L8 19L8 20L9 20L9 21L10 21L10 22L7 22L7 21L6 21L6 22L7 22L7 23L5 23L5 24L7 24L7 25L4 25L4 24L3 24L3 23L4 23L4 22L5 22L5 21L4 21L4 22L3 22L3 23L2 23L2 27L4 27L4 26L5 26L5 27L6 27L6 28L7 28L7 29L5 29L5 30L8 30L8 29L10 29L10 28L7 28L7 27L6 27L6 26L8 26L8 27L10 27L10 25L11 25L11 30L9 30L9 31L10 31L10 32L9 32L9 33L10 33L10 35L11 35L11 36L9 36L9 35L8 35L8 36L9 36L9 37L6 37L6 36L7 36L7 35L4 35L4 34L3 34L3 35L2 35L2 36L3 36L3 39L6 39L6 40L7 40L7 41L6 41L6 42L3 42L3 44L2 44L2 45L3 45L3 46L4 46L4 48L5 48L5 51L4 51L4 53L6 53L6 54L7 54L7 53L8 53L8 55L9 55L9 59L10 59L10 61L11 61L11 62L12 62L12 60L11 60L11 59L13 59L13 58L12 58L12 57L13 57L13 54L14 54L14 57L15 57L15 58L17 58L17 57L15 57L15 56L16 56L16 55L17 55L17 53L18 53L18 52L17 52L17 53L16 53L16 55L15 55L15 54L14 54L14 53L13 53L13 54L12 54L12 53L11 53L11 52L13 52L13 51L12 51L12 50L13 50L13 49L14 49L14 51L15 51L15 52L16 52L16 50L17 50L17 51L18 51L18 50L19 50L19 52L22 52L22 53L20 53L20 56L19 56L19 57L18 57L18 58L21 58L21 57L25 57L25 56L24 56L24 55L25 55L25 54L23 54L23 52L24 52L24 53L26 53L26 54L27 54L27 50L30 50L30 51L28 51L28 52L29 52L29 53L28 53L28 55L27 55L27 56L26 56L26 57L27 57L27 56L29 56L29 57L28 57L28 59L29 59L29 60L30 60L30 58L29 58L29 57L30 57L30 55L31 55L31 56L32 56L32 54L33 54L33 53L30 53L30 52L32 52L32 50L33 50L33 49L32 49L32 48L34 48L34 49L35 49L35 48L34 48L34 47L36 47L36 48L37 48L37 49L36 49L36 51L35 51L35 50L34 50L34 51L33 51L33 52L34 52L34 53L35 53L35 54L34 54L34 55L33 55L33 56L34 56L34 55L35 55L35 56L37 56L37 57L36 57L36 58L35 58L35 60L38 60L38 61L36 61L36 62L37 62L37 63L38 63L38 64L39 64L39 63L38 63L38 62L39 62L39 61L41 61L41 60L42 60L42 61L43 61L43 60L44 60L44 61L45 61L45 62L48 62L48 63L47 63L47 64L49 64L49 62L48 62L48 60L49 60L49 59L50 59L50 58L51 58L51 57L53 57L53 58L52 58L52 59L53 59L53 60L54 60L54 59L55 59L55 60L56 60L56 59L55 59L55 58L56 58L56 56L57 56L57 55L56 55L56 54L57 54L57 52L58 52L58 51L59 51L59 53L61 53L61 54L60 54L60 55L62 55L62 54L63 54L63 53L62 53L62 52L60 52L60 51L59 51L59 50L58 50L58 51L57 51L57 49L56 49L56 48L55 48L55 46L52 46L52 47L54 47L54 48L51 48L51 47L50 47L50 46L51 46L51 45L50 45L50 46L49 46L49 45L46 45L46 44L47 44L47 43L48 43L48 44L49 44L49 43L48 43L48 42L47 42L47 40L49 40L49 39L50 39L50 38L51 38L51 36L52 36L52 37L53 37L53 36L52 36L52 33L53 33L53 35L54 35L54 37L56 37L56 36L55 36L55 35L56 35L56 32L55 32L55 34L54 34L54 33L53 33L53 32L54 32L54 31L56 31L56 30L57 30L57 29L56 29L56 30L53 30L53 32L52 32L52 31L51 31L51 33L50 33L50 31L49 31L49 30L48 30L48 31L46 31L46 30L47 30L47 29L48 29L48 28L49 28L49 29L50 29L50 30L51 30L51 29L50 29L50 28L51 28L51 27L52 27L52 26L53 26L53 24L52 24L52 23L50 23L50 22L51 22L51 21L50 21L50 20L52 20L52 21L53 21L53 20L52 20L52 19L53 19L53 18L54 18L54 19L55 19L55 20L54 20L54 21L55 21L55 22L53 22L53 23L58 23L58 22L59 22L59 21L56 21L56 20L57 20L57 17L56 17L56 16L58 16L58 18L59 18L59 19L58 19L58 20L61 20L61 21L62 21L62 20L63 20L63 19L60 19L60 18L62 18L62 17L59 17L59 16L61 16L61 15L55 15L55 14L54 14L54 15L53 15L53 14L52 14L52 15L53 15L53 16L51 16L51 15L50 15L50 14L51 14L51 13L53 13L53 12L49 12L49 11L48 11L48 10L49 10L49 9L50 9L50 10L52 10L52 9L53 9L53 8L52 8L52 9L50 9L50 8L51 8L51 7L52 7L52 6L51 6L51 7L50 7L50 6L49 6L49 7L48 7L48 8L47 8L47 9L46 9L46 10L45 10L45 8L44 8L44 6L43 6L43 5L42 5L42 6L41 6L41 8L40 8L40 6L39 6L39 8L38 8L38 9L37 9L37 10L35 10L35 9L32 9L32 10L31 10L31 9L30 9L30 11L31 11L31 12L30 12L30 13L29 13L29 11L28 11L28 10L29 10L29 9L28 9L28 10L27 10L27 11L26 11L26 13L25 13L25 16L24 16L24 15L23 15L23 16L22 16L22 17L20 17L20 18L22 18L22 19L21 19L21 20L22 20L22 21L20 21L20 20L19 20L19 21L20 21L20 23L18 23L18 22L17 22L17 21L18 21L18 20L17 20L17 19L18 19L18 18L19 18L19 17L18 17L18 15L16 15L16 16L17 16L17 17L15 17L15 16L14 16L14 14L20 14L20 15L19 15L19 16L21 16L21 14L22 14L22 13L23 13L23 14L24 14L24 13L23 13L23 12L25 12L25 10L26 10L26 9L27 9L27 7L28 7L28 8L29 8L29 7L30 7L30 6L29 6L29 7L28 7L28 6L27 6L27 7L26 7L26 6L25 6L25 7L24 7L24 6L23 6L23 7L24 7L24 8L21 8L21 7L22 7L22 6L21 6L21 4L22 4L22 3L21 3L21 4L20 4L20 6L19 6L19 5L18 5L18 4L16 4L16 3ZM52 3L52 5L53 5L53 3ZM16 5L16 9L17 9L17 8L18 8L18 9L19 9L19 10L20 10L20 9L21 9L21 8L18 8L18 7L19 7L19 6L18 6L18 7L17 7L17 5ZM31 5L31 8L34 8L34 5ZM12 6L12 7L13 7L13 6ZM20 6L20 7L21 7L21 6ZM32 6L32 7L33 7L33 6ZM35 6L35 8L37 8L37 7L36 7L36 6ZM42 6L42 8L43 8L43 6ZM45 6L45 7L46 7L46 6ZM53 6L53 7L54 7L54 6ZM56 6L56 7L57 7L57 6ZM14 8L14 9L15 9L15 8ZM48 8L48 9L49 9L49 8ZM63 8L63 9L64 9L64 10L63 10L63 12L62 12L62 13L64 13L64 14L65 14L65 11L64 11L64 10L65 10L65 9L64 9L64 8ZM6 9L6 10L7 10L7 9ZM22 9L22 11L18 11L18 10L17 10L17 11L18 11L18 13L20 13L20 12L22 12L22 11L23 11L23 9ZM24 9L24 10L25 10L25 9ZM39 9L39 10L38 10L38 11L37 11L37 12L36 12L36 13L35 13L35 14L33 14L33 13L32 13L32 12L34 12L34 11L35 11L35 10L34 10L34 11L32 11L32 12L31 12L31 13L32 13L32 14L29 14L29 16L28 16L28 15L26 15L26 16L25 16L25 17L24 17L24 19L23 19L23 22L26 22L26 21L24 21L24 19L25 19L25 20L26 20L26 19L25 19L25 18L27 18L27 19L28 19L28 20L27 20L27 23L26 23L26 24L25 24L25 23L24 23L24 24L23 24L23 25L21 25L21 24L22 24L22 22L21 22L21 23L20 23L20 25L21 25L21 27L20 27L20 26L18 26L18 25L19 25L19 24L16 24L16 23L15 23L15 24L13 24L13 23L12 23L12 24L11 24L11 23L8 23L8 25L10 25L10 24L11 24L11 25L12 25L12 28L13 28L13 29L14 29L14 30L13 30L13 31L11 31L11 34L12 34L12 35L13 35L13 36L11 36L11 38L9 38L9 39L8 39L8 38L6 38L6 37L5 37L5 36L4 36L4 38L6 38L6 39L7 39L7 40L8 40L8 42L6 42L6 43L8 43L8 42L11 42L11 41L9 41L9 40L10 40L10 39L11 39L11 40L14 40L14 41L12 41L12 42L14 42L14 43L13 43L13 44L11 44L11 45L14 45L14 44L17 44L17 43L15 43L15 41L19 41L19 42L20 42L20 43L21 43L21 44L23 44L23 45L22 45L22 46L21 46L21 48L18 48L18 49L19 49L19 50L20 50L20 51L22 51L22 50L23 50L23 51L25 51L25 52L26 52L26 51L25 51L25 50L27 50L27 49L26 49L26 46L28 46L28 43L30 43L30 42L28 42L28 41L30 41L30 40L31 40L31 42L32 42L32 43L33 43L33 44L32 44L32 45L31 45L31 44L29 44L29 45L31 45L31 46L32 46L32 47L30 47L30 46L29 46L29 47L28 47L28 49L30 49L30 50L31 50L31 48L32 48L32 47L33 47L33 46L34 46L34 45L35 45L35 46L36 46L36 47L39 47L39 48L38 48L38 49L37 49L37 51L39 51L39 50L40 50L40 52L42 52L42 54L43 54L43 55L42 55L42 57L41 57L41 58L40 58L40 57L39 57L39 56L41 56L41 55L39 55L39 54L38 54L38 53L39 53L39 52L38 52L38 53L37 53L37 52L36 52L36 54L35 54L35 55L36 55L36 54L38 54L38 55L39 55L39 56L38 56L38 57L37 57L37 58L36 58L36 59L38 59L38 60L39 60L39 58L40 58L40 60L41 60L41 58L43 58L43 59L42 59L42 60L43 60L43 59L44 59L44 60L46 60L46 61L47 61L47 60L46 60L46 59L47 59L47 58L50 58L50 57L51 57L51 56L50 56L50 57L49 57L49 56L46 56L46 55L47 55L47 54L46 54L46 55L44 55L44 52L45 52L45 50L43 50L43 49L44 49L44 48L45 48L45 49L49 49L49 50L50 50L50 51L49 51L49 52L47 52L47 53L49 53L49 54L48 54L48 55L49 55L49 54L50 54L50 55L51 55L51 54L52 54L52 56L53 56L53 57L54 57L54 58L55 58L55 56L56 56L56 55L54 55L54 56L53 56L53 54L56 54L56 53L53 53L53 54L52 54L52 52L53 52L53 51L51 51L51 50L50 50L50 49L51 49L51 48L50 48L50 49L49 49L49 48L46 48L46 47L47 47L47 46L46 46L46 47L45 47L45 46L44 46L44 44L46 44L46 43L47 43L47 42L46 42L46 40L47 40L47 39L49 39L49 38L50 38L50 36L51 36L51 34L50 34L50 36L48 36L48 38L45 38L45 39L44 39L44 38L43 38L43 37L42 37L42 38L43 38L43 39L42 39L42 40L43 40L43 41L41 41L41 43L40 43L40 42L38 42L38 45L39 45L39 44L41 44L41 43L42 43L42 44L43 44L43 45L40 45L40 46L41 46L41 47L39 47L39 46L37 46L37 44L35 44L35 43L37 43L37 41L39 41L39 39L40 39L40 40L41 40L41 39L40 39L40 38L41 38L41 37L39 37L39 36L41 36L41 35L40 35L40 34L44 34L44 36L46 36L46 37L47 37L47 36L46 36L46 35L49 35L49 32L47 32L47 33L48 33L48 34L46 34L46 33L40 33L40 32L41 32L41 29L42 29L42 30L44 30L44 28L46 28L46 27L48 27L48 26L50 26L50 27L51 27L51 26L52 26L52 25L51 25L51 24L48 24L48 26L46 26L46 25L44 25L44 24L45 24L45 23L44 23L44 24L43 24L43 25L42 25L42 26L43 26L43 25L44 25L44 26L45 26L45 27L44 27L44 28L43 28L43 29L42 29L42 28L41 28L41 26L38 26L38 25L37 25L37 24L39 24L39 25L40 25L40 24L41 24L41 23L42 23L42 22L43 22L43 21L44 21L44 22L45 22L45 21L47 21L47 20L48 20L48 21L49 21L49 22L48 22L48 23L49 23L49 22L50 22L50 21L49 21L49 20L48 20L48 17L49 17L49 16L48 16L48 14L49 14L49 12L48 12L48 11L47 11L47 10L46 10L46 11L44 11L44 10L43 10L43 9L42 9L42 10L41 10L41 9ZM40 10L40 11L41 11L41 10ZM42 10L42 12L37 12L37 15L34 15L34 16L35 16L35 17L33 17L33 16L32 16L32 15L33 15L33 14L32 14L32 15L31 15L31 16L30 16L30 17L28 17L28 16L26 16L26 17L27 17L27 18L28 18L28 19L31 19L31 20L29 20L29 21L28 21L28 22L29 22L29 21L31 21L31 20L32 20L32 21L33 21L33 20L32 20L32 19L31 19L31 18L36 18L36 16L37 16L37 19L35 19L35 20L37 20L37 21L36 21L36 22L42 22L42 21L43 21L43 19L45 19L45 18L47 18L47 17L46 17L46 16L47 16L47 15L46 15L46 16L44 16L44 17L43 17L43 18L42 18L42 19L41 19L41 20L39 20L39 19L38 19L38 18L39 18L39 17L38 17L38 16L40 16L40 17L41 17L41 16L40 16L40 15L41 15L41 14L40 14L40 15L38 15L38 14L39 14L39 13L42 13L42 12L43 12L43 14L42 14L42 15L43 15L43 14L48 14L48 13L45 13L45 12L44 12L44 11L43 11L43 10ZM27 11L27 12L28 12L28 11ZM46 11L46 12L47 12L47 11ZM3 13L3 14L4 14L4 13ZM7 13L7 14L8 14L8 15L9 15L9 17L11 17L11 16L12 16L12 15L11 15L11 16L10 16L10 14L9 14L9 13ZM12 13L12 14L13 14L13 13ZM26 13L26 14L28 14L28 13ZM54 15L54 16L53 16L53 17L51 17L51 16L50 16L50 17L51 17L51 18L49 18L49 19L52 19L52 18L53 18L53 17L54 17L54 18L55 18L55 19L56 19L56 17L55 17L55 15ZM4 16L4 17L5 17L5 18L6 18L6 17L5 17L5 16ZM12 17L12 18L11 18L11 20L10 20L10 21L14 21L14 22L16 22L16 21L15 21L15 20L16 20L16 18L15 18L15 20L12 20L12 18L13 18L13 19L14 19L14 18L13 18L13 17ZM22 17L22 18L23 18L23 17ZM30 17L30 18L31 18L31 17ZM44 17L44 18L45 18L45 17ZM46 19L46 20L47 20L47 19ZM38 20L38 21L39 21L39 20ZM44 20L44 21L45 21L45 20ZM34 21L34 22L35 22L35 21ZM30 22L30 23L31 23L31 24L29 24L29 25L28 25L28 24L26 24L26 25L28 25L28 26L29 26L29 27L31 27L31 28L28 28L28 29L27 29L27 27L26 27L26 26L24 26L24 25L25 25L25 24L24 24L24 25L23 25L23 28L22 28L22 27L21 27L21 28L19 28L19 27L18 27L18 26L17 26L17 25L14 25L14 26L17 26L17 28L16 28L16 29L15 29L15 27L13 27L13 28L14 28L14 29L15 29L15 30L14 30L14 31L13 31L13 32L12 32L12 34L14 34L14 36L15 36L15 38L13 38L13 37L12 37L12 39L14 39L14 40L15 40L15 38L17 38L17 39L16 39L16 40L17 40L17 39L18 39L18 40L21 40L21 41L20 41L20 42L22 42L22 43L24 43L24 41L25 41L25 43L27 43L27 42L26 42L26 41L28 41L28 40L29 40L29 39L28 39L28 40L26 40L26 41L25 41L25 39L23 39L23 38L24 38L24 37L25 37L25 38L26 38L26 39L27 39L27 37L28 37L28 38L30 38L30 39L32 39L32 40L33 40L33 39L32 39L32 38L33 38L33 37L34 37L34 39L36 39L36 40L38 40L38 38L39 38L39 37L38 37L38 34L39 34L39 32L40 32L40 29L41 29L41 28L40 28L40 27L36 27L36 26L37 26L37 25L35 25L35 24L37 24L37 23L35 23L35 24L34 24L34 23L33 23L33 22ZM46 22L46 23L47 23L47 22ZM32 23L32 24L31 24L31 25L30 25L30 26L31 26L31 27L32 27L32 28L31 28L31 29L30 29L30 30L29 30L29 29L28 29L28 30L27 30L27 29L26 29L26 27L24 27L24 29L22 29L22 28L21 28L21 29L19 29L19 28L18 28L18 29L16 29L16 30L15 30L15 31L16 31L16 32L14 32L14 34L15 34L15 36L16 36L16 37L18 37L18 39L19 39L19 38L20 38L20 39L22 39L22 37L23 37L23 35L24 35L24 36L25 36L25 37L27 37L27 34L28 34L28 33L29 33L29 31L30 31L30 34L29 34L29 35L28 35L28 37L29 37L29 36L30 36L30 37L31 37L31 35L33 35L33 36L32 36L32 37L33 37L33 36L35 36L35 37L37 37L37 36L36 36L36 35L37 35L37 34L36 34L36 35L35 35L35 33L37 33L37 32L39 32L39 30L37 30L37 28L35 28L35 26L34 26L34 25L32 25L32 24L33 24L33 23ZM12 24L12 25L13 25L13 24ZM31 25L31 26L32 26L32 27L33 27L33 28L32 28L32 29L31 29L31 30L32 30L32 29L33 29L33 28L34 28L34 30L35 30L35 28L34 28L34 27L33 27L33 26L32 26L32 25ZM50 25L50 26L51 26L51 25ZM55 25L55 26L54 26L54 27L53 27L53 28L52 28L52 29L55 29L55 28L58 28L58 30L59 30L59 28L58 28L58 27L56 27L56 26L59 26L59 25ZM54 27L54 28L55 28L55 27ZM38 28L38 29L39 29L39 28ZM18 29L18 30L17 30L17 33L15 33L15 34L17 34L17 33L18 33L18 35L16 35L16 36L18 36L18 37L20 37L20 38L21 38L21 37L22 37L22 36L21 36L21 35L22 35L22 33L25 33L25 34L26 34L26 33L27 33L27 32L28 32L28 31L27 31L27 30L25 30L25 29L24 29L24 30L22 30L22 31L21 31L21 32L22 32L22 33L20 33L20 32L19 32L19 31L20 31L20 30L19 30L19 29ZM60 29L60 30L61 30L61 29ZM3 30L3 31L4 31L4 30ZM18 30L18 31L19 31L19 30ZM36 30L36 31L35 31L35 32L37 32L37 30ZM5 31L5 34L8 34L8 31ZM23 31L23 32L24 32L24 31ZM25 31L25 33L26 33L26 32L27 32L27 31ZM31 31L31 34L34 34L34 31ZM42 31L42 32L43 32L43 31ZM44 31L44 32L45 32L45 31ZM57 31L57 34L60 34L60 31ZM6 32L6 33L7 33L7 32ZM18 32L18 33L19 33L19 36L20 36L20 37L21 37L21 36L20 36L20 35L21 35L21 34L20 34L20 33L19 33L19 32ZM32 32L32 33L33 33L33 32ZM58 32L58 33L59 33L59 32ZM62 32L62 33L63 33L63 32ZM64 33L64 34L65 34L65 33ZM25 35L25 36L26 36L26 35ZM42 35L42 36L43 36L43 35ZM58 36L58 37L59 37L59 36ZM60 36L60 37L61 37L61 36ZM36 38L36 39L37 39L37 38ZM52 38L52 39L53 39L53 38ZM58 38L58 39L59 39L59 38ZM45 39L45 40L44 40L44 41L45 41L45 40L46 40L46 39ZM34 40L34 41L35 41L35 40ZM22 41L22 42L23 42L23 41ZM32 41L32 42L33 42L33 43L35 43L35 42L33 42L33 41ZM42 42L42 43L43 43L43 44L44 44L44 43L43 43L43 42ZM5 44L5 45L4 45L4 46L6 46L6 47L8 47L8 46L9 46L9 48L8 48L8 49L7 49L7 48L6 48L6 49L7 49L7 50L6 50L6 51L5 51L5 52L6 52L6 53L7 53L7 52L8 52L8 51L10 51L10 52L9 52L9 53L10 53L10 52L11 52L11 49L13 49L13 48L12 48L12 47L10 47L10 44L8 44L8 46L6 46L6 45L7 45L7 44ZM18 44L18 45L17 45L17 46L18 46L18 45L20 45L20 44ZM26 44L26 45L25 45L25 46L26 46L26 45L27 45L27 44ZM33 44L33 45L32 45L32 46L33 46L33 45L34 45L34 44ZM52 44L52 45L53 45L53 44ZM15 45L15 46L13 46L13 47L14 47L14 49L17 49L17 48L16 48L16 47L15 47L15 46L16 46L16 45ZM23 45L23 46L22 46L22 49L25 49L25 48L24 48L24 47L23 47L23 46L24 46L24 45ZM19 46L19 47L20 47L20 46ZM42 46L42 47L41 47L41 48L40 48L40 50L41 50L41 51L42 51L42 52L43 52L43 50L41 50L41 48L43 48L43 47L44 47L44 46ZM48 46L48 47L49 47L49 46ZM29 47L29 48L30 48L30 47ZM10 48L10 49L11 49L11 48ZM54 48L54 50L55 50L55 51L54 51L54 52L57 52L57 51L56 51L56 49L55 49L55 48ZM20 49L20 50L21 50L21 49ZM38 49L38 50L39 50L39 49ZM52 49L52 50L53 50L53 49ZM61 49L61 50L63 50L63 49ZM46 50L46 51L48 51L48 50ZM6 51L6 52L7 52L7 51ZM34 51L34 52L35 52L35 51ZM49 52L49 53L50 53L50 54L51 54L51 52ZM10 54L10 56L11 56L11 57L10 57L10 58L11 58L11 57L12 57L12 54ZM21 54L21 56L20 56L20 57L21 57L21 56L23 56L23 55L22 55L22 54ZM29 54L29 55L30 55L30 54ZM58 54L58 55L59 55L59 54ZM43 55L43 56L44 56L44 57L45 57L45 58L44 58L44 59L46 59L46 58L47 58L47 57L45 57L45 56L44 56L44 55ZM64 55L64 56L65 56L65 55ZM31 57L31 60L34 60L34 57ZM38 57L38 58L39 58L39 57ZM57 57L57 60L60 60L60 57ZM61 57L61 59L62 59L62 58L63 58L63 57ZM22 58L22 59L21 59L21 60L20 60L20 59L18 59L18 60L17 60L17 59L16 59L16 61L15 61L15 62L16 62L16 61L17 61L17 64L19 64L19 63L20 63L20 62L19 62L19 61L24 61L24 59L25 59L25 58ZM32 58L32 59L33 59L33 58ZM58 58L58 59L59 59L59 58ZM22 59L22 60L23 60L23 59ZM18 60L18 61L19 61L19 60ZM61 60L61 61L60 61L60 62L62 62L62 60ZM50 61L50 62L51 62L51 61ZM55 61L55 62L56 62L56 61ZM57 61L57 62L58 62L58 61ZM18 62L18 63L19 63L19 62ZM21 62L21 63L22 63L22 62ZM14 63L14 64L16 64L16 63ZM52 63L52 64L53 64L53 63ZM0 0L0 7L7 7L7 0ZM1 1L1 6L6 6L6 1ZM2 2L2 5L5 5L5 2ZM58 0L58 7L65 7L65 0ZM59 1L59 6L64 6L64 1ZM60 2L60 5L63 5L63 2ZM0 58L0 65L7 65L7 58ZM1 59L1 64L6 64L6 59ZM2 60L2 63L5 63L5 60Z" fill="#000000"/></g></g></svg>
