<?xml version="1.0" encoding="UTF-8"?>
<svg xmlns="http://www.w3.org/2000/svg" version="1.1" width="300" height="300" viewBox="0 0 300 300"><rect x="0" y="0" width="300" height="300" fill="#ffffff"/><g transform="scale(4.615)"><g transform="translate(0,0)"><path fill-rule="evenodd" d="M12 0L12 1L13 1L13 3L14 3L14 4L13 4L13 5L10 5L10 4L11 4L11 3L12 3L12 2L11 2L11 3L10 3L10 1L8 1L8 2L9 2L9 3L8 3L8 4L9 4L9 5L8 5L8 7L9 7L9 8L6 8L6 9L9 9L9 8L10 8L10 10L13 10L13 9L12 9L12 8L13 8L13 5L14 5L14 4L15 4L15 6L14 6L14 11L12 11L12 12L11 12L11 13L10 13L10 11L9 11L9 10L8 10L8 11L7 11L7 10L6 10L6 11L5 11L5 12L4 12L4 11L3 11L3 12L2 12L2 10L3 10L3 9L4 9L4 10L5 10L5 8L0 8L0 10L1 10L1 11L0 11L0 12L2 12L2 13L0 13L0 14L2 14L2 13L3 13L3 12L4 12L4 14L3 14L3 15L1 15L1 17L2 17L2 18L0 18L0 24L1 24L1 23L2 23L2 24L3 24L3 26L2 26L2 25L0 25L0 28L1 28L1 29L3 29L3 30L4 30L4 31L3 31L3 33L2 33L2 34L1 34L1 33L0 33L0 34L1 34L1 35L3 35L3 36L5 36L5 37L2 37L2 36L0 36L0 37L2 37L2 39L0 39L0 43L1 43L1 44L4 44L4 42L6 42L6 43L7 43L7 42L8 42L8 41L9 41L9 42L10 42L10 44L9 44L9 43L8 43L8 44L9 44L9 45L7 45L7 44L6 44L6 45L7 45L7 46L5 46L5 45L3 45L3 46L5 46L5 47L8 47L8 46L12 46L12 47L11 47L11 48L10 48L10 47L9 47L9 48L8 48L8 49L7 49L7 48L3 48L3 47L2 47L2 45L1 45L1 46L0 46L0 47L1 47L1 49L0 49L0 50L1 50L1 49L2 49L2 50L3 50L3 51L1 51L1 53L2 53L2 55L3 55L3 56L1 56L1 55L0 55L0 56L1 56L1 57L3 57L3 56L4 56L4 57L5 57L5 56L4 56L4 54L3 54L3 53L2 53L2 52L3 52L3 51L4 51L4 52L6 52L6 53L5 53L5 55L7 55L7 54L9 54L9 55L8 55L8 56L6 56L6 57L8 57L8 59L9 59L9 57L8 57L8 56L9 56L9 55L11 55L11 56L10 56L10 58L11 58L11 59L10 59L10 60L11 60L11 61L13 61L13 62L11 62L11 63L10 63L10 61L9 61L9 60L8 60L8 65L9 65L9 63L10 63L10 65L15 65L15 64L11 64L11 63L13 63L13 62L14 62L14 61L13 61L13 60L14 60L14 59L15 59L15 61L16 61L16 62L15 62L15 63L16 63L16 65L19 65L19 64L20 64L20 65L22 65L22 63L23 63L23 65L24 65L24 63L23 63L23 62L24 62L24 61L26 61L26 62L25 62L25 63L27 63L27 61L26 61L26 59L27 59L27 60L28 60L28 61L31 61L31 62L30 62L30 63L29 63L29 62L28 62L28 64L27 64L27 65L31 65L31 64L30 64L30 63L32 63L32 64L34 64L34 65L35 65L35 64L34 64L34 63L36 63L36 61L37 61L37 62L38 62L38 63L39 63L39 62L38 62L38 60L36 60L36 59L35 59L35 58L36 58L36 57L37 57L37 59L39 59L39 60L41 60L41 61L40 61L40 62L41 62L41 61L42 61L42 62L44 62L44 64L43 64L43 63L40 63L40 64L41 64L41 65L44 65L44 64L45 64L45 65L46 65L46 64L48 64L48 65L49 65L49 64L48 64L48 63L51 63L51 62L52 62L52 60L53 60L53 61L54 61L54 62L55 62L55 63L54 63L54 64L53 64L53 63L52 63L52 64L50 64L50 65L52 65L52 64L53 64L53 65L56 65L56 62L58 62L58 63L59 63L59 64L58 64L58 65L63 65L63 64L64 64L64 60L65 60L65 59L63 59L63 58L65 58L65 56L64 56L64 54L65 54L65 51L64 51L64 50L65 50L65 49L64 49L64 48L62 48L62 49L63 49L63 50L61 50L61 49L60 49L60 50L61 50L61 52L62 52L62 53L60 53L60 55L58 55L58 53L57 53L57 54L56 54L56 53L51 53L51 54L50 54L50 55L52 55L52 56L53 56L53 57L51 57L51 56L50 56L50 57L49 57L49 56L46 56L46 55L47 55L47 54L45 54L45 53L47 53L47 52L48 52L48 53L49 53L49 52L50 52L50 51L52 51L52 52L53 52L53 51L54 51L54 52L56 52L56 51L58 51L58 52L59 52L59 51L58 51L58 50L59 50L59 49L58 49L58 48L60 48L60 47L61 47L61 45L60 45L60 46L59 46L59 45L58 45L58 44L59 44L59 43L55 43L55 44L54 44L54 42L55 42L55 41L54 41L54 40L56 40L56 41L57 41L57 40L59 40L59 39L57 39L57 40L56 40L56 37L54 37L54 34L55 34L55 33L56 33L56 35L55 35L55 36L56 36L56 35L57 35L57 38L61 38L61 37L62 37L62 39L63 39L63 40L61 40L61 39L60 39L60 40L61 40L61 41L59 41L59 42L62 42L62 41L63 41L63 42L65 42L65 41L64 41L64 40L65 40L65 39L63 39L63 37L64 37L64 38L65 38L65 37L64 37L64 36L65 36L65 35L63 35L63 34L62 34L62 35L61 35L61 33L64 33L64 34L65 34L65 32L62 32L62 29L64 29L64 28L62 28L62 27L63 27L63 26L65 26L65 25L63 25L63 24L60 24L60 23L59 23L59 22L61 22L61 20L59 20L59 19L63 19L63 17L64 17L64 18L65 18L65 15L64 15L64 16L62 16L62 15L61 15L61 14L62 14L62 13L63 13L63 12L64 12L64 14L65 14L65 12L64 12L64 10L65 10L65 9L64 9L64 8L63 8L63 9L62 9L62 8L61 8L61 12L60 12L60 11L59 11L59 10L60 10L60 8L59 8L59 10L58 10L58 8L56 8L56 9L52 9L52 8L53 8L53 6L54 6L54 8L55 8L55 5L54 5L54 4L56 4L56 5L57 5L57 4L56 4L56 3L57 3L57 1L56 1L56 0L55 0L55 1L56 1L56 3L55 3L55 2L54 2L54 3L53 3L53 2L51 2L51 1L50 1L50 0L48 0L48 1L50 1L50 2L49 2L49 3L48 3L48 2L47 2L47 1L46 1L46 2L45 2L45 1L43 1L43 0L41 0L41 1L40 1L40 0L39 0L39 1L38 1L38 2L39 2L39 3L38 3L38 4L39 4L39 3L41 3L41 2L42 2L42 1L43 1L43 4L42 4L42 5L41 5L41 4L40 4L40 5L37 5L37 3L36 3L36 4L32 4L32 3L33 3L33 2L32 2L32 3L31 3L31 2L29 2L29 1L31 1L31 0L29 0L29 1L28 1L28 2L27 2L27 0L26 0L26 1L25 1L25 0L22 0L22 2L21 2L21 3L20 3L20 4L18 4L18 3L17 3L17 2L18 2L18 1L16 1L16 0ZM32 0L32 1L33 1L33 0ZM35 0L35 1L34 1L34 3L35 3L35 2L36 2L36 0ZM52 0L52 1L54 1L54 0ZM39 1L39 2L40 2L40 1ZM15 2L15 3L16 3L16 4L17 4L17 5L16 5L16 6L15 6L15 8L16 8L16 6L17 6L17 7L18 7L18 6L19 6L19 8L21 8L21 9L20 9L20 10L19 10L19 9L18 9L18 8L17 8L17 11L19 11L19 12L20 12L20 13L16 13L16 12L15 12L15 13L13 13L13 14L12 14L12 15L11 15L11 14L10 14L10 13L9 13L9 11L8 11L8 12L7 12L7 11L6 11L6 12L7 12L7 13L5 13L5 14L4 14L4 15L5 15L5 19L6 19L6 20L4 20L4 19L3 19L3 18L4 18L4 16L3 16L3 18L2 18L2 19L1 19L1 22L2 22L2 23L4 23L4 26L3 26L3 27L2 27L2 26L1 26L1 27L2 27L2 28L3 28L3 29L5 29L5 30L7 30L7 29L10 29L10 30L9 30L9 31L10 31L10 32L9 32L9 34L11 34L11 32L13 32L13 31L15 31L15 32L16 32L16 31L15 31L15 30L16 30L16 29L17 29L17 32L19 32L19 31L20 31L20 30L19 30L19 29L21 29L21 28L22 28L22 29L24 29L24 30L23 30L23 31L21 31L21 33L18 33L18 35L17 35L17 33L16 33L16 35L15 35L15 36L10 36L10 35L8 35L8 36L7 36L7 35L6 35L6 36L7 36L7 37L5 37L5 38L4 38L4 41L6 41L6 42L7 42L7 41L8 41L8 40L7 40L7 39L6 39L6 38L7 38L7 37L10 37L10 38L9 38L9 40L10 40L10 41L12 41L12 40L15 40L15 43L13 43L13 42L11 42L11 44L10 44L10 45L11 45L11 44L14 44L14 45L16 45L16 46L13 46L13 47L12 47L12 48L11 48L11 49L8 49L8 51L6 51L6 50L7 50L7 49L6 49L6 50L5 50L5 49L3 49L3 48L2 48L2 49L3 49L3 50L4 50L4 51L6 51L6 52L7 52L7 53L6 53L6 54L7 54L7 53L8 53L8 51L10 51L10 50L12 50L12 51L11 51L11 52L10 52L10 53L9 53L9 54L11 54L11 55L13 55L13 58L12 58L12 59L14 59L14 55L13 55L13 53L11 53L11 52L14 52L14 54L15 54L15 53L16 53L16 54L17 54L17 56L21 56L21 57L20 57L20 59L18 59L18 58L19 58L19 57L18 57L18 58L17 58L17 57L15 57L15 59L16 59L16 61L18 61L18 64L19 64L19 63L20 63L20 62L19 62L19 61L21 61L21 60L22 60L22 61L24 61L24 60L22 60L22 59L21 59L21 57L23 57L23 59L24 59L24 57L25 57L25 59L26 59L26 57L28 57L28 58L29 58L29 57L28 57L28 54L30 54L30 53L31 53L31 55L35 55L35 57L36 57L36 56L37 56L37 57L38 57L38 58L39 58L39 59L42 59L42 60L44 60L44 62L45 62L45 60L46 60L46 62L47 62L47 63L48 63L48 62L51 62L51 61L50 61L50 60L51 60L51 59L50 59L50 58L51 58L51 57L50 57L50 58L47 58L47 57L45 57L45 56L44 56L44 55L45 55L45 54L44 54L44 53L45 53L45 52L42 52L42 51L43 51L43 50L40 50L40 51L37 51L37 50L39 50L39 49L41 49L41 48L42 48L42 49L44 49L44 51L45 51L45 50L47 50L47 51L46 51L46 52L47 52L47 51L48 51L48 52L49 52L49 51L50 51L50 50L52 50L52 51L53 51L53 50L54 50L54 51L56 51L56 48L55 48L55 47L56 47L56 46L57 46L57 47L59 47L59 46L58 46L58 45L57 45L57 44L55 44L55 45L56 45L56 46L54 46L54 47L53 47L53 46L52 46L52 47L53 47L53 48L52 48L52 49L51 49L51 47L50 47L50 46L51 46L51 44L52 44L52 45L54 45L54 44L52 44L52 42L53 42L53 40L54 40L54 39L55 39L55 38L54 38L54 39L53 39L53 38L52 38L52 37L53 37L53 36L50 36L50 34L51 34L51 35L52 35L52 34L54 34L54 33L55 33L55 32L56 32L56 30L57 30L57 29L56 29L56 27L57 27L57 28L58 28L58 30L61 30L61 29L62 29L62 28L61 28L61 27L62 27L62 26L63 26L63 25L61 25L61 26L60 26L60 25L56 25L56 24L55 24L55 23L57 23L57 22L59 22L59 20L58 20L58 21L56 21L56 20L57 20L57 19L58 19L58 18L59 18L59 17L58 17L58 15L57 15L57 14L59 14L59 11L58 11L58 12L57 12L57 9L56 9L56 11L55 11L55 10L53 10L53 12L50 12L50 11L48 11L48 10L49 10L49 9L50 9L50 10L52 10L52 9L50 9L50 8L51 8L51 7L52 7L52 6L53 6L53 5L52 5L52 6L51 6L51 7L50 7L50 5L51 5L51 4L53 4L53 3L51 3L51 2L50 2L50 5L49 5L49 4L45 4L45 3L44 3L44 4L43 4L43 5L42 5L42 6L41 6L41 5L40 5L40 6L39 6L39 7L38 7L38 6L37 6L37 5L35 5L35 7L36 7L36 8L37 8L37 7L38 7L38 9L37 9L37 11L36 11L36 12L37 12L37 11L38 11L38 14L39 14L39 15L36 15L36 14L37 14L37 13L33 13L33 12L32 12L32 11L33 11L33 9L32 9L32 11L31 11L31 10L30 10L30 8L29 8L29 7L30 7L30 4L31 4L31 3L29 3L29 2L28 2L28 3L27 3L27 2L26 2L26 5L25 5L25 7L24 7L24 4L25 4L25 3L23 3L23 4L22 4L22 3L21 3L21 4L20 4L20 5L18 5L18 4L17 4L17 3L16 3L16 2ZM46 2L46 3L47 3L47 2ZM9 3L9 4L10 4L10 3ZM28 3L28 4L27 4L27 6L26 6L26 8L25 8L25 9L24 9L24 8L23 8L23 6L22 6L22 4L21 4L21 5L20 5L20 7L21 7L21 6L22 6L22 8L23 8L23 9L21 9L21 10L20 10L20 11L21 11L21 12L23 12L23 13L22 13L22 14L21 14L21 16L19 16L19 15L20 15L20 14L19 14L19 15L18 15L18 14L16 14L16 13L15 13L15 14L14 14L14 16L10 16L10 15L9 15L9 16L10 16L10 17L13 17L13 18L12 18L12 20L10 20L10 19L11 19L11 18L10 18L10 19L8 19L8 20L9 20L9 21L12 21L12 20L14 20L14 21L15 21L15 22L14 22L14 23L15 23L15 24L12 24L12 23L13 23L13 22L8 22L8 21L7 21L7 20L6 20L6 21L7 21L7 22L6 22L6 23L7 23L7 24L6 24L6 25L7 25L7 26L6 26L6 27L3 27L3 28L5 28L5 29L7 29L7 28L9 28L9 27L7 27L7 26L11 26L11 27L10 27L10 29L11 29L11 30L10 30L10 31L12 31L12 29L11 29L11 27L12 27L12 28L13 28L13 29L14 29L14 28L13 28L13 27L12 27L12 25L13 25L13 26L14 26L14 27L15 27L15 29L16 29L16 27L17 27L17 29L19 29L19 28L20 28L20 26L18 26L18 25L19 25L19 24L20 24L20 25L21 25L21 24L20 24L20 21L22 21L22 20L19 20L19 19L20 19L20 18L18 18L18 19L17 19L17 18L16 18L16 19L17 19L17 20L18 20L18 21L17 21L17 23L18 23L18 24L16 24L16 23L15 23L15 22L16 22L16 21L15 21L15 14L16 14L16 15L18 15L18 17L21 17L21 19L22 19L22 18L23 18L23 19L24 19L24 20L26 20L26 19L27 19L27 23L26 23L26 22L25 22L25 21L23 21L23 22L21 22L21 23L24 23L24 24L25 24L25 25L24 25L24 26L25 26L25 25L26 25L26 26L28 26L28 27L26 27L26 28L24 28L24 29L26 29L26 30L28 30L28 29L29 29L29 28L28 28L28 27L29 27L29 26L28 26L28 25L29 25L29 24L27 24L27 23L28 23L28 21L29 21L29 22L30 22L30 24L31 24L31 25L32 25L32 26L33 26L33 25L34 25L34 24L35 24L35 26L34 26L34 27L32 27L32 28L31 28L31 27L30 27L30 28L31 28L31 29L32 29L32 30L30 30L30 31L28 31L28 33L29 33L29 35L30 35L30 37L33 37L33 38L32 38L32 39L33 39L33 38L35 38L35 37L34 37L34 36L36 36L36 37L37 37L37 38L36 38L36 39L34 39L34 40L35 40L35 41L38 41L38 40L39 40L39 39L40 39L40 40L41 40L41 37L40 37L40 36L42 36L42 38L43 38L43 36L42 36L42 34L43 34L43 33L44 33L44 34L45 34L45 35L44 35L44 36L45 36L45 35L47 35L47 34L45 34L45 33L49 33L49 34L48 34L48 35L49 35L49 34L50 34L50 33L51 33L51 34L52 34L52 32L53 32L53 29L54 29L54 30L56 30L56 29L55 29L55 28L54 28L54 26L55 26L55 27L56 27L56 25L54 25L54 23L52 23L52 24L53 24L53 26L52 26L52 25L51 25L51 24L48 24L48 26L46 26L46 25L44 25L44 24L45 24L45 23L48 23L48 22L50 22L50 23L51 23L51 22L50 22L50 21L49 21L49 20L50 20L50 19L52 19L52 20L53 20L53 22L55 22L55 21L54 21L54 20L55 20L55 19L52 19L52 18L53 18L53 17L51 17L51 15L52 15L52 16L54 16L54 18L56 18L56 19L57 19L57 18L56 18L56 17L57 17L57 16L56 16L56 14L55 14L55 13L51 13L51 14L50 14L50 12L48 12L48 13L47 13L47 12L46 12L46 13L47 13L47 14L45 14L45 13L44 13L44 14L45 14L45 15L44 15L44 16L45 16L45 15L47 15L47 14L48 14L48 13L49 13L49 14L50 14L50 15L49 15L49 16L47 16L47 18L44 18L44 17L42 17L42 16L41 16L41 15L39 15L39 16L38 16L38 17L39 17L39 16L41 16L41 17L42 17L42 18L43 18L43 19L42 19L42 20L43 20L43 21L42 21L42 22L43 22L43 21L44 21L44 22L45 22L45 23L44 23L44 24L43 24L43 25L42 25L42 26L43 26L43 25L44 25L44 26L45 26L45 27L44 27L44 28L45 28L45 27L46 27L46 29L48 29L48 30L46 30L46 31L47 31L47 32L45 32L45 30L43 30L43 29L42 29L42 27L40 27L40 25L39 25L39 24L41 24L41 23L40 23L40 22L41 22L41 21L39 21L39 19L40 19L40 20L41 20L41 19L40 19L40 18L36 18L36 17L37 17L37 16L35 16L35 14L33 14L33 15L32 15L32 14L31 14L31 15L29 15L29 14L30 14L30 12L31 12L31 11L30 11L30 12L29 12L29 11L28 11L28 9L29 9L29 8L28 8L28 7L29 7L29 5L28 5L28 4L29 4L29 3ZM17 5L17 6L18 6L18 5ZM31 5L31 8L34 8L34 5ZM43 5L43 6L42 6L42 8L43 8L43 6L44 6L44 8L45 8L45 10L46 10L46 11L47 11L47 10L46 10L46 9L47 9L47 8L48 8L48 9L49 9L49 8L48 8L48 7L49 7L49 5L48 5L48 7L47 7L47 5L46 5L46 7L45 7L45 6L44 6L44 5ZM9 6L9 7L10 7L10 8L11 8L11 7L12 7L12 6L11 6L11 7L10 7L10 6ZM27 6L27 7L28 7L28 6ZM32 6L32 7L33 7L33 6ZM36 6L36 7L37 7L37 6ZM40 6L40 7L39 7L39 8L41 8L41 6ZM56 6L56 7L57 7L57 6ZM26 8L26 9L27 9L27 8ZM1 9L1 10L2 10L2 9ZM34 9L34 10L35 10L35 9ZM39 9L39 10L38 10L38 11L39 11L39 14L40 14L40 12L41 12L41 14L43 14L43 13L42 13L42 12L45 12L45 11L44 11L44 10L43 10L43 9L42 9L42 10L40 10L40 9ZM22 10L22 11L23 11L23 12L24 12L24 11L25 11L25 14L26 14L26 16L24 16L24 15L23 15L23 14L24 14L24 13L23 13L23 14L22 14L22 15L23 15L23 16L21 16L21 17L25 17L25 18L24 18L24 19L25 19L25 18L26 18L26 17L27 17L27 18L31 18L31 19L32 19L32 17L33 17L33 16L34 16L34 18L35 18L35 16L34 16L34 15L33 15L33 16L29 16L29 15L28 15L28 16L27 16L27 14L29 14L29 13L28 13L28 11L27 11L27 12L26 12L26 10ZM39 10L39 11L40 11L40 10ZM42 10L42 11L43 11L43 10ZM34 11L34 12L35 12L35 11ZM54 11L54 12L55 12L55 11ZM62 11L62 12L63 12L63 11ZM56 12L56 13L57 13L57 12ZM8 13L8 14L5 14L5 15L8 15L8 14L9 14L9 13ZM26 13L26 14L27 14L27 13ZM52 14L52 15L53 15L53 14ZM54 14L54 16L55 16L55 17L56 17L56 16L55 16L55 14ZM59 15L59 16L61 16L61 17L60 17L60 18L62 18L62 16L61 16L61 15ZM6 16L6 17L7 17L7 16ZM28 16L28 17L29 17L29 16ZM8 17L8 18L9 18L9 17ZM48 17L48 18L47 18L47 19L46 19L46 20L44 20L44 21L45 21L45 22L48 22L48 20L49 20L49 19L48 19L48 18L49 18L49 17ZM50 17L50 18L51 18L51 17ZM6 18L6 19L7 19L7 18ZM13 18L13 19L14 19L14 18ZM28 19L28 20L29 20L29 21L30 21L30 22L31 22L31 20L29 20L29 19ZM34 19L34 20L35 20L35 21L33 21L33 20L32 20L32 23L33 23L33 24L32 24L32 25L33 25L33 24L34 24L34 23L33 23L33 22L35 22L35 24L37 24L37 25L36 25L36 26L35 26L35 28L32 28L32 29L33 29L33 30L35 30L35 29L36 29L36 28L37 28L37 29L38 29L38 30L37 30L37 31L36 31L36 32L37 32L37 33L35 33L35 35L36 35L36 36L37 36L37 37L38 37L38 38L40 38L40 37L38 37L38 36L39 36L39 35L36 35L36 34L41 34L41 33L43 33L43 32L42 32L42 31L43 31L43 30L42 30L42 29L41 29L41 28L39 28L39 27L36 27L36 26L37 26L37 25L38 25L38 26L39 26L39 25L38 25L38 24L39 24L39 23L38 23L38 22L39 22L39 21L38 21L38 19L36 19L36 20L35 20L35 19ZM64 19L64 20L62 20L62 21L63 21L63 22L62 22L62 23L63 23L63 22L65 22L65 21L64 21L64 20L65 20L65 19ZM2 20L2 22L4 22L4 23L5 23L5 21L3 21L3 20ZM36 20L36 21L37 21L37 20ZM46 20L46 21L47 21L47 20ZM7 22L7 23L8 23L8 24L9 24L9 23L8 23L8 22ZM18 22L18 23L19 23L19 22ZM24 22L24 23L25 23L25 22ZM10 23L10 24L11 24L11 23ZM58 23L58 24L59 24L59 23ZM64 23L64 24L65 24L65 23ZM15 24L15 25L16 25L16 26L17 26L17 27L18 27L18 26L17 26L17 25L16 25L16 24ZM26 24L26 25L27 25L27 24ZM22 25L22 27L23 27L23 25ZM50 25L50 26L48 26L48 28L50 28L50 30L48 30L48 32L49 32L49 33L50 33L50 32L51 32L51 31L50 31L50 30L51 30L51 27L52 27L52 26L51 26L51 25ZM50 26L50 27L51 27L51 26ZM58 26L58 28L59 28L59 29L61 29L61 28L59 28L59 27L60 27L60 26ZM6 27L6 28L7 28L7 27ZM26 28L26 29L27 29L27 28ZM38 28L38 29L39 29L39 30L38 30L38 33L39 33L39 32L41 32L41 31L40 31L40 30L41 30L41 29L39 29L39 28ZM52 28L52 29L53 29L53 28ZM0 30L0 32L1 32L1 31L2 31L2 30ZM18 30L18 31L19 31L19 30ZM5 31L5 34L8 34L8 31ZM23 31L23 33L21 33L21 34L20 34L20 37L18 37L18 36L15 36L15 38L16 38L16 39L17 39L17 40L16 40L16 41L17 41L17 40L18 40L18 41L19 41L19 42L20 42L20 41L21 41L21 40L22 40L22 39L21 39L21 38L22 38L22 37L23 37L23 39L25 39L25 41L24 41L24 40L23 40L23 41L22 41L22 43L21 43L21 44L22 44L22 43L23 43L23 41L24 41L24 42L25 42L25 43L24 43L24 44L23 44L23 45L22 45L22 46L21 46L21 47L22 47L22 46L23 46L23 47L24 47L24 48L26 48L26 47L27 47L27 48L28 48L28 49L30 49L30 50L28 50L28 53L29 53L29 52L32 52L32 53L33 53L33 52L35 52L35 51L36 51L36 50L37 50L37 49L38 49L38 48L36 48L36 50L35 50L35 51L33 51L33 50L32 50L32 49L34 49L34 48L35 48L35 47L34 47L34 46L36 46L36 47L37 47L37 46L38 46L38 47L39 47L39 48L41 48L41 47L42 47L42 48L43 48L43 47L42 47L42 46L44 46L44 44L45 44L45 45L47 45L47 46L45 46L45 47L44 47L44 48L45 48L45 49L47 49L47 48L45 48L45 47L48 47L48 46L49 46L49 44L51 44L51 42L50 42L50 39L51 39L51 41L52 41L52 40L53 40L53 39L52 39L52 38L50 38L50 36L48 36L48 38L49 38L49 40L47 40L47 38L46 38L46 40L45 40L45 37L44 37L44 39L42 39L42 40L43 40L43 41L40 41L40 44L41 44L41 43L42 43L42 44L43 44L43 45L40 45L40 47L39 47L39 46L38 46L38 44L39 44L39 42L38 42L38 44L35 44L35 43L34 43L34 41L33 41L33 40L32 40L32 41L31 41L31 39L30 39L30 38L25 38L25 37L29 37L29 36L27 36L27 33L26 33L26 32L27 32L27 31L26 31L26 32L25 32L25 33L24 33L24 31ZM31 31L31 34L34 34L34 31ZM54 31L54 32L55 32L55 31ZM57 31L57 34L60 34L60 31ZM6 32L6 33L7 33L7 32ZM29 32L29 33L30 33L30 32ZM32 32L32 33L33 33L33 32ZM44 32L44 33L45 33L45 32ZM58 32L58 33L59 33L59 32ZM3 33L3 34L4 34L4 33ZM13 33L13 35L14 35L14 34L15 34L15 33ZM21 34L21 35L22 35L22 34ZM23 34L23 36L24 36L24 37L25 37L25 36L26 36L26 35L25 35L25 34ZM24 35L24 36L25 36L25 35ZM31 35L31 36L33 36L33 35ZM59 35L59 36L58 36L58 37L59 37L59 36L60 36L60 37L61 37L61 36L60 36L60 35ZM62 35L62 36L63 36L63 35ZM21 36L21 37L20 37L20 38L21 38L21 37L22 37L22 36ZM16 37L16 38L17 38L17 39L18 39L18 40L19 40L19 41L20 41L20 40L21 40L21 39L19 39L19 38L18 38L18 37ZM10 38L10 39L14 39L14 38ZM2 39L2 41L3 41L3 39ZM28 39L28 40L26 40L26 41L28 41L28 42L30 42L30 43L29 43L29 44L31 44L31 46L30 46L30 45L27 45L27 44L26 44L26 43L27 43L27 42L26 42L26 43L25 43L25 44L26 44L26 45L25 45L25 46L26 46L26 45L27 45L27 46L30 46L30 47L28 47L28 48L30 48L30 49L31 49L31 48L32 48L32 46L34 46L34 45L32 45L32 44L33 44L33 43L31 43L31 42L30 42L30 41L28 41L28 40L30 40L30 39ZM36 39L36 40L37 40L37 39ZM6 40L6 41L7 41L7 40ZM44 40L44 41L45 41L45 40ZM46 40L46 42L47 42L47 43L46 43L46 44L47 44L47 45L48 45L48 44L49 44L49 43L48 43L48 42L47 42L47 40ZM32 41L32 42L33 42L33 41ZM2 42L2 43L3 43L3 42ZM17 42L17 43L18 43L18 45L20 45L20 43L18 43L18 42ZM36 42L36 43L37 43L37 42ZM42 42L42 43L43 43L43 44L44 44L44 43L43 43L43 42ZM60 43L60 44L61 44L61 43ZM62 44L62 45L65 45L65 44ZM23 45L23 46L24 46L24 45ZM36 45L36 46L37 46L37 45ZM17 46L17 48L16 48L16 47L14 47L14 48L12 48L12 49L14 49L14 48L15 48L15 49L21 49L21 50L20 50L20 51L22 51L22 50L23 50L23 51L24 51L24 50L25 50L25 49L24 49L24 50L23 50L23 49L21 49L21 48L18 48L18 47L20 47L20 46ZM30 47L30 48L31 48L31 47ZM49 47L49 48L48 48L48 49L49 49L49 48L50 48L50 47ZM26 49L26 50L27 50L27 49ZM54 49L54 50L55 50L55 49ZM13 50L13 51L14 51L14 50ZM15 50L15 52L16 52L16 53L17 53L17 54L18 54L18 55L19 55L19 54L20 54L20 55L21 55L21 54L20 54L20 53L22 53L22 52L19 52L19 50L18 50L18 51L17 51L17 50ZM30 50L30 51L31 51L31 50ZM16 51L16 52L17 52L17 53L18 53L18 52L17 52L17 51ZM25 51L25 52L26 52L26 51ZM40 51L40 52L41 52L41 51ZM62 51L62 52L63 52L63 51ZM36 52L36 54L35 54L35 53L34 53L34 54L35 54L35 55L36 55L36 54L38 54L38 55L37 55L37 56L41 56L41 55L42 55L42 57L41 57L41 58L43 58L43 59L44 59L44 60L45 60L45 59L44 59L44 58L45 58L45 57L44 57L44 56L43 56L43 55L42 55L42 54L43 54L43 53L41 53L41 54L40 54L40 53L39 53L39 52L38 52L38 53L37 53L37 52ZM23 53L23 54L26 54L26 53ZM38 53L38 54L39 54L39 55L40 55L40 54L39 54L39 53ZM62 53L62 54L61 54L61 55L60 55L60 56L61 56L61 60L63 60L63 59L62 59L62 58L63 58L63 57L64 57L64 56L63 56L63 53ZM52 54L52 55L53 55L53 56L54 56L54 57L53 57L53 58L52 58L52 59L53 59L53 60L54 60L54 61L55 61L55 60L56 60L56 59L55 59L55 58L56 58L56 56L57 56L57 55L56 55L56 54ZM23 55L23 56L24 56L24 55ZM26 55L26 56L25 56L25 57L26 57L26 56L27 56L27 55ZM29 55L29 56L30 56L30 55ZM54 55L54 56L56 56L56 55ZM11 56L11 57L12 57L12 56ZM62 56L62 57L63 57L63 56ZM31 57L31 60L34 60L34 57ZM54 57L54 58L55 58L55 57ZM57 57L57 60L60 60L60 57ZM16 58L16 59L17 59L17 58ZM32 58L32 59L33 59L33 58ZM46 58L46 59L47 59L47 61L49 61L49 60L48 60L48 59L47 59L47 58ZM58 58L58 59L59 59L59 58ZM28 59L28 60L30 60L30 59ZM18 60L18 61L19 61L19 60ZM34 61L34 62L35 62L35 61ZM58 61L58 62L59 62L59 61ZM60 61L60 62L61 62L61 63L62 63L62 64L63 64L63 63L62 63L62 62L63 62L63 61ZM21 62L21 63L22 63L22 62ZM32 62L32 63L33 63L33 62ZM45 63L45 64L46 64L46 63ZM25 64L25 65L26 65L26 64ZM36 64L36 65L37 65L37 64ZM38 64L38 65L39 65L39 64ZM0 0L0 7L7 7L7 0ZM1 1L1 6L6 6L6 1ZM2 2L2 5L5 5L5 2ZM58 0L58 7L65 7L65 0ZM59 1L59 6L64 6L64 1ZM60 2L60 5L63 5L63 2ZM0 58L0 65L7 65L7 58ZM1 59L1 64L6 64L6 59ZM2 60L2 63L5 63L5 60Z" fill="#000000"/></g></g></svg>
