<?xml version="1.0" encoding="UTF-8"?>
<svg xmlns="http://www.w3.org/2000/svg" version="1.1" width="300" height="300" viewBox="0 0 300 300"><rect x="0" y="0" width="300" height="300" fill="#ffffff"/><g transform="scale(4.615)"><g transform="translate(0,0)"><path fill-rule="evenodd" d="M9 0L9 1L8 1L8 2L9 2L9 1L11 1L11 3L12 3L12 7L11 7L11 6L10 6L10 5L8 5L8 7L9 7L9 6L10 6L10 7L11 7L11 8L12 8L12 7L13 7L13 5L14 5L14 7L15 7L15 8L14 8L14 9L16 9L16 11L15 11L15 10L14 10L14 11L15 11L15 12L14 12L14 14L13 14L13 13L12 13L12 16L10 16L10 17L9 17L9 18L6 18L6 17L8 17L8 16L9 16L9 15L11 15L11 12L13 12L13 10L12 10L12 9L11 9L11 10L12 10L12 11L11 11L11 12L10 12L10 10L9 10L9 9L10 9L10 8L6 8L6 9L8 9L8 10L9 10L9 11L8 11L8 12L6 12L6 11L7 11L7 10L5 10L5 8L0 8L0 11L1 11L1 12L2 12L2 13L0 13L0 16L1 16L1 17L0 17L0 22L1 22L1 23L0 23L0 24L1 24L1 23L2 23L2 24L4 24L4 26L2 26L2 25L0 25L0 26L1 26L1 27L0 27L0 29L1 29L1 28L3 28L3 29L2 29L2 30L3 30L3 29L4 29L4 26L5 26L5 25L7 25L7 26L6 26L6 27L5 27L5 30L4 30L4 31L3 31L3 32L2 32L2 31L1 31L1 30L0 30L0 33L2 33L2 34L3 34L3 37L2 37L2 35L0 35L0 36L1 36L1 38L2 38L2 39L0 39L0 41L2 41L2 43L1 43L1 42L0 42L0 43L1 43L1 45L0 45L0 46L1 46L1 47L2 47L2 46L1 46L1 45L3 45L3 47L4 47L4 48L6 48L6 49L7 49L7 48L6 48L6 47L7 47L7 46L6 46L6 45L7 45L7 44L6 44L6 45L5 45L5 44L4 44L4 43L5 43L5 42L3 42L3 40L4 40L4 41L8 41L8 40L10 40L10 41L12 41L12 40L11 40L11 37L13 37L13 39L14 39L14 41L13 41L13 42L15 42L15 41L17 41L17 42L16 42L16 43L15 43L15 44L16 44L16 43L17 43L17 45L20 45L20 44L19 44L19 43L21 43L21 42L22 42L22 43L23 43L23 42L27 42L27 43L26 43L26 44L25 44L25 43L24 43L24 44L23 44L23 45L22 45L22 44L21 44L21 47L22 47L22 46L23 46L23 47L24 47L24 48L26 48L26 47L27 47L27 45L26 45L26 44L27 44L27 43L28 43L28 45L30 45L30 46L28 46L28 47L29 47L29 48L27 48L27 49L26 49L26 50L27 50L27 49L29 49L29 48L31 48L31 43L32 43L32 45L33 45L33 44L34 44L34 45L36 45L36 46L35 46L35 47L34 47L34 46L32 46L32 49L30 49L30 50L29 50L29 52L27 52L27 53L29 53L29 52L30 52L30 53L31 53L31 55L30 55L30 54L28 54L28 55L30 55L30 57L29 57L29 56L27 56L27 55L26 55L26 53L23 53L23 54L22 54L22 56L23 56L23 57L21 57L21 54L19 54L19 50L18 50L18 51L17 51L17 50L15 50L15 49L21 49L21 50L20 50L20 51L22 51L22 50L23 50L23 51L24 51L24 50L25 50L25 49L24 49L24 50L23 50L23 49L21 49L21 48L18 48L18 47L20 47L20 46L17 46L17 48L16 48L16 47L15 47L15 46L16 46L16 45L14 45L14 44L13 44L13 46L14 46L14 47L12 47L12 45L11 45L11 43L12 43L12 42L11 42L11 43L10 43L10 42L9 42L9 43L8 43L8 42L6 42L6 43L8 43L8 44L9 44L9 45L8 45L8 46L11 46L11 47L10 47L10 49L14 49L14 50L12 50L12 51L11 51L11 50L10 50L10 53L9 53L9 54L8 54L8 55L10 55L10 57L8 57L8 59L9 59L9 58L11 58L11 59L12 59L12 58L11 58L11 57L13 57L13 58L15 58L15 59L13 59L13 61L14 61L14 62L11 62L11 61L12 61L12 60L10 60L10 63L9 63L9 60L8 60L8 65L9 65L9 64L10 64L10 63L11 63L11 65L14 65L14 64L12 64L12 63L14 63L14 62L15 62L15 63L16 63L16 65L19 65L19 64L20 64L20 65L22 65L22 63L23 63L23 65L24 65L24 63L23 63L23 62L24 62L24 61L25 61L25 63L27 63L27 61L29 61L29 62L28 62L28 64L27 64L27 65L33 65L33 64L34 64L34 65L35 65L35 64L34 64L34 63L35 63L35 62L36 62L36 63L37 63L37 62L38 62L38 63L40 63L40 64L41 64L41 65L44 65L44 64L45 64L45 65L49 65L49 64L47 64L47 63L48 63L48 62L49 62L49 63L51 63L51 62L52 62L52 60L53 60L53 59L54 59L54 60L55 60L55 61L53 61L53 63L52 63L52 64L50 64L50 65L52 65L52 64L53 64L53 63L54 63L54 64L55 64L55 63L56 63L56 64L57 64L57 65L61 65L61 64L62 64L62 65L63 65L63 64L64 64L64 61L63 61L63 60L62 60L62 61L61 61L61 58L62 58L62 57L63 57L63 56L61 56L61 53L60 53L60 55L57 55L57 54L59 54L59 53L58 53L58 52L59 52L59 51L58 51L58 50L59 50L59 49L60 49L60 50L61 50L61 51L60 51L60 52L62 52L62 55L64 55L64 56L65 56L65 55L64 55L64 54L65 54L65 51L64 51L64 50L65 50L65 49L64 49L64 48L62 48L62 47L63 47L63 45L64 45L64 44L65 44L65 43L63 43L63 42L65 42L65 40L64 40L64 38L65 38L65 37L64 37L64 36L65 36L65 35L63 35L63 34L62 34L62 35L61 35L61 32L62 32L62 33L64 33L64 34L65 34L65 32L62 32L62 31L63 31L63 30L58 30L58 28L59 28L59 26L58 26L58 28L56 28L56 25L58 25L58 24L59 24L59 25L61 25L61 26L60 26L60 27L61 27L61 28L60 28L60 29L65 29L65 28L62 28L62 27L63 27L63 26L65 26L65 25L64 25L64 24L65 24L65 23L63 23L63 24L62 24L62 25L61 25L61 24L60 24L60 23L59 23L59 22L63 22L63 20L64 20L64 19L63 19L63 18L65 18L65 15L64 15L64 16L62 16L62 14L60 14L60 15L59 15L59 14L56 14L56 13L57 13L57 12L58 12L58 11L59 11L59 13L61 13L61 12L62 12L62 13L64 13L64 14L65 14L65 13L64 13L64 12L62 12L62 11L63 11L63 10L65 10L65 9L64 9L64 8L63 8L63 10L62 10L62 8L61 8L61 9L60 9L60 8L59 8L59 10L58 10L58 8L56 8L56 9L51 9L51 10L50 10L50 11L52 11L52 12L53 12L53 13L51 13L51 14L50 14L50 12L48 12L48 11L47 11L47 10L49 10L49 9L50 9L50 8L51 8L51 6L52 6L52 8L53 8L53 6L54 6L54 8L55 8L55 5L54 5L54 4L56 4L56 5L57 5L57 4L56 4L56 3L57 3L57 1L56 1L56 0L55 0L55 1L56 1L56 3L55 3L55 2L54 2L54 3L53 3L53 1L54 1L54 0L53 0L53 1L52 1L52 0L51 0L51 1L50 1L50 2L51 2L51 3L50 3L50 4L49 4L49 3L47 3L47 1L46 1L46 2L45 2L45 1L43 1L43 0L41 0L41 1L40 1L40 0L39 0L39 1L38 1L38 2L37 2L37 3L36 3L36 0L35 0L35 1L34 1L34 3L33 3L33 2L32 2L32 3L31 3L31 4L30 4L30 7L29 7L29 6L28 6L28 4L29 4L29 3L27 3L27 6L26 6L26 7L25 7L25 5L26 5L26 2L28 2L28 1L27 1L27 0L26 0L26 1L25 1L25 0L22 0L22 2L21 2L21 3L19 3L19 4L18 4L18 3L15 3L15 2L16 2L16 1L17 1L17 2L18 2L18 1L17 1L17 0L16 0L16 1L15 1L15 0L13 0L13 1L15 1L15 2L12 2L12 0ZM29 0L29 1L33 1L33 0ZM39 1L39 2L38 2L38 3L37 3L37 4L36 4L36 3L35 3L35 8L37 8L37 9L36 9L36 10L35 10L35 9L34 9L34 10L35 10L35 11L33 11L33 10L32 10L32 9L31 9L31 12L30 12L30 10L29 10L29 9L28 9L28 8L29 8L29 7L28 7L28 6L27 6L27 8L24 8L24 9L23 9L23 8L22 8L22 9L23 9L23 10L22 10L22 11L23 11L23 12L22 12L22 13L23 13L23 14L22 14L22 15L23 15L23 16L21 16L21 11L20 11L20 10L21 10L21 9L20 9L20 8L21 8L21 7L22 7L22 6L21 6L21 4L22 4L22 5L23 5L23 4L22 4L22 3L21 3L21 4L20 4L20 6L19 6L19 7L18 7L18 4L15 4L15 3L13 3L13 4L14 4L14 5L15 5L15 7L16 7L16 6L17 6L17 8L19 8L19 9L18 9L18 10L17 10L17 12L20 12L20 13L16 13L16 12L15 12L15 13L16 13L16 14L14 14L14 16L15 16L15 15L17 15L17 16L16 16L16 17L14 17L14 18L13 18L13 16L12 16L12 17L11 17L11 18L12 18L12 19L13 19L13 20L12 20L12 21L14 21L14 22L15 22L15 23L16 23L16 24L14 24L14 23L13 23L13 24L11 24L11 25L8 25L8 27L6 27L6 28L7 28L7 29L6 29L6 30L8 30L8 29L9 29L9 28L8 28L8 27L9 27L9 26L13 26L13 27L12 27L12 28L11 28L11 27L10 27L10 28L11 28L11 29L10 29L10 30L14 30L14 32L16 32L16 31L15 31L15 30L16 30L16 29L17 29L17 32L19 32L19 31L20 31L20 30L19 30L19 29L21 29L21 30L22 30L22 29L24 29L24 30L23 30L23 31L21 31L21 33L18 33L18 35L17 35L17 33L16 33L16 35L15 35L15 34L14 34L14 33L13 33L13 34L14 34L14 35L12 35L12 36L13 36L13 37L14 37L14 35L15 35L15 37L16 37L16 38L18 38L18 39L17 39L17 40L18 40L18 39L19 39L19 41L18 41L18 42L17 42L17 43L18 43L18 42L19 42L19 41L20 41L20 42L21 42L21 41L25 41L25 40L26 40L26 41L27 41L27 40L28 40L28 38L30 38L30 39L33 39L33 37L34 37L34 39L35 39L35 40L33 40L33 41L32 41L32 40L29 40L29 41L28 41L28 43L29 43L29 42L30 42L30 41L31 41L31 42L33 42L33 41L34 41L34 43L35 43L35 44L37 44L37 45L38 45L38 46L36 46L36 47L35 47L35 49L32 49L32 50L33 50L33 51L32 51L32 52L31 52L31 53L32 53L32 55L31 55L31 56L34 56L34 55L36 55L36 56L37 56L37 55L38 55L38 54L39 54L39 55L40 55L40 54L41 54L41 56L40 56L40 57L41 57L41 58L42 58L42 59L41 59L41 60L40 60L40 59L39 59L39 60L38 60L38 58L39 58L39 56L38 56L38 57L37 57L37 58L36 58L36 57L35 57L35 58L36 58L36 59L35 59L35 60L38 60L38 62L39 62L39 61L43 61L43 62L42 62L42 63L43 63L43 64L44 64L44 63L45 63L45 64L46 64L46 62L48 62L48 60L49 60L49 62L51 62L51 61L50 61L50 59L48 59L48 58L49 58L49 57L50 57L50 58L51 58L51 59L53 59L53 57L55 57L55 58L54 58L54 59L55 59L55 60L56 60L56 59L55 59L55 58L56 58L56 56L57 56L57 55L56 55L56 53L57 53L57 52L58 52L58 51L57 51L57 49L56 49L56 48L55 48L55 47L57 47L57 46L58 46L58 47L59 47L59 46L60 46L60 45L61 45L61 46L62 46L62 44L63 44L63 43L62 43L62 42L63 42L63 41L64 41L64 40L63 40L63 39L62 39L62 38L63 38L63 37L61 37L61 35L59 35L59 38L58 38L58 36L57 36L57 35L56 35L56 36L55 36L55 34L56 34L56 33L55 33L55 34L53 34L53 32L54 32L54 31L55 31L55 32L56 32L56 30L57 30L57 29L56 29L56 28L55 28L55 26L53 26L53 24L52 24L52 25L51 25L51 24L49 24L49 23L48 23L48 22L49 22L49 21L45 21L45 20L44 20L44 21L45 21L45 22L42 22L42 21L43 21L43 18L42 18L42 17L44 17L44 18L45 18L45 19L46 19L46 20L47 20L47 19L48 19L48 20L50 20L50 22L51 22L51 21L53 21L53 20L50 20L50 19L49 19L49 17L50 17L50 18L52 18L52 19L55 19L55 20L54 20L54 21L55 21L55 22L52 22L52 23L57 23L57 24L58 24L58 23L57 23L57 22L59 22L59 21L56 21L56 18L59 18L59 19L57 19L57 20L61 20L61 21L62 21L62 20L63 20L63 19L60 19L60 18L62 18L62 16L61 16L61 15L60 15L60 16L61 16L61 17L58 17L58 16L59 16L59 15L56 15L56 14L54 14L54 13L53 13L53 14L52 14L52 15L53 15L53 16L52 16L52 17L50 17L50 16L51 16L51 15L50 15L50 14L48 14L48 13L46 13L46 11L45 11L45 10L47 10L47 8L49 8L49 7L50 7L50 5L53 5L53 3L51 3L51 4L50 4L50 5L49 5L49 4L48 4L48 5L49 5L49 7L48 7L48 6L47 6L47 7L46 7L46 6L45 6L45 4L46 4L46 5L47 5L47 4L46 4L46 3L44 3L44 2L43 2L43 1L42 1L42 2L41 2L41 3L40 3L40 1ZM48 1L48 2L49 2L49 1ZM51 1L51 2L52 2L52 1ZM42 2L42 3L43 3L43 4L42 4L42 5L41 5L41 4L39 4L39 5L38 5L38 7L39 7L39 6L40 6L40 8L41 8L41 9L40 9L40 11L39 11L39 10L38 10L38 9L39 9L39 8L38 8L38 9L37 9L37 10L36 10L36 11L37 11L37 10L38 10L38 11L39 11L39 12L35 12L35 14L34 14L34 15L31 15L31 14L27 14L27 13L25 13L25 11L24 11L24 12L23 12L23 13L24 13L24 14L23 14L23 15L24 15L24 16L26 16L26 14L27 14L27 16L28 16L28 17L29 17L29 19L27 19L27 17L26 17L26 18L25 18L25 17L21 17L21 16L19 16L19 15L20 15L20 14L19 14L19 15L18 15L18 14L17 14L17 15L18 15L18 17L21 17L21 19L22 19L22 18L23 18L23 19L24 19L24 20L26 20L26 19L27 19L27 21L29 21L29 22L25 22L25 21L23 21L23 23L22 23L22 22L20 22L20 21L22 21L22 20L20 20L20 21L19 21L19 19L20 19L20 18L18 18L18 19L17 19L17 17L16 17L16 18L15 18L15 20L16 20L16 19L17 19L17 20L18 20L18 21L17 21L17 24L16 24L16 25L14 25L14 27L13 27L13 28L15 28L15 29L16 29L16 27L17 27L17 29L19 29L19 28L20 28L20 25L21 25L21 24L24 24L24 23L27 23L27 24L28 24L28 25L26 25L26 28L27 28L27 29L26 29L26 30L28 30L28 29L29 29L29 31L26 31L26 32L25 32L25 33L24 33L24 31L23 31L23 33L21 33L21 34L20 34L20 36L19 36L19 37L18 37L18 36L16 36L16 37L18 37L18 38L20 38L20 39L22 39L22 40L24 40L24 39L25 39L25 37L27 37L27 35L28 35L28 37L30 37L30 38L31 38L31 36L32 36L32 37L33 37L33 36L34 36L34 37L35 37L35 33L37 33L37 32L36 32L36 31L35 31L35 30L37 30L37 31L38 31L38 33L39 33L39 32L41 32L41 30L44 30L44 28L45 28L45 29L47 29L47 30L45 30L45 31L42 31L42 32L43 32L43 33L41 33L41 34L36 34L36 35L38 35L38 37L39 37L39 38L38 38L38 39L39 39L39 38L40 38L40 40L42 40L42 42L43 42L43 43L40 43L40 42L41 42L41 41L39 41L39 40L38 40L38 41L37 41L37 40L36 40L36 41L35 41L35 42L36 42L36 41L37 41L37 43L39 43L39 44L38 44L38 45L39 45L39 44L42 44L42 46L44 46L44 48L45 48L45 47L46 47L46 49L47 49L47 46L46 46L46 44L45 44L45 42L46 42L46 43L47 43L47 45L49 45L49 44L48 44L48 43L49 43L49 41L51 41L51 42L50 42L50 43L51 43L51 42L52 42L52 44L50 44L50 45L51 45L51 46L48 46L48 47L49 47L49 48L48 48L48 50L45 50L45 49L42 49L42 48L43 48L43 47L42 47L42 48L41 48L41 47L39 47L39 46L38 46L38 47L39 47L39 48L41 48L41 49L39 49L39 50L37 50L37 49L38 49L38 48L36 48L36 50L35 50L35 51L33 51L33 52L32 52L32 53L33 53L33 54L36 54L36 55L37 55L37 54L38 54L38 53L40 53L40 52L42 52L42 54L43 54L43 52L42 52L42 51L40 51L40 50L43 50L43 51L44 51L44 52L45 52L45 51L51 51L51 52L53 52L53 49L52 49L52 48L54 48L54 50L55 50L55 51L54 51L54 52L56 52L56 50L55 50L55 48L54 48L54 47L52 47L52 46L53 46L53 45L54 45L54 46L56 46L56 45L58 45L58 46L59 46L59 43L55 43L55 44L56 44L56 45L54 45L54 44L53 44L53 42L55 42L55 40L56 40L56 41L58 41L58 40L60 40L60 39L61 39L61 37L60 37L60 39L58 39L58 40L56 40L56 39L54 39L54 38L56 38L56 37L54 37L54 35L52 35L52 34L50 34L50 33L52 33L52 32L53 32L53 31L54 31L54 30L55 30L55 28L54 28L54 27L51 27L51 26L50 26L50 25L49 25L49 24L47 24L47 22L46 22L46 24L45 24L45 23L42 23L42 22L41 22L41 21L40 21L40 20L41 20L41 19L40 19L40 18L36 18L36 17L37 17L37 16L35 16L35 15L37 15L37 14L38 14L38 15L39 15L39 16L38 16L38 17L39 17L39 16L41 16L41 17L42 17L42 16L41 16L41 15L40 15L40 14L43 14L43 15L44 15L44 16L45 16L45 14L43 14L43 11L44 11L44 12L45 12L45 11L44 11L44 10L45 10L45 9L44 9L44 8L46 8L46 7L45 7L45 6L44 6L44 8L43 8L43 9L42 9L42 7L43 7L43 6L42 6L42 5L43 5L43 4L44 4L44 3L43 3L43 2ZM8 3L8 4L10 4L10 3ZM24 3L24 4L25 4L25 3ZM32 3L32 4L33 4L33 3ZM31 5L31 8L34 8L34 5ZM40 5L40 6L41 6L41 7L42 7L42 6L41 6L41 5ZM20 6L20 7L19 7L19 8L20 8L20 7L21 7L21 6ZM23 6L23 7L24 7L24 6ZM32 6L32 7L33 7L33 6ZM36 6L36 7L37 7L37 6ZM56 6L56 7L57 7L57 6ZM1 9L1 11L2 11L2 12L4 12L4 11L5 11L5 10L4 10L4 11L3 11L3 10L2 10L2 9ZM24 9L24 10L25 10L25 9ZM26 9L26 10L27 10L27 11L26 11L26 12L28 12L28 13L29 13L29 10L28 10L28 9ZM56 9L56 10L52 10L52 11L54 11L54 12L57 12L57 11L56 11L56 10L57 10L57 9ZM18 10L18 11L19 11L19 10ZM42 10L42 11L43 11L43 10ZM60 10L60 12L61 12L61 10ZM32 11L32 12L31 12L31 13L32 13L32 14L33 14L33 13L32 13L32 12L33 12L33 11ZM5 12L5 13L6 13L6 14L9 14L9 13L6 13L6 12ZM39 12L39 13L38 13L38 14L39 14L39 13L41 13L41 12ZM2 13L2 14L1 14L1 16L2 16L2 17L1 17L1 18L5 18L5 16L2 16L2 15L4 15L4 13ZM46 14L46 15L48 15L48 14ZM6 15L6 16L8 16L8 15ZM28 15L28 16L29 16L29 17L31 17L31 19L33 19L33 18L32 18L32 17L34 17L34 18L35 18L35 16L29 16L29 15ZM46 16L46 17L47 17L47 16ZM48 16L48 17L49 17L49 16ZM53 16L53 18L55 18L55 16ZM56 16L56 17L57 17L57 16ZM9 18L9 19L8 19L8 20L7 20L7 19L1 19L1 20L2 20L2 21L1 21L1 22L2 22L2 21L3 21L3 22L4 22L4 21L5 21L5 22L7 22L7 23L6 23L6 24L7 24L7 23L8 23L8 24L9 24L9 23L10 23L10 22L11 22L11 21L10 21L10 20L9 20L9 19L10 19L10 18ZM24 18L24 19L25 19L25 18ZM46 18L46 19L47 19L47 18ZM34 19L34 20L35 20L35 21L33 21L33 20L32 20L32 21L31 21L31 20L30 20L30 21L31 21L31 22L29 22L29 23L28 23L28 24L29 24L29 25L28 25L28 26L29 26L29 27L28 27L28 28L30 28L30 30L31 30L31 28L30 28L30 27L34 27L34 28L37 28L37 27L38 27L38 30L39 30L39 31L40 31L40 29L43 29L43 28L44 28L44 27L45 27L45 26L44 26L44 25L45 25L45 24L44 24L44 25L43 25L43 24L42 24L42 23L41 23L41 24L39 24L39 23L38 23L38 24L37 24L37 23L36 23L36 22L40 22L40 21L38 21L38 20L39 20L39 19L36 19L36 20L35 20L35 19ZM6 20L6 21L7 21L7 20ZM36 20L36 21L37 21L37 20ZM9 21L9 22L10 22L10 21ZM15 21L15 22L16 22L16 21ZM32 21L32 22L33 22L33 23L32 23L32 24L31 24L31 23L30 23L30 24L31 24L31 25L30 25L30 26L31 26L31 25L32 25L32 26L33 26L33 25L37 25L37 24L36 24L36 23L35 23L35 22L33 22L33 21ZM64 21L64 22L65 22L65 21ZM18 22L18 23L19 23L19 24L21 24L21 23L19 23L19 22ZM34 23L34 24L35 24L35 23ZM17 24L17 25L16 25L16 26L17 26L17 27L19 27L19 25L18 25L18 24ZM32 24L32 25L33 25L33 24ZM46 24L46 26L47 26L47 27L46 27L46 28L47 28L47 29L48 29L48 28L49 28L49 30L48 30L48 32L47 32L47 31L46 31L46 32L47 32L47 33L45 33L45 32L44 32L44 33L43 33L43 34L42 34L42 35L41 35L41 36L40 36L40 35L39 35L39 37L40 37L40 38L41 38L41 39L43 39L43 42L45 42L45 40L44 40L44 39L45 39L45 38L48 38L48 40L50 40L50 38L51 38L51 39L53 39L53 36L52 36L52 35L50 35L50 34L49 34L49 33L48 33L48 32L49 32L49 31L50 31L50 32L52 32L52 31L50 31L50 30L51 30L51 28L49 28L49 27L48 27L48 26L49 26L49 25L47 25L47 24ZM54 24L54 25L55 25L55 24ZM22 25L22 26L21 26L21 28L24 28L24 29L25 29L25 25L24 25L24 27L22 27L22 26L23 26L23 25ZM40 25L40 26L43 26L43 25ZM34 26L34 27L35 27L35 26ZM36 26L36 27L37 27L37 26ZM38 26L38 27L39 27L39 26ZM40 27L40 28L42 28L42 27ZM32 28L32 29L33 29L33 30L35 30L35 29L33 29L33 28ZM52 28L52 29L54 29L54 28ZM18 30L18 31L19 31L19 30ZM5 31L5 34L8 34L8 31ZM9 31L9 33L10 33L10 34L9 34L9 36L7 36L7 35L6 35L6 36L4 36L4 38L3 38L3 39L4 39L4 40L8 40L8 39L10 39L10 37L11 37L11 36L10 36L10 35L11 35L11 33L12 33L12 31ZM31 31L31 34L34 34L34 31ZM57 31L57 34L60 34L60 31ZM6 32L6 33L7 33L7 32ZM26 32L26 33L27 33L27 34L28 34L28 35L29 35L29 36L30 36L30 35L29 35L29 33L30 33L30 32L29 32L29 33L27 33L27 32ZM32 32L32 33L33 33L33 32ZM58 32L58 33L59 33L59 32ZM3 33L3 34L4 34L4 33ZM44 33L44 34L45 34L45 35L42 35L42 36L43 36L43 37L42 37L42 38L43 38L43 37L44 37L44 38L45 38L45 37L44 37L44 36L46 36L46 37L47 37L47 36L46 36L46 35L47 35L47 34L45 34L45 33ZM21 34L21 35L22 35L22 34ZM23 34L23 37L22 37L22 36L21 36L21 37L20 37L20 38L21 38L21 37L22 37L22 39L23 39L23 37L25 37L25 36L26 36L26 35L25 35L25 34ZM48 34L48 35L49 35L49 36L48 36L48 38L50 38L50 37L51 37L51 36L50 36L50 35L49 35L49 34ZM24 35L24 36L25 36L25 35ZM62 35L62 36L63 36L63 35ZM6 36L6 37L5 37L5 38L4 38L4 39L5 39L5 38L6 38L6 39L7 39L7 38L8 38L8 37L7 37L7 36ZM36 36L36 38L35 38L35 39L36 39L36 38L37 38L37 36ZM49 36L49 37L50 37L50 36ZM6 37L6 38L7 38L7 37ZM26 39L26 40L27 40L27 39ZM46 39L46 40L47 40L47 39ZM20 40L20 41L21 41L21 40ZM51 40L51 41L52 41L52 42L53 42L53 40ZM61 40L61 41L59 41L59 42L61 42L61 41L63 41L63 40ZM38 41L38 42L39 42L39 41ZM46 41L46 42L47 42L47 41ZM2 43L2 44L3 44L3 43ZM43 43L43 44L44 44L44 46L45 46L45 44L44 44L44 43ZM60 43L60 44L62 44L62 43ZM52 44L52 45L53 45L53 44ZM23 45L23 46L24 46L24 45ZM40 45L40 46L41 46L41 45ZM4 46L4 47L6 47L6 46ZM8 47L8 50L4 50L4 49L3 49L3 48L2 48L2 49L0 49L0 50L2 50L2 49L3 49L3 51L4 51L4 52L3 52L3 53L4 53L4 52L5 52L5 51L7 51L7 52L6 52L6 53L5 53L5 55L7 55L7 54L6 54L6 53L8 53L8 51L9 51L9 47ZM11 47L11 48L12 48L12 47ZM14 47L14 48L15 48L15 47ZM51 47L51 48L52 48L52 47ZM58 48L58 49L59 49L59 48ZM60 48L60 49L61 49L61 50L63 50L63 49L62 49L62 48ZM50 49L50 50L51 50L51 49ZM30 50L30 51L31 51L31 50ZM36 50L36 51L35 51L35 52L34 52L34 53L35 53L35 52L37 52L37 53L38 53L38 52L39 52L39 51L37 51L37 50ZM44 50L44 51L45 51L45 50ZM1 51L1 53L0 53L0 54L2 54L2 55L3 55L3 56L1 56L1 55L0 55L0 56L1 56L1 57L3 57L3 56L4 56L4 57L5 57L5 56L4 56L4 54L2 54L2 51ZM13 51L13 52L11 52L11 53L10 53L10 54L12 54L12 56L13 56L13 55L14 55L14 57L15 57L15 58L18 58L18 59L16 59L16 61L15 61L15 62L16 62L16 61L17 61L17 62L18 62L18 64L19 64L19 63L20 63L20 62L19 62L19 61L21 61L21 63L22 63L22 61L24 61L24 60L25 60L25 59L28 59L28 60L30 60L30 58L29 58L29 57L27 57L27 56L26 56L26 57L25 57L25 56L24 56L24 57L25 57L25 58L24 58L24 60L23 60L23 59L22 59L22 58L21 58L21 57L20 57L20 55L19 55L19 54L17 54L17 53L18 53L18 52L17 52L17 51L16 51L16 52L14 52L14 51ZM25 51L25 52L26 52L26 51ZM62 51L62 52L63 52L63 51ZM13 52L13 53L14 53L14 54L15 54L15 56L16 56L16 57L17 57L17 56L18 56L18 57L19 57L19 59L18 59L18 61L19 61L19 59L21 59L21 60L22 60L22 59L21 59L21 58L20 58L20 57L19 57L19 56L18 56L18 55L17 55L17 54L16 54L16 53L17 53L17 52L16 52L16 53L14 53L14 52ZM20 52L20 53L22 53L22 52ZM48 52L48 54L50 54L50 55L51 55L51 56L50 56L50 57L51 57L51 58L52 58L52 57L51 57L51 56L54 56L54 55L52 55L52 54L55 54L55 53L52 53L52 54L50 54L50 52ZM44 53L44 56L45 56L45 58L46 58L46 59L44 59L44 57L42 57L42 58L43 58L43 59L42 59L42 60L43 60L43 61L44 61L44 62L46 62L46 61L47 61L47 60L46 60L46 59L47 59L47 58L48 58L48 57L49 57L49 56L47 56L47 54L46 54L46 55L45 55L45 53ZM16 55L16 56L17 56L17 55ZM42 55L42 56L43 56L43 55ZM55 55L55 56L56 56L56 55ZM6 56L6 57L7 57L7 56ZM26 57L26 58L27 58L27 57ZM31 57L31 60L34 60L34 57ZM46 57L46 58L47 58L47 57ZM57 57L57 60L60 60L60 57ZM64 57L64 58L65 58L65 57ZM32 58L32 59L33 59L33 58ZM58 58L58 59L59 59L59 58ZM43 59L43 60L44 60L44 61L45 61L45 60L44 60L44 59ZM26 60L26 61L27 61L27 60ZM30 61L30 62L29 62L29 64L33 64L33 62L32 62L32 63L30 63L30 62L31 62L31 61ZM34 61L34 62L35 62L35 61ZM57 61L57 62L56 62L56 63L57 63L57 64L59 64L59 62L58 62L58 61ZM60 61L60 62L61 62L61 63L62 63L62 64L63 64L63 62L61 62L61 61ZM40 62L40 63L41 63L41 62ZM54 62L54 63L55 63L55 62ZM57 62L57 63L58 63L58 62ZM25 64L25 65L26 65L26 64ZM36 64L36 65L37 65L37 64ZM38 64L38 65L39 65L39 64ZM0 0L0 7L7 7L7 0ZM1 1L1 6L6 6L6 1ZM2 2L2 5L5 5L5 2ZM58 0L58 7L65 7L65 0ZM59 1L59 6L64 6L64 1ZM60 2L60 5L63 5L63 2ZM0 58L0 65L7 65L7 58ZM1 59L1 64L6 64L6 59ZM2 60L2 63L5 63L5 60Z" fill="#000000"/></g></g></svg>
