<?xml version="1.0" encoding="UTF-8"?>
<svg xmlns="http://www.w3.org/2000/svg" version="1.1" width="300" height="300" viewBox="0 0 300 300"><rect x="0" y="0" width="300" height="300" fill="#ffffff"/><g transform="scale(4.615)"><g transform="translate(0,0)"><path fill-rule="evenodd" d="M9 0L9 1L8 1L8 2L9 2L9 3L8 3L8 4L9 4L9 5L8 5L8 7L9 7L9 8L6 8L6 9L7 9L7 10L6 10L6 11L7 11L7 12L6 12L6 13L7 13L7 14L5 14L5 12L4 12L4 13L3 13L3 11L5 11L5 8L0 8L0 9L3 9L3 10L0 10L0 13L1 13L1 14L0 14L0 19L1 19L1 21L0 21L0 24L1 24L1 23L2 23L2 25L0 25L0 29L2 29L2 30L0 30L0 31L2 31L2 30L4 30L4 31L3 31L3 32L4 32L4 33L2 33L2 32L0 32L0 38L1 38L1 39L2 39L2 38L3 38L3 40L4 40L4 38L5 38L5 37L8 37L8 38L6 38L6 39L5 39L5 41L2 41L2 42L0 42L0 44L1 44L1 46L2 46L2 47L1 47L1 48L2 48L2 49L0 49L0 52L2 52L2 55L3 55L3 56L1 56L1 55L0 55L0 56L1 56L1 57L3 57L3 56L4 56L4 57L5 57L5 56L4 56L4 54L5 54L5 55L7 55L7 54L6 54L6 53L8 53L8 54L9 54L9 52L8 52L8 50L10 50L10 49L13 49L13 47L15 47L15 48L14 48L14 50L15 50L15 48L16 48L16 49L17 49L17 50L16 50L16 53L15 53L15 57L14 57L14 58L13 58L13 59L15 59L15 60L12 60L12 61L11 61L11 60L8 60L8 65L9 65L9 64L10 64L10 65L12 65L12 64L15 64L15 65L19 65L19 64L20 64L20 65L21 65L21 63L22 63L22 62L24 62L24 61L25 61L25 64L26 64L26 63L27 63L27 61L26 61L26 60L25 60L25 59L24 59L24 61L22 61L22 60L23 60L23 58L27 58L27 59L28 59L28 60L29 60L29 62L30 62L30 63L31 63L31 64L29 64L29 63L28 63L28 64L27 64L27 65L31 65L31 64L32 64L32 65L35 65L35 64L34 64L34 63L37 63L37 64L36 64L36 65L37 65L37 64L41 64L41 63L42 63L42 64L43 64L43 63L42 63L42 62L43 62L43 61L44 61L44 62L45 62L45 63L44 63L44 64L45 64L45 65L46 65L46 64L45 64L45 63L49 63L49 60L51 60L51 62L50 62L50 63L51 63L51 62L52 62L52 60L53 60L53 63L52 63L52 64L50 64L50 65L52 65L52 64L53 64L53 63L54 63L54 64L55 64L55 63L56 63L56 64L57 64L57 65L61 65L61 64L62 64L62 65L63 65L63 64L64 64L64 60L65 60L65 59L63 59L63 58L65 58L65 56L64 56L64 54L65 54L65 53L64 53L64 52L65 52L65 51L64 51L64 50L65 50L65 49L64 49L64 48L62 48L62 47L63 47L63 46L62 46L62 45L65 45L65 44L62 44L62 45L60 45L60 46L59 46L59 43L58 43L58 44L57 44L57 43L54 43L54 44L53 44L53 42L55 42L55 40L56 40L56 41L58 41L58 42L62 42L62 41L63 41L63 42L65 42L65 41L64 41L64 40L65 40L65 39L63 39L63 37L64 37L64 38L65 38L65 35L64 35L64 34L65 34L65 33L63 33L63 32L62 32L62 30L58 30L58 28L59 28L59 29L61 29L61 28L62 28L62 29L64 29L64 28L62 28L62 27L63 27L63 26L65 26L65 25L63 25L63 24L60 24L60 23L59 23L59 22L61 22L61 20L59 20L59 19L63 19L63 20L62 20L62 21L63 21L63 22L62 22L62 23L63 23L63 22L65 22L65 21L64 21L64 20L65 20L65 19L63 19L63 18L65 18L65 15L64 15L64 16L62 16L62 13L63 13L63 12L64 12L64 14L65 14L65 12L64 12L64 10L65 10L65 9L64 9L64 8L63 8L63 9L62 9L62 8L61 8L61 9L60 9L60 8L59 8L59 10L58 10L58 8L56 8L56 9L54 9L54 8L55 8L55 5L54 5L54 4L56 4L56 5L57 5L57 4L56 4L56 3L57 3L57 1L56 1L56 0L55 0L55 1L56 1L56 3L55 3L55 2L54 2L54 3L53 3L53 1L54 1L54 0L53 0L53 1L52 1L52 0L51 0L51 1L50 1L50 2L49 2L49 1L48 1L48 2L49 2L49 3L47 3L47 1L45 1L45 0L42 0L42 1L44 1L44 2L42 2L42 3L43 3L43 4L42 4L42 5L41 5L41 4L39 4L39 5L38 5L38 7L39 7L39 8L38 8L38 9L37 9L37 8L35 8L35 3L36 3L36 4L37 4L37 3L38 3L38 2L40 2L40 3L41 3L41 2L40 2L40 1L41 1L41 0L39 0L39 1L36 1L36 2L35 2L35 1L33 1L33 2L32 2L32 0L29 0L29 3L27 3L27 0L21 0L21 1L22 1L22 2L21 2L21 3L20 3L20 4L18 4L18 3L15 3L15 2L16 2L16 1L17 1L17 2L18 2L18 0L16 0L16 1L15 1L15 0L13 0L13 1L12 1L12 2L9 2L9 1L10 1L10 0ZM13 1L13 2L12 2L12 3L14 3L14 4L15 4L15 5L12 5L12 6L11 6L11 4L10 4L10 5L9 5L9 7L10 7L10 6L11 6L11 7L12 7L12 6L13 6L13 7L14 7L14 8L12 8L12 9L10 9L10 8L9 8L9 9L10 9L10 11L9 11L9 12L11 12L11 13L10 13L10 14L7 14L7 15L6 15L6 16L8 16L8 20L7 20L7 19L6 19L6 18L7 18L7 17L6 17L6 18L4 18L4 17L3 17L3 15L4 15L4 16L5 16L5 15L4 15L4 14L3 14L3 13L2 13L2 11L1 11L1 13L2 13L2 14L3 14L3 15L2 15L2 16L1 16L1 19L2 19L2 20L3 20L3 19L2 19L2 17L3 17L3 18L4 18L4 19L6 19L6 20L7 20L7 21L6 21L6 22L5 22L5 20L4 20L4 22L2 22L2 23L5 23L5 24L4 24L4 25L3 25L3 26L1 26L1 28L2 28L2 27L3 27L3 28L4 28L4 29L5 29L5 30L7 30L7 29L9 29L9 28L7 28L7 27L6 27L6 28L7 28L7 29L5 29L5 28L4 28L4 27L3 27L3 26L4 26L4 25L6 25L6 26L7 26L7 25L6 25L6 24L8 24L8 26L9 26L9 24L10 24L10 25L11 25L11 26L10 26L10 27L11 27L11 28L13 28L13 29L12 29L12 30L11 30L11 29L10 29L10 30L9 30L9 32L10 32L10 33L9 33L9 35L6 35L6 36L8 36L8 37L9 37L9 39L10 39L10 38L11 38L11 39L12 39L12 40L11 40L11 41L12 41L12 40L13 40L13 41L14 41L14 43L15 43L15 45L16 45L16 46L15 46L15 47L16 47L16 48L19 48L19 49L18 49L18 50L17 50L17 51L18 51L18 50L19 50L19 51L21 51L21 52L22 52L22 53L20 53L20 54L19 54L19 55L18 55L18 54L17 54L17 53L18 53L18 52L17 52L17 53L16 53L16 54L17 54L17 56L19 56L19 57L18 57L18 58L17 58L17 57L15 57L15 59L16 59L16 61L14 61L14 62L16 62L16 61L18 61L18 62L19 62L19 63L18 63L18 64L19 64L19 63L20 63L20 62L19 62L19 61L21 61L21 60L22 60L22 59L21 59L21 60L19 60L19 59L18 59L18 58L19 58L19 57L20 57L20 58L21 58L21 57L25 57L25 56L24 56L24 55L25 55L25 54L23 54L23 53L26 53L26 54L30 54L30 55L31 55L31 56L34 56L34 55L36 55L36 56L38 56L38 54L39 54L39 55L40 55L40 54L41 54L41 55L43 55L43 56L39 56L39 57L35 57L35 60L38 60L38 62L37 62L37 61L36 61L36 62L37 62L37 63L38 63L38 62L39 62L39 61L43 61L43 60L44 60L44 61L45 61L45 62L47 62L47 61L48 61L48 60L49 60L49 59L50 59L50 58L51 58L51 57L53 57L53 58L52 58L52 59L55 59L55 60L56 60L56 59L55 59L55 58L56 58L56 56L57 56L57 55L56 55L56 54L57 54L57 53L58 53L58 55L60 55L60 56L61 56L61 60L63 60L63 59L62 59L62 58L63 58L63 57L64 57L64 56L63 56L63 53L62 53L62 52L63 52L63 51L62 51L62 52L61 52L61 50L64 50L64 49L62 49L62 48L58 48L58 49L59 49L59 50L58 50L58 51L56 51L56 50L57 50L57 48L55 48L55 47L56 47L56 46L58 46L58 47L59 47L59 46L58 46L58 45L56 45L56 44L54 44L54 45L56 45L56 46L52 46L52 47L51 47L51 48L52 48L52 49L53 49L53 52L51 52L51 53L50 53L50 54L49 54L49 53L47 53L47 51L46 51L46 50L48 50L48 48L49 48L49 47L50 47L50 46L51 46L51 44L52 44L52 45L53 45L53 44L52 44L52 42L53 42L53 41L54 41L54 40L52 40L52 41L51 41L51 39L50 39L50 38L53 38L53 36L51 36L51 37L50 37L50 38L49 38L49 37L48 37L48 38L49 38L49 39L47 39L47 40L46 40L46 39L45 39L45 38L47 38L47 37L46 37L46 36L49 36L49 35L50 35L50 34L52 34L52 35L54 35L54 37L56 37L56 40L57 40L57 39L59 39L59 40L58 40L58 41L61 41L61 40L63 40L63 39L62 39L62 37L61 37L61 36L60 36L60 35L59 35L59 36L58 36L58 37L59 37L59 36L60 36L60 37L61 37L61 38L57 38L57 35L56 35L56 34L53 34L53 32L54 32L54 31L55 31L55 32L56 32L56 31L55 31L55 30L57 30L57 29L56 29L56 28L58 28L58 26L59 26L59 28L61 28L61 27L62 27L62 26L63 26L63 25L59 25L59 24L58 24L58 22L59 22L59 20L57 20L57 19L58 19L58 18L59 18L59 17L58 17L58 15L57 15L57 14L59 14L59 16L61 16L61 17L60 17L60 18L62 18L62 16L61 16L61 13L60 13L60 14L59 14L59 12L61 12L61 10L60 10L60 11L58 11L58 12L57 12L57 11L56 11L56 10L57 10L57 9L56 9L56 10L53 10L53 12L51 12L51 11L48 11L48 10L49 10L49 9L50 9L50 10L52 10L52 9L53 9L53 8L54 8L54 6L53 6L53 8L52 8L52 9L50 9L50 8L51 8L51 7L52 7L52 5L53 5L53 3L52 3L52 5L51 5L51 2L52 2L52 1L51 1L51 2L50 2L50 5L51 5L51 7L50 7L50 6L49 6L49 7L48 7L48 5L49 5L49 4L46 4L46 3L44 3L44 6L43 6L43 5L42 5L42 6L41 6L41 5L40 5L40 6L39 6L39 7L40 7L40 6L41 6L41 8L40 8L40 10L39 10L39 9L38 9L38 10L39 10L39 11L36 11L36 10L37 10L37 9L32 9L32 10L31 10L31 12L30 12L30 10L29 10L29 9L30 9L30 8L29 8L29 9L28 9L28 10L26 10L26 9L27 9L27 7L28 7L28 6L27 6L27 7L26 7L26 6L25 6L25 8L21 8L21 7L22 7L22 6L23 6L23 7L24 7L24 6L23 6L23 5L24 5L24 4L25 4L25 5L27 5L27 4L25 4L25 3L26 3L26 2L25 2L25 1L24 1L24 2L23 2L23 4L22 4L22 3L21 3L21 4L20 4L20 5L18 5L18 4L17 4L17 5L18 5L18 6L17 6L17 7L16 7L16 4L15 4L15 3L14 3L14 1ZM19 1L19 2L20 2L20 1ZM30 1L30 3L29 3L29 4L28 4L28 5L29 5L29 7L30 7L30 3L32 3L32 4L33 4L33 3L32 3L32 2L31 2L31 1ZM24 2L24 3L25 3L25 2ZM34 2L34 3L35 3L35 2ZM36 2L36 3L37 3L37 2ZM21 4L21 5L20 5L20 7L21 7L21 6L22 6L22 4ZM45 4L45 6L44 6L44 8L45 8L45 10L46 10L46 11L47 11L47 13L48 13L48 14L46 14L46 12L45 12L45 11L44 11L44 10L43 10L43 9L42 9L42 10L40 10L40 11L39 11L39 12L36 12L36 14L33 14L33 13L32 13L32 12L35 12L35 10L34 10L34 11L32 11L32 12L31 12L31 13L32 13L32 14L33 14L33 15L32 15L32 16L35 16L35 18L34 18L34 17L32 17L32 18L31 18L31 17L30 17L30 16L31 16L31 14L29 14L29 16L28 16L28 15L25 15L25 14L28 14L28 13L26 13L26 12L28 12L28 11L29 11L29 10L28 10L28 11L26 11L26 12L23 12L23 11L22 11L22 10L23 10L23 9L21 9L21 8L19 8L19 6L18 6L18 7L17 7L17 8L16 8L16 9L15 9L15 10L16 10L16 9L17 9L17 8L18 8L18 9L19 9L19 10L20 10L20 11L21 11L21 12L23 12L23 13L22 13L22 14L23 14L23 15L24 15L24 16L23 16L23 17L22 17L22 18L20 18L20 20L19 20L19 18L18 18L18 19L17 19L17 18L16 18L16 17L15 17L15 16L14 16L14 17L13 17L13 16L12 16L12 15L14 15L14 14L13 14L13 13L15 13L15 12L14 12L14 9L12 9L12 10L11 10L11 12L12 12L12 14L10 14L10 15L9 15L9 17L10 17L10 18L9 18L9 19L10 19L10 18L11 18L11 17L12 17L12 18L13 18L13 20L11 20L11 21L10 21L10 22L11 22L11 21L12 21L12 22L14 22L14 23L12 23L12 26L11 26L11 27L12 27L12 26L13 26L13 28L14 28L14 26L13 26L13 25L14 25L14 23L15 23L15 27L16 27L16 25L17 25L17 26L18 26L18 27L17 27L17 29L16 29L16 28L15 28L15 29L16 29L16 30L14 30L14 29L13 29L13 30L12 30L12 33L11 33L11 34L10 34L10 35L11 35L11 34L13 34L13 35L12 35L12 36L11 36L11 37L14 37L14 38L13 38L13 40L14 40L14 41L15 41L15 38L16 38L16 39L17 39L17 40L16 40L16 41L17 41L17 40L18 40L18 41L19 41L19 43L18 43L18 42L17 42L17 43L18 43L18 45L20 45L20 44L22 44L22 43L23 43L23 45L22 45L22 46L21 46L21 47L24 47L24 48L23 48L23 49L21 49L21 48L20 48L20 49L21 49L21 51L22 51L22 50L24 50L24 51L23 51L23 52L24 52L24 51L25 51L25 52L26 52L26 51L25 51L25 50L27 50L27 51L30 51L30 50L31 50L31 52L30 52L30 53L33 53L33 54L32 54L32 55L33 55L33 54L36 54L36 55L37 55L37 54L38 54L38 53L40 53L40 52L42 52L42 54L43 54L43 55L44 55L44 56L43 56L43 57L41 57L41 58L38 58L38 60L39 60L39 59L40 59L40 60L41 60L41 58L43 58L43 59L42 59L42 60L43 60L43 59L44 59L44 60L45 60L45 61L47 61L47 60L46 60L46 59L47 59L47 58L50 58L50 57L51 57L51 56L50 56L50 57L49 57L49 56L46 56L46 55L47 55L47 54L46 54L46 55L44 55L44 54L45 54L45 53L44 53L44 52L45 52L45 51L44 51L44 52L42 52L42 50L43 50L43 49L44 49L44 50L45 50L45 49L44 49L44 48L46 48L46 49L47 49L47 48L46 48L46 47L47 47L47 46L46 46L46 45L49 45L49 44L48 44L48 43L50 43L50 44L51 44L51 42L50 42L50 39L49 39L49 40L47 40L47 42L46 42L46 40L45 40L45 39L44 39L44 36L46 36L46 35L47 35L47 34L46 34L46 35L45 35L45 34L44 34L44 33L42 33L42 32L43 32L43 31L42 31L42 32L41 32L41 30L44 30L44 28L45 28L45 30L46 30L46 31L47 31L47 32L48 32L48 33L49 33L49 34L48 34L48 35L49 35L49 34L50 34L50 33L52 33L52 32L53 32L53 31L54 31L54 30L55 30L55 29L52 29L52 28L53 28L53 26L55 26L55 27L54 27L54 28L56 28L56 25L58 25L58 24L57 24L57 23L55 23L55 25L54 25L54 23L52 23L52 22L50 22L50 21L51 21L51 20L53 20L53 22L55 22L55 21L54 21L54 20L55 20L55 19L52 19L52 18L50 18L50 17L52 17L52 16L53 16L53 18L56 18L56 19L57 19L57 18L56 18L56 17L57 17L57 15L55 15L55 16L53 16L53 15L52 15L52 14L53 14L53 13L54 13L54 14L56 14L56 13L57 13L57 12L55 12L55 13L54 13L54 12L53 12L53 13L51 13L51 12L50 12L50 13L51 13L51 14L49 14L49 12L48 12L48 11L47 11L47 10L46 10L46 9L47 9L47 8L48 8L48 9L49 9L49 8L48 8L48 7L47 7L47 5L46 5L46 4ZM31 5L31 8L34 8L34 5ZM14 6L14 7L15 7L15 6ZM32 6L32 7L33 7L33 6ZM36 6L36 7L37 7L37 6ZM42 6L42 8L43 8L43 6ZM45 6L45 7L46 7L46 6ZM56 6L56 7L57 7L57 6ZM20 9L20 10L21 10L21 9ZM24 9L24 10L25 10L25 9ZM7 10L7 11L8 11L8 10ZM42 10L42 11L41 11L41 12L39 12L39 13L38 13L38 14L36 14L36 16L37 16L37 17L36 17L36 20L35 20L35 19L33 19L33 18L32 18L32 19L31 19L31 18L30 18L30 17L27 17L27 16L26 16L26 17L27 17L27 18L22 18L22 19L21 19L21 20L22 20L22 21L20 21L20 24L19 24L19 25L18 25L18 26L20 26L20 28L19 28L19 29L17 29L17 30L18 30L18 31L17 31L17 33L15 33L15 34L14 34L14 35L13 35L13 36L14 36L14 37L15 37L15 36L14 36L14 35L15 35L15 34L18 34L18 35L16 35L16 36L18 36L18 37L16 37L16 38L17 38L17 39L18 39L18 40L19 40L19 41L20 41L20 43L22 43L22 42L21 42L21 41L23 41L23 43L24 43L24 41L25 41L25 42L26 42L26 45L27 45L27 42L26 42L26 41L28 41L28 42L30 42L30 43L31 43L31 44L33 44L33 45L32 45L32 46L31 46L31 49L32 49L32 50L33 50L33 49L34 49L34 51L35 51L35 52L34 52L34 53L35 53L35 52L37 52L37 53L38 53L38 52L39 52L39 51L38 51L38 50L41 50L41 48L39 48L39 47L44 47L44 46L45 46L45 44L44 44L44 43L43 43L43 42L41 42L41 43L42 43L42 44L39 44L39 43L40 43L40 42L39 42L39 41L43 41L43 40L42 40L42 39L43 39L43 38L42 38L42 37L43 37L43 36L44 36L44 35L43 35L43 34L41 34L41 32L39 32L39 31L40 31L40 29L41 29L41 28L42 28L42 27L43 27L43 28L44 28L44 27L45 27L45 26L44 26L44 25L46 25L46 26L48 26L48 27L46 27L46 28L47 28L47 29L46 29L46 30L47 30L47 29L48 29L48 28L49 28L49 30L48 30L48 32L49 32L49 30L51 30L51 29L50 29L50 26L51 26L51 27L52 27L52 26L53 26L53 24L52 24L52 23L50 23L50 22L49 22L49 21L50 21L50 20L51 20L51 19L50 19L50 20L49 20L49 17L50 17L50 16L51 16L51 15L49 15L49 14L48 14L48 15L45 15L45 16L44 16L44 17L43 17L43 16L42 16L42 15L43 15L43 14L45 14L45 12L44 12L44 11L43 11L43 10ZM17 11L17 13L16 13L16 14L15 14L15 15L17 15L17 13L20 13L20 12L19 12L19 11ZM42 11L42 12L43 12L43 11ZM62 11L62 12L63 12L63 11ZM23 13L23 14L24 14L24 13ZM39 13L39 14L38 14L38 17L39 17L39 18L37 18L37 19L39 19L39 20L38 20L38 21L40 21L40 22L36 22L36 23L35 23L35 22L34 22L34 20L33 20L33 19L32 19L32 20L31 20L31 19L29 19L29 18L27 18L27 20L28 20L28 21L27 21L27 23L26 23L26 24L25 24L25 25L24 25L24 23L25 23L25 22L26 22L26 21L23 21L23 22L21 22L21 23L23 23L23 25L21 25L21 24L20 24L20 25L21 25L21 26L22 26L22 27L23 27L23 25L24 25L24 26L27 26L27 27L24 27L24 29L22 29L22 28L21 28L21 29L19 29L19 30L20 30L20 31L18 31L18 33L21 33L21 34L20 34L20 35L21 35L21 36L20 36L20 37L18 37L18 38L19 38L19 39L21 39L21 40L20 40L20 41L21 41L21 40L25 40L25 41L26 41L26 40L27 40L27 39L28 39L28 37L29 37L29 36L30 36L30 37L33 37L33 38L32 38L32 40L31 40L31 39L30 39L30 38L29 38L29 39L30 39L30 40L28 40L28 41L30 41L30 40L31 40L31 42L32 42L32 43L34 43L34 45L33 45L33 46L32 46L32 47L33 47L33 46L34 46L34 45L35 45L35 46L38 46L38 47L39 47L39 46L38 46L38 45L39 45L39 44L38 44L38 45L37 45L37 44L36 44L36 43L39 43L39 42L38 42L38 41L37 41L37 40L41 40L41 38L40 38L40 37L39 37L39 35L40 35L40 36L41 36L41 35L40 35L40 34L36 34L36 33L38 33L38 32L35 32L35 30L33 30L33 29L32 29L32 28L34 28L34 27L37 27L37 28L35 28L35 29L37 29L37 30L36 30L36 31L39 31L39 30L38 30L38 27L40 27L40 28L41 28L41 27L40 27L40 26L38 26L38 27L37 27L37 25L38 25L38 24L41 24L41 23L42 23L42 22L43 22L43 23L44 23L44 24L43 24L43 25L42 25L42 26L43 26L43 25L44 25L44 24L45 24L45 21L47 21L47 22L46 22L46 23L48 23L48 21L49 21L49 20L48 20L48 19L47 19L47 18L46 18L46 19L45 19L45 18L43 18L43 17L41 17L41 18L40 18L40 16L41 16L41 15L40 15L40 14L43 14L43 13ZM18 14L18 17L21 17L21 16L19 16L19 15L20 15L20 14ZM10 15L10 16L11 16L11 15ZM24 16L24 17L25 17L25 16ZM45 16L45 17L46 17L46 16ZM48 16L48 17L49 17L49 16ZM55 16L55 17L56 17L56 16ZM14 17L14 19L16 19L16 18L15 18L15 17ZM39 18L39 19L40 19L40 18ZM42 18L42 19L41 19L41 20L40 20L40 21L41 21L41 22L42 22L42 21L43 21L43 22L44 22L44 21L45 21L45 20L44 20L44 19L43 19L43 18ZM24 19L24 20L26 20L26 19ZM28 19L28 20L29 20L29 21L28 21L28 22L29 22L29 23L28 23L28 24L26 24L26 25L28 25L28 26L29 26L29 28L28 28L28 29L27 29L27 28L26 28L26 29L27 29L27 30L26 30L26 31L25 31L25 29L24 29L24 30L22 30L22 31L24 31L24 32L21 32L21 33L23 33L23 34L24 34L24 35L23 35L23 37L22 37L22 36L21 36L21 37L20 37L20 38L21 38L21 39L22 39L22 38L23 38L23 37L25 37L25 38L26 38L26 39L27 39L27 37L25 37L25 36L26 36L26 35L25 35L25 34L26 34L26 33L27 33L27 36L28 36L28 34L30 34L30 31L29 31L29 33L28 33L28 31L27 31L27 30L28 30L28 29L29 29L29 30L30 30L30 29L31 29L31 28L30 28L30 27L33 27L33 25L34 25L34 26L35 26L35 24L34 24L34 23L33 23L33 22L30 22L30 21L31 21L31 20L29 20L29 19ZM46 19L46 20L47 20L47 19ZM8 20L8 21L7 21L7 22L6 22L6 23L9 23L9 20ZM13 20L13 21L16 21L16 22L15 22L15 23L16 23L16 24L18 24L18 23L19 23L19 22L18 22L18 23L17 23L17 21L18 21L18 20ZM32 20L32 21L33 21L33 20ZM36 20L36 21L37 21L37 20ZM43 20L43 21L44 21L44 20ZM56 20L56 21L57 21L57 20ZM10 23L10 24L11 24L11 23ZM29 23L29 24L28 24L28 25L30 25L30 26L31 26L31 25L32 25L32 24L33 24L33 23L32 23L32 24L31 24L31 23ZM36 23L36 24L37 24L37 23ZM64 23L64 24L65 24L65 23ZM30 24L30 25L31 25L31 24ZM48 24L48 26L50 26L50 25L51 25L51 26L52 26L52 25L51 25L51 24ZM60 26L60 27L61 27L61 26ZM29 28L29 29L30 29L30 28ZM13 30L13 31L14 31L14 32L16 32L16 31L14 31L14 30ZM5 31L5 34L8 34L8 31ZM10 31L10 32L11 32L11 31ZM31 31L31 34L34 34L34 31ZM44 31L44 32L45 32L45 31ZM50 31L50 32L52 32L52 31ZM57 31L57 34L60 34L60 31ZM6 32L6 33L7 33L7 32ZM32 32L32 33L33 33L33 32ZM58 32L58 33L59 33L59 32ZM61 32L61 35L62 35L62 36L63 36L63 35L62 35L62 34L63 34L63 33L62 33L62 32ZM1 33L1 35L2 35L2 33ZM24 33L24 34L25 34L25 33ZM21 34L21 35L22 35L22 34ZM3 35L3 36L4 36L4 35ZM35 35L35 37L34 37L34 36L33 36L33 37L34 37L34 39L35 39L35 40L34 40L34 41L35 41L35 40L37 40L37 39L38 39L38 38L39 38L39 39L40 39L40 38L39 38L39 37L38 37L38 35ZM42 35L42 36L43 36L43 35ZM55 35L55 36L56 36L56 35ZM36 36L36 38L35 38L35 39L36 39L36 38L37 38L37 36ZM21 37L21 38L22 38L22 37ZM54 38L54 39L55 39L55 38ZM6 39L6 40L8 40L8 41L5 41L5 42L2 42L2 43L1 43L1 44L2 44L2 43L5 43L5 44L3 44L3 45L6 45L6 46L7 46L7 47L6 47L6 48L4 48L4 47L2 47L2 48L4 48L4 49L3 49L3 50L1 50L1 51L2 51L2 52L3 52L3 54L4 54L4 53L6 53L6 52L7 52L7 51L6 51L6 50L8 50L8 49L9 49L9 48L10 48L10 47L11 47L11 46L10 46L10 47L8 47L8 46L7 46L7 45L6 45L6 44L7 44L7 43L8 43L8 44L9 44L9 45L10 45L10 44L12 44L12 43L13 43L13 42L10 42L10 40L8 40L8 39ZM60 39L60 40L61 40L61 39ZM44 40L44 41L45 41L45 40ZM8 41L8 43L9 43L9 44L10 44L10 43L9 43L9 41ZM32 41L32 42L33 42L33 41ZM36 41L36 42L34 42L34 43L36 43L36 42L37 42L37 41ZM6 42L6 43L7 43L7 42ZM47 42L47 43L48 43L48 42ZM28 43L28 46L25 46L25 48L24 48L24 49L25 49L25 48L26 48L26 49L27 49L27 50L30 50L30 49L27 49L27 48L28 48L28 47L29 47L29 48L30 48L30 47L29 47L29 46L30 46L30 45L29 45L29 43ZM60 43L60 44L61 44L61 43ZM13 44L13 45L14 45L14 44ZM42 44L42 46L44 46L44 44ZM23 45L23 46L24 46L24 45ZM40 45L40 46L41 46L41 45ZM18 46L18 47L20 47L20 46ZM48 46L48 47L49 47L49 46ZM26 47L26 48L27 48L27 47ZM34 47L34 49L37 49L37 48L36 48L36 47ZM52 47L52 48L54 48L54 50L56 50L56 49L55 49L55 48L54 48L54 47ZM6 48L6 49L4 49L4 50L3 50L3 52L6 52L6 51L5 51L5 50L6 50L6 49L7 49L7 48ZM32 48L32 49L33 49L33 48ZM38 48L38 49L39 49L39 48ZM50 49L50 50L51 50L51 49ZM60 49L60 50L61 50L61 49ZM11 50L11 51L12 51L12 50ZM36 50L36 51L37 51L37 50ZM14 51L14 52L15 52L15 51ZM32 51L32 52L33 52L33 51ZM48 51L48 52L50 52L50 51ZM54 51L54 52L56 52L56 51ZM58 51L58 52L59 52L59 51ZM10 52L10 54L11 54L11 55L12 55L12 54L11 54L11 53L12 53L12 52ZM27 52L27 53L29 53L29 52ZM0 53L0 54L1 54L1 53ZM13 53L13 54L14 54L14 53ZM51 53L51 54L50 54L50 55L52 55L52 56L53 56L53 57L54 57L54 58L55 58L55 56L56 56L56 55L52 55L52 54L56 54L56 53ZM60 53L60 55L61 55L61 54L62 54L62 53ZM20 54L20 55L22 55L22 56L23 56L23 55L22 55L22 54ZM48 54L48 55L49 55L49 54ZM8 55L8 56L6 56L6 57L8 57L8 59L10 59L10 58L9 58L9 55ZM13 55L13 56L12 56L12 57L11 57L11 58L12 58L12 57L13 57L13 56L14 56L14 55ZM28 55L28 56L29 56L29 55ZM20 56L20 57L21 57L21 56ZM26 56L26 57L27 57L27 56ZM44 56L44 57L45 57L45 58L44 58L44 59L46 59L46 58L47 58L47 57L45 57L45 56ZM62 56L62 57L63 57L63 56ZM28 57L28 59L29 59L29 60L30 60L30 59L29 59L29 57ZM31 57L31 60L34 60L34 57ZM57 57L57 60L60 60L60 57ZM16 58L16 59L17 59L17 58ZM32 58L32 59L33 59L33 58ZM36 58L36 59L37 59L37 58ZM58 58L58 59L59 59L59 58ZM18 60L18 61L19 61L19 60ZM9 61L9 63L10 63L10 64L12 64L12 63L13 63L13 62L12 62L12 63L10 63L10 62L11 62L11 61ZM30 61L30 62L31 62L31 63L33 63L33 62L32 62L32 61ZM58 61L58 62L56 62L56 63L58 63L58 64L59 64L59 63L58 63L58 62L59 62L59 61ZM60 61L60 62L61 62L61 63L62 63L62 64L63 64L63 62L61 62L61 61ZM40 62L40 63L41 63L41 62ZM54 62L54 63L55 63L55 62ZM15 63L15 64L16 64L16 63ZM23 63L23 64L24 64L24 63ZM47 64L47 65L49 65L49 64ZM0 0L0 7L7 7L7 0ZM1 1L1 6L6 6L6 1ZM2 2L2 5L5 5L5 2ZM58 0L58 7L65 7L65 0ZM59 1L59 6L64 6L64 1ZM60 2L60 5L63 5L63 2ZM0 58L0 65L7 65L7 58ZM1 59L1 64L6 64L6 59ZM2 60L2 63L5 63L5 60Z" fill="#000000"/></g></g></svg>
