<?xml version="1.0" encoding="UTF-8"?>
<svg xmlns="http://www.w3.org/2000/svg" version="1.1" width="300" height="300" viewBox="0 0 300 300"><rect x="0" y="0" width="300" height="300" fill="#ffffff"/><g transform="scale(4.615)"><g transform="translate(0,0)"><path fill-rule="evenodd" d="M11 0L11 1L10 1L10 2L9 2L9 1L8 1L8 2L9 2L9 3L8 3L8 4L9 4L9 5L8 5L8 7L9 7L9 6L10 6L10 8L6 8L6 9L8 9L8 10L5 10L5 11L8 11L8 12L4 12L4 9L5 9L5 8L0 8L0 9L2 9L2 10L1 10L1 11L0 11L0 12L1 12L1 11L2 11L2 14L3 14L3 15L4 15L4 14L3 14L3 13L5 13L5 15L7 15L7 16L4 16L4 18L2 18L2 19L0 19L0 20L2 20L2 21L3 21L3 20L4 20L4 21L5 21L5 23L2 23L2 22L0 22L0 23L1 23L1 24L0 24L0 25L2 25L2 26L1 26L1 27L0 27L0 28L2 28L2 26L3 26L3 25L4 25L4 26L5 26L5 27L7 27L7 28L5 28L5 30L3 30L3 31L2 31L2 32L0 32L0 34L1 34L1 35L5 35L5 36L2 36L2 37L1 37L1 39L0 39L0 40L1 40L1 42L0 42L0 43L1 43L1 44L0 44L0 47L3 47L3 49L4 49L4 50L3 50L3 51L2 51L2 52L1 52L1 53L0 53L0 54L1 54L1 53L2 53L2 55L3 55L3 56L1 56L1 55L0 55L0 56L1 56L1 57L3 57L3 56L4 56L4 57L5 57L5 56L4 56L4 54L5 54L5 55L7 55L7 56L6 56L6 57L7 57L7 56L8 56L8 55L7 55L7 54L8 54L8 52L9 52L9 51L10 51L10 52L11 52L11 53L12 53L12 55L11 55L11 54L9 54L9 55L10 55L10 58L9 58L9 57L8 57L8 59L10 59L10 58L11 58L11 59L13 59L13 58L14 58L14 57L13 57L13 55L14 55L14 54L16 54L16 55L17 55L17 56L16 56L16 57L17 57L17 56L18 56L18 57L19 57L19 59L20 59L20 60L18 60L18 61L17 61L17 64L16 64L16 63L15 63L15 65L19 65L19 64L18 64L18 63L20 63L20 62L18 62L18 61L20 61L20 60L23 60L23 61L22 61L22 62L21 62L21 63L22 63L22 62L23 62L23 63L24 63L24 64L26 64L26 63L27 63L27 61L26 61L26 60L25 60L25 59L27 59L27 60L28 60L28 61L32 61L32 62L33 62L33 63L35 63L35 64L32 64L32 63L31 63L31 62L29 62L29 63L28 63L28 65L35 65L35 64L36 64L36 65L37 65L37 64L36 64L36 63L37 63L37 62L38 62L38 65L39 65L39 62L38 62L38 60L36 60L36 59L35 59L35 58L36 58L36 57L37 57L37 59L39 59L39 60L41 60L41 61L40 61L40 62L41 62L41 61L42 61L42 62L44 62L44 64L43 64L43 63L42 63L42 64L43 64L43 65L44 65L44 64L45 64L45 65L51 65L51 64L53 64L53 65L57 65L57 64L55 64L55 63L56 63L56 62L58 62L58 63L59 63L59 64L58 64L58 65L61 65L61 64L62 64L62 65L63 65L63 64L64 64L64 61L63 61L63 60L62 60L62 61L63 61L63 62L62 62L62 63L61 63L61 62L60 62L60 61L61 61L61 57L62 57L62 59L63 59L63 57L64 57L64 58L65 58L65 57L64 57L64 56L65 56L65 55L63 55L63 53L64 53L64 54L65 54L65 53L64 53L64 52L65 52L65 51L64 51L64 50L65 50L65 49L64 49L64 48L62 48L62 47L63 47L63 46L62 46L62 47L61 47L61 45L64 45L64 44L65 44L65 43L63 43L63 42L65 42L65 41L63 41L63 40L61 40L61 41L59 41L59 40L60 40L60 39L61 39L61 37L63 37L63 38L62 38L62 39L63 39L63 38L65 38L65 35L64 35L64 34L65 34L65 31L63 31L63 32L62 32L62 29L65 29L65 28L62 28L62 29L61 29L61 28L60 28L60 26L58 26L58 28L55 28L55 29L54 29L54 28L53 28L53 27L54 27L54 26L56 26L56 27L57 27L57 26L56 26L56 25L61 25L61 26L62 26L62 25L63 25L63 26L65 26L65 23L64 23L64 25L63 25L63 24L62 24L62 25L61 25L61 24L60 24L60 23L59 23L59 22L63 22L63 21L64 21L64 22L65 22L65 21L64 21L64 20L65 20L65 19L63 19L63 18L65 18L65 15L64 15L64 16L62 16L62 15L63 15L63 14L60 14L60 15L59 15L59 14L57 14L57 15L56 15L56 14L55 14L55 12L54 12L54 11L53 11L53 10L55 10L55 11L57 11L57 12L56 12L56 13L57 13L57 12L58 12L58 11L59 11L59 13L61 13L61 12L62 12L62 13L64 13L64 14L65 14L65 13L64 13L64 12L62 12L62 11L63 11L63 10L65 10L65 9L64 9L64 8L63 8L63 10L62 10L62 11L61 11L61 9L62 9L62 8L61 8L61 9L60 9L60 8L59 8L59 9L60 9L60 10L58 10L58 8L56 8L56 9L53 9L53 10L52 10L52 11L51 11L51 10L50 10L50 9L49 9L49 8L51 8L51 9L52 9L52 8L53 8L53 6L54 6L54 8L55 8L55 5L54 5L54 4L56 4L56 5L57 5L57 4L56 4L56 3L57 3L57 1L56 1L56 0L55 0L55 1L56 1L56 3L55 3L55 2L54 2L54 3L53 3L53 2L52 2L52 1L48 1L48 2L47 2L47 1L46 1L46 0L44 0L44 1L46 1L46 2L44 2L44 3L43 3L43 4L42 4L42 5L41 5L41 4L40 4L40 5L37 5L37 3L36 3L36 4L35 4L35 3L34 3L34 4L30 4L30 7L29 7L29 5L28 5L28 4L29 4L29 3L31 3L31 2L30 2L30 1L31 1L31 0L29 0L29 3L28 3L28 4L26 4L26 3L27 3L27 2L26 2L26 3L25 3L25 2L24 2L24 1L27 1L27 0L21 0L21 2L22 2L22 1L23 1L23 2L24 2L24 3L23 3L23 5L26 5L26 8L28 8L28 9L24 9L24 11L23 11L23 9L22 9L22 8L23 8L23 6L22 6L22 5L21 5L21 6L20 6L20 4L22 4L22 3L20 3L20 4L19 4L19 2L20 2L20 1L18 1L18 0L17 0L17 1L18 1L18 2L16 2L16 3L18 3L18 4L16 4L16 5L15 5L15 3L14 3L14 4L13 4L13 2L15 2L15 1L14 1L14 0ZM32 0L32 1L33 1L33 0ZM37 0L37 1L36 1L36 2L37 2L37 1L38 1L38 2L39 2L39 3L38 3L38 4L39 4L39 3L41 3L41 2L42 2L42 1L43 1L43 0L41 0L41 1L38 1L38 0ZM53 0L53 1L54 1L54 0ZM11 1L11 3L12 3L12 2L13 2L13 1ZM34 1L34 2L35 2L35 1ZM32 2L32 3L33 3L33 2ZM46 2L46 3L47 3L47 2ZM48 2L48 3L49 3L49 4L48 4L48 6L47 6L47 8L46 8L46 5L47 5L47 4L45 4L45 3L44 3L44 4L45 4L45 5L42 5L42 6L41 6L41 5L40 5L40 6L39 6L39 8L38 8L38 6L37 6L37 5L35 5L35 7L36 7L36 8L38 8L38 9L37 9L37 11L34 11L34 12L37 12L37 11L38 11L38 14L39 14L39 15L36 15L36 14L35 14L35 13L33 13L33 12L32 12L32 9L31 9L31 10L30 10L30 8L29 8L29 7L28 7L28 6L27 6L27 7L28 7L28 8L29 8L29 9L28 9L28 10L29 10L29 11L28 11L28 12L30 12L30 13L28 13L28 14L26 14L26 13L27 13L27 12L26 12L26 10L25 10L25 13L24 13L24 12L23 12L23 11L22 11L22 9L20 9L20 6L19 6L19 7L18 7L18 5L17 5L17 7L16 7L16 6L15 6L15 7L14 7L14 5L13 5L13 7L12 7L12 4L10 4L10 3L9 3L9 4L10 4L10 6L11 6L11 7L12 7L12 8L11 8L11 9L12 9L12 8L13 8L13 12L12 12L12 13L11 13L11 14L12 14L12 15L14 15L14 17L11 17L11 18L10 18L10 16L11 16L11 15L8 15L8 17L6 17L6 18L5 18L5 19L4 19L4 20L5 20L5 21L6 21L6 22L7 22L7 23L6 23L6 24L7 24L7 25L5 25L5 26L7 26L7 25L8 25L8 26L9 26L9 27L8 27L8 29L6 29L6 30L8 30L8 29L9 29L9 30L10 30L10 29L11 29L11 31L12 31L12 32L10 32L10 31L9 31L9 33L11 33L11 34L10 34L10 35L8 35L8 36L10 36L10 37L9 37L9 40L10 40L10 41L9 41L9 42L8 42L8 41L6 41L6 42L5 42L5 41L4 41L4 42L5 42L5 43L3 43L3 42L1 42L1 43L3 43L3 47L4 47L4 49L5 49L5 50L7 50L7 49L8 49L8 50L10 50L10 51L12 51L12 49L13 49L13 51L14 51L14 53L15 53L15 52L16 52L16 50L17 50L17 49L16 49L16 47L12 47L12 46L13 46L13 45L12 45L12 44L14 44L14 43L16 43L16 45L15 45L15 46L16 46L16 45L18 45L18 46L17 46L17 48L19 48L19 49L18 49L18 51L17 51L17 52L18 52L18 53L16 53L16 54L17 54L17 55L18 55L18 56L21 56L21 57L20 57L20 59L21 59L21 57L25 57L25 56L26 56L26 57L27 57L27 59L29 59L29 60L30 60L30 59L29 59L29 57L27 57L27 56L28 56L28 54L30 54L30 55L29 55L29 56L30 56L30 55L35 55L35 57L36 57L36 56L37 56L37 57L38 57L38 58L39 58L39 57L41 57L41 58L40 58L40 59L42 59L42 60L44 60L44 62L45 62L45 60L44 60L44 59L43 59L43 58L45 58L45 57L46 57L46 58L47 58L47 55L45 55L45 54L48 54L48 56L51 56L51 57L50 57L50 58L49 58L49 59L48 59L48 60L49 60L49 61L46 61L46 62L47 62L47 63L46 63L46 64L49 64L49 63L50 63L50 64L51 64L51 63L53 63L53 64L54 64L54 63L55 63L55 62L53 62L53 60L54 60L54 61L55 61L55 60L56 60L56 59L55 59L55 58L56 58L56 56L57 56L57 55L60 55L60 53L61 53L61 56L63 56L63 55L62 55L62 52L63 52L63 51L62 51L62 52L60 52L60 51L61 51L61 50L64 50L64 49L61 49L61 48L58 48L58 49L61 49L61 50L58 50L58 51L57 51L57 50L56 50L56 49L57 49L57 46L58 46L58 47L59 47L59 45L61 45L61 44L63 44L63 43L62 43L62 42L63 42L63 41L61 41L61 42L59 42L59 41L56 41L56 40L58 40L58 39L60 39L60 37L61 37L61 36L60 36L60 35L59 35L59 38L58 38L58 36L57 36L57 35L56 35L56 36L55 36L55 34L56 34L56 32L54 32L54 31L56 31L56 30L57 30L57 29L56 29L56 30L54 30L54 29L53 29L53 28L52 28L52 29L53 29L53 32L52 32L52 31L51 31L51 32L49 32L49 30L51 30L51 29L50 29L50 28L51 28L51 27L50 27L50 26L51 26L51 25L55 25L55 24L54 24L54 23L57 23L57 22L59 22L59 20L61 20L61 21L62 21L62 20L63 20L63 19L60 19L60 18L62 18L62 17L58 17L58 16L59 16L59 15L57 15L57 17L56 17L56 16L55 16L55 18L54 18L54 19L55 19L55 20L54 20L54 21L55 21L55 22L53 22L53 20L50 20L50 18L51 18L51 16L52 16L52 17L53 17L53 16L52 16L52 15L53 15L53 14L52 14L52 15L50 15L50 14L51 14L51 13L54 13L54 12L49 12L49 11L48 11L48 10L47 10L47 8L49 8L49 7L50 7L50 5L52 5L52 6L51 6L51 7L52 7L52 6L53 6L53 3L51 3L51 2L50 2L50 3L49 3L49 2ZM24 3L24 4L25 4L25 3ZM50 3L50 4L49 4L49 5L50 5L50 4L51 4L51 3ZM31 5L31 8L34 8L34 5ZM21 6L21 7L22 7L22 6ZM24 6L24 8L25 8L25 6ZM32 6L32 7L33 7L33 6ZM36 6L36 7L37 7L37 6ZM40 6L40 8L41 8L41 6ZM42 6L42 8L43 8L43 9L41 9L41 10L43 10L43 12L41 12L41 11L40 11L40 10L38 10L38 11L39 11L39 14L40 14L40 12L41 12L41 15L39 15L39 16L41 16L41 17L39 17L39 18L38 18L38 16L36 16L36 18L34 18L34 16L35 16L35 14L33 14L33 15L32 15L32 14L31 14L31 13L30 13L30 14L31 14L31 15L29 15L29 16L27 16L27 15L25 15L25 17L24 17L24 15L23 15L23 17L22 17L22 19L21 19L21 18L20 18L20 21L18 21L18 20L17 20L17 21L16 21L16 20L15 20L15 18L16 18L16 19L18 19L18 18L16 18L16 17L15 17L15 18L12 18L12 19L11 19L11 22L10 22L10 18L9 18L9 20L6 20L6 19L7 19L7 18L6 18L6 19L5 19L5 20L6 20L6 21L8 21L8 23L7 23L7 24L8 24L8 25L9 25L9 24L11 24L11 27L10 27L10 28L12 28L12 26L13 26L13 30L12 30L12 31L13 31L13 32L12 32L12 33L14 33L14 32L15 32L15 33L17 33L17 32L16 32L16 31L15 31L15 30L16 30L16 29L15 29L15 30L14 30L14 24L15 24L15 27L16 27L16 25L17 25L17 24L18 24L18 25L19 25L19 27L18 27L18 26L17 26L17 27L18 27L18 29L20 29L20 28L19 28L19 27L21 27L21 28L22 28L22 27L23 27L23 26L25 26L25 25L22 25L22 24L23 24L23 22L22 22L22 21L23 21L23 18L25 18L25 19L24 19L24 20L25 20L25 21L24 21L24 24L27 24L27 25L26 25L26 26L27 26L27 27L26 27L26 28L25 28L25 27L24 27L24 28L23 28L23 29L22 29L22 30L21 30L21 32L19 32L19 31L20 31L20 30L19 30L19 31L18 31L18 30L17 30L17 31L18 31L18 33L21 33L21 34L20 34L20 35L22 35L22 34L23 34L23 35L24 35L24 34L25 34L25 36L26 36L26 35L27 35L27 37L29 37L29 36L28 36L28 34L27 34L27 33L26 33L26 34L25 34L25 33L24 33L24 34L23 34L23 33L21 33L21 32L23 32L23 31L24 31L24 32L27 32L27 31L28 31L28 33L29 33L29 35L30 35L30 36L31 36L31 37L33 37L33 38L32 38L32 39L33 39L33 38L35 38L35 37L34 37L34 36L36 36L36 37L37 37L37 38L36 38L36 39L34 39L34 42L35 42L35 41L38 41L38 40L39 40L39 39L40 39L40 40L41 40L41 37L40 37L40 36L42 36L42 38L43 38L43 39L42 39L42 40L43 40L43 41L42 41L42 42L41 42L41 41L40 41L40 42L38 42L38 44L36 44L36 43L37 43L37 42L36 42L36 43L34 43L34 44L33 44L33 43L31 43L31 44L28 44L28 43L25 43L25 44L24 44L24 42L25 42L25 41L24 41L24 40L25 40L25 39L27 39L27 41L26 41L26 42L27 42L27 41L30 41L30 42L29 42L29 43L30 43L30 42L32 42L32 41L33 41L33 40L28 40L28 39L30 39L30 38L25 38L25 37L24 37L24 36L23 36L23 39L22 39L22 38L21 38L21 40L20 40L20 37L22 37L22 36L19 36L19 34L18 34L18 35L17 35L17 34L15 34L15 35L12 35L12 34L11 34L11 35L12 35L12 36L11 36L11 37L10 37L10 38L12 38L12 36L13 36L13 37L14 37L14 36L15 36L15 39L14 39L14 42L15 42L15 41L17 41L17 42L16 42L16 43L17 43L17 42L18 42L18 43L19 43L19 44L18 44L18 45L19 45L19 46L18 46L18 47L19 47L19 48L20 48L20 49L21 49L21 50L22 50L22 51L19 51L19 52L20 52L20 53L18 53L18 54L19 54L19 55L21 55L21 56L22 56L22 53L23 53L23 56L25 56L25 53L27 53L27 52L28 52L28 53L30 53L30 54L31 54L31 52L32 52L32 53L33 53L33 52L35 52L35 51L33 51L33 50L32 50L32 49L34 49L34 48L36 48L36 49L35 49L35 50L36 50L36 51L40 51L40 52L41 52L41 51L40 51L40 50L41 50L41 49L42 49L42 50L44 50L44 48L45 48L45 49L46 49L46 48L45 48L45 47L44 47L44 48L43 48L43 49L42 49L42 48L41 48L41 47L42 47L42 46L44 46L44 44L45 44L45 46L46 46L46 47L47 47L47 50L46 50L46 51L42 51L42 52L43 52L43 53L41 53L41 54L40 54L40 53L39 53L39 52L36 52L36 54L35 54L35 53L34 53L34 54L35 54L35 55L36 55L36 54L38 54L38 55L37 55L37 56L39 56L39 54L40 54L40 56L41 56L41 55L42 55L42 54L43 54L43 53L44 53L44 54L45 54L45 53L47 53L47 52L46 52L46 51L48 51L48 49L49 49L49 52L48 52L48 54L49 54L49 53L50 53L50 51L51 51L51 50L52 50L52 52L53 52L53 50L55 50L55 48L56 48L56 45L57 45L57 44L56 44L56 43L54 43L54 42L55 42L55 40L56 40L56 39L54 39L54 38L56 38L56 37L54 37L54 35L52 35L52 34L55 34L55 33L52 33L52 32L51 32L51 34L50 34L50 35L49 35L49 34L48 34L48 35L47 35L47 34L44 34L44 32L45 32L45 33L49 33L49 32L46 32L46 31L48 31L48 30L49 30L49 28L48 28L48 27L47 27L47 26L49 26L49 25L51 25L51 23L52 23L52 24L53 24L53 22L50 22L50 20L46 20L46 19L49 19L49 17L50 17L50 16L48 16L48 18L46 18L46 17L47 17L47 14L48 14L48 13L49 13L49 12L48 12L48 13L47 13L47 12L46 12L46 11L47 11L47 10L46 10L46 8L45 8L45 6L44 6L44 7L43 7L43 6ZM48 6L48 7L49 7L49 6ZM56 6L56 7L57 7L57 6ZM15 7L15 8L14 8L14 9L15 9L15 11L14 11L14 12L13 12L13 13L12 13L12 14L14 14L14 12L16 12L16 13L15 13L15 16L17 16L17 13L19 13L19 14L18 14L18 17L21 17L21 14L24 14L24 13L22 13L22 12L21 12L21 11L20 11L20 12L21 12L21 13L19 13L19 10L18 10L18 9L19 9L19 8L16 8L16 7ZM44 8L44 9L45 9L45 8ZM9 9L9 10L10 10L10 9ZM16 9L16 10L17 10L17 11L18 11L18 10L17 10L17 9ZM33 9L33 10L35 10L35 9ZM56 9L56 10L57 10L57 9ZM2 10L2 11L3 11L3 10ZM9 11L9 12L8 12L8 13L6 13L6 14L9 14L9 12L10 12L10 11ZM30 11L30 12L31 12L31 11ZM60 11L60 12L61 12L61 11ZM43 12L43 14L42 14L42 16L43 16L43 17L44 17L44 18L42 18L42 17L41 17L41 18L40 18L40 19L39 19L39 21L38 21L38 18L36 18L36 20L35 20L35 19L33 19L33 20L32 20L32 17L33 17L33 16L34 16L34 15L33 15L33 16L30 16L30 17L27 17L27 16L26 16L26 17L27 17L27 18L30 18L30 19L31 19L31 20L29 20L29 19L28 19L28 20L29 20L29 21L28 21L28 23L27 23L27 19L26 19L26 22L25 22L25 23L27 23L27 24L29 24L29 25L28 25L28 27L27 27L27 28L26 28L26 29L27 29L27 30L25 30L25 31L27 31L27 30L28 30L28 31L29 31L29 30L30 30L30 29L31 29L31 30L32 30L32 29L33 29L33 30L35 30L35 35L36 35L36 36L37 36L37 37L38 37L38 38L40 38L40 37L38 37L38 36L39 36L39 35L41 35L41 33L42 33L42 32L44 32L44 31L43 31L43 30L45 30L45 28L46 28L46 30L48 30L48 29L47 29L47 27L46 27L46 26L47 26L47 25L46 25L46 26L44 26L44 27L43 27L43 26L42 26L42 24L39 24L39 23L38 23L38 22L39 22L39 21L41 21L41 22L40 22L40 23L43 23L43 24L44 24L44 25L45 25L45 24L44 24L44 22L47 22L47 21L46 21L46 20L44 20L44 22L42 22L42 21L43 21L43 20L42 20L42 19L45 19L45 16L44 16L44 15L45 15L45 14L47 14L47 13L45 13L45 12ZM0 13L0 15L1 15L1 13ZM44 13L44 14L45 14L45 13ZM19 14L19 15L20 15L20 14ZM54 14L54 15L55 15L55 14ZM60 15L60 16L61 16L61 15ZM0 16L0 17L1 17L1 16ZM2 16L2 17L3 17L3 16ZM30 17L30 18L31 18L31 17ZM56 18L56 21L58 21L58 20L57 20L57 19L59 19L59 18ZM2 19L2 20L3 20L3 19ZM13 19L13 20L12 20L12 22L13 22L13 21L14 21L14 23L13 23L13 24L12 24L12 23L11 23L11 24L12 24L12 25L13 25L13 24L14 24L14 23L15 23L15 24L16 24L16 23L15 23L15 22L16 22L16 21L14 21L14 19ZM40 19L40 20L41 20L41 19ZM21 20L21 21L20 21L20 22L18 22L18 21L17 21L17 22L18 22L18 23L19 23L19 25L20 25L20 26L21 26L21 27L22 27L22 26L21 26L21 25L20 25L20 24L21 24L21 23L20 23L20 22L21 22L21 21L22 21L22 20ZM34 20L34 21L35 21L35 20ZM36 20L36 21L37 21L37 20ZM29 21L29 22L30 22L30 24L33 24L33 23L35 23L35 22L33 22L33 21L31 21L31 22L30 22L30 21ZM48 21L48 22L49 22L49 23L46 23L46 24L50 24L50 22L49 22L49 21ZM31 22L31 23L32 23L32 22ZM8 23L8 24L9 24L9 23ZM58 23L58 24L59 24L59 23ZM35 24L35 26L34 26L34 25L32 25L32 26L33 26L33 27L32 27L32 28L31 28L31 27L30 27L30 28L31 28L31 29L32 29L32 28L35 28L35 30L36 30L36 31L37 31L37 32L36 32L36 33L37 33L37 32L39 32L39 31L40 31L40 32L42 32L42 31L40 31L40 30L41 30L41 29L39 29L39 28L42 28L42 30L43 30L43 27L39 27L39 26L40 26L40 25L39 25L39 24L38 24L38 25L37 25L37 24ZM36 25L36 26L35 26L35 28L37 28L37 29L36 29L36 30L37 30L37 31L38 31L38 30L39 30L39 29L38 29L38 28L39 28L39 27L36 27L36 26L37 26L37 25ZM38 25L38 26L39 26L39 25ZM52 26L52 27L53 27L53 26ZM3 27L3 28L4 28L4 27ZM28 27L28 28L27 28L27 29L29 29L29 27ZM44 27L44 28L45 28L45 27ZM58 28L58 30L59 30L59 28ZM0 29L0 31L1 31L1 30L2 30L2 29ZM23 29L23 30L22 30L22 31L23 31L23 30L24 30L24 29ZM37 29L37 30L38 30L38 29ZM3 31L3 32L4 32L4 31ZM5 31L5 34L8 34L8 31ZM31 31L31 34L34 34L34 31ZM57 31L57 34L60 34L60 31ZM6 32L6 33L7 33L7 32ZM29 32L29 33L30 33L30 32ZM32 32L32 33L33 33L33 32ZM58 32L58 33L59 33L59 32ZM1 33L1 34L3 34L3 33ZM61 33L61 35L62 35L62 36L63 36L63 35L62 35L62 34L63 34L63 33ZM36 34L36 35L37 35L37 34ZM38 34L38 35L39 35L39 34ZM42 34L42 36L44 36L44 37L43 37L43 38L44 38L44 39L46 39L46 38L47 38L47 40L49 40L49 41L46 41L46 42L44 42L44 41L45 41L45 40L44 40L44 41L43 41L43 42L42 42L42 43L41 43L41 42L40 42L40 43L39 43L39 44L38 44L38 46L37 46L37 47L36 47L36 48L37 48L37 50L40 50L40 49L41 49L41 48L39 48L39 47L40 47L40 45L43 45L43 44L44 44L44 43L46 43L46 44L47 44L47 45L46 45L46 46L47 46L47 45L48 45L48 44L49 44L49 46L48 46L48 48L49 48L49 49L50 49L50 50L51 50L51 49L50 49L50 48L51 48L51 47L49 47L49 46L51 46L51 45L50 45L50 43L48 43L48 42L49 42L49 41L50 41L50 42L51 42L51 41L50 41L50 40L51 40L51 39L50 39L50 38L51 38L51 37L53 37L53 36L51 36L51 37L50 37L50 36L49 36L49 35L48 35L48 36L49 36L49 37L47 37L47 35L45 35L45 36L44 36L44 35L43 35L43 34ZM6 35L6 36L7 36L7 35ZM16 35L16 36L17 36L17 37L16 37L16 39L15 39L15 40L16 40L16 39L17 39L17 40L18 40L18 39L19 39L19 38L18 38L18 39L17 39L17 37L18 37L18 36L17 36L17 35ZM31 35L31 36L33 36L33 35ZM2 37L2 38L3 38L3 40L2 40L2 39L1 39L1 40L2 40L2 41L3 41L3 40L4 40L4 39L5 39L5 40L8 40L8 39L6 39L6 38L7 38L7 37L5 37L5 38L3 38L3 37ZM44 37L44 38L45 38L45 37ZM49 37L49 38L48 38L48 39L49 39L49 38L50 38L50 37ZM52 38L52 39L53 39L53 38ZM10 39L10 40L11 40L11 41L10 41L10 42L9 42L9 43L10 43L10 46L9 46L9 47L7 47L7 46L8 46L8 45L9 45L9 44L8 44L8 42L6 42L6 43L5 43L5 44L6 44L6 45L5 45L5 46L4 46L4 47L7 47L7 48L5 48L5 49L7 49L7 48L9 48L9 47L11 47L11 49L12 49L12 47L11 47L11 46L12 46L12 45L11 45L11 43L13 43L13 39ZM36 39L36 40L37 40L37 39ZM64 39L64 40L65 40L65 39ZM19 40L19 41L18 41L18 42L19 42L19 43L20 43L20 44L19 44L19 45L21 45L21 44L22 44L22 45L24 45L24 46L23 46L23 47L21 47L21 49L23 49L23 47L24 47L24 49L25 49L25 48L26 48L26 49L27 49L27 50L28 50L28 51L29 51L29 52L30 52L30 51L31 51L31 49L30 49L30 48L29 48L29 46L30 46L30 47L32 47L32 48L34 48L34 47L35 47L35 46L33 46L33 45L32 45L32 44L31 44L31 46L30 46L30 45L27 45L27 44L26 44L26 45L24 45L24 44L22 44L22 43L21 43L21 42L22 42L22 41L23 41L23 40L21 40L21 41L20 41L20 40ZM52 40L52 41L53 41L53 40ZM19 41L19 42L20 42L20 41ZM10 42L10 43L11 43L11 42ZM46 42L46 43L47 43L47 42ZM52 42L52 43L51 43L51 44L52 44L52 45L56 45L56 44L54 44L54 43L53 43L53 42ZM6 43L6 44L7 44L7 43ZM40 43L40 44L41 44L41 43ZM42 43L42 44L43 44L43 43ZM52 43L52 44L53 44L53 43ZM58 43L58 45L59 45L59 43ZM60 43L60 44L61 44L61 43ZM1 44L1 46L2 46L2 44ZM34 44L34 45L35 45L35 44ZM6 45L6 46L7 46L7 45ZM26 45L26 46L27 46L27 47L26 47L26 48L28 48L28 49L29 49L29 48L28 48L28 46L27 46L27 45ZM19 46L19 47L20 47L20 46ZM38 46L38 47L39 47L39 46ZM52 46L52 47L53 47L53 48L52 48L52 50L53 50L53 48L55 48L55 46L54 46L54 47L53 47L53 46ZM1 48L1 50L0 50L0 51L1 51L1 50L2 50L2 48ZM14 48L14 51L15 51L15 48ZM38 48L38 49L39 49L39 48ZM23 50L23 51L24 51L24 52L23 52L23 53L25 53L25 52L26 52L26 51L24 51L24 50ZM29 50L29 51L30 51L30 50ZM3 51L3 54L4 54L4 52L5 52L5 54L7 54L7 53L6 53L6 52L8 52L8 51L6 51L6 52L5 52L5 51ZM54 51L54 52L56 52L56 51ZM58 51L58 52L57 52L57 53L56 53L56 55L55 55L55 56L53 56L53 55L52 55L52 56L53 56L53 58L55 58L55 56L56 56L56 55L57 55L57 54L59 54L59 53L58 53L58 52L59 52L59 51ZM21 52L21 53L20 53L20 54L21 54L21 53L22 53L22 52ZM44 52L44 53L45 53L45 52ZM38 53L38 54L39 54L39 53ZM53 53L53 54L55 54L55 53ZM50 54L50 55L51 55L51 54ZM26 55L26 56L27 56L27 55ZM44 55L44 56L45 56L45 55ZM12 57L12 58L13 58L13 57ZM31 57L31 60L34 60L34 57ZM42 57L42 58L43 58L43 57ZM57 57L57 60L60 60L60 57ZM15 58L15 60L16 60L16 59L17 59L17 58ZM22 58L22 59L23 59L23 58ZM24 58L24 59L25 59L25 58ZM32 58L32 59L33 59L33 58ZM50 58L50 60L51 60L51 62L50 62L50 63L51 63L51 62L52 62L52 60L53 60L53 59L51 59L51 58ZM58 58L58 59L59 59L59 58ZM54 59L54 60L55 60L55 59ZM8 60L8 65L9 65L9 62L10 62L10 64L11 64L11 63L12 63L12 65L14 65L14 64L13 64L13 63L14 63L14 62L16 62L16 61L14 61L14 60ZM11 61L11 62L12 62L12 63L13 63L13 62L14 62L14 61L13 61L13 62L12 62L12 61ZM23 61L23 62L24 62L24 61ZM25 61L25 62L26 62L26 61ZM34 61L34 62L35 62L35 63L36 63L36 62L35 62L35 61ZM58 61L58 62L59 62L59 61ZM48 62L48 63L49 63L49 62ZM40 63L40 64L41 64L41 63ZM62 63L62 64L63 64L63 63ZM20 64L20 65L21 65L21 64ZM0 0L0 7L7 7L7 0ZM1 1L1 6L6 6L6 1ZM2 2L2 5L5 5L5 2ZM58 0L58 7L65 7L65 0ZM59 1L59 6L64 6L64 1ZM60 2L60 5L63 5L63 2ZM0 58L0 65L7 65L7 58ZM1 59L1 64L6 64L6 59ZM2 60L2 63L5 63L5 60Z" fill="#000000"/></g></g></svg>
