<?xml version="1.0" encoding="UTF-8"?>
<svg xmlns="http://www.w3.org/2000/svg" version="1.1" width="300" height="300" viewBox="0 0 300 300"><rect x="0" y="0" width="300" height="300" fill="#ffffff"/><g transform="scale(4.615)"><g transform="translate(0,0)"><path fill-rule="evenodd" d="M11 0L11 1L12 1L12 0ZM16 0L16 2L18 2L18 0ZM22 0L22 2L21 2L21 1L20 1L20 4L18 4L18 3L16 3L16 4L15 4L15 5L17 5L17 4L18 4L18 7L17 7L17 6L16 6L16 7L15 7L15 6L14 6L14 5L13 5L13 6L12 6L12 7L13 7L13 8L11 8L11 9L9 9L9 8L10 8L10 7L11 7L11 6L10 6L10 7L9 7L9 5L8 5L8 7L9 7L9 8L6 8L6 9L9 9L9 10L10 10L10 12L9 12L9 11L8 11L8 13L7 13L7 12L5 12L5 13L4 13L4 14L3 14L3 13L2 13L2 11L3 11L3 12L4 12L4 10L5 10L5 11L7 11L7 10L5 10L5 8L0 8L0 10L1 10L1 11L0 11L0 16L1 16L1 17L2 17L2 18L3 18L3 17L5 17L5 15L4 15L4 14L5 14L5 13L7 13L7 14L6 14L6 15L7 15L7 16L6 16L6 17L7 17L7 18L6 18L6 19L5 19L5 18L4 18L4 19L3 19L3 20L2 20L2 19L1 19L1 20L2 20L2 21L0 21L0 22L1 22L1 23L0 23L0 26L1 26L1 27L0 27L0 28L1 28L1 27L2 27L2 26L3 26L3 28L2 28L2 29L4 29L4 30L2 30L2 32L3 32L3 34L2 34L2 35L3 35L3 36L4 36L4 38L5 38L5 39L3 39L3 40L4 40L4 41L3 41L3 42L4 42L4 43L3 43L3 44L2 44L2 45L1 45L1 47L3 47L3 48L1 48L1 49L0 49L0 50L1 50L1 52L0 52L0 53L1 53L1 54L2 54L2 55L3 55L3 56L1 56L1 55L0 55L0 56L1 56L1 57L3 57L3 56L4 56L4 57L5 57L5 56L4 56L4 54L5 54L5 55L9 55L9 56L6 56L6 57L8 57L8 59L9 59L9 60L8 60L8 65L9 65L9 64L11 64L11 65L12 65L12 63L11 63L11 62L12 62L12 60L10 60L10 59L9 59L9 58L10 58L10 57L11 57L11 59L12 59L12 58L13 58L13 55L12 55L12 57L11 57L11 56L10 56L10 54L11 54L11 53L12 53L12 52L11 52L11 51L13 51L13 47L12 47L12 49L11 49L11 44L9 44L9 45L8 45L8 46L6 46L6 47L8 47L8 49L7 49L7 48L6 48L6 49L5 49L5 44L4 44L4 43L5 43L5 42L4 42L4 41L8 41L8 42L9 42L9 40L10 40L10 41L11 41L11 40L12 40L12 39L15 39L15 38L16 38L16 39L17 39L17 40L16 40L16 41L17 41L17 40L18 40L18 41L19 41L19 42L20 42L20 43L21 43L21 44L22 44L22 43L23 43L23 45L22 45L22 46L21 46L21 48L20 48L20 49L19 49L19 47L20 47L20 46L19 46L19 47L18 47L18 46L17 46L17 47L18 47L18 49L19 49L19 50L18 50L18 51L17 51L17 50L16 50L16 51L17 51L17 52L16 52L16 53L15 53L15 56L14 56L14 59L13 59L13 62L14 62L14 64L13 64L13 65L14 65L14 64L15 64L15 63L16 63L16 65L19 65L19 64L20 64L20 65L21 65L21 63L23 63L23 65L24 65L24 63L23 63L23 62L24 62L24 61L26 61L26 62L27 62L27 61L29 61L29 60L28 60L28 59L29 59L29 58L27 58L27 57L30 57L30 61L31 61L31 62L30 62L30 63L32 63L32 64L33 64L33 65L35 65L35 64L36 64L36 65L37 65L37 64L36 64L36 63L35 63L35 62L34 62L34 61L35 61L35 59L36 59L36 58L37 58L37 59L38 59L38 60L36 60L36 61L37 61L37 62L38 62L38 65L39 65L39 63L40 63L40 64L41 64L41 63L42 63L42 64L43 64L43 65L44 65L44 64L46 64L46 65L52 65L52 64L54 64L54 65L55 65L55 64L56 64L56 65L61 65L61 64L62 64L62 65L63 65L63 64L64 64L64 61L65 61L65 59L64 59L64 58L65 58L65 56L64 56L64 54L65 54L65 53L63 53L63 52L64 52L64 50L65 50L65 49L64 49L64 48L62 48L62 46L61 46L61 45L60 45L60 44L61 44L61 43L60 43L60 44L59 44L59 43L58 43L58 45L57 45L57 46L56 46L56 45L54 45L54 44L57 44L57 42L62 42L62 41L64 41L64 42L65 42L65 41L64 41L64 40L65 40L65 39L63 39L63 40L62 40L62 38L63 38L63 37L64 37L64 38L65 38L65 37L64 37L64 36L65 36L65 35L64 35L64 34L65 34L65 32L62 32L62 31L63 31L63 30L62 30L62 29L64 29L64 28L65 28L65 27L64 27L64 28L62 28L62 27L63 27L63 26L65 26L65 25L63 25L63 24L62 24L62 23L63 23L63 22L65 22L65 19L64 19L64 18L65 18L65 15L64 15L64 16L62 16L62 15L63 15L63 14L62 14L62 15L61 15L61 14L60 14L60 15L59 15L59 14L57 14L57 15L54 15L54 16L56 16L56 17L53 17L53 18L56 18L56 19L59 19L59 18L58 18L58 16L57 16L57 15L59 15L59 16L60 16L60 17L61 17L61 16L62 16L62 18L61 18L61 19L63 19L63 20L62 20L62 21L63 21L63 22L62 22L62 23L61 23L61 24L60 24L60 26L58 26L58 25L57 25L57 23L58 23L58 24L59 24L59 22L61 22L61 20L59 20L59 22L57 22L57 23L54 23L54 24L56 24L56 25L54 25L54 26L53 26L53 25L52 25L52 24L53 24L53 23L52 23L52 22L50 22L50 20L48 20L48 19L49 19L49 18L48 18L48 19L47 19L47 18L46 18L46 20L45 20L45 18L43 18L43 16L42 16L42 14L44 14L44 16L45 16L45 17L47 17L47 16L48 16L48 17L49 17L49 16L51 16L51 17L52 17L52 16L53 16L53 15L52 15L52 14L53 14L53 13L54 13L54 14L56 14L56 13L57 13L57 12L58 12L58 11L59 11L59 10L58 10L58 11L57 11L57 12L56 12L56 9L58 9L58 8L55 8L55 5L54 5L54 4L56 4L56 5L57 5L57 4L56 4L56 3L57 3L57 1L56 1L56 0L55 0L55 1L56 1L56 3L55 3L55 2L54 2L54 3L53 3L53 2L52 2L52 1L50 1L50 2L51 2L51 5L50 5L50 4L49 4L49 3L47 3L47 1L46 1L46 0L44 0L44 1L45 1L45 2L44 2L44 3L43 3L43 2L42 2L42 1L43 1L43 0L41 0L41 1L38 1L38 0L37 0L37 1L36 1L36 2L35 2L35 1L34 1L34 2L35 2L35 3L36 3L36 4L37 4L37 6L36 6L36 7L35 7L35 4L30 4L30 7L29 7L29 5L27 5L27 6L26 6L26 8L27 8L27 9L22 9L22 7L23 7L23 8L25 8L25 5L26 5L26 2L27 2L27 0L26 0L26 1L25 1L25 0ZM30 0L30 1L32 1L32 3L33 3L33 0ZM53 0L53 1L54 1L54 0ZM8 1L8 2L9 2L9 3L8 3L8 4L9 4L9 3L10 3L10 5L12 5L12 3L11 3L11 2L10 2L10 1ZM13 1L13 3L15 3L15 2L14 2L14 1ZM23 1L23 4L22 4L22 3L21 3L21 4L20 4L20 5L19 5L19 9L18 9L18 10L17 10L17 9L16 9L16 8L15 8L15 9L14 9L14 11L15 11L15 10L16 10L16 12L13 12L13 9L12 9L12 11L11 11L11 12L13 12L13 13L11 13L11 14L12 14L12 15L11 15L11 16L9 16L9 15L10 15L10 13L8 13L8 14L9 14L9 15L8 15L8 16L7 16L7 17L8 17L8 18L7 18L7 19L6 19L6 20L7 20L7 21L4 21L4 23L5 23L5 22L7 22L7 23L6 23L6 24L7 24L7 25L6 25L6 26L4 26L4 25L5 25L5 24L3 24L3 26L4 26L4 27L5 27L5 28L7 28L7 27L6 27L6 26L8 26L8 29L6 29L6 30L9 30L9 31L10 31L10 34L9 34L9 35L10 35L10 36L9 36L9 38L10 38L10 39L11 39L11 38L13 38L13 37L12 37L12 36L13 36L13 33L11 33L11 31L10 31L10 30L11 30L11 29L12 29L12 30L14 30L14 31L12 31L12 32L14 32L14 31L15 31L15 33L14 33L14 37L15 37L15 36L16 36L16 34L18 34L18 35L17 35L17 36L18 36L18 37L16 37L16 38L18 38L18 37L20 37L20 38L21 38L21 37L22 37L22 38L23 38L23 37L22 37L22 36L21 36L21 37L20 37L20 36L19 36L19 35L22 35L22 33L23 33L23 31L24 31L24 33L25 33L25 34L26 34L26 33L27 33L27 36L31 36L31 37L25 37L25 36L26 36L26 35L24 35L24 34L23 34L23 35L24 35L24 37L25 37L25 39L23 39L23 40L22 40L22 41L25 41L25 42L24 42L24 43L25 43L25 46L26 46L26 48L24 48L24 47L23 47L23 46L24 46L24 45L23 45L23 46L22 46L22 47L23 47L23 48L21 48L21 49L20 49L20 51L19 51L19 52L22 52L22 53L20 53L20 54L19 54L19 55L18 55L18 54L17 54L17 53L18 53L18 52L17 52L17 53L16 53L16 54L17 54L17 56L21 56L21 57L20 57L20 58L19 58L19 57L18 57L18 58L17 58L17 57L16 57L16 58L15 58L15 60L16 60L16 61L14 61L14 62L16 62L16 61L18 61L18 62L17 62L17 64L19 64L19 63L20 63L20 62L19 62L19 61L21 61L21 60L22 60L22 61L24 61L24 59L25 59L25 60L26 60L26 61L27 61L27 60L26 60L26 59L27 59L27 58L26 58L26 57L27 57L27 55L25 55L25 54L23 54L23 53L26 53L26 54L30 54L30 56L32 56L32 55L33 55L33 56L34 56L34 55L35 55L35 57L36 57L36 56L37 56L37 57L38 57L38 58L39 58L39 57L38 57L38 56L39 56L39 55L40 55L40 54L42 54L42 55L41 55L41 56L40 56L40 57L41 57L41 58L42 58L42 59L41 59L41 60L40 60L40 61L43 61L43 60L44 60L44 61L45 61L45 62L42 62L42 63L43 63L43 64L44 64L44 63L46 63L46 64L47 64L47 63L46 63L46 62L47 62L47 61L45 61L45 60L44 60L44 59L46 59L46 60L47 60L47 59L48 59L48 60L49 60L49 63L48 63L48 64L49 64L49 63L50 63L50 62L51 62L51 63L53 63L53 60L52 60L52 62L51 62L51 60L49 60L49 59L48 59L48 58L49 58L49 57L50 57L50 58L51 58L51 59L52 59L52 57L55 57L55 58L53 58L53 59L55 59L55 60L56 60L56 59L55 59L55 58L56 58L56 56L58 56L58 55L60 55L60 56L61 56L61 60L64 60L64 59L62 59L62 58L63 58L63 57L64 57L64 56L63 56L63 53L62 53L62 52L63 52L63 51L62 51L62 52L61 52L61 50L63 50L63 49L62 49L62 48L61 48L61 46L59 46L59 45L58 45L58 46L57 46L57 48L55 48L55 49L56 49L56 50L52 50L52 51L53 51L53 52L51 52L51 51L50 51L50 50L51 50L51 49L50 49L50 50L49 50L49 49L46 49L46 47L45 47L45 44L44 44L44 47L43 47L43 46L42 46L42 45L43 45L43 44L42 44L42 43L43 43L43 42L45 42L45 43L46 43L46 42L47 42L47 41L46 41L46 42L45 42L45 40L44 40L44 38L45 38L45 37L46 37L46 38L47 38L47 37L46 37L46 36L44 36L44 35L45 35L45 34L48 34L48 32L49 32L49 33L50 33L50 34L51 34L51 33L50 33L50 32L52 32L52 33L53 33L53 32L56 32L56 31L55 31L55 30L57 30L57 29L56 29L56 28L58 28L58 30L61 30L61 31L62 31L62 30L61 30L61 29L62 29L62 28L61 28L61 27L62 27L62 26L63 26L63 25L62 25L62 24L61 24L61 27L60 27L60 28L61 28L61 29L59 29L59 28L58 28L58 27L55 27L55 26L54 26L54 27L53 27L53 26L51 26L51 24L49 24L49 21L48 21L48 23L47 23L47 24L46 24L46 22L47 22L47 20L46 20L46 21L45 21L45 20L44 20L44 19L43 19L43 18L42 18L42 17L41 17L41 16L39 16L39 15L41 15L41 14L40 14L40 13L41 13L41 12L39 12L39 11L40 11L40 9L41 9L41 8L40 8L40 6L41 6L41 7L42 7L42 9L43 9L43 8L44 8L44 9L45 9L45 10L44 10L44 11L43 11L43 10L42 10L42 13L43 13L43 12L44 12L44 14L45 14L45 12L46 12L46 14L47 14L47 15L46 15L46 16L47 16L47 15L48 15L48 16L49 16L49 15L48 15L48 14L51 14L51 13L53 13L53 12L54 12L54 13L55 13L55 10L54 10L54 8L52 8L52 5L53 5L53 3L52 3L52 5L51 5L51 8L50 8L50 9L49 9L49 10L47 10L47 8L49 8L49 7L50 7L50 5L49 5L49 4L47 4L47 3L46 3L46 2L45 2L45 3L44 3L44 5L40 5L40 6L39 6L39 7L38 7L38 6L37 6L37 7L36 7L36 8L37 8L37 7L38 7L38 10L37 10L37 9L33 9L33 10L35 10L35 11L34 11L34 12L32 12L32 9L31 9L31 12L30 12L30 10L29 10L29 9L28 9L28 11L27 11L27 10L26 10L26 11L25 11L25 10L22 10L22 11L23 11L23 12L21 12L21 9L20 9L20 8L21 8L21 7L22 7L22 6L23 6L23 7L24 7L24 4L25 4L25 3L24 3L24 2L25 2L25 1ZM28 1L28 2L29 2L29 1ZM37 1L37 2L36 2L36 3L37 3L37 2L38 2L38 1ZM30 2L30 3L31 3L31 2ZM39 2L39 4L38 4L38 5L39 5L39 4L41 4L41 3L42 3L42 2L41 2L41 3L40 3L40 2ZM27 3L27 4L29 4L29 3ZM21 4L21 5L20 5L20 7L21 7L21 5L22 5L22 4ZM45 4L45 5L44 5L44 8L46 8L46 7L47 7L47 5L46 5L46 4ZM31 5L31 8L34 8L34 5ZM48 5L48 7L49 7L49 5ZM13 6L13 7L14 7L14 6ZM27 6L27 7L28 7L28 8L29 8L29 7L28 7L28 6ZM32 6L32 7L33 7L33 6ZM42 6L42 7L43 7L43 6ZM45 6L45 7L46 7L46 6ZM53 6L53 7L54 7L54 6ZM56 6L56 7L57 7L57 6ZM59 8L59 9L60 9L60 8ZM61 8L61 10L60 10L60 11L61 11L61 12L59 12L59 13L63 13L63 12L62 12L62 11L63 11L63 9L64 9L64 10L65 10L65 9L64 9L64 8L63 8L63 9L62 9L62 8ZM2 9L2 10L4 10L4 9ZM19 9L19 10L20 10L20 9ZM51 9L51 10L50 10L50 11L52 11L52 12L53 12L53 11L52 11L52 10L53 10L53 9ZM36 10L36 11L35 11L35 12L34 12L34 13L35 13L35 14L33 14L33 13L32 13L32 12L31 12L31 13L30 13L30 14L31 14L31 13L32 13L32 14L33 14L33 15L32 15L32 16L35 16L35 14L36 14L36 15L37 15L37 14L38 14L38 15L39 15L39 14L38 14L38 13L39 13L39 12L36 12L36 11L37 11L37 10ZM38 10L38 11L39 11L39 10ZM45 10L45 11L44 11L44 12L45 12L45 11L47 11L47 13L49 13L49 12L48 12L48 11L47 11L47 10ZM17 11L17 12L16 12L16 13L13 13L13 15L12 15L12 16L11 16L11 17L9 17L9 16L8 16L8 17L9 17L9 20L10 20L10 18L13 18L13 17L15 17L15 18L16 18L16 19L17 19L17 20L18 20L18 21L17 21L17 22L18 22L18 23L19 23L19 24L16 24L16 23L14 23L14 24L13 24L13 23L7 23L7 24L8 24L8 25L9 25L9 24L12 24L12 25L19 25L19 26L18 26L18 27L17 27L17 26L15 26L15 28L13 28L13 27L14 27L14 26L13 26L13 27L12 27L12 26L11 26L11 25L10 25L10 26L11 26L11 27L10 27L10 29L9 29L9 30L10 30L10 29L11 29L11 27L12 27L12 28L13 28L13 29L14 29L14 30L15 30L15 31L16 31L16 33L17 33L17 29L19 29L19 30L18 30L18 33L19 33L19 32L20 32L20 33L21 33L21 30L24 30L24 29L25 29L25 33L26 33L26 32L27 32L27 33L29 33L29 35L31 35L31 36L32 36L32 37L31 37L31 39L30 39L30 38L28 38L28 39L30 39L30 40L27 40L27 39L25 39L25 40L27 40L27 41L26 41L26 44L27 44L27 45L26 45L26 46L27 46L27 45L30 45L30 46L28 46L28 47L27 47L27 48L28 48L28 49L30 49L30 50L29 50L29 51L28 51L28 50L27 50L27 49L26 49L26 50L27 50L27 51L28 51L28 53L29 53L29 51L30 51L30 50L31 50L31 52L32 52L32 53L31 53L31 55L32 55L32 53L33 53L33 54L36 54L36 55L39 55L39 54L37 54L37 52L35 52L35 51L33 51L33 50L36 50L36 51L39 51L39 52L38 52L38 53L40 53L40 52L41 52L41 51L40 51L40 50L41 50L41 49L42 49L42 50L44 50L44 52L43 52L43 53L42 53L42 54L43 54L43 55L42 55L42 56L43 56L43 55L44 55L44 56L45 56L45 58L46 58L46 59L47 59L47 58L48 58L48 57L49 57L49 56L47 56L47 54L46 54L46 55L44 55L44 54L45 54L45 53L49 53L49 54L48 54L48 55L49 55L49 54L50 54L50 55L51 55L51 56L50 56L50 57L51 57L51 56L53 56L53 55L52 55L52 54L56 54L56 55L54 55L54 56L56 56L56 55L57 55L57 54L59 54L59 53L58 53L58 52L59 52L59 51L58 51L58 50L59 50L59 49L58 49L58 48L60 48L60 47L58 47L58 48L57 48L57 51L54 51L54 52L56 52L56 53L51 53L51 54L50 54L50 53L49 53L49 52L50 52L50 51L49 51L49 50L48 50L48 51L47 51L47 50L44 50L44 48L45 48L45 47L44 47L44 48L43 48L43 49L42 49L42 48L41 48L41 46L40 46L40 44L41 44L41 45L42 45L42 44L41 44L41 43L40 43L40 42L41 42L41 41L39 41L39 42L38 42L38 43L39 43L39 44L38 44L38 45L37 45L37 44L35 44L35 43L36 43L36 42L37 42L37 40L38 40L38 39L39 39L39 40L42 40L42 42L43 42L43 39L42 39L42 38L44 38L44 36L43 36L43 35L42 35L42 34L44 34L44 32L46 32L46 33L47 33L47 32L46 32L46 31L48 31L48 30L46 30L46 29L47 29L47 28L46 28L46 27L47 27L47 26L46 26L46 24L45 24L45 23L42 23L42 24L43 24L43 25L39 25L39 24L41 24L41 21L40 21L40 20L42 20L42 22L45 22L45 21L44 21L44 20L42 20L42 19L40 19L40 18L41 18L41 17L39 17L39 18L38 18L38 16L36 16L36 18L34 18L34 17L33 17L33 18L31 18L31 17L30 17L30 16L31 16L31 15L29 15L29 14L27 14L27 13L26 13L26 14L27 14L27 17L26 17L26 15L25 15L25 11L24 11L24 12L23 12L23 13L22 13L22 14L21 14L21 15L22 15L22 16L23 16L23 15L24 15L24 16L25 16L25 17L24 17L24 18L23 18L23 17L21 17L21 16L19 16L19 15L20 15L20 14L18 14L18 15L17 15L17 16L13 16L13 15L15 15L15 14L17 14L17 13L20 13L20 12L19 12L19 11ZM28 11L28 13L29 13L29 11ZM50 12L50 13L51 13L51 12ZM1 13L1 14L2 14L2 13ZM23 13L23 14L22 14L22 15L23 15L23 14L24 14L24 13ZM64 13L64 14L65 14L65 13ZM3 15L3 16L4 16L4 15ZM28 15L28 16L29 16L29 15ZM51 15L51 16L52 16L52 15ZM60 15L60 16L61 16L61 15ZM17 16L17 17L18 17L18 18L17 18L17 19L18 19L18 18L19 18L19 20L22 20L22 21L20 21L20 24L21 24L21 22L22 22L22 23L23 23L23 24L22 24L22 25L20 25L20 28L19 28L19 29L21 29L21 28L22 28L22 29L24 29L24 28L25 28L25 29L27 29L27 28L26 28L26 27L28 27L28 28L30 28L30 29L31 29L31 28L30 28L30 27L33 27L33 28L32 28L32 29L33 29L33 30L35 30L35 27L36 27L36 28L37 28L37 27L38 27L38 30L39 30L39 29L41 29L41 28L40 28L40 27L43 27L43 28L44 28L44 29L43 29L43 30L42 30L42 32L40 32L40 31L41 31L41 30L40 30L40 31L39 31L39 32L37 32L37 31L35 31L35 37L34 37L34 35L33 35L33 37L32 37L32 39L31 39L31 40L30 40L30 41L27 41L27 43L29 43L29 42L30 42L30 41L31 41L31 42L32 42L32 43L33 43L33 44L34 44L34 47L36 47L36 48L34 48L34 49L36 49L36 48L37 48L37 50L40 50L40 49L41 49L41 48L39 48L39 47L40 47L40 46L39 46L39 45L38 45L38 46L37 46L37 45L35 45L35 44L34 44L34 43L35 43L35 42L36 42L36 41L35 41L35 42L34 42L34 40L33 40L33 37L34 37L34 39L35 39L35 38L36 38L36 40L37 40L37 39L38 39L38 38L39 38L39 39L40 39L40 38L42 38L42 37L43 37L43 36L42 36L42 35L41 35L41 33L42 33L42 32L44 32L44 31L46 31L46 30L44 30L44 29L45 29L45 28L44 28L44 27L45 27L45 26L44 26L44 25L45 25L45 24L44 24L44 25L43 25L43 26L39 26L39 25L38 25L38 24L37 24L37 23L38 23L38 22L40 22L40 21L38 21L38 20L39 20L39 19L38 19L38 18L36 18L36 20L35 20L35 19L33 19L33 20L32 20L32 21L31 21L31 20L30 20L30 21L28 21L28 20L29 20L29 19L31 19L31 18L30 18L30 17L27 17L27 19L26 19L26 20L25 20L25 18L26 18L26 17L25 17L25 18L24 18L24 19L23 19L23 18L22 18L22 19L20 19L20 18L21 18L21 17L18 17L18 16ZM56 17L56 18L57 18L57 17ZM28 18L28 19L29 19L29 18ZM50 18L50 19L51 19L51 20L53 20L53 22L55 22L55 21L54 21L54 20L55 20L55 19L52 19L52 18ZM11 19L11 20L12 20L12 21L10 21L10 22L13 22L13 19ZM14 20L14 22L16 22L16 21L15 21L15 20ZM34 20L34 21L35 21L35 20ZM36 20L36 21L37 21L37 22L36 22L36 23L37 23L37 22L38 22L38 21L37 21L37 20ZM56 20L56 21L57 21L57 20ZM2 21L2 23L1 23L1 25L2 25L2 23L3 23L3 21ZM8 21L8 22L9 22L9 21ZM23 21L23 22L25 22L25 21ZM26 22L26 24L27 24L27 25L24 25L24 24L25 24L25 23L24 23L24 24L23 24L23 25L22 25L22 27L23 27L23 28L24 28L24 26L27 26L27 25L30 25L30 26L31 26L31 25L30 25L30 24L35 24L35 22L31 22L31 23L30 23L30 24L29 24L29 22L28 22L28 24L27 24L27 22ZM64 23L64 24L65 24L65 23ZM36 24L36 25L35 25L35 26L34 26L34 27L35 27L35 26L36 26L36 25L37 25L37 26L38 26L38 27L39 27L39 26L38 26L38 25L37 25L37 24ZM47 24L47 25L49 25L49 26L48 26L48 27L50 27L50 29L51 29L51 30L49 30L49 31L52 31L52 32L53 32L53 31L54 31L54 30L55 30L55 29L52 29L52 28L53 28L53 27L51 27L51 26L50 26L50 25L49 25L49 24ZM32 25L32 26L33 26L33 25ZM56 25L56 26L57 26L57 25ZM16 27L16 29L15 29L15 30L16 30L16 29L17 29L17 27ZM54 27L54 28L55 28L55 27ZM48 28L48 29L49 29L49 28ZM0 29L0 30L1 30L1 29ZM28 29L28 30L26 30L26 31L28 31L28 30L29 30L29 33L30 33L30 30L29 30L29 29ZM19 30L19 31L20 31L20 30ZM0 31L0 32L1 32L1 31ZM3 31L3 32L4 32L4 31ZM5 31L5 34L8 34L8 31ZM31 31L31 34L34 34L34 31ZM57 31L57 34L60 34L60 31ZM6 32L6 33L7 33L7 32ZM32 32L32 33L33 33L33 32ZM36 32L36 33L37 33L37 32ZM58 32L58 33L59 33L59 32ZM61 32L61 35L62 35L62 36L63 36L63 35L62 35L62 34L64 34L64 33L62 33L62 32ZM0 33L0 35L1 35L1 33ZM3 34L3 35L4 35L4 34ZM10 34L10 35L11 35L11 36L12 36L12 35L11 35L11 34ZM36 34L36 35L37 35L37 36L36 36L36 38L37 38L37 36L38 36L38 35L39 35L39 34L38 34L38 35L37 35L37 34ZM53 34L53 35L54 35L54 37L56 37L56 36L55 36L55 34ZM6 35L6 36L7 36L7 37L6 37L6 38L7 38L7 39L6 39L6 40L7 40L7 39L8 39L8 35ZM40 35L40 36L41 36L41 35ZM47 35L47 36L49 36L49 37L48 37L48 38L49 38L49 37L50 37L50 38L53 38L53 36L51 36L51 35L50 35L50 36L49 36L49 35ZM59 35L59 36L60 36L60 37L58 37L58 36L57 36L57 37L58 37L58 39L59 39L59 41L62 41L62 40L60 40L60 39L61 39L61 38L62 38L62 37L61 37L61 36L60 36L60 35ZM0 36L0 38L2 38L2 36ZM39 37L39 38L40 38L40 37ZM60 37L60 38L61 38L61 37ZM54 38L54 39L53 39L53 40L51 40L51 41L49 41L49 43L47 43L47 44L49 44L49 45L46 45L46 46L47 46L47 48L49 48L49 47L50 47L50 48L52 48L52 49L53 49L53 48L54 48L54 47L56 47L56 46L52 46L52 47L50 47L50 46L51 46L51 44L52 44L52 45L53 45L53 44L54 44L54 43L56 43L56 42L57 42L57 41L58 41L58 40L57 40L57 38L56 38L56 40L55 40L55 38ZM1 39L1 40L0 40L0 41L1 41L1 40L2 40L2 39ZM19 39L19 41L20 41L20 42L21 42L21 43L22 43L22 42L21 42L21 41L20 41L20 40L21 40L21 39ZM46 39L46 40L47 40L47 39ZM48 39L48 40L50 40L50 39ZM13 40L13 42L14 42L14 40ZM32 40L32 41L33 41L33 40ZM56 40L56 41L57 41L57 40ZM51 41L51 42L50 42L50 44L51 44L51 42L53 42L53 41ZM54 41L54 42L55 42L55 41ZM6 42L6 43L7 43L7 44L6 44L6 45L7 45L7 44L8 44L8 43L7 43L7 42ZM11 42L11 43L12 43L12 42ZM15 42L15 43L13 43L13 44L15 44L15 43L16 43L16 44L17 44L17 43L18 43L18 45L20 45L20 44L19 44L19 43L18 43L18 42L17 42L17 43L16 43L16 42ZM0 43L0 44L1 44L1 43ZM52 43L52 44L53 44L53 43ZM63 43L63 44L62 44L62 45L64 45L64 44L65 44L65 43ZM3 44L3 45L4 45L4 44ZM31 44L31 47L32 47L32 48L31 48L31 49L32 49L32 50L33 50L33 49L32 49L32 48L33 48L33 45L32 45L32 44ZM14 45L14 49L17 49L17 48L16 48L16 47L15 47L15 46L16 46L16 45ZM3 46L3 47L4 47L4 46ZM8 46L8 47L9 47L9 48L10 48L10 46ZM36 46L36 47L37 47L37 46ZM38 46L38 47L39 47L39 46ZM48 46L48 47L49 47L49 46ZM28 47L28 48L30 48L30 47ZM52 47L52 48L53 48L53 47ZM38 48L38 49L39 49L39 48ZM2 49L2 53L4 53L4 52L5 52L5 51L6 51L6 52L8 52L8 53L5 53L5 54L9 54L9 53L11 53L11 52L10 52L10 51L11 51L11 49L9 49L9 52L8 52L8 50L7 50L7 49L6 49L6 50L4 50L4 49ZM21 49L21 51L22 51L22 50L23 50L23 52L24 52L24 51L25 51L25 52L26 52L26 51L25 51L25 49L24 49L24 50L23 50L23 49ZM60 49L60 50L61 50L61 49ZM3 50L3 51L4 51L4 50ZM6 50L6 51L7 51L7 50ZM14 50L14 52L15 52L15 50ZM32 51L32 52L33 52L33 51ZM46 51L46 52L47 52L47 51ZM48 51L48 52L49 52L49 51ZM57 51L57 52L58 52L58 51ZM34 52L34 53L35 53L35 52ZM44 52L44 53L43 53L43 54L44 54L44 53L45 53L45 52ZM60 53L60 55L61 55L61 56L62 56L62 57L63 57L63 56L62 56L62 54L61 54L61 53ZM20 54L20 55L21 55L21 56L23 56L23 57L22 57L22 58L21 58L21 59L22 59L22 60L23 60L23 58L25 58L25 57L24 57L24 56L25 56L25 55L24 55L24 56L23 56L23 55L22 55L22 54ZM28 55L28 56L29 56L29 55ZM31 57L31 60L34 60L34 57ZM42 57L42 58L43 58L43 59L42 59L42 60L43 60L43 59L44 59L44 57ZM46 57L46 58L47 58L47 57ZM57 57L57 60L60 60L60 57ZM18 58L18 59L19 59L19 58ZM32 58L32 59L33 59L33 58ZM58 58L58 59L59 59L59 58ZM16 59L16 60L17 60L17 59ZM18 60L18 61L19 61L19 60ZM38 60L38 62L39 62L39 60ZM10 61L10 62L9 62L9 63L10 63L10 62L11 62L11 61ZM55 61L55 62L54 62L54 64L55 64L55 63L57 63L57 62L58 62L58 64L59 64L59 61L57 61L57 62L56 62L56 61ZM60 61L60 62L62 62L62 64L63 64L63 62L62 62L62 61ZM18 62L18 63L19 63L19 62ZM32 62L32 63L33 63L33 64L35 64L35 63L33 63L33 62ZM40 62L40 63L41 63L41 62ZM26 63L26 64L25 64L25 65L26 65L26 64L27 64L27 65L31 65L31 64L27 64L27 63ZM0 0L0 7L7 7L7 0ZM1 1L1 6L6 6L6 1ZM2 2L2 5L5 5L5 2ZM58 0L58 7L65 7L65 0ZM59 1L59 6L64 6L64 1ZM60 2L60 5L63 5L63 2ZM0 58L0 65L7 65L7 58ZM1 59L1 64L6 64L6 59ZM2 60L2 63L5 63L5 60Z" fill="#000000"/></g></g></svg>
