<?xml version="1.0" encoding="UTF-8"?>
<svg xmlns="http://www.w3.org/2000/svg" version="1.1" width="300" height="300" viewBox="0 0 300 300"><rect x="0" y="0" width="300" height="300" fill="#ffffff"/><g transform="scale(4.615)"><g transform="translate(0,0)"><path fill-rule="evenodd" d="M9 0L9 1L8 1L8 2L10 2L10 3L8 3L8 4L10 4L10 3L11 3L11 2L12 2L12 1L11 1L11 2L10 2L10 0ZM16 0L16 1L15 1L15 2L14 2L14 1L13 1L13 2L14 2L14 3L12 3L12 4L11 4L11 5L12 5L12 7L11 7L11 6L10 6L10 5L8 5L8 7L9 7L9 6L10 6L10 8L6 8L6 9L5 9L5 8L0 8L0 9L1 9L1 11L0 11L0 15L2 15L2 14L3 14L3 15L4 15L4 12L1 12L1 11L2 11L2 10L3 10L3 11L7 11L7 12L5 12L5 14L6 14L6 15L5 15L5 17L4 17L4 18L3 18L3 16L0 16L0 17L1 17L1 18L3 18L3 19L4 19L4 22L2 22L2 21L3 21L3 20L2 20L2 19L0 19L0 21L1 21L1 23L0 23L0 24L1 24L1 23L3 23L3 24L4 24L4 22L5 22L5 23L7 23L7 22L5 22L5 17L7 17L7 18L6 18L6 19L7 19L7 20L6 20L6 21L7 21L7 20L8 20L8 21L9 21L9 20L8 20L8 19L10 19L10 21L11 21L11 22L9 22L9 23L8 23L8 24L5 24L5 25L3 25L3 26L2 26L2 28L1 28L1 27L0 27L0 29L2 29L2 31L1 31L1 32L0 32L0 34L1 34L1 35L0 35L0 36L1 36L1 37L2 37L2 36L3 36L3 37L4 37L4 35L5 35L5 36L6 36L6 37L5 37L5 38L6 38L6 39L5 39L5 40L6 40L6 41L4 41L4 42L3 42L3 38L2 38L2 42L3 42L3 43L4 43L4 44L5 44L5 43L4 43L4 42L6 42L6 43L8 43L8 42L6 42L6 41L9 41L9 43L10 43L10 44L11 44L11 47L10 47L10 46L9 46L9 45L7 45L7 44L6 44L6 45L5 45L5 46L4 46L4 45L3 45L3 44L2 44L2 43L0 43L0 45L1 45L1 48L2 48L2 49L1 49L1 52L2 52L2 53L0 53L0 54L2 54L2 55L3 55L3 56L1 56L1 55L0 55L0 56L1 56L1 57L3 57L3 56L4 56L4 57L5 57L5 56L4 56L4 54L5 54L5 55L7 55L7 56L6 56L6 57L7 57L7 56L8 56L8 59L9 59L9 58L11 58L11 57L10 57L10 56L11 56L11 55L12 55L12 56L13 56L13 57L12 57L12 59L10 59L10 60L14 60L14 59L15 59L15 60L16 60L16 59L17 59L17 58L18 58L18 59L19 59L19 60L18 60L18 61L17 61L17 62L18 62L18 63L20 63L20 62L18 62L18 61L20 61L20 60L21 60L21 63L24 63L24 64L23 64L23 65L24 65L24 64L25 64L25 65L26 65L26 64L28 64L28 65L29 65L29 63L26 63L26 64L25 64L25 61L26 61L26 62L27 62L27 61L29 61L29 62L30 62L30 63L31 63L31 64L30 64L30 65L35 65L35 64L36 64L36 65L37 65L37 64L36 64L36 63L38 63L38 65L39 65L39 62L38 62L38 59L39 59L39 60L41 60L41 59L42 59L42 60L43 60L43 61L40 61L40 62L41 62L41 63L40 63L40 64L41 64L41 63L42 63L42 64L43 64L43 65L44 65L44 64L45 64L45 65L46 65L46 64L45 64L45 62L46 62L46 63L47 63L47 62L46 62L46 61L49 61L49 60L48 60L48 59L50 59L50 61L51 61L51 62L48 62L48 63L49 63L49 64L47 64L47 65L51 65L51 64L53 64L53 65L61 65L61 64L62 64L62 65L63 65L63 64L64 64L64 60L65 60L65 59L63 59L63 58L65 58L65 56L64 56L64 54L65 54L65 53L63 53L63 52L64 52L64 50L65 50L65 49L64 49L64 48L62 48L62 47L63 47L63 45L65 45L65 44L62 44L62 45L59 45L59 43L57 43L57 44L56 44L56 43L55 43L55 44L56 44L56 45L54 45L54 44L53 44L53 43L54 43L54 42L55 42L55 40L56 40L56 41L57 41L57 42L62 42L62 41L63 41L63 42L65 42L65 41L64 41L64 40L65 40L65 39L63 39L63 37L64 37L64 38L65 38L65 37L64 37L64 36L65 36L65 35L64 35L64 34L65 34L65 32L64 32L64 31L63 31L63 32L62 32L62 30L63 30L63 29L64 29L64 28L62 28L62 27L63 27L63 26L65 26L65 25L63 25L63 24L58 24L58 23L59 23L59 22L61 22L61 20L59 20L59 22L57 22L57 23L52 23L52 22L55 22L55 21L54 21L54 20L55 20L55 19L54 19L54 18L56 18L56 19L57 19L57 20L56 20L56 21L57 21L57 20L58 20L58 19L63 19L63 20L62 20L62 21L63 21L63 22L62 22L62 23L63 23L63 22L65 22L65 19L64 19L64 18L65 18L65 15L64 15L64 16L62 16L62 15L63 15L63 14L62 14L62 15L61 15L61 14L60 14L60 13L63 13L63 12L64 12L64 14L65 14L65 12L64 12L64 10L65 10L65 9L64 9L64 8L63 8L63 9L62 9L62 8L61 8L61 12L59 12L59 14L56 14L56 13L57 13L57 12L58 12L58 11L60 11L60 10L58 10L58 8L56 8L56 9L55 9L55 5L54 5L54 4L56 4L56 5L57 5L57 4L56 4L56 3L57 3L57 1L56 1L56 0L55 0L55 1L56 1L56 3L55 3L55 2L54 2L54 3L53 3L53 2L52 2L52 1L48 1L48 2L49 2L49 3L46 3L46 2L47 2L47 1L46 1L46 0L44 0L44 1L46 1L46 2L44 2L44 3L43 3L43 4L42 4L42 5L40 5L40 4L39 4L39 3L38 3L38 4L39 4L39 5L37 5L37 3L36 3L36 5L35 5L35 4L34 4L34 3L35 3L35 1L34 1L34 3L33 3L33 2L32 2L32 3L33 3L33 4L30 4L30 7L29 7L29 6L28 6L28 4L29 4L29 3L28 3L28 2L27 2L27 0L26 0L26 1L25 1L25 0L22 0L22 1L20 1L20 4L19 4L19 1L18 1L18 0ZM29 0L29 2L30 2L30 1L31 1L31 0ZM32 0L32 1L33 1L33 0ZM37 0L37 1L36 1L36 2L37 2L37 1L38 1L38 2L40 2L40 3L41 3L41 2L42 2L42 1L43 1L43 0L41 0L41 1L38 1L38 0ZM53 0L53 1L54 1L54 0ZM17 1L17 2L18 2L18 1ZM22 1L22 2L21 2L21 3L22 3L22 4L20 4L20 5L18 5L18 6L17 6L17 7L18 7L18 6L19 6L19 8L21 8L21 7L22 7L22 6L23 6L23 8L22 8L22 9L20 9L20 10L19 10L19 9L18 9L18 8L17 8L17 11L19 11L19 13L17 13L17 12L16 12L16 11L14 11L14 10L16 10L16 9L15 9L15 8L16 8L16 6L15 6L15 4L18 4L18 3L14 3L14 6L13 6L13 7L12 7L12 9L11 9L11 8L10 8L10 11L9 11L9 10L7 10L7 9L6 9L6 10L7 10L7 11L8 11L8 12L7 12L7 13L6 13L6 14L9 14L9 15L6 15L6 16L7 16L7 17L9 17L9 18L11 18L11 19L12 19L12 23L11 23L11 24L10 24L10 23L9 23L9 24L10 24L10 25L9 25L9 26L8 26L8 27L4 27L4 26L3 26L3 28L2 28L2 29L4 29L4 28L7 28L7 29L5 29L5 30L7 30L7 29L8 29L8 30L10 30L10 31L9 31L9 32L10 32L10 33L9 33L9 34L11 34L11 30L10 30L10 28L11 28L11 29L12 29L12 36L14 36L14 38L13 38L13 40L14 40L14 41L10 41L10 43L11 43L11 44L13 44L13 48L14 48L14 49L15 49L15 50L14 50L14 52L13 52L13 51L10 51L10 48L9 48L9 47L8 47L8 46L7 46L7 45L6 45L6 46L7 46L7 47L6 47L6 48L5 48L5 49L4 49L4 47L3 47L3 45L2 45L2 48L3 48L3 52L4 52L4 51L5 51L5 52L8 52L8 51L5 51L5 49L6 49L6 50L9 50L9 51L10 51L10 52L13 52L13 53L10 53L10 54L7 54L7 53L5 53L5 54L7 54L7 55L10 55L10 54L14 54L14 55L15 55L15 54L14 54L14 52L15 52L15 53L16 53L16 54L17 54L17 56L19 56L19 57L18 57L18 58L19 58L19 59L21 59L21 60L22 60L22 61L23 61L23 62L24 62L24 61L23 61L23 60L22 60L22 59L21 59L21 57L25 57L25 56L26 56L26 57L27 57L27 59L26 59L26 58L24 58L24 59L25 59L25 60L26 60L26 61L27 61L27 59L29 59L29 60L30 60L30 58L29 58L29 57L30 57L30 55L31 55L31 56L33 56L33 54L34 54L34 55L36 55L36 56L37 56L37 55L36 55L36 54L37 54L37 53L32 53L32 52L31 52L31 53L32 53L32 55L31 55L31 54L30 54L30 53L25 53L25 52L26 52L26 51L24 51L24 52L23 52L23 53L22 53L22 52L21 52L21 51L22 51L22 50L21 50L21 49L23 49L23 50L24 50L24 49L25 49L25 50L26 50L26 49L27 49L27 48L28 48L28 47L29 47L29 46L30 46L30 45L31 45L31 47L32 47L32 48L29 48L29 49L28 49L28 50L30 50L30 51L29 51L29 52L30 52L30 51L35 51L35 52L39 52L39 51L36 51L36 50L35 50L35 49L36 49L36 48L37 48L37 50L40 50L40 51L41 51L41 52L40 52L40 53L38 53L38 54L41 54L41 53L43 53L43 54L42 54L42 55L41 55L41 56L40 56L40 57L41 57L41 58L42 58L42 59L43 59L43 60L44 60L44 62L42 62L42 63L43 63L43 64L44 64L44 62L45 62L45 60L44 60L44 59L46 59L46 60L47 60L47 59L48 59L48 58L49 58L49 57L50 57L50 58L53 58L53 60L52 60L52 62L51 62L51 63L50 63L50 64L51 64L51 63L53 63L53 64L54 64L54 63L55 63L55 64L59 64L59 63L57 63L57 62L58 62L58 61L57 61L57 62L56 62L56 63L55 63L55 62L54 62L54 63L53 63L53 61L55 61L55 60L56 60L56 59L55 59L55 58L56 58L56 56L57 56L57 55L56 55L56 54L57 54L57 53L58 53L58 55L60 55L60 56L61 56L61 60L63 60L63 59L62 59L62 58L63 58L63 57L64 57L64 56L63 56L63 53L62 53L62 52L63 52L63 51L62 51L62 52L61 52L61 50L63 50L63 49L61 49L61 47L59 47L59 45L58 45L58 44L57 44L57 45L56 45L56 47L57 47L57 46L58 46L58 47L59 47L59 48L58 48L58 49L59 49L59 50L58 50L58 51L56 51L56 52L54 52L54 51L55 51L55 50L53 50L53 48L55 48L55 49L56 49L56 48L55 48L55 46L54 46L54 45L53 45L53 44L52 44L52 41L53 41L53 40L55 40L55 38L54 38L54 39L53 39L53 36L52 36L52 35L54 35L54 37L56 37L56 40L57 40L57 41L58 41L58 40L57 40L57 39L59 39L59 41L61 41L61 40L63 40L63 39L62 39L62 37L61 37L61 36L60 36L60 35L59 35L59 36L58 36L58 37L59 37L59 36L60 36L60 37L61 37L61 38L57 38L57 35L56 35L56 34L52 34L52 35L50 35L50 34L51 34L51 32L52 32L52 33L55 33L55 32L54 32L54 31L56 31L56 30L57 30L57 29L56 29L56 28L58 28L58 30L61 30L61 29L62 29L62 28L61 28L61 27L62 27L62 26L63 26L63 25L60 25L60 27L59 27L59 28L58 28L58 26L59 26L59 25L56 25L56 26L53 26L53 27L54 27L54 28L52 28L52 29L54 29L54 28L55 28L55 30L54 30L54 31L53 31L53 32L52 32L52 31L51 31L51 32L49 32L49 31L50 31L50 30L51 30L51 28L49 28L49 27L48 27L48 26L49 26L49 25L50 25L50 26L51 26L51 27L52 27L52 26L51 26L51 24L49 24L49 23L50 23L50 22L51 22L51 21L53 21L53 20L51 20L51 21L50 21L50 22L49 22L49 21L46 21L46 20L47 20L47 19L46 19L46 20L44 20L44 19L45 19L45 16L44 16L44 15L46 15L46 14L47 14L47 17L46 17L46 18L48 18L48 16L50 16L50 17L49 17L49 19L48 19L48 20L49 20L49 19L50 19L50 18L51 18L51 16L52 16L52 17L53 17L53 16L52 16L52 15L55 15L55 16L57 16L57 17L56 17L56 18L57 18L57 19L58 19L58 18L59 18L59 17L58 17L58 15L56 15L56 14L54 14L54 13L53 13L53 12L51 12L51 11L50 11L50 10L51 10L51 9L54 9L54 8L52 8L52 6L51 6L51 8L50 8L50 9L49 9L49 10L47 10L47 8L49 8L49 7L50 7L50 5L53 5L53 3L51 3L51 2L50 2L50 3L49 3L49 4L48 4L48 5L49 5L49 7L48 7L48 6L47 6L47 7L46 7L46 5L47 5L47 4L45 4L45 3L44 3L44 6L43 6L43 5L42 5L42 6L41 6L41 7L42 7L42 9L43 9L43 8L44 8L44 9L45 9L45 10L44 10L44 11L45 11L45 12L43 12L43 10L42 10L42 12L40 12L40 14L39 14L39 13L35 13L35 12L38 12L38 10L39 10L39 11L40 11L40 9L41 9L41 8L39 8L39 9L38 9L38 8L37 8L37 7L38 7L38 6L37 6L37 5L36 5L36 6L35 6L35 8L37 8L37 9L36 9L36 10L35 10L35 9L33 9L33 10L35 10L35 11L33 11L33 12L32 12L32 9L30 9L30 11L31 11L31 12L30 12L30 13L29 13L29 11L28 11L28 12L26 12L26 11L27 11L27 10L25 10L25 13L24 13L24 12L21 12L21 11L20 11L20 10L22 10L22 11L24 11L24 9L28 9L28 10L29 10L29 9L28 9L28 8L29 8L29 7L28 7L28 6L27 6L27 8L26 8L26 5L27 5L27 2L26 2L26 3L24 3L24 2L25 2L25 1ZM50 3L50 4L49 4L49 5L50 5L50 4L51 4L51 3ZM24 4L24 5L23 5L23 6L24 6L24 7L25 7L25 4ZM20 5L20 7L21 7L21 6L22 6L22 5ZM31 5L31 8L34 8L34 5ZM39 5L39 7L40 7L40 5ZM14 6L14 7L13 7L13 8L14 8L14 7L15 7L15 6ZM32 6L32 7L33 7L33 6ZM36 6L36 7L37 7L37 6ZM42 6L42 7L43 7L43 6ZM44 6L44 8L46 8L46 7L45 7L45 6ZM53 6L53 7L54 7L54 6ZM56 6L56 7L57 7L57 6ZM59 8L59 9L60 9L60 8ZM4 9L4 10L5 10L5 9ZM22 9L22 10L23 10L23 9ZM37 9L37 10L36 10L36 11L37 11L37 10L38 10L38 9ZM56 9L56 10L57 10L57 9ZM11 10L11 13L10 13L10 12L9 12L9 14L11 14L11 15L12 15L12 16L10 16L10 15L9 15L9 17L13 17L13 23L12 23L12 24L13 24L13 23L14 23L14 22L15 22L15 23L16 23L16 24L15 24L15 25L13 25L13 26L14 26L14 27L15 27L15 28L16 28L16 27L17 27L17 29L20 29L20 27L21 27L21 26L22 26L22 27L23 27L23 26L25 26L25 25L22 25L22 24L27 24L27 25L26 25L26 28L27 28L27 27L28 27L28 29L29 29L29 28L31 28L31 29L30 29L30 30L27 30L27 29L26 29L26 30L25 30L25 27L24 27L24 28L23 28L23 29L22 29L22 28L21 28L21 30L23 30L23 31L24 31L24 32L23 32L23 33L22 33L22 34L21 34L21 35L19 35L19 34L18 34L18 35L17 35L17 34L16 34L16 36L15 36L15 35L14 35L14 34L13 34L13 35L14 35L14 36L15 36L15 38L16 38L16 39L17 39L17 40L16 40L16 41L17 41L17 40L18 40L18 41L19 41L19 43L18 43L18 42L17 42L17 43L18 43L18 45L19 45L19 46L20 46L20 47L18 47L18 46L17 46L17 45L16 45L16 44L15 44L15 45L14 45L14 47L16 47L16 48L15 48L15 49L17 49L17 47L18 47L18 49L19 49L19 51L20 51L20 49L21 49L21 48L24 48L24 47L22 47L22 46L24 46L24 45L26 45L26 46L28 46L28 45L29 45L29 44L28 44L28 43L26 43L26 44L24 44L24 42L25 42L25 41L24 41L24 40L25 40L25 39L27 39L27 38L26 38L26 37L24 37L24 35L25 35L25 36L26 36L26 35L25 35L25 34L27 34L27 36L28 36L28 37L29 37L29 36L28 36L28 35L30 35L30 36L31 36L31 35L33 35L33 36L32 36L32 37L33 37L33 39L31 39L31 41L30 41L30 42L29 42L29 43L30 43L30 44L32 44L32 45L33 45L33 46L35 46L35 47L34 47L34 48L32 48L32 49L35 49L35 48L36 48L36 47L37 47L37 46L38 46L38 47L39 47L39 48L38 48L38 49L39 49L39 48L41 48L41 49L40 49L40 50L41 50L41 49L42 49L42 50L44 50L44 48L46 48L46 49L47 49L47 50L46 50L46 51L44 51L44 52L45 52L45 53L44 53L44 56L45 56L45 58L46 58L46 59L47 59L47 58L48 58L48 57L49 57L49 56L47 56L47 54L45 54L45 53L47 53L47 52L46 52L46 51L48 51L48 49L49 49L49 52L48 52L48 54L49 54L49 53L50 53L50 52L53 52L53 50L52 50L52 48L53 48L53 47L52 47L52 46L53 46L53 45L52 45L52 44L50 44L50 45L51 45L51 46L49 46L49 44L48 44L48 45L47 45L47 46L46 46L46 44L45 44L45 42L46 42L46 43L49 43L49 41L51 41L51 40L53 40L53 39L51 39L51 38L50 38L50 36L48 36L48 38L46 38L46 39L44 39L44 40L45 40L45 42L43 42L43 39L40 39L40 38L41 38L41 37L39 37L39 36L38 36L38 37L37 37L37 36L35 36L35 31L36 31L36 30L37 30L37 32L36 32L36 33L37 33L37 32L39 32L39 31L40 31L40 32L42 32L42 33L41 33L41 35L40 35L40 36L42 36L42 38L43 38L43 37L44 37L44 38L45 38L45 37L44 37L44 36L45 36L45 35L44 35L44 34L43 34L43 33L44 33L44 32L45 32L45 33L49 33L49 32L46 32L46 31L48 31L48 30L49 30L49 28L48 28L48 27L47 27L47 26L46 26L46 24L47 24L47 25L49 25L49 24L47 24L47 22L45 22L45 21L44 21L44 20L43 20L43 19L44 19L44 17L43 17L43 16L42 16L42 14L43 14L43 13L41 13L41 15L39 15L39 14L38 14L38 15L39 15L39 16L41 16L41 17L39 17L39 18L38 18L38 16L36 16L36 18L34 18L34 17L35 17L35 16L34 16L34 15L35 15L35 14L34 14L34 15L32 15L32 14L33 14L33 13L32 13L32 12L31 12L31 13L30 13L30 14L31 14L31 15L28 15L28 16L27 16L27 13L25 13L25 14L26 14L26 16L25 16L25 17L24 17L24 18L23 18L23 17L21 17L21 15L22 15L22 16L24 16L24 15L22 15L22 14L24 14L24 13L22 13L22 14L21 14L21 13L19 13L19 14L18 14L18 15L17 15L17 16L15 16L15 15L16 15L16 13L15 13L15 12L12 12L12 10ZM45 10L45 11L46 11L46 13L47 13L47 14L48 14L48 13L49 13L49 14L50 14L50 15L52 15L52 14L53 14L53 13L51 13L51 14L50 14L50 12L48 12L48 13L47 13L47 10ZM52 10L52 11L53 11L53 10ZM54 10L54 12L57 12L57 11L55 11L55 10ZM62 11L62 12L63 12L63 11ZM1 13L1 14L2 14L2 13ZM11 13L11 14L12 14L12 15L13 15L13 17L15 17L15 16L14 16L14 15L15 15L15 13L13 13L13 14L12 14L12 13ZM44 13L44 14L45 14L45 13ZM19 14L19 15L20 15L20 14ZM36 14L36 15L37 15L37 14ZM59 14L59 16L61 16L61 17L60 17L60 18L62 18L62 16L61 16L61 15L60 15L60 14ZM17 16L17 17L16 17L16 18L14 18L14 19L17 19L17 20L16 20L16 21L15 21L15 20L14 20L14 21L15 21L15 22L16 22L16 21L17 21L17 22L18 22L18 23L17 23L17 24L18 24L18 23L19 23L19 22L18 22L18 21L19 21L19 20L21 20L21 21L20 21L20 24L19 24L19 25L18 25L18 26L17 26L17 25L15 25L15 26L17 26L17 27L18 27L18 26L21 26L21 25L20 25L20 24L21 24L21 21L22 21L22 22L23 22L23 23L27 23L27 22L29 22L29 23L28 23L28 24L29 24L29 25L28 25L28 27L33 27L33 26L32 26L32 25L34 25L34 26L35 26L35 27L34 27L34 28L37 28L37 29L38 29L38 30L39 30L39 29L42 29L42 28L39 28L39 27L38 27L38 26L39 26L39 25L40 25L40 27L43 27L43 30L42 30L42 32L44 32L44 31L43 31L43 30L48 30L48 29L45 29L45 28L44 28L44 27L45 27L45 26L44 26L44 25L45 25L45 24L46 24L46 23L45 23L45 22L42 22L42 21L43 21L43 20L42 20L42 19L43 19L43 18L42 18L42 17L41 17L41 18L40 18L40 19L41 19L41 20L40 20L40 21L38 21L38 18L36 18L36 19L34 19L34 18L32 18L32 17L33 17L33 16L30 16L30 17L27 17L27 16L26 16L26 17L25 17L25 18L24 18L24 19L23 19L23 20L24 20L24 21L25 21L25 22L23 22L23 21L22 21L22 20L21 20L21 19L22 19L22 18L21 18L21 17L18 17L18 16ZM17 17L17 19L18 19L18 17ZM26 17L26 18L25 18L25 19L26 19L26 20L25 20L25 21L29 21L29 22L32 22L32 23L30 23L30 24L33 24L33 23L35 23L35 25L37 25L37 24L38 24L38 23L39 23L39 24L41 24L41 22L40 22L40 23L39 23L39 22L38 22L38 23L37 23L37 20L34 20L34 21L35 21L35 22L33 22L33 21L29 21L29 20L31 20L31 19L30 19L30 18L31 18L31 17L30 17L30 18L29 18L29 19L28 19L28 20L27 20L27 17ZM7 18L7 19L8 19L8 18ZM20 18L20 19L21 19L21 18ZM32 19L32 20L33 20L33 19ZM1 20L1 21L2 21L2 20ZM17 20L17 21L18 21L18 20ZM35 22L35 23L36 23L36 24L37 24L37 23L36 23L36 22ZM48 22L48 23L49 23L49 22ZM42 23L42 24L43 24L43 25L41 25L41 26L43 26L43 25L44 25L44 24L45 24L45 23ZM64 23L64 24L65 24L65 23ZM52 24L52 25L53 25L53 24ZM5 25L5 26L7 26L7 25ZM30 25L30 26L31 26L31 25ZM10 26L10 27L9 27L9 28L10 28L10 27L11 27L11 28L13 28L13 31L14 31L14 32L13 32L13 33L15 33L15 32L16 32L16 33L17 33L17 32L16 32L16 31L15 31L15 30L16 30L16 29L15 29L15 30L14 30L14 28L13 28L13 27L12 27L12 26ZM36 26L36 27L37 27L37 26ZM56 26L56 27L57 27L57 26ZM46 27L46 28L47 28L47 27ZM32 28L32 29L31 29L31 30L32 30L32 29L33 29L33 30L35 30L35 29L33 29L33 28ZM38 28L38 29L39 29L39 28ZM59 28L59 29L61 29L61 28ZM23 29L23 30L24 30L24 29ZM18 30L18 33L19 33L19 31L20 31L20 30ZM40 30L40 31L41 31L41 30ZM2 31L2 32L1 32L1 34L2 34L2 35L3 35L3 34L4 34L4 33L3 33L3 32L4 32L4 31ZM5 31L5 34L8 34L8 31ZM28 31L28 32L29 32L29 33L27 33L27 32L26 32L26 33L27 33L27 34L29 34L29 33L30 33L30 32L29 32L29 31ZM31 31L31 34L34 34L34 31ZM57 31L57 34L60 34L60 31ZM6 32L6 33L7 33L7 32ZM20 32L20 33L21 33L21 32ZM24 32L24 33L25 33L25 32ZM32 32L32 33L33 33L33 32ZM58 32L58 33L59 33L59 32ZM61 32L61 35L62 35L62 36L63 36L63 35L62 35L62 34L64 34L64 33L62 33L62 32ZM2 33L2 34L3 34L3 33ZM22 34L22 35L21 35L21 36L22 36L22 37L20 37L20 36L19 36L19 37L20 37L20 38L22 38L22 39L23 39L23 40L21 40L21 39L19 39L19 38L17 38L17 37L18 37L18 36L17 36L17 37L16 37L16 38L17 38L17 39L18 39L18 40L19 40L19 41L20 41L20 43L19 43L19 45L21 45L21 46L22 46L22 45L24 45L24 44L23 44L23 43L22 43L22 42L21 42L21 41L23 41L23 40L24 40L24 39L23 39L23 35L24 35L24 34ZM36 34L36 35L37 35L37 34ZM38 34L38 35L39 35L39 34ZM42 34L42 36L44 36L44 35L43 35L43 34ZM46 34L46 35L47 35L47 34ZM48 34L48 35L49 35L49 34ZM6 35L6 36L7 36L7 35ZM8 35L8 36L9 36L9 37L6 37L6 38L8 38L8 40L9 40L9 37L11 37L11 39L10 39L10 40L11 40L11 39L12 39L12 37L11 37L11 35ZM55 35L55 36L56 36L56 35ZM38 37L38 38L39 38L39 37ZM28 38L28 40L27 40L27 41L26 41L26 42L27 42L27 41L29 41L29 40L30 40L30 38ZM34 38L34 39L33 39L33 41L32 41L32 42L31 42L31 43L33 43L33 44L34 44L34 45L35 45L35 44L39 44L39 45L38 45L38 46L39 46L39 47L40 47L40 45L41 45L41 44L40 44L40 43L43 43L43 44L44 44L44 46L42 46L42 47L41 47L41 48L42 48L42 49L43 49L43 47L45 47L45 44L44 44L44 43L43 43L43 42L42 42L42 40L40 40L40 39L37 39L37 38ZM48 38L48 40L50 40L50 38ZM0 39L0 40L1 40L1 39ZM6 39L6 40L7 40L7 39ZM14 39L14 40L15 40L15 39ZM34 39L34 42L36 42L36 41L37 41L37 43L40 43L40 42L41 42L41 41L39 41L39 40L38 40L38 41L37 41L37 40L36 40L36 41L35 41L35 39ZM46 39L46 40L47 40L47 39ZM60 39L60 40L61 40L61 39ZM20 40L20 41L21 41L21 40ZM0 41L0 42L1 42L1 41ZM14 41L14 42L15 42L15 41ZM38 41L38 42L39 42L39 41ZM46 41L46 42L47 42L47 41ZM12 42L12 43L13 43L13 42ZM50 42L50 43L51 43L51 42ZM21 43L21 44L22 44L22 43ZM34 43L34 44L35 44L35 43ZM60 43L60 44L61 44L61 43ZM26 44L26 45L27 45L27 44ZM15 45L15 46L16 46L16 45ZM48 46L48 48L49 48L49 49L50 49L50 50L51 50L51 51L52 51L52 50L51 50L51 49L50 49L50 48L51 48L51 47L49 47L49 46ZM7 47L7 48L6 48L6 49L7 49L7 48L8 48L8 49L9 49L9 48L8 48L8 47ZM11 47L11 50L12 50L12 47ZM26 47L26 48L27 48L27 47ZM46 47L46 48L47 48L47 47ZM19 48L19 49L20 49L20 48ZM30 49L30 50L31 50L31 49ZM60 49L60 50L61 50L61 49ZM16 50L16 51L18 51L18 50ZM42 51L42 52L43 52L43 51ZM58 51L58 52L59 52L59 51ZM16 52L16 53L18 53L18 55L19 55L19 54L20 54L20 55L21 55L21 56L20 56L20 57L19 57L19 58L20 58L20 57L21 57L21 56L25 56L25 53L23 53L23 55L21 55L21 54L22 54L22 53L21 53L21 52L19 52L19 53L18 53L18 52ZM20 53L20 54L21 54L21 53ZM52 53L52 54L50 54L50 55L51 55L51 56L50 56L50 57L51 57L51 56L54 56L54 57L53 57L53 58L55 58L55 56L56 56L56 55L52 55L52 54L56 54L56 53ZM60 53L60 55L61 55L61 54L62 54L62 53ZM28 54L28 55L30 55L30 54ZM26 55L26 56L27 56L27 57L29 57L29 56L27 56L27 55ZM42 55L42 56L43 56L43 55ZM38 56L38 57L37 57L37 58L36 58L36 57L35 57L35 58L36 58L36 60L37 60L37 59L38 59L38 58L39 58L39 56ZM62 56L62 57L63 57L63 56ZM14 57L14 58L15 58L15 59L16 59L16 58L17 58L17 57ZM31 57L31 60L34 60L34 57ZM42 57L42 58L43 58L43 59L44 59L44 57ZM46 57L46 58L47 58L47 57ZM57 57L57 60L60 60L60 57ZM32 58L32 59L33 59L33 58ZM58 58L58 59L59 59L59 58ZM54 59L54 60L55 60L55 59ZM8 60L8 65L11 65L11 64L12 64L12 65L14 65L14 64L16 64L16 65L19 65L19 64L16 64L16 63L15 63L15 62L16 62L16 61L15 61L15 62L14 62L14 64L13 64L13 61L11 61L11 64L10 64L10 63L9 63L9 60ZM30 61L30 62L31 62L31 63L32 63L32 64L35 64L35 63L33 63L33 62L32 62L32 61ZM34 61L34 62L36 62L36 61ZM60 61L60 62L61 62L61 63L62 63L62 64L63 64L63 61L62 61L62 62L61 62L61 61ZM20 64L20 65L21 65L21 64ZM0 0L0 7L7 7L7 0ZM1 1L1 6L6 6L6 1ZM2 2L2 5L5 5L5 2ZM58 0L58 7L65 7L65 0ZM59 1L59 6L64 6L64 1ZM60 2L60 5L63 5L63 2ZM0 58L0 65L7 65L7 58ZM1 59L1 64L6 64L6 59ZM2 60L2 63L5 63L5 60Z" fill="#000000"/></g></g></svg>
