<?xml version="1.0" encoding="UTF-8"?>
<svg xmlns="http://www.w3.org/2000/svg" version="1.1" width="300" height="300" viewBox="0 0 300 300"><rect x="0" y="0" width="300" height="300" fill="#ffffff"/><g transform="scale(4.615)"><g transform="translate(0,0)"><path fill-rule="evenodd" d="M9 0L9 1L8 1L8 2L10 2L10 0ZM13 0L13 1L11 1L11 3L10 3L10 7L9 7L9 5L8 5L8 7L9 7L9 8L6 8L6 9L5 9L5 8L0 8L0 9L3 9L3 11L4 11L4 9L5 9L5 10L6 10L6 11L7 11L7 12L5 12L5 14L4 14L4 15L1 15L1 16L2 16L2 18L0 18L0 20L1 20L1 21L0 21L0 22L1 22L1 21L2 21L2 18L4 18L4 21L3 21L3 22L2 22L2 23L1 23L1 24L0 24L0 26L1 26L1 27L0 27L0 28L1 28L1 27L2 27L2 26L1 26L1 25L3 25L3 24L5 24L5 25L4 25L4 26L3 26L3 27L4 27L4 26L5 26L5 28L2 28L2 29L4 29L4 30L2 30L2 31L3 31L3 32L4 32L4 33L3 33L3 34L4 34L4 36L5 36L5 39L4 39L4 40L3 40L3 41L2 41L2 39L3 39L3 38L4 38L4 37L3 37L3 38L2 38L2 39L1 39L1 41L2 41L2 42L3 42L3 41L4 41L4 47L7 47L7 48L3 48L3 44L2 44L2 43L1 43L1 42L0 42L0 43L1 43L1 45L2 45L2 48L0 48L0 50L2 50L2 48L3 48L3 49L7 49L7 50L5 50L5 51L1 51L1 53L0 53L0 54L2 54L2 55L3 55L3 56L1 56L1 55L0 55L0 56L1 56L1 57L3 57L3 56L4 56L4 57L5 57L5 56L4 56L4 54L5 54L5 55L7 55L7 56L6 56L6 57L7 57L7 56L8 56L8 59L13 59L13 60L11 60L11 61L16 61L16 62L14 62L14 63L16 63L16 65L17 65L17 62L18 62L18 61L19 61L19 62L20 62L20 63L19 63L19 64L18 64L18 65L21 65L21 64L23 64L23 63L25 63L25 65L26 65L26 62L27 62L27 63L28 63L28 61L29 61L29 64L28 64L28 65L31 65L31 64L30 64L30 61L31 61L31 63L32 63L32 64L34 64L34 65L38 65L38 63L39 63L39 64L43 64L43 65L44 65L44 64L45 64L45 65L47 65L47 64L48 64L48 65L49 65L49 64L48 64L48 63L47 63L47 62L46 62L46 63L44 63L44 64L43 64L43 63L40 63L40 62L43 62L43 61L44 61L44 62L45 62L45 61L47 61L47 60L46 60L46 59L47 59L47 58L48 58L48 59L51 59L51 60L50 60L50 61L49 61L49 60L48 60L48 62L50 62L50 63L51 63L51 64L50 64L50 65L52 65L52 64L53 64L53 65L54 65L54 64L53 64L53 63L51 63L51 62L52 62L52 60L53 60L53 58L55 58L55 59L54 59L54 60L55 60L55 61L54 61L54 62L55 62L55 63L56 63L56 62L57 62L57 65L61 65L61 62L60 62L60 61L62 61L62 63L63 63L63 64L62 64L62 65L63 65L63 64L64 64L64 60L65 60L65 59L63 59L63 58L62 58L62 59L61 59L61 55L60 55L60 56L59 56L59 55L57 55L57 51L58 51L58 52L59 52L59 53L58 53L58 54L59 54L59 53L60 53L60 54L65 54L65 53L64 53L64 52L65 52L65 51L63 51L63 50L61 50L61 49L64 49L64 50L65 50L65 49L64 49L64 48L61 48L61 47L60 47L60 48L61 48L61 49L58 49L58 48L59 48L59 47L58 47L58 48L57 48L57 47L56 47L56 46L55 46L55 44L57 44L57 43L58 43L58 44L59 44L59 46L61 46L61 45L60 45L60 44L61 44L61 43L60 43L60 44L59 44L59 43L58 43L58 42L65 42L65 40L64 40L64 38L65 38L65 37L63 37L63 36L62 36L62 35L63 35L63 34L65 34L65 31L64 31L64 33L63 33L63 32L62 32L62 33L63 33L63 34L62 34L62 35L61 35L61 30L62 30L62 29L63 29L63 28L62 28L62 29L61 29L61 28L60 28L60 27L63 27L63 26L62 26L62 25L64 25L64 26L65 26L65 25L64 25L64 24L65 24L65 23L64 23L64 22L65 22L65 19L64 19L64 22L63 22L63 20L62 20L62 22L61 22L61 20L59 20L59 22L58 22L58 20L56 20L56 19L54 19L54 18L55 18L55 17L53 17L53 19L52 19L52 20L53 20L53 22L52 22L52 21L51 21L51 22L50 22L50 20L48 20L48 22L46 22L46 24L45 24L45 23L42 23L42 22L43 22L43 21L44 21L44 22L45 22L45 21L47 21L47 20L46 20L46 19L47 19L47 18L48 18L48 19L49 19L49 18L50 18L50 19L51 19L51 18L50 18L50 16L51 16L51 15L52 15L52 16L53 16L53 15L52 15L52 14L55 14L55 15L54 15L54 16L55 16L55 15L56 15L56 13L57 13L57 12L58 12L58 11L60 11L60 8L59 8L59 10L56 10L56 11L57 11L57 12L56 12L56 13L51 13L51 12L54 12L54 10L55 10L55 9L54 9L54 10L53 10L53 9L51 9L51 10L50 10L50 11L51 11L51 12L50 12L50 13L49 13L49 12L48 12L48 11L47 11L47 10L49 10L49 9L50 9L50 8L51 8L51 6L52 6L52 8L53 8L53 6L54 6L54 8L55 8L55 5L54 5L54 4L56 4L56 5L57 5L57 4L56 4L56 3L57 3L57 1L56 1L56 0L55 0L55 1L56 1L56 3L55 3L55 2L54 2L54 3L53 3L53 2L52 2L52 1L54 1L54 0L51 0L51 1L50 1L50 0L48 0L48 1L46 1L46 0L44 0L44 1L45 1L45 2L44 2L44 3L46 3L46 4L45 4L45 6L44 6L44 5L43 5L43 4L42 4L42 5L41 5L41 6L40 6L40 7L39 7L39 5L38 5L38 7L37 7L37 5L36 5L36 7L35 7L35 4L37 4L37 3L38 3L38 2L39 2L39 4L40 4L40 3L41 3L41 1L43 1L43 0L41 0L41 1L40 1L40 0L39 0L39 1L38 1L38 0L36 0L36 1L34 1L34 0L30 0L30 1L32 1L32 2L30 2L30 3L29 3L29 1L28 1L28 0L26 0L26 1L27 1L27 4L26 4L26 2L24 2L24 3L23 3L23 1L25 1L25 0L22 0L22 2L20 2L20 0L19 0L19 2L20 2L20 3L19 3L19 4L18 4L18 3L17 3L17 2L18 2L18 1L17 1L17 0L15 0L15 2L14 2L14 3L13 3L13 4L11 4L11 3L12 3L12 2L13 2L13 1L14 1L14 0ZM16 1L16 2L17 2L17 1ZM36 1L36 2L35 2L35 3L32 3L32 4L35 4L35 3L37 3L37 1ZM39 1L39 2L40 2L40 1ZM48 1L48 3L47 3L47 4L46 4L46 5L47 5L47 7L46 7L46 6L45 6L45 7L46 7L46 8L44 8L44 6L43 6L43 5L42 5L42 6L41 6L41 7L42 7L42 9L43 9L43 8L44 8L44 9L45 9L45 10L44 10L44 11L43 11L43 10L42 10L42 11L41 11L41 10L40 10L40 11L41 11L41 12L39 12L39 11L38 11L38 10L39 10L39 9L41 9L41 8L39 8L39 9L38 9L38 10L36 10L36 9L33 9L33 10L32 10L32 9L30 9L30 8L29 8L29 7L30 7L30 6L29 6L29 7L28 7L28 5L30 5L30 4L27 4L27 5L26 5L26 4L25 4L25 3L24 3L24 4L25 4L25 7L24 7L24 6L23 6L23 4L22 4L22 3L21 3L21 4L20 4L20 5L18 5L18 4L16 4L16 3L14 3L14 4L13 4L13 5L14 5L14 4L15 4L15 8L17 8L17 7L18 7L18 8L19 8L19 9L15 9L15 10L14 10L14 6L13 6L13 10L12 10L12 11L11 11L11 7L12 7L12 6L11 6L11 7L10 7L10 8L9 8L9 9L10 9L10 10L8 10L8 9L6 9L6 10L8 10L8 12L10 12L10 13L6 13L6 14L5 14L5 15L4 15L4 16L3 16L3 17L4 17L4 18L5 18L5 19L6 19L6 20L5 20L5 21L4 21L4 22L5 22L5 24L8 24L8 25L5 25L5 26L8 26L8 27L6 27L6 28L5 28L5 29L6 29L6 30L7 30L7 29L8 29L8 30L9 30L9 28L10 28L10 27L11 27L11 23L12 23L12 25L14 25L14 24L13 24L13 22L14 22L14 23L16 23L16 24L17 24L17 25L16 25L16 27L15 27L15 28L16 28L16 29L14 29L14 28L13 28L13 29L14 29L14 30L13 30L13 32L14 32L14 30L16 30L16 29L17 29L17 28L19 28L19 29L18 29L18 31L17 31L17 33L16 33L16 36L18 36L18 37L15 37L15 39L14 39L14 38L13 38L13 37L12 37L12 36L15 36L15 35L14 35L14 34L15 34L15 33L12 33L12 32L11 32L11 35L12 35L12 36L10 36L10 37L12 37L12 39L14 39L14 40L13 40L13 42L12 42L12 41L11 41L11 39L10 39L10 38L7 38L7 37L9 37L9 35L8 35L8 36L7 36L7 35L5 35L5 36L7 36L7 37L6 37L6 38L7 38L7 39L6 39L6 40L7 40L7 41L6 41L6 42L7 42L7 43L6 43L6 44L8 44L8 46L9 46L9 47L8 47L8 49L9 49L9 48L10 48L10 49L11 49L11 47L12 47L12 50L11 50L11 51L10 51L10 50L9 50L9 51L10 51L10 54L12 54L12 55L11 55L11 56L10 56L10 55L9 55L9 52L8 52L8 50L7 50L7 51L5 51L5 52L3 52L3 53L2 53L2 54L4 54L4 53L5 53L5 54L7 54L7 53L6 53L6 52L8 52L8 55L9 55L9 56L10 56L10 57L9 57L9 58L10 58L10 57L11 57L11 58L12 58L12 57L14 57L14 58L13 58L13 59L14 59L14 58L16 58L16 59L15 59L15 60L16 60L16 61L17 61L17 60L16 60L16 59L17 59L17 58L19 58L19 57L20 57L20 58L22 58L22 59L19 59L19 61L21 61L21 62L22 62L22 63L23 63L23 62L24 62L24 61L27 61L27 60L26 60L26 59L27 59L27 58L29 58L29 59L28 59L28 60L29 60L29 61L30 61L30 58L29 58L29 57L30 57L30 56L31 56L31 52L33 52L33 53L32 53L32 56L33 56L33 53L34 53L34 55L35 55L35 57L36 57L36 56L38 56L38 58L36 58L36 59L35 59L35 60L38 60L38 58L39 58L39 55L40 55L40 54L41 54L41 56L40 56L40 57L41 57L41 58L42 58L42 59L41 59L41 60L40 60L40 59L39 59L39 61L34 61L34 62L32 62L32 63L34 63L34 64L35 64L35 63L36 63L36 64L37 64L37 63L38 63L38 62L39 62L39 61L41 61L41 60L42 60L42 59L43 59L43 60L44 60L44 61L45 61L45 60L44 60L44 59L46 59L46 58L47 58L47 57L46 57L46 58L45 58L45 56L44 56L44 55L46 55L46 54L47 54L47 56L49 56L49 57L48 57L48 58L49 58L49 57L50 57L50 58L51 58L51 59L52 59L52 58L51 58L51 57L53 57L53 56L51 56L51 55L50 55L50 54L51 54L51 53L56 53L56 52L54 52L54 51L56 51L56 50L57 50L57 48L55 48L55 46L54 46L54 48L52 48L52 47L53 47L53 46L52 46L52 47L51 47L51 48L49 48L49 47L48 47L48 46L49 46L49 45L47 45L47 44L46 44L46 42L47 42L47 41L46 41L46 42L45 42L45 40L44 40L44 39L43 39L43 38L42 38L42 37L43 37L43 36L42 36L42 35L45 35L45 34L47 34L47 35L46 35L46 36L44 36L44 37L45 37L45 38L47 38L47 39L46 39L46 40L47 40L47 39L48 39L48 40L50 40L50 38L51 38L51 41L49 41L49 43L48 43L48 44L49 44L49 43L50 43L50 46L51 46L51 44L52 44L52 45L53 45L53 44L52 44L52 43L50 43L50 42L53 42L53 41L55 41L55 42L54 42L54 43L57 43L57 41L56 41L56 40L58 40L58 41L62 41L62 40L63 40L63 41L64 41L64 40L63 40L63 37L61 37L61 35L60 35L60 37L59 37L59 36L58 36L58 37L59 37L59 38L57 38L57 36L55 36L55 35L56 35L56 33L55 33L55 34L54 34L54 33L53 33L53 32L51 32L51 31L50 31L50 30L51 30L51 29L50 29L50 30L48 30L48 32L47 32L47 31L45 31L45 28L44 28L44 27L45 27L45 26L44 26L44 25L45 25L45 24L44 24L44 25L43 25L43 24L42 24L42 23L41 23L41 24L40 24L40 22L39 22L39 21L41 21L41 22L42 22L42 21L43 21L43 20L44 20L44 21L45 21L45 20L44 20L44 17L45 17L45 19L46 19L46 18L47 18L47 17L48 17L48 16L50 16L50 15L49 15L49 14L48 14L48 13L46 13L46 14L45 14L45 12L44 12L44 11L45 11L45 10L47 10L47 8L49 8L49 7L50 7L50 5L52 5L52 4L53 4L53 3L52 3L52 4L51 4L51 3L49 3L49 2L50 2L50 1ZM42 2L42 3L43 3L43 2ZM8 3L8 4L9 4L9 3ZM48 3L48 4L49 4L49 5L48 5L48 7L49 7L49 5L50 5L50 4L49 4L49 3ZM21 4L21 5L22 5L22 4ZM16 5L16 7L17 7L17 6L18 6L18 7L19 7L19 8L20 8L20 9L19 9L19 12L18 12L18 11L17 11L17 12L15 12L15 13L14 13L14 14L13 14L13 15L12 15L12 16L10 16L10 15L11 15L11 14L12 14L12 13L13 13L13 12L14 12L14 11L13 11L13 12L11 12L11 11L10 11L10 12L11 12L11 14L10 14L10 15L9 15L9 16L10 16L10 18L9 18L9 19L8 19L8 21L9 21L9 23L8 23L8 22L6 22L6 23L8 23L8 24L9 24L9 23L11 23L11 22L10 22L10 21L9 21L9 20L10 20L10 18L11 18L11 21L15 21L15 22L16 22L16 21L15 21L15 20L18 20L18 21L17 21L17 23L18 23L18 25L19 25L19 26L18 26L18 27L19 27L19 26L20 26L20 25L22 25L22 26L21 26L21 27L20 27L20 28L22 28L22 26L23 26L23 29L19 29L19 30L20 30L20 31L18 31L18 33L19 33L19 37L18 37L18 39L19 39L19 38L20 38L20 39L21 39L21 40L20 40L20 41L19 41L19 40L17 40L17 39L15 39L15 42L13 42L13 44L14 44L14 45L13 45L13 46L12 46L12 42L11 42L11 41L8 41L8 44L9 44L9 46L12 46L12 47L13 47L13 49L15 49L15 50L14 50L14 51L13 51L13 50L12 50L12 52L11 52L11 53L12 53L12 52L13 52L13 55L14 55L14 56L16 56L16 57L17 57L17 56L18 56L18 57L19 57L19 55L20 55L20 57L21 57L21 56L23 56L23 57L22 57L22 58L25 58L25 57L24 57L24 56L23 56L23 55L22 55L22 54L21 54L21 55L20 55L20 54L19 54L19 51L22 51L22 50L25 50L25 49L26 49L26 50L27 50L27 51L26 51L26 52L25 52L25 53L24 53L24 54L25 54L25 55L29 55L29 56L27 56L27 57L26 57L26 58L27 58L27 57L29 57L29 56L30 56L30 54L28 54L28 53L29 53L29 52L28 52L28 51L30 51L30 52L31 52L31 51L30 51L30 50L31 50L31 49L34 49L34 50L35 50L35 49L37 49L37 50L36 50L36 51L33 51L33 50L32 50L32 51L33 51L33 52L34 52L34 53L37 53L37 54L36 54L36 55L39 55L39 54L40 54L40 53L39 53L39 52L42 52L42 54L43 54L43 55L42 55L42 56L43 56L43 55L44 55L44 54L45 54L45 53L44 53L44 52L45 52L45 51L44 51L44 50L43 50L43 49L42 49L42 47L39 47L39 46L38 46L38 45L37 45L37 44L41 44L41 43L40 43L40 42L41 42L41 41L39 41L39 40L38 40L38 41L37 41L37 40L36 40L36 39L37 39L37 38L36 38L36 37L37 37L37 36L35 36L35 34L37 34L37 35L38 35L38 37L39 37L39 36L41 36L41 35L40 35L40 34L43 34L43 32L45 32L45 31L43 31L43 32L42 32L42 31L41 31L41 29L40 29L40 32L42 32L42 33L39 33L39 32L38 32L38 33L37 33L37 32L35 32L35 30L33 30L33 29L38 29L38 28L39 28L39 27L40 27L40 28L41 28L41 27L40 27L40 25L39 25L39 24L38 24L38 23L39 23L39 22L37 22L37 20L36 20L36 19L37 19L37 17L40 17L40 16L41 16L41 18L40 18L40 19L39 19L39 18L38 18L38 19L39 19L39 20L38 20L38 21L39 21L39 20L41 20L41 18L43 18L43 17L42 17L42 16L43 16L43 15L44 15L44 16L45 16L45 17L47 17L47 16L46 16L46 15L48 15L48 14L46 14L46 15L45 15L45 14L43 14L43 13L42 13L42 14L41 14L41 13L39 13L39 12L38 12L38 13L37 13L37 12L35 12L35 11L36 11L36 10L33 10L33 11L32 11L32 12L34 12L34 13L33 13L33 14L32 14L32 13L29 13L29 11L28 11L28 9L29 9L29 10L30 10L30 12L31 12L31 10L30 10L30 9L29 9L29 8L27 8L27 6L26 6L26 8L27 8L27 9L22 9L22 7L23 7L23 6L22 6L22 7L21 7L21 6L20 6L20 7L19 7L19 6L18 6L18 5ZM31 5L31 8L34 8L34 5ZM32 6L32 7L33 7L33 6ZM42 6L42 7L43 7L43 6ZM56 6L56 7L57 7L57 6ZM36 7L36 8L37 8L37 7ZM56 8L56 9L58 9L58 8ZM61 8L61 9L62 9L62 11L63 11L63 12L59 12L59 13L64 13L64 14L65 14L65 13L64 13L64 12L65 12L65 11L63 11L63 10L65 10L65 9L64 9L64 8L63 8L63 9L62 9L62 8ZM20 9L20 10L21 10L21 9ZM0 10L0 14L2 14L2 13L3 13L3 12L2 12L2 10ZM15 10L15 11L16 11L16 10ZM22 10L22 11L21 11L21 12L20 12L20 13L18 13L18 12L17 12L17 15L15 15L15 14L14 14L14 15L13 15L13 19L12 19L12 20L13 20L13 19L16 19L16 18L14 18L14 15L15 15L15 16L16 16L16 17L17 17L17 19L18 19L18 18L19 18L19 22L18 22L18 23L19 23L19 22L20 22L20 23L21 23L21 22L22 22L22 23L24 23L24 22L23 22L23 21L25 21L25 24L24 24L24 25L27 25L27 26L24 26L24 28L26 28L26 29L25 29L25 30L26 30L26 31L24 31L24 33L25 33L25 32L26 32L26 33L27 33L27 30L26 30L26 29L27 29L27 28L26 28L26 27L28 27L28 28L29 28L29 27L31 27L31 26L35 26L35 25L36 25L36 24L37 24L37 23L35 23L35 24L34 24L34 22L35 22L35 21L34 21L34 22L33 22L33 20L32 20L32 21L31 21L31 20L30 20L30 22L29 22L29 21L28 21L28 20L29 20L29 19L32 19L32 18L35 18L35 19L34 19L34 20L35 20L35 19L36 19L36 18L35 18L35 16L38 16L38 15L35 15L35 16L32 16L32 14L30 14L30 15L31 15L31 16L29 16L29 15L28 15L28 16L26 16L26 15L27 15L27 14L29 14L29 13L27 13L27 12L28 12L28 11L27 11L27 12L26 12L26 13L27 13L27 14L25 14L25 15L24 15L24 16L23 16L23 15L22 15L22 13L23 13L23 14L24 14L24 11L25 11L25 10ZM52 10L52 11L53 11L53 10ZM22 11L22 12L23 12L23 11ZM42 11L42 12L43 12L43 11ZM1 12L1 13L2 13L2 12ZM34 13L34 14L35 14L35 13ZM38 13L38 14L39 14L39 13ZM50 13L50 14L51 14L51 13ZM6 14L6 15L7 15L7 16L6 16L6 17L5 17L5 16L4 16L4 17L5 17L5 18L6 18L6 19L7 19L7 18L8 18L8 17L7 17L7 16L8 16L8 14ZM18 14L18 15L17 15L17 17L19 17L19 18L20 18L20 19L22 19L22 18L23 18L23 19L26 19L26 20L25 20L25 21L26 21L26 24L27 24L27 25L29 25L29 24L28 24L28 23L29 23L29 22L27 22L27 21L26 21L26 20L28 20L28 19L29 19L29 18L28 18L28 17L29 17L29 16L28 16L28 17L26 17L26 16L25 16L25 17L24 17L24 18L23 18L23 17L22 17L22 16L20 16L20 17L19 17L19 15L20 15L20 14ZM40 14L40 15L41 15L41 14ZM42 14L42 15L43 15L43 14ZM57 14L57 15L58 15L58 16L56 16L56 17L57 17L57 19L63 19L63 17L64 17L64 18L65 18L65 15L64 15L64 16L62 16L62 15L63 15L63 14L62 14L62 15L61 15L61 14L60 14L60 15L61 15L61 16L60 16L60 18L58 18L58 16L59 16L59 14ZM31 16L31 17L30 17L30 18L32 18L32 16ZM61 16L61 18L62 18L62 16ZM6 17L6 18L7 18L7 17ZM11 17L11 18L12 18L12 17ZM20 17L20 18L21 18L21 17ZM6 20L6 21L7 21L7 20ZM20 20L20 21L22 21L22 20ZM54 20L54 21L55 21L55 22L53 22L53 24L52 24L52 26L51 26L51 24L49 24L49 22L48 22L48 23L47 23L47 24L46 24L46 26L47 26L47 28L46 28L46 30L47 30L47 29L48 29L48 28L51 28L51 27L55 27L55 26L54 26L54 25L55 25L55 23L57 23L57 25L56 25L56 28L54 28L54 29L56 29L56 30L53 30L53 31L54 31L54 32L56 32L56 30L57 30L57 29L56 29L56 28L58 28L58 30L59 30L59 28L58 28L58 27L57 27L57 26L60 26L60 25L58 25L58 24L61 24L61 25L62 25L62 24L63 24L63 22L62 22L62 24L61 24L61 22L59 22L59 23L57 23L57 21L56 21L56 20ZM30 22L30 24L31 24L31 23L32 23L32 24L33 24L33 25L34 25L34 24L33 24L33 22ZM51 22L51 23L52 23L52 22ZM19 24L19 25L20 25L20 24ZM22 24L22 25L23 25L23 24ZM47 24L47 25L49 25L49 26L48 26L48 27L51 27L51 26L50 26L50 25L49 25L49 24ZM9 25L9 27L10 27L10 25ZM30 25L30 26L31 26L31 25ZM38 25L38 26L39 26L39 25ZM41 25L41 26L43 26L43 25ZM36 26L36 28L37 28L37 26ZM16 27L16 28L17 28L17 27ZM34 27L34 28L35 28L35 27ZM6 28L6 29L7 29L7 28ZM11 28L11 29L12 29L12 28ZM30 28L30 30L32 30L32 29L33 29L33 28ZM43 28L43 29L42 29L42 30L44 30L44 28ZM52 28L52 29L53 29L53 28ZM28 29L28 30L29 30L29 29ZM60 29L60 30L61 30L61 29ZM10 30L10 31L12 31L12 30ZM21 30L21 31L22 31L22 32L21 32L21 33L20 33L20 36L21 36L21 37L20 37L20 38L21 38L21 37L22 37L22 38L23 38L23 40L22 40L22 41L25 41L25 42L24 42L24 43L25 43L25 44L24 44L24 45L25 45L25 46L23 46L23 48L22 48L22 47L21 47L21 45L23 45L23 43L22 43L22 42L21 42L21 41L20 41L20 42L21 42L21 43L18 43L18 42L19 42L19 41L18 41L18 42L17 42L17 41L16 41L16 42L15 42L15 43L14 43L14 44L15 44L15 45L14 45L14 48L15 48L15 49L16 49L16 50L15 50L15 51L14 51L14 53L15 53L15 54L14 54L14 55L15 55L15 54L17 54L17 53L18 53L18 52L17 52L17 51L18 51L18 50L19 50L19 49L20 49L20 50L21 50L21 49L20 49L20 48L22 48L22 49L23 49L23 48L24 48L24 49L25 49L25 48L24 48L24 47L25 47L25 46L26 46L26 47L27 47L27 46L26 46L26 45L28 45L28 46L30 46L30 47L28 47L28 48L30 48L30 47L31 47L31 48L33 48L33 47L32 47L32 46L33 46L33 45L34 45L34 47L35 47L35 48L34 48L34 49L35 49L35 48L39 48L39 47L35 47L35 44L37 44L37 43L38 43L38 42L39 42L39 41L38 41L38 42L37 42L37 41L35 41L35 42L34 42L34 43L33 43L33 41L32 41L32 40L33 40L33 39L36 39L36 38L35 38L35 36L34 36L34 35L33 35L33 36L34 36L34 37L32 37L32 35L29 35L29 33L30 33L30 32L29 32L29 33L28 33L28 35L27 35L27 34L26 34L26 35L27 35L27 36L26 36L26 37L27 37L27 36L31 36L31 37L28 37L28 39L27 39L27 38L23 38L23 37L25 37L25 36L23 36L23 37L22 37L22 36L21 36L21 35L22 35L22 33L23 33L23 31L22 31L22 30ZM36 30L36 31L37 31L37 30ZM38 30L38 31L39 31L39 30ZM0 31L0 32L1 32L1 33L2 33L2 32L1 32L1 31ZM5 31L5 34L8 34L8 31ZM15 31L15 32L16 32L16 31ZM31 31L31 34L34 34L34 31ZM57 31L57 34L60 34L60 31ZM6 32L6 33L7 33L7 32ZM32 32L32 33L33 33L33 32ZM46 32L46 33L47 33L47 34L48 34L48 35L49 35L49 36L46 36L46 37L47 37L47 38L48 38L48 39L49 39L49 38L50 38L50 35L51 35L51 37L52 37L52 36L53 36L53 38L52 38L52 40L53 40L53 39L54 39L54 40L56 40L56 39L54 39L54 38L56 38L56 37L54 37L54 35L52 35L52 34L53 34L53 33L52 33L52 34L50 34L50 32L48 32L48 33L47 33L47 32ZM58 32L58 33L59 33L59 32ZM9 33L9 34L10 34L10 33ZM38 33L38 34L39 34L39 33ZM44 33L44 34L45 34L45 33ZM0 34L0 36L1 36L1 37L0 37L0 38L1 38L1 37L2 37L2 34ZM12 34L12 35L13 35L13 34ZM17 34L17 35L18 35L18 34ZM23 34L23 35L24 35L24 34ZM49 34L49 35L50 35L50 34ZM64 35L64 36L65 36L65 35ZM31 37L31 38L32 38L32 39L33 39L33 38L32 38L32 37ZM40 37L40 40L42 40L42 42L43 42L43 43L42 43L42 44L43 44L43 45L40 45L40 46L44 46L44 48L45 48L45 47L46 47L46 49L47 49L47 48L48 48L48 49L49 49L49 48L48 48L48 47L47 47L47 46L46 46L46 44L45 44L45 42L43 42L43 39L41 39L41 37ZM60 37L60 38L61 38L61 40L62 40L62 38L61 38L61 37ZM29 38L29 39L28 39L28 40L27 40L27 39L24 39L24 40L27 40L27 41L26 41L26 42L25 42L25 43L26 43L26 42L27 42L27 41L30 41L30 42L29 42L29 43L27 43L27 44L28 44L28 45L30 45L30 44L29 44L29 43L31 43L31 44L32 44L32 45L33 45L33 43L32 43L32 42L31 42L31 39L30 39L30 38ZM38 38L38 39L39 39L39 38ZM7 39L7 40L8 40L8 39ZM9 39L9 40L10 40L10 39ZM29 39L29 40L30 40L30 39ZM58 39L58 40L59 40L59 39ZM4 40L4 41L5 41L5 40ZM9 42L9 44L11 44L11 42ZM16 42L16 43L15 43L15 44L17 44L17 45L20 45L20 44L18 44L18 43L17 43L17 42ZM36 42L36 43L37 43L37 42ZM21 43L21 44L22 44L22 43ZM34 43L34 44L35 44L35 43ZM43 43L43 44L44 44L44 46L45 46L45 44L44 44L44 43ZM64 43L64 44L62 44L62 45L64 45L64 44L65 44L65 43ZM5 45L5 46L7 46L7 45ZM15 45L15 46L16 46L16 45ZM0 46L0 47L1 47L1 46ZM18 46L18 47L20 47L20 46ZM62 46L62 47L63 47L63 46ZM15 47L15 48L16 48L16 49L17 49L17 50L18 50L18 49L19 49L19 48L18 48L18 49L17 49L17 48L16 48L16 47ZM26 48L26 49L27 49L27 50L30 50L30 49L27 49L27 48ZM40 48L40 49L38 49L38 50L37 50L37 51L36 51L36 52L37 52L37 53L38 53L38 54L39 54L39 53L38 53L38 52L39 52L39 51L41 51L41 48ZM54 48L54 49L51 49L51 50L50 50L50 51L49 51L49 52L47 52L47 54L50 54L50 53L51 53L51 52L50 52L50 51L52 51L52 52L53 52L53 51L54 51L54 50L56 50L56 49L55 49L55 48ZM38 50L38 51L39 51L39 50ZM42 50L42 52L44 52L44 51L43 51L43 50ZM46 50L46 51L47 51L47 50ZM52 50L52 51L53 51L53 50ZM58 50L58 51L59 51L59 50ZM60 50L60 51L61 51L61 50ZM15 51L15 53L17 53L17 52L16 52L16 51ZM23 51L23 52L24 52L24 51ZM62 51L62 52L60 52L60 53L62 53L62 52L63 52L63 51ZM20 52L20 53L22 53L22 52ZM26 52L26 53L27 53L27 52ZM18 54L18 55L19 55L19 54ZM52 54L52 55L55 55L55 54ZM16 55L16 56L17 56L17 55ZM56 55L56 56L55 56L55 58L56 58L56 56L57 56L57 55ZM50 56L50 57L51 57L51 56ZM62 56L62 57L64 57L64 58L65 58L65 57L64 57L64 56ZM31 57L31 60L34 60L34 57ZM42 57L42 58L43 58L43 59L44 59L44 57ZM57 57L57 60L60 60L60 57ZM32 58L32 59L33 59L33 58ZM58 58L58 59L59 59L59 58ZM24 59L24 60L25 60L25 59ZM55 59L55 60L56 60L56 59ZM62 59L62 60L63 60L63 59ZM8 60L8 65L9 65L9 64L10 64L10 65L12 65L12 64L11 64L11 63L9 63L9 61L10 61L10 60ZM22 61L22 62L23 62L23 61ZM50 61L50 62L51 62L51 61ZM55 61L55 62L56 62L56 61ZM36 62L36 63L37 63L37 62ZM46 63L46 64L47 64L47 63ZM58 63L58 64L59 64L59 63ZM13 64L13 65L14 65L14 64ZM55 64L55 65L56 65L56 64ZM0 0L0 7L7 7L7 0ZM1 1L1 6L6 6L6 1ZM2 2L2 5L5 5L5 2ZM58 0L58 7L65 7L65 0ZM59 1L59 6L64 6L64 1ZM60 2L60 5L63 5L63 2ZM0 58L0 65L7 65L7 58ZM1 59L1 64L6 64L6 59ZM2 60L2 63L5 63L5 60Z" fill="#000000"/></g></g></svg>
