<?xml version="1.0" encoding="UTF-8"?>
<svg xmlns="http://www.w3.org/2000/svg" version="1.1" width="300" height="300" viewBox="0 0 300 300"><rect x="0" y="0" width="300" height="300" fill="#ffffff"/><g transform="scale(4.615)"><g transform="translate(0,0)"><path fill-rule="evenodd" d="M9 0L9 1L8 1L8 2L9 2L9 3L8 3L8 4L9 4L9 5L8 5L8 7L9 7L9 6L10 6L10 9L11 9L11 10L9 10L9 8L6 8L6 9L5 9L5 8L0 8L0 10L1 10L1 12L0 12L0 15L1 15L1 13L2 13L2 17L3 17L3 18L4 18L4 17L7 17L7 18L5 18L5 19L3 19L3 20L4 20L4 21L2 21L2 19L0 19L0 20L1 20L1 21L0 21L0 24L1 24L1 23L2 23L2 22L3 22L3 23L4 23L4 24L5 24L5 25L3 25L3 24L2 24L2 26L1 26L1 25L0 25L0 30L1 30L1 31L0 31L0 32L2 32L2 35L1 35L1 34L0 34L0 35L1 35L1 36L2 36L2 37L1 37L1 38L0 38L0 41L1 41L1 42L2 42L2 44L1 44L1 46L0 46L0 49L1 49L1 51L2 51L2 49L3 49L3 50L4 50L4 49L5 49L5 51L3 51L3 52L0 52L0 54L2 54L2 55L3 55L3 56L1 56L1 55L0 55L0 56L1 56L1 57L3 57L3 56L4 56L4 57L5 57L5 56L4 56L4 54L5 54L5 55L8 55L8 54L9 54L9 55L11 55L11 56L6 56L6 57L8 57L8 59L9 59L9 60L8 60L8 65L9 65L9 60L10 60L10 61L11 61L11 59L10 59L10 58L12 58L12 57L11 57L11 56L15 56L15 57L17 57L17 58L15 58L15 59L14 59L14 58L13 58L13 59L12 59L12 60L13 60L13 59L14 59L14 61L12 61L12 63L11 63L11 64L10 64L10 65L12 65L12 64L13 64L13 65L14 65L14 64L15 64L15 65L19 65L19 64L20 64L20 65L22 65L22 63L23 63L23 64L24 64L24 63L23 63L23 62L24 62L24 61L25 61L25 62L27 62L27 63L26 63L26 64L25 64L25 65L26 65L26 64L27 64L27 65L29 65L29 64L30 64L30 65L31 65L31 64L32 64L32 65L33 65L33 63L31 63L31 62L30 62L30 61L32 61L32 62L34 62L34 63L37 63L37 64L34 64L34 65L39 65L39 64L41 64L41 65L43 65L43 63L42 63L42 62L44 62L44 64L45 64L45 63L46 63L46 64L47 64L47 65L49 65L49 64L47 64L47 62L44 62L44 60L45 60L45 61L49 61L49 62L48 62L48 63L51 63L51 64L50 64L50 65L52 65L52 64L54 64L54 65L55 65L55 64L56 64L56 65L57 65L57 64L56 64L56 62L57 62L57 63L58 63L58 62L59 62L59 64L58 64L58 65L63 65L63 64L64 64L64 60L62 60L62 59L61 59L61 58L65 58L65 55L64 55L64 57L63 57L63 56L62 56L62 55L63 55L63 54L62 54L62 55L60 55L60 54L61 54L61 53L59 53L59 51L61 51L61 52L62 52L62 53L64 53L64 54L65 54L65 53L64 53L64 52L62 52L62 51L63 51L63 50L61 50L61 49L58 49L58 48L59 48L59 47L60 47L60 46L61 46L61 47L62 47L62 46L63 46L63 44L64 44L64 45L65 45L65 44L64 44L64 42L65 42L65 41L64 41L64 40L65 40L65 39L63 39L63 40L62 40L62 41L63 41L63 42L62 42L62 43L60 43L60 44L62 44L62 45L60 45L60 46L59 46L59 45L58 45L58 44L59 44L59 43L58 43L58 42L57 42L57 43L55 43L55 44L53 44L53 43L54 43L54 42L55 42L55 41L52 41L52 40L53 40L53 39L54 39L54 40L56 40L56 41L57 41L57 40L56 40L56 39L54 39L54 38L55 38L55 37L54 37L54 34L55 34L55 32L56 32L56 35L55 35L55 36L57 36L57 39L58 39L58 41L59 41L59 42L61 42L61 41L59 41L59 40L60 40L60 38L65 38L65 37L63 37L63 36L62 36L62 35L63 35L63 34L65 34L65 33L64 33L64 32L65 32L65 31L64 31L64 32L62 32L62 31L63 31L63 30L62 30L62 31L61 31L61 30L60 30L60 29L61 29L61 28L59 28L59 26L58 26L58 28L57 28L57 27L54 27L54 28L55 28L55 29L52 29L52 28L53 28L53 27L52 27L52 26L53 26L53 25L51 25L51 24L50 24L50 25L49 25L49 24L48 24L48 23L49 23L49 22L50 22L50 23L52 23L52 24L54 24L54 26L55 26L55 24L56 24L56 25L57 25L57 23L53 23L53 22L55 22L55 21L54 21L54 20L56 20L56 21L59 21L59 22L58 22L58 23L59 23L59 25L61 25L61 24L60 24L60 23L59 23L59 22L62 22L62 21L63 21L63 24L62 24L62 27L63 27L63 28L62 28L62 29L64 29L64 28L65 28L65 27L64 27L64 26L65 26L65 25L64 25L64 26L63 26L63 24L64 24L64 22L65 22L65 20L64 20L64 19L63 19L63 17L64 17L64 18L65 18L65 15L64 15L64 16L62 16L62 18L60 18L60 19L63 19L63 20L62 20L62 21L61 21L61 20L58 20L58 19L59 19L59 18L58 18L58 16L56 16L56 17L54 17L54 18L53 18L53 17L52 17L52 20L51 20L51 18L50 18L50 20L48 20L48 19L47 19L47 18L49 18L49 16L50 16L50 15L52 15L52 16L53 16L53 15L54 15L54 14L55 14L55 15L60 15L60 14L56 14L56 13L57 13L57 12L58 12L58 11L59 11L59 10L60 10L60 11L61 11L61 10L60 10L60 8L59 8L59 10L56 10L56 11L57 11L57 12L56 12L56 13L55 13L55 11L54 11L54 10L55 10L55 9L58 9L58 8L55 8L55 5L54 5L54 4L56 4L56 5L57 5L57 4L56 4L56 3L57 3L57 1L56 1L56 0L55 0L55 1L56 1L56 3L55 3L55 2L54 2L54 3L53 3L53 2L52 2L52 1L54 1L54 0L51 0L51 1L50 1L50 0L47 0L47 1L45 1L45 0L41 0L41 1L45 1L45 2L43 2L43 4L42 4L42 5L40 5L40 3L41 3L41 2L40 2L40 1L36 1L36 2L39 2L39 3L38 3L38 4L39 4L39 5L36 5L36 7L37 7L37 6L38 6L38 8L36 8L36 10L34 10L34 11L32 11L32 12L31 12L31 11L29 11L29 10L30 10L30 9L35 9L35 4L37 4L37 3L34 3L34 2L35 2L35 1L34 1L34 0L33 0L33 1L34 1L34 2L32 2L32 0L29 0L29 1L28 1L28 0L26 0L26 1L25 1L25 0L24 0L24 1L25 1L25 2L24 2L24 3L23 3L23 0L22 0L22 2L21 2L21 1L20 1L20 0L19 0L19 1L20 1L20 2L21 2L21 3L20 3L20 4L21 4L21 6L20 6L20 7L19 7L19 6L18 6L18 7L17 7L17 5L16 5L16 4L18 4L18 5L19 5L19 4L18 4L18 3L17 3L17 2L18 2L18 1L17 1L17 2L15 2L15 0L12 0L12 1L13 1L13 2L15 2L15 3L11 3L11 2L9 2L9 1L10 1L10 0ZM27 1L27 2L28 2L28 1ZM30 1L30 4L25 4L25 3L26 3L26 2L25 2L25 3L24 3L24 4L25 4L25 5L30 5L30 4L33 4L33 3L32 3L32 2L31 2L31 1ZM49 1L49 2L46 2L46 3L47 3L47 4L45 4L45 3L44 3L44 4L43 4L43 5L42 5L42 6L41 6L41 8L40 8L40 5L39 5L39 9L37 9L37 10L36 10L36 11L34 11L34 12L35 12L35 13L34 13L34 14L33 14L33 12L32 12L32 14L30 14L30 13L31 13L31 12L29 12L29 11L28 11L28 10L29 10L29 9L28 9L28 10L26 10L26 9L27 9L27 8L28 8L28 6L27 6L27 7L26 7L26 6L25 6L25 7L24 7L24 5L23 5L23 4L22 4L22 3L21 3L21 4L22 4L22 6L21 6L21 7L22 7L22 6L23 6L23 7L24 7L24 8L21 8L21 9L20 9L20 10L19 10L19 9L18 9L18 8L19 8L19 7L18 7L18 8L15 8L15 7L16 7L16 5L15 5L15 4L14 4L14 5L12 5L12 4L11 4L11 3L9 3L9 4L10 4L10 5L11 5L11 7L12 7L12 8L11 8L11 9L12 9L12 10L11 10L11 11L12 11L12 12L10 12L10 11L9 11L9 12L8 12L8 11L6 11L6 10L8 10L8 9L6 9L6 10L5 10L5 11L4 11L4 10L2 10L2 13L4 13L4 12L5 12L5 13L6 13L6 14L7 14L7 13L6 13L6 12L8 12L8 15L9 15L9 14L10 14L10 15L11 15L11 14L10 14L10 13L13 13L13 14L14 14L14 15L12 15L12 16L14 16L14 17L13 17L13 18L12 18L12 21L11 21L11 22L12 22L12 23L11 23L11 24L10 24L10 25L11 25L11 26L8 26L8 25L9 25L9 23L8 23L8 25L6 25L6 26L7 26L7 27L6 27L6 28L8 28L8 29L3 29L3 31L2 31L2 32L3 32L3 35L2 35L2 36L3 36L3 35L4 35L4 32L3 32L3 31L4 31L4 30L9 30L9 28L10 28L10 29L11 29L11 31L10 31L10 32L9 32L9 34L10 34L10 32L11 32L11 33L12 33L12 34L11 34L11 35L9 35L9 36L7 36L7 35L6 35L6 36L5 36L5 37L2 37L2 38L1 38L1 39L2 39L2 40L3 40L3 41L4 41L4 43L3 43L3 45L4 45L4 46L2 46L2 47L1 47L1 49L2 49L2 47L3 47L3 48L5 48L5 47L6 47L6 48L8 48L8 50L10 50L10 51L8 51L8 53L9 53L9 54L10 54L10 53L9 53L9 52L10 52L10 51L11 51L11 50L13 50L13 51L14 51L14 50L13 50L13 48L15 48L15 51L16 51L16 52L13 52L13 53L12 53L12 55L13 55L13 53L15 53L15 54L17 54L17 53L18 53L18 52L17 52L17 51L18 51L18 50L19 50L19 53L20 53L20 54L19 54L19 57L18 57L18 59L16 59L16 61L15 61L15 62L16 62L16 61L17 61L17 64L19 64L19 63L20 63L20 62L19 62L19 61L21 61L21 63L22 63L22 61L24 61L24 59L25 59L25 58L21 58L21 57L25 57L25 56L24 56L24 55L25 55L25 54L24 54L24 53L26 53L26 54L27 54L27 50L29 50L29 51L28 51L28 52L29 52L29 53L28 53L28 54L30 54L30 55L29 55L29 57L28 57L28 59L27 59L27 58L26 58L26 61L27 61L27 62L28 62L28 61L30 61L30 58L29 58L29 57L30 57L30 55L33 55L33 53L32 53L32 52L33 52L33 51L32 51L32 50L33 50L33 49L35 49L35 48L34 48L34 47L35 47L35 46L36 46L36 45L34 45L34 43L35 43L35 44L38 44L38 45L37 45L37 47L36 47L36 48L37 48L37 49L36 49L36 52L37 52L37 49L38 49L38 50L39 50L39 51L40 51L40 50L41 50L41 52L38 52L38 54L37 54L37 53L35 53L35 54L34 54L34 55L35 55L35 56L37 56L37 55L38 55L38 58L39 58L39 59L41 59L41 58L40 58L40 57L41 57L41 56L40 56L40 57L39 57L39 55L38 55L38 54L39 54L39 53L44 53L44 55L43 55L43 54L42 54L42 57L43 57L43 58L42 58L42 59L43 59L43 60L44 60L44 59L46 59L46 60L47 60L47 59L46 59L46 58L48 58L48 60L49 60L49 59L50 59L50 58L51 58L51 59L52 59L52 58L53 58L53 60L52 60L52 62L51 62L51 61L50 61L50 62L51 62L51 63L54 63L54 64L55 64L55 62L56 62L56 61L55 61L55 62L53 62L53 60L54 60L54 59L55 59L55 60L56 60L56 59L55 59L55 58L56 58L56 56L57 56L57 55L56 55L56 54L57 54L57 52L58 52L58 51L59 51L59 50L58 50L58 51L57 51L57 52L54 52L54 51L55 51L55 50L54 50L54 49L53 49L53 48L54 48L54 47L56 47L56 48L55 48L55 49L56 49L56 50L57 50L57 49L56 49L56 48L57 48L57 47L59 47L59 46L57 46L57 45L56 45L56 44L55 44L55 46L52 46L52 47L51 47L51 49L50 49L50 46L51 46L51 45L50 45L50 46L48 46L48 48L49 48L49 49L48 49L48 51L46 51L46 50L47 50L47 49L45 49L45 48L44 48L44 49L43 49L43 50L41 50L41 48L43 48L43 47L46 47L46 48L47 48L47 47L46 47L46 46L47 46L47 45L48 45L48 44L49 44L49 43L50 43L50 44L52 44L52 45L53 45L53 44L52 44L52 43L50 43L50 42L52 42L52 41L51 41L51 40L50 40L50 38L51 38L51 37L50 37L50 38L49 38L49 39L48 39L48 40L47 40L47 39L46 39L46 38L48 38L48 36L52 36L52 37L53 37L53 36L52 36L52 35L53 35L53 34L54 34L54 33L53 33L53 32L54 32L54 31L56 31L56 30L57 30L57 29L56 29L56 30L53 30L53 32L51 32L51 31L49 31L49 30L48 30L48 29L46 29L46 28L47 28L47 27L48 27L48 28L49 28L49 29L50 29L50 30L51 30L51 29L50 29L50 28L51 28L51 27L50 27L50 26L51 26L51 25L50 25L50 26L49 26L49 25L48 25L48 24L47 24L47 23L48 23L48 22L49 22L49 21L48 21L48 20L47 20L47 19L46 19L46 18L47 18L47 17L45 17L45 16L46 16L46 14L47 14L47 16L49 16L49 15L50 15L50 14L51 14L51 13L53 13L53 12L52 12L52 11L53 11L53 10L52 10L52 9L53 9L53 8L51 8L51 7L52 7L52 6L51 6L51 7L50 7L50 5L51 5L51 4L50 4L50 3L51 3L51 2L50 2L50 1ZM48 3L48 4L49 4L49 5L50 5L50 4L49 4L49 3ZM52 3L52 5L53 5L53 3ZM14 5L14 7L15 7L15 5ZM31 5L31 8L34 8L34 5ZM43 5L43 6L42 6L42 8L43 8L43 6L44 6L44 8L45 8L45 9L44 9L44 11L43 11L43 12L45 12L45 13L44 13L44 14L45 14L45 13L47 13L47 14L48 14L48 13L49 13L49 12L51 12L51 11L52 11L52 10L50 10L50 7L49 7L49 6L48 6L48 7L49 7L49 8L48 8L48 9L47 9L47 10L46 10L46 8L47 8L47 5L46 5L46 8L45 8L45 5ZM12 6L12 7L13 7L13 6ZM29 6L29 7L30 7L30 6ZM32 6L32 7L33 7L33 6ZM53 6L53 7L54 7L54 6ZM56 6L56 7L57 7L57 6ZM13 8L13 9L14 9L14 11L13 11L13 10L12 10L12 11L13 11L13 13L14 13L14 12L15 12L15 14L17 14L17 15L15 15L15 16L17 16L17 15L18 15L18 17L19 17L19 18L18 18L18 19L16 19L16 20L18 20L18 21L17 21L17 22L18 22L18 23L20 23L20 21L22 21L22 20L21 20L21 19L22 19L22 18L23 18L23 17L22 17L22 16L23 16L23 15L24 15L24 16L25 16L25 17L24 17L24 19L23 19L23 20L24 20L24 19L25 19L25 20L26 20L26 19L25 19L25 18L27 18L27 19L28 19L28 20L27 20L27 21L29 21L29 20L31 20L31 21L30 21L30 22L33 22L33 23L29 23L29 24L28 24L28 25L26 25L26 24L27 24L27 23L26 23L26 24L25 24L25 25L24 25L24 23L25 23L25 22L26 22L26 21L24 21L24 22L23 22L23 23L22 23L22 24L23 24L23 25L21 25L21 24L20 24L20 25L21 25L21 27L20 27L20 26L19 26L19 28L18 28L18 29L16 29L16 27L17 27L17 26L18 26L18 25L19 25L19 24L16 24L16 23L12 23L12 24L11 24L11 25L12 25L12 24L13 24L13 28L14 28L14 30L12 30L12 31L13 31L13 33L14 33L14 30L15 30L15 31L16 31L16 33L17 33L17 34L16 34L16 35L12 35L12 37L13 37L13 38L10 38L10 37L9 37L9 40L10 40L10 39L13 39L13 38L15 38L15 37L18 37L18 39L17 39L17 38L16 38L16 39L17 39L17 40L15 40L15 39L14 39L14 41L19 41L19 42L17 42L17 43L15 43L15 42L14 42L14 43L12 43L12 42L13 42L13 41L12 41L12 40L11 40L11 41L12 41L12 42L11 42L11 43L12 43L12 45L11 45L11 46L10 46L10 41L9 41L9 42L6 42L6 41L8 41L8 40L6 40L6 41L5 41L5 43L7 43L7 44L6 44L6 45L7 45L7 46L6 46L6 47L8 47L8 48L9 48L9 47L8 47L8 44L9 44L9 46L10 46L10 47L11 47L11 48L10 48L10 50L11 50L11 48L13 48L13 45L14 45L14 47L15 47L15 48L16 48L16 49L17 49L17 48L16 48L16 47L15 47L15 46L16 46L16 45L14 45L14 43L15 43L15 44L18 44L18 45L20 45L20 44L18 44L18 43L19 43L19 42L20 42L20 43L22 43L22 44L23 44L23 45L21 45L21 48L18 48L18 49L19 49L19 50L20 50L20 51L22 51L22 50L23 50L23 51L25 51L25 52L26 52L26 51L25 51L25 50L27 50L27 49L26 49L26 46L28 46L28 45L26 45L26 44L28 44L28 43L29 43L29 45L30 45L30 44L31 44L31 42L32 42L32 43L33 43L33 42L38 42L38 44L39 44L39 43L40 43L40 44L41 44L41 45L40 45L40 47L39 47L39 46L38 46L38 47L39 47L39 48L38 48L38 49L39 49L39 50L40 50L40 48L41 48L41 46L44 46L44 44L45 44L45 43L47 43L47 42L45 42L45 43L44 43L44 42L43 42L43 40L42 40L42 39L41 39L41 38L38 38L38 37L39 37L39 36L42 36L42 38L43 38L43 37L44 37L44 38L45 38L45 37L44 37L44 36L45 36L45 35L47 35L47 34L46 34L46 32L45 32L45 30L43 30L43 29L39 29L39 28L41 28L41 26L43 26L43 25L42 25L42 24L45 24L45 25L44 25L44 26L45 26L45 25L47 25L47 24L46 24L46 23L47 23L47 22L44 22L44 21L42 21L42 22L43 22L43 23L40 23L40 22L38 22L38 23L39 23L39 24L38 24L38 25L37 25L37 24L35 24L35 23L36 23L36 21L37 21L37 20L36 20L36 19L37 19L37 16L36 16L36 18L34 18L34 16L33 16L33 14L32 14L32 16L31 16L31 15L29 15L29 16L28 16L28 15L26 15L26 16L25 16L25 13L26 13L26 14L28 14L28 13L26 13L26 12L28 12L28 11L25 11L25 12L23 12L23 9L22 9L22 10L21 10L21 11L19 11L19 10L18 10L18 11L19 11L19 12L18 12L18 13L17 13L17 12L15 12L15 9L14 9L14 8ZM61 8L61 9L62 9L62 8ZM63 8L63 9L64 9L64 10L62 10L62 11L63 11L63 12L60 12L60 13L61 13L61 14L62 14L62 13L64 13L64 14L65 14L65 11L64 11L64 10L65 10L65 9L64 9L64 8ZM16 9L16 10L17 10L17 9ZM24 9L24 10L25 10L25 9ZM39 9L39 10L38 10L38 11L39 11L39 12L38 12L38 13L39 13L39 14L37 14L37 12L36 12L36 14L34 14L34 15L36 15L36 14L37 14L37 15L39 15L39 14L40 14L40 12L41 12L41 13L42 13L42 14L43 14L43 13L42 13L42 12L41 12L41 10L43 10L43 9L41 9L41 10L40 10L40 9ZM39 10L39 11L40 11L40 10ZM21 11L21 12L20 12L20 13L18 13L18 14L20 14L20 15L19 15L19 16L21 16L21 12L22 12L22 13L23 13L23 14L24 14L24 13L23 13L23 12L22 12L22 11ZM46 11L46 12L47 12L47 13L48 13L48 12L49 12L49 11ZM4 14L4 15L3 15L3 17L4 17L4 16L5 16L5 14ZM52 14L52 15L53 15L53 14ZM6 15L6 16L7 16L7 15ZM40 15L40 16L38 16L38 17L39 17L39 18L38 18L38 21L39 21L39 20L41 20L41 19L42 19L42 20L43 20L43 19L42 19L42 18L43 18L43 17L44 17L44 18L45 18L45 17L44 17L44 16L45 16L45 15ZM8 16L8 17L9 17L9 18L8 18L8 19L6 19L6 20L8 20L8 21L5 21L5 22L4 22L4 23L5 23L5 24L7 24L7 23L5 23L5 22L10 22L10 21L9 21L9 20L10 20L10 19L11 19L11 17L10 17L10 16ZM26 16L26 17L27 17L27 18L28 18L28 19L31 19L31 20L32 20L32 21L33 21L33 20L32 20L32 19L33 19L33 18L32 18L32 19L31 19L31 18L30 18L30 17L31 17L31 16L30 16L30 17L28 17L28 16ZM32 16L32 17L33 17L33 16ZM40 16L40 17L41 17L41 16ZM59 16L59 17L61 17L61 16ZM0 17L0 18L1 18L1 17ZM15 17L15 18L13 18L13 20L15 20L15 18L16 18L16 17ZM20 17L20 18L22 18L22 17ZM56 17L56 18L57 18L57 17ZM54 18L54 19L55 19L55 18ZM44 19L44 20L46 20L46 21L47 21L47 20L46 20L46 19ZM19 20L19 21L20 21L20 20ZM50 20L50 22L51 22L51 20ZM52 20L52 21L53 21L53 20ZM63 20L63 21L64 21L64 20ZM1 21L1 22L2 22L2 21ZM12 21L12 22L13 22L13 21ZM14 21L14 22L16 22L16 21ZM34 21L34 22L35 22L35 21ZM33 23L33 24L32 24L32 27L31 27L31 28L28 28L28 29L27 29L27 28L26 28L26 29L27 29L27 30L25 30L25 29L24 29L24 27L25 27L25 26L24 26L24 25L23 25L23 26L22 26L22 27L23 27L23 28L19 28L19 29L18 29L18 30L17 30L17 33L18 33L18 35L16 35L16 36L18 36L18 37L20 37L20 39L18 39L18 40L20 40L20 39L21 39L21 41L20 41L20 42L21 42L21 41L23 41L23 42L22 42L22 43L24 43L24 41L25 41L25 42L26 42L26 43L25 43L25 44L26 44L26 43L27 43L27 42L26 42L26 41L28 41L28 42L30 42L30 41L31 41L31 40L34 40L34 41L35 41L35 40L39 40L39 41L38 41L38 42L39 42L39 41L42 41L42 40L40 40L40 39L38 39L38 38L37 38L37 37L38 37L38 36L39 36L39 35L38 35L38 34L39 34L39 32L40 32L40 33L45 33L45 32L44 32L44 31L43 31L43 30L42 30L42 31L41 31L41 30L40 30L40 31L39 31L39 32L37 32L37 31L36 31L36 30L35 30L35 29L34 29L34 30L35 30L35 32L37 32L37 33L35 33L35 36L34 36L34 35L32 35L32 36L34 36L34 37L35 37L35 36L37 36L37 37L36 37L36 38L37 38L37 39L35 39L35 38L34 38L34 39L32 39L32 38L33 38L33 37L32 37L32 38L31 38L31 37L30 37L30 36L31 36L31 35L30 35L30 34L29 34L29 33L30 33L30 32L29 32L29 33L28 33L28 34L27 34L27 37L25 37L25 36L26 36L26 35L25 35L25 36L24 36L24 35L23 35L23 36L24 36L24 37L25 37L25 38L23 38L23 37L22 37L22 36L21 36L21 35L22 35L22 33L25 33L25 34L26 34L26 33L27 33L27 32L28 32L28 31L27 31L27 30L28 30L28 29L30 29L30 30L29 30L29 31L30 31L30 30L31 30L31 28L32 28L32 29L33 29L33 28L32 28L32 27L33 27L33 25L34 25L34 26L35 26L35 28L37 28L37 30L39 30L39 29L38 29L38 27L36 27L36 26L35 26L35 24L34 24L34 23ZM29 24L29 25L28 25L28 26L29 26L29 27L30 27L30 26L29 26L29 25L31 25L31 24ZM40 24L40 25L38 25L38 26L39 26L39 27L40 27L40 26L41 26L41 24ZM15 25L15 27L14 27L14 28L15 28L15 27L16 27L16 26L17 26L17 25ZM2 26L2 27L1 27L1 28L5 28L5 27L4 27L4 26ZM46 26L46 27L44 27L44 28L46 28L46 27L47 27L47 26ZM60 26L60 27L61 27L61 26ZM10 27L10 28L11 28L11 27ZM42 27L42 28L43 28L43 27ZM58 28L58 30L59 30L59 28ZM15 29L15 30L16 30L16 29ZM19 29L19 30L18 30L18 31L19 31L19 32L18 32L18 33L19 33L19 36L20 36L20 37L21 37L21 39L23 39L23 38L22 38L22 37L21 37L21 36L20 36L20 35L21 35L21 34L20 34L20 33L22 33L22 32L21 32L21 31L22 31L22 30L24 30L24 29L22 29L22 30L21 30L21 29ZM19 30L19 31L20 31L20 30ZM46 30L46 31L48 31L48 30ZM5 31L5 34L8 34L8 31ZM23 31L23 32L24 32L24 31ZM25 31L25 33L26 33L26 32L27 32L27 31ZM31 31L31 34L34 34L34 31ZM40 31L40 32L41 32L41 31ZM42 31L42 32L43 32L43 31ZM57 31L57 34L60 34L60 31ZM6 32L6 33L7 33L7 32ZM19 32L19 33L20 33L20 32ZM32 32L32 33L33 33L33 32ZM47 32L47 33L49 33L49 32ZM50 32L50 33L51 33L51 32ZM58 32L58 33L59 33L59 32ZM52 33L52 34L53 34L53 33ZM61 33L61 35L60 35L60 37L61 37L61 35L62 35L62 34L63 34L63 33ZM36 34L36 35L37 35L37 34ZM40 34L40 35L42 35L42 36L43 36L43 35L44 35L44 34ZM48 34L48 35L51 35L51 34ZM28 35L28 37L29 37L29 36L30 36L30 35ZM6 36L6 37L7 37L7 38L6 38L6 39L8 39L8 37L7 37L7 36ZM58 36L58 37L59 37L59 36ZM2 38L2 39L3 39L3 40L4 40L4 38ZM25 38L25 39L24 39L24 40L25 40L25 41L26 41L26 40L28 40L28 41L29 41L29 40L28 40L28 39L30 39L30 40L31 40L31 39L30 39L30 38L27 38L27 39L26 39L26 38ZM52 38L52 39L53 39L53 38ZM58 38L58 39L59 39L59 38ZM34 39L34 40L35 40L35 39ZM44 39L44 40L45 40L45 39ZM46 40L46 41L47 41L47 40ZM48 40L48 41L49 41L49 42L48 42L48 43L49 43L49 42L50 42L50 40ZM32 41L32 42L33 42L33 41ZM40 42L40 43L41 43L41 44L42 44L42 45L43 45L43 44L44 44L44 43L43 43L43 42ZM42 43L42 44L43 44L43 43ZM62 43L62 44L63 44L63 43ZM32 44L32 45L31 45L31 46L32 46L32 45L33 45L33 46L34 46L34 45L33 45L33 44ZM23 45L23 46L22 46L22 49L25 49L25 48L24 48L24 47L23 47L23 46L24 46L24 45ZM25 45L25 46L26 46L26 45ZM4 46L4 47L5 47L5 46ZM19 46L19 47L20 47L20 46ZM29 46L29 48L28 48L28 47L27 47L27 48L28 48L28 49L29 49L29 48L30 48L30 46ZM31 47L31 50L30 50L30 53L31 53L31 50L32 50L32 49L33 49L33 48L32 48L32 47ZM52 47L52 48L53 48L53 47ZM62 48L62 49L64 49L64 50L65 50L65 49L64 49L64 48ZM6 49L6 50L7 50L7 49ZM20 49L20 50L21 50L21 49ZM51 49L51 50L50 50L50 51L49 51L49 52L46 52L46 51L45 51L45 50L43 50L43 51L42 51L42 52L43 52L43 51L44 51L44 52L45 52L45 53L50 53L50 51L51 51L51 54L50 54L50 55L51 55L51 54L52 54L52 56L53 56L53 57L54 57L54 58L55 58L55 56L56 56L56 55L55 55L55 56L54 56L54 55L53 55L53 54L56 54L56 53L53 53L53 54L52 54L52 52L53 52L53 51L52 51L52 50L53 50L53 49ZM34 50L34 51L35 51L35 50ZM6 51L6 52L4 52L4 53L3 53L3 54L4 54L4 53L5 53L5 54L7 54L7 53L6 53L6 52L7 52L7 51ZM16 52L16 53L17 53L17 52ZM20 52L20 53L22 53L22 52ZM20 54L20 55L21 55L21 56L20 56L20 57L21 57L21 56L23 56L23 54L22 54L22 55L21 55L21 54ZM36 54L36 55L37 55L37 54ZM40 54L40 55L41 55L41 54ZM45 54L45 55L44 55L44 56L43 56L43 57L44 57L44 58L45 58L45 57L44 57L44 56L45 56L45 55L46 55L46 57L47 57L47 54ZM48 54L48 55L49 55L49 54ZM58 54L58 55L59 55L59 54ZM16 55L16 56L17 56L17 55ZM26 56L26 57L27 57L27 56ZM48 56L48 58L50 58L50 56ZM31 57L31 60L34 60L34 57ZM35 57L35 59L36 59L36 60L37 60L37 63L38 63L38 64L39 64L39 63L41 63L41 64L42 64L42 63L41 63L41 62L40 62L40 61L41 61L41 60L37 60L37 59L36 59L36 58L37 58L37 57ZM51 57L51 58L52 58L52 57ZM57 57L57 60L60 60L60 57ZM19 58L19 59L18 59L18 61L19 61L19 59L20 59L20 60L21 60L21 58ZM32 58L32 59L33 59L33 58ZM58 58L58 59L59 59L59 58ZM28 59L28 60L27 60L27 61L28 61L28 60L29 60L29 59ZM61 60L61 61L60 61L60 62L61 62L61 63L62 63L62 64L63 64L63 62L61 62L61 61L62 61L62 60ZM34 61L34 62L35 62L35 61ZM57 61L57 62L58 62L58 61ZM13 62L13 63L14 63L14 62ZM18 62L18 63L19 63L19 62ZM38 62L38 63L39 63L39 62ZM15 63L15 64L16 64L16 63ZM27 63L27 64L28 64L28 63ZM30 63L30 64L31 64L31 63ZM0 0L0 7L7 7L7 0ZM1 1L1 6L6 6L6 1ZM2 2L2 5L5 5L5 2ZM58 0L58 7L65 7L65 0ZM59 1L59 6L64 6L64 1ZM60 2L60 5L63 5L63 2ZM0 58L0 65L7 65L7 58ZM1 59L1 64L6 64L6 59ZM2 60L2 63L5 63L5 60Z" fill="#000000"/></g></g></svg>
