<?xml version="1.0" encoding="UTF-8"?>
<svg xmlns="http://www.w3.org/2000/svg" version="1.1" width="300" height="300" viewBox="0 0 300 300"><rect x="0" y="0" width="300" height="300" fill="#ffffff"/><g transform="scale(4.615)"><g transform="translate(0,0)"><path fill-rule="evenodd" d="M9 0L9 1L8 1L8 2L9 2L9 3L8 3L8 4L10 4L10 5L8 5L8 7L9 7L9 6L10 6L10 7L11 7L11 8L12 8L12 9L14 9L14 10L16 10L16 11L17 11L17 12L18 12L18 13L20 13L20 9L21 9L21 11L22 11L22 10L23 10L23 13L21 13L21 15L22 15L22 16L20 16L20 17L19 17L19 16L18 16L18 17L16 17L16 15L15 15L15 17L13 17L13 16L14 16L14 14L15 14L15 13L16 13L16 14L17 14L17 13L16 13L16 12L12 12L12 11L13 11L13 10L12 10L12 11L10 11L10 9L9 9L9 8L6 8L6 9L7 9L7 10L6 10L6 11L5 11L5 12L3 12L3 11L4 11L4 10L5 10L5 8L0 8L0 12L2 12L2 16L1 16L1 15L0 15L0 17L2 17L2 16L3 16L3 17L4 17L4 18L6 18L6 19L5 19L5 20L4 20L4 19L3 19L3 18L1 18L1 21L3 21L3 22L2 22L2 24L1 24L1 23L0 23L0 25L2 25L2 24L3 24L3 25L4 25L4 24L5 24L5 22L6 22L6 23L7 23L7 24L6 24L6 25L8 25L8 26L9 26L9 27L10 27L10 26L13 26L13 27L11 27L11 28L10 28L10 30L9 30L9 29L7 29L7 28L6 28L6 29L7 29L7 30L5 30L5 29L3 29L3 30L2 30L2 29L1 29L1 28L0 28L0 31L1 31L1 30L2 30L2 32L0 32L0 35L1 35L1 37L0 37L0 38L1 38L1 42L6 42L6 43L5 43L5 45L4 45L4 46L2 46L2 45L3 45L3 44L4 44L4 43L3 43L3 44L1 44L1 45L0 45L0 46L2 46L2 48L1 48L1 47L0 47L0 50L2 50L2 51L0 51L0 54L2 54L2 55L3 55L3 56L1 56L1 55L0 55L0 56L1 56L1 57L3 57L3 56L4 56L4 57L5 57L5 56L4 56L4 54L5 54L5 55L7 55L7 56L6 56L6 57L7 57L7 56L8 56L8 59L9 59L9 60L8 60L8 65L17 65L17 62L18 62L18 65L21 65L21 61L19 61L19 58L20 58L20 59L21 59L21 58L23 58L23 57L22 57L22 56L23 56L23 54L20 54L20 55L21 55L21 56L19 56L19 55L18 55L18 54L19 54L19 50L20 50L20 51L22 51L22 50L23 50L23 53L24 53L24 54L25 54L25 53L24 53L24 52L26 52L26 51L27 51L27 52L28 52L28 53L27 53L27 55L24 55L24 56L28 56L28 57L29 57L29 58L30 58L30 61L29 61L29 60L27 60L27 61L26 61L26 62L25 62L25 63L26 63L26 62L27 62L27 64L28 64L28 65L35 65L35 64L30 64L30 61L32 61L32 62L33 62L33 61L39 61L39 62L38 62L38 63L37 63L37 62L36 62L36 63L37 63L37 64L36 64L36 65L37 65L37 64L39 64L39 62L40 62L40 64L42 64L42 65L43 65L43 64L42 64L42 63L41 63L41 62L43 62L43 63L44 63L44 64L45 64L45 65L47 65L47 63L48 63L48 61L49 61L49 62L50 62L50 63L51 63L51 62L52 62L52 60L53 60L53 59L51 59L51 58L50 58L50 57L49 57L49 56L51 56L51 54L50 54L50 53L49 53L49 52L50 52L50 51L51 51L51 53L52 53L52 52L53 52L53 51L52 51L52 50L56 50L56 51L54 51L54 52L56 52L56 53L53 53L53 54L52 54L52 56L53 56L53 58L55 58L55 59L54 59L54 60L55 60L55 61L53 61L53 63L52 63L52 64L53 64L53 65L55 65L55 64L57 64L57 65L61 65L61 64L62 64L62 65L63 65L63 64L64 64L64 60L65 60L65 59L63 59L63 58L62 58L62 59L61 59L61 55L60 55L60 56L59 56L59 55L57 55L57 51L58 51L58 52L59 52L59 53L58 53L58 54L59 54L59 53L60 53L60 54L65 54L65 51L64 51L64 53L63 53L63 52L62 52L62 51L63 51L63 50L61 50L61 49L58 49L58 48L59 48L59 47L58 47L58 48L57 48L57 46L56 46L56 45L55 45L55 44L57 44L57 43L58 43L58 44L59 44L59 46L61 46L61 45L60 45L60 44L61 44L61 43L60 43L60 44L59 44L59 43L58 43L58 42L65 42L65 40L64 40L64 38L65 38L65 37L64 37L64 36L65 36L65 35L63 35L63 34L65 34L65 31L64 31L64 32L62 32L62 33L63 33L63 34L62 34L62 35L61 35L61 30L60 30L60 29L61 29L61 28L60 28L60 27L63 27L63 26L62 26L62 25L64 25L64 26L65 26L65 25L64 25L64 24L65 24L65 23L64 23L64 22L65 22L65 21L64 21L64 22L63 22L63 20L64 20L64 18L65 18L65 15L64 15L64 16L60 16L60 18L58 18L58 16L59 16L59 14L56 14L56 13L57 13L57 12L58 12L58 11L59 11L59 10L61 10L61 9L62 9L62 11L63 11L63 12L59 12L59 13L64 13L64 14L65 14L65 13L64 13L64 12L65 12L65 11L63 11L63 10L65 10L65 9L64 9L64 8L63 8L63 9L62 9L62 8L61 8L61 9L60 9L60 8L59 8L59 10L57 10L57 11L54 11L54 10L56 10L56 9L58 9L58 8L55 8L55 5L54 5L54 4L56 4L56 5L57 5L57 4L56 4L56 3L57 3L57 1L56 1L56 0L55 0L55 1L56 1L56 3L55 3L55 2L54 2L54 3L53 3L53 1L54 1L54 0L53 0L53 1L52 1L52 0L51 0L51 1L50 1L50 2L51 2L51 1L52 1L52 3L53 3L53 4L51 4L51 3L48 3L48 0L47 0L47 1L46 1L46 3L45 3L45 1L43 1L43 0L41 0L41 2L39 2L39 1L38 1L38 0L37 0L37 1L36 1L36 2L39 2L39 3L38 3L38 4L37 4L37 3L35 3L35 1L34 1L34 0L33 0L33 1L31 1L31 0L29 0L29 1L28 1L28 0L26 0L26 1L25 1L25 0L22 0L22 2L19 2L19 4L18 4L18 3L17 3L17 2L18 2L18 1L15 1L15 0L12 0L12 1L10 1L10 0ZM9 1L9 2L10 2L10 1ZM14 1L14 2L13 2L13 3L11 3L11 5L10 5L10 6L11 6L11 7L12 7L12 6L13 6L13 7L14 7L14 8L16 8L16 10L17 10L17 11L18 11L18 12L19 12L19 9L20 9L20 8L19 8L19 9L17 9L17 8L16 8L16 6L17 6L17 7L18 7L18 4L17 4L17 3L16 3L16 2L15 2L15 1ZM23 1L23 2L24 2L24 3L23 3L23 4L22 4L22 3L21 3L21 4L20 4L20 5L19 5L19 7L20 7L20 6L21 6L21 7L22 7L22 6L23 6L23 7L24 7L24 5L23 5L23 4L25 4L25 5L26 5L26 4L27 4L27 5L30 5L30 4L28 4L28 3L25 3L25 2L24 2L24 1ZM26 1L26 2L27 2L27 1ZM30 1L30 2L29 2L29 3L31 3L31 4L35 4L35 9L30 9L30 8L29 8L29 7L30 7L30 6L29 6L29 7L28 7L28 6L27 6L27 7L26 7L26 6L25 6L25 8L24 8L24 9L25 9L25 10L24 10L24 12L25 12L25 10L26 10L26 11L28 11L28 12L26 12L26 13L25 13L25 16L24 16L24 15L23 15L23 16L22 16L22 17L23 17L23 18L22 18L22 19L21 19L21 17L20 17L20 19L19 19L19 22L18 22L18 23L17 23L17 21L18 21L18 20L17 20L17 19L18 19L18 18L19 18L19 17L18 17L18 18L16 18L16 17L15 17L15 18L16 18L16 20L14 20L14 21L13 21L13 22L12 22L12 23L11 23L11 22L7 22L7 21L6 21L6 20L7 20L7 19L9 19L9 21L10 21L10 19L12 19L12 18L10 18L10 17L8 17L8 18L7 18L7 17L6 17L6 16L9 16L9 15L10 15L10 16L12 16L12 15L10 15L10 13L9 13L9 12L10 12L10 11L9 11L9 9L8 9L8 10L7 10L7 11L6 11L6 12L5 12L5 13L3 13L3 14L4 14L4 15L5 15L5 17L6 17L6 18L7 18L7 19L6 19L6 20L5 20L5 21L4 21L4 22L5 22L5 21L6 21L6 22L7 22L7 23L8 23L8 24L10 24L10 25L11 25L11 24L13 24L13 25L15 25L15 26L14 26L14 27L13 27L13 29L12 29L12 28L11 28L11 30L12 30L12 31L10 31L10 33L9 33L9 35L11 35L11 36L8 36L8 35L5 35L5 36L4 36L4 32L3 32L3 33L2 33L2 34L3 34L3 36L4 36L4 37L3 37L3 39L2 39L2 41L3 41L3 39L5 39L5 40L7 40L7 39L5 39L5 37L6 37L6 38L8 38L8 41L9 41L9 40L10 40L10 42L11 42L11 43L10 43L10 44L11 44L11 43L13 43L13 46L11 46L11 45L8 45L8 46L7 46L7 45L5 45L5 46L4 46L4 48L7 48L7 49L3 49L3 50L5 50L5 51L6 51L6 52L8 52L8 51L6 51L6 50L10 50L10 49L9 49L9 48L10 48L10 46L11 46L11 47L12 47L12 48L11 48L11 50L13 50L13 51L14 51L14 53L13 53L13 54L17 54L17 53L18 53L18 52L17 52L17 53L15 53L15 52L16 52L16 51L18 51L18 50L19 50L19 49L20 49L20 50L21 50L21 49L23 49L23 50L24 50L24 49L25 49L25 50L26 50L26 49L27 49L27 50L30 50L30 51L28 51L28 52L31 52L31 53L28 53L28 54L30 54L30 55L29 55L29 57L30 57L30 55L31 55L31 56L33 56L33 55L31 55L31 53L32 53L32 54L33 54L33 53L34 53L34 55L36 55L36 56L37 56L37 55L38 55L38 58L37 58L37 57L36 57L36 58L35 58L35 60L38 60L38 58L39 58L39 59L45 59L45 60L44 60L44 63L45 63L45 62L47 62L47 61L46 61L46 60L50 60L50 62L51 62L51 60L50 60L50 59L49 59L49 57L48 57L48 56L49 56L49 55L50 55L50 54L49 54L49 55L48 55L48 54L47 54L47 53L46 53L46 52L49 52L49 50L51 50L51 49L53 49L53 48L54 48L54 49L56 49L56 50L57 50L57 48L54 48L54 47L56 47L56 46L54 46L54 44L52 44L52 43L53 43L53 42L52 42L52 43L50 43L50 42L51 42L51 41L55 41L55 42L54 42L54 43L56 43L56 42L57 42L57 41L56 41L56 40L58 40L58 41L62 41L62 40L63 40L63 41L64 41L64 40L63 40L63 37L61 37L61 35L60 35L60 37L59 37L59 36L58 36L58 37L59 37L59 38L57 38L57 36L55 36L55 35L56 35L56 32L54 32L54 31L56 31L56 30L57 30L57 29L56 29L56 28L55 28L55 26L56 26L56 27L57 27L57 28L58 28L58 30L59 30L59 28L58 28L58 26L61 26L61 25L62 25L62 24L63 24L63 22L62 22L62 20L63 20L63 19L57 19L57 17L56 17L56 16L55 16L55 14L52 14L52 15L53 15L53 16L51 16L51 15L50 15L50 14L51 14L51 13L53 13L53 12L51 12L51 11L53 11L53 10L54 10L54 9L55 9L55 8L54 8L54 6L53 6L53 5L52 5L52 6L51 6L51 7L50 7L50 6L49 6L49 4L48 4L48 3L46 3L46 4L45 4L45 3L43 3L43 1L42 1L42 3L40 3L40 4L38 4L38 5L37 5L37 4L35 4L35 3L32 3L32 2L31 2L31 1ZM14 2L14 3L15 3L15 2ZM42 3L42 5L43 5L43 3ZM12 4L12 5L13 5L13 6L14 6L14 7L15 7L15 6L16 6L16 4L15 4L15 6L14 6L14 4ZM21 4L21 6L22 6L22 4ZM44 4L44 5L45 5L45 4ZM50 4L50 5L51 5L51 4ZM31 5L31 8L34 8L34 5ZM36 5L36 7L37 7L37 5ZM38 5L38 7L39 7L39 5ZM46 5L46 7L45 7L45 6L44 6L44 8L45 8L45 9L47 9L47 10L43 10L43 9L39 9L39 8L36 8L36 9L35 9L35 10L34 10L34 12L33 12L33 11L32 11L32 10L30 10L30 9L29 9L29 8L28 8L28 7L27 7L27 9L26 9L26 10L27 10L27 9L29 9L29 10L30 10L30 12L31 12L31 11L32 11L32 12L33 12L33 13L34 13L34 12L35 12L35 14L34 14L34 15L33 15L33 14L32 14L32 13L30 13L30 14L32 14L32 16L31 16L31 15L30 15L30 16L28 16L28 17L26 17L26 16L27 16L27 15L26 15L26 16L25 16L25 17L24 17L24 18L23 18L23 20L24 20L24 19L25 19L25 18L27 18L27 19L26 19L26 20L25 20L25 21L23 21L23 22L27 22L27 23L26 23L26 24L27 24L27 25L22 25L22 23L20 23L20 22L19 22L19 23L18 23L18 25L19 25L19 26L18 26L18 27L21 27L21 28L24 28L24 29L19 29L19 28L17 28L17 29L16 29L16 28L14 28L14 29L16 29L16 30L15 30L15 31L16 31L16 33L17 33L17 34L14 34L14 33L15 33L15 32L13 32L13 31L12 31L12 33L11 33L11 34L12 34L12 36L13 36L13 35L15 35L15 37L14 37L14 38L12 38L12 37L11 37L11 38L10 38L10 40L11 40L11 42L12 42L12 40L11 40L11 38L12 38L12 39L13 39L13 42L14 42L14 40L15 40L15 42L16 42L16 43L15 43L15 44L14 44L14 45L15 45L15 46L13 46L13 47L15 47L15 48L14 48L14 49L13 49L13 48L12 48L12 49L13 49L13 50L15 50L15 51L16 51L16 49L17 49L17 50L18 50L18 49L19 49L19 47L20 47L20 46L18 46L18 47L17 47L17 48L16 48L16 47L15 47L15 46L16 46L16 45L15 45L15 44L17 44L17 45L20 45L20 41L22 41L22 42L27 42L27 43L26 43L26 44L25 44L25 43L24 43L24 44L23 44L23 43L22 43L22 44L23 44L23 45L21 45L21 47L22 47L22 48L23 48L23 47L24 47L24 48L25 48L25 49L26 49L26 46L27 46L27 45L30 45L30 44L31 44L31 47L30 47L30 46L29 46L29 47L30 47L30 48L27 48L27 49L30 49L30 50L31 50L31 49L33 49L33 50L32 50L32 51L33 51L33 50L35 50L35 49L34 49L34 48L36 48L36 49L37 49L37 50L36 50L36 51L34 51L34 53L37 53L37 52L36 52L36 51L37 51L37 50L38 50L38 53L39 53L39 52L41 52L41 49L42 49L42 50L43 50L43 49L44 49L44 50L46 50L46 51L42 51L42 52L43 52L43 53L42 53L42 54L43 54L43 55L42 55L42 56L45 56L45 57L44 57L44 58L45 58L45 59L47 59L47 58L48 58L48 57L47 57L47 58L46 58L46 56L47 56L47 54L45 54L45 53L44 53L44 52L46 52L46 51L48 51L48 50L49 50L49 49L50 49L50 48L48 48L48 50L46 50L46 49L47 49L47 48L46 48L46 47L48 47L48 46L50 46L50 47L51 47L51 48L53 48L53 47L52 47L52 46L53 46L53 45L52 45L52 44L50 44L50 45L49 45L49 44L48 44L48 45L47 45L47 44L46 44L46 43L47 43L47 42L45 42L45 41L44 41L44 44L43 44L43 43L42 43L42 42L43 42L43 41L42 41L42 38L43 38L43 37L44 37L44 38L45 38L45 37L47 37L47 36L46 36L46 35L47 35L47 34L46 34L46 32L45 32L45 31L47 31L47 33L49 33L49 32L48 32L48 31L50 31L50 33L51 33L51 32L53 32L53 30L56 30L56 29L52 29L52 28L54 28L54 27L53 27L53 26L50 26L50 25L51 25L51 24L53 24L53 22L55 22L55 21L54 21L54 20L56 20L56 21L57 21L57 23L55 23L55 24L56 24L56 25L57 25L57 23L58 23L58 25L61 25L61 24L62 24L62 22L61 22L61 20L59 20L59 22L58 22L58 20L56 20L56 19L52 19L52 18L48 18L48 17L49 17L49 16L46 16L46 15L48 15L48 14L50 14L50 13L51 13L51 12L48 12L48 13L47 13L47 14L46 14L46 12L47 12L47 11L49 11L49 9L51 9L51 8L48 8L48 7L49 7L49 6L48 6L48 7L47 7L47 5ZM32 6L32 7L33 7L33 6ZM40 6L40 8L41 8L41 6ZM42 6L42 8L43 8L43 6ZM52 6L52 8L53 8L53 6ZM56 6L56 7L57 7L57 6ZM46 7L46 8L47 8L47 7ZM21 8L21 9L23 9L23 8ZM3 9L3 10L4 10L4 9ZM38 9L38 10L36 10L36 11L35 11L35 12L37 12L37 13L36 13L36 14L37 14L37 13L38 13L38 14L39 14L39 15L36 15L36 16L32 16L32 17L31 17L31 16L30 16L30 17L28 17L28 18L30 18L30 19L28 19L28 20L29 20L29 21L28 21L28 23L27 23L27 24L28 24L28 23L29 23L29 22L30 22L30 21L32 21L32 22L33 22L33 20L34 20L34 22L35 22L35 20L34 20L34 19L33 19L33 18L35 18L35 19L36 19L36 20L37 20L37 23L36 23L36 24L37 24L37 23L38 23L38 26L37 26L37 25L35 25L35 23L33 23L33 24L32 24L32 23L31 23L31 24L29 24L29 25L27 25L27 27L33 27L33 26L35 26L35 28L37 28L37 27L38 27L38 26L39 26L39 23L40 23L40 22L42 22L42 23L43 23L43 24L42 24L42 25L44 25L44 27L43 27L43 26L41 26L41 28L38 28L38 29L37 29L37 30L35 30L35 29L34 29L34 28L30 28L30 29L27 29L27 28L26 28L26 29L27 29L27 30L25 30L25 29L24 29L24 30L22 30L22 31L24 31L24 33L25 33L25 32L26 32L26 33L27 33L27 32L28 32L28 31L27 31L27 30L32 30L32 29L34 29L34 30L35 30L35 31L36 31L36 32L35 32L35 36L34 36L34 37L32 37L32 40L33 40L33 39L35 39L35 40L34 40L34 41L35 41L35 42L33 42L33 41L32 41L32 42L31 42L31 44L34 44L34 45L32 45L32 46L33 46L33 47L35 47L35 46L36 46L36 45L35 45L35 44L37 44L37 45L38 45L38 46L39 46L39 45L43 45L43 46L40 46L40 47L42 47L42 48L43 48L43 47L46 47L46 46L47 46L47 45L45 45L45 44L44 44L44 45L43 45L43 44L42 44L42 43L41 43L41 42L40 42L40 43L39 43L39 44L37 44L37 43L38 43L38 42L39 42L39 40L40 40L40 41L41 41L41 40L40 40L40 37L41 37L41 38L42 38L42 37L43 37L43 36L44 36L44 37L45 37L45 36L44 36L44 35L45 35L45 34L42 34L42 35L41 35L41 34L40 34L40 35L41 35L41 36L39 36L39 35L38 35L38 34L39 34L39 33L43 33L43 32L44 32L44 33L45 33L45 32L44 32L44 30L45 30L45 28L46 28L46 30L47 30L47 31L48 31L48 30L49 30L49 29L47 29L47 28L46 28L46 27L45 27L45 26L47 26L47 27L48 27L48 28L49 28L49 27L48 27L48 26L49 26L49 25L50 25L50 24L51 24L51 23L48 23L48 22L49 22L49 21L48 21L48 20L49 20L49 19L48 19L48 20L47 20L47 21L46 21L46 20L44 20L44 19L45 19L45 18L47 18L47 17L45 17L45 16L44 16L44 15L45 15L45 12L44 12L44 11L43 11L43 10L42 10L42 11L41 11L41 10L40 10L40 11L38 11L38 10L39 10L39 9ZM1 10L1 11L2 11L2 10ZM50 10L50 11L51 11L51 10ZM7 11L7 12L6 12L6 13L5 13L5 15L7 15L7 14L6 14L6 13L8 13L8 14L9 14L9 13L8 13L8 11ZM40 11L40 12L41 12L41 11ZM28 12L28 13L29 13L29 12ZM38 12L38 13L39 13L39 12ZM43 12L43 13L42 13L42 14L44 14L44 12ZM12 13L12 14L13 14L13 13ZM23 13L23 14L24 14L24 13ZM26 13L26 14L27 14L27 13ZM40 13L40 15L39 15L39 16L38 16L38 17L37 17L37 16L36 16L36 17L35 17L35 18L36 18L36 19L37 19L37 20L38 20L38 19L39 19L39 20L41 20L41 19L40 19L40 18L41 18L41 17L40 17L40 18L38 18L38 17L39 17L39 16L42 16L42 18L44 18L44 16L43 16L43 15L41 15L41 13ZM18 14L18 15L20 15L20 14ZM60 14L60 15L61 15L61 14ZM62 14L62 15L63 15L63 14ZM57 15L57 16L58 16L58 15ZM50 16L50 17L51 17L51 16ZM53 16L53 17L54 17L54 18L55 18L55 17L54 17L54 16ZM32 17L32 18L33 18L33 17ZM61 17L61 18L62 18L62 17ZM37 18L37 19L38 19L38 18ZM2 19L2 20L3 20L3 19ZM30 19L30 20L31 20L31 19ZM32 19L32 20L33 20L33 19ZM42 19L42 20L43 20L43 19ZM50 19L50 22L52 22L52 21L53 21L53 20L52 20L52 21L51 21L51 19ZM20 20L20 21L22 21L22 20ZM26 20L26 21L27 21L27 20ZM15 21L15 22L14 22L14 23L15 23L15 25L17 25L17 24L16 24L16 23L15 23L15 22L16 22L16 21ZM42 21L42 22L43 22L43 23L44 23L44 24L47 24L47 26L48 26L48 25L49 25L49 24L47 24L47 22L46 22L46 21L45 21L45 23L44 23L44 22L43 22L43 21ZM38 22L38 23L39 23L39 22ZM59 22L59 24L61 24L61 22ZM3 23L3 24L4 24L4 23ZM24 23L24 24L25 24L25 23ZM31 24L31 25L30 25L30 26L31 26L31 25L32 25L32 26L33 26L33 25L34 25L34 24L33 24L33 25L32 25L32 24ZM40 24L40 25L41 25L41 24ZM20 25L20 26L21 26L21 27L22 27L22 26L21 26L21 25ZM54 25L54 26L55 26L55 25ZM0 26L0 27L2 27L2 26ZM4 26L4 27L3 27L3 28L5 28L5 26ZM6 26L6 27L7 27L7 26ZM16 26L16 27L17 27L17 26ZM24 26L24 27L25 27L25 26ZM36 26L36 27L37 27L37 26ZM42 27L42 28L43 28L43 29L40 29L40 30L44 30L44 28L45 28L45 27L44 27L44 28L43 28L43 27ZM50 27L50 30L51 30L51 27ZM62 28L62 31L63 31L63 28ZM18 29L18 30L17 30L17 33L18 33L18 35L16 35L16 36L18 36L18 37L15 37L15 39L17 39L17 40L21 40L21 39L20 39L20 38L21 38L21 37L22 37L22 39L23 39L23 40L22 40L22 41L23 41L23 40L24 40L24 41L27 41L27 42L30 42L30 41L31 41L31 38L30 38L30 37L28 37L28 38L30 38L30 40L29 40L29 39L27 39L27 40L26 40L26 38L27 38L27 36L30 36L30 35L29 35L29 34L30 34L30 31L29 31L29 33L28 33L28 35L26 35L26 38L24 38L24 37L25 37L25 36L24 36L24 35L25 35L25 34L23 34L23 37L22 37L22 36L21 36L21 37L20 37L20 38L19 38L19 39L18 39L18 37L19 37L19 36L20 36L20 35L22 35L22 33L23 33L23 32L21 32L21 33L20 33L20 32L19 32L19 31L20 31L20 30L19 30L19 29ZM3 30L3 31L4 31L4 30ZM38 30L38 32L36 32L36 33L37 33L37 34L38 34L38 32L39 32L39 30ZM5 31L5 34L8 34L8 31ZM26 31L26 32L27 32L27 31ZM31 31L31 34L34 34L34 31ZM40 31L40 32L41 32L41 31ZM42 31L42 32L43 32L43 31ZM57 31L57 34L60 34L60 31ZM6 32L6 33L7 33L7 32ZM18 32L18 33L19 33L19 35L20 35L20 33L19 33L19 32ZM32 32L32 33L33 33L33 32ZM58 32L58 33L59 33L59 32ZM12 33L12 34L13 34L13 33ZM53 33L53 34L48 34L48 35L52 35L52 36L53 36L53 38L52 38L52 37L51 37L51 36L48 36L48 38L46 38L46 39L43 39L43 40L46 40L46 39L47 39L47 41L50 41L50 40L53 40L53 39L54 39L54 40L56 40L56 39L54 39L54 38L56 38L56 37L54 37L54 34L55 34L55 33ZM31 35L31 36L32 36L32 35ZM62 35L62 36L63 36L63 35ZM6 36L6 37L7 37L7 36ZM35 36L35 38L36 38L36 39L37 39L37 40L36 40L36 42L35 42L35 43L34 43L34 44L35 44L35 43L37 43L37 42L38 42L38 41L37 41L37 40L39 40L39 38L36 38L36 37L37 37L37 36ZM38 36L38 37L39 37L39 36ZM1 37L1 38L2 38L2 37ZM50 37L50 38L51 38L51 39L52 39L52 38L51 38L51 37ZM60 37L60 38L61 38L61 40L62 40L62 38L61 38L61 37ZM48 38L48 40L49 40L49 38ZM58 39L58 40L59 40L59 39ZM27 40L27 41L29 41L29 40ZM6 41L6 42L7 42L7 43L6 43L6 44L7 44L7 43L9 43L9 42L7 42L7 41ZM16 41L16 42L17 42L17 43L18 43L18 44L19 44L19 43L18 43L18 42L19 42L19 41L18 41L18 42L17 42L17 41ZM32 42L32 43L33 43L33 42ZM48 42L48 43L49 43L49 42ZM28 43L28 44L30 44L30 43ZM40 43L40 44L41 44L41 43ZM64 43L64 44L62 44L62 45L64 45L64 44L65 44L65 43ZM26 44L26 45L25 45L25 46L26 46L26 45L27 45L27 44ZM23 45L23 46L22 46L22 47L23 47L23 46L24 46L24 45ZM44 45L44 46L45 46L45 45ZM50 45L50 46L51 46L51 45ZM6 46L6 47L7 47L7 48L8 48L8 47L7 47L7 46ZM62 46L62 47L60 47L60 48L62 48L62 49L64 49L64 50L65 50L65 49L64 49L64 48L62 48L62 47L63 47L63 46ZM36 47L36 48L38 48L38 50L40 50L40 49L41 49L41 48L40 48L40 49L39 49L39 47ZM17 48L17 49L18 49L18 48ZM20 48L20 49L21 49L21 48ZM44 48L44 49L45 49L45 48ZM58 50L58 51L59 51L59 50ZM60 50L60 51L61 51L61 50ZM2 51L2 52L3 52L3 53L2 53L2 54L3 54L3 53L4 53L4 52L3 52L3 51ZM9 51L9 53L6 53L6 54L8 54L8 55L10 55L10 57L9 57L9 59L12 59L12 60L11 60L11 62L9 62L9 64L11 64L11 63L13 63L13 64L16 64L16 63L15 63L15 62L16 62L16 61L17 61L17 60L16 60L16 59L17 59L17 58L19 58L19 57L18 57L18 56L17 56L17 55L16 55L16 56L15 56L15 57L14 57L14 55L13 55L13 56L12 56L12 55L10 55L10 54L12 54L12 51ZM20 52L20 53L22 53L22 52ZM32 52L32 53L33 53L33 52ZM60 52L60 53L62 53L62 52ZM9 53L9 54L10 54L10 53ZM40 53L40 54L38 54L38 55L39 55L39 58L40 58L40 56L41 56L41 55L40 55L40 54L41 54L41 53ZM36 54L36 55L37 55L37 54ZM53 54L53 56L54 56L54 57L55 57L55 58L56 58L56 56L57 56L57 55L56 55L56 56L54 56L54 55L55 55L55 54ZM45 55L45 56L46 56L46 55ZM11 56L11 58L12 58L12 59L13 59L13 61L12 61L12 62L15 62L15 61L16 61L16 60L15 60L15 59L16 59L16 58L15 58L15 59L14 59L14 58L12 58L12 56ZM16 56L16 57L17 57L17 56ZM62 56L62 57L64 57L64 58L65 58L65 57L64 57L64 56ZM20 57L20 58L21 58L21 57ZM24 57L24 59L23 59L23 60L24 60L24 61L22 61L22 62L24 62L24 61L25 61L25 60L24 60L24 59L26 59L26 58L27 58L27 57L26 57L26 58L25 58L25 57ZM31 57L31 60L34 60L34 57ZM41 57L41 58L43 58L43 57ZM57 57L57 60L60 60L60 57ZM32 58L32 59L33 59L33 58ZM36 58L36 59L37 59L37 58ZM58 58L58 59L59 59L59 58ZM55 59L55 60L56 60L56 59ZM62 59L62 60L63 60L63 59ZM9 60L9 61L10 61L10 60ZM14 60L14 61L15 61L15 60ZM40 60L40 62L41 62L41 60ZM18 61L18 62L19 62L19 63L20 63L20 62L19 62L19 61ZM27 61L27 62L29 62L29 61ZM55 61L55 62L54 62L54 63L57 63L57 62L56 62L56 61ZM60 61L60 62L61 62L61 61ZM34 62L34 63L35 63L35 62ZM23 63L23 64L24 64L24 63ZM28 63L28 64L29 64L29 63ZM58 63L58 64L59 64L59 63ZM62 63L62 64L63 64L63 63ZM25 64L25 65L26 65L26 64ZM48 64L48 65L50 65L50 64ZM0 0L0 7L7 7L7 0ZM1 1L1 6L6 6L6 1ZM2 2L2 5L5 5L5 2ZM58 0L58 7L65 7L65 0ZM59 1L59 6L64 6L64 1ZM60 2L60 5L63 5L63 2ZM0 58L0 65L7 65L7 58ZM1 59L1 64L6 64L6 59ZM2 60L2 63L5 63L5 60Z" fill="#000000"/></g></g></svg>
