<?xml version="1.0" encoding="UTF-8"?>
<svg xmlns="http://www.w3.org/2000/svg" version="1.1" width="300" height="300" viewBox="0 0 300 300"><rect x="0" y="0" width="300" height="300" fill="#ffffff"/><g transform="scale(4.615)"><g transform="translate(0,0)"><path fill-rule="evenodd" d="M9 0L9 1L8 1L8 2L9 2L9 3L8 3L8 4L10 4L10 5L8 5L8 7L9 7L9 6L10 6L10 7L11 7L11 6L10 6L10 5L13 5L13 6L12 6L12 7L13 7L13 9L15 9L15 6L16 6L16 8L17 8L17 11L16 11L16 10L15 10L15 12L14 12L14 13L12 13L12 12L10 12L10 13L9 13L9 14L8 14L8 15L7 15L7 14L6 14L6 15L7 15L7 16L3 16L3 15L2 15L2 16L3 16L3 17L1 17L1 18L2 18L2 19L0 19L0 20L1 20L1 21L0 21L0 24L1 24L1 26L0 26L0 27L1 27L1 28L0 28L0 31L2 31L2 33L3 33L3 34L4 34L4 36L5 36L5 37L8 37L8 38L9 38L9 39L8 39L8 40L6 40L6 41L7 41L7 42L5 42L5 40L4 40L4 41L3 41L3 40L1 40L1 41L0 41L0 46L1 46L1 44L2 44L2 46L3 46L3 48L2 48L2 47L1 47L1 48L0 48L0 51L1 51L1 52L0 52L0 54L1 54L1 53L2 53L2 55L3 55L3 56L1 56L1 55L0 55L0 56L1 56L1 57L3 57L3 56L4 56L4 57L5 57L5 56L4 56L4 54L3 54L3 53L2 53L2 52L3 52L3 51L1 51L1 48L2 48L2 49L3 49L3 50L6 50L6 51L7 51L7 52L5 52L5 51L4 51L4 53L5 53L5 55L7 55L7 56L6 56L6 57L8 57L8 59L9 59L9 60L8 60L8 65L9 65L9 62L10 62L10 61L12 61L12 62L11 62L11 63L10 63L10 64L11 64L11 65L12 65L12 63L13 63L13 65L15 65L15 64L16 64L16 65L19 65L19 64L16 64L16 63L15 63L15 62L16 62L16 61L15 61L15 59L14 59L14 58L13 58L13 57L12 57L12 58L10 58L10 54L11 54L11 51L10 51L10 50L11 50L11 49L12 49L12 48L13 48L13 49L14 49L14 48L13 48L13 47L14 47L14 45L12 45L12 44L15 44L15 45L16 45L16 46L15 46L15 47L16 47L16 48L15 48L15 49L17 49L17 47L18 47L18 49L19 49L19 51L20 51L20 49L21 49L21 50L22 50L22 51L21 51L21 52L19 52L19 53L18 53L18 52L15 52L15 50L12 50L12 55L13 55L13 56L15 56L15 58L16 58L16 57L17 57L17 58L18 58L18 59L16 59L16 60L17 60L17 61L20 61L20 60L19 60L19 58L20 58L20 59L21 59L21 58L22 58L22 59L23 59L23 61L22 61L22 60L21 60L21 63L24 63L24 64L23 64L23 65L24 65L24 64L25 64L25 65L26 65L26 64L27 64L27 65L29 65L29 63L30 63L30 65L35 65L35 64L36 64L36 65L37 65L37 64L36 64L36 63L35 63L35 62L34 62L34 61L35 61L35 59L36 59L36 58L37 58L37 59L39 59L39 60L36 60L36 61L37 61L37 62L38 62L38 65L39 65L39 63L40 63L40 64L41 64L41 63L40 63L40 62L45 62L45 63L44 63L44 64L43 64L43 63L42 63L42 64L43 64L43 65L44 65L44 64L45 64L45 65L46 65L46 64L47 64L47 65L49 65L49 64L48 64L48 63L49 63L49 60L51 60L51 62L50 62L50 63L51 63L51 64L50 64L50 65L51 65L51 64L53 64L53 65L57 65L57 64L56 64L56 63L55 63L55 64L53 64L53 63L54 63L54 62L55 62L55 61L56 61L56 62L57 62L57 61L59 61L59 64L58 64L58 65L63 65L63 64L64 64L64 61L65 61L65 59L64 59L64 58L65 58L65 55L64 55L64 54L65 54L65 53L64 53L64 54L63 54L63 56L62 56L62 54L61 54L61 53L60 53L60 55L58 55L58 56L56 56L56 55L57 55L57 54L59 54L59 53L58 53L58 52L62 52L62 53L63 53L63 52L64 52L64 50L65 50L65 49L64 49L64 48L62 48L62 45L64 45L64 44L65 44L65 43L63 43L63 40L62 40L62 38L63 38L63 39L64 39L64 40L65 40L65 39L64 39L64 38L65 38L65 37L64 37L64 36L65 36L65 35L64 35L64 34L65 34L65 31L63 31L63 30L58 30L58 28L60 28L60 29L61 29L61 28L62 28L62 29L64 29L64 28L65 28L65 27L64 27L64 28L62 28L62 27L63 27L63 26L65 26L65 24L64 24L64 22L65 22L65 19L64 19L64 18L65 18L65 15L64 15L64 16L62 16L62 15L63 15L63 14L62 14L62 15L61 15L61 16L60 16L60 15L59 15L59 14L57 14L57 15L56 15L56 13L57 13L57 12L58 12L58 11L59 11L59 10L61 10L61 9L62 9L62 8L61 8L61 9L60 9L60 8L59 8L59 10L56 10L56 9L58 9L58 8L55 8L55 5L54 5L54 4L56 4L56 5L57 5L57 4L56 4L56 3L57 3L57 1L56 1L56 0L55 0L55 1L56 1L56 3L55 3L55 2L54 2L54 3L53 3L53 1L54 1L54 0L51 0L51 1L49 1L49 0L48 0L48 1L46 1L46 0L44 0L44 1L45 1L45 2L44 2L44 3L43 3L43 2L42 2L42 1L43 1L43 0L41 0L41 1L38 1L38 0L37 0L37 1L36 1L36 2L37 2L37 3L35 3L35 4L34 4L34 3L33 3L33 1L31 1L31 0L29 0L29 1L28 1L28 2L26 2L26 3L25 3L25 2L24 2L24 3L25 3L25 4L23 4L23 5L24 5L24 7L23 7L23 6L22 6L22 5L20 5L20 4L22 4L22 3L21 3L21 2L22 2L22 1L25 1L25 0L22 0L22 1L20 1L20 4L19 4L19 1L18 1L18 0L17 0L17 1L18 1L18 2L17 2L17 3L16 3L16 5L14 5L14 4L15 4L15 3L14 3L14 2L15 2L15 0ZM26 0L26 1L27 1L27 0ZM10 1L10 2L11 2L11 1ZM12 1L12 2L14 2L14 1ZM30 1L30 2L28 2L28 3L29 3L29 4L27 4L27 3L26 3L26 4L27 4L27 5L29 5L29 7L28 7L28 6L27 6L27 7L26 7L26 6L25 6L25 8L24 8L24 9L25 9L25 10L24 10L24 12L22 12L22 10L21 10L21 9L23 9L23 8L21 8L21 7L22 7L22 6L21 6L21 7L20 7L20 6L19 6L19 9L18 9L18 10L19 10L19 9L20 9L20 11L21 11L21 12L19 12L19 13L18 13L18 14L17 14L17 15L16 15L16 14L15 14L15 13L16 13L16 12L15 12L15 13L14 13L14 15L13 15L13 14L12 14L12 13L10 13L10 14L9 14L9 16L10 16L10 17L9 17L9 19L8 19L8 17L5 17L5 19L4 19L4 18L3 18L3 20L2 20L2 21L1 21L1 24L2 24L2 25L3 25L3 24L4 24L4 25L5 25L5 24L4 24L4 23L6 23L6 24L7 24L7 25L6 25L6 26L5 26L5 27L3 27L3 28L4 28L4 29L3 29L3 30L2 30L2 28L1 28L1 30L2 30L2 31L3 31L3 32L4 32L4 31L3 31L3 30L4 30L4 29L5 29L5 30L8 30L8 29L9 29L9 30L10 30L10 28L8 28L8 29L5 29L5 28L7 28L7 27L6 27L6 26L8 26L8 24L7 24L7 23L6 23L6 22L8 22L8 23L9 23L9 24L10 24L10 25L9 25L9 27L14 27L14 28L13 28L13 30L14 30L14 31L12 31L12 30L11 30L11 31L10 31L10 32L9 32L9 34L11 34L11 36L14 36L14 34L15 34L15 37L14 37L14 38L11 38L11 39L12 39L12 41L11 41L11 40L8 40L8 41L11 41L11 42L7 42L7 43L5 43L5 45L6 45L6 46L5 46L5 47L6 47L6 48L8 48L8 49L6 49L6 50L7 50L7 51L8 51L8 49L9 49L9 50L10 50L10 49L11 49L11 48L12 48L12 47L11 47L11 44L12 44L12 43L15 43L15 44L16 44L16 45L17 45L17 46L18 46L18 47L20 47L20 46L19 46L19 45L21 45L21 46L22 46L22 47L24 47L24 48L21 48L21 49L23 49L23 50L24 50L24 49L25 49L25 50L26 50L26 49L28 49L28 50L30 50L30 51L28 51L28 52L27 52L27 53L25 53L25 52L26 52L26 51L24 51L24 52L23 52L23 53L22 53L22 52L21 52L21 53L20 53L20 54L19 54L19 55L18 55L18 53L16 53L16 55L15 55L15 56L16 56L16 55L17 55L17 56L19 56L19 57L18 57L18 58L19 58L19 57L20 57L20 58L21 58L21 57L20 57L20 56L19 56L19 55L21 55L21 53L22 53L22 54L23 54L23 53L25 53L25 54L24 54L24 55L27 55L27 54L30 54L30 55L31 55L31 56L32 56L32 55L33 55L33 56L34 56L34 55L35 55L35 57L36 57L36 56L37 56L37 57L38 57L38 58L39 58L39 57L38 57L38 56L40 56L40 57L41 57L41 58L40 58L40 59L41 59L41 60L40 60L40 61L41 61L41 60L44 60L44 61L45 61L45 62L47 62L47 63L48 63L48 62L47 62L47 61L45 61L45 60L44 60L44 57L45 57L45 56L43 56L43 58L42 58L42 56L40 56L40 54L39 54L39 53L41 53L41 54L42 54L42 55L43 55L43 54L44 54L44 55L46 55L46 56L47 56L47 55L48 55L48 56L50 56L50 54L52 54L52 53L56 53L56 52L54 52L54 51L57 51L57 52L58 52L58 51L60 51L60 49L61 49L61 50L63 50L63 49L61 49L61 48L58 48L58 47L60 47L60 46L56 46L56 45L57 45L57 44L55 44L55 43L56 43L56 42L57 42L57 43L59 43L59 44L58 44L58 45L61 45L61 44L60 44L60 43L61 43L61 42L57 42L57 41L56 41L56 40L57 40L57 38L56 38L56 40L55 40L55 38L54 38L54 39L53 39L53 38L52 38L52 39L53 39L53 40L49 40L49 37L48 37L48 36L51 36L51 37L50 37L50 38L51 38L51 37L53 37L53 36L52 36L52 34L53 34L53 32L52 32L52 34L51 34L51 31L50 31L50 30L51 30L51 28L50 28L50 26L51 26L51 27L52 27L52 26L51 26L51 25L53 25L53 26L54 26L54 27L53 27L53 28L52 28L52 29L56 29L56 30L57 30L57 29L56 29L56 27L55 27L55 26L57 26L57 25L56 25L56 24L54 24L54 23L57 23L57 24L58 24L58 22L59 22L59 24L61 24L61 25L62 25L62 26L63 26L63 25L64 25L64 24L63 24L63 23L62 23L62 22L63 22L63 21L62 21L62 20L63 20L63 19L61 19L61 18L62 18L62 16L61 16L61 17L60 17L60 16L59 16L59 15L57 15L57 16L58 16L58 18L59 18L59 19L58 19L58 20L61 20L61 22L59 22L59 21L56 21L56 20L57 20L57 19L56 19L56 18L57 18L57 17L56 17L56 15L55 15L55 14L54 14L54 13L55 13L55 12L57 12L57 11L56 11L56 10L54 10L54 8L52 8L52 9L50 9L50 8L51 8L51 7L52 7L52 6L53 6L53 7L54 7L54 6L53 6L53 3L52 3L52 2L50 2L50 3L49 3L49 2L47 2L47 3L46 3L46 2L45 2L45 3L44 3L44 4L43 4L43 5L41 5L41 3L42 3L42 2L41 2L41 3L40 3L40 4L38 4L38 5L39 5L39 7L40 7L40 5L41 5L41 7L42 7L42 6L43 6L43 7L44 7L44 6L45 6L45 7L46 7L46 6L45 6L45 5L44 5L44 4L46 4L46 5L48 5L48 6L47 6L47 8L44 8L44 9L43 9L43 8L42 8L42 9L43 9L43 10L39 10L39 9L41 9L41 8L38 8L38 6L37 6L37 7L36 7L36 5L35 5L35 7L36 7L36 8L38 8L38 10L39 10L39 11L42 11L42 13L43 13L43 12L44 12L44 14L40 14L40 13L41 13L41 12L37 12L37 11L36 11L36 10L37 10L37 9L33 9L33 10L35 10L35 11L34 11L34 12L32 12L32 13L31 13L31 12L29 12L29 9L27 9L27 7L28 7L28 8L29 8L29 7L30 7L30 4L33 4L33 3L32 3L32 2L31 2L31 1ZM34 1L34 2L35 2L35 1ZM37 1L37 2L38 2L38 1ZM30 2L30 3L31 3L31 2ZM11 3L11 4L13 4L13 3ZM17 3L17 4L18 4L18 3ZM48 3L48 5L50 5L50 7L51 7L51 5L50 5L50 4L49 4L49 3ZM17 5L17 7L18 7L18 5ZM31 5L31 8L34 8L34 5ZM13 6L13 7L14 7L14 6ZM32 6L32 7L33 7L33 6ZM48 6L48 7L49 7L49 6ZM56 6L56 7L57 7L57 6ZM0 8L0 9L3 9L3 10L4 10L4 9L5 9L5 13L4 13L4 12L3 12L3 13L1 13L1 14L0 14L0 15L1 15L1 14L3 14L3 13L4 13L4 14L5 14L5 13L8 13L8 12L6 12L6 11L7 11L7 10L6 10L6 9L9 9L9 10L8 10L8 11L9 11L9 10L10 10L10 9L12 9L12 8L10 8L10 9L9 9L9 8L6 8L6 9L5 9L5 8ZM20 8L20 9L21 9L21 8ZM47 8L47 9L49 9L49 10L48 10L48 11L47 11L47 10L45 10L45 9L44 9L44 10L45 10L45 11L44 11L44 12L45 12L45 13L49 13L49 14L48 14L48 15L49 15L49 14L50 14L50 15L52 15L52 16L51 16L51 18L48 18L48 19L49 19L49 20L48 20L48 22L49 22L49 24L48 24L48 23L47 23L47 22L46 22L46 23L45 23L45 21L46 21L46 20L47 20L47 18L46 18L46 17L50 17L50 16L46 16L46 15L47 15L47 14L46 14L46 15L45 15L45 14L44 14L44 16L45 16L45 18L46 18L46 20L45 20L45 19L44 19L44 18L43 18L43 16L42 16L42 15L39 15L39 14L38 14L38 13L37 13L37 12L36 12L36 11L35 11L35 12L34 12L34 13L35 13L35 14L33 14L33 13L32 13L32 14L33 14L33 15L32 15L32 16L33 16L33 18L31 18L31 19L30 19L30 18L27 18L27 17L26 17L26 14L27 14L27 15L28 15L28 13L29 13L29 12L28 12L28 11L27 11L27 13L26 13L26 14L25 14L25 17L24 17L24 18L23 18L23 17L21 17L21 15L22 15L22 16L24 16L24 15L22 15L22 14L24 14L24 13L25 13L25 12L24 12L24 13L19 13L19 14L18 14L18 15L17 15L17 16L18 16L18 17L17 17L17 18L15 18L15 17L14 17L14 16L12 16L12 17L14 17L14 18L13 18L13 20L12 20L12 21L13 21L13 22L11 22L11 20L10 20L10 19L11 19L11 17L10 17L10 19L9 19L9 20L8 20L8 21L10 21L10 22L9 22L9 23L10 23L10 24L11 24L11 25L10 25L10 26L12 26L12 23L14 23L14 24L15 24L15 25L19 25L19 26L18 26L18 27L19 27L19 28L17 28L17 29L20 29L20 28L21 28L21 30L23 30L23 31L24 31L24 32L23 32L23 33L22 33L22 34L21 34L21 35L19 35L19 34L18 34L18 35L17 35L17 34L16 34L16 37L15 37L15 38L14 38L14 39L15 39L15 40L13 40L13 41L15 41L15 40L16 40L16 41L17 41L17 40L18 40L18 41L19 41L19 43L16 43L16 42L15 42L15 43L16 43L16 44L17 44L17 45L19 45L19 43L20 43L20 44L23 44L23 43L22 43L22 42L26 42L26 44L28 44L28 45L30 45L30 46L29 46L29 47L30 47L30 48L32 48L32 49L33 49L33 50L36 50L36 51L32 51L32 50L31 50L31 49L30 49L30 50L31 50L31 51L30 51L30 52L28 52L28 53L31 53L31 55L32 55L32 53L33 53L33 55L34 55L34 54L35 54L35 55L39 55L39 54L37 54L37 52L36 52L36 51L39 51L39 52L38 52L38 53L39 53L39 52L41 52L41 51L40 51L40 50L41 50L41 49L42 49L42 50L43 50L43 51L44 51L44 52L45 52L45 53L47 53L47 52L48 52L48 53L49 53L49 54L48 54L48 55L49 55L49 54L50 54L50 53L49 53L49 52L48 52L48 51L49 51L49 50L48 50L48 49L49 49L49 48L53 48L53 47L52 47L52 46L53 46L53 45L54 45L54 46L55 46L55 47L54 47L54 48L57 48L57 51L58 51L58 50L59 50L59 49L58 49L58 48L57 48L57 47L56 47L56 46L55 46L55 44L54 44L54 43L53 43L53 41L52 41L52 44L51 44L51 46L50 46L50 44L48 44L48 43L51 43L51 42L50 42L50 41L49 41L49 40L47 40L47 38L46 38L46 37L47 37L47 36L48 36L48 33L50 33L50 32L48 32L48 31L49 31L49 30L50 30L50 28L48 28L48 29L49 29L49 30L48 30L48 31L47 31L47 30L45 30L45 29L44 29L44 28L45 28L45 27L49 27L49 25L50 25L50 24L53 24L53 23L52 23L52 22L55 22L55 21L54 21L54 20L55 20L55 19L52 19L52 18L56 18L56 17L54 17L54 16L55 16L55 15L54 15L54 16L53 16L53 15L52 15L52 14L53 14L53 13L51 13L51 12L53 12L53 11L51 11L51 10L50 10L50 9L49 9L49 8ZM63 8L63 9L64 9L64 10L65 10L65 9L64 9L64 8ZM26 9L26 10L25 10L25 11L26 11L26 10L27 10L27 9ZM31 9L31 10L30 10L30 11L32 11L32 9ZM0 10L0 12L2 12L2 10ZM11 10L11 11L14 11L14 10ZM62 10L62 11L61 11L61 12L60 12L60 13L63 13L63 12L62 12L62 11L63 11L63 10ZM46 11L46 12L47 12L47 11ZM48 11L48 12L49 12L49 13L50 13L50 14L51 14L51 13L50 13L50 12L51 12L51 11ZM54 11L54 12L55 12L55 11ZM30 13L30 14L31 14L31 13ZM36 13L36 15L35 15L35 16L34 16L34 15L33 15L33 16L34 16L34 18L36 18L36 19L33 19L33 20L32 20L32 19L31 19L31 20L30 20L30 19L28 19L28 20L27 20L27 19L26 19L26 22L24 22L24 23L23 23L23 21L25 21L25 18L26 18L26 17L25 17L25 18L24 18L24 19L23 19L23 21L22 21L22 20L21 20L21 19L22 19L22 18L21 18L21 17L18 17L18 19L15 19L15 18L14 18L14 19L15 19L15 20L16 20L16 21L14 21L14 22L16 22L16 21L17 21L17 22L18 22L18 21L19 21L19 20L21 20L21 21L20 21L20 22L19 22L19 25L20 25L20 26L19 26L19 27L20 27L20 26L21 26L21 28L22 28L22 29L23 29L23 30L24 30L24 29L23 29L23 27L22 27L22 26L21 26L21 25L20 25L20 24L21 24L21 23L22 23L22 25L27 25L27 26L24 26L24 27L25 27L25 29L27 29L27 30L25 30L25 31L26 31L26 33L27 33L27 31L28 31L28 32L29 32L29 33L28 33L28 34L29 34L29 33L30 33L30 32L29 32L29 31L30 31L30 29L31 29L31 30L35 30L35 36L34 36L34 35L33 35L33 36L34 36L34 37L35 37L35 38L34 38L34 39L33 39L33 37L32 37L32 36L31 36L31 37L32 37L32 39L31 39L31 38L30 38L30 37L27 37L27 35L26 35L26 36L25 36L25 35L24 35L24 34L22 34L22 35L21 35L21 36L22 36L22 37L20 37L20 36L19 36L19 38L22 38L22 39L23 39L23 40L22 40L22 41L20 41L20 39L19 39L19 41L20 41L20 43L21 43L21 42L22 42L22 41L23 41L23 40L24 40L24 41L27 41L27 42L30 42L30 41L31 41L31 40L33 40L33 41L32 41L32 42L31 42L31 46L30 46L30 47L32 47L32 48L33 48L33 47L36 47L36 48L34 48L34 49L36 49L36 48L37 48L37 50L40 50L40 49L41 49L41 48L42 48L42 49L43 49L43 46L41 46L41 45L42 45L42 44L43 44L43 42L41 42L41 43L42 43L42 44L40 44L40 46L39 46L39 45L38 45L38 44L39 44L39 43L38 43L38 42L39 42L39 40L38 40L38 38L39 38L39 39L41 39L41 40L40 40L40 41L44 41L44 43L45 43L45 44L44 44L44 47L46 47L46 48L49 48L49 47L50 47L50 46L47 46L47 45L46 45L46 43L45 43L45 40L46 40L46 42L47 42L47 43L48 43L48 42L49 42L49 41L48 41L48 42L47 42L47 40L46 40L46 39L45 39L45 38L44 38L44 37L46 37L46 36L42 36L42 35L43 35L43 34L42 34L42 35L41 35L41 33L42 33L42 32L44 32L44 35L45 35L45 32L44 32L44 31L45 31L45 30L44 30L44 29L43 29L43 28L44 28L44 27L43 27L43 26L47 26L47 23L46 23L46 24L44 24L44 21L45 21L45 20L44 20L44 19L43 19L43 18L42 18L42 17L41 17L41 16L39 16L39 15L37 15L37 13ZM64 13L64 14L65 14L65 13ZM10 14L10 16L11 16L11 14ZM19 14L19 15L20 15L20 14ZM15 15L15 16L16 16L16 15ZM29 15L29 16L28 16L28 17L29 17L29 16L31 16L31 15ZM36 16L36 18L38 18L38 19L40 19L40 20L42 20L42 22L43 22L43 20L42 20L42 19L40 19L40 18L41 18L41 17L39 17L39 18L38 18L38 16ZM52 16L52 17L53 17L53 16ZM6 18L6 19L7 19L7 18ZM20 18L20 19L21 19L21 18ZM50 19L50 22L52 22L52 21L53 21L53 20L51 20L51 19ZM3 20L3 21L2 21L2 23L3 23L3 21L4 21L4 22L5 22L5 21L4 21L4 20ZM6 20L6 21L7 21L7 20ZM17 20L17 21L18 21L18 20ZM28 20L28 21L29 21L29 20ZM34 20L34 21L35 21L35 22L32 22L32 21L31 21L31 23L30 23L30 24L29 24L29 22L28 22L28 24L27 24L27 23L26 23L26 24L27 24L27 25L29 25L29 27L26 27L26 28L28 28L28 29L30 29L30 28L31 28L31 27L30 27L30 24L34 24L34 23L35 23L35 22L38 22L38 23L39 23L39 24L36 24L36 25L35 25L35 26L34 26L34 27L35 27L35 26L36 26L36 25L37 25L37 26L38 26L38 28L35 28L35 29L36 29L36 31L37 31L37 32L36 32L36 33L37 33L37 32L39 32L39 31L40 31L40 32L42 32L42 31L40 31L40 30L43 30L43 29L39 29L39 27L40 27L40 28L42 28L42 26L43 26L43 25L42 25L42 23L40 23L40 22L41 22L41 21L39 21L39 20L38 20L38 21L37 21L37 20ZM21 21L21 22L20 22L20 23L21 23L21 22L22 22L22 21ZM38 21L38 22L39 22L39 21ZM15 23L15 24L16 24L16 23ZM17 23L17 24L18 24L18 23ZM24 23L24 24L25 24L25 23ZM61 23L61 24L62 24L62 25L63 25L63 24L62 24L62 23ZM39 24L39 25L38 25L38 26L39 26L39 25L41 25L41 24ZM32 25L32 26L33 26L33 25ZM54 25L54 26L55 26L55 25ZM58 25L58 26L59 26L59 27L60 27L60 28L61 28L61 27L60 27L60 26L59 26L59 25ZM15 26L15 28L14 28L14 29L15 29L15 30L16 30L16 29L15 29L15 28L16 28L16 27L17 27L17 26ZM40 26L40 27L41 27L41 26ZM32 27L32 28L33 28L33 27ZM54 27L54 28L55 28L55 27ZM57 27L57 28L58 28L58 27ZM46 28L46 29L47 29L47 28ZM37 29L37 31L38 31L38 30L39 30L39 29ZM18 30L18 33L19 33L19 31L20 31L20 30ZM28 30L28 31L29 31L29 30ZM54 30L54 31L55 31L55 34L54 34L54 37L56 37L56 36L55 36L55 34L56 34L56 31L55 31L55 30ZM5 31L5 34L8 34L8 31ZM11 31L11 32L10 32L10 33L11 33L11 34L12 34L12 35L13 35L13 33L14 33L14 32L12 32L12 31ZM15 31L15 32L16 32L16 33L17 33L17 32L16 32L16 31ZM31 31L31 34L34 34L34 31ZM57 31L57 34L60 34L60 31ZM62 31L62 32L61 32L61 35L62 35L62 36L63 36L63 35L62 35L62 34L64 34L64 33L62 33L62 32L63 32L63 31ZM0 32L0 33L1 33L1 32ZM6 32L6 33L7 33L7 32ZM20 32L20 33L21 33L21 32ZM24 32L24 33L25 33L25 32ZM32 32L32 33L33 33L33 32ZM58 32L58 33L59 33L59 32ZM46 33L46 34L47 34L47 33ZM0 34L0 36L1 36L1 37L0 37L0 39L1 39L1 37L2 37L2 38L4 38L4 37L3 37L3 36L2 36L2 34ZM36 34L36 35L37 35L37 36L35 36L35 37L37 37L37 36L38 36L38 35L39 35L39 37L40 37L40 36L41 36L41 35L39 35L39 34L38 34L38 35L37 35L37 34ZM50 34L50 35L51 35L51 34ZM6 35L6 36L7 36L7 35ZM9 35L9 36L8 36L8 37L9 37L9 38L10 38L10 35ZM23 35L23 39L25 39L25 37L24 37L24 35ZM29 35L29 36L30 36L30 35ZM59 35L59 36L60 36L60 37L58 37L58 36L57 36L57 37L58 37L58 39L59 39L59 40L58 40L58 41L62 41L62 40L60 40L60 39L61 39L61 38L62 38L62 37L61 37L61 36L60 36L60 35ZM17 36L17 37L16 37L16 38L17 38L17 37L18 37L18 36ZM42 37L42 38L41 38L41 39L42 39L42 40L43 40L43 39L42 39L42 38L43 38L43 37ZM60 37L60 38L61 38L61 37ZM5 38L5 39L7 39L7 38ZM26 38L26 40L27 40L27 41L30 41L30 40L27 40L27 38ZM28 38L28 39L30 39L30 38ZM36 38L36 39L34 39L34 42L35 42L35 43L34 43L34 44L35 44L35 45L37 45L37 46L36 46L36 47L39 47L39 48L38 48L38 49L39 49L39 48L41 48L41 46L40 46L40 47L39 47L39 46L38 46L38 45L37 45L37 44L36 44L36 42L37 42L37 40L36 40L36 39L37 39L37 38ZM16 39L16 40L17 40L17 39ZM44 39L44 40L45 40L45 39ZM35 41L35 42L36 42L36 41ZM54 41L54 42L55 42L55 41ZM64 41L64 42L65 42L65 41ZM3 42L3 43L2 43L2 44L3 44L3 45L4 45L4 44L3 44L3 43L4 43L4 42ZM11 42L11 43L10 43L10 44L9 44L9 45L8 45L8 44L6 44L6 45L7 45L7 46L6 46L6 47L8 47L8 48L11 48L11 47L10 47L10 46L9 46L9 45L10 45L10 44L11 44L11 43L12 43L12 42ZM32 42L32 43L33 43L33 42ZM24 43L24 45L22 45L22 46L24 46L24 45L25 45L25 43ZM28 43L28 44L30 44L30 43ZM62 43L62 44L63 44L63 43ZM32 44L32 45L33 45L33 46L34 46L34 45L33 45L33 44ZM52 44L52 45L53 45L53 44ZM26 45L26 46L25 46L25 47L26 47L26 46L27 46L27 45ZM46 46L46 47L47 47L47 46ZM3 48L3 49L4 49L4 48ZM19 48L19 49L20 49L20 48ZM28 48L28 49L29 49L29 48ZM44 48L44 49L45 49L45 50L47 50L47 49L45 49L45 48ZM53 49L53 50L55 50L55 49ZM16 50L16 51L18 51L18 50ZM50 50L50 51L51 51L51 53L52 53L52 52L53 52L53 51L52 51L52 50ZM9 51L9 54L7 54L7 53L8 53L8 52L7 52L7 53L6 53L6 54L7 54L7 55L8 55L8 57L9 57L9 54L10 54L10 51ZM31 51L31 53L32 53L32 51ZM46 51L46 52L47 52L47 51ZM62 51L62 52L63 52L63 51ZM13 52L13 54L14 54L14 53L15 53L15 52ZM42 53L42 54L43 54L43 53ZM46 54L46 55L47 55L47 54ZM53 54L53 56L51 56L51 57L46 57L46 58L45 58L45 59L46 59L46 60L49 60L49 59L50 59L50 58L51 58L51 57L55 57L55 58L52 58L52 59L54 59L54 60L52 60L52 62L51 62L51 63L53 63L53 61L54 61L54 60L56 60L56 59L55 59L55 58L56 58L56 56L54 56L54 55L56 55L56 54ZM28 55L28 56L22 56L22 57L23 57L23 59L24 59L24 60L26 60L26 61L27 61L27 62L25 62L25 64L26 64L26 63L27 63L27 62L31 62L31 63L33 63L33 64L35 64L35 63L33 63L33 62L32 62L32 61L30 61L30 57L28 57L28 56L29 56L29 55ZM60 55L60 56L61 56L61 59L62 59L62 60L61 60L61 61L60 61L60 62L61 62L61 63L62 63L62 64L63 64L63 63L62 63L62 62L63 62L63 61L62 61L62 60L64 60L64 59L62 59L62 58L63 58L63 57L62 57L62 56L61 56L61 55ZM24 57L24 59L25 59L25 57ZM26 57L26 58L27 58L27 57ZM31 57L31 60L34 60L34 57ZM57 57L57 60L60 60L60 57ZM12 58L12 59L11 59L11 60L12 60L12 61L13 61L13 60L14 60L14 59L13 59L13 58ZM32 58L32 59L33 59L33 58ZM46 58L46 59L47 59L47 58ZM48 58L48 59L49 59L49 58ZM58 58L58 59L59 59L59 58ZM26 59L26 60L27 60L27 59ZM28 60L28 61L29 61L29 60ZM23 61L23 62L24 62L24 61ZM38 61L38 62L39 62L39 61ZM13 62L13 63L14 63L14 64L15 64L15 63L14 63L14 62ZM18 62L18 63L20 63L20 62ZM45 63L45 64L46 64L46 63ZM20 64L20 65L21 65L21 64ZM0 0L0 7L7 7L7 0ZM1 1L1 6L6 6L6 1ZM2 2L2 5L5 5L5 2ZM58 0L58 7L65 7L65 0ZM59 1L59 6L64 6L64 1ZM60 2L60 5L63 5L63 2ZM0 58L0 65L7 65L7 58ZM1 59L1 64L6 64L6 59ZM2 60L2 63L5 63L5 60Z" fill="#000000"/></g></g></svg>
