<?xml version="1.0" encoding="UTF-8"?>
<svg xmlns="http://www.w3.org/2000/svg" version="1.1" width="300" height="300" viewBox="0 0 300 300"><rect x="0" y="0" width="300" height="300" fill="#ffffff"/><g transform="scale(4.615)"><g transform="translate(0,0)"><path fill-rule="evenodd" d="M10 0L10 1L8 1L8 2L9 2L9 3L8 3L8 4L9 4L9 5L8 5L8 7L9 7L9 8L6 8L6 9L8 9L8 10L9 10L9 11L8 11L8 12L5 12L5 11L7 11L7 10L5 10L5 11L4 11L4 9L5 9L5 8L0 8L0 9L1 9L1 11L2 11L2 9L3 9L3 11L4 11L4 15L3 15L3 13L2 13L2 12L0 12L0 13L1 13L1 14L2 14L2 15L0 15L0 17L3 17L3 18L0 18L0 20L1 20L1 21L0 21L0 27L1 27L1 28L0 28L0 30L1 30L1 31L0 31L0 32L1 32L1 35L0 35L0 41L2 41L2 42L0 42L0 44L1 44L1 43L2 43L2 45L1 45L1 46L0 46L0 47L1 47L1 46L2 46L2 48L3 48L3 47L5 47L5 49L7 49L7 50L6 50L6 51L5 51L5 50L4 50L4 49L3 49L3 50L2 50L2 49L1 49L1 50L2 50L2 51L0 51L0 52L2 52L2 53L1 53L1 54L2 54L2 55L3 55L3 56L1 56L1 55L0 55L0 56L1 56L1 57L3 57L3 56L4 56L4 57L5 57L5 56L4 56L4 54L5 54L5 55L8 55L8 59L9 59L9 57L12 57L12 59L11 59L11 60L8 60L8 65L10 65L10 61L11 61L11 65L14 65L14 64L13 64L13 63L15 63L15 65L17 65L17 64L16 64L16 63L15 63L15 62L16 62L16 61L14 61L14 62L13 62L13 63L12 63L12 61L13 61L13 60L14 60L14 59L15 59L15 58L16 58L16 57L17 57L17 58L18 58L18 57L19 57L19 59L16 59L16 60L17 60L17 61L20 61L20 57L21 57L21 56L23 56L23 57L22 57L22 58L21 58L21 60L23 60L23 59L22 59L22 58L25 58L25 57L24 57L24 56L25 56L25 55L27 55L27 57L26 57L26 58L27 58L27 59L26 59L26 60L25 60L25 59L24 59L24 62L23 62L23 61L22 61L22 62L23 62L23 64L24 64L24 63L25 63L25 65L26 65L26 63L27 63L27 64L28 64L28 65L29 65L29 64L28 64L28 63L29 63L29 62L27 62L27 61L29 61L29 60L28 60L28 59L29 59L29 58L27 58L27 57L30 57L30 61L31 61L31 62L30 62L30 63L32 63L32 64L33 64L33 63L35 63L35 62L34 62L34 61L35 61L35 59L36 59L36 58L37 58L37 60L36 60L36 61L37 61L37 63L39 63L39 65L40 65L40 64L41 64L41 65L44 65L44 64L45 64L45 65L46 65L46 64L45 64L45 63L47 63L47 65L49 65L49 64L48 64L48 63L47 63L47 62L49 62L49 60L51 60L51 62L50 62L50 63L51 63L51 64L50 64L50 65L51 65L51 64L53 64L53 65L61 65L61 64L62 64L62 65L63 65L63 64L64 64L64 61L65 61L65 59L64 59L64 58L65 58L65 57L64 57L64 56L65 56L65 55L64 55L64 54L65 54L65 51L64 51L64 54L63 54L63 56L62 56L62 54L61 54L61 53L60 53L60 55L58 55L58 56L56 56L56 55L57 55L57 54L59 54L59 53L58 53L58 52L59 52L59 51L58 51L58 50L61 50L61 51L60 51L60 52L62 52L62 53L63 53L63 52L62 52L62 51L63 51L63 50L61 50L61 49L64 49L64 50L65 50L65 49L64 49L64 48L62 48L62 47L63 47L63 46L62 46L62 47L61 47L61 45L58 45L58 44L59 44L59 43L58 43L58 44L57 44L57 42L61 42L61 43L60 43L60 44L62 44L62 45L64 45L64 44L65 44L65 43L63 43L63 42L62 42L62 41L64 41L64 42L65 42L65 39L64 39L64 38L65 38L65 37L64 37L64 36L65 36L65 35L63 35L63 34L65 34L65 32L64 32L64 31L63 31L63 29L64 29L64 28L65 28L65 27L64 27L64 28L62 28L62 27L63 27L63 26L65 26L65 25L63 25L63 24L62 24L62 23L64 23L64 24L65 24L65 23L64 23L64 22L65 22L65 21L63 21L63 20L64 20L64 18L65 18L65 15L64 15L64 16L60 16L60 15L61 15L61 14L60 14L60 15L59 15L59 14L57 14L57 15L56 15L56 13L57 13L57 12L58 12L58 11L59 11L59 12L60 12L60 13L61 13L61 12L60 12L60 11L61 11L61 10L63 10L63 9L64 9L64 10L65 10L65 9L64 9L64 8L63 8L63 9L62 9L62 8L61 8L61 9L60 9L60 8L59 8L59 10L56 10L56 9L58 9L58 8L55 8L55 5L54 5L54 4L56 4L56 5L57 5L57 4L56 4L56 3L57 3L57 1L56 1L56 0L55 0L55 1L56 1L56 3L55 3L55 2L54 2L54 3L53 3L53 1L54 1L54 0L51 0L51 1L49 1L49 0L48 0L48 1L46 1L46 0L44 0L44 1L43 1L43 0L40 0L40 1L38 1L38 0L35 0L35 1L34 1L34 0L30 0L30 1L32 1L32 3L31 3L31 2L30 2L30 3L31 3L31 4L30 4L30 7L29 7L29 5L27 5L27 4L29 4L29 2L27 2L27 4L26 4L26 1L27 1L27 0L26 0L26 1L25 1L25 0L22 0L22 1L21 1L21 2L19 2L19 1L18 1L18 2L17 2L17 0L16 0L16 2L15 2L15 0L14 0L14 1L12 1L12 0ZM11 1L11 2L12 2L12 1ZM22 1L22 2L21 2L21 3L22 3L22 4L20 4L20 5L19 5L19 9L18 9L18 10L16 10L16 11L15 11L15 12L13 12L13 11L14 11L14 10L15 10L15 8L13 8L13 7L14 7L14 6L15 6L15 7L16 7L16 8L17 8L17 7L18 7L18 5L17 5L17 4L18 4L18 3L17 3L17 2L16 2L16 3L15 3L15 2L13 2L13 4L15 4L15 5L14 5L14 6L13 6L13 5L12 5L12 6L11 6L11 5L9 5L9 7L10 7L10 8L9 8L9 10L10 10L10 14L9 14L9 15L6 15L6 16L7 16L7 17L5 17L5 15L4 15L4 17L5 17L5 18L4 18L4 20L3 20L3 19L2 19L2 20L3 20L3 21L6 21L6 22L5 22L5 25L4 25L4 23L1 23L1 25L2 25L2 24L3 24L3 26L4 26L4 27L2 27L2 30L3 30L3 31L1 31L1 32L2 32L2 33L3 33L3 34L2 34L2 35L3 35L3 36L4 36L4 30L3 30L3 28L4 28L4 29L5 29L5 30L7 30L7 29L8 29L8 30L9 30L9 34L11 34L11 35L8 35L8 36L7 36L7 35L5 35L5 38L4 38L4 37L3 37L3 38L1 38L1 40L2 40L2 41L3 41L3 40L4 40L4 41L5 41L5 43L6 43L6 44L4 44L4 42L3 42L3 44L4 44L4 45L2 45L2 46L4 46L4 45L5 45L5 47L6 47L6 48L8 48L8 47L9 47L9 49L8 49L8 51L9 51L9 49L10 49L10 48L11 48L11 47L12 47L12 48L13 48L13 45L11 45L11 44L10 44L10 43L13 43L13 44L14 44L14 46L16 46L16 45L17 45L17 47L18 47L18 46L19 46L19 47L20 47L20 46L19 46L19 45L21 45L21 44L19 44L19 43L20 43L20 42L21 42L21 43L22 43L22 42L21 42L21 41L20 41L20 40L19 40L19 41L18 41L18 40L17 40L17 41L16 41L16 39L17 39L17 37L18 37L18 36L17 36L17 35L18 35L18 34L19 34L19 33L20 33L20 35L19 35L19 36L20 36L20 35L21 35L21 36L22 36L22 37L20 37L20 38L19 38L19 39L21 39L21 38L23 38L23 36L24 36L24 37L25 37L25 36L26 36L26 37L27 37L27 38L25 38L25 39L27 39L27 40L24 40L24 39L23 39L23 40L22 40L22 41L25 41L25 42L24 42L24 43L25 43L25 45L24 45L24 44L22 44L22 45L24 45L24 46L22 46L22 47L21 47L21 49L20 49L20 48L19 48L19 49L18 49L18 48L17 48L17 49L16 49L16 51L15 51L15 50L14 50L14 49L15 49L15 48L16 48L16 47L15 47L15 48L14 48L14 49L11 49L11 50L10 50L10 52L9 52L9 53L8 53L8 52L7 52L7 51L6 51L6 52L7 52L7 53L5 53L5 54L7 54L7 53L8 53L8 55L9 55L9 56L12 56L12 55L13 55L13 59L12 59L12 60L13 60L13 59L14 59L14 58L15 58L15 57L14 57L14 54L11 54L11 55L9 55L9 54L10 54L10 53L11 53L11 50L12 50L12 52L13 52L13 53L15 53L15 55L16 55L16 56L19 56L19 57L20 57L20 56L19 56L19 55L18 55L18 53L19 53L19 54L20 54L20 55L21 55L21 53L22 53L22 55L23 55L23 56L24 56L24 55L25 55L25 54L24 54L24 55L23 55L23 53L25 53L25 52L24 52L24 51L25 51L25 50L26 50L26 49L27 49L27 48L28 48L28 47L29 47L29 46L30 46L30 45L32 45L32 46L34 46L34 47L35 47L35 48L34 48L34 49L35 49L35 50L33 50L33 49L32 49L32 48L33 48L33 47L32 47L32 48L31 48L31 51L35 51L35 52L37 52L37 53L32 53L32 52L30 52L30 51L29 51L29 53L28 53L28 52L27 52L27 51L26 51L26 54L30 54L30 56L32 56L32 55L33 55L33 54L34 54L34 55L35 55L35 57L36 57L36 56L37 56L37 57L38 57L38 58L39 58L39 59L38 59L38 62L39 62L39 59L43 59L43 60L44 60L44 61L45 61L45 62L40 62L40 63L42 63L42 64L43 64L43 63L45 63L45 62L47 62L47 61L45 61L45 60L44 60L44 59L45 59L45 58L44 58L44 57L45 57L45 56L46 56L46 58L47 58L47 59L46 59L46 60L49 60L49 57L50 57L50 58L52 58L52 59L53 59L53 58L52 58L52 57L55 57L55 58L54 58L54 60L52 60L52 62L51 62L51 63L53 63L53 64L55 64L55 63L56 63L56 64L59 64L59 61L57 61L57 62L56 62L56 61L55 61L55 62L54 62L54 63L53 63L53 61L54 61L54 60L56 60L56 59L55 59L55 58L56 58L56 56L54 56L54 55L56 55L56 54L53 54L53 56L49 56L49 55L50 55L50 54L52 54L52 53L56 53L56 52L54 52L54 51L55 51L55 50L56 50L56 51L57 51L57 52L58 52L58 51L57 51L57 48L58 48L58 49L61 49L61 48L60 48L60 47L59 47L59 46L57 46L57 48L54 48L54 47L55 47L55 46L56 46L56 45L57 45L57 44L55 44L55 43L56 43L56 42L57 42L57 41L56 41L56 40L57 40L57 38L56 38L56 40L55 40L55 38L54 38L54 39L53 39L53 38L52 38L52 39L53 39L53 40L50 40L50 41L47 41L47 39L48 39L48 40L49 40L49 37L48 37L48 36L50 36L50 38L51 38L51 37L53 37L53 36L52 36L52 34L53 34L53 32L52 32L52 34L51 34L51 31L50 31L50 30L51 30L51 28L50 28L50 27L48 27L48 26L49 26L49 25L50 25L50 26L52 26L52 27L53 27L53 28L52 28L52 29L56 29L56 30L57 30L57 29L56 29L56 27L55 27L55 26L57 26L57 25L56 25L56 24L54 24L54 23L57 23L57 24L58 24L58 26L60 26L60 27L59 27L59 28L58 28L58 27L57 27L57 28L58 28L58 30L60 30L60 28L61 28L61 27L62 27L62 26L63 26L63 25L62 25L62 24L61 24L61 23L62 23L62 22L63 22L63 21L62 21L62 20L63 20L63 19L61 19L61 18L62 18L62 17L60 17L60 16L59 16L59 15L57 15L57 16L58 16L58 18L59 18L59 20L61 20L61 22L59 22L59 21L58 21L58 22L59 22L59 24L58 24L58 23L57 23L57 21L56 21L56 20L57 20L57 19L56 19L56 18L57 18L57 17L56 17L56 16L54 16L54 15L55 15L55 14L54 14L54 13L56 13L56 12L57 12L57 11L56 11L56 10L54 10L54 8L51 8L51 7L52 7L52 6L53 6L53 7L54 7L54 6L53 6L53 3L52 3L52 2L50 2L50 3L49 3L49 2L47 2L47 3L46 3L46 2L45 2L45 1L44 1L44 2L43 2L43 1L40 1L40 2L39 2L39 4L38 4L38 5L39 5L39 7L38 7L38 6L37 6L37 5L36 5L36 3L37 3L37 2L38 2L38 1L37 1L37 2L36 2L36 1L35 1L35 2L34 2L34 1L33 1L33 3L32 3L32 4L35 4L35 5L36 5L36 6L35 6L35 7L36 7L36 8L37 8L37 7L38 7L38 8L39 8L39 9L38 9L38 10L37 10L37 9L33 9L33 10L32 10L32 9L30 9L30 11L31 11L31 12L30 12L30 13L31 13L31 12L32 12L32 13L33 13L33 14L32 14L32 15L31 15L31 16L30 16L30 14L29 14L29 13L27 13L27 12L28 12L28 11L29 11L29 9L28 9L28 11L27 11L27 10L26 10L26 11L25 11L25 10L22 10L22 11L20 11L20 12L19 12L19 11L18 11L18 10L19 10L19 9L20 9L20 10L21 10L21 9L20 9L20 8L21 8L21 7L22 7L22 9L27 9L27 8L26 8L26 6L27 6L27 7L28 7L28 8L29 8L29 7L28 7L28 6L27 6L27 5L26 5L26 4L25 4L25 2L24 2L24 1ZM23 2L23 3L24 3L24 2ZM40 2L40 3L41 3L41 5L40 5L40 4L39 4L39 5L40 5L40 7L39 7L39 8L41 8L41 5L43 5L43 4L44 4L44 5L45 5L45 6L44 6L44 8L45 8L45 9L47 9L47 10L43 10L43 9L39 9L39 10L38 10L38 12L34 12L34 11L35 11L35 10L33 10L33 11L32 11L32 12L34 12L34 13L39 13L39 12L41 12L41 13L40 13L40 14L41 14L41 15L40 15L40 16L41 16L41 17L39 17L39 18L38 18L38 15L39 15L39 14L38 14L38 15L37 15L37 14L36 14L36 15L35 15L35 14L33 14L33 15L32 15L32 16L33 16L33 18L31 18L31 17L30 17L30 18L31 18L31 19L29 19L29 20L28 20L28 21L30 21L30 20L31 20L31 21L32 21L32 20L33 20L33 22L31 22L31 23L30 23L30 24L29 24L29 22L28 22L28 24L27 24L27 21L26 21L26 24L27 24L27 25L24 25L24 24L25 24L25 21L24 21L24 19L28 19L28 18L27 18L27 17L26 17L26 16L27 16L27 15L28 15L28 14L27 14L27 13L26 13L26 14L25 14L25 15L26 15L26 16L25 16L25 17L24 17L24 18L23 18L23 17L22 17L22 16L24 16L24 15L23 15L23 14L24 14L24 13L25 13L25 11L24 11L24 13L19 13L19 12L18 12L18 11L17 11L17 13L16 13L16 12L15 12L15 13L14 13L14 14L13 14L13 13L12 13L12 9L13 9L13 8L11 8L11 13L12 13L12 16L13 16L13 15L14 15L14 16L15 16L15 15L14 15L14 14L15 14L15 13L16 13L16 14L17 14L17 13L19 13L19 14L18 14L18 15L19 15L19 16L18 16L18 17L17 17L17 16L16 16L16 17L17 17L17 19L16 19L16 18L15 18L15 17L12 17L12 18L10 18L10 17L11 17L11 15L10 15L10 17L9 17L9 19L8 19L8 18L6 18L6 19L5 19L5 20L6 20L6 21L7 21L7 22L6 22L6 23L7 23L7 24L6 24L6 25L5 25L5 28L6 28L6 29L7 29L7 28L8 28L8 29L9 29L9 30L10 30L10 31L12 31L12 32L11 32L11 33L12 33L12 35L11 35L11 36L10 36L10 37L11 37L11 36L12 36L12 38L13 38L13 37L14 37L14 38L15 38L15 39L12 39L12 40L13 40L13 41L15 41L15 39L16 39L16 37L17 37L17 36L16 36L16 35L17 35L17 34L18 34L18 33L19 33L19 32L18 32L18 33L17 33L17 32L16 32L16 31L15 31L15 32L14 32L14 31L12 31L12 28L13 28L13 27L14 27L14 26L15 26L15 25L19 25L19 26L16 26L16 27L17 27L17 30L18 30L18 29L20 29L20 28L19 28L19 27L20 27L20 25L22 25L22 26L21 26L21 27L23 27L23 29L21 29L21 32L20 32L20 33L21 33L21 32L23 32L23 33L22 33L22 34L21 34L21 35L22 35L22 34L25 34L25 33L26 33L26 34L27 34L27 35L26 35L26 36L27 36L27 37L31 37L31 39L30 39L30 38L28 38L28 39L30 39L30 40L27 40L27 41L26 41L26 44L27 44L27 45L26 45L26 46L25 46L25 49L24 49L24 50L23 50L23 49L21 49L21 50L20 50L20 49L19 49L19 50L20 50L20 51L21 51L21 52L20 52L20 53L21 53L21 52L22 52L22 53L23 53L23 51L24 51L24 50L25 50L25 49L26 49L26 47L27 47L27 45L29 45L29 43L30 43L30 44L32 44L32 45L34 45L34 46L35 46L35 45L37 45L37 46L36 46L36 47L37 47L37 46L38 46L38 48L36 48L36 50L35 50L35 51L36 51L36 50L38 50L38 51L39 51L39 52L38 52L38 53L40 53L40 52L41 52L41 51L42 51L42 50L43 50L43 49L44 49L44 50L45 50L45 49L47 49L47 50L46 50L46 51L44 51L44 52L45 52L45 53L47 53L47 52L48 52L48 53L49 53L49 54L48 54L48 55L49 55L49 54L50 54L50 53L49 53L49 52L50 52L50 51L51 51L51 53L52 53L52 52L53 52L53 51L52 51L52 50L50 50L50 51L49 51L49 50L48 50L48 49L49 49L49 48L53 48L53 47L52 47L52 46L53 46L53 45L54 45L54 46L55 46L55 44L54 44L54 43L53 43L53 41L51 41L51 42L50 42L50 43L51 43L51 42L52 42L52 44L51 44L51 46L50 46L50 44L47 44L47 42L45 42L45 41L44 41L44 43L42 43L42 42L43 42L43 41L42 41L42 38L43 38L43 37L42 37L42 38L41 38L41 37L39 37L39 38L38 38L38 39L40 39L40 40L39 40L39 42L38 42L38 43L39 43L39 44L36 44L36 42L37 42L37 40L36 40L36 39L34 39L34 38L37 38L37 36L38 36L38 35L40 35L40 36L41 36L41 33L42 33L42 34L44 34L44 32L45 32L45 35L42 35L42 36L46 36L46 37L44 37L44 38L45 38L45 39L43 39L43 40L46 40L46 39L47 39L47 38L46 38L46 37L47 37L47 36L48 36L48 33L50 33L50 32L48 32L48 30L45 30L45 29L44 29L44 28L45 28L45 27L47 27L47 26L48 26L48 25L49 25L49 24L47 24L47 22L46 22L46 23L45 23L45 21L46 21L46 20L47 20L47 18L46 18L46 17L50 17L50 16L46 16L46 15L47 15L47 14L46 14L46 15L45 15L45 14L44 14L44 12L45 12L45 13L49 13L49 14L48 14L48 15L49 15L49 14L50 14L50 15L52 15L52 16L51 16L51 18L48 18L48 19L49 19L49 20L48 20L48 22L50 22L50 23L51 23L51 24L50 24L50 25L51 25L51 24L53 24L53 23L52 23L52 22L55 22L55 21L54 21L54 20L55 20L55 19L52 19L52 18L56 18L56 17L54 17L54 16L53 16L53 15L52 15L52 14L53 14L53 13L51 13L51 12L50 12L50 13L49 13L49 12L48 12L48 11L49 11L49 9L50 9L50 7L51 7L51 5L50 5L50 4L49 4L49 3L48 3L48 5L46 5L46 4L44 4L44 3L45 3L45 2L44 2L44 3L43 3L43 2L42 2L42 3L41 3L41 2ZM10 3L10 4L11 4L11 3ZM23 4L23 5L24 5L24 7L23 7L23 6L22 6L22 7L23 7L23 8L25 8L25 4ZM20 5L20 7L21 7L21 5ZM31 5L31 8L34 8L34 5ZM48 5L48 6L47 6L47 7L46 7L46 6L45 6L45 7L46 7L46 8L47 8L47 7L48 7L48 8L49 8L49 7L50 7L50 6L49 6L49 5ZM10 6L10 7L11 7L11 6ZM12 6L12 7L13 7L13 6ZM16 6L16 7L17 7L17 6ZM32 6L32 7L33 7L33 6ZM36 6L36 7L37 7L37 6ZM42 6L42 8L43 8L43 6ZM48 6L48 7L49 7L49 6ZM56 6L56 7L57 7L57 6ZM52 9L52 10L50 10L50 11L52 11L52 12L53 12L53 9ZM36 10L36 11L37 11L37 10ZM40 10L40 11L41 11L41 12L44 12L44 11L43 11L43 10L42 10L42 11L41 11L41 10ZM46 11L46 12L47 12L47 11ZM54 11L54 12L55 12L55 11ZM8 12L8 13L5 13L5 14L8 14L8 13L9 13L9 12ZM62 12L62 13L63 13L63 12ZM50 13L50 14L51 14L51 13ZM64 13L64 14L65 14L65 13ZM19 14L19 15L20 15L20 14ZM42 14L42 15L41 15L41 16L44 16L44 17L43 17L43 18L40 18L40 19L42 19L42 20L40 20L40 21L38 21L38 20L39 20L39 19L37 19L37 17L36 17L36 16L37 16L37 15L36 15L36 16L35 16L35 15L34 15L34 16L35 16L35 17L34 17L34 18L33 18L33 19L34 19L34 20L37 20L37 21L38 21L38 22L37 22L37 23L36 23L36 22L35 22L35 21L34 21L34 22L35 22L35 23L34 23L34 24L32 24L32 25L33 25L33 26L35 26L35 27L33 27L33 28L32 28L32 29L31 29L31 28L29 28L29 27L31 27L31 26L30 26L30 25L31 25L31 24L30 24L30 25L27 25L27 26L24 26L24 28L25 28L25 29L27 29L27 30L25 30L25 31L26 31L26 33L27 33L27 34L30 34L30 31L29 31L29 33L27 33L27 32L28 32L28 30L30 30L30 29L31 29L31 30L32 30L32 29L33 29L33 30L35 30L35 27L36 27L36 28L37 28L37 29L36 29L36 30L37 30L37 29L38 29L38 30L39 30L39 29L41 29L41 28L42 28L42 29L43 29L43 30L42 30L42 31L41 31L41 30L40 30L40 31L41 31L41 32L40 32L40 33L38 33L38 32L39 32L39 31L36 31L36 32L35 32L35 36L37 36L37 35L38 35L38 34L40 34L40 33L41 33L41 32L42 32L42 33L43 33L43 32L44 32L44 31L45 31L45 30L44 30L44 29L43 29L43 28L44 28L44 27L45 27L45 26L47 26L47 24L44 24L44 21L45 21L45 20L46 20L46 18L44 18L44 17L45 17L45 16L44 16L44 14ZM62 14L62 15L63 15L63 14ZM21 15L21 16L22 16L22 15ZM19 16L19 17L18 17L18 19L17 19L17 20L16 20L16 21L15 21L15 20L14 20L14 19L12 19L12 23L11 23L11 20L10 20L10 19L9 19L9 20L10 20L10 21L9 21L9 22L10 22L10 23L9 23L9 24L8 24L8 25L9 25L9 24L11 24L11 26L10 26L10 27L12 27L12 26L13 26L13 25L14 25L14 24L16 24L16 23L14 23L14 22L13 22L13 20L14 20L14 21L15 21L15 22L16 22L16 21L17 21L17 24L20 24L20 23L18 23L18 21L19 21L19 22L21 22L21 21L22 21L22 23L23 23L23 24L22 24L22 25L23 25L23 24L24 24L24 22L23 22L23 21L22 21L22 20L21 20L21 19L22 19L22 18L21 18L21 17L20 17L20 16ZM28 16L28 17L29 17L29 16ZM52 16L52 17L53 17L53 16ZM19 17L19 19L20 19L20 17ZM25 17L25 18L26 18L26 17ZM34 18L34 19L35 19L35 18ZM43 18L43 19L44 19L44 20L45 20L45 19L44 19L44 18ZM6 19L6 20L8 20L8 19ZM50 19L50 22L52 22L52 21L53 21L53 20L51 20L51 19ZM17 20L17 21L18 21L18 20ZM20 20L20 21L21 21L21 20ZM42 20L42 22L43 22L43 20ZM7 22L7 23L8 23L8 22ZM38 22L38 23L39 23L39 26L38 26L38 24L36 24L36 25L35 25L35 24L34 24L34 25L35 25L35 26L36 26L36 25L37 25L37 27L40 27L40 28L41 28L41 26L43 26L43 27L42 27L42 28L43 28L43 27L44 27L44 25L42 25L42 24L43 24L43 23L41 23L41 22L40 22L40 23L39 23L39 22ZM13 23L13 24L12 24L12 25L13 25L13 24L14 24L14 23ZM40 24L40 25L41 25L41 24ZM59 24L59 25L61 25L61 24ZM6 25L6 26L7 26L7 25ZM54 25L54 26L53 26L53 27L54 27L54 28L55 28L55 27L54 27L54 26L55 26L55 25ZM8 26L8 27L9 27L9 26ZM6 27L6 28L7 28L7 27ZM26 27L26 28L27 28L27 29L29 29L29 28L28 28L28 27ZM14 28L14 30L16 30L16 29L15 29L15 28ZM38 28L38 29L39 29L39 28ZM46 28L46 29L47 29L47 28ZM48 28L48 29L49 29L49 30L50 30L50 28ZM23 29L23 30L22 30L22 31L23 31L23 32L24 32L24 33L25 33L25 32L24 32L24 31L23 31L23 30L24 30L24 29ZM61 29L61 35L62 35L62 36L63 36L63 35L62 35L62 34L63 34L63 33L64 33L64 32L63 32L63 31L62 31L62 29ZM19 30L19 31L20 31L20 30ZM54 30L54 31L55 31L55 32L56 32L56 31L55 31L55 30ZM5 31L5 34L8 34L8 31ZM31 31L31 34L34 34L34 31ZM42 31L42 32L43 32L43 31ZM57 31L57 34L60 34L60 31ZM6 32L6 33L7 33L7 32ZM15 32L15 33L13 33L13 34L17 34L17 33L16 33L16 32ZM32 32L32 33L33 33L33 32ZM36 32L36 33L37 33L37 34L36 34L36 35L37 35L37 34L38 34L38 33L37 33L37 32ZM58 32L58 33L59 33L59 32ZM62 32L62 33L63 33L63 32ZM46 33L46 34L47 34L47 33ZM55 33L55 34L54 34L54 37L56 37L56 36L55 36L55 34L56 34L56 33ZM50 34L50 36L51 36L51 34ZM12 35L12 36L13 36L13 35ZM14 35L14 36L15 36L15 35ZM24 35L24 36L25 36L25 35ZM28 35L28 36L31 36L31 37L32 37L32 39L31 39L31 40L30 40L30 41L27 41L27 43L29 43L29 42L30 42L30 41L31 41L31 42L32 42L32 43L33 43L33 41L34 41L34 43L35 43L35 42L36 42L36 41L34 41L34 39L33 39L33 37L32 37L32 36L34 36L34 35ZM6 36L6 37L7 37L7 38L6 38L6 39L5 39L5 40L6 40L6 41L7 41L7 42L6 42L6 43L8 43L8 42L9 42L9 43L10 43L10 42L12 42L12 41L10 41L10 40L11 40L11 39L9 39L9 38L8 38L8 37L7 37L7 36ZM57 36L57 37L58 37L58 39L59 39L59 40L58 40L58 41L62 41L62 40L63 40L63 38L64 38L64 37L63 37L63 38L62 38L62 37L61 37L61 36L60 36L60 37L58 37L58 36ZM60 37L60 38L61 38L61 39L60 39L60 40L62 40L62 38L61 38L61 37ZM3 38L3 39L4 39L4 38ZM40 38L40 39L41 39L41 38ZM6 39L6 40L7 40L7 41L8 41L8 40L7 40L7 39ZM32 40L32 41L33 41L33 40ZM40 40L40 41L41 41L41 40ZM19 41L19 42L18 42L18 43L19 43L19 42L20 42L20 41ZM54 41L54 42L55 42L55 41ZM13 42L13 43L14 43L14 44L15 44L15 45L16 45L16 44L17 44L17 45L19 45L19 44L17 44L17 43L16 43L16 42ZM40 42L40 43L41 43L41 44L40 44L40 46L39 46L39 45L38 45L38 46L39 46L39 48L38 48L38 50L39 50L39 51L40 51L40 50L41 50L41 49L43 49L43 48L44 48L44 49L45 49L45 48L44 48L44 47L46 47L46 48L49 48L49 47L50 47L50 46L49 46L49 45L48 45L48 47L46 47L46 46L47 46L47 45L46 45L46 43L45 43L45 44L44 44L44 47L43 47L43 46L42 46L42 47L41 47L41 48L40 48L40 46L41 46L41 44L42 44L42 45L43 45L43 44L42 44L42 43L41 43L41 42ZM48 42L48 43L49 43L49 42ZM15 43L15 44L16 44L16 43ZM62 43L62 44L63 44L63 43ZM6 44L6 45L7 45L7 44ZM8 44L8 46L9 46L9 47L11 47L11 46L10 46L10 45L9 45L9 44ZM52 44L52 45L53 45L53 44ZM6 46L6 47L7 47L7 46ZM22 47L22 48L24 48L24 47ZM42 47L42 48L43 48L43 47ZM58 47L58 48L59 48L59 47ZM17 49L17 51L16 51L16 52L15 52L15 53L18 53L18 52L17 52L17 51L18 51L18 49ZM28 49L28 50L30 50L30 49ZM39 49L39 50L40 50L40 49ZM53 49L53 50L55 50L55 49ZM3 50L3 51L4 51L4 52L5 52L5 51L4 51L4 50ZM13 50L13 52L14 52L14 50ZM21 50L21 51L22 51L22 50ZM46 51L46 52L47 52L47 51ZM48 51L48 52L49 52L49 51ZM2 53L2 54L4 54L4 53ZM31 53L31 55L32 55L32 53ZM42 53L42 54L41 54L41 55L39 55L39 54L36 54L36 55L39 55L39 56L38 56L38 57L39 57L39 58L40 58L40 56L41 56L41 55L42 55L42 56L45 56L45 55L44 55L44 54L43 54L43 53ZM42 54L42 55L43 55L43 54ZM46 54L46 56L47 56L47 54ZM28 55L28 56L29 56L29 55ZM60 55L60 56L61 56L61 57L62 57L62 56L61 56L61 55ZM6 56L6 57L7 57L7 56ZM48 56L48 57L47 57L47 58L48 58L48 57L49 57L49 56ZM31 57L31 60L34 60L34 57ZM41 57L41 58L43 58L43 57ZM57 57L57 60L60 60L60 57ZM32 58L32 59L33 59L33 58ZM58 58L58 59L59 59L59 58ZM62 59L62 60L64 60L64 59ZM26 60L26 61L25 61L25 63L26 63L26 61L27 61L27 60ZM40 60L40 61L41 61L41 60ZM60 61L60 62L61 62L61 63L62 63L62 64L63 64L63 61ZM18 62L18 65L21 65L21 64L19 64L19 63L20 63L20 62ZM32 62L32 63L33 63L33 62ZM57 62L57 63L58 63L58 62ZM30 64L30 65L31 65L31 64ZM34 64L34 65L38 65L38 64ZM0 0L0 7L7 7L7 0ZM1 1L1 6L6 6L6 1ZM2 2L2 5L5 5L5 2ZM58 0L58 7L65 7L65 0ZM59 1L59 6L64 6L64 1ZM60 2L60 5L63 5L63 2ZM0 58L0 65L7 65L7 58ZM1 59L1 64L6 64L6 59ZM2 60L2 63L5 63L5 60Z" fill="#000000"/></g></g></svg>
