<?xml version="1.0" encoding="UTF-8"?>
<svg xmlns="http://www.w3.org/2000/svg" version="1.1" width="300" height="300" viewBox="0 0 300 300"><rect x="0" y="0" width="300" height="300" fill="#ffffff"/><g transform="scale(4.615)"><g transform="translate(0,0)"><path fill-rule="evenodd" d="M16 0L16 4L15 4L15 6L14 6L14 3L13 3L13 2L15 2L15 1L12 1L12 3L11 3L11 4L9 4L9 3L8 3L8 4L9 4L9 5L8 5L8 7L9 7L9 5L10 5L10 11L11 11L11 13L9 13L9 12L8 12L8 11L7 11L7 10L9 10L9 8L6 8L6 9L5 9L5 8L0 8L0 10L1 10L1 12L0 12L0 13L1 13L1 14L0 14L0 15L1 15L1 16L0 16L0 17L1 17L1 16L2 16L2 18L1 18L1 19L0 19L0 20L1 20L1 19L2 19L2 18L4 18L4 19L3 19L3 20L2 20L2 21L1 21L1 22L0 22L0 24L1 24L1 23L2 23L2 25L1 25L1 26L0 26L0 28L1 28L1 29L0 29L0 32L1 32L1 33L0 33L0 34L4 34L4 35L9 35L9 36L8 36L8 37L9 37L9 36L10 36L10 35L12 35L12 34L13 34L13 33L14 33L14 35L13 35L13 37L15 37L15 36L16 36L16 37L17 37L17 38L16 38L16 41L17 41L17 40L18 40L18 41L19 41L19 42L20 42L20 43L21 43L21 42L20 42L20 41L21 41L21 40L23 40L23 41L22 41L22 42L23 42L23 44L24 44L24 45L22 45L22 46L21 46L21 45L19 45L19 43L18 43L18 42L17 42L17 43L18 43L18 45L19 45L19 46L17 46L17 45L16 45L16 44L15 44L15 45L14 45L14 44L13 44L13 45L12 45L12 44L11 44L11 42L12 42L12 43L15 43L15 38L14 38L14 39L13 39L13 38L12 38L12 39L11 39L11 37L10 37L10 38L6 38L6 37L7 37L7 36L6 36L6 37L5 37L5 36L3 36L3 37L0 37L0 38L1 38L1 40L0 40L0 41L1 41L1 42L2 42L2 46L1 46L1 44L0 44L0 47L3 47L3 49L4 49L4 50L3 50L3 51L2 51L2 53L3 53L3 54L2 54L2 55L3 55L3 56L1 56L1 55L0 55L0 56L1 56L1 57L3 57L3 56L4 56L4 57L5 57L5 56L4 56L4 52L3 52L3 51L5 51L5 49L8 49L8 52L6 52L6 53L5 53L5 55L7 55L7 54L8 54L8 53L9 53L9 54L10 54L10 53L11 53L11 52L10 52L10 51L11 51L11 50L12 50L12 53L13 53L13 54L12 54L12 55L11 55L11 57L10 57L10 56L6 56L6 57L8 57L8 59L10 59L10 61L13 61L13 62L10 62L10 63L9 63L9 60L8 60L8 65L9 65L9 64L10 64L10 65L11 65L11 63L12 63L12 65L13 65L13 64L16 64L16 65L17 65L17 64L16 64L16 63L15 63L15 62L16 62L16 61L13 61L13 59L14 59L14 60L16 60L16 59L17 59L17 58L18 58L18 59L19 59L19 60L17 60L17 62L18 62L18 63L20 63L20 62L18 62L18 61L20 61L20 57L21 57L21 56L22 56L22 55L20 55L20 53L21 53L21 54L22 54L22 53L23 53L23 54L25 54L25 53L30 53L30 54L27 54L27 55L26 55L26 56L25 56L25 55L24 55L24 56L25 56L25 57L22 57L22 58L21 58L21 60L23 60L23 61L21 61L21 63L22 63L22 62L23 62L23 63L24 63L24 64L25 64L25 65L26 65L26 64L27 64L27 65L40 65L40 64L42 64L42 65L44 65L44 64L45 64L45 65L46 65L46 64L47 64L47 62L50 62L50 65L52 65L52 64L53 64L53 65L55 65L55 63L56 63L56 64L57 64L57 65L61 65L61 63L62 63L62 62L63 62L63 64L62 64L62 65L63 65L63 64L64 64L64 60L65 60L65 59L63 59L63 60L62 60L62 58L65 58L65 57L64 57L64 56L65 56L65 55L63 55L63 56L62 56L62 58L61 58L61 56L60 56L60 55L61 55L61 54L62 54L62 53L63 53L63 54L65 54L65 51L63 51L63 50L61 50L61 49L64 49L64 50L65 50L65 49L64 49L64 48L62 48L62 47L63 47L63 46L62 46L62 47L61 47L61 45L60 45L60 44L62 44L62 45L65 45L65 44L62 44L62 43L63 43L63 42L65 42L65 41L63 41L63 40L64 40L64 38L65 38L65 37L63 37L63 36L65 36L65 35L63 35L63 34L65 34L65 33L64 33L64 32L65 32L65 31L63 31L63 32L62 32L62 33L63 33L63 34L62 34L62 35L61 35L61 30L63 30L63 29L64 29L64 28L62 28L62 27L63 27L63 26L65 26L65 25L64 25L64 24L65 24L65 23L64 23L64 22L65 22L65 21L64 21L64 22L62 22L62 23L63 23L63 24L60 24L60 25L59 25L59 24L58 24L58 23L59 23L59 22L61 22L61 20L59 20L59 19L63 19L63 18L65 18L65 15L64 15L64 16L62 16L62 14L63 14L63 12L64 12L64 14L65 14L65 12L64 12L64 10L65 10L65 9L64 9L64 8L63 8L63 9L62 9L62 8L61 8L61 9L62 9L62 11L63 11L63 12L62 12L62 14L60 14L60 15L61 15L61 16L59 16L59 14L57 14L57 15L58 15L58 17L59 17L59 18L58 18L58 20L59 20L59 22L58 22L58 21L57 21L57 20L56 20L56 21L57 21L57 23L53 23L53 22L55 22L55 21L54 21L54 20L55 20L55 19L54 19L54 18L56 18L56 19L57 19L57 18L56 18L56 17L57 17L57 16L56 16L56 13L57 13L57 12L58 12L58 11L59 11L59 13L61 13L61 12L60 12L60 11L61 11L61 10L60 10L60 11L59 11L59 10L58 10L58 11L54 11L54 12L55 12L55 13L51 13L51 12L53 12L53 10L55 10L55 5L54 5L54 4L56 4L56 5L57 5L57 4L56 4L56 3L57 3L57 1L56 1L56 0L55 0L55 1L56 1L56 3L55 3L55 2L54 2L54 3L53 3L53 1L54 1L54 0L52 0L52 2L51 2L51 1L50 1L50 0L49 0L49 2L51 2L51 5L50 5L50 3L48 3L48 0L47 0L47 1L45 1L45 2L44 2L44 0L39 0L39 1L38 1L38 2L37 2L37 3L35 3L35 1L34 1L34 0L32 0L32 1L33 1L33 2L31 2L31 3L30 3L30 1L31 1L31 0L29 0L29 2L28 2L28 3L27 3L27 5L26 5L26 4L24 4L24 5L23 5L23 6L22 6L22 5L20 5L20 7L21 7L21 8L19 8L19 6L18 6L18 5L19 5L19 4L22 4L22 3L20 3L20 2L22 2L22 1L23 1L23 2L24 2L24 3L26 3L26 2L25 2L25 0L21 0L21 1L20 1L20 0L19 0L19 1L18 1L18 2L17 2L17 0ZM26 0L26 1L28 1L28 0ZM8 1L8 2L9 2L9 1ZM40 1L40 2L41 2L41 3L40 3L40 5L39 5L39 2L38 2L38 3L37 3L37 4L35 4L35 3L34 3L34 2L33 2L33 3L32 3L32 4L33 4L33 3L34 3L34 4L35 4L35 8L37 8L37 9L33 9L33 10L32 10L32 9L31 9L31 10L30 10L30 8L29 8L29 9L28 9L28 8L26 8L26 5L24 5L24 6L23 6L23 8L22 8L22 9L20 9L20 10L19 10L19 9L18 9L18 8L17 8L17 7L18 7L18 6L17 6L17 5L16 5L16 6L15 6L15 7L14 7L14 6L13 6L13 5L12 5L12 6L11 6L11 7L12 7L12 8L11 8L11 9L12 9L12 10L11 10L11 11L13 11L13 12L12 12L12 13L11 13L11 14L9 14L9 13L6 13L6 12L7 12L7 11L5 11L5 9L1 9L1 10L2 10L2 12L1 12L1 13L2 13L2 12L3 12L3 11L5 11L5 12L4 12L4 13L6 13L6 14L7 14L7 15L5 15L5 17L4 17L4 18L5 18L5 19L6 19L6 20L3 20L3 21L2 21L2 22L4 22L4 23L3 23L3 24L4 24L4 26L3 26L3 25L2 25L2 27L1 27L1 28L2 28L2 29L1 29L1 31L2 31L2 33L3 33L3 31L4 31L4 30L3 30L3 28L4 28L4 29L5 29L5 30L7 30L7 29L8 29L8 28L7 28L7 27L8 27L8 26L10 26L10 25L9 25L9 24L10 24L10 23L11 23L11 22L12 22L12 23L13 23L13 24L11 24L11 27L10 27L10 29L12 29L12 28L14 28L14 30L13 30L13 31L14 31L14 30L15 30L15 31L16 31L16 32L14 32L14 33L15 33L15 34L17 34L17 35L16 35L16 36L17 36L17 37L18 37L18 36L17 36L17 35L18 35L18 34L19 34L19 35L21 35L21 36L22 36L22 37L20 37L20 36L19 36L19 37L20 37L20 39L19 39L19 38L17 38L17 39L18 39L18 40L19 40L19 41L20 41L20 40L21 40L21 38L22 38L22 39L23 39L23 38L24 38L24 37L26 37L26 38L27 38L27 36L29 36L29 37L28 37L28 39L24 39L24 41L25 41L25 42L24 42L24 44L25 44L25 42L26 42L26 45L27 45L27 46L25 46L25 45L24 45L24 46L23 46L23 47L24 47L24 49L25 49L25 48L26 48L26 49L27 49L27 50L28 50L28 51L27 51L27 52L28 52L28 51L29 51L29 52L30 52L30 51L31 51L31 52L33 52L33 51L32 51L32 50L33 50L33 49L34 49L34 51L36 51L36 52L37 52L37 53L35 53L35 54L34 54L34 55L36 55L36 56L38 56L38 55L36 55L36 54L37 54L37 53L38 53L38 54L39 54L39 53L41 53L41 54L40 54L40 55L41 55L41 56L39 56L39 57L35 57L35 60L37 60L37 63L36 63L36 64L37 64L37 63L38 63L38 62L39 62L39 61L41 61L41 60L40 60L40 58L41 58L41 59L43 59L43 60L44 60L44 61L43 61L43 62L42 62L42 64L43 64L43 63L45 63L45 64L46 64L46 63L45 63L45 62L47 62L47 61L48 61L48 60L49 60L49 61L50 61L50 62L51 62L51 63L53 63L53 64L54 64L54 63L55 63L55 62L56 62L56 63L58 63L58 64L59 64L59 63L58 63L58 62L56 62L56 61L55 61L55 62L54 62L54 60L56 60L56 59L55 59L55 58L56 58L56 56L57 56L57 55L56 55L56 54L57 54L57 53L58 53L58 55L60 55L60 53L62 53L62 52L63 52L63 53L64 53L64 52L63 52L63 51L62 51L62 52L58 52L58 51L59 51L59 50L58 50L58 51L56 51L56 50L57 50L57 48L58 48L58 49L61 49L61 47L60 47L60 46L59 46L59 44L60 44L60 43L61 43L61 42L63 42L63 41L61 41L61 40L63 40L63 39L62 39L62 37L61 37L61 35L60 35L60 37L61 37L61 38L57 38L57 35L56 35L56 32L55 32L55 30L53 30L53 32L52 32L52 31L50 31L50 30L51 30L51 29L50 29L50 30L48 30L48 32L49 32L49 34L47 34L47 33L45 33L45 32L44 32L44 33L43 33L43 34L41 34L41 36L39 36L39 37L38 37L38 35L35 35L35 36L34 36L34 37L35 37L35 36L37 36L37 37L36 37L36 38L37 38L37 39L35 39L35 38L34 38L34 39L33 39L33 40L34 40L34 42L33 42L33 41L32 41L32 42L31 42L31 40L32 40L32 38L33 38L33 37L31 37L31 36L33 36L33 35L31 35L31 36L30 36L30 32L29 32L29 31L30 31L30 30L35 30L35 34L36 34L36 32L37 32L37 33L38 33L38 34L39 34L39 33L38 33L38 32L40 32L40 33L41 33L41 32L43 32L43 31L45 31L45 30L47 30L47 29L48 29L48 28L49 28L49 27L48 27L48 26L47 26L47 25L46 25L46 26L45 26L45 28L44 28L44 27L43 27L43 26L42 26L42 25L43 25L43 24L42 24L42 23L43 23L43 22L42 22L42 21L44 21L44 22L45 22L45 23L46 23L46 22L47 22L47 24L49 24L49 25L50 25L50 26L51 26L51 27L50 27L50 28L51 28L51 27L52 27L52 26L53 26L53 28L52 28L52 29L53 29L53 28L55 28L55 29L56 29L56 30L57 30L57 29L56 29L56 28L58 28L58 30L61 30L61 29L60 29L60 28L61 28L61 27L62 27L62 26L63 26L63 25L60 25L60 26L59 26L59 25L58 25L58 24L57 24L57 25L56 25L56 24L55 24L55 25L56 25L56 27L55 27L55 26L53 26L53 24L52 24L52 25L50 25L50 24L51 24L51 23L50 23L50 22L51 22L51 21L50 21L50 20L49 20L49 19L50 19L50 18L51 18L51 19L53 19L53 18L54 18L54 17L56 17L56 16L54 16L54 15L55 15L55 14L52 14L52 15L53 15L53 16L51 16L51 15L49 15L49 14L48 14L48 13L47 13L47 11L46 11L46 10L48 10L48 12L49 12L49 13L50 13L50 14L51 14L51 13L50 13L50 12L51 12L51 11L52 11L52 10L53 10L53 9L54 9L54 8L52 8L52 5L53 5L53 3L52 3L52 5L51 5L51 9L49 9L49 10L48 10L48 8L50 8L50 5L49 5L49 4L46 4L46 3L44 3L44 4L43 4L43 3L42 3L42 2L43 2L43 1L42 1L42 2L41 2L41 1ZM12 3L12 4L13 4L13 3ZM17 3L17 4L18 4L18 3ZM29 3L29 4L28 4L28 5L29 5L29 7L30 7L30 3ZM42 4L42 5L40 5L40 7L39 7L39 5L38 5L38 7L39 7L39 8L38 8L38 9L37 9L37 10L36 10L36 11L39 11L39 12L38 12L38 13L39 13L39 14L37 14L37 16L36 16L36 15L35 15L35 14L36 14L36 13L37 13L37 12L35 12L35 10L33 10L33 11L30 11L30 10L28 10L28 9L24 9L24 11L22 11L22 10L23 10L23 9L22 9L22 10L20 10L20 11L21 11L21 12L24 12L24 13L22 13L22 15L21 15L21 13L19 13L19 12L18 12L18 13L17 13L17 11L16 11L16 12L15 12L15 11L14 11L14 10L17 10L17 9L16 9L16 8L13 8L13 9L14 9L14 10L13 10L13 11L14 11L14 12L15 12L15 13L16 13L16 14L15 14L15 15L14 15L14 14L13 14L13 13L12 13L12 14L13 14L13 16L12 16L12 15L10 15L10 16L9 16L9 15L7 15L7 16L6 16L6 17L5 17L5 18L6 18L6 19L7 19L7 20L6 20L6 21L7 21L7 20L9 20L9 21L8 21L8 22L5 22L5 21L4 21L4 22L5 22L5 23L4 23L4 24L5 24L5 26L4 26L4 28L5 28L5 29L7 29L7 28L5 28L5 26L6 26L6 27L7 27L7 26L6 26L6 25L8 25L8 24L9 24L9 23L10 23L10 22L11 22L11 21L10 21L10 20L11 20L11 19L12 19L12 20L13 20L13 21L12 21L12 22L13 22L13 21L16 21L16 22L14 22L14 24L13 24L13 26L12 26L12 27L11 27L11 28L12 28L12 27L14 27L14 28L15 28L15 25L17 25L17 28L18 28L18 29L20 29L20 28L21 28L21 27L22 27L22 28L23 28L23 29L21 29L21 32L20 32L20 33L22 33L22 34L21 34L21 35L22 35L22 34L25 34L25 33L22 33L22 32L23 32L23 31L24 31L24 32L27 32L27 33L26 33L26 34L28 34L28 33L29 33L29 32L28 32L28 31L27 31L27 30L28 30L28 29L26 29L26 28L27 28L27 27L28 27L28 28L31 28L31 29L32 29L32 28L34 28L34 27L37 27L37 25L38 25L38 24L41 24L41 23L42 23L42 22L41 22L41 23L40 23L40 22L37 22L37 24L36 24L36 21L37 21L37 20L36 20L36 19L37 19L37 18L36 18L36 19L35 19L35 18L34 18L34 16L33 16L33 15L35 15L35 16L36 16L36 17L37 17L37 16L39 16L39 17L40 17L40 16L41 16L41 15L40 15L40 14L41 14L41 13L42 13L42 14L43 14L43 15L42 15L42 16L43 16L43 17L41 17L41 18L45 18L45 19L44 19L44 20L45 20L45 21L47 21L47 20L46 20L46 19L47 19L47 18L46 18L46 17L49 17L49 18L48 18L48 19L49 19L49 18L50 18L50 17L51 17L51 16L50 16L50 17L49 17L49 16L47 16L47 15L48 15L48 14L46 14L46 16L45 16L45 14L43 14L43 13L42 13L42 12L41 12L41 11L39 11L39 10L38 10L38 9L40 9L40 8L42 8L42 10L43 10L43 9L44 9L44 10L46 10L46 9L47 9L47 8L46 8L46 7L47 7L47 5L46 5L46 4L45 4L45 5L43 5L43 4ZM31 5L31 8L34 8L34 5ZM36 5L36 7L37 7L37 5ZM42 5L42 6L41 6L41 7L42 7L42 6L43 6L43 8L44 8L44 9L45 9L45 8L44 8L44 6L43 6L43 5ZM48 5L48 7L49 7L49 5ZM12 6L12 7L13 7L13 6ZM16 6L16 7L17 7L17 6ZM21 6L21 7L22 7L22 6ZM24 6L24 7L25 7L25 6ZM27 6L27 7L28 7L28 6ZM32 6L32 7L33 7L33 6ZM45 6L45 7L46 7L46 6ZM53 6L53 7L54 7L54 6ZM56 6L56 7L57 7L57 6ZM56 8L56 9L58 9L58 8ZM59 8L59 9L60 9L60 8ZM6 9L6 10L7 10L7 9ZM51 9L51 10L50 10L50 11L51 11L51 10L52 10L52 9ZM25 10L25 12L26 12L26 13L24 13L24 14L23 14L23 15L22 15L22 17L25 17L25 16L26 16L26 17L27 17L27 18L30 18L30 19L31 19L31 20L29 20L29 19L28 19L28 20L27 20L27 21L25 21L25 20L26 20L26 19L23 19L23 20L24 20L24 21L25 21L25 23L24 23L24 22L23 22L23 21L22 21L22 20L21 20L21 19L22 19L22 18L21 18L21 17L20 17L20 18L19 18L19 17L18 17L18 19L16 19L16 21L17 21L17 22L18 22L18 23L17 23L17 24L18 24L18 23L21 23L21 21L22 21L22 22L23 22L23 23L24 23L24 24L22 24L22 25L25 25L25 26L22 26L22 27L23 27L23 28L24 28L24 27L25 27L25 28L26 28L26 27L27 27L27 26L26 26L26 25L27 25L27 24L25 24L25 23L27 23L27 21L28 21L28 22L29 22L29 23L28 23L28 24L29 24L29 23L31 23L31 24L30 24L30 25L28 25L28 27L29 27L29 26L30 26L30 27L31 27L31 28L32 28L32 27L31 27L31 26L33 26L33 25L34 25L34 26L35 26L35 23L34 23L34 22L35 22L35 21L33 21L33 20L32 20L32 19L33 19L33 18L32 18L32 17L33 17L33 16L32 16L32 15L31 15L31 18L30 18L30 17L28 17L28 15L25 15L25 14L26 14L26 13L27 13L27 14L28 14L28 13L29 13L29 11L28 11L28 13L27 13L27 12L26 12L26 11L27 11L27 10ZM44 11L44 12L45 12L45 13L46 13L46 12L45 12L45 11ZM30 12L30 14L31 14L31 12ZM32 12L32 13L33 13L33 14L35 14L35 12ZM39 12L39 13L41 13L41 12ZM18 13L18 16L19 16L19 15L20 15L20 14L19 14L19 13ZM1 14L1 15L2 15L2 16L4 16L4 14ZM23 15L23 16L24 16L24 15ZM39 15L39 16L40 16L40 15ZM43 15L43 16L44 16L44 17L45 17L45 16L44 16L44 15ZM7 16L7 17L6 17L6 18L7 18L7 19L8 19L8 18L10 18L10 19L11 19L11 17L9 17L9 16ZM13 16L13 17L15 17L15 18L16 18L16 17L15 17L15 16ZM61 16L61 17L60 17L60 18L62 18L62 16ZM52 17L52 18L53 18L53 17ZM12 18L12 19L13 19L13 20L15 20L15 19L14 19L14 18ZM20 18L20 19L21 19L21 18ZM31 18L31 19L32 19L32 18ZM38 18L38 19L39 19L39 20L38 20L38 21L39 21L39 20L41 20L41 19L40 19L40 18ZM34 19L34 20L35 20L35 19ZM17 20L17 21L18 21L18 22L19 22L19 21L18 21L18 20ZM20 20L20 21L21 21L21 20ZM28 20L28 21L29 21L29 20ZM48 20L48 21L49 21L49 22L50 22L50 21L49 21L49 20ZM52 20L52 22L53 22L53 20ZM62 20L62 21L63 21L63 20ZM30 21L30 22L32 22L32 24L33 24L33 21ZM6 23L6 24L7 24L7 23ZM15 23L15 24L14 24L14 25L15 25L15 24L16 24L16 23ZM19 24L19 25L18 25L18 26L19 26L19 27L18 27L18 28L19 28L19 27L20 27L20 26L21 26L21 25L20 25L20 24ZM44 24L44 25L45 25L45 24ZM30 25L30 26L31 26L31 25ZM39 25L39 26L38 26L38 29L39 29L39 27L40 27L40 28L41 28L41 27L42 27L42 28L43 28L43 29L40 29L40 32L41 32L41 31L42 31L42 30L44 30L44 28L43 28L43 27L42 27L42 26L41 26L41 25ZM25 26L25 27L26 27L26 26ZM46 26L46 27L47 27L47 26ZM57 26L57 27L58 27L58 28L59 28L59 26ZM35 28L35 30L36 30L36 31L39 31L39 30L36 30L36 29L37 29L37 28ZM46 28L46 29L47 29L47 28ZM15 29L15 30L16 30L16 29ZM23 29L23 30L22 30L22 31L23 31L23 30L24 30L24 29ZM25 29L25 31L26 31L26 29ZM29 29L29 30L30 30L30 29ZM2 30L2 31L3 31L3 30ZM9 30L9 31L10 31L10 32L9 32L9 35L10 35L10 33L11 33L11 34L12 34L12 33L13 33L13 32L12 32L12 33L11 33L11 31L12 31L12 30ZM18 30L18 31L20 31L20 30ZM5 31L5 34L8 34L8 31ZM31 31L31 34L34 34L34 31ZM46 31L46 32L47 32L47 31ZM49 31L49 32L50 32L50 31ZM57 31L57 34L60 34L60 31ZM6 32L6 33L7 33L7 32ZM16 32L16 33L19 33L19 32ZM32 32L32 33L33 33L33 32ZM58 32L58 33L59 33L59 32ZM44 33L44 34L45 34L45 33ZM51 33L51 34L50 34L50 35L49 35L49 36L48 36L48 35L47 35L47 34L46 34L46 35L42 35L42 36L43 36L43 37L42 37L42 38L43 38L43 37L44 37L44 38L45 38L45 39L44 39L44 40L43 40L43 41L42 41L42 42L43 42L43 43L42 43L42 44L41 44L41 43L40 43L40 42L38 42L38 41L37 41L37 40L39 40L39 39L40 39L40 40L41 40L41 38L38 38L38 39L37 39L37 40L35 40L35 39L34 39L34 40L35 40L35 42L36 42L36 43L38 43L38 44L35 44L35 43L30 43L30 42L29 42L29 44L30 44L30 45L31 45L31 47L30 47L30 46L29 46L29 45L28 45L28 43L27 43L27 45L28 45L28 46L27 46L27 47L26 47L26 48L27 48L27 49L29 49L29 50L32 50L32 49L33 49L33 46L36 46L36 47L37 47L37 48L35 48L35 47L34 47L34 49L37 49L37 50L36 50L36 51L37 51L37 50L38 50L38 51L39 51L39 52L38 52L38 53L39 53L39 52L42 52L42 54L43 54L43 55L42 55L42 56L43 56L43 57L41 57L41 58L43 58L43 57L44 57L44 58L45 58L45 59L44 59L44 60L46 60L46 61L47 61L47 60L46 60L46 59L47 59L47 58L46 58L46 56L47 56L47 57L49 57L49 58L48 58L48 59L51 59L51 60L50 60L50 61L51 61L51 62L52 62L52 60L54 60L54 58L55 58L55 56L56 56L56 55L54 55L54 56L53 56L53 55L52 55L52 54L56 54L56 53L52 53L52 52L53 52L53 51L54 51L54 52L56 52L56 51L54 51L54 50L56 50L56 49L55 49L55 48L57 48L57 46L55 46L55 44L56 44L56 45L57 45L57 43L54 43L54 44L53 44L53 43L52 43L52 42L55 42L55 40L56 40L56 41L57 41L57 42L58 42L58 41L59 41L59 42L61 42L61 41L59 41L59 39L57 39L57 40L56 40L56 37L54 37L54 34L55 34L55 33L54 33L54 34L53 34L53 33ZM52 34L52 35L50 35L50 36L52 36L52 37L53 37L53 36L52 36L52 35L53 35L53 34ZM0 35L0 36L2 36L2 35ZM24 35L24 36L26 36L26 35ZM46 35L46 36L44 36L44 37L45 37L45 38L47 38L47 39L45 39L45 40L44 40L44 41L46 41L46 42L47 42L47 43L48 43L48 44L49 44L49 43L50 43L50 42L51 42L51 41L54 41L54 40L55 40L55 38L54 38L54 40L52 40L52 39L48 39L48 38L49 38L49 37L48 37L48 36L47 36L47 35ZM55 35L55 36L56 36L56 35ZM62 35L62 36L63 36L63 35ZM46 36L46 37L47 37L47 36ZM58 36L58 37L59 37L59 36ZM4 37L4 38L5 38L5 39L4 39L4 40L5 40L5 42L7 42L7 43L5 43L5 44L4 44L4 43L3 43L3 44L4 44L4 46L3 46L3 47L4 47L4 46L5 46L5 48L7 48L7 47L8 47L8 49L9 49L9 47L8 47L8 46L7 46L7 45L6 45L6 44L9 44L9 45L11 45L11 46L12 46L12 45L11 45L11 44L10 44L10 43L9 43L9 42L8 42L8 41L9 41L9 40L10 40L10 39L8 39L8 41L6 41L6 40L7 40L7 39L6 39L6 38L5 38L5 37ZM50 37L50 38L51 38L51 37ZM29 38L29 39L30 39L30 38ZM12 39L12 40L11 40L11 41L12 41L12 42L14 42L14 41L12 41L12 40L13 40L13 39ZM60 39L60 40L61 40L61 39ZM1 40L1 41L2 41L2 42L4 42L4 41L2 41L2 40ZM27 40L27 41L26 41L26 42L27 42L27 41L30 41L30 40ZM47 40L47 42L50 42L50 41L51 41L51 40ZM57 40L57 41L58 41L58 40ZM36 41L36 42L37 42L37 41ZM44 42L44 43L43 43L43 44L42 44L42 45L43 45L43 44L44 44L44 46L40 46L40 45L41 45L41 44L38 44L38 45L37 45L37 47L38 47L38 48L40 48L40 49L41 49L41 48L42 48L42 47L43 47L43 49L46 49L46 50L47 50L47 51L45 51L45 52L44 52L44 50L40 50L40 51L42 51L42 52L43 52L43 53L44 53L44 55L45 55L45 56L44 56L44 57L45 57L45 56L46 56L46 54L48 54L48 52L49 52L49 53L50 53L50 54L51 54L51 53L50 53L50 52L52 52L52 50L54 50L54 49L53 49L53 48L54 48L54 47L55 47L55 46L52 46L52 47L53 47L53 48L52 48L52 50L51 50L51 49L50 49L50 48L51 48L51 47L48 47L48 46L49 46L49 45L47 45L47 44L44 44L44 43L45 43L45 42ZM51 43L51 44L52 44L52 45L53 45L53 44L52 44L52 43ZM58 43L58 44L59 44L59 43ZM31 44L31 45L32 45L32 46L33 46L33 45L32 45L32 44ZM34 44L34 45L35 45L35 44ZM13 45L13 47L10 47L10 48L13 48L13 49L12 49L12 50L13 50L13 49L14 49L14 51L13 51L13 53L15 53L15 54L14 54L14 55L15 55L15 56L20 56L20 55L18 55L18 53L20 53L20 52L21 52L21 53L22 53L22 52L21 52L21 51L22 51L22 49L23 49L23 48L22 48L22 49L20 49L20 48L19 48L19 49L18 49L18 47L17 47L17 49L16 49L16 50L18 50L18 51L17 51L17 52L18 52L18 53L15 53L15 52L14 52L14 51L15 51L15 49L14 49L14 48L16 48L16 47L15 47L15 46L16 46L16 45L15 45L15 46L14 46L14 45ZM50 45L50 46L51 46L51 45ZM6 46L6 47L7 47L7 46ZM19 46L19 47L20 47L20 46ZM38 46L38 47L39 47L39 46ZM44 46L44 48L45 48L45 47L46 47L46 48L47 48L47 49L49 49L49 48L47 48L47 46ZM13 47L13 48L14 48L14 47ZM27 47L27 48L28 48L28 47ZM40 47L40 48L41 48L41 47ZM58 47L58 48L60 48L60 47ZM0 48L0 51L1 51L1 50L2 50L2 48ZM30 48L30 49L31 49L31 48ZM38 49L38 50L39 50L39 49ZM6 50L6 51L7 51L7 50ZM9 50L9 51L10 51L10 50ZM48 50L48 51L51 51L51 50ZM60 50L60 51L61 51L61 50ZM25 51L25 52L24 52L24 53L25 53L25 52L26 52L26 51ZM0 52L0 53L1 53L1 52ZM9 52L9 53L10 53L10 52ZM6 53L6 54L7 54L7 53ZM31 53L31 54L30 54L30 55L31 55L31 56L33 56L33 55L32 55L32 54L33 54L33 53ZM16 54L16 55L17 55L17 54ZM12 55L12 58L10 58L10 57L9 57L9 58L10 58L10 59L11 59L11 60L12 60L12 58L13 58L13 55ZM28 55L28 56L29 56L29 55ZM47 55L47 56L49 56L49 55ZM50 55L50 58L53 58L53 56L52 56L52 57L51 57L51 55ZM26 56L26 57L27 57L27 58L26 58L26 59L29 59L29 60L25 60L25 63L28 63L28 64L31 64L31 63L32 63L32 64L35 64L35 63L34 63L34 61L33 61L33 62L32 62L32 61L30 61L30 62L29 62L29 60L30 60L30 59L29 59L29 57L27 57L27 56ZM15 57L15 58L14 58L14 59L16 59L16 58L17 58L17 57ZM18 57L18 58L19 58L19 57ZM31 57L31 60L34 60L34 57ZM57 57L57 60L60 60L60 57ZM22 58L22 59L23 59L23 58ZM24 58L24 59L25 59L25 58ZM32 58L32 59L33 59L33 58ZM36 58L36 59L37 59L37 60L39 60L39 58L38 58L38 59L37 59L37 58ZM58 58L58 59L59 59L59 58ZM61 60L61 61L60 61L60 62L61 62L61 61L62 61L62 60ZM23 61L23 62L24 62L24 61ZM26 61L26 62L28 62L28 61ZM35 61L35 62L36 62L36 61ZM44 61L44 62L45 62L45 61ZM30 62L30 63L31 63L31 62ZM40 62L40 63L41 63L41 62ZM18 64L18 65L22 65L22 64ZM48 64L48 65L49 65L49 64ZM0 0L0 7L7 7L7 0ZM1 1L1 6L6 6L6 1ZM2 2L2 5L5 5L5 2ZM58 0L58 7L65 7L65 0ZM59 1L59 6L64 6L64 1ZM60 2L60 5L63 5L63 2ZM0 58L0 65L7 65L7 58ZM1 59L1 64L6 64L6 59ZM2 60L2 63L5 63L5 60Z" fill="#000000"/></g></g></svg>
