<?xml version="1.0" encoding="UTF-8"?>
<svg xmlns="http://www.w3.org/2000/svg" version="1.1" width="300" height="300" viewBox="0 0 300 300"><rect x="0" y="0" width="300" height="300" fill="#ffffff"/><g transform="scale(4.615)"><g transform="translate(0,0)"><path fill-rule="evenodd" d="M11 0L11 2L10 2L10 3L8 3L8 5L9 5L9 6L8 6L8 7L9 7L9 8L10 8L10 9L9 9L9 10L8 10L8 11L7 11L7 10L5 10L5 9L8 9L8 8L5 8L5 9L4 9L4 10L2 10L2 8L0 8L0 9L1 9L1 10L0 10L0 11L1 11L1 12L2 12L2 11L3 11L3 13L2 13L2 16L3 16L3 17L2 17L2 18L4 18L4 20L2 20L2 19L1 19L1 18L0 18L0 20L1 20L1 21L0 21L0 22L1 22L1 21L3 21L3 23L2 23L2 24L3 24L3 25L1 25L1 26L0 26L0 27L3 27L3 25L7 25L7 26L5 26L5 28L4 28L4 29L5 29L5 30L2 30L2 29L3 29L3 28L0 28L0 29L1 29L1 30L0 30L0 31L4 31L4 32L3 32L3 33L4 33L4 34L0 34L0 38L1 38L1 39L0 39L0 40L1 40L1 41L3 41L3 39L4 39L4 40L5 40L5 41L8 41L8 40L5 40L5 38L6 38L6 39L8 39L8 37L7 37L7 36L6 36L6 35L9 35L9 36L10 36L10 35L9 35L9 32L11 32L11 33L10 33L10 34L11 34L11 33L13 33L13 34L14 34L14 33L15 33L15 35L14 35L14 36L13 36L13 35L12 35L12 36L11 36L11 39L10 39L10 40L9 40L9 42L8 42L8 44L6 44L6 45L5 45L5 44L4 44L4 43L3 43L3 42L1 42L1 43L2 43L2 45L0 45L0 47L4 47L4 48L5 48L5 47L7 47L7 48L6 48L6 49L4 49L4 50L3 50L3 48L2 48L2 49L1 49L1 48L0 48L0 50L1 50L1 52L0 52L0 53L1 53L1 52L2 52L2 53L3 53L3 52L4 52L4 54L2 54L2 55L3 55L3 56L1 56L1 55L0 55L0 56L1 56L1 57L3 57L3 56L4 56L4 57L5 57L5 56L4 56L4 54L5 54L5 55L7 55L7 56L6 56L6 57L8 57L8 60L9 60L9 58L10 58L10 57L11 57L11 58L12 58L12 56L13 56L13 54L12 54L12 51L13 51L13 53L14 53L14 57L13 57L13 58L14 58L14 59L15 59L15 58L16 58L16 59L17 59L17 58L18 58L18 57L19 57L19 59L20 59L20 58L21 58L21 59L22 59L22 61L21 61L21 60L15 60L15 61L13 61L13 59L10 59L10 62L9 62L9 63L8 63L8 65L9 65L9 63L10 63L10 62L11 62L11 60L12 60L12 61L13 61L13 63L11 63L11 64L12 64L12 65L15 65L15 64L16 64L16 65L17 65L17 64L16 64L16 63L17 63L17 62L18 62L18 63L19 63L19 64L18 64L18 65L22 65L22 64L24 64L24 63L22 63L22 62L24 62L24 61L25 61L25 60L26 60L26 62L28 62L28 60L29 60L29 59L28 59L28 60L27 60L27 59L24 59L24 58L26 58L26 56L27 56L27 58L30 58L30 61L29 61L29 62L30 62L30 61L32 61L32 62L33 62L33 63L31 63L31 64L29 64L29 63L28 63L28 64L27 64L27 65L35 65L35 64L36 64L36 65L37 65L37 64L36 64L36 63L35 63L35 62L38 62L38 63L39 63L39 64L38 64L38 65L39 65L39 64L40 64L40 63L39 63L39 62L41 62L41 60L42 60L42 62L44 62L44 63L42 63L42 64L43 64L43 65L44 65L44 63L45 63L45 62L44 62L44 61L46 61L46 60L45 60L45 59L44 59L44 58L45 58L45 57L46 57L46 59L47 59L47 60L48 60L48 61L50 61L50 60L51 60L51 61L53 61L53 63L54 63L54 62L55 62L55 64L56 64L56 62L57 62L57 61L58 61L58 62L59 62L59 63L57 63L57 64L58 64L58 65L61 65L61 63L62 63L62 65L63 65L63 63L64 63L64 64L65 64L65 63L64 63L64 62L63 62L63 61L65 61L65 59L64 59L64 60L63 60L63 61L62 61L62 60L61 60L61 56L60 56L60 55L63 55L63 54L64 54L64 56L62 56L62 57L64 57L64 56L65 56L65 53L63 53L63 52L65 52L65 51L63 51L63 50L65 50L65 48L64 48L64 47L63 47L63 46L65 46L65 44L64 44L64 43L65 43L65 41L64 41L64 43L63 43L63 44L61 44L61 43L62 43L62 42L61 42L61 41L63 41L63 40L64 40L64 39L63 39L63 37L64 37L64 38L65 38L65 35L63 35L63 33L65 33L65 32L64 32L64 31L65 31L65 30L64 30L64 28L65 28L65 27L62 27L62 29L61 29L61 28L59 28L59 29L61 29L61 30L56 30L56 32L54 32L54 31L52 31L52 30L55 30L55 28L54 28L54 27L53 27L53 26L56 26L56 29L58 29L58 27L60 27L60 26L62 26L62 25L61 25L61 24L59 24L59 22L61 22L61 20L59 20L59 21L57 21L57 20L56 20L56 22L58 22L58 24L59 24L59 26L56 26L56 24L57 24L57 23L55 23L55 25L53 25L53 24L54 24L54 23L52 23L52 22L51 22L51 21L50 21L50 20L48 20L48 19L50 19L50 17L52 17L52 16L51 16L51 15L52 15L52 14L53 14L53 12L54 12L54 14L56 14L56 17L55 17L55 15L54 15L54 16L53 16L53 19L52 19L52 20L53 20L53 22L55 22L55 21L54 21L54 20L55 20L55 19L56 19L56 17L57 17L57 18L58 18L58 17L59 17L59 18L60 18L60 19L61 19L61 18L60 18L60 17L61 17L61 16L62 16L62 18L64 18L64 19L65 19L65 16L64 16L64 15L63 15L63 14L65 14L65 13L63 13L63 14L62 14L62 15L61 15L61 13L62 13L62 11L64 11L64 10L63 10L63 9L62 9L62 8L60 8L60 10L59 10L59 9L57 9L57 8L56 8L56 9L54 9L54 8L55 8L55 5L54 5L54 4L56 4L56 5L57 5L57 4L56 4L56 3L57 3L57 1L56 1L56 0L55 0L55 1L56 1L56 3L55 3L55 2L54 2L54 3L53 3L53 2L51 2L51 1L52 1L52 0L50 0L50 1L48 1L48 2L49 2L49 3L47 3L47 5L45 5L45 3L46 3L46 2L47 2L47 0L46 0L46 1L45 1L45 2L44 2L44 3L43 3L43 4L42 4L42 5L41 5L41 2L42 2L42 1L44 1L44 0L42 0L42 1L41 1L41 0L40 0L40 2L39 2L39 0L38 0L38 2L39 2L39 4L40 4L40 5L41 5L41 6L40 6L40 8L41 8L41 9L38 9L38 8L35 8L35 5L37 5L37 6L36 6L36 7L37 7L37 6L38 6L38 7L39 7L39 5L37 5L37 3L36 3L36 4L34 4L34 3L35 3L35 1L36 1L36 2L37 2L37 1L36 1L36 0L34 0L34 1L33 1L33 2L32 2L32 4L30 4L30 7L29 7L29 6L28 6L28 7L27 7L27 5L28 5L28 4L27 4L27 3L26 3L26 2L28 2L28 3L29 3L29 2L30 2L30 1L32 1L32 0L30 0L30 1L29 1L29 0L27 0L27 1L26 1L26 0L24 0L24 1L22 1L22 0L20 0L20 1L19 1L19 3L20 3L20 2L21 2L21 5L22 5L22 3L23 3L23 5L26 5L26 8L28 8L28 10L27 10L27 11L26 11L26 12L25 12L25 10L26 10L26 9L24 9L24 11L23 11L23 10L22 10L22 8L23 8L23 6L22 6L22 8L21 8L21 6L20 6L20 4L18 4L18 3L16 3L16 4L15 4L15 3L14 3L14 5L12 5L12 9L14 9L14 8L15 8L15 10L17 10L17 8L18 8L18 9L19 9L19 10L18 10L18 11L15 11L15 13L14 13L14 15L15 15L15 16L13 16L13 15L9 15L9 13L10 13L10 12L11 12L11 14L12 14L12 13L13 13L13 11L14 11L14 10L13 10L13 11L12 11L12 10L10 10L10 9L11 9L11 6L10 6L10 5L9 5L9 4L10 4L10 3L12 3L12 4L13 4L13 2L12 2L12 1L14 1L14 2L15 2L15 0ZM17 0L17 1L16 1L16 2L18 2L18 0ZM28 1L28 2L29 2L29 1ZM23 2L23 3L24 3L24 4L25 4L25 3L24 3L24 2ZM33 2L33 3L34 3L34 2ZM50 2L50 5L49 5L49 4L48 4L48 5L49 5L49 7L48 7L48 6L47 6L47 7L46 7L46 6L45 6L45 8L44 8L44 6L43 6L43 5L42 5L42 6L41 6L41 7L42 7L42 9L43 9L43 8L44 8L44 11L45 11L45 9L47 9L47 8L49 8L49 7L50 7L50 5L51 5L51 7L52 7L52 5L53 5L53 4L51 4L51 2ZM17 4L17 5L16 5L16 6L15 6L15 5L14 5L14 6L13 6L13 7L14 7L14 6L15 6L15 7L16 7L16 8L17 8L17 7L18 7L18 6L19 6L19 8L20 8L20 6L19 6L19 5L18 5L18 4ZM26 4L26 5L27 5L27 4ZM17 5L17 6L16 6L16 7L17 7L17 6L18 6L18 5ZM31 5L31 8L34 8L34 5ZM9 6L9 7L10 7L10 6ZM24 6L24 8L25 8L25 6ZM32 6L32 7L33 7L33 6ZM42 6L42 7L43 7L43 6ZM53 6L53 8L50 8L50 9L49 9L49 10L47 10L47 12L45 12L45 13L46 13L46 14L44 14L44 13L43 13L43 10L42 10L42 13L43 13L43 14L41 14L41 13L38 13L38 12L40 12L40 11L41 11L41 10L39 10L39 11L38 11L38 10L37 10L37 9L36 9L36 10L35 10L35 11L34 11L34 12L33 12L33 13L31 13L31 12L32 12L32 10L33 10L33 9L31 9L31 10L30 10L30 9L29 9L29 11L27 11L27 13L28 13L28 14L29 14L29 15L31 15L31 14L32 14L32 16L29 16L29 17L28 17L28 15L27 15L27 16L26 16L26 15L25 15L25 16L24 16L24 15L23 15L23 16L22 16L22 13L20 13L20 12L21 12L21 11L22 11L22 12L23 12L23 14L24 14L24 12L23 12L23 11L22 11L22 10L21 10L21 11L20 11L20 10L19 10L19 13L18 13L18 12L17 12L17 13L15 13L15 15L17 15L17 14L18 14L18 16L20 16L20 15L21 15L21 16L22 16L22 17L20 17L20 19L19 19L19 21L20 21L20 20L21 20L21 18L22 18L22 17L25 17L25 16L26 16L26 17L28 17L28 19L27 19L27 18L25 18L25 19L24 19L24 18L23 18L23 19L22 19L22 21L23 21L23 22L24 22L24 21L25 21L25 23L27 23L27 24L28 24L28 25L27 25L27 26L28 26L28 28L29 28L29 29L27 29L27 27L26 27L26 25L25 25L25 24L24 24L24 25L25 25L25 26L23 26L23 28L22 28L22 25L21 25L21 24L22 24L22 23L20 23L20 22L18 22L18 23L17 23L17 22L16 22L16 21L18 21L18 20L17 20L17 18L16 18L16 17L17 17L17 16L16 16L16 17L15 17L15 18L12 18L12 19L11 19L11 20L12 20L12 22L10 22L10 18L9 18L9 19L6 19L6 20L7 20L7 21L5 21L5 20L4 20L4 24L7 24L7 25L9 25L9 24L10 24L10 23L11 23L11 25L10 25L10 28L11 28L11 27L12 27L12 29L11 29L11 30L10 30L10 29L9 29L9 28L8 28L8 27L9 27L9 26L8 26L8 27L6 27L6 28L5 28L5 29L6 29L6 30L8 30L8 29L9 29L9 31L13 31L13 33L14 33L14 32L15 32L15 31L14 31L14 30L15 30L15 28L14 28L14 27L16 27L16 29L17 29L17 30L16 30L16 31L17 31L17 32L19 32L19 33L17 33L17 34L18 34L18 35L15 35L15 36L16 36L16 37L15 37L15 38L16 38L16 40L15 40L15 41L16 41L16 42L15 42L15 43L13 43L13 42L12 42L12 41L14 41L14 37L13 37L13 36L12 36L12 38L13 38L13 39L11 39L11 40L10 40L10 41L11 41L11 42L10 42L10 43L9 43L9 44L10 44L10 43L11 43L11 45L13 45L13 48L12 48L12 49L10 49L10 50L7 50L7 49L6 49L6 50L7 50L7 51L6 51L6 52L5 52L5 50L4 50L4 52L5 52L5 53L6 53L6 54L7 54L7 53L8 53L8 54L9 54L9 55L8 55L8 57L10 57L10 56L9 56L9 55L12 55L12 54L11 54L11 50L12 50L12 49L13 49L13 48L14 48L14 49L15 49L15 50L17 50L17 51L14 51L14 53L15 53L15 55L16 55L16 56L21 56L21 58L22 58L22 59L23 59L23 57L25 57L25 56L26 56L26 55L25 55L25 56L24 56L24 54L23 54L23 53L26 53L26 54L27 54L27 55L28 55L28 56L29 56L29 57L30 57L30 55L31 55L31 56L34 56L34 54L33 54L33 53L35 53L35 55L36 55L36 56L37 56L37 55L39 55L39 56L38 56L38 57L37 57L37 58L36 58L36 57L35 57L35 58L36 58L36 59L35 59L35 61L33 61L33 62L35 62L35 61L36 61L36 60L37 60L37 61L38 61L38 62L39 62L39 61L40 61L40 59L38 59L38 57L39 57L39 58L42 58L42 60L43 60L43 61L44 61L44 59L43 59L43 58L42 58L42 57L45 57L45 56L46 56L46 55L47 55L47 56L49 56L49 57L48 57L48 58L47 58L47 59L48 59L48 60L50 60L50 59L48 59L48 58L49 58L49 57L50 57L50 56L51 56L51 57L54 57L54 55L55 55L55 54L54 54L54 55L53 55L53 56L52 56L52 55L51 55L51 53L56 53L56 56L55 56L55 58L52 58L52 59L51 59L51 60L52 60L52 59L53 59L53 60L54 60L54 61L55 61L55 62L56 62L56 59L55 59L55 58L56 58L56 56L58 56L58 55L57 55L57 54L60 54L60 53L62 53L62 54L63 54L63 53L62 53L62 52L60 52L60 51L61 51L61 50L63 50L63 47L62 47L62 49L61 49L61 48L60 48L60 47L61 47L61 46L59 46L59 44L60 44L60 45L61 45L61 44L60 44L60 43L61 43L61 42L60 42L60 43L59 43L59 44L58 44L58 42L59 42L59 41L61 41L61 40L62 40L62 37L63 37L63 35L62 35L62 32L63 32L63 31L64 31L64 30L61 30L61 31L62 31L62 32L61 32L61 35L62 35L62 36L60 36L60 35L59 35L59 37L61 37L61 38L58 38L58 37L56 37L56 39L57 39L57 41L56 41L56 40L55 40L55 38L54 38L54 40L55 40L55 42L52 42L52 41L53 41L53 37L55 37L55 35L56 35L56 36L58 36L58 35L56 35L56 33L55 33L55 34L54 34L54 32L52 32L52 31L51 31L51 30L52 30L52 29L54 29L54 28L53 28L53 27L50 27L50 28L49 28L49 27L48 27L48 26L49 26L49 25L48 25L48 24L49 24L49 23L50 23L50 22L49 22L49 21L47 21L47 25L45 25L45 26L44 26L44 24L42 24L42 23L44 23L44 22L45 22L45 21L46 21L46 20L47 20L47 18L49 18L49 17L47 17L47 16L46 16L46 14L47 14L47 15L48 15L48 16L49 16L49 15L50 15L50 14L52 14L52 12L51 12L51 11L50 11L50 9L51 9L51 10L52 10L52 11L54 11L54 12L55 12L55 13L56 13L56 14L57 14L57 13L58 13L58 14L59 14L59 13L60 13L60 12L61 12L61 11L62 11L62 9L61 9L61 10L60 10L60 12L59 12L59 11L58 11L58 10L56 10L56 11L55 11L55 10L53 10L53 8L54 8L54 6ZM56 6L56 7L57 7L57 6ZM28 7L28 8L29 8L29 7ZM9 10L9 12L10 12L10 10ZM36 10L36 11L37 11L37 12L36 12L36 14L34 14L34 13L35 13L35 12L34 12L34 13L33 13L33 14L34 14L34 15L33 15L33 17L32 17L32 18L31 18L31 17L30 17L30 18L31 18L31 19L29 19L29 20L27 20L27 21L26 21L26 22L27 22L27 23L29 23L29 22L32 22L32 23L30 23L30 24L29 24L29 25L30 25L30 24L31 24L31 25L32 25L32 26L33 26L33 27L34 27L34 28L33 28L33 29L32 29L32 28L31 28L31 27L30 27L30 28L31 28L31 29L29 29L29 30L27 30L27 29L26 29L26 30L25 30L25 32L27 32L27 33L28 33L28 34L25 34L25 33L23 33L23 34L22 34L22 32L24 32L24 29L25 29L25 27L24 27L24 29L19 29L19 28L21 28L21 27L20 27L20 26L19 26L19 27L18 27L18 25L20 25L20 24L19 24L19 23L18 23L18 25L17 25L17 27L18 27L18 29L19 29L19 30L17 30L17 31L19 31L19 32L20 32L20 34L22 34L22 36L23 36L23 39L24 39L24 38L25 38L25 39L26 39L26 40L27 40L27 41L26 41L26 42L25 42L25 41L24 41L24 40L23 40L23 41L21 41L21 39L22 39L22 38L21 38L21 39L20 39L20 37L18 37L18 38L19 38L19 40L18 40L18 39L17 39L17 40L16 40L16 41L17 41L17 40L18 40L18 41L19 41L19 42L16 42L16 43L15 43L15 44L13 44L13 43L12 43L12 44L13 44L13 45L15 45L15 44L16 44L16 43L20 43L20 41L21 41L21 45L20 45L20 44L18 44L18 45L16 45L16 46L17 46L17 47L18 47L18 48L17 48L17 49L20 49L20 48L19 48L19 47L20 47L20 46L21 46L21 47L22 47L22 48L21 48L21 51L20 51L20 53L19 53L19 50L18 50L18 51L17 51L17 52L15 52L15 53L17 53L17 55L19 55L19 54L20 54L20 53L21 53L21 55L22 55L22 56L23 56L23 54L22 54L22 52L27 52L27 54L28 54L28 53L30 53L30 54L32 54L32 55L33 55L33 54L32 54L32 53L33 53L33 52L32 52L32 51L33 51L33 50L34 50L34 48L35 48L35 50L36 50L36 51L38 51L38 52L36 52L36 54L38 54L38 53L39 53L39 52L40 52L40 50L41 50L41 47L42 47L42 46L45 46L45 47L44 47L44 50L46 50L46 52L45 52L45 53L44 53L44 54L43 54L43 53L41 53L41 54L43 54L43 55L42 55L42 56L43 56L43 55L44 55L44 56L45 56L45 55L46 55L46 53L47 53L47 50L46 50L46 49L49 49L49 50L48 50L48 51L49 51L49 52L48 52L48 54L47 54L47 55L48 55L48 54L49 54L49 55L50 55L50 54L49 54L49 52L51 52L51 51L52 51L52 49L54 49L54 50L53 50L53 51L54 51L54 52L58 52L58 50L61 50L61 49L59 49L59 47L54 47L54 48L53 48L53 47L52 47L52 46L51 46L51 45L52 45L52 44L53 44L53 45L54 45L54 46L55 46L55 45L54 45L54 44L53 44L53 43L51 43L51 44L50 44L50 46L49 46L49 44L48 44L48 45L46 45L46 43L44 43L44 44L43 44L43 43L42 43L42 42L43 42L43 39L41 39L41 37L42 37L42 38L43 38L43 36L44 36L44 38L46 38L46 40L45 40L45 41L47 41L47 42L48 42L48 43L50 43L50 42L49 42L49 41L51 41L51 40L52 40L52 39L51 39L51 38L52 38L52 37L53 37L53 36L54 36L54 35L52 35L52 34L53 34L53 33L52 33L52 32L51 32L51 31L50 31L50 30L49 30L49 28L48 28L48 27L47 27L47 26L45 26L45 27L46 27L46 28L45 28L45 31L44 31L44 32L42 32L42 30L43 30L43 27L41 27L41 29L40 29L40 30L39 30L39 31L38 31L38 29L39 29L39 27L40 27L40 26L43 26L43 25L42 25L42 24L41 24L41 23L40 23L40 22L39 22L39 20L41 20L41 19L42 19L42 20L43 20L43 21L42 21L42 22L43 22L43 21L44 21L44 20L45 20L45 19L44 19L44 20L43 20L43 19L42 19L42 18L43 18L43 16L42 16L42 15L41 15L41 17L40 17L40 18L39 18L39 19L38 19L38 16L39 16L39 14L38 14L38 13L37 13L37 12L38 12L38 11L37 11L37 10ZM5 11L5 12L7 12L7 11ZM30 11L30 12L31 12L31 11ZM56 11L56 12L57 12L57 11ZM47 12L47 14L48 14L48 13L49 13L49 14L50 14L50 13L51 13L51 12L50 12L50 13L49 13L49 12ZM58 12L58 13L59 13L59 12ZM3 13L3 16L4 16L4 17L5 17L5 18L8 18L8 17L9 17L9 15L8 15L8 16L7 16L7 15L6 15L6 16L7 16L7 17L5 17L5 16L4 16L4 13ZM6 13L6 14L7 14L7 13ZM30 13L30 14L31 14L31 13ZM0 14L0 15L1 15L1 14ZM19 14L19 15L20 15L20 14ZM34 15L34 17L33 17L33 18L34 18L34 20L32 20L32 19L31 19L31 20L29 20L29 21L32 21L32 22L33 22L33 21L34 21L34 20L35 20L35 23L36 23L36 24L35 24L35 25L34 25L34 24L33 24L33 26L35 26L35 27L36 27L36 28L37 28L37 29L38 29L38 26L40 26L40 23L39 23L39 24L38 24L38 25L36 25L36 24L37 24L37 23L38 23L38 19L37 19L37 18L36 18L36 16L38 16L38 15ZM58 15L58 16L57 16L57 17L58 17L58 16L61 16L61 15ZM0 16L0 17L1 17L1 16ZM12 16L12 17L13 17L13 16ZM18 17L18 18L19 18L19 17ZM41 17L41 18L42 18L42 17ZM45 17L45 18L46 18L46 17ZM54 18L54 19L55 19L55 18ZM12 19L12 20L13 20L13 23L12 23L12 24L13 24L13 26L12 26L12 27L13 27L13 26L14 26L14 25L15 25L15 26L16 26L16 25L15 25L15 24L14 24L14 23L15 23L15 22L14 22L14 20L15 20L15 19L14 19L14 20L13 20L13 19ZM25 19L25 20L26 20L26 19ZM35 19L35 20L36 20L36 21L37 21L37 20L36 20L36 19ZM8 20L8 21L7 21L7 22L6 22L6 23L10 23L10 22L9 22L9 20ZM62 20L62 23L63 23L63 24L65 24L65 23L63 23L63 22L64 22L64 21L65 21L65 20ZM48 22L48 23L49 23L49 22ZM51 23L51 24L52 24L52 23ZM50 25L50 26L51 26L51 25ZM52 25L52 26L53 26L53 25ZM64 25L64 26L65 26L65 25ZM36 26L36 27L37 27L37 26ZM6 28L6 29L8 29L8 28ZM51 28L51 29L52 29L52 28ZM12 29L12 30L13 30L13 29ZM31 29L31 30L32 30L32 29ZM34 29L34 30L36 30L36 29ZM41 29L41 30L42 30L42 29ZM46 29L46 32L44 32L44 33L47 33L47 35L46 35L46 36L45 36L45 37L46 37L46 38L48 38L48 40L51 40L51 39L49 39L49 38L48 38L48 37L46 37L46 36L49 36L49 37L50 37L50 38L51 38L51 37L52 37L52 36L51 36L51 37L50 37L50 35L49 35L49 33L48 33L48 32L49 32L49 30L48 30L48 29ZM20 30L20 31L21 31L21 32L22 32L22 31L21 31L21 30ZM26 30L26 31L27 31L27 30ZM5 31L5 34L8 34L8 31ZM28 31L28 32L29 32L29 33L30 33L30 32L29 32L29 31ZM31 31L31 34L34 34L34 31ZM35 31L35 35L36 35L36 36L38 36L38 38L39 38L39 36L40 36L40 35L41 35L41 34L39 34L39 35L38 35L38 33L42 33L42 32L37 32L37 31ZM57 31L57 34L60 34L60 31ZM0 32L0 33L2 33L2 32ZM6 32L6 33L7 33L7 32ZM32 32L32 33L33 33L33 32ZM36 32L36 33L37 33L37 32ZM58 32L58 33L59 33L59 32ZM23 34L23 36L24 36L24 37L25 37L25 38L27 38L27 39L28 39L28 40L29 40L29 41L28 41L28 42L27 42L27 44L26 44L26 43L25 43L25 42L22 42L22 43L24 43L24 44L26 44L26 45L25 45L25 48L24 48L24 47L23 47L23 49L26 49L26 47L27 47L27 49L28 49L28 50L25 50L25 51L27 51L27 52L28 52L28 51L29 51L29 52L30 52L30 51L31 51L31 50L30 50L30 49L32 49L32 50L33 50L33 47L35 47L35 44L34 44L34 45L33 45L33 46L32 46L32 44L31 44L31 46L30 46L30 45L29 45L29 46L30 46L30 47L32 47L32 48L29 48L29 47L28 47L28 46L27 46L27 45L28 45L28 44L30 44L30 41L31 41L31 39L32 39L32 40L33 40L33 41L32 41L32 42L33 42L33 43L34 43L34 42L33 42L33 41L34 41L34 40L35 40L35 41L36 41L36 44L38 44L38 45L40 45L40 46L39 46L39 47L38 47L38 46L36 46L36 48L38 48L38 49L37 49L37 50L39 50L39 49L40 49L40 46L41 46L41 45L43 45L43 44L42 44L42 43L41 43L41 44L38 44L38 43L39 43L39 42L40 42L40 41L41 41L41 42L42 42L42 40L41 40L41 39L39 39L39 41L38 41L38 39L36 39L36 38L37 38L37 37L35 37L35 38L34 38L34 37L33 37L33 36L34 36L34 35L31 35L31 36L30 36L30 35L27 35L27 36L26 36L26 35L25 35L25 34ZM36 34L36 35L37 35L37 34ZM42 34L42 36L43 36L43 34ZM44 34L44 35L45 35L45 34ZM1 35L1 37L3 37L3 38L4 38L4 36L2 36L2 35ZM19 35L19 36L21 36L21 35ZM24 35L24 36L25 36L25 35ZM5 36L5 37L6 37L6 38L7 38L7 37L6 37L6 36ZM29 36L29 37L30 37L30 36ZM31 36L31 37L32 37L32 36ZM9 37L9 38L10 38L10 37ZM27 37L27 38L28 38L28 39L29 39L29 40L30 40L30 38L28 38L28 37ZM1 39L1 40L2 40L2 39ZM33 39L33 40L34 40L34 39ZM60 39L60 40L61 40L61 39ZM19 40L19 41L20 41L20 40ZM36 40L36 41L37 41L37 42L38 42L38 41L37 41L37 40ZM57 41L57 42L58 42L58 41ZM6 42L6 43L7 43L7 42ZM28 42L28 43L29 43L29 42ZM55 42L55 44L56 44L56 45L58 45L58 44L57 44L57 43L56 43L56 42ZM22 44L22 45L21 45L21 46L24 46L24 45L23 45L23 44ZM44 44L44 45L45 45L45 46L46 46L46 45L45 45L45 44ZM2 45L2 46L3 46L3 45ZM4 45L4 47L5 47L5 45ZM6 45L6 46L7 46L7 47L8 47L8 48L9 48L9 47L8 47L8 46L9 46L9 45L8 45L8 46L7 46L7 45ZM18 45L18 46L20 46L20 45ZM62 45L62 46L63 46L63 45ZM10 46L10 48L11 48L11 46ZM14 46L14 48L15 48L15 49L16 49L16 48L15 48L15 46ZM48 46L48 48L50 48L50 50L49 50L49 51L50 51L50 50L51 50L51 47L49 47L49 46ZM45 47L45 49L46 49L46 47ZM54 48L54 49L55 49L55 48ZM42 49L42 50L43 50L43 49ZM56 49L56 50L54 50L54 51L56 51L56 50L58 50L58 49ZM2 50L2 52L3 52L3 50ZM22 50L22 51L23 51L23 50ZM29 50L29 51L30 51L30 50ZM8 51L8 52L9 52L9 51ZM42 51L42 52L43 52L43 51ZM6 52L6 53L7 53L7 52ZM17 52L17 53L18 53L18 52ZM31 52L31 53L32 53L32 52ZM9 53L9 54L10 54L10 53ZM44 54L44 55L45 55L45 54ZM40 55L40 56L39 56L39 57L40 57L40 56L41 56L41 55ZM14 57L14 58L15 58L15 57ZM31 57L31 60L34 60L34 57ZM57 57L57 60L60 60L60 57ZM32 58L32 59L33 59L33 58ZM58 58L58 59L59 59L59 58ZM62 58L62 59L63 59L63 58ZM54 59L54 60L55 60L55 59ZM38 60L38 61L39 61L39 60ZM18 61L18 62L19 62L19 63L20 63L20 64L21 64L21 63L20 63L20 62L19 62L19 61ZM60 61L60 62L61 62L61 61ZM14 62L14 64L15 64L15 62ZM46 62L46 64L45 64L45 65L47 65L47 62ZM48 62L48 63L49 63L49 64L48 64L48 65L49 65L49 64L51 64L51 65L52 65L52 63L51 63L51 62ZM62 62L62 63L63 63L63 62ZM25 63L25 65L26 65L26 63ZM0 0L0 7L7 7L7 0ZM1 1L1 6L6 6L6 1ZM2 2L2 5L5 5L5 2ZM58 0L58 7L65 7L65 0ZM59 1L59 6L64 6L64 1ZM60 2L60 5L63 5L63 2ZM0 58L0 65L7 65L7 58ZM1 59L1 64L6 64L6 59ZM2 60L2 63L5 63L5 60Z" fill="#000000"/></g></g></svg>
