<?xml version="1.0" encoding="UTF-8"?>
<svg xmlns="http://www.w3.org/2000/svg" version="1.1" width="300" height="300" viewBox="0 0 300 300"><rect x="0" y="0" width="300" height="300" fill="#ffffff"/><g transform="scale(4.615)"><g transform="translate(0,0)"><path fill-rule="evenodd" d="M9 0L9 1L8 1L8 2L9 2L9 3L8 3L8 4L9 4L9 5L8 5L8 7L9 7L9 6L10 6L10 8L6 8L6 9L5 9L5 8L0 8L0 10L1 10L1 9L2 9L2 10L3 10L3 9L5 9L5 10L4 10L4 12L5 12L5 13L7 13L7 14L6 14L6 15L7 15L7 14L8 14L8 15L9 15L9 16L6 16L6 17L4 17L4 16L5 16L5 14L4 14L4 13L3 13L3 11L2 11L2 12L1 12L1 11L0 11L0 13L2 13L2 14L4 14L4 15L3 15L3 19L2 19L2 20L1 20L1 18L2 18L2 15L0 15L0 16L1 16L1 17L0 17L0 20L1 20L1 23L0 23L0 24L3 24L3 23L2 23L2 22L4 22L4 23L5 23L5 21L3 21L3 19L5 19L5 18L6 18L6 19L8 19L8 20L10 20L10 21L11 21L11 23L10 23L10 22L9 22L9 21L7 21L7 20L6 20L6 21L7 21L7 22L6 22L6 23L7 23L7 24L6 24L6 25L5 25L5 24L4 24L4 25L2 25L2 26L1 26L1 25L0 25L0 26L1 26L1 27L0 27L0 29L1 29L1 30L2 30L2 31L0 31L0 33L1 33L1 32L4 32L4 33L3 33L3 34L4 34L4 35L5 35L5 37L4 37L4 38L3 38L3 35L1 35L1 36L2 36L2 37L0 37L0 39L1 39L1 38L2 38L2 40L1 40L1 41L0 41L0 42L1 42L1 43L0 43L0 46L1 46L1 47L0 47L0 48L1 48L1 47L2 47L2 49L0 49L0 50L2 50L2 52L1 52L1 51L0 51L0 53L1 53L1 54L2 54L2 55L3 55L3 56L1 56L1 55L0 55L0 56L1 56L1 57L3 57L3 56L4 56L4 57L5 57L5 56L4 56L4 54L3 54L3 53L4 53L4 49L5 49L5 50L6 50L6 51L9 51L9 52L6 52L6 53L5 53L5 55L7 55L7 54L6 54L6 53L9 53L9 52L11 52L11 53L12 53L12 51L14 51L14 53L13 53L13 54L12 54L12 55L16 55L16 57L17 57L17 56L18 56L18 57L19 57L19 58L18 58L18 59L16 59L16 58L15 58L15 57L14 57L14 58L13 58L13 56L12 56L12 58L13 58L13 59L14 59L14 60L13 60L13 61L11 61L11 60L8 60L8 65L10 65L10 64L11 64L11 63L12 63L12 65L17 65L17 64L16 64L16 63L14 63L14 62L16 62L16 61L14 61L14 60L15 60L15 59L16 59L16 60L17 60L17 61L20 61L20 60L19 60L19 58L20 58L20 57L21 57L21 56L23 56L23 57L22 57L22 59L23 59L23 58L25 58L25 57L24 57L24 56L25 56L25 55L27 55L27 57L26 57L26 58L27 58L27 59L26 59L26 60L25 60L25 59L24 59L24 60L23 60L23 61L22 61L22 60L21 60L21 64L20 64L20 65L21 65L21 64L23 64L23 63L24 63L24 64L25 64L25 63L26 63L26 64L27 64L27 65L29 65L29 64L28 64L28 63L27 63L27 61L26 61L26 60L28 60L28 61L29 61L29 60L28 60L28 59L29 59L29 58L27 58L27 57L30 57L30 61L31 61L31 63L32 63L32 64L33 64L33 65L35 65L35 64L36 64L36 65L38 65L38 64L36 64L36 63L37 63L37 62L38 62L38 63L39 63L39 64L41 64L41 65L42 65L42 64L43 64L43 65L44 65L44 64L45 64L45 65L46 65L46 63L47 63L47 62L48 62L48 63L49 63L49 62L48 62L48 61L49 61L49 60L47 60L47 58L48 58L48 57L49 57L49 59L50 59L50 60L51 60L51 62L50 62L50 63L51 63L51 62L52 62L52 60L53 60L53 62L55 62L55 63L54 63L54 64L55 64L55 63L56 63L56 64L57 64L57 63L56 63L56 62L59 62L59 64L58 64L58 65L63 65L63 64L64 64L64 60L65 60L65 59L63 59L63 58L62 58L62 59L61 59L61 55L60 55L60 56L59 56L59 55L57 55L57 51L58 51L58 52L59 52L59 53L58 53L58 54L59 54L59 53L60 53L60 54L63 54L63 56L62 56L62 57L64 57L64 58L65 58L65 55L64 55L64 54L65 54L65 53L64 53L64 52L65 52L65 51L63 51L63 50L65 50L65 49L64 49L64 48L62 48L62 47L63 47L63 46L62 46L62 47L61 47L61 45L64 45L64 44L65 44L65 43L64 43L64 44L62 44L62 43L63 43L63 42L65 42L65 41L63 41L63 40L62 40L62 38L61 38L61 37L63 37L63 39L64 39L64 40L65 40L65 39L64 39L64 38L65 38L65 37L63 37L63 36L64 36L64 34L65 34L65 32L64 32L64 31L63 31L63 30L62 30L62 31L61 31L61 30L58 30L58 28L60 28L60 29L61 29L61 28L62 28L62 29L63 29L63 28L62 28L62 27L63 27L63 26L62 26L62 25L63 25L63 24L64 24L64 26L65 26L65 24L64 24L64 22L65 22L65 21L64 21L64 20L65 20L65 19L64 19L64 18L65 18L65 15L64 15L64 16L62 16L62 18L61 18L61 16L60 16L60 18L58 18L58 16L59 16L59 14L57 14L57 15L56 15L56 14L55 14L55 12L54 12L54 10L56 10L56 11L57 11L57 12L56 12L56 13L57 13L57 12L58 12L58 11L60 11L60 10L61 10L61 9L62 9L62 8L61 8L61 9L60 9L60 8L59 8L59 10L58 10L58 8L56 8L56 9L54 9L54 10L53 10L53 9L51 9L51 10L50 10L50 11L49 11L49 9L50 9L50 7L51 7L51 8L53 8L53 6L54 6L54 8L55 8L55 5L54 5L54 4L56 4L56 5L57 5L57 4L56 4L56 3L57 3L57 1L56 1L56 0L55 0L55 1L56 1L56 3L55 3L55 2L54 2L54 3L53 3L53 1L54 1L54 0L53 0L53 1L52 1L52 0L51 0L51 1L50 1L50 2L51 2L51 3L48 3L48 2L49 2L49 1L48 1L48 2L47 2L47 1L46 1L46 3L45 3L45 1L44 1L44 0L42 0L42 1L43 1L43 2L44 2L44 3L42 3L42 2L40 2L40 1L38 1L38 0L37 0L37 1L36 1L36 0L35 0L35 1L33 1L33 0L30 0L30 1L32 1L32 2L30 2L30 3L31 3L31 4L30 4L30 7L29 7L29 5L27 5L27 6L26 6L26 8L27 8L27 9L22 9L22 7L23 7L23 6L24 6L24 7L25 7L25 4L23 4L23 6L22 6L22 7L21 7L21 5L20 5L20 4L22 4L22 3L20 3L20 4L19 4L19 1L18 1L18 0L15 0L15 1L14 1L14 0L13 0L13 1L12 1L12 2L10 2L10 1L11 1L11 0ZM21 0L21 1L20 1L20 2L22 2L22 1L23 1L23 2L24 2L24 1L25 1L25 3L26 3L26 2L27 2L27 4L29 4L29 3L28 3L28 2L29 2L29 1L27 1L27 0L24 0L24 1L23 1L23 0ZM13 1L13 2L12 2L12 3L11 3L11 5L10 5L10 6L11 6L11 7L12 7L12 6L13 6L13 8L12 8L12 11L13 11L13 10L14 10L14 11L17 11L17 10L19 10L19 9L17 9L17 8L18 8L18 6L17 6L17 7L16 7L16 6L15 6L15 5L14 5L14 6L13 6L13 4L14 4L14 1ZM15 1L15 2L16 2L16 3L15 3L15 4L16 4L16 5L17 5L17 4L18 4L18 3L17 3L17 2L18 2L18 1L17 1L17 2L16 2L16 1ZM37 1L37 2L36 2L36 3L34 3L34 2L33 2L33 3L32 3L32 4L35 4L35 7L36 7L36 8L38 8L38 10L37 10L37 9L33 9L33 10L32 10L32 9L31 9L31 10L30 10L30 9L28 9L28 11L27 11L27 10L26 10L26 11L25 11L25 10L23 10L23 12L21 12L21 11L22 11L22 10L21 10L21 9L20 9L20 11L19 11L19 13L18 13L18 14L17 14L17 13L16 13L16 14L13 14L13 13L15 13L15 12L13 12L13 13L12 13L12 12L10 12L10 11L11 11L11 8L10 8L10 9L9 9L9 10L7 10L7 9L6 9L6 10L7 10L7 11L5 11L5 12L8 12L8 11L9 11L9 12L10 12L10 13L11 13L11 14L12 14L12 15L10 15L10 16L11 16L11 17L14 17L14 18L13 18L13 20L12 20L12 22L13 22L13 24L15 24L15 25L14 25L14 26L15 26L15 28L14 28L14 27L13 27L13 26L12 26L12 23L11 23L11 24L10 24L10 23L9 23L9 22L7 22L7 23L9 23L9 26L10 26L10 27L11 27L11 28L12 28L12 27L13 27L13 28L14 28L14 29L16 29L16 30L13 30L13 29L12 29L12 30L13 30L13 31L12 31L12 32L13 32L13 34L12 34L12 33L11 33L11 29L10 29L10 28L9 28L9 30L10 30L10 32L9 32L9 33L11 33L11 34L9 34L9 35L10 35L10 36L11 36L11 37L12 37L12 36L13 36L13 35L14 35L14 36L15 36L15 37L13 37L13 39L12 39L12 40L10 40L10 38L9 38L9 40L8 40L8 39L6 39L6 40L5 40L5 39L4 39L4 40L5 40L5 41L6 41L6 42L5 42L5 44L7 44L7 43L6 43L6 42L9 42L9 40L10 40L10 42L13 42L13 45L14 45L14 46L13 46L13 48L12 48L12 49L11 49L11 48L10 48L10 47L12 47L12 46L10 46L10 45L8 45L8 46L9 46L9 47L8 47L8 48L7 48L7 47L3 47L3 49L4 49L4 48L7 48L7 49L6 49L6 50L7 50L7 49L8 49L8 50L9 50L9 48L10 48L10 51L12 51L12 50L13 50L13 49L14 49L14 50L18 50L18 51L16 51L16 52L18 52L18 53L16 53L16 55L17 55L17 54L18 54L18 55L21 55L21 53L22 53L22 55L23 55L23 56L24 56L24 55L25 55L25 54L30 54L30 56L32 56L32 55L33 55L33 53L34 53L34 55L35 55L35 57L36 57L36 56L37 56L37 57L38 57L38 58L39 58L39 59L37 59L37 58L36 58L36 59L35 59L35 60L37 60L37 61L33 61L33 62L32 62L32 63L33 63L33 62L34 62L34 64L35 64L35 63L36 63L36 62L37 62L37 61L38 61L38 62L39 62L39 63L40 63L40 62L41 62L41 64L42 64L42 63L43 63L43 64L44 64L44 63L45 63L45 60L44 60L44 63L43 63L43 62L42 62L42 61L43 61L43 60L42 60L42 59L45 59L45 58L44 58L44 57L45 57L45 56L46 56L46 58L47 58L47 57L48 57L48 56L49 56L49 57L50 57L50 58L51 58L51 59L52 59L52 58L53 58L53 60L54 60L54 61L55 61L55 60L56 60L56 59L55 59L55 58L56 58L56 56L57 56L57 55L56 55L56 56L55 56L55 54L53 54L53 53L56 53L56 52L54 52L54 51L56 51L56 50L57 50L57 46L58 46L58 47L59 47L59 48L58 48L58 49L59 49L59 50L58 50L58 51L60 51L60 49L61 49L61 50L63 50L63 49L62 49L62 48L61 48L61 47L59 47L59 46L60 46L60 45L61 45L61 44L60 44L60 43L61 43L61 42L59 42L59 41L62 41L62 40L61 40L61 38L60 38L60 37L61 37L61 36L60 36L60 35L59 35L59 36L58 36L58 37L59 37L59 38L57 38L57 36L55 36L55 35L56 35L56 32L55 32L55 34L53 34L53 32L54 32L54 31L56 31L56 30L57 30L57 29L56 29L56 30L54 30L54 29L55 29L55 26L54 26L54 25L55 25L55 23L57 23L57 24L58 24L58 25L56 25L56 28L58 28L58 26L59 26L59 27L60 27L60 28L61 28L61 27L60 27L60 26L61 26L61 25L62 25L62 24L63 24L63 22L62 22L62 20L63 20L63 19L58 19L58 20L61 20L61 22L59 22L59 21L56 21L56 20L57 20L57 17L56 17L56 16L55 16L55 14L54 14L54 15L53 15L53 14L52 14L52 15L53 15L53 16L52 16L52 17L50 17L50 16L51 16L51 15L50 15L50 14L51 14L51 13L54 13L54 12L49 12L49 11L46 11L46 12L47 12L47 13L45 13L45 12L44 12L44 11L43 11L43 10L47 10L47 9L45 9L45 8L44 8L44 6L45 6L45 7L46 7L46 8L47 8L47 7L48 7L48 8L49 8L49 7L50 7L50 6L49 6L49 4L48 4L48 6L47 6L47 7L46 7L46 5L47 5L47 3L46 3L46 4L45 4L45 3L44 3L44 4L43 4L43 5L42 5L42 3L40 3L40 4L38 4L38 3L39 3L39 2L38 2L38 1ZM51 1L51 2L52 2L52 1ZM16 3L16 4L17 4L17 3ZM36 3L36 4L37 4L37 5L36 5L36 7L37 7L37 5L38 5L38 8L39 8L39 6L40 6L40 8L41 8L41 4L40 4L40 5L38 5L38 4L37 4L37 3ZM51 3L51 4L50 4L50 5L52 5L52 6L51 6L51 7L52 7L52 6L53 6L53 3ZM11 5L11 6L12 6L12 5ZM31 5L31 8L34 8L34 5ZM43 5L43 6L42 6L42 8L43 8L43 6L44 6L44 5ZM14 6L14 7L15 7L15 8L14 8L14 9L15 9L15 10L17 10L17 9L15 9L15 8L16 8L16 7L15 7L15 6ZM19 6L19 8L21 8L21 7L20 7L20 6ZM27 6L27 7L28 7L28 8L29 8L29 7L28 7L28 6ZM32 6L32 7L33 7L33 6ZM48 6L48 7L49 7L49 6ZM56 6L56 7L57 7L57 6ZM63 8L63 10L62 10L62 11L61 11L61 12L60 12L60 13L62 13L62 15L63 15L63 13L64 13L64 14L65 14L65 13L64 13L64 12L65 12L65 11L63 11L63 10L65 10L65 9L64 9L64 8ZM39 9L39 10L38 10L38 11L40 11L40 12L42 12L42 10L43 10L43 9ZM56 9L56 10L57 10L57 9ZM9 10L9 11L10 11L10 10ZM33 10L33 11L28 11L28 12L31 12L31 13L30 13L30 14L29 14L29 15L28 15L28 17L30 17L30 18L31 18L31 19L29 19L29 20L28 20L28 21L30 21L30 20L31 20L31 21L32 21L32 20L33 20L33 18L34 18L34 21L35 21L35 18L34 18L34 17L37 17L37 16L42 16L42 17L41 17L41 18L38 18L38 19L37 19L37 18L36 18L36 19L37 19L37 20L36 20L36 22L34 22L34 23L33 23L33 22L31 22L31 23L30 23L30 24L29 24L29 22L28 22L28 24L27 24L27 22L26 22L26 24L27 24L27 25L24 25L24 24L23 24L23 23L22 23L22 21L23 21L23 22L24 22L24 23L25 23L25 21L27 21L27 17L26 17L26 16L25 16L25 17L24 17L24 15L22 15L22 14L24 14L24 13L25 13L25 11L24 11L24 13L19 13L19 14L20 14L20 15L19 15L19 16L18 16L18 17L15 17L15 15L14 15L14 17L15 17L15 18L14 18L14 19L15 19L15 20L14 20L14 22L15 22L15 23L16 23L16 25L17 25L17 24L18 24L18 25L19 25L19 26L18 26L18 27L19 27L19 28L17 28L17 26L16 26L16 28L17 28L17 29L20 29L20 27L19 27L19 26L20 26L20 25L22 25L22 26L23 26L23 29L22 29L22 27L21 27L21 31L22 31L22 32L23 32L23 31L24 31L24 32L25 32L25 33L24 33L24 34L23 34L23 33L21 33L21 32L20 32L20 33L19 33L19 31L20 31L20 30L18 30L18 31L17 31L17 32L16 32L16 31L15 31L15 32L14 32L14 34L15 34L15 33L17 33L17 34L16 34L16 35L17 35L17 36L16 36L16 37L15 37L15 38L14 38L14 39L13 39L13 40L12 40L12 41L13 41L13 40L15 40L15 41L14 41L14 44L15 44L15 45L16 45L16 46L14 46L14 47L16 47L16 49L17 49L17 45L19 45L19 46L18 46L18 49L19 49L19 51L20 51L20 52L19 52L19 53L18 53L18 54L20 54L20 53L21 53L21 52L22 52L22 53L23 53L23 54L25 54L25 53L27 53L27 52L28 52L28 53L29 53L29 52L28 52L28 51L30 51L30 52L31 52L31 51L30 51L30 50L32 50L32 51L33 51L33 52L32 52L32 53L31 53L31 55L32 55L32 53L33 53L33 52L34 52L34 53L35 53L35 54L37 54L37 52L35 52L35 51L33 51L33 50L35 50L35 49L34 49L34 48L35 48L35 47L36 47L36 46L37 46L37 47L38 47L38 49L39 49L39 47L40 47L40 48L41 48L41 47L42 47L42 48L43 48L43 49L41 49L41 51L40 51L40 52L41 52L41 51L42 51L42 52L43 52L43 53L42 53L42 54L43 54L43 53L44 53L44 54L45 54L45 55L42 55L42 56L45 56L45 55L46 55L46 56L47 56L47 55L48 55L48 54L50 54L50 55L49 55L49 56L53 56L53 58L55 58L55 56L53 56L53 55L51 55L51 54L50 54L50 51L52 51L52 52L53 52L53 49L52 49L52 48L54 48L54 50L56 50L56 49L55 49L55 48L56 48L56 47L55 47L55 48L54 48L54 46L56 46L56 45L58 45L58 46L59 46L59 43L54 43L54 44L56 44L56 45L52 45L52 44L53 44L53 42L55 42L55 41L53 41L53 42L52 42L52 44L51 44L51 42L50 42L50 45L51 45L51 46L49 46L49 44L48 44L48 46L49 46L49 48L48 48L48 50L46 50L46 51L45 51L45 50L43 50L43 49L44 49L44 48L45 48L45 49L46 49L46 47L47 47L47 46L46 46L46 45L47 45L47 44L46 44L46 43L47 43L47 42L45 42L45 41L44 41L44 44L43 44L43 43L42 43L42 42L43 42L43 41L42 41L42 38L43 38L43 40L46 40L46 39L47 39L47 41L50 41L50 40L51 40L51 39L52 39L52 40L53 40L53 39L54 39L54 40L56 40L56 41L58 41L58 40L59 40L59 39L58 39L58 40L56 40L56 39L54 39L54 38L56 38L56 37L54 37L54 35L52 35L52 34L50 34L50 33L52 33L52 32L53 32L53 29L54 29L54 28L53 28L53 27L51 27L51 26L50 26L50 25L51 25L51 24L53 24L53 22L55 22L55 21L54 21L54 20L56 20L56 19L52 19L52 18L50 18L50 17L49 17L49 16L48 16L48 17L49 17L49 19L51 19L51 20L50 20L50 21L49 21L49 20L47 20L47 18L45 18L45 17L47 17L47 16L46 16L46 15L48 15L48 14L49 14L49 12L48 12L48 13L47 13L47 14L45 14L45 15L43 15L43 16L42 16L42 15L41 15L41 14L44 14L44 12L43 12L43 13L40 13L40 15L39 15L39 14L38 14L38 13L39 13L39 12L38 12L38 13L37 13L37 12L34 12L34 11L35 11L35 10ZM36 10L36 11L37 11L37 10ZM40 10L40 11L41 11L41 10ZM51 10L51 11L52 11L52 10ZM62 11L62 12L63 12L63 11ZM32 12L32 13L33 13L33 14L35 14L35 13L34 13L34 12ZM26 13L26 14L25 14L25 15L26 15L26 14L27 14L27 13ZM16 14L16 15L17 15L17 14ZM30 14L30 15L31 15L31 16L30 16L30 17L31 17L31 18L33 18L33 16L32 16L32 15L31 15L31 14ZM36 14L36 16L37 16L37 14ZM12 15L12 16L13 16L13 15ZM57 15L57 16L58 16L58 15ZM19 16L19 17L18 17L18 19L17 19L17 18L16 18L16 19L17 19L17 20L16 20L16 21L15 21L15 22L16 22L16 21L17 21L17 22L18 22L18 24L19 24L19 25L20 25L20 24L21 24L21 23L20 23L20 22L21 22L21 21L22 21L22 20L21 20L21 21L20 21L20 22L18 22L18 21L19 21L19 19L22 19L22 17L23 17L23 16L21 16L21 17L20 17L20 16ZM44 16L44 17L43 17L43 18L42 18L42 19L41 19L41 20L40 20L40 19L38 19L38 20L37 20L37 22L36 22L36 23L34 23L34 24L32 24L32 23L31 23L31 24L30 24L30 25L31 25L31 28L30 28L30 26L29 26L29 25L27 25L27 26L24 26L24 28L25 28L25 29L27 29L27 30L25 30L25 31L26 31L26 33L25 33L25 35L24 35L24 36L23 36L23 34L22 34L22 35L21 35L21 33L20 33L20 35L19 35L19 38L23 38L23 37L26 37L26 38L25 38L25 39L27 39L27 40L22 40L22 41L25 41L25 42L24 42L24 43L25 43L25 45L24 45L24 44L19 44L19 45L21 45L21 49L20 49L20 48L19 48L19 49L20 49L20 51L22 51L22 49L23 49L23 47L24 47L24 49L25 49L25 50L23 50L23 53L25 53L25 52L26 52L26 51L25 51L25 50L26 50L26 49L27 49L27 50L30 50L30 49L27 49L27 47L29 47L29 48L33 48L33 47L32 47L32 46L33 46L33 45L34 45L34 47L35 47L35 45L34 45L34 44L33 44L33 45L31 45L31 47L29 47L29 46L30 46L30 45L28 45L28 46L27 46L27 47L26 47L26 45L27 45L27 44L26 44L26 41L27 41L27 43L29 43L29 44L30 44L30 43L29 43L29 42L30 42L30 41L31 41L31 42L32 42L32 43L35 43L35 44L37 44L37 43L38 43L38 46L39 46L39 45L41 45L41 44L42 44L42 45L43 45L43 46L42 46L42 47L43 47L43 48L44 48L44 47L46 47L46 46L44 46L44 45L45 45L45 44L44 44L44 45L43 45L43 44L42 44L42 43L41 43L41 42L40 42L40 43L38 43L38 42L39 42L39 40L40 40L40 41L41 41L41 40L40 40L40 38L42 38L42 37L43 37L43 36L44 36L44 37L45 37L45 38L44 38L44 39L46 39L46 38L47 38L47 39L48 39L48 40L49 40L49 39L48 39L48 38L49 38L49 37L45 37L45 36L44 36L44 35L46 35L46 36L47 36L47 35L48 35L48 36L49 36L49 35L50 35L50 34L49 34L49 33L48 33L48 32L49 32L49 31L48 31L48 30L51 30L51 29L50 29L50 28L51 28L51 27L48 27L48 26L49 26L49 25L50 25L50 24L51 24L51 23L50 23L50 22L53 22L53 20L51 20L51 21L50 21L50 22L49 22L49 21L48 21L48 22L49 22L49 23L47 23L47 24L44 24L44 22L45 22L45 21L46 21L46 22L47 22L47 21L46 21L46 20L44 20L44 22L42 22L42 21L43 21L43 20L42 20L42 19L45 19L45 18L44 18L44 17L45 17L45 16ZM53 16L53 18L55 18L55 16ZM6 17L6 18L7 18L7 17ZM8 17L8 18L9 18L9 19L10 19L10 17ZM25 17L25 18L26 18L26 17ZM63 17L63 18L64 18L64 17ZM23 18L23 19L24 19L24 20L23 20L23 21L25 21L25 20L26 20L26 19L24 19L24 18ZM17 20L17 21L18 21L18 20ZM39 21L39 22L38 22L38 23L37 23L37 24L36 24L36 25L35 25L35 26L33 26L33 25L32 25L32 28L31 28L31 29L30 29L30 33L29 33L29 32L28 32L28 31L29 31L29 30L27 30L27 33L26 33L26 34L27 34L27 33L29 33L29 34L28 34L28 35L27 35L27 37L31 37L31 39L30 39L30 38L28 38L28 39L30 39L30 40L27 40L27 41L30 41L30 40L31 40L31 39L32 39L32 37L35 37L35 38L36 38L36 39L34 39L34 38L33 38L33 40L32 40L32 41L33 41L33 42L35 42L35 43L36 43L36 42L37 42L37 41L38 41L38 39L39 39L39 38L37 38L37 36L35 36L35 35L36 35L36 34L37 34L37 35L39 35L39 36L38 36L38 37L40 37L40 36L41 36L41 35L40 35L40 34L41 34L41 33L42 33L42 34L43 34L43 35L44 35L44 33L42 33L42 32L41 32L41 31L42 31L42 30L44 30L44 32L48 32L48 31L47 31L47 30L46 30L46 28L45 28L45 27L47 27L47 29L49 29L49 28L48 28L48 27L47 27L47 26L48 26L48 25L49 25L49 24L47 24L47 26L45 26L45 27L44 27L44 25L42 25L42 24L43 24L43 23L42 23L42 22L40 22L40 21ZM39 22L39 23L40 23L40 22ZM57 22L57 23L58 23L58 24L59 24L59 25L61 25L61 24L62 24L62 22L61 22L61 24L60 24L60 23L59 23L59 22ZM22 24L22 25L23 25L23 24ZM40 24L40 25L41 25L41 24ZM6 25L6 26L7 26L7 27L5 27L5 26L4 26L4 27L5 27L5 29L4 29L4 30L3 30L3 31L4 31L4 30L5 30L5 29L6 29L6 30L8 30L8 25ZM36 25L36 26L35 26L35 27L33 27L33 28L32 28L32 29L33 29L33 30L35 30L35 34L36 34L36 32L37 32L37 34L39 34L39 33L41 33L41 32L39 32L39 31L41 31L41 30L40 30L40 29L41 29L41 28L39 28L39 27L37 27L37 25ZM38 25L38 26L39 26L39 25ZM2 26L2 27L3 27L3 26ZM41 26L41 27L43 27L43 28L44 28L44 30L45 30L45 28L44 28L44 27L43 27L43 26ZM26 27L26 28L28 28L28 29L29 29L29 28L28 28L28 27ZM1 28L1 29L2 29L2 28ZM6 28L6 29L7 29L7 28ZM35 28L35 30L36 30L36 31L37 31L37 30L38 30L38 31L39 31L39 30L38 30L38 29L39 29L39 28ZM52 28L52 29L53 29L53 28ZM23 29L23 30L22 30L22 31L23 31L23 30L24 30L24 29ZM5 31L5 34L8 34L8 31ZM31 31L31 34L34 34L34 31ZM50 31L50 32L52 32L52 31ZM57 31L57 34L60 34L60 31ZM62 31L62 32L61 32L61 35L62 35L62 36L63 36L63 35L62 35L62 34L63 34L63 33L62 33L62 32L63 32L63 31ZM6 32L6 33L7 33L7 32ZM17 32L17 33L18 33L18 34L17 34L17 35L18 35L18 34L19 34L19 33L18 33L18 32ZM32 32L32 33L33 33L33 32ZM38 32L38 33L39 33L39 32ZM58 32L58 33L59 33L59 32ZM11 34L11 36L12 36L12 34ZM46 34L46 35L47 35L47 34ZM48 34L48 35L49 35L49 34ZM6 35L6 36L7 36L7 35ZM25 35L25 36L26 36L26 35ZM28 35L28 36L31 36L31 37L32 37L32 36L34 36L34 35L32 35L32 36L31 36L31 35ZM17 36L17 37L16 37L16 38L17 38L17 39L16 39L16 40L20 40L20 39L18 39L18 38L17 38L17 37L18 37L18 36ZM20 36L20 37L22 37L22 36ZM51 36L51 37L50 37L50 38L51 38L51 37L53 37L53 36ZM59 36L59 37L60 37L60 36ZM6 37L6 38L7 38L7 37ZM52 38L52 39L53 39L53 38ZM36 39L36 40L37 40L37 39ZM6 40L6 41L7 41L7 40ZM34 40L34 41L35 41L35 42L36 42L36 41L35 41L35 40ZM2 41L2 42L3 42L3 41ZM16 41L16 42L15 42L15 43L16 43L16 42L17 42L17 43L19 43L19 41L18 41L18 42L17 42L17 41ZM20 41L20 42L21 42L21 41ZM22 42L22 43L23 43L23 42ZM48 42L48 43L49 43L49 42ZM8 43L8 44L12 44L12 43ZM40 43L40 44L41 44L41 43ZM1 44L1 45L2 45L2 46L3 46L3 45L2 45L2 44ZM16 44L16 45L17 45L17 44ZM4 45L4 46L5 46L5 45ZM6 45L6 46L7 46L7 45ZM22 45L22 46L24 46L24 45ZM19 46L19 47L20 47L20 46ZM40 46L40 47L41 47L41 46ZM52 46L52 47L51 47L51 48L52 48L52 47L53 47L53 46ZM25 47L25 49L26 49L26 47ZM14 48L14 49L15 49L15 48ZM36 48L36 49L37 49L37 48ZM32 49L32 50L33 50L33 49ZM50 49L50 50L51 50L51 49ZM36 50L36 51L38 51L38 53L39 53L39 54L38 54L38 55L39 55L39 56L38 56L38 57L39 57L39 58L40 58L40 56L41 56L41 55L40 55L40 54L41 54L41 53L39 53L39 50ZM42 50L42 51L43 51L43 50ZM24 51L24 52L25 52L25 51ZM46 51L46 52L44 52L44 53L45 53L45 54L48 54L48 52L49 52L49 51ZM62 51L62 52L60 52L60 53L62 53L62 52L63 52L63 51ZM2 52L2 53L3 53L3 52ZM46 52L46 53L47 53L47 52ZM63 53L63 54L64 54L64 53ZM10 54L10 56L9 56L9 55L8 55L8 59L9 59L9 57L10 57L10 56L11 56L11 54ZM28 55L28 56L29 56L29 55ZM6 56L6 57L7 57L7 56ZM19 56L19 57L20 57L20 56ZM31 57L31 60L34 60L34 57ZM41 57L41 58L43 58L43 57ZM57 57L57 60L60 60L60 57ZM10 58L10 59L11 59L11 58ZM32 58L32 59L33 59L33 58ZM58 58L58 59L59 59L59 58ZM39 59L39 60L38 60L38 61L39 61L39 62L40 62L40 60L41 60L41 61L42 61L42 60L41 60L41 59ZM54 59L54 60L55 60L55 59ZM62 59L62 60L61 60L61 61L60 61L60 62L61 62L61 61L62 61L62 60L63 60L63 59ZM13 61L13 62L14 62L14 61ZM23 61L23 62L22 62L22 63L23 63L23 62L24 62L24 61ZM25 61L25 62L26 62L26 61ZM46 61L46 62L47 62L47 61ZM9 62L9 64L10 64L10 62ZM17 62L17 63L18 63L18 65L19 65L19 63L20 63L20 62L19 62L19 63L18 63L18 62ZM52 63L52 64L50 64L50 65L52 65L52 64L53 64L53 63ZM62 63L62 64L63 64L63 63ZM30 64L30 65L31 65L31 64ZM47 64L47 65L49 65L49 64ZM0 0L0 7L7 7L7 0ZM1 1L1 6L6 6L6 1ZM2 2L2 5L5 5L5 2ZM58 0L58 7L65 7L65 0ZM59 1L59 6L64 6L64 1ZM60 2L60 5L63 5L63 2ZM0 58L0 65L7 65L7 58ZM1 59L1 64L6 64L6 59ZM2 60L2 63L5 63L5 60Z" fill="#000000"/></g></g></svg>
