<?xml version="1.0" encoding="UTF-8"?>
<svg xmlns="http://www.w3.org/2000/svg" version="1.1" width="300" height="300" viewBox="0 0 300 300"><rect x="0" y="0" width="300" height="300" fill="#ffffff"/><g transform="scale(4.615)"><g transform="translate(0,0)"><path fill-rule="evenodd" d="M10 0L10 3L13 3L13 4L10 4L10 5L8 5L8 7L9 7L9 8L6 8L6 9L5 9L5 8L0 8L0 9L5 9L5 10L4 10L4 12L6 12L6 13L2 13L2 12L3 12L3 10L2 10L2 12L0 12L0 13L1 13L1 14L0 14L0 25L1 25L1 26L0 26L0 28L1 28L1 26L2 26L2 29L1 29L1 30L0 30L0 31L2 31L2 29L3 29L3 31L4 31L4 34L0 34L0 36L1 36L1 37L2 37L2 38L0 38L0 42L2 42L2 43L0 43L0 47L1 47L1 48L2 48L2 49L0 49L0 52L1 52L1 53L2 53L2 55L3 55L3 56L1 56L1 55L0 55L0 56L1 56L1 57L3 57L3 56L4 56L4 57L5 57L5 56L4 56L4 54L3 54L3 53L4 53L4 51L5 51L5 50L4 50L4 49L7 49L7 50L6 50L6 51L7 51L7 50L8 50L8 51L9 51L9 52L10 52L10 51L9 51L9 50L11 50L11 44L12 44L12 45L16 45L16 46L15 46L15 47L14 47L14 46L13 46L13 48L12 48L12 49L13 49L13 48L15 48L15 47L16 47L16 49L15 49L15 51L14 51L14 50L13 50L13 51L14 51L14 52L13 52L13 53L12 53L12 51L11 51L11 53L10 53L10 54L9 54L9 56L8 56L8 55L7 55L7 54L6 54L6 53L7 53L7 52L6 52L6 53L5 53L5 55L7 55L7 56L6 56L6 57L7 57L7 56L8 56L8 59L9 59L9 58L11 58L11 59L10 59L10 60L8 60L8 65L9 65L9 64L13 64L13 59L12 59L12 58L13 58L13 57L14 57L14 61L15 61L15 62L16 62L16 61L15 61L15 58L16 58L16 57L17 57L17 58L18 58L18 59L19 59L19 60L17 60L17 59L16 59L16 60L17 60L17 61L20 61L20 60L21 60L21 63L22 63L22 64L20 64L20 65L22 65L22 64L23 64L23 62L25 62L25 63L24 63L24 64L25 64L25 65L26 65L26 62L27 62L27 63L28 63L28 61L29 61L29 62L30 62L30 63L32 63L32 64L34 64L34 65L38 65L38 63L40 63L40 64L41 64L41 65L43 65L43 63L40 63L40 62L43 62L43 61L44 61L44 62L45 62L45 61L47 61L47 60L46 60L46 59L47 59L47 58L46 58L46 57L51 57L51 58L50 58L50 59L51 59L51 60L50 60L50 61L49 61L49 60L48 60L48 62L50 62L50 63L51 63L51 62L52 62L52 60L53 60L53 61L54 61L54 62L55 62L55 61L56 61L56 62L57 62L57 63L59 63L59 64L58 64L58 65L63 65L63 64L64 64L64 61L65 61L65 59L64 59L64 58L65 58L65 56L64 56L64 54L65 54L65 52L64 52L64 50L65 50L65 49L64 49L64 48L62 48L62 49L63 49L63 50L61 50L61 49L60 49L60 48L59 48L59 47L54 47L54 48L53 48L53 47L52 47L52 46L56 46L56 45L55 45L55 44L58 44L58 45L57 45L57 46L58 46L58 45L59 45L59 43L58 43L58 42L61 42L61 41L59 41L59 39L58 39L58 37L60 37L60 38L61 38L61 39L60 39L60 40L62 40L62 41L64 41L64 42L65 42L65 41L64 41L64 40L65 40L65 39L64 39L64 38L65 38L65 37L64 37L64 36L65 36L65 35L63 35L63 34L62 34L62 35L61 35L61 32L62 32L62 33L63 33L63 32L64 32L64 34L65 34L65 31L63 31L63 30L62 30L62 31L61 31L61 30L58 30L58 28L59 28L59 29L61 29L61 28L59 28L59 26L57 26L57 27L56 27L56 26L55 26L55 25L54 25L54 26L53 26L53 25L52 25L52 27L51 27L51 26L50 26L50 27L51 27L51 28L48 28L48 29L47 29L47 30L46 30L46 28L47 28L47 27L49 27L49 25L50 25L50 24L51 24L51 22L52 22L52 24L53 24L53 22L55 22L55 21L54 21L54 20L55 20L55 19L52 19L52 18L48 18L48 17L49 17L49 16L46 16L46 15L48 15L48 14L49 14L49 15L51 15L51 16L50 16L50 17L51 17L51 16L53 16L53 17L54 17L54 18L56 18L56 19L57 19L57 20L56 20L56 21L57 21L57 22L58 22L58 23L54 23L54 24L56 24L56 25L57 25L57 24L59 24L59 25L61 25L61 26L60 26L60 27L61 27L61 26L65 26L65 23L64 23L64 22L65 22L65 21L64 21L64 22L62 22L62 23L61 23L61 24L59 24L59 22L61 22L61 20L58 20L58 19L59 19L59 18L58 18L58 16L56 16L56 17L54 17L54 16L53 16L53 15L54 15L54 14L55 14L55 15L56 15L56 13L57 13L57 12L58 12L58 11L59 11L59 10L57 10L57 11L54 11L54 12L53 12L53 11L52 11L52 12L53 12L53 13L51 13L51 12L50 12L50 13L49 13L49 12L48 12L48 11L51 11L51 10L52 10L52 8L54 8L54 10L56 10L56 9L58 9L58 8L55 8L55 5L54 5L54 4L56 4L56 5L57 5L57 4L56 4L56 3L57 3L57 1L56 1L56 0L55 0L55 1L56 1L56 3L55 3L55 2L54 2L54 3L53 3L53 1L54 1L54 0L53 0L53 1L52 1L52 0L51 0L51 1L50 1L50 2L49 2L49 3L48 3L48 0L47 0L47 1L46 1L46 2L44 2L44 3L46 3L46 4L45 4L45 6L44 6L44 5L43 5L43 4L42 4L42 5L41 5L41 4L39 4L39 5L38 5L38 7L37 7L37 6L36 6L36 7L35 7L35 5L37 5L37 3L38 3L38 2L39 2L39 1L40 1L40 3L41 3L41 1L45 1L45 0L41 0L41 1L40 1L40 0L39 0L39 1L38 1L38 0L36 0L36 1L34 1L34 0L30 0L30 1L32 1L32 2L30 2L30 3L28 3L28 2L29 2L29 1L27 1L27 0L24 0L24 1L25 1L25 2L24 2L24 3L25 3L25 4L23 4L23 5L24 5L24 7L25 7L25 4L26 4L26 5L27 5L27 4L30 4L30 5L28 5L28 7L29 7L29 8L27 8L27 6L26 6L26 8L27 8L27 9L22 9L22 7L23 7L23 6L22 6L22 7L21 7L21 5L19 5L19 1L20 1L20 2L22 2L22 1L23 1L23 0L21 0L21 1L20 1L20 0L19 0L19 1L18 1L18 2L17 2L17 0L14 0L14 1L13 1L13 0L12 0L12 1L11 1L11 0ZM8 1L8 2L9 2L9 1ZM15 1L15 3L14 3L14 4L13 4L13 5L12 5L12 6L11 6L11 5L10 5L10 6L9 6L9 7L10 7L10 8L9 8L9 9L8 9L8 10L9 10L9 9L10 9L10 10L11 10L11 7L12 7L12 8L13 8L13 10L12 10L12 11L9 11L9 12L8 12L8 13L6 13L6 14L3 14L3 15L4 15L4 16L2 16L2 15L1 15L1 17L2 17L2 18L1 18L1 20L2 20L2 23L1 23L1 25L2 25L2 26L3 26L3 25L2 25L2 23L3 23L3 24L4 24L4 25L5 25L5 26L4 26L4 27L3 27L3 28L5 28L5 29L4 29L4 30L7 30L7 29L6 29L6 28L7 28L7 27L8 27L8 29L9 29L9 30L10 30L10 28L9 28L9 27L11 27L11 31L12 31L12 32L13 32L13 31L12 31L12 29L13 29L13 28L14 28L14 27L15 27L15 25L14 25L14 26L11 26L11 25L13 25L13 24L11 24L11 22L12 22L12 23L13 23L13 22L16 22L16 21L17 21L17 23L18 23L18 21L19 21L19 17L14 17L14 16L17 16L17 15L20 15L20 14L19 14L19 13L24 13L24 14L22 14L22 15L24 15L24 17L25 17L25 18L26 18L26 17L27 17L27 16L26 16L26 15L27 15L27 14L29 14L29 13L27 13L27 12L28 12L28 11L31 11L31 12L30 12L30 13L31 13L31 14L30 14L30 15L31 15L31 16L29 16L29 15L28 15L28 16L29 16L29 17L28 17L28 18L29 18L29 19L32 19L32 18L35 18L35 19L34 19L34 20L37 20L37 21L34 21L34 22L33 22L33 20L32 20L32 21L31 21L31 20L30 20L30 22L29 22L29 21L28 21L28 20L26 20L26 21L27 21L27 22L29 22L29 23L28 23L28 24L29 24L29 25L27 25L27 24L26 24L26 22L25 22L25 24L24 24L24 25L27 25L27 26L24 26L24 28L22 28L22 25L23 25L23 24L22 24L22 25L20 25L20 29L17 29L17 27L18 27L18 28L19 28L19 27L18 27L18 26L19 26L19 25L16 25L16 28L15 28L15 29L14 29L14 30L15 30L15 31L14 31L14 32L15 32L15 33L14 33L14 34L13 34L13 33L10 33L10 31L9 31L9 33L10 33L10 34L11 34L11 35L12 35L12 34L13 34L13 35L14 35L14 34L15 34L15 35L16 35L16 36L17 36L17 37L15 37L15 36L11 36L11 37L10 37L10 35L9 35L9 37L8 37L8 35L6 35L6 36L5 36L5 35L4 35L4 36L3 36L3 35L1 35L1 36L3 36L3 37L6 37L6 38L8 38L8 39L5 39L5 38L4 38L4 39L1 39L1 41L3 41L3 43L2 43L2 44L3 44L3 49L4 49L4 48L7 48L7 47L6 47L6 46L7 46L7 45L6 45L6 46L5 46L5 47L4 47L4 44L5 44L5 43L4 43L4 42L7 42L7 41L10 41L10 42L8 42L8 43L6 43L6 44L11 44L11 43L12 43L12 42L13 42L13 44L14 44L14 42L16 42L16 43L15 43L15 44L16 44L16 45L17 45L17 44L16 44L16 43L17 43L17 42L19 42L19 41L18 41L18 39L19 39L19 38L20 38L20 39L21 39L21 38L23 38L23 40L22 40L22 41L25 41L25 42L24 42L24 43L25 43L25 46L26 46L26 45L28 45L28 46L30 46L30 47L28 47L28 48L33 48L33 47L32 47L32 46L34 46L34 47L35 47L35 48L34 48L34 49L31 49L31 50L30 50L30 49L28 49L28 51L27 51L27 50L26 50L26 49L27 49L27 47L26 47L26 49L25 49L25 47L24 47L24 48L23 48L23 47L22 47L22 45L23 45L23 44L21 44L21 41L20 41L20 44L19 44L19 45L18 45L18 47L17 47L17 49L16 49L16 50L18 50L18 51L17 51L17 52L18 52L18 53L15 53L15 54L14 54L14 53L13 53L13 55L10 55L10 56L9 56L9 57L10 57L10 56L11 56L11 58L12 58L12 57L13 57L13 55L14 55L14 57L15 57L15 55L17 55L17 56L19 56L19 57L18 57L18 58L19 58L19 59L20 59L20 58L21 58L21 57L23 57L23 56L24 56L24 57L25 57L25 58L23 58L23 59L21 59L21 60L22 60L22 61L23 61L23 60L24 60L24 61L27 61L27 60L26 60L26 59L27 59L27 58L29 58L29 59L28 59L28 60L29 60L29 61L30 61L30 62L31 62L31 61L30 61L30 58L29 58L29 57L30 57L30 56L31 56L31 52L32 52L32 50L33 50L33 51L35 51L35 52L34 52L34 53L35 53L35 52L37 52L37 53L36 53L36 54L34 54L34 55L33 55L33 53L32 53L32 56L34 56L34 55L35 55L35 57L36 57L36 58L35 58L35 59L36 59L36 60L37 60L37 61L38 61L38 62L39 62L39 61L42 61L42 60L40 60L40 59L43 59L43 60L44 60L44 61L45 61L45 60L44 60L44 57L45 57L45 56L43 56L43 58L42 58L42 56L40 56L40 55L43 55L43 54L42 54L42 52L44 52L44 53L45 53L45 54L44 54L44 55L46 55L46 56L47 56L47 55L48 55L48 56L50 56L50 54L51 54L51 53L56 53L56 52L54 52L54 51L57 51L57 52L58 52L58 53L59 53L59 54L57 54L57 55L56 55L56 54L52 54L52 55L53 55L53 56L51 56L51 57L55 57L55 58L54 58L54 59L53 59L53 58L52 58L52 59L53 59L53 60L54 60L54 61L55 61L55 60L56 60L56 59L55 59L55 58L56 58L56 56L58 56L58 55L60 55L60 56L61 56L61 57L62 57L62 58L63 58L63 57L64 57L64 56L63 56L63 53L64 53L64 52L63 52L63 51L62 51L62 52L61 52L61 50L60 50L60 52L58 52L58 51L59 51L59 50L58 50L58 51L57 51L57 48L54 48L54 49L55 49L55 50L52 50L52 51L49 51L49 50L51 50L51 49L53 49L53 48L51 48L51 47L48 47L48 46L49 46L49 45L47 45L47 44L46 44L46 43L45 43L45 40L46 40L46 42L47 42L47 43L48 43L48 44L49 44L49 43L48 43L48 42L49 42L49 41L50 41L50 42L53 42L53 44L52 44L52 43L50 43L50 46L51 46L51 44L52 44L52 45L53 45L53 44L55 44L55 43L56 43L56 42L57 42L57 41L56 41L56 40L57 40L57 38L56 38L56 40L55 40L55 38L54 38L54 39L53 39L53 40L49 40L49 39L50 39L50 38L51 38L51 39L52 39L52 38L53 38L53 36L52 36L52 37L51 37L51 35L48 35L48 34L53 34L53 33L55 33L55 32L56 32L56 30L57 30L57 29L56 29L56 28L55 28L55 29L56 29L56 30L53 30L53 32L51 32L51 33L50 33L50 30L51 30L51 29L50 29L50 30L48 30L48 32L49 32L49 33L47 33L47 31L45 31L45 28L44 28L44 27L43 27L43 26L47 26L47 23L46 23L46 22L48 22L48 24L49 24L49 23L50 23L50 22L51 22L51 21L52 21L52 22L53 22L53 20L52 20L52 19L50 19L50 22L48 22L48 20L49 20L49 19L46 19L46 20L47 20L47 21L45 21L45 20L44 20L44 18L47 18L47 17L45 17L45 16L44 16L44 18L42 18L42 19L41 19L41 20L40 20L40 22L39 22L39 21L38 21L38 20L39 20L39 19L40 19L40 18L41 18L41 16L40 16L40 17L37 17L37 19L36 19L36 18L35 18L35 16L38 16L38 14L39 14L39 13L41 13L41 14L40 14L40 15L41 15L41 14L42 14L42 17L43 17L43 14L45 14L45 15L46 15L46 14L48 14L48 13L46 13L46 14L45 14L45 12L44 12L44 11L45 11L45 10L47 10L47 11L48 11L48 10L49 10L49 9L50 9L50 10L51 10L51 9L50 9L50 8L51 8L51 7L52 7L52 6L51 6L51 7L50 7L50 5L52 5L52 4L53 4L53 3L52 3L52 4L51 4L51 2L52 2L52 1L51 1L51 2L50 2L50 3L49 3L49 4L48 4L48 3L47 3L47 4L46 4L46 5L47 5L47 8L44 8L44 9L43 9L43 8L42 8L42 9L43 9L43 10L40 10L40 9L41 9L41 8L39 8L39 7L40 7L40 6L41 6L41 7L42 7L42 6L43 6L43 7L44 7L44 6L43 6L43 5L42 5L42 6L41 6L41 5L40 5L40 6L39 6L39 7L38 7L38 10L36 10L36 9L33 9L33 10L32 10L32 9L31 9L31 10L30 10L30 8L29 8L29 9L28 9L28 11L27 11L27 12L26 12L26 13L27 13L27 14L25 14L25 13L24 13L24 11L25 11L25 10L21 10L21 9L20 9L20 10L19 10L19 9L16 9L16 10L15 10L15 11L14 11L14 9L15 9L15 8L13 8L13 7L14 7L14 6L15 6L15 7L16 7L16 8L20 8L20 6L19 6L19 7L18 7L18 5L17 5L17 7L16 7L16 4L18 4L18 3L16 3L16 1ZM36 1L36 2L35 2L35 3L37 3L37 1ZM25 2L25 3L26 3L26 4L27 4L27 3L26 3L26 2ZM33 2L33 3L32 3L32 4L34 4L34 2ZM42 2L42 3L43 3L43 2ZM8 3L8 4L9 4L9 3ZM15 3L15 4L14 4L14 5L13 5L13 6L12 6L12 7L13 7L13 6L14 6L14 5L15 5L15 4L16 4L16 3ZM20 3L20 4L22 4L22 3ZM49 4L49 5L48 5L48 7L49 7L49 5L50 5L50 4ZM31 5L31 8L34 8L34 5ZM10 6L10 7L11 7L11 6ZM29 6L29 7L30 7L30 6ZM32 6L32 7L33 7L33 6ZM45 6L45 7L46 7L46 6ZM53 6L53 7L54 7L54 6ZM56 6L56 7L57 7L57 6ZM36 7L36 8L37 8L37 7ZM47 8L47 9L49 9L49 8ZM59 8L59 9L60 9L60 10L61 10L61 11L63 11L63 10L62 10L62 8L61 8L61 9L60 9L60 8ZM63 8L63 9L64 9L64 10L65 10L65 9L64 9L64 8ZM6 9L6 10L5 10L5 11L6 11L6 12L7 12L7 11L6 11L6 10L7 10L7 9ZM44 9L44 10L45 10L45 9ZM0 10L0 11L1 11L1 10ZM18 10L18 11L19 11L19 12L15 12L15 13L14 13L14 11L12 11L12 12L10 12L10 13L11 13L11 14L10 14L10 16L11 16L11 15L12 15L12 18L10 18L10 17L9 17L9 14L8 14L8 15L7 15L7 14L6 14L6 15L5 15L5 16L4 16L4 18L6 18L6 19L4 19L4 20L3 20L3 19L2 19L2 20L3 20L3 21L7 21L7 22L6 22L6 23L4 23L4 24L6 24L6 25L7 25L7 24L6 24L6 23L7 23L7 22L8 22L8 23L9 23L9 24L8 24L8 25L9 25L9 26L8 26L8 27L9 27L9 26L10 26L10 21L11 21L11 19L12 19L12 20L13 20L13 21L12 21L12 22L13 22L13 21L14 21L14 20L15 20L15 21L16 21L16 20L17 20L17 21L18 21L18 20L17 20L17 19L18 19L18 18L15 18L15 19L14 19L14 20L13 20L13 14L15 14L15 13L17 13L17 14L16 14L16 15L17 15L17 14L18 14L18 13L19 13L19 12L20 12L20 11L19 11L19 10ZM34 10L34 11L32 11L32 12L34 12L34 13L33 13L33 14L31 14L31 15L32 15L32 16L31 16L31 17L30 17L30 18L32 18L32 16L34 16L34 15L37 15L37 14L36 14L36 13L38 13L38 12L41 12L41 11L39 11L39 10L38 10L38 11L37 11L37 12L35 12L35 11L36 11L36 10ZM42 11L42 12L43 12L43 11ZM54 12L54 13L55 13L55 12ZM60 12L60 14L57 14L57 15L59 15L59 16L60 16L60 17L62 17L62 18L61 18L61 19L63 19L63 18L65 18L65 15L64 15L64 16L62 16L62 15L63 15L63 12L62 12L62 13L61 13L61 12ZM12 13L12 14L13 14L13 13ZM34 13L34 14L35 14L35 13ZM42 13L42 14L43 14L43 13ZM50 13L50 14L51 14L51 13ZM64 13L64 14L65 14L65 13ZM52 14L52 15L53 15L53 14ZM6 15L6 16L7 16L7 17L6 17L6 18L7 18L7 19L6 19L6 20L9 20L9 21L8 21L8 22L9 22L9 21L10 21L10 18L9 18L9 17L8 17L8 16L7 16L7 15ZM60 15L60 16L61 16L61 15ZM21 16L21 17L20 17L20 20L21 20L21 21L20 21L20 22L19 22L19 23L21 23L21 21L22 21L22 23L24 23L24 22L23 22L23 21L25 21L25 20L23 20L23 21L22 21L22 20L21 20L21 19L22 19L22 17L23 17L23 16ZM25 16L25 17L26 17L26 16ZM7 17L7 18L8 18L8 19L9 19L9 18L8 18L8 17ZM56 17L56 18L57 18L57 17ZM38 18L38 19L39 19L39 18ZM64 19L64 20L65 20L65 19ZM43 20L43 21L42 21L42 22L40 22L40 23L39 23L39 22L36 22L36 23L37 23L37 24L36 24L36 25L35 25L35 24L34 24L34 23L35 23L35 22L34 22L34 23L33 23L33 22L30 22L30 24L31 24L31 23L32 23L32 24L33 24L33 25L35 25L35 26L31 26L31 25L29 25L29 28L28 28L28 27L26 27L26 28L24 28L24 30L23 30L23 29L22 29L22 31L23 31L23 32L24 32L24 31L25 31L25 33L22 33L22 32L20 32L20 33L19 33L19 31L20 31L20 30L18 30L18 31L17 31L17 32L16 32L16 31L15 31L15 32L16 32L16 33L15 33L15 34L16 34L16 33L19 33L19 34L18 34L18 35L17 35L17 36L18 36L18 37L17 37L17 39L18 39L18 38L19 38L19 35L22 35L22 34L25 34L25 35L24 35L24 36L23 36L23 38L25 38L25 37L26 37L26 38L27 38L27 39L24 39L24 40L27 40L27 41L26 41L26 42L25 42L25 43L26 43L26 42L27 42L27 41L30 41L30 42L29 42L29 43L27 43L27 44L28 44L28 45L30 45L30 43L31 43L31 44L32 44L32 45L34 45L34 46L35 46L35 45L39 45L39 44L41 44L41 42L43 42L43 43L42 43L42 44L43 44L43 45L40 45L40 46L41 46L41 47L39 47L39 46L38 46L38 47L39 47L39 48L35 48L35 49L34 49L34 50L35 50L35 49L37 49L37 50L36 50L36 51L37 51L37 50L38 50L38 51L39 51L39 52L38 52L38 53L37 53L37 54L36 54L36 55L37 55L37 56L36 56L36 57L37 57L37 58L36 58L36 59L40 59L40 58L41 58L41 57L40 57L40 56L39 56L39 58L38 58L38 55L39 55L39 54L38 54L38 53L39 53L39 52L42 52L42 51L40 51L40 50L43 50L43 49L44 49L44 50L46 50L46 51L48 51L48 50L49 50L49 49L50 49L50 48L48 48L48 50L46 50L46 49L47 49L47 48L46 48L46 47L47 47L47 46L46 46L46 44L45 44L45 43L44 43L44 41L40 41L40 40L41 40L41 38L40 38L40 37L39 37L39 36L41 36L41 35L40 35L40 34L43 34L43 35L42 35L42 36L43 36L43 37L42 37L42 38L43 38L43 39L42 39L42 40L43 40L43 39L44 39L44 40L45 40L45 39L46 39L46 40L47 40L47 42L48 42L48 41L49 41L49 40L47 40L47 38L48 38L48 39L49 39L49 38L50 38L50 36L46 36L46 35L47 35L47 34L46 34L46 32L45 32L45 31L44 31L44 32L43 32L43 31L42 31L42 32L43 32L43 33L39 33L39 32L38 32L38 33L37 33L37 32L35 32L35 31L39 31L39 30L38 30L38 29L37 29L37 28L39 28L39 27L40 27L40 28L41 28L41 27L42 27L42 26L43 26L43 25L42 25L42 22L43 22L43 21L44 21L44 22L45 22L45 21L44 21L44 20ZM62 20L62 21L63 21L63 20ZM58 21L58 22L59 22L59 21ZM14 23L14 24L16 24L16 23ZM44 23L44 24L46 24L46 23ZM62 23L62 24L61 24L61 25L62 25L62 24L63 24L63 23ZM37 24L37 25L38 25L38 26L36 26L36 28L37 28L37 27L38 27L38 26L39 26L39 25L41 25L41 24L39 24L39 25L38 25L38 24ZM6 26L6 27L7 27L7 26ZM30 26L30 27L31 27L31 28L29 28L29 29L28 29L28 30L29 30L29 29L30 29L30 30L31 30L31 29L32 29L32 30L36 30L36 29L33 29L33 28L32 28L32 27L31 27L31 26ZM40 26L40 27L41 27L41 26ZM54 26L54 27L55 27L55 26ZM12 27L12 28L13 28L13 27ZM34 27L34 28L35 28L35 27ZM57 27L57 28L58 28L58 27ZM64 27L64 28L62 28L62 29L64 29L64 28L65 28L65 27ZM26 28L26 29L25 29L25 30L26 30L26 33L25 33L25 34L26 34L26 35L25 35L25 36L24 36L24 37L25 37L25 36L26 36L26 37L27 37L27 34L26 34L26 33L28 33L28 34L29 34L29 33L30 33L30 32L29 32L29 33L28 33L28 32L27 32L27 30L26 30L26 29L27 29L27 28ZM43 28L43 29L42 29L42 30L44 30L44 28ZM52 28L52 29L54 29L54 28ZM15 29L15 30L16 30L16 29ZM40 29L40 32L41 32L41 29ZM5 31L5 34L8 34L8 31ZM31 31L31 34L34 34L34 31ZM54 31L54 32L55 32L55 31ZM57 31L57 34L60 34L60 31ZM62 31L62 32L63 32L63 31ZM6 32L6 33L7 33L7 32ZM32 32L32 33L33 33L33 32ZM44 32L44 33L43 33L43 34L44 34L44 35L45 35L45 32ZM58 32L58 33L59 33L59 32ZM20 33L20 34L21 34L21 33ZM38 33L38 34L39 34L39 33ZM35 34L35 35L36 35L36 36L37 36L37 39L36 39L36 40L38 40L38 42L39 42L39 40L38 40L38 38L39 38L39 39L40 39L40 38L39 38L39 37L38 37L38 35L37 35L37 34ZM54 34L54 37L56 37L56 36L55 36L55 34ZM28 35L28 36L31 36L31 37L28 37L28 39L27 39L27 40L28 40L28 39L29 39L29 40L30 40L30 39L31 39L31 42L32 42L32 43L33 43L33 44L34 44L34 43L36 43L36 44L38 44L38 43L36 43L36 42L37 42L37 41L35 41L35 42L34 42L34 43L33 43L33 41L32 41L32 40L33 40L33 39L32 39L32 38L33 38L33 37L34 37L34 39L35 39L35 37L34 37L34 35L33 35L33 37L32 37L32 35ZM59 35L59 36L60 36L60 37L61 37L61 38L62 38L62 40L63 40L63 38L64 38L64 37L63 37L63 38L62 38L62 37L61 37L61 36L60 36L60 35ZM62 35L62 36L63 36L63 35ZM6 36L6 37L7 37L7 36ZM20 36L20 37L22 37L22 36ZM44 36L44 37L45 37L45 38L47 38L47 37L46 37L46 36ZM57 36L57 37L58 37L58 36ZM12 37L12 38L9 38L9 39L8 39L8 40L10 40L10 41L12 41L12 40L11 40L11 39L13 39L13 41L15 41L15 40L16 40L16 41L17 41L17 40L16 40L16 39L15 39L15 40L14 40L14 39L13 39L13 38L14 38L14 37ZM31 37L31 38L32 38L32 37ZM29 38L29 39L30 39L30 38ZM4 39L4 40L3 40L3 41L7 41L7 40L5 40L5 39ZM54 41L54 42L55 42L55 41ZM22 42L22 43L23 43L23 42ZM62 42L62 43L60 43L60 44L61 44L61 45L60 45L60 46L62 46L62 45L64 45L64 44L65 44L65 43L63 43L63 42ZM43 43L43 44L44 44L44 46L42 46L42 47L43 47L43 48L44 48L44 49L45 49L45 48L44 48L44 46L45 46L45 44L44 44L44 43ZM62 43L62 44L63 44L63 43ZM8 45L8 47L9 47L9 48L10 48L10 45ZM19 45L19 46L20 46L20 47L18 47L18 49L19 49L19 50L20 50L20 51L21 51L21 52L19 52L19 53L18 53L18 55L19 55L19 54L20 54L20 55L21 55L21 56L20 56L20 57L19 57L19 58L20 58L20 57L21 57L21 56L23 56L23 55L22 55L22 53L23 53L23 52L24 52L24 51L25 51L25 52L26 52L26 50L25 50L25 49L22 49L22 51L21 51L21 50L20 50L20 49L21 49L21 48L22 48L22 47L21 47L21 45ZM36 46L36 47L37 47L37 46ZM40 48L40 49L42 49L42 48ZM58 48L58 49L59 49L59 48ZM8 49L8 50L9 50L9 49ZM38 49L38 50L39 50L39 49ZM29 50L29 51L30 51L30 52L31 52L31 51L30 51L30 50ZM2 51L2 52L3 52L3 51ZM44 51L44 52L45 52L45 51ZM52 51L52 52L53 52L53 51ZM21 52L21 53L20 53L20 54L21 54L21 53L22 53L22 52ZM27 52L27 53L26 53L26 54L25 54L25 53L24 53L24 54L25 54L25 55L29 55L29 56L27 56L27 57L26 57L26 58L27 58L27 57L29 57L29 56L30 56L30 54L28 54L28 53L29 53L29 52ZM47 52L47 54L46 54L46 55L47 55L47 54L50 54L50 53L51 53L51 52ZM62 52L62 53L63 53L63 52ZM60 53L60 55L61 55L61 56L62 56L62 57L63 57L63 56L62 56L62 54L61 54L61 53ZM37 54L37 55L38 55L38 54ZM54 55L54 56L56 56L56 55ZM31 57L31 60L34 60L34 57ZM57 57L57 60L60 60L60 57ZM32 58L32 59L33 59L33 58ZM45 58L45 59L46 59L46 58ZM48 58L48 59L49 59L49 58ZM58 58L58 59L59 59L59 58ZM11 59L11 60L10 60L10 61L9 61L9 62L10 62L10 61L11 61L11 60L12 60L12 59ZM24 59L24 60L25 60L25 59ZM54 59L54 60L55 60L55 59ZM62 59L62 60L61 60L61 61L60 61L60 62L61 62L61 64L63 64L63 63L62 63L62 62L63 62L63 61L62 61L62 60L64 60L64 59ZM38 60L38 61L39 61L39 60ZM34 61L34 62L32 62L32 63L34 63L34 64L35 64L35 63L36 63L36 64L37 64L37 63L36 63L36 62L35 62L35 61ZM50 61L50 62L51 62L51 61ZM58 61L58 62L59 62L59 61ZM18 62L18 63L20 63L20 62ZM46 62L46 63L44 63L44 64L45 64L45 65L47 65L47 62ZM15 63L15 64L16 64L16 65L17 65L17 64L16 64L16 63ZM52 63L52 64L53 64L53 65L57 65L57 64L55 64L55 63ZM18 64L18 65L19 65L19 64ZM27 64L27 65L31 65L31 64ZM48 64L48 65L50 65L50 64ZM0 0L0 7L7 7L7 0ZM1 1L1 6L6 6L6 1ZM2 2L2 5L5 5L5 2ZM58 0L58 7L65 7L65 0ZM59 1L59 6L64 6L64 1ZM60 2L60 5L63 5L63 2ZM0 58L0 65L7 65L7 58ZM1 59L1 64L6 64L6 59ZM2 60L2 63L5 63L5 60Z" fill="#000000"/></g></g></svg>
