<?xml version="1.0" encoding="UTF-8"?>
<svg xmlns="http://www.w3.org/2000/svg" version="1.1" width="300" height="300" viewBox="0 0 300 300"><rect x="0" y="0" width="300" height="300" fill="#ffffff"/><g transform="scale(4.615)"><g transform="translate(0,0)"><path fill-rule="evenodd" d="M10 0L10 1L11 1L11 0ZM17 0L17 1L16 1L16 2L18 2L18 0ZM22 0L22 2L21 2L21 1L20 1L20 4L18 4L18 3L17 3L17 4L16 4L16 3L15 3L15 2L13 2L13 1L12 1L12 2L13 2L13 4L12 4L12 3L10 3L10 4L9 4L9 3L8 3L8 4L9 4L9 5L8 5L8 7L9 7L9 6L10 6L10 8L6 8L6 9L5 9L5 8L0 8L0 9L3 9L3 10L5 10L5 11L4 11L4 12L3 12L3 17L4 17L4 19L2 19L2 16L1 16L1 17L0 17L0 18L1 18L1 20L0 20L0 24L1 24L1 25L0 25L0 30L1 30L1 29L2 29L2 33L3 33L3 34L2 34L2 35L4 35L4 36L6 36L6 37L7 37L7 36L8 36L8 38L9 38L9 37L10 37L10 36L11 36L11 35L12 35L12 37L13 37L13 38L10 38L10 39L13 39L13 38L16 38L16 39L17 39L17 40L16 40L16 41L17 41L17 40L18 40L18 41L19 41L19 43L18 43L18 42L15 42L15 40L14 40L14 42L12 42L12 40L11 40L11 42L12 42L12 44L13 44L13 43L15 43L15 44L16 44L16 43L18 43L18 45L20 45L20 44L19 44L19 43L21 43L21 44L22 44L22 43L23 43L23 42L26 42L26 44L27 44L27 43L28 43L28 45L29 45L29 43L30 43L30 44L31 44L31 43L32 43L32 45L33 45L33 44L34 44L34 45L37 45L37 46L36 46L36 47L37 47L37 46L38 46L38 47L39 47L39 48L41 48L41 49L39 49L39 50L37 50L37 49L38 49L38 48L36 48L36 50L35 50L35 49L34 49L34 48L35 48L35 47L34 47L34 46L32 46L32 49L33 49L33 50L35 50L35 51L30 51L30 50L31 50L31 49L30 49L30 50L28 50L28 49L29 49L29 48L28 48L28 47L30 47L30 48L31 48L31 45L30 45L30 46L27 46L27 45L26 45L26 46L25 46L25 43L24 43L24 44L23 44L23 45L22 45L22 46L21 46L21 48L20 48L20 49L19 49L19 47L20 47L20 46L19 46L19 47L18 47L18 46L17 46L17 47L18 47L18 49L19 49L19 50L18 50L18 51L17 51L17 50L16 50L16 51L17 51L17 52L16 52L16 53L15 53L15 51L14 51L14 50L13 50L13 49L17 49L17 48L16 48L16 47L15 47L15 46L16 46L16 45L15 45L15 46L14 46L14 45L12 45L12 46L11 46L11 47L10 47L10 45L9 45L9 48L10 48L10 49L8 49L8 48L4 48L4 47L3 47L3 48L2 48L2 49L1 49L1 46L3 46L3 43L4 43L4 42L5 42L5 43L9 43L9 42L10 42L10 41L8 41L8 42L5 42L5 40L6 40L6 41L7 41L7 40L6 40L6 39L7 39L7 38L5 38L5 40L4 40L4 37L3 37L3 39L2 39L2 38L1 38L1 37L0 37L0 38L1 38L1 39L0 39L0 40L1 40L1 39L2 39L2 41L1 41L1 46L0 46L0 54L2 54L2 55L3 55L3 56L1 56L1 55L0 55L0 56L1 56L1 57L3 57L3 56L4 56L4 57L5 57L5 56L4 56L4 54L5 54L5 55L7 55L7 56L6 56L6 57L8 57L8 59L9 59L9 57L8 57L8 55L9 55L9 56L10 56L10 62L12 62L12 61L13 61L13 63L12 63L12 64L13 64L13 63L14 63L14 62L15 62L15 63L16 63L16 65L19 65L19 64L20 64L20 65L21 65L21 63L23 63L23 65L24 65L24 63L23 63L23 62L24 62L24 61L26 61L26 62L27 62L27 63L26 63L26 64L25 64L25 65L26 65L26 64L28 64L28 65L29 65L29 63L28 63L28 61L29 61L29 60L28 60L28 59L26 59L26 60L24 60L24 58L25 58L25 57L26 57L26 58L27 58L27 57L30 57L30 61L31 61L31 62L30 62L30 63L32 63L32 62L33 62L33 64L30 64L30 65L33 65L33 64L34 64L34 65L35 65L35 64L34 64L34 63L35 63L35 62L34 62L34 61L37 61L37 62L36 62L36 63L39 63L39 62L40 62L40 64L41 64L41 65L44 65L44 64L45 64L45 65L46 65L46 64L47 64L47 65L52 65L52 64L54 64L54 65L55 65L55 64L56 64L56 65L63 65L63 64L64 64L64 60L65 60L65 59L64 59L64 60L61 60L61 57L63 57L63 58L62 58L62 59L63 59L63 58L65 58L65 56L64 56L64 54L65 54L65 53L63 53L63 52L64 52L64 50L65 50L65 49L64 49L64 48L62 48L62 47L63 47L63 46L62 46L62 47L60 47L60 46L61 46L61 45L59 45L59 43L57 43L57 42L58 42L58 40L61 40L61 38L63 38L63 37L64 37L64 38L65 38L65 37L64 37L64 36L65 36L65 35L64 35L64 34L65 34L65 33L64 33L64 34L62 34L62 35L61 35L61 33L63 33L63 32L62 32L62 31L63 31L63 30L62 30L62 29L64 29L64 28L65 28L65 27L63 27L63 26L65 26L65 25L63 25L63 24L62 24L62 22L61 22L61 20L59 20L59 22L58 22L58 24L59 24L59 22L61 22L61 24L60 24L60 25L61 25L61 24L62 24L62 25L63 25L63 26L62 26L62 27L61 27L61 28L59 28L59 27L60 27L60 26L58 26L58 25L57 25L57 23L54 23L54 24L56 24L56 25L53 25L53 26L55 26L55 27L58 27L58 28L56 28L56 29L57 29L57 30L56 30L56 32L53 32L53 31L54 31L54 30L55 30L55 28L54 28L54 27L51 27L51 26L52 26L52 25L51 25L51 24L50 24L50 25L49 25L49 24L47 24L47 22L46 22L46 21L49 21L49 22L48 22L48 23L49 23L49 22L50 22L50 23L52 23L52 24L53 24L53 23L52 23L52 22L55 22L55 21L54 21L54 20L55 20L55 19L52 19L52 18L50 18L50 19L49 19L49 18L48 18L48 19L47 19L47 18L44 18L44 17L42 17L42 16L41 16L41 14L44 14L44 12L45 12L45 11L46 11L46 13L47 13L47 14L46 14L46 15L44 15L44 16L45 16L45 17L47 17L47 16L48 16L48 17L49 17L49 16L51 16L51 17L52 17L52 16L53 16L53 15L52 15L52 14L53 14L53 13L54 13L54 14L56 14L56 15L57 15L57 16L55 16L55 15L54 15L54 16L55 16L55 17L53 17L53 18L55 18L55 17L59 17L59 16L58 16L58 15L61 15L61 16L60 16L60 18L58 18L58 19L60 19L60 18L61 18L61 19L63 19L63 20L62 20L62 21L63 21L63 22L65 22L65 19L64 19L64 18L65 18L65 15L64 15L64 16L62 16L62 15L63 15L63 14L62 14L62 15L61 15L61 13L64 13L64 14L65 14L65 12L62 12L62 11L63 11L63 10L65 10L65 9L64 9L64 8L63 8L63 9L62 9L62 8L61 8L61 10L60 10L60 11L61 11L61 12L59 12L59 13L60 13L60 14L56 14L56 13L57 13L57 12L58 12L58 11L59 11L59 10L58 10L58 11L57 11L57 12L56 12L56 9L58 9L58 8L55 8L55 9L54 9L54 10L55 10L55 12L54 12L54 11L52 11L52 10L53 10L53 9L51 9L51 10L50 10L50 11L52 11L52 12L53 12L53 13L51 13L51 14L50 14L50 12L48 12L48 13L47 13L47 11L49 11L49 9L50 9L50 8L51 8L51 6L52 6L52 8L53 8L53 6L54 6L54 7L55 7L55 5L54 5L54 4L56 4L56 5L57 5L57 4L56 4L56 3L57 3L57 1L56 1L56 0L55 0L55 1L56 1L56 3L55 3L55 2L54 2L54 3L53 3L53 2L52 2L52 1L50 1L50 2L49 2L49 3L47 3L47 1L46 1L46 0L45 0L45 1L43 1L43 0L41 0L41 1L40 1L40 0L39 0L39 1L38 1L38 2L39 2L39 1L40 1L40 3L42 3L42 5L44 5L44 3L45 3L45 4L46 4L46 3L47 3L47 5L46 5L46 7L45 7L45 6L44 6L44 8L45 8L45 9L47 9L47 10L43 10L43 9L39 9L39 10L38 10L38 8L36 8L36 7L37 7L37 6L36 6L36 5L38 5L38 7L39 7L39 8L41 8L41 5L40 5L40 4L39 4L39 3L38 3L38 4L37 4L37 3L36 3L36 5L35 5L35 4L32 4L32 3L35 3L35 2L36 2L36 0L35 0L35 1L34 1L34 2L30 2L30 3L31 3L31 4L30 4L30 7L29 7L29 5L27 5L27 6L26 6L26 7L25 7L25 6L24 6L24 5L25 5L25 4L29 4L29 3L27 3L27 2L28 2L28 1L27 1L27 0ZM29 0L29 1L33 1L33 0ZM53 0L53 1L54 1L54 0ZM8 1L8 2L9 2L9 1ZM23 1L23 4L22 4L22 3L21 3L21 4L20 4L20 5L19 5L19 8L21 8L21 7L22 7L22 6L21 6L21 7L20 7L20 5L21 5L21 4L22 4L22 5L24 5L24 4L25 4L25 3L26 3L26 2L25 2L25 1ZM42 1L42 3L43 3L43 1ZM24 2L24 3L25 3L25 2ZM45 2L45 3L46 3L46 2ZM50 2L50 3L51 3L51 4L50 4L50 5L49 5L49 4L48 4L48 5L49 5L49 7L48 7L48 6L47 6L47 7L46 7L46 8L47 8L47 7L48 7L48 8L50 8L50 5L53 5L53 3L51 3L51 2ZM14 3L14 4L13 4L13 5L12 5L12 6L11 6L11 7L12 7L12 8L11 8L11 9L6 9L6 10L11 10L11 9L13 9L13 10L14 10L14 11L13 11L13 12L12 12L12 13L13 13L13 12L15 12L15 13L14 13L14 14L12 14L12 15L13 15L13 16L11 16L11 12L10 12L10 11L5 11L5 13L4 13L4 14L5 14L5 15L6 15L6 16L4 16L4 17L5 17L5 19L4 19L4 21L5 21L5 20L7 20L7 19L6 19L6 18L8 18L8 17L9 17L9 18L10 18L10 17L9 17L9 15L10 15L10 16L11 16L11 18L12 18L12 19L13 19L13 20L15 20L15 21L16 21L16 22L15 22L15 23L16 23L16 24L19 24L19 25L18 25L18 26L17 26L17 25L15 25L15 24L14 24L14 21L12 21L12 22L13 22L13 23L11 23L11 24L13 24L13 25L12 25L12 26L10 26L10 25L9 25L9 24L10 24L10 23L9 23L9 24L8 24L8 25L6 25L6 24L7 24L7 23L6 23L6 24L5 24L5 26L4 26L4 27L2 27L2 26L3 26L3 25L4 25L4 24L3 24L3 22L1 22L1 24L3 24L3 25L1 25L1 28L2 28L2 29L6 29L6 30L7 30L7 29L8 29L8 30L9 30L9 32L10 32L10 31L11 31L11 33L10 33L10 34L12 34L12 31L13 31L13 33L15 33L15 36L13 36L13 37L15 37L15 36L16 36L16 34L18 34L18 35L17 35L17 36L18 36L18 37L16 37L16 38L18 38L18 39L19 39L19 40L21 40L21 41L20 41L20 42L21 42L21 43L22 43L22 42L21 42L21 41L25 41L25 40L26 40L26 41L27 41L27 40L30 40L30 41L28 41L28 43L29 43L29 42L30 42L30 41L31 41L31 42L33 42L33 41L34 41L34 43L35 43L35 44L39 44L39 45L38 45L38 46L39 46L39 45L41 45L41 44L42 44L42 43L43 43L43 44L44 44L44 45L43 45L43 46L42 46L42 47L41 47L41 46L40 46L40 47L41 47L41 48L42 48L42 49L43 49L43 50L40 50L40 51L41 51L41 52L40 52L40 53L38 53L38 51L37 51L37 50L36 50L36 51L35 51L35 52L37 52L37 53L32 53L32 52L31 52L31 53L30 53L30 52L29 52L29 53L28 53L28 52L27 52L27 50L26 50L26 49L27 49L27 46L26 46L26 47L25 47L25 48L24 48L24 47L23 47L23 46L24 46L24 45L23 45L23 46L22 46L22 47L23 47L23 48L21 48L21 49L20 49L20 51L19 51L19 52L22 52L22 53L20 53L20 54L18 54L18 55L17 55L17 56L18 56L18 55L19 55L19 56L21 56L21 57L20 57L20 58L22 58L22 57L23 57L23 55L25 55L25 54L23 54L23 53L26 53L26 55L27 55L27 54L30 54L30 55L31 55L31 56L32 56L32 55L33 55L33 54L34 54L34 55L35 55L35 57L36 57L36 56L37 56L37 57L38 57L38 58L39 58L39 59L38 59L38 62L39 62L39 59L41 59L41 60L40 60L40 62L41 62L41 63L43 63L43 62L41 62L41 61L43 61L43 60L42 60L42 59L45 59L45 58L44 58L44 57L45 57L45 56L46 56L46 58L47 58L47 59L46 59L46 60L49 60L49 62L51 62L51 63L53 63L53 61L55 61L55 62L54 62L54 64L55 64L55 63L57 63L57 64L59 64L59 61L57 61L57 62L56 62L56 61L55 61L55 60L56 60L56 59L55 59L55 58L56 58L56 56L58 56L58 55L59 55L59 56L63 56L63 57L64 57L64 56L63 56L63 55L62 55L62 54L63 54L63 53L62 53L62 52L63 52L63 51L62 51L62 52L61 52L61 50L63 50L63 49L62 49L62 48L58 48L58 47L59 47L59 45L58 45L58 44L55 44L55 43L56 43L56 42L57 42L57 41L56 41L56 40L57 40L57 39L60 39L60 37L61 37L61 36L60 36L60 35L59 35L59 36L57 36L57 35L56 35L56 33L55 33L55 34L53 34L53 35L54 35L54 37L55 37L55 38L54 38L54 40L50 40L50 41L47 41L47 39L46 39L46 38L48 38L48 40L49 40L49 38L48 38L48 36L50 36L50 38L51 38L51 39L53 39L53 36L52 36L52 35L46 35L46 36L47 36L47 37L45 37L45 36L44 36L44 37L43 37L43 35L45 35L45 34L48 34L48 32L49 32L49 33L50 33L50 34L51 34L51 33L50 33L50 32L52 32L52 33L53 33L53 32L52 32L52 31L50 31L50 30L51 30L51 28L49 28L49 27L48 27L48 26L49 26L49 25L48 25L48 26L47 26L47 24L44 24L44 23L45 23L45 22L44 22L44 23L43 23L43 22L42 22L42 21L43 21L43 20L44 20L44 21L46 21L46 20L44 20L44 19L43 19L43 18L42 18L42 17L41 17L41 16L39 16L39 15L40 15L40 13L43 13L43 12L44 12L44 11L43 11L43 10L42 10L42 11L41 11L41 10L40 10L40 11L39 11L39 13L34 13L34 12L35 12L35 11L36 11L36 12L38 12L38 10L37 10L37 9L34 9L34 10L35 10L35 11L34 11L34 12L32 12L32 11L33 11L33 9L30 9L30 11L31 11L31 12L30 12L30 13L29 13L29 12L28 12L28 14L26 14L26 13L27 13L27 10L26 10L26 9L28 9L28 10L29 10L29 9L28 9L28 8L29 8L29 7L28 7L28 6L27 6L27 7L28 7L28 8L25 8L25 7L24 7L24 6L23 6L23 8L22 8L22 9L23 9L23 10L22 10L22 11L23 11L23 12L20 12L20 11L21 11L21 9L20 9L20 11L19 11L19 9L18 9L18 6L17 6L17 5L18 5L18 4L17 4L17 5L16 5L16 4L15 4L15 3ZM38 4L38 5L39 5L39 7L40 7L40 5L39 5L39 4ZM13 5L13 6L12 6L12 7L13 7L13 9L14 9L14 7L15 7L15 8L16 8L16 7L17 7L17 6L16 6L16 7L15 7L15 6L14 6L14 5ZM31 5L31 8L34 8L34 5ZM13 6L13 7L14 7L14 6ZM32 6L32 7L33 7L33 6ZM35 6L35 7L36 7L36 6ZM42 6L42 8L43 8L43 6ZM56 6L56 7L57 7L57 6ZM23 8L23 9L24 9L24 10L25 10L25 11L24 11L24 12L23 12L23 13L22 13L22 14L21 14L21 15L22 15L22 16L23 16L23 15L24 15L24 16L25 16L25 17L24 17L24 18L23 18L23 17L21 17L21 16L19 16L19 15L20 15L20 14L18 14L18 15L17 15L17 16L18 16L18 17L16 17L16 19L15 19L15 18L14 18L14 17L15 17L15 16L16 16L16 15L15 15L15 14L17 14L17 13L20 13L20 12L19 12L19 11L17 11L17 10L15 10L15 12L17 12L17 13L15 13L15 14L14 14L14 16L13 16L13 17L12 17L12 18L13 18L13 19L15 19L15 20L16 20L16 19L17 19L17 20L18 20L18 21L17 21L17 22L18 22L18 23L19 23L19 24L20 24L20 25L19 25L19 26L18 26L18 27L17 27L17 26L15 26L15 25L14 25L14 26L12 26L12 27L11 27L11 29L9 29L9 30L12 30L12 29L13 29L13 30L15 30L15 31L16 31L16 33L17 33L17 29L19 29L19 30L18 30L18 33L19 33L19 32L20 32L20 33L21 33L21 30L24 30L24 29L25 29L25 31L27 31L27 29L25 29L25 25L24 25L24 27L23 27L23 25L21 25L21 24L23 24L23 23L22 23L22 22L21 22L21 24L20 24L20 21L22 21L22 20L19 20L19 18L18 18L18 17L21 17L21 18L20 18L20 19L22 19L22 18L23 18L23 19L24 19L24 18L25 18L25 17L26 17L26 18L27 18L27 17L29 17L29 20L28 20L28 19L27 19L27 20L28 20L28 21L30 21L30 20L31 20L31 21L32 21L32 22L33 22L33 23L30 23L30 24L29 24L29 22L28 22L28 25L26 25L26 26L27 26L27 27L26 27L26 28L28 28L28 27L29 27L29 28L31 28L31 29L29 29L29 30L30 30L30 31L28 31L28 32L27 32L27 33L26 33L26 32L25 32L25 33L24 33L24 31L23 31L23 33L22 33L22 35L19 35L19 36L20 36L20 37L18 37L18 38L19 38L19 39L21 39L21 40L22 40L22 39L23 39L23 40L24 40L24 38L25 38L25 37L30 37L30 38L28 38L28 39L30 39L30 40L31 40L31 39L32 39L32 37L33 37L33 39L34 39L34 40L35 40L35 41L36 41L36 42L35 42L35 43L36 43L36 42L37 42L37 41L38 41L38 40L39 40L39 42L38 42L38 43L40 43L40 44L41 44L41 43L42 43L42 42L43 42L43 41L42 41L42 38L43 38L43 37L42 37L42 38L41 38L41 37L39 37L39 36L38 36L38 37L39 37L39 38L37 38L37 36L35 36L35 33L37 33L37 32L36 32L36 31L38 31L38 33L39 33L39 32L41 32L41 31L39 31L39 30L38 30L38 29L39 29L39 28L43 28L43 29L40 29L40 30L44 30L44 31L42 31L42 32L43 32L43 33L41 33L41 34L36 34L36 35L40 35L40 36L41 36L41 35L42 35L42 34L43 34L43 33L44 33L44 34L45 34L45 33L47 33L47 32L46 32L46 31L47 31L47 30L44 30L44 28L45 28L45 29L49 29L49 28L48 28L48 27L47 27L47 26L45 26L45 27L44 27L44 25L42 25L42 24L43 24L43 23L42 23L42 22L40 22L40 23L39 23L39 22L38 22L38 23L37 23L37 20L38 20L38 19L39 19L39 21L40 21L40 20L41 20L41 19L40 19L40 18L36 18L36 17L37 17L37 16L34 16L34 15L35 15L35 14L33 14L33 13L32 13L32 12L31 12L31 13L30 13L30 14L31 14L31 15L28 15L28 16L27 16L27 17L26 17L26 14L25 14L25 11L26 11L26 10L25 10L25 9L24 9L24 8ZM59 8L59 9L60 9L60 8ZM0 10L0 15L1 15L1 11L2 11L2 10ZM31 10L31 11L32 11L32 10ZM36 10L36 11L37 11L37 10ZM40 11L40 12L41 12L41 11ZM42 11L42 12L43 12L43 11ZM6 12L6 13L5 13L5 14L6 14L6 15L7 15L7 14L8 14L8 15L9 15L9 13L10 13L10 12L9 12L9 13L8 13L8 12ZM6 13L6 14L7 14L7 13ZM23 13L23 14L22 14L22 15L23 15L23 14L24 14L24 13ZM32 14L32 15L31 15L31 16L30 16L30 17L31 17L31 18L33 18L33 19L34 19L34 20L37 20L37 19L34 19L34 18L35 18L35 17L34 17L34 18L33 18L33 16L32 16L32 15L33 15L33 14ZM36 14L36 15L37 15L37 14ZM38 14L38 15L39 15L39 14ZM48 14L48 16L49 16L49 15L50 15L50 14ZM46 15L46 16L47 16L47 15ZM51 15L51 16L52 16L52 15ZM6 16L6 17L8 17L8 16ZM38 16L38 17L39 17L39 16ZM61 16L61 18L62 18L62 16ZM17 18L17 19L18 19L18 18ZM56 18L56 19L57 19L57 18ZM9 19L9 20L8 20L8 21L6 21L6 22L11 22L11 19ZM25 19L25 20L26 20L26 19ZM42 19L42 20L43 20L43 19ZM48 19L48 20L49 20L49 19ZM50 19L50 22L51 22L51 21L53 21L53 20L51 20L51 19ZM2 20L2 21L3 21L3 20ZM9 20L9 21L10 21L10 20ZM32 20L32 21L33 21L33 22L35 22L35 23L34 23L34 24L35 24L35 25L33 25L33 24L32 24L32 25L31 25L31 24L30 24L30 25L28 25L28 26L29 26L29 27L33 27L33 28L32 28L32 29L31 29L31 30L32 30L32 29L33 29L33 30L35 30L35 31L36 31L36 30L35 30L35 28L37 28L37 29L38 29L38 28L39 28L39 27L37 27L37 25L38 25L38 26L39 26L39 25L38 25L38 24L37 24L37 23L36 23L36 22L35 22L35 21L33 21L33 20ZM56 20L56 21L57 21L57 20ZM23 21L23 22L25 22L25 23L24 23L24 24L25 24L25 23L27 23L27 22L26 22L26 21ZM64 23L64 24L65 24L65 23ZM36 24L36 25L35 25L35 26L34 26L34 27L35 27L35 26L36 26L36 25L37 25L37 24ZM40 24L40 25L41 25L41 24ZM8 25L8 26L9 26L9 25ZM20 25L20 28L19 28L19 29L21 29L21 28L22 28L22 29L24 29L24 28L23 28L23 27L22 27L22 26L21 26L21 25ZM30 25L30 26L31 26L31 25ZM32 25L32 26L33 26L33 25ZM50 25L50 26L51 26L51 25ZM56 25L56 26L57 26L57 25ZM5 26L5 28L6 28L6 29L7 29L7 28L6 28L6 27L7 27L7 26ZM14 26L14 28L13 28L13 29L14 29L14 28L15 28L15 26ZM41 26L41 27L43 27L43 28L44 28L44 27L43 27L43 26ZM16 27L16 29L15 29L15 30L16 30L16 29L17 29L17 27ZM46 27L46 28L47 28L47 27ZM62 27L62 28L61 28L61 29L59 29L59 28L58 28L58 30L61 30L61 31L62 31L62 30L61 30L61 29L62 29L62 28L63 28L63 27ZM52 28L52 29L54 29L54 28ZM19 30L19 31L20 31L20 30ZM48 30L48 31L49 31L49 30ZM0 31L0 32L1 32L1 31ZM5 31L5 34L8 34L8 31ZM31 31L31 34L34 34L34 31ZM57 31L57 34L60 34L60 31ZM64 31L64 32L65 32L65 31ZM6 32L6 33L7 33L7 32ZM29 32L29 33L27 33L27 34L29 34L29 33L30 33L30 32ZM32 32L32 33L33 33L33 32ZM44 32L44 33L45 33L45 32ZM58 32L58 33L59 33L59 32ZM0 33L0 34L1 34L1 33ZM13 34L13 35L14 35L14 34ZM23 34L23 35L24 35L24 37L25 37L25 36L26 36L26 35L24 35L24 34ZM0 35L0 36L1 36L1 35ZM6 35L6 36L7 36L7 35ZM9 35L9 36L10 36L10 35ZM28 35L28 36L31 36L31 37L32 37L32 36L34 36L34 35ZM55 35L55 36L56 36L56 35ZM62 35L62 36L63 36L63 35ZM21 36L21 37L20 37L20 38L21 38L21 39L22 39L22 38L23 38L23 37L22 37L22 36ZM21 37L21 38L22 38L22 37ZM44 37L44 38L45 38L45 37ZM56 37L56 38L57 38L57 37ZM58 37L58 38L59 38L59 37ZM30 38L30 39L31 39L31 38ZM34 38L34 39L36 39L36 40L38 40L38 39L37 39L37 38ZM40 38L40 39L39 39L39 40L40 40L40 41L41 41L41 40L40 40L40 39L41 39L41 38ZM26 39L26 40L27 40L27 39ZM43 39L43 40L46 40L46 39ZM55 39L55 40L54 40L54 41L51 41L51 42L50 42L50 43L51 43L51 42L52 42L52 44L50 44L50 45L51 45L51 46L49 46L49 44L48 44L48 46L46 46L46 44L45 44L45 43L47 43L47 42L45 42L45 41L44 41L44 44L45 44L45 45L44 45L44 46L45 46L45 47L44 47L44 48L45 48L45 47L48 47L48 46L49 46L49 48L47 48L47 49L49 49L49 50L48 50L48 51L49 51L49 50L50 50L50 51L51 51L51 52L48 52L48 54L50 54L50 55L49 55L49 56L48 56L48 57L47 57L47 58L48 58L48 57L49 57L49 59L50 59L50 61L51 61L51 62L52 62L52 60L53 60L53 59L54 59L54 60L55 60L55 59L54 59L54 58L55 58L55 56L56 56L56 55L57 55L57 54L56 54L56 53L52 53L52 54L50 54L50 53L51 53L51 52L53 52L53 51L52 51L52 50L55 50L55 51L54 51L54 52L57 52L57 51L58 51L58 54L59 54L59 53L60 53L60 54L61 54L61 53L60 53L60 52L59 52L59 51L58 51L58 50L59 50L59 49L58 49L58 48L57 48L57 47L54 47L54 48L53 48L53 47L52 47L52 46L53 46L53 45L54 45L54 46L56 46L56 45L54 45L54 44L53 44L53 42L55 42L55 40L56 40L56 39ZM63 39L63 40L62 40L62 41L59 41L59 42L62 42L62 41L64 41L64 42L65 42L65 41L64 41L64 40L65 40L65 39ZM32 40L32 41L33 41L33 40ZM2 41L2 43L3 43L3 41ZM40 42L40 43L41 43L41 42ZM48 42L48 43L49 43L49 42ZM10 43L10 44L11 44L11 43ZM60 43L60 44L61 44L61 43ZM4 44L4 46L5 46L5 47L8 47L8 46L6 46L6 45L7 45L7 44ZM52 44L52 45L53 45L53 44ZM62 44L62 45L63 45L63 44ZM57 45L57 46L58 46L58 45ZM13 46L13 48L14 48L14 46ZM11 47L11 49L12 49L12 47ZM42 47L42 48L43 48L43 47ZM50 47L50 48L52 48L52 49L53 49L53 48L52 48L52 47ZM55 48L55 49L57 49L57 48ZM2 49L2 50L4 50L4 49ZM5 49L5 51L6 51L6 52L4 52L4 51L2 51L2 54L3 54L3 52L4 52L4 53L5 53L5 54L7 54L7 53L8 53L8 52L7 52L7 51L6 51L6 50L7 50L7 49ZM21 49L21 51L22 51L22 50L23 50L23 52L24 52L24 51L25 51L25 52L26 52L26 51L25 51L25 49L24 49L24 50L23 50L23 49ZM50 49L50 50L51 50L51 49ZM60 49L60 50L61 50L61 49ZM8 50L8 51L9 51L9 53L10 53L10 51L9 51L9 50ZM43 50L43 51L42 51L42 52L43 52L43 51L44 51L44 52L46 52L46 53L47 53L47 52L46 52L46 51L47 51L47 50L45 50L45 51L44 51L44 50ZM56 50L56 51L57 51L57 50ZM12 51L12 52L11 52L11 55L12 55L12 53L13 53L13 51ZM6 52L6 53L7 53L7 52ZM17 52L17 53L16 53L16 54L17 54L17 53L18 53L18 52ZM31 53L31 55L32 55L32 53ZM42 53L42 54L43 54L43 53ZM44 53L44 55L42 55L42 56L45 56L45 55L46 55L46 56L47 56L47 54L45 54L45 53ZM9 54L9 55L10 55L10 54ZM13 54L13 58L12 58L12 56L11 56L11 59L12 59L12 60L11 60L11 61L12 61L12 60L13 60L13 58L14 58L14 59L16 59L16 58L17 58L17 60L16 60L16 61L15 61L15 62L16 62L16 61L18 61L18 62L17 62L17 64L19 64L19 63L20 63L20 62L19 62L19 61L21 61L21 60L22 60L22 61L24 61L24 60L22 60L22 59L20 59L20 60L19 60L19 59L18 59L18 58L19 58L19 57L18 57L18 58L17 58L17 57L16 57L16 58L15 58L15 55L14 55L14 54ZM20 54L20 55L22 55L22 54ZM36 54L36 55L37 55L37 54ZM38 54L38 55L39 55L39 56L38 56L38 57L39 57L39 58L40 58L40 56L41 56L41 55L39 55L39 54ZM52 54L52 55L53 55L53 56L49 56L49 57L50 57L50 58L51 58L51 59L53 59L53 56L54 56L54 55L56 55L56 54ZM28 55L28 56L29 56L29 55ZM24 56L24 57L25 57L25 56ZM26 56L26 57L27 57L27 56ZM31 57L31 60L34 60L34 57ZM41 57L41 58L43 58L43 57ZM57 57L57 60L60 60L60 57ZM32 58L32 59L33 59L33 58ZM36 58L36 59L35 59L35 60L37 60L37 58ZM58 58L58 59L59 59L59 58ZM8 60L8 65L10 65L10 64L11 64L11 63L9 63L9 60ZM18 60L18 61L19 61L19 60ZM26 60L26 61L27 61L27 60ZM44 60L44 63L45 63L45 64L46 64L46 62L47 62L47 61L46 61L46 62L45 62L45 60ZM60 61L60 62L61 62L61 61ZM18 62L18 63L19 63L19 62ZM48 63L48 64L49 64L49 63ZM62 63L62 64L63 64L63 63ZM14 64L14 65L15 65L15 64ZM36 64L36 65L37 65L37 64ZM38 64L38 65L39 65L39 64ZM0 0L0 7L7 7L7 0ZM1 1L1 6L6 6L6 1ZM2 2L2 5L5 5L5 2ZM58 0L58 7L65 7L65 0ZM59 1L59 6L64 6L64 1ZM60 2L60 5L63 5L63 2ZM0 58L0 65L7 65L7 58ZM1 59L1 64L6 64L6 59ZM2 60L2 63L5 63L5 60Z" fill="#000000"/></g></g></svg>
