<?xml version="1.0" encoding="UTF-8"?>
<svg xmlns="http://www.w3.org/2000/svg" version="1.1" width="300" height="300" viewBox="0 0 300 300"><rect x="0" y="0" width="300" height="300" fill="#ffffff"/><g transform="scale(4.615)"><g transform="translate(0,0)"><path fill-rule="evenodd" d="M9 0L9 1L8 1L8 2L10 2L10 3L11 3L11 1L13 1L13 0L11 0L11 1L10 1L10 0ZM15 0L15 1L14 1L14 2L16 2L16 3L14 3L14 5L15 5L15 6L14 6L14 7L13 7L13 6L12 6L12 4L10 4L10 5L8 5L8 7L9 7L9 8L6 8L6 9L8 9L8 10L4 10L4 11L3 11L3 10L2 10L2 9L5 9L5 8L0 8L0 9L1 9L1 11L0 11L0 12L1 12L1 13L3 13L3 14L0 14L0 16L1 16L1 17L0 17L0 20L1 20L1 21L0 21L0 24L1 24L1 26L0 26L0 28L2 28L2 23L1 23L1 21L2 21L2 20L1 20L1 19L2 19L2 18L4 18L4 19L3 19L3 21L9 21L9 22L10 22L10 21L11 21L11 22L12 22L12 23L10 23L10 24L8 24L8 25L11 25L11 28L9 28L9 30L8 30L8 29L7 29L7 28L6 28L6 27L7 27L7 26L6 26L6 25L7 25L7 24L6 24L6 23L8 23L8 22L6 22L6 23L5 23L5 26L4 26L4 25L3 25L3 29L1 29L1 30L0 30L0 33L1 33L1 34L0 34L0 35L1 35L1 36L0 36L0 37L1 37L1 38L2 38L2 40L3 40L3 38L4 38L4 37L3 37L3 38L2 38L2 37L1 37L1 36L2 36L2 35L4 35L4 36L5 36L5 38L6 38L6 39L4 39L4 41L3 41L3 42L2 42L2 41L1 41L1 40L0 40L0 45L1 45L1 46L0 46L0 47L2 47L2 46L3 46L3 47L5 47L5 48L6 48L6 49L11 49L11 51L9 51L9 50L6 50L6 51L7 51L7 52L5 52L5 49L4 49L4 50L3 50L3 48L1 48L1 49L2 49L2 51L1 51L1 50L0 50L0 51L1 51L1 52L0 52L0 53L1 53L1 52L2 52L2 51L4 51L4 53L2 53L2 55L3 55L3 56L1 56L1 55L0 55L0 56L1 56L1 57L3 57L3 56L4 56L4 57L5 57L5 56L4 56L4 53L5 53L5 55L7 55L7 56L6 56L6 57L7 57L7 56L8 56L8 59L9 59L9 60L8 60L8 65L10 65L10 64L11 64L11 65L12 65L12 64L11 64L11 62L12 62L12 63L13 63L13 61L12 61L12 60L13 60L13 59L12 59L12 58L14 58L14 56L16 56L16 57L17 57L17 56L18 56L18 57L19 57L19 58L18 58L18 59L19 59L19 58L20 58L20 59L22 59L22 60L21 60L21 61L19 61L19 60L18 60L18 61L16 61L16 60L17 60L17 59L16 59L16 58L15 58L15 59L16 59L16 60L15 60L15 61L14 61L14 62L15 62L15 63L16 63L16 64L15 64L15 65L22 65L22 64L24 64L24 63L22 63L22 62L24 62L24 61L25 61L25 62L26 62L26 63L25 63L25 64L28 64L28 65L32 65L32 63L31 63L31 62L29 62L29 63L27 63L27 62L28 62L28 61L29 61L29 60L27 60L27 59L26 59L26 60L24 60L24 59L25 59L25 57L24 57L24 59L23 59L23 57L22 57L22 56L23 56L23 55L24 55L24 56L28 56L28 57L30 57L30 61L32 61L32 62L33 62L33 63L35 63L35 64L33 64L33 65L37 65L37 64L36 64L36 63L37 63L37 62L38 62L38 63L39 63L39 64L38 64L38 65L39 65L39 64L41 64L41 65L44 65L44 64L45 64L45 65L47 65L47 64L46 64L46 63L49 63L49 60L51 60L51 62L50 62L50 65L52 65L52 64L53 64L53 65L55 65L55 63L56 63L56 64L57 64L57 65L61 65L61 63L62 63L62 62L63 62L63 64L62 64L62 65L63 65L63 64L64 64L64 60L65 60L65 59L63 59L63 58L62 58L62 59L63 59L63 60L61 60L61 55L60 55L60 56L59 56L59 55L57 55L57 51L58 51L58 52L59 52L59 53L58 53L58 54L59 54L59 53L60 53L60 54L63 54L63 56L62 56L62 57L63 57L63 56L64 56L64 58L65 58L65 56L64 56L64 54L65 54L65 53L64 53L64 52L65 52L65 51L63 51L63 50L65 50L65 49L64 49L64 48L62 48L62 47L63 47L63 46L62 46L62 47L61 47L61 45L60 45L60 44L61 44L61 43L60 43L60 44L59 44L59 43L54 43L54 42L55 42L55 41L51 41L51 40L53 40L53 39L54 39L54 40L56 40L56 41L57 41L57 42L62 42L62 41L63 41L63 42L65 42L65 41L64 41L64 40L65 40L65 39L63 39L63 40L62 40L62 38L61 38L61 37L64 37L64 38L65 38L65 36L62 36L62 35L63 35L63 34L65 34L65 33L63 33L63 32L62 32L62 33L63 33L63 34L62 34L62 35L61 35L61 31L62 31L62 30L58 30L58 28L59 28L59 29L61 29L61 28L62 28L62 29L63 29L63 28L62 28L62 27L63 27L63 26L62 26L62 27L61 27L61 28L60 28L60 27L59 27L59 26L60 26L60 25L61 25L61 24L62 24L62 25L63 25L63 24L62 24L62 22L65 22L65 21L63 21L63 20L64 20L64 19L63 19L63 18L65 18L65 15L64 15L64 16L62 16L62 13L64 13L64 14L65 14L65 13L64 13L64 12L65 12L65 11L63 11L63 10L65 10L65 9L64 9L64 8L63 8L63 9L62 9L62 8L61 8L61 10L60 10L60 11L61 11L61 12L59 12L59 13L60 13L60 15L61 15L61 16L60 16L60 18L58 18L58 16L59 16L59 14L57 14L57 15L54 15L54 16L56 16L56 17L57 17L57 20L56 20L56 19L54 19L54 18L55 18L55 17L54 17L54 18L53 18L53 17L52 17L52 18L53 18L53 19L51 19L51 18L50 18L50 17L51 17L51 16L53 16L53 15L52 15L52 14L53 14L53 13L54 13L54 14L56 14L56 13L57 13L57 12L58 12L58 11L59 11L59 10L58 10L58 11L55 11L55 13L54 13L54 12L53 12L53 11L54 11L54 10L55 10L55 9L54 9L54 10L53 10L53 9L51 9L51 10L50 10L50 11L51 11L51 12L50 12L50 13L51 13L51 14L49 14L49 12L48 12L48 13L47 13L47 14L46 14L46 12L45 12L45 11L47 11L47 10L49 10L49 9L50 9L50 8L51 8L51 5L52 5L52 8L53 8L53 6L54 6L54 8L55 8L55 5L54 5L54 4L56 4L56 5L57 5L57 4L56 4L56 3L57 3L57 1L56 1L56 0L55 0L55 1L56 1L56 3L55 3L55 2L54 2L54 3L53 3L53 1L54 1L54 0L52 0L52 2L51 2L51 1L50 1L50 0L49 0L49 1L48 1L48 2L51 2L51 3L50 3L50 4L49 4L49 3L47 3L47 1L46 1L46 3L45 3L45 2L44 2L44 3L42 3L42 1L43 1L43 0L39 0L39 1L37 1L37 0L36 0L36 1L34 1L34 0L33 0L33 1L31 1L31 0L29 0L29 1L28 1L28 0L26 0L26 1L25 1L25 0L21 0L21 1L22 1L22 2L19 2L19 3L20 3L20 4L18 4L18 3L17 3L17 2L18 2L18 1L16 1L16 0ZM44 0L44 1L45 1L45 0ZM23 1L23 4L22 4L22 3L21 3L21 4L20 4L20 5L19 5L19 7L18 7L18 4L17 4L17 3L16 3L16 4L17 4L17 7L16 7L16 6L15 6L15 8L14 8L14 9L13 9L13 7L12 7L12 6L11 6L11 5L10 5L10 6L9 6L9 7L10 7L10 6L11 6L11 8L12 8L12 10L11 10L11 11L9 11L9 10L10 10L10 8L9 8L9 10L8 10L8 11L9 11L9 13L4 13L4 12L3 12L3 11L1 11L1 12L3 12L3 13L4 13L4 15L2 15L2 16L3 16L3 17L4 17L4 16L5 16L5 17L6 17L6 18L5 18L5 20L8 20L8 19L6 19L6 18L8 18L8 17L9 17L9 21L10 21L10 20L11 20L11 21L12 21L12 22L13 22L13 23L12 23L12 24L11 24L11 25L12 25L12 24L13 24L13 26L12 26L12 29L10 29L10 31L9 31L9 32L10 32L10 36L9 36L9 35L8 35L8 36L7 36L7 35L6 35L6 36L7 36L7 37L6 37L6 38L7 38L7 39L6 39L6 40L7 40L7 41L6 41L6 42L7 42L7 43L6 43L6 44L8 44L8 43L9 43L9 41L11 41L11 42L10 42L10 44L9 44L9 45L8 45L8 46L7 46L7 45L4 45L4 46L7 46L7 47L6 47L6 48L7 48L7 47L8 47L8 46L9 46L9 47L10 47L10 48L11 48L11 49L12 49L12 51L13 51L13 49L15 49L15 47L16 47L16 48L17 48L17 46L18 46L18 48L21 48L21 47L22 47L22 49L23 49L23 48L24 48L24 49L25 49L25 48L26 48L26 49L27 49L27 50L22 50L22 51L21 51L21 52L22 52L22 53L20 53L20 54L18 54L18 55L19 55L19 57L20 57L20 58L21 58L21 57L20 57L20 56L21 56L21 55L20 55L20 54L23 54L23 53L26 53L26 54L24 54L24 55L27 55L27 54L30 54L30 55L31 55L31 56L32 56L32 55L35 55L35 57L36 57L36 56L37 56L37 57L38 57L38 58L39 58L39 57L38 57L38 56L39 56L39 55L40 55L40 54L41 54L41 56L40 56L40 57L41 57L41 58L42 58L42 60L43 60L43 58L42 58L42 57L44 57L44 59L46 59L46 60L47 60L47 59L48 59L48 60L49 60L49 59L48 59L48 58L49 58L49 57L50 57L50 58L52 58L52 59L55 59L55 60L56 60L56 59L55 59L55 58L56 58L56 56L57 56L57 55L56 55L56 56L54 56L54 55L55 55L55 54L52 54L52 55L50 55L50 54L51 54L51 53L56 53L56 52L54 52L54 51L56 51L56 50L57 50L57 48L58 48L58 49L59 49L59 50L58 50L58 51L59 51L59 52L60 52L60 53L62 53L62 52L63 52L63 51L62 51L62 52L61 52L61 50L63 50L63 49L61 49L61 47L60 47L60 46L59 46L59 44L57 44L57 45L56 45L56 44L54 44L54 43L53 43L53 42L52 42L52 43L51 43L51 44L50 44L50 42L51 42L51 41L49 41L49 43L47 43L47 45L46 45L46 46L47 46L47 47L48 47L48 48L49 48L49 49L47 49L47 48L44 48L44 47L45 47L45 46L44 46L44 45L45 45L45 44L44 44L44 43L43 43L43 42L45 42L45 43L46 43L46 42L47 42L47 41L46 41L46 42L45 42L45 40L44 40L44 39L46 39L46 40L47 40L47 39L46 39L46 38L47 38L47 37L45 37L45 36L44 36L44 35L43 35L43 34L45 34L45 35L46 35L46 36L49 36L49 37L48 37L48 38L49 38L49 39L48 39L48 40L50 40L50 38L53 38L53 36L51 36L51 37L50 37L50 36L49 36L49 35L50 35L50 34L51 34L51 33L53 33L53 34L52 34L52 35L53 35L53 34L54 34L54 37L56 37L56 38L54 38L54 39L56 39L56 40L57 40L57 41L62 41L62 40L61 40L61 38L60 38L60 37L61 37L61 36L60 36L60 35L59 35L59 36L58 36L58 37L59 37L59 38L57 38L57 36L55 36L55 35L56 35L56 34L54 34L54 33L55 33L55 32L56 32L56 31L55 31L55 30L57 30L57 29L56 29L56 28L58 28L58 27L57 27L57 26L59 26L59 25L60 25L60 24L61 24L61 22L62 22L62 20L63 20L63 19L58 19L58 20L57 20L57 21L56 21L56 20L54 20L54 21L55 21L55 22L53 22L53 20L51 20L51 19L50 19L50 18L49 18L49 19L48 19L48 20L50 20L50 22L49 22L49 21L48 21L48 23L47 23L47 24L46 24L46 23L45 23L45 22L42 22L42 21L43 21L43 20L44 20L44 21L46 21L46 22L47 22L47 21L46 21L46 20L44 20L44 18L40 18L40 19L38 19L38 20L37 20L37 19L36 19L36 18L39 18L39 16L40 16L40 17L41 17L41 16L42 16L42 17L45 17L45 18L47 18L47 17L45 17L45 16L47 16L47 15L45 15L45 12L44 12L44 11L45 11L45 10L47 10L47 8L49 8L49 7L50 7L50 5L51 5L51 4L50 4L50 5L49 5L49 4L47 4L47 3L46 3L46 4L45 4L45 3L44 3L44 4L45 4L45 7L46 7L46 8L44 8L44 5L42 5L42 3L39 3L39 2L33 2L33 3L32 3L32 4L36 4L36 3L37 3L37 4L38 4L38 5L35 5L35 7L36 7L36 8L37 8L37 7L38 7L38 10L37 10L37 9L33 9L33 10L30 10L30 9L27 9L27 7L28 7L28 8L29 8L29 7L30 7L30 4L31 4L31 3L30 3L30 2L31 2L31 1L30 1L30 2L29 2L29 4L25 4L25 3L26 3L26 2L25 2L25 1ZM27 1L27 2L28 2L28 1ZM24 2L24 3L25 3L25 2ZM8 3L8 4L9 4L9 3ZM38 3L38 4L39 4L39 3ZM52 3L52 5L53 5L53 3ZM21 4L21 5L20 5L20 7L21 7L21 8L16 8L16 9L14 9L14 11L15 11L15 10L16 10L16 9L19 9L19 10L20 10L20 9L21 9L21 12L23 12L23 13L22 13L22 14L21 14L21 15L24 15L24 16L23 16L23 17L21 17L21 16L20 16L20 17L21 17L21 19L22 19L22 18L23 18L23 20L26 20L26 19L25 19L25 18L27 18L27 17L29 17L29 16L31 16L31 15L32 15L32 16L33 16L33 18L31 18L31 19L30 19L30 18L28 18L28 19L27 19L27 20L28 20L28 21L29 21L29 20L28 20L28 19L30 19L30 20L31 20L31 19L32 19L32 20L33 20L33 22L32 22L32 21L31 21L31 23L30 23L30 24L29 24L29 22L28 22L28 24L27 24L27 23L26 23L26 24L27 24L27 25L22 25L22 23L21 23L21 24L20 24L20 21L22 21L22 20L19 20L19 18L18 18L18 17L19 17L19 16L17 16L17 14L16 14L16 13L20 13L20 11L16 11L16 12L14 12L14 14L13 14L13 15L11 15L11 16L10 16L10 14L11 14L11 12L10 12L10 13L9 13L9 14L5 14L5 15L8 15L8 16L9 16L9 17L11 17L11 18L10 18L10 19L11 19L11 20L14 20L14 21L15 21L15 22L14 22L14 26L13 26L13 27L14 27L14 28L13 28L13 29L16 29L16 30L13 30L13 32L11 32L11 31L12 31L12 30L11 30L11 31L10 31L10 32L11 32L11 33L13 33L13 35L14 35L14 31L16 31L16 33L15 33L15 37L14 37L14 39L15 39L15 38L16 38L16 39L17 39L17 38L16 38L16 37L18 37L18 39L21 39L21 40L15 40L15 42L14 42L14 43L12 43L12 42L13 42L13 41L14 41L14 40L13 40L13 39L12 39L12 40L13 40L13 41L12 41L12 42L11 42L11 43L12 43L12 44L14 44L14 43L15 43L15 44L17 44L17 43L18 43L18 45L20 45L20 41L22 41L22 43L21 43L21 44L22 44L22 43L23 43L23 42L26 42L26 44L28 44L28 45L30 45L30 46L27 46L27 45L26 45L26 46L25 46L25 43L24 43L24 44L23 44L23 45L22 45L22 47L24 47L24 48L25 48L25 47L27 47L27 49L30 49L30 50L27 50L27 52L28 52L28 53L31 53L31 55L32 55L32 53L33 53L33 52L35 52L35 51L37 51L37 50L36 50L36 49L37 49L37 48L41 48L41 47L42 47L42 48L43 48L43 47L42 47L42 46L43 46L43 45L44 45L44 44L43 44L43 43L42 43L42 44L43 44L43 45L39 45L39 46L38 46L38 44L39 44L39 43L40 43L40 44L41 44L41 43L40 43L40 42L41 42L41 41L39 41L39 42L38 42L38 44L35 44L35 43L36 43L36 42L37 42L37 41L38 41L38 39L40 39L40 40L42 40L42 42L43 42L43 39L42 39L42 38L44 38L44 36L43 36L43 37L42 37L42 38L41 38L41 37L40 37L40 36L41 36L41 35L42 35L42 34L43 34L43 33L44 33L44 32L45 32L45 30L46 30L46 31L47 31L47 34L46 34L46 35L47 35L47 34L48 34L48 35L49 35L49 34L48 34L48 33L49 33L49 32L50 32L50 31L52 31L52 32L53 32L53 31L54 31L54 30L55 30L55 29L52 29L52 28L53 28L53 27L51 27L51 26L50 26L50 25L49 25L49 24L51 24L51 25L52 25L52 24L53 24L53 23L52 23L52 22L50 22L50 23L49 23L49 24L47 24L47 25L49 25L49 26L48 26L48 27L47 27L47 26L46 26L46 24L45 24L45 23L42 23L42 22L41 22L41 21L39 21L39 22L38 22L38 23L37 23L37 24L36 24L36 25L35 25L35 26L34 26L34 27L35 27L35 30L33 30L33 29L32 29L32 28L33 28L33 26L32 26L32 24L33 24L33 25L34 25L34 24L35 24L35 22L34 22L34 21L35 21L35 20L36 20L36 21L37 21L37 20L36 20L36 19L35 19L35 18L34 18L34 16L35 16L35 17L38 17L38 16L35 16L35 14L33 14L33 15L32 15L32 14L31 14L31 13L30 13L30 12L31 12L31 11L30 11L30 12L29 12L29 14L30 14L30 15L28 15L28 16L27 16L27 15L26 15L26 16L25 16L25 12L24 12L24 10L25 10L25 11L26 11L26 10L27 10L27 9L26 9L26 10L25 10L25 9L24 9L24 8L23 8L23 6L24 6L24 7L25 7L25 6L26 6L26 7L27 7L27 6L28 6L28 7L29 7L29 5L25 5L25 4L24 4L24 5L23 5L23 6L22 6L22 4ZM40 4L40 5L38 5L38 7L39 7L39 8L41 8L41 9L40 9L40 10L38 10L38 11L37 11L37 10L36 10L36 11L35 11L35 10L33 10L33 11L32 11L32 12L34 12L34 13L36 13L36 15L39 15L39 14L38 14L38 11L40 11L40 12L41 12L41 13L40 13L40 16L41 16L41 15L42 15L42 16L43 16L43 15L42 15L42 14L44 14L44 12L43 12L43 11L44 11L44 10L45 10L45 9L44 9L44 8L43 8L43 9L42 9L42 7L43 7L43 6L42 6L42 7L41 7L41 6L40 6L40 5L41 5L41 4ZM24 5L24 6L25 6L25 5ZM31 5L31 8L34 8L34 5ZM46 5L46 7L47 7L47 5ZM48 5L48 7L49 7L49 5ZM21 6L21 7L22 7L22 6ZM32 6L32 7L33 7L33 6ZM36 6L36 7L37 7L37 6ZM39 6L39 7L40 7L40 6ZM56 6L56 7L57 7L57 6ZM21 8L21 9L23 9L23 8ZM56 8L56 9L58 9L58 8ZM59 8L59 9L60 9L60 8ZM22 10L22 11L23 11L23 10ZM40 10L40 11L41 11L41 10ZM42 10L42 11L43 11L43 10ZM52 10L52 11L53 11L53 10ZM5 11L5 12L7 12L7 11ZM27 11L27 13L26 13L26 14L28 14L28 11ZM34 11L34 12L35 12L35 11ZM36 11L36 12L37 12L37 11ZM62 11L62 12L63 12L63 11ZM51 12L51 13L53 13L53 12ZM23 13L23 14L24 14L24 13ZM14 14L14 15L13 15L13 16L15 16L15 17L14 17L14 18L13 18L13 19L14 19L14 20L15 20L15 21L16 21L16 22L15 22L15 23L16 23L16 24L17 24L17 25L16 25L16 26L17 26L17 27L18 27L18 26L19 26L19 29L17 29L17 28L16 28L16 29L17 29L17 30L19 30L19 31L18 31L18 32L19 32L19 31L20 31L20 30L19 30L19 29L21 29L21 28L22 28L22 29L24 29L24 30L22 30L22 31L21 31L21 33L16 33L16 34L18 34L18 35L16 35L16 36L18 36L18 37L20 37L20 38L21 38L21 37L22 37L22 39L23 39L23 37L25 37L25 38L24 38L24 41L27 41L27 42L30 42L30 41L31 41L31 40L34 40L34 39L36 39L36 40L37 40L37 39L36 39L36 38L40 38L40 37L38 37L38 36L39 36L39 35L40 35L40 34L41 34L41 32L40 32L40 34L39 34L39 33L38 33L38 32L39 32L39 31L44 31L44 30L45 30L45 28L44 28L44 27L45 27L45 26L44 26L44 25L45 25L45 24L44 24L44 25L43 25L43 24L42 24L42 23L41 23L41 22L40 22L40 23L41 23L41 24L39 24L39 25L38 25L38 24L37 24L37 25L36 25L36 26L35 26L35 27L36 27L36 28L37 28L37 29L38 29L38 30L36 30L36 32L37 32L37 33L36 33L36 36L34 36L34 35L29 35L29 33L30 33L30 32L29 32L29 33L27 33L27 32L28 32L28 31L29 31L29 29L30 29L30 30L32 30L32 29L31 29L31 28L32 28L32 26L31 26L31 24L30 24L30 25L27 25L27 26L24 26L24 27L25 27L25 29L24 29L24 28L23 28L23 27L22 27L22 26L21 26L21 25L20 25L20 26L19 26L19 25L18 25L18 24L17 24L17 23L18 23L18 22L17 22L17 21L18 21L18 20L16 20L16 18L17 18L17 19L18 19L18 18L17 18L17 16L15 16L15 15L16 15L16 14ZM18 14L18 15L20 15L20 14ZM48 14L48 16L49 16L49 17L50 17L50 16L51 16L51 15L49 15L49 14ZM33 15L33 16L34 16L34 15ZM44 15L44 16L45 16L45 15ZM57 15L57 16L58 16L58 15ZM6 16L6 17L7 17L7 16ZM24 16L24 17L25 17L25 16ZM26 16L26 17L27 17L27 16ZM61 16L61 18L62 18L62 16ZM15 17L15 18L14 18L14 19L15 19L15 18L16 18L16 17ZM11 18L11 19L12 19L12 18ZM34 19L34 20L35 20L35 19ZM40 19L40 20L41 20L41 19ZM42 19L42 20L43 20L43 19ZM59 20L59 22L58 22L58 23L55 23L55 24L56 24L56 25L54 25L54 26L55 26L55 27L54 27L54 28L55 28L55 27L56 27L56 25L57 25L57 24L58 24L58 25L59 25L59 24L58 24L58 23L59 23L59 22L61 22L61 20ZM23 21L23 23L24 23L24 24L25 24L25 23L24 23L24 22L26 22L26 21ZM3 22L3 23L4 23L4 22ZM33 22L33 24L34 24L34 22ZM64 23L64 24L65 24L65 23ZM37 25L37 26L38 26L38 27L39 27L39 28L38 28L38 29L39 29L39 28L42 28L42 30L44 30L44 28L43 28L43 27L40 27L40 26L43 26L43 25L40 25L40 26L38 26L38 25ZM64 25L64 26L65 26L65 25ZM5 26L5 27L6 27L6 26ZM8 26L8 27L10 27L10 26ZM20 27L20 28L21 28L21 27ZM26 27L26 28L29 28L29 27ZM30 27L30 28L31 28L31 27ZM46 27L46 28L47 28L47 27ZM48 27L48 28L49 28L49 29L46 29L46 30L47 30L47 31L48 31L48 32L49 32L49 31L48 31L48 30L51 30L51 29L50 29L50 27ZM5 28L5 30L7 30L7 29L6 29L6 28ZM25 29L25 32L26 32L26 31L27 31L27 29ZM40 29L40 30L41 30L41 29ZM1 30L1 31L2 31L2 32L3 32L3 33L2 33L2 34L3 34L3 33L4 33L4 32L3 32L3 30ZM38 30L38 31L39 31L39 30ZM5 31L5 34L8 34L8 31ZM23 31L23 32L24 32L24 31ZM31 31L31 34L34 34L34 31ZM57 31L57 34L60 34L60 31ZM64 31L64 32L65 32L65 31ZM6 32L6 33L7 33L7 32ZM32 32L32 33L33 33L33 32ZM58 32L58 33L59 33L59 32ZM21 33L21 34L22 34L22 35L21 35L21 36L20 36L20 37L21 37L21 36L22 36L22 37L23 37L23 35L24 35L24 36L25 36L25 37L30 37L30 38L28 38L28 39L30 39L30 38L31 38L31 39L32 39L32 37L33 37L33 38L35 38L35 37L34 37L34 36L32 36L32 37L31 37L31 36L29 36L29 35L27 35L27 33L26 33L26 34L25 34L25 33ZM11 34L11 36L12 36L12 34ZM19 34L19 35L20 35L20 34ZM24 34L24 35L25 35L25 36L26 36L26 35L25 35L25 34ZM38 34L38 35L39 35L39 34ZM8 36L8 37L7 37L7 38L8 38L8 39L7 39L7 40L8 40L8 39L10 39L10 37L9 37L9 36ZM36 36L36 37L37 37L37 36ZM59 36L59 37L60 37L60 36ZM11 37L11 38L13 38L13 37ZM49 37L49 38L50 38L50 37ZM26 38L26 40L27 40L27 41L30 41L30 40L27 40L27 38ZM58 39L58 40L59 40L59 39ZM22 40L22 41L23 41L23 40ZM7 41L7 42L8 42L8 41ZM16 41L16 42L15 42L15 43L16 43L16 42L17 42L17 41ZM18 41L18 43L19 43L19 41ZM32 41L32 42L31 42L31 45L32 45L32 46L30 46L30 47L28 47L28 48L32 48L32 47L35 47L35 48L34 48L34 49L35 49L35 48L37 48L37 47L38 47L38 46L34 46L34 45L35 45L35 44L34 44L34 45L32 45L32 44L33 44L33 43L32 43L32 42L33 42L33 41ZM35 41L35 42L34 42L34 43L35 43L35 42L36 42L36 41ZM3 42L3 44L1 44L1 45L3 45L3 44L5 44L5 43L4 43L4 42ZM28 43L28 44L30 44L30 43ZM52 43L52 44L51 44L51 46L50 46L50 47L51 47L51 48L50 48L50 49L51 49L51 50L48 50L48 51L47 51L47 50L46 50L46 49L45 49L45 50L44 50L44 49L41 49L41 50L43 50L43 51L42 51L42 52L43 52L43 53L42 53L42 54L43 54L43 53L44 53L44 56L45 56L45 58L46 58L46 59L47 59L47 58L48 58L48 57L49 57L49 56L47 56L47 54L45 54L45 53L44 53L44 52L46 52L46 53L49 53L49 54L48 54L48 55L49 55L49 54L50 54L50 53L51 53L51 52L53 52L53 51L54 51L54 50L56 50L56 49L55 49L55 48L57 48L57 46L55 46L55 45L54 45L54 44L53 44L53 43ZM64 43L64 44L62 44L62 45L64 45L64 44L65 44L65 43ZM48 44L48 45L49 45L49 44ZM52 44L52 45L53 45L53 44ZM11 45L11 46L10 46L10 47L13 47L13 48L12 48L12 49L13 49L13 48L14 48L14 47L15 47L15 46L16 46L16 45L15 45L15 46L14 46L14 47L13 47L13 46L12 46L12 45ZM23 45L23 46L24 46L24 45ZM19 46L19 47L20 47L20 46ZM40 46L40 47L41 47L41 46ZM48 46L48 47L49 47L49 46ZM52 46L52 47L53 47L53 48L52 48L52 50L51 50L51 51L52 51L52 50L54 50L54 49L53 49L53 48L54 48L54 47L55 47L55 46ZM58 47L58 48L60 48L60 47ZM16 49L16 51L15 51L15 50L14 50L14 51L15 51L15 52L14 52L14 53L13 53L13 56L14 56L14 55L15 55L15 53L16 53L16 54L17 54L17 53L18 53L18 52L17 52L17 51L18 51L18 50L19 50L19 52L20 52L20 50L21 50L21 49L18 49L18 50L17 50L17 49ZM32 49L32 50L33 50L33 51L35 51L35 50L33 50L33 49ZM60 49L60 50L61 50L61 49ZM30 50L30 51L28 51L28 52L31 52L31 53L32 53L32 52L31 52L31 50ZM38 50L38 53L39 53L39 54L38 54L38 55L39 55L39 54L40 54L40 53L39 53L39 51L40 51L40 52L41 52L41 51L40 51L40 50ZM8 51L8 53L6 53L6 54L9 54L9 51ZM24 51L24 52L26 52L26 51ZM43 51L43 52L44 52L44 51ZM46 51L46 52L47 52L47 51ZM48 51L48 52L49 52L49 53L50 53L50 52L49 52L49 51ZM10 52L10 53L12 53L12 52ZM16 52L16 53L17 53L17 52ZM36 52L36 54L35 54L35 53L34 53L34 54L35 54L35 55L36 55L36 54L37 54L37 52ZM9 55L9 56L10 56L10 57L9 57L9 59L10 59L10 60L9 60L9 61L10 61L10 62L11 62L11 61L10 61L10 60L11 60L11 58L12 58L12 57L11 57L11 56L12 56L12 55ZM28 55L28 56L29 56L29 55ZM42 55L42 56L43 56L43 55ZM52 55L52 56L53 56L53 55ZM50 56L50 57L51 57L51 56ZM26 57L26 58L27 58L27 57ZM31 57L31 60L34 60L34 57ZM46 57L46 58L47 58L47 57ZM53 57L53 58L55 58L55 57ZM57 57L57 60L60 60L60 57ZM32 58L32 59L33 59L33 58ZM36 58L36 59L35 59L35 60L38 60L38 62L39 62L39 63L40 63L40 62L41 62L41 64L43 64L43 62L42 62L42 61L41 61L41 60L40 60L40 62L39 62L39 59L37 59L37 58ZM58 58L58 59L59 59L59 58ZM22 60L22 61L24 61L24 60ZM26 60L26 61L27 61L27 60ZM44 60L44 63L45 63L45 62L47 62L47 61L45 61L45 60ZM52 60L52 62L51 62L51 63L53 63L53 64L54 64L54 63L55 63L55 62L56 62L56 63L58 63L58 64L59 64L59 61L57 61L57 62L56 62L56 61L55 61L55 62L54 62L54 63L53 63L53 60ZM15 61L15 62L16 62L16 61ZM18 61L18 62L17 62L17 64L19 64L19 63L20 63L20 62L19 62L19 61ZM34 61L34 62L35 62L35 63L36 63L36 62L37 62L37 61ZM60 61L60 62L61 62L61 61ZM18 62L18 63L19 63L19 62ZM9 63L9 64L10 64L10 63ZM29 63L29 64L30 64L30 63ZM13 64L13 65L14 65L14 64ZM48 64L48 65L49 65L49 64ZM0 0L0 7L7 7L7 0ZM1 1L1 6L6 6L6 1ZM2 2L2 5L5 5L5 2ZM58 0L58 7L65 7L65 0ZM59 1L59 6L64 6L64 1ZM60 2L60 5L63 5L63 2ZM0 58L0 65L7 65L7 58ZM1 59L1 64L6 64L6 59ZM2 60L2 63L5 63L5 60Z" fill="#000000"/></g></g></svg>
