<?xml version="1.0" encoding="UTF-8"?>
<svg xmlns="http://www.w3.org/2000/svg" version="1.1" width="300" height="300" viewBox="0 0 300 300"><rect x="0" y="0" width="300" height="300" fill="#ffffff"/><g transform="scale(4.615)"><g transform="translate(0,0)"><path fill-rule="evenodd" d="M8 0L8 1L9 1L9 0ZM12 0L12 1L14 1L14 2L16 2L16 0ZM17 0L17 1L18 1L18 2L17 2L17 3L18 3L18 9L19 9L19 10L17 10L17 9L16 9L16 8L17 8L17 5L16 5L16 3L15 3L15 5L16 5L16 8L15 8L15 6L14 6L14 8L13 8L13 5L12 5L12 4L11 4L11 1L10 1L10 3L9 3L9 4L10 4L10 5L9 5L9 6L8 6L8 8L9 8L9 10L6 10L6 11L9 11L9 14L11 14L11 15L8 15L8 14L5 14L5 13L7 13L7 12L4 12L4 11L5 11L5 8L3 8L3 10L4 10L4 11L2 11L2 12L1 12L1 14L2 14L2 12L3 12L3 15L0 15L0 16L1 16L1 17L0 17L0 19L1 19L1 18L2 18L2 19L3 19L3 20L5 20L5 21L3 21L3 22L5 22L5 21L7 21L7 22L6 22L6 23L7 23L7 24L5 24L5 25L4 25L4 24L1 24L1 22L0 22L0 24L1 24L1 25L0 25L0 28L1 28L1 26L2 26L2 29L1 29L1 30L0 30L0 34L2 34L2 35L3 35L3 36L4 36L4 37L2 37L2 36L0 36L0 38L5 38L5 41L4 41L4 40L3 40L3 39L2 39L2 41L1 41L1 40L0 40L0 41L1 41L1 43L0 43L0 45L3 45L3 46L2 46L2 48L0 48L0 49L2 49L2 48L6 48L6 49L3 49L3 50L1 50L1 51L0 51L0 52L1 52L1 51L2 51L2 53L1 53L1 54L2 54L2 55L3 55L3 56L1 56L1 55L0 55L0 56L1 56L1 57L3 57L3 56L4 56L4 57L5 57L5 56L4 56L4 54L5 54L5 55L7 55L7 56L6 56L6 57L8 57L8 58L9 58L9 57L10 57L10 56L11 56L11 58L10 58L10 59L9 59L9 60L8 60L8 62L9 62L9 63L8 63L8 65L9 65L9 63L10 63L10 62L9 62L9 61L11 61L11 64L10 64L10 65L14 65L14 64L15 64L15 60L14 60L14 59L15 59L15 58L14 58L14 59L13 59L13 60L14 60L14 61L11 61L11 60L12 60L12 58L13 58L13 56L14 56L14 57L16 57L16 59L18 59L18 61L19 61L19 62L18 62L18 63L17 63L17 62L16 62L16 65L19 65L19 62L21 62L21 63L20 63L20 64L22 64L22 63L24 63L24 64L25 64L25 65L27 65L27 64L28 64L28 65L29 65L29 64L30 64L30 65L32 65L32 64L34 64L34 65L37 65L37 64L36 64L36 63L38 63L38 64L39 64L39 65L40 65L40 64L39 64L39 61L41 61L41 62L43 62L43 61L42 61L42 60L44 60L44 62L45 62L45 63L46 63L46 64L43 64L43 65L49 65L49 64L50 64L50 65L51 65L51 64L50 64L50 63L51 63L51 61L53 61L53 62L52 62L52 63L54 63L54 64L53 64L53 65L54 65L54 64L55 64L55 63L54 63L54 62L55 62L55 61L54 61L54 60L55 60L55 59L56 59L56 61L59 61L59 62L58 62L58 63L57 63L57 64L56 64L56 65L59 65L59 64L60 64L60 65L61 65L61 64L63 64L63 63L64 63L64 64L65 64L65 62L63 62L63 61L65 61L65 60L64 60L64 59L63 59L63 61L61 61L61 60L62 60L62 57L65 57L65 54L64 54L64 53L63 53L63 55L62 55L62 54L61 54L61 53L59 53L59 52L58 52L58 51L59 51L59 50L62 50L62 51L60 51L60 52L64 52L64 51L65 51L65 47L63 47L63 49L62 49L62 48L61 48L61 45L63 45L63 46L65 46L65 44L64 44L64 43L65 43L65 42L64 42L64 41L65 41L65 40L63 40L63 39L65 39L65 37L63 37L63 39L62 39L62 38L61 38L61 37L60 37L60 36L62 36L62 35L61 35L61 32L62 32L62 34L64 34L64 32L65 32L65 29L64 29L64 28L63 28L63 25L62 25L62 23L63 23L63 24L64 24L64 27L65 27L65 24L64 24L64 22L63 22L63 21L65 21L65 18L64 18L64 20L63 20L63 19L61 19L61 20L59 20L59 19L58 19L58 20L57 20L57 19L56 19L56 18L55 18L55 17L56 17L56 16L55 16L55 15L54 15L54 16L53 16L53 17L52 17L52 16L51 16L51 17L52 17L52 18L53 18L53 17L54 17L54 18L55 18L55 19L52 19L52 20L51 20L51 19L50 19L50 20L51 20L51 21L49 21L49 20L48 20L48 19L46 19L46 18L47 18L47 17L46 17L46 16L48 16L48 17L49 17L49 16L48 16L48 14L49 14L49 15L53 15L53 14L55 14L55 13L56 13L56 14L57 14L57 15L58 15L58 16L57 16L57 18L61 18L61 16L59 16L59 15L58 15L58 13L62 13L62 14L60 14L60 15L62 15L62 16L63 16L63 17L62 17L62 18L63 18L63 17L65 17L65 16L64 16L64 15L65 15L65 13L64 13L64 12L65 12L65 11L63 11L63 10L62 10L62 9L59 9L59 8L58 8L58 9L57 9L57 6L56 6L56 7L55 7L55 5L54 5L54 7L55 7L55 9L54 9L54 10L53 10L53 4L56 4L56 5L57 5L57 4L56 4L56 3L57 3L57 1L56 1L56 0L55 0L55 1L56 1L56 3L55 3L55 2L54 2L54 3L50 3L50 4L49 4L49 3L48 3L48 2L49 2L49 1L52 1L52 0L49 0L49 1L48 1L48 0L46 0L46 2L47 2L47 3L46 3L46 4L47 4L47 6L46 6L46 5L45 5L45 6L44 6L44 7L45 7L45 9L46 9L46 10L45 10L45 11L44 11L44 9L41 9L41 6L42 6L42 8L43 8L43 6L42 6L42 5L43 5L43 3L42 3L42 2L41 2L41 3L40 3L40 2L39 2L39 3L40 3L40 4L41 4L41 5L39 5L39 4L37 4L37 3L38 3L38 1L40 1L40 0L38 0L38 1L37 1L37 0L33 0L33 1L31 1L31 0L30 0L30 1L31 1L31 2L32 2L32 4L29 4L29 5L28 5L28 4L27 4L27 3L28 3L28 2L29 2L29 0L27 0L27 1L26 1L26 0L23 0L23 2L22 2L22 4L23 4L23 3L24 3L24 2L25 2L25 4L24 4L24 5L23 5L23 6L22 6L22 8L21 8L21 4L20 4L20 2L21 2L21 1L22 1L22 0L20 0L20 2L19 2L19 1L18 1L18 0ZM41 0L41 1L44 1L44 0ZM27 1L27 2L28 2L28 1ZM33 1L33 2L34 2L34 1ZM36 1L36 2L35 2L35 3L37 3L37 1ZM47 1L47 2L48 2L48 1ZM44 2L44 4L45 4L45 2ZM13 3L13 4L14 4L14 3ZM33 3L33 4L34 4L34 3ZM41 3L41 4L42 4L42 3ZM47 3L47 4L48 4L48 6L47 6L47 8L50 8L50 9L51 9L51 8L52 8L52 5L51 5L51 7L50 7L50 5L49 5L49 4L48 4L48 3ZM26 4L26 5L25 5L25 7L24 7L24 6L23 6L23 8L24 8L24 9L21 9L21 10L22 10L22 11L23 11L23 10L24 10L24 11L25 11L25 12L26 12L26 10L28 10L28 9L29 9L29 7L30 7L30 6L29 6L29 7L28 7L28 5L27 5L27 4ZM36 4L36 5L37 5L37 7L36 7L36 6L35 6L35 8L37 8L37 9L36 9L36 10L37 10L37 11L35 11L35 13L34 13L34 12L33 12L33 13L34 13L34 14L33 14L33 15L32 15L32 16L30 16L30 15L31 15L31 14L32 14L32 13L31 13L31 12L32 12L32 10L34 10L34 9L30 9L30 10L31 10L31 12L30 12L30 13L29 13L29 11L27 11L27 12L28 12L28 13L24 13L24 14L21 14L21 13L22 13L22 12L21 12L21 11L20 11L20 12L21 12L21 13L18 13L18 12L19 12L19 11L17 11L17 13L16 13L16 12L15 12L15 13L14 13L14 14L15 14L15 15L16 15L16 16L12 16L12 17L11 17L11 16L10 16L10 17L9 17L9 18L8 18L8 17L6 17L6 18L8 18L8 19L5 19L5 20L7 20L7 21L8 21L8 23L9 23L9 24L10 24L10 26L8 26L8 24L7 24L7 25L5 25L5 26L8 26L8 28L7 28L7 27L3 27L3 28L4 28L4 29L5 29L5 28L7 28L7 29L6 29L6 30L10 30L10 31L9 31L9 32L10 32L10 31L12 31L12 33L10 33L10 35L8 35L8 36L7 36L7 35L6 35L6 36L5 36L5 37L6 37L6 38L7 38L7 37L8 37L8 38L9 38L9 39L6 39L6 40L7 40L7 41L5 41L5 42L7 42L7 41L9 41L9 43L4 43L4 41L3 41L3 43L4 43L4 44L7 44L7 45L5 45L5 47L6 47L6 48L8 48L8 49L9 49L9 50L7 50L7 49L6 49L6 50L5 50L5 54L7 54L7 55L9 55L9 56L10 56L10 55L9 55L9 53L10 53L10 54L11 54L11 56L13 56L13 54L11 54L11 53L10 53L10 52L12 52L12 53L13 53L13 52L14 52L14 53L15 53L15 52L16 52L16 51L15 51L15 50L17 50L17 47L16 47L16 49L15 49L15 45L14 45L14 44L19 44L19 43L22 43L22 44L23 44L23 45L21 45L21 44L20 44L20 46L19 46L19 45L16 45L16 46L18 46L18 48L19 48L19 49L18 49L18 51L17 51L17 53L19 53L19 54L17 54L17 55L16 55L16 54L15 54L15 56L16 56L16 57L17 57L17 56L18 56L18 55L19 55L19 56L21 56L21 58L22 58L22 59L19 59L19 57L18 57L18 59L19 59L19 61L20 61L20 60L21 60L21 61L22 61L22 60L23 60L23 62L24 62L24 60L25 60L25 62L26 62L26 63L25 63L25 64L27 64L27 63L28 63L28 62L29 62L29 61L30 61L30 64L32 64L32 63L36 63L36 62L37 62L37 61L39 61L39 60L42 60L42 59L43 59L43 58L44 58L44 59L45 59L45 58L46 58L46 56L47 56L47 54L48 54L48 52L49 52L49 51L48 51L48 50L49 50L49 49L50 49L50 48L51 48L51 49L52 49L52 51L50 51L50 54L49 54L49 55L48 55L48 56L49 56L49 57L50 57L50 56L49 56L49 55L53 55L53 57L55 57L55 58L54 58L54 59L55 59L55 58L56 58L56 57L55 57L55 56L56 56L56 55L58 55L58 54L59 54L59 53L58 53L58 52L57 52L57 50L58 50L58 49L55 49L55 50L54 50L54 51L53 51L53 49L54 49L54 47L55 47L55 46L57 46L57 45L58 45L58 42L60 42L60 43L59 43L59 44L60 44L60 45L61 45L61 44L62 44L62 43L64 43L64 42L63 42L63 40L62 40L62 39L61 39L61 40L60 40L60 41L59 41L59 39L60 39L60 37L59 37L59 39L58 39L58 38L57 38L57 37L58 37L58 36L60 36L60 35L56 35L56 33L55 33L55 32L56 32L56 30L58 30L58 29L59 29L59 28L61 28L61 27L59 27L59 25L60 25L60 26L61 26L61 25L60 25L60 24L61 24L61 22L62 22L62 21L61 21L61 22L60 22L60 24L59 24L59 23L57 23L57 24L54 24L54 25L55 25L55 26L53 26L53 27L51 27L51 28L52 28L52 29L50 29L50 30L49 30L49 29L48 29L48 28L49 28L49 26L47 26L47 25L48 25L48 24L49 24L49 25L51 25L51 26L52 26L52 24L53 24L53 23L52 23L52 24L50 24L50 23L51 23L51 22L50 22L50 23L48 23L48 24L46 24L46 23L45 23L45 24L46 24L46 25L44 25L44 23L43 23L43 22L44 22L44 21L45 21L45 22L46 22L46 21L47 21L47 22L49 22L49 21L48 21L48 20L46 20L46 19L44 19L44 21L43 21L43 20L42 20L42 19L43 19L43 18L42 18L42 17L43 17L43 16L45 16L45 14L46 14L46 15L47 15L47 13L45 13L45 14L44 14L44 11L43 11L43 10L42 10L42 13L41 13L41 14L39 14L39 15L38 15L38 13L40 13L40 12L41 12L41 10L40 10L40 12L39 12L39 10L37 10L37 9L38 9L38 5L37 5L37 4ZM10 5L10 6L9 6L9 7L10 7L10 6L11 6L11 8L10 8L10 10L11 10L11 9L12 9L12 10L16 10L16 9L15 9L15 8L14 8L14 9L12 9L12 6L11 6L11 5ZM19 5L19 7L20 7L20 5ZM31 5L31 8L34 8L34 5ZM26 6L26 7L27 7L27 8L28 8L28 7L27 7L27 6ZM32 6L32 7L33 7L33 6ZM39 6L39 9L40 9L40 6ZM45 6L45 7L46 7L46 6ZM48 6L48 7L49 7L49 6ZM0 8L0 10L2 10L2 8ZM6 8L6 9L7 9L7 8ZM19 8L19 9L20 9L20 8ZM25 8L25 9L24 9L24 10L25 10L25 9L26 9L26 8ZM64 8L64 9L65 9L65 8ZM55 9L55 10L54 10L54 11L52 11L52 10L50 10L50 11L48 11L48 12L49 12L49 14L50 14L50 13L51 13L51 14L52 14L52 12L53 12L53 13L54 13L54 11L55 11L55 12L56 12L56 13L58 13L58 11L57 11L57 10L56 10L56 9ZM55 10L55 11L56 11L56 12L57 12L57 11L56 11L56 10ZM61 10L61 11L59 11L59 12L62 12L62 13L63 13L63 11L62 11L62 10ZM10 11L10 13L12 13L12 15L13 15L13 12L11 12L11 11ZM45 11L45 12L47 12L47 11ZM36 12L36 13L35 13L35 14L37 14L37 13L38 13L38 12ZM42 13L42 14L43 14L43 15L42 15L42 16L41 16L41 17L39 17L39 16L40 16L40 15L39 15L39 16L35 16L35 17L33 17L33 16L32 16L32 18L31 18L31 17L30 17L30 16L29 16L29 14L27 14L27 15L28 15L28 18L27 18L27 16L25 16L25 17L24 17L24 18L23 18L23 19L22 19L22 20L23 20L23 19L24 19L24 20L25 20L25 19L24 19L24 18L27 18L27 19L26 19L26 20L27 20L27 21L22 21L22 22L21 22L21 20L20 20L20 19L21 19L21 18L22 18L22 17L21 17L21 18L20 18L20 17L19 17L19 16L20 16L20 15L21 15L21 14L19 14L19 15L18 15L18 14L16 14L16 15L18 15L18 16L17 16L17 17L15 17L15 18L16 18L16 20L15 20L15 19L14 19L14 20L13 20L13 19L12 19L12 20L10 20L10 18L9 18L9 20L10 20L10 21L11 21L11 22L10 22L10 23L11 23L11 24L13 24L13 23L14 23L14 21L15 21L15 24L16 24L16 23L17 23L17 24L18 24L18 25L17 25L17 27L16 27L16 25L12 25L12 26L14 26L14 28L15 28L15 27L16 27L16 28L18 28L18 29L21 29L21 28L22 28L22 27L23 27L23 28L24 28L24 29L23 29L23 30L24 30L24 32L25 32L25 31L27 31L27 33L28 33L28 34L27 34L27 36L26 36L26 33L24 33L24 34L23 34L23 35L22 35L22 34L21 34L21 33L23 33L23 31L22 31L22 30L20 30L20 31L19 31L19 30L17 30L17 29L16 29L16 31L19 31L19 32L18 32L18 33L16 33L16 32L15 32L15 29L12 29L12 27L11 27L11 26L10 26L10 27L9 27L9 28L10 28L10 27L11 27L11 29L12 29L12 30L13 30L13 31L14 31L14 33L12 33L12 36L9 36L9 37L10 37L10 40L11 40L11 41L10 41L10 43L9 43L9 44L8 44L8 45L7 45L7 46L6 46L6 47L8 47L8 48L9 48L9 49L10 49L10 51L12 51L12 50L13 50L13 51L14 51L14 52L15 52L15 51L14 51L14 50L13 50L13 49L14 49L14 45L9 45L9 44L11 44L11 41L13 41L13 40L11 40L11 39L12 39L12 37L13 37L13 39L14 39L14 41L15 41L15 42L14 42L14 43L16 43L16 42L17 42L17 43L19 43L19 42L20 42L20 41L19 41L19 40L20 40L20 38L21 38L21 39L23 39L23 38L25 38L25 39L24 39L24 40L23 40L23 41L24 41L24 42L22 42L22 41L21 41L21 42L22 42L22 43L24 43L24 45L23 45L23 47L24 47L24 45L25 45L25 46L26 46L26 45L25 45L25 44L26 44L26 43L27 43L27 44L29 44L29 45L27 45L27 48L26 48L26 47L25 47L25 48L26 48L26 49L27 49L27 50L26 50L26 51L28 51L28 52L27 52L27 54L26 54L26 55L27 55L27 58L26 58L26 59L27 59L27 58L29 58L29 59L28 59L28 60L30 60L30 61L33 61L33 62L35 62L35 57L36 57L36 58L37 58L37 56L36 56L36 55L38 55L38 54L36 54L36 53L37 53L37 52L36 52L36 51L35 51L35 50L34 50L34 48L33 48L33 49L31 49L31 47L28 47L28 46L29 46L29 45L30 45L30 44L31 44L31 46L33 46L33 47L34 47L34 46L36 46L36 47L37 47L37 48L35 48L35 49L37 49L37 51L42 51L42 52L41 52L41 54L40 54L40 55L39 55L39 56L40 56L40 57L41 57L41 55L42 55L42 54L45 54L45 56L46 56L46 54L47 54L47 51L46 51L46 50L45 50L45 51L46 51L46 53L45 53L45 52L44 52L44 49L46 49L46 48L45 48L45 46L46 46L46 47L47 47L47 46L48 46L48 47L49 47L49 46L51 46L51 47L52 47L52 46L51 46L51 45L53 45L53 44L54 44L54 46L53 46L53 47L54 47L54 46L55 46L55 45L57 45L57 42L55 42L55 40L57 40L57 41L58 41L58 40L57 40L57 39L56 39L56 37L57 37L57 36L56 36L56 35L55 35L55 37L53 37L53 36L52 36L52 34L53 34L53 35L54 35L54 34L55 34L55 33L54 33L54 32L55 32L55 31L54 31L54 32L53 32L53 31L52 31L52 30L51 30L51 31L49 31L49 30L48 30L48 29L46 29L46 27L45 27L45 28L43 28L43 27L42 27L42 28L41 28L41 29L42 29L42 30L40 30L40 29L39 29L39 28L38 28L38 27L41 27L41 25L42 25L42 26L43 26L43 23L42 23L42 24L40 24L40 25L39 25L39 24L38 24L38 23L37 23L37 21L38 21L38 22L39 22L39 23L40 23L40 21L41 21L41 17L42 17L42 16L43 16L43 15L44 15L44 14L43 14L43 13ZM4 14L4 16L2 16L2 17L4 17L4 18L5 18L5 14ZM25 14L25 15L26 15L26 14ZM62 14L62 15L64 15L64 14ZM6 15L6 16L8 16L8 15ZM22 15L22 16L24 16L24 15ZM54 16L54 17L55 17L55 16ZM18 17L18 18L17 18L17 20L18 20L18 21L16 21L16 22L18 22L18 21L19 21L19 22L20 22L20 23L18 23L18 24L20 24L20 25L18 25L18 26L19 26L19 28L21 28L21 27L20 27L20 25L21 25L21 26L22 26L22 24L23 24L23 23L25 23L25 24L24 24L24 25L23 25L23 27L24 27L24 25L25 25L25 24L27 24L27 25L26 25L26 26L28 26L28 27L25 27L25 30L26 30L26 28L27 28L27 29L28 29L28 27L32 27L32 28L29 28L29 29L31 29L31 30L32 30L32 28L34 28L34 27L35 27L35 29L36 29L36 28L37 28L37 27L36 27L36 26L37 26L37 25L38 25L38 24L37 24L37 23L36 23L36 22L35 22L35 24L34 24L34 22L33 22L33 20L34 20L34 21L35 21L35 18L34 18L34 19L31 19L31 20L30 20L30 21L31 21L31 22L30 22L30 23L31 23L31 24L30 24L30 25L29 25L29 24L28 24L28 23L27 23L27 22L26 22L26 23L25 23L25 22L22 22L22 23L21 23L21 22L20 22L20 21L19 21L19 19L20 19L20 18L19 18L19 17ZM29 17L29 18L28 18L28 19L27 19L27 20L28 20L28 21L29 21L29 19L30 19L30 17ZM36 17L36 18L37 18L37 17ZM38 17L38 19L36 19L36 20L38 20L38 21L40 21L40 18L39 18L39 17ZM44 17L44 18L46 18L46 17ZM38 19L38 20L39 20L39 19ZM12 20L12 21L13 21L13 20ZM54 20L54 21L55 21L55 22L54 22L54 23L56 23L56 21L55 21L55 20ZM58 20L58 21L57 21L57 22L58 22L58 21L59 21L59 20ZM42 21L42 22L43 22L43 21ZM52 21L52 22L53 22L53 21ZM32 22L32 24L31 24L31 25L30 25L30 26L34 26L34 24L33 24L33 22ZM20 23L20 24L21 24L21 23ZM36 24L36 25L37 25L37 24ZM56 25L56 26L55 26L55 28L56 28L56 26L57 26L57 29L58 29L58 25ZM47 27L47 28L48 28L48 27ZM53 27L53 29L54 29L54 30L56 30L56 29L54 29L54 27ZM42 28L42 29L43 29L43 28ZM62 28L62 29L61 29L61 30L62 30L62 31L63 31L63 32L64 32L64 30L63 30L63 28ZM2 29L2 31L1 31L1 33L2 33L2 34L3 34L3 33L4 33L4 32L3 32L3 33L2 33L2 31L4 31L4 30L3 30L3 29ZM37 29L37 30L36 30L36 32L35 32L35 33L36 33L36 32L37 32L37 33L40 33L40 35L39 35L39 34L37 34L37 35L36 35L36 36L35 36L35 35L33 35L33 36L32 36L32 35L30 35L30 34L28 34L28 35L30 35L30 36L27 36L27 37L28 37L28 38L26 38L26 39L25 39L25 40L24 40L24 41L25 41L25 40L27 40L27 39L28 39L28 40L29 40L29 38L30 38L30 39L31 39L31 38L30 38L30 36L32 36L32 37L33 37L33 36L35 36L35 37L34 37L34 38L32 38L32 40L30 40L30 41L31 41L31 43L32 43L32 44L33 44L33 45L35 45L35 44L38 44L38 45L39 45L39 46L38 46L38 47L39 47L39 46L40 46L40 48L39 48L39 50L40 50L40 48L43 48L43 49L44 49L44 46L45 46L45 44L46 44L46 45L48 45L48 44L49 44L49 43L51 43L51 40L52 40L52 41L53 41L53 42L52 42L52 43L55 43L55 44L56 44L56 43L55 43L55 42L54 42L54 39L55 39L55 38L54 38L54 39L53 39L53 37L52 37L52 36L51 36L51 34L50 34L50 33L52 33L52 31L51 31L51 32L49 32L49 31L47 31L47 30L46 30L46 29L44 29L44 32L43 32L43 30L42 30L42 32L43 32L43 33L45 33L45 36L46 36L46 38L45 38L45 37L44 37L44 35L43 35L43 34L42 34L42 33L40 33L40 30L39 30L39 29ZM27 30L27 31L28 31L28 33L30 33L30 30L29 30L29 31L28 31L28 30ZM37 30L37 32L39 32L39 31L38 31L38 30ZM45 30L45 31L46 31L46 30ZM5 31L5 34L8 34L8 31ZM31 31L31 34L34 34L34 31ZM57 31L57 34L60 34L60 31ZM6 32L6 33L7 33L7 32ZM32 32L32 33L33 33L33 32ZM45 32L45 33L46 33L46 36L47 36L47 37L48 37L48 38L47 38L47 39L48 39L48 38L49 38L49 39L50 39L50 40L51 40L51 37L50 37L50 34L48 34L48 33L49 33L49 32L47 32L47 33L46 33L46 32ZM58 32L58 33L59 33L59 32ZM14 33L14 34L16 34L16 37L15 37L15 35L13 35L13 37L14 37L14 39L15 39L15 38L17 38L17 36L18 36L18 35L17 35L17 34L16 34L16 33ZM18 33L18 34L19 34L19 38L18 38L18 39L19 39L19 38L20 38L20 37L21 37L21 34L19 34L19 33ZM41 34L41 36L40 36L40 37L38 37L38 36L36 36L36 37L35 37L35 38L34 38L34 39L35 39L35 38L36 38L36 39L37 39L37 38L38 38L38 40L40 40L40 37L42 37L42 38L41 38L41 39L42 39L42 40L41 40L41 41L39 41L39 42L40 42L40 43L39 43L39 44L40 44L40 45L41 45L41 47L42 47L42 46L43 46L43 45L42 45L42 43L41 43L41 42L43 42L43 44L44 44L44 43L45 43L45 41L46 41L46 42L47 42L47 43L49 43L49 42L50 42L50 41L49 41L49 40L48 40L48 41L47 41L47 40L44 40L44 37L42 37L42 34ZM47 34L47 35L48 35L48 36L49 36L49 35L48 35L48 34ZM63 35L63 36L64 36L64 35ZM6 36L6 37L7 37L7 36ZM24 36L24 37L25 37L25 36ZM22 37L22 38L23 38L23 37ZM36 37L36 38L37 38L37 37ZM49 37L49 38L50 38L50 37ZM42 38L42 39L43 39L43 38ZM16 39L16 40L15 40L15 41L16 41L16 40L17 40L17 39ZM35 40L35 41L37 41L37 42L38 42L38 41L37 41L37 40ZM42 40L42 41L43 41L43 42L44 42L44 41L43 41L43 40ZM18 41L18 42L19 42L19 41ZM27 41L27 42L28 42L28 41ZM33 41L33 42L34 42L34 44L35 44L35 43L36 43L36 42L34 42L34 41ZM48 41L48 42L49 42L49 41ZM60 41L60 42L62 42L62 41ZM24 42L24 43L25 43L25 42ZM29 42L29 44L30 44L30 42ZM60 43L60 44L61 44L61 43ZM63 44L63 45L64 45L64 44ZM36 45L36 46L37 46L37 45ZM3 46L3 47L4 47L4 46ZM21 46L21 47L19 47L19 48L21 48L21 47L22 47L22 46ZM58 46L58 47L57 47L57 48L59 48L59 47L60 47L60 46ZM11 47L11 48L12 48L12 49L13 49L13 48L12 48L12 47ZM22 48L22 49L20 49L20 50L23 50L23 52L22 52L22 54L20 54L20 55L22 55L22 57L23 57L23 58L25 58L25 57L24 57L24 56L25 56L25 53L26 53L26 52L25 52L25 49L23 49L23 48ZM28 48L28 51L29 51L29 50L30 50L30 51L31 51L31 53L30 53L30 54L27 54L27 55L28 55L28 57L30 57L30 55L32 55L32 54L34 54L34 52L35 52L35 53L36 53L36 52L35 52L35 51L34 51L34 50L33 50L33 52L32 52L32 51L31 51L31 49L30 49L30 48ZM48 48L48 49L49 49L49 48ZM52 48L52 49L53 49L53 48ZM60 48L60 49L61 49L61 48ZM63 49L63 51L64 51L64 49ZM3 50L3 51L4 51L4 50ZM6 50L6 51L7 51L7 50ZM42 50L42 51L43 51L43 50ZM19 51L19 52L21 52L21 51ZM54 51L54 52L53 52L53 53L52 53L52 52L51 52L51 54L53 54L53 55L54 55L54 56L55 56L55 55L56 55L56 53L57 53L57 54L58 54L58 53L57 53L57 52L56 52L56 51ZM3 52L3 54L4 54L4 52ZM6 52L6 53L7 53L7 54L8 54L8 53L9 53L9 52ZM23 52L23 55L24 55L24 53L25 53L25 52ZM42 52L42 53L43 53L43 52ZM54 52L54 53L53 53L53 54L54 54L54 55L55 55L55 54L54 54L54 53L56 53L56 52ZM31 53L31 54L32 54L32 53ZM60 54L60 55L59 55L59 56L61 56L61 57L62 57L62 56L61 56L61 54ZM33 55L33 56L34 56L34 55ZM43 55L43 57L42 57L42 58L41 58L41 59L42 59L42 58L43 58L43 57L44 57L44 58L45 58L45 57L44 57L44 55ZM63 55L63 56L64 56L64 55ZM51 56L51 57L52 57L52 56ZM31 57L31 60L34 60L34 57ZM38 57L38 58L39 58L39 59L38 59L38 60L39 60L39 59L40 59L40 58L39 58L39 57ZM57 57L57 60L60 60L60 57ZM32 58L32 59L33 59L33 58ZM47 58L47 59L48 59L48 60L45 60L45 61L46 61L46 63L47 63L47 64L49 64L49 63L47 63L47 62L48 62L48 60L49 60L49 62L50 62L50 59L51 59L51 60L53 60L53 59L52 59L52 58L49 58L49 59L48 59L48 58ZM58 58L58 59L59 59L59 58ZM10 59L10 60L11 60L11 59ZM16 60L16 61L17 61L17 60ZM26 60L26 61L27 61L27 62L28 62L28 61L27 61L27 60ZM36 60L36 61L37 61L37 60ZM60 61L60 62L61 62L61 61ZM13 62L13 63L12 63L12 64L13 64L13 63L14 63L14 62ZM0 0L0 7L7 7L7 0ZM1 1L1 6L6 6L6 1ZM2 2L2 5L5 5L5 2ZM58 0L58 7L65 7L65 0ZM59 1L59 6L64 6L64 1ZM60 2L60 5L63 5L63 2ZM0 58L0 65L7 65L7 58ZM1 59L1 64L6 64L6 59ZM2 60L2 63L5 63L5 60Z" fill="#000000"/></g></g></svg>
