<?xml version="1.0" encoding="UTF-8"?>
<svg xmlns="http://www.w3.org/2000/svg" version="1.1" width="300" height="300" viewBox="0 0 300 300"><rect x="0" y="0" width="300" height="300" fill="#ffffff"/><g transform="scale(4.615)"><g transform="translate(0,0)"><path fill-rule="evenodd" d="M10 0L10 2L9 2L9 1L8 1L8 2L9 2L9 3L8 3L8 4L9 4L9 5L8 5L8 7L9 7L9 6L10 6L10 7L11 7L11 8L6 8L6 9L5 9L5 8L0 8L0 10L1 10L1 12L2 12L2 14L1 14L1 13L0 13L0 15L1 15L1 16L0 16L0 18L1 18L1 16L2 16L2 17L4 17L4 15L5 15L5 16L6 16L6 17L7 17L7 18L6 18L6 19L4 19L4 18L3 18L3 19L1 19L1 20L0 20L0 21L1 21L1 22L0 22L0 23L1 23L1 22L2 22L2 23L4 23L4 24L5 24L5 25L4 25L4 27L3 27L3 26L0 26L0 27L2 27L2 28L0 28L0 29L1 29L1 30L2 30L2 31L4 31L4 32L0 32L0 34L1 34L1 36L4 36L4 35L5 35L5 36L6 36L6 37L7 37L7 38L4 38L4 37L1 37L1 39L0 39L0 40L1 40L1 43L2 43L2 45L1 45L1 44L0 44L0 46L1 46L1 47L0 47L0 48L3 48L3 49L1 49L1 50L0 50L0 51L2 51L2 50L4 50L4 48L5 48L5 49L7 49L7 50L6 50L6 51L7 51L7 50L10 50L10 53L9 53L9 52L8 52L8 54L6 54L6 53L7 53L7 52L6 52L6 53L3 53L3 52L2 52L2 53L3 53L3 54L2 54L2 55L3 55L3 56L1 56L1 55L0 55L0 56L1 56L1 57L3 57L3 56L4 56L4 57L5 57L5 56L4 56L4 54L5 54L5 55L7 55L7 56L6 56L6 57L7 57L7 56L9 56L9 57L8 57L8 59L9 59L9 60L8 60L8 65L10 65L10 64L9 64L9 63L10 63L10 62L11 62L11 64L13 64L13 63L14 63L14 65L15 65L15 64L16 64L16 65L17 65L17 64L16 64L16 63L14 63L14 62L16 62L16 61L14 61L14 62L11 62L11 61L10 61L10 59L11 59L11 60L12 60L12 59L11 59L11 57L13 57L13 59L14 59L14 60L15 60L15 59L14 59L14 57L15 57L15 54L14 54L14 55L13 55L13 56L11 56L11 55L12 55L12 54L11 54L11 52L12 52L12 53L18 53L18 55L17 55L17 54L16 54L16 55L17 55L17 56L16 56L16 57L19 57L19 58L18 58L18 59L19 59L19 58L20 58L20 59L21 59L21 60L23 60L23 61L21 61L21 63L22 63L22 62L23 62L23 63L24 63L24 64L25 64L25 65L26 65L26 64L27 64L27 65L35 65L35 64L36 64L36 65L38 65L38 64L36 64L36 63L39 63L39 64L41 64L41 65L42 65L42 64L43 64L43 65L44 65L44 64L46 64L46 63L48 63L48 62L49 62L49 64L48 64L48 65L49 65L49 64L50 64L50 63L51 63L51 62L52 62L52 60L53 60L53 62L55 62L55 64L57 64L57 63L58 63L58 62L59 62L59 64L58 64L58 65L61 65L61 63L62 63L62 61L63 61L63 64L62 64L62 65L63 65L63 64L64 64L64 61L65 61L65 60L62 60L62 59L63 59L63 58L65 58L65 57L64 57L64 56L65 56L65 55L63 55L63 56L62 56L62 57L63 57L63 58L61 58L61 55L60 55L60 56L59 56L59 55L58 55L58 54L65 54L65 53L63 53L63 52L64 52L64 51L63 51L63 50L61 50L61 49L58 49L58 48L59 48L59 47L58 47L58 48L56 48L56 47L54 47L54 48L56 48L56 49L54 49L54 50L53 50L53 51L52 51L52 50L50 50L50 49L52 49L52 48L53 48L53 47L52 47L52 46L55 46L55 44L56 44L56 46L62 46L62 45L64 45L64 44L62 44L62 43L63 43L63 42L65 42L65 41L63 41L63 40L64 40L64 38L65 38L65 37L63 37L63 36L64 36L64 35L63 35L63 34L65 34L65 33L63 33L63 32L65 32L65 31L63 31L63 32L62 32L62 29L63 29L63 28L64 28L64 29L65 29L65 28L64 28L64 26L65 26L65 25L64 25L64 24L65 24L65 23L64 23L64 22L65 22L65 20L62 20L62 23L63 23L63 24L60 24L60 25L59 25L59 22L61 22L61 20L58 20L58 19L60 19L60 17L62 17L62 18L61 18L61 19L63 19L63 17L64 17L64 18L65 18L65 15L64 15L64 16L62 16L62 15L61 15L61 14L62 14L62 13L64 13L64 14L65 14L65 13L64 13L64 12L65 12L65 11L64 11L64 10L65 10L65 9L64 9L64 8L63 8L63 9L62 9L62 8L61 8L61 9L60 9L60 8L59 8L59 9L60 9L60 10L58 10L58 11L56 11L56 9L58 9L58 8L56 8L56 9L55 9L55 8L54 8L54 7L55 7L55 5L54 5L54 4L56 4L56 5L57 5L57 4L56 4L56 3L57 3L57 1L56 1L56 0L55 0L55 1L56 1L56 3L55 3L55 2L54 2L54 3L53 3L53 2L52 2L52 1L54 1L54 0L51 0L51 1L50 1L50 0L47 0L47 1L44 1L44 0L42 0L42 1L43 1L43 2L42 2L42 3L43 3L43 4L42 4L42 5L43 5L43 4L44 4L44 5L45 5L45 6L44 6L44 7L43 7L43 6L42 6L42 7L43 7L43 8L45 8L45 6L46 6L46 7L47 7L47 8L48 8L48 9L49 9L49 10L50 10L50 11L49 11L49 12L48 12L48 11L47 11L47 10L46 10L46 9L44 9L44 10L45 10L45 11L43 11L43 12L42 12L42 11L41 11L41 10L40 10L40 9L39 9L39 6L40 6L40 8L41 8L41 5L38 5L38 8L36 8L36 10L34 10L34 9L35 9L35 6L36 6L36 7L37 7L37 5L36 5L36 4L37 4L37 3L35 3L35 2L37 2L37 1L38 1L38 4L39 4L39 3L41 3L41 2L40 2L40 1L38 1L38 0L37 0L37 1L36 1L36 0L35 0L35 1L33 1L33 0L29 0L29 1L33 1L33 2L32 2L32 3L31 3L31 4L30 4L30 2L28 2L28 3L27 3L27 4L30 4L30 5L29 5L29 6L28 6L28 5L27 5L27 6L26 6L26 7L25 7L25 6L24 6L24 5L26 5L26 4L24 4L24 5L20 5L20 7L21 7L21 8L20 8L20 9L21 9L21 11L20 11L20 10L19 10L19 12L18 12L18 13L17 13L17 10L18 10L18 9L19 9L19 6L18 6L18 5L19 5L19 4L22 4L22 3L20 3L20 2L22 2L22 1L23 1L23 2L24 2L24 3L26 3L26 2L25 2L25 0L21 0L21 1L20 1L20 0L19 0L19 1L18 1L18 2L17 2L17 0L15 0L15 1L14 1L14 0ZM26 0L26 1L28 1L28 0ZM15 1L15 3L16 3L16 1ZM47 1L47 2L46 2L46 3L44 3L44 4L45 4L45 5L47 5L47 7L48 7L48 8L51 8L51 9L50 9L50 10L51 10L51 9L54 9L54 8L52 8L52 6L51 6L51 7L50 7L50 5L51 5L51 4L50 4L50 5L49 5L49 4L48 4L48 3L49 3L49 2L48 2L48 1ZM12 2L12 3L9 3L9 4L12 4L12 6L11 6L11 5L10 5L10 6L11 6L11 7L12 7L12 6L13 6L13 9L9 9L9 10L10 10L10 11L9 11L9 13L8 13L8 14L9 14L9 13L10 13L10 14L13 14L13 15L12 15L12 16L11 16L11 17L9 17L9 16L8 16L8 17L9 17L9 18L7 18L7 19L6 19L6 20L7 20L7 21L6 21L6 22L5 22L5 20L3 20L3 21L2 21L2 22L3 22L3 21L4 21L4 22L5 22L5 24L7 24L7 25L6 25L6 26L7 26L7 27L4 27L4 28L3 28L3 29L2 29L2 30L4 30L4 29L5 29L5 28L7 28L7 29L6 29L6 30L7 30L7 29L8 29L8 30L9 30L9 33L10 33L10 35L9 35L9 36L8 36L8 35L6 35L6 36L8 36L8 37L9 37L9 36L10 36L10 38L9 38L9 39L10 39L10 41L9 41L9 40L7 40L7 39L6 39L6 40L7 40L7 41L4 41L4 40L5 40L5 39L4 39L4 40L3 40L3 43L5 43L5 42L7 42L7 41L9 41L9 42L8 42L8 43L6 43L6 44L4 44L4 45L2 45L2 46L3 46L3 47L4 47L4 46L7 46L7 47L6 47L6 48L7 48L7 49L9 49L9 48L10 48L10 47L11 47L11 46L12 46L12 48L11 48L11 51L12 51L12 52L15 52L15 51L14 51L14 50L15 50L15 49L13 49L13 48L14 48L14 47L15 47L15 48L16 48L16 47L15 47L15 46L16 46L16 45L17 45L17 46L19 46L19 47L20 47L20 46L19 46L19 45L21 45L21 46L22 46L22 45L24 45L24 46L23 46L23 47L24 47L24 49L25 49L25 48L26 48L26 49L27 49L27 51L28 51L28 52L29 52L29 53L28 53L28 54L30 54L30 55L29 55L29 57L27 57L27 56L26 56L26 57L25 57L25 56L24 56L24 55L25 55L25 54L26 54L26 55L27 55L27 53L25 53L25 52L26 52L26 51L25 51L25 52L24 52L24 53L25 53L25 54L23 54L23 53L22 53L22 52L21 52L21 51L22 51L22 49L23 49L23 48L22 48L22 49L20 49L20 48L19 48L19 49L18 49L18 47L17 47L17 49L16 49L16 50L18 50L18 51L17 51L17 52L18 52L18 53L20 53L20 55L18 55L18 56L19 56L19 57L20 57L20 58L22 58L22 59L23 59L23 58L22 58L22 57L23 57L23 56L24 56L24 57L25 57L25 58L24 58L24 60L25 60L25 63L27 63L27 62L29 62L29 61L30 61L30 62L31 62L31 61L30 61L30 58L29 58L29 57L30 57L30 55L33 55L33 53L34 53L34 55L35 55L35 56L37 56L37 54L35 54L35 53L36 53L36 52L37 52L37 53L38 53L38 54L40 54L40 55L41 55L41 56L40 56L40 58L39 58L39 55L38 55L38 58L39 58L39 61L38 61L38 59L36 59L36 58L37 58L37 57L35 57L35 59L36 59L36 60L37 60L37 62L39 62L39 63L40 63L40 61L43 61L43 60L44 60L44 62L42 62L42 63L41 63L41 64L42 64L42 63L45 63L45 62L47 62L47 61L48 61L48 60L49 60L49 59L50 59L50 58L51 58L51 59L52 59L52 58L53 58L53 57L55 57L55 58L54 58L54 59L53 59L53 60L54 60L54 59L55 59L55 60L56 60L56 59L55 59L55 58L56 58L56 56L58 56L58 55L56 55L56 56L54 56L54 55L55 55L55 54L53 54L53 53L56 53L56 54L57 54L57 52L58 52L58 53L59 53L59 52L60 52L60 53L62 53L62 52L63 52L63 51L62 51L62 52L60 52L60 51L59 51L59 50L58 50L58 51L57 51L57 49L56 49L56 52L54 52L54 51L55 51L55 50L54 50L54 51L53 51L53 52L52 52L52 54L51 54L51 53L50 53L50 52L51 52L51 51L50 51L50 50L49 50L49 49L50 49L50 48L52 48L52 47L50 47L50 46L51 46L51 45L50 45L50 46L48 46L48 45L47 45L47 44L46 44L46 45L45 45L45 44L44 44L44 43L46 43L46 42L48 42L48 44L49 44L49 43L50 43L50 44L52 44L52 45L53 45L53 44L55 44L55 43L56 43L56 42L58 42L58 43L59 43L59 44L58 44L58 45L59 45L59 44L60 44L60 45L62 45L62 44L60 44L60 43L61 43L61 42L63 42L63 41L62 41L62 40L63 40L63 37L62 37L62 38L60 38L60 39L61 39L61 40L59 40L59 41L58 41L58 40L57 40L57 37L58 37L58 39L59 39L59 37L61 37L61 35L62 35L62 36L63 36L63 35L62 35L62 34L63 34L63 33L62 33L62 32L61 32L61 35L60 35L60 36L55 36L55 35L56 35L56 32L55 32L55 31L56 31L56 30L57 30L57 29L56 29L56 30L53 30L53 31L54 31L54 32L52 32L52 33L50 33L50 34L52 34L52 35L51 35L51 36L49 36L49 33L48 33L48 32L49 32L49 29L50 29L50 30L51 30L51 29L50 29L50 28L51 28L51 27L48 27L48 26L49 26L49 25L48 25L48 24L49 24L49 23L50 23L50 26L52 26L52 25L53 25L53 24L52 24L52 25L51 25L51 23L50 23L50 22L51 22L51 20L52 20L52 21L53 21L53 20L52 20L52 18L53 18L53 19L55 19L55 20L54 20L54 21L55 21L55 22L53 22L53 23L54 23L54 25L56 25L56 26L53 26L53 28L52 28L52 29L55 29L55 28L58 28L58 30L60 30L60 29L59 29L59 28L61 28L61 27L62 27L62 28L63 28L63 27L62 27L62 26L63 26L63 25L61 25L61 26L60 26L60 27L59 27L59 28L58 28L58 27L56 27L56 26L57 26L57 25L58 25L58 26L59 26L59 25L58 25L58 24L57 24L57 25L56 25L56 24L55 24L55 23L58 23L58 22L59 22L59 21L56 21L56 20L57 20L57 19L55 19L55 18L53 18L53 16L54 16L54 15L55 15L55 17L56 17L56 18L59 18L59 17L56 17L56 16L57 16L57 15L55 15L55 14L54 14L54 15L53 15L53 14L52 14L52 15L53 15L53 16L52 16L52 18L51 18L51 17L50 17L50 18L49 18L49 17L45 17L45 16L46 16L46 15L45 15L45 16L44 16L44 17L43 17L43 18L42 18L42 20L39 20L39 19L38 19L38 18L41 18L41 17L42 17L42 16L43 16L43 15L44 15L44 13L45 13L45 14L47 14L47 16L49 16L49 15L50 15L50 16L51 16L51 15L50 15L50 14L51 14L51 13L53 13L53 12L49 12L49 13L45 13L45 12L43 12L43 14L42 14L42 13L41 13L41 12L40 12L40 10L39 10L39 9L37 9L37 10L36 10L36 11L34 11L34 12L38 12L38 14L37 14L37 13L34 13L34 14L32 14L32 13L33 13L33 12L32 12L32 11L33 11L33 10L32 10L32 9L31 9L31 12L28 12L28 13L27 13L27 11L26 11L26 9L28 9L28 10L30 10L30 9L28 9L28 6L27 6L27 8L25 8L25 7L24 7L24 6L23 6L23 8L22 8L22 9L23 9L23 10L22 10L22 11L23 11L23 12L19 12L19 13L18 13L18 16L19 16L19 15L20 15L20 14L19 14L19 13L21 13L21 15L22 15L22 17L25 17L25 16L26 16L26 17L27 17L27 18L29 18L29 17L31 17L31 16L32 16L32 17L33 17L33 18L32 18L32 19L33 19L33 20L32 20L32 21L31 21L31 20L30 20L30 21L25 21L25 20L26 20L26 19L23 19L23 20L24 20L24 21L25 21L25 22L27 22L27 23L24 23L24 22L23 22L23 21L22 21L22 20L21 20L21 19L22 19L22 18L21 18L21 17L20 17L20 18L19 18L19 17L18 17L18 19L17 19L17 20L16 20L16 16L15 16L15 18L13 18L13 17L14 17L14 16L13 16L13 15L15 15L15 14L16 14L16 13L14 13L14 12L16 12L16 11L15 11L15 10L17 10L17 8L18 8L18 6L17 6L17 5L16 5L16 4L15 4L15 5L13 5L13 4L14 4L14 2ZM12 3L12 4L13 4L13 3ZM17 3L17 4L18 4L18 3ZM32 3L32 4L34 4L34 3ZM46 3L46 4L47 4L47 3ZM52 3L52 5L53 5L53 3ZM31 5L31 8L34 8L34 5ZM14 6L14 9L16 9L16 7L17 7L17 6L16 6L16 7L15 7L15 6ZM21 6L21 7L22 7L22 6ZM29 6L29 7L30 7L30 6ZM32 6L32 7L33 7L33 6ZM48 6L48 7L49 7L49 6ZM53 6L53 7L54 7L54 6ZM56 6L56 7L57 7L57 6ZM23 8L23 9L24 9L24 10L25 10L25 9L24 9L24 8ZM3 9L3 10L2 10L2 11L4 11L4 12L3 12L3 15L4 15L4 12L8 12L8 9L6 9L6 10L7 10L7 11L5 11L5 9ZM42 9L42 10L43 10L43 9ZM61 9L61 10L60 10L60 11L58 11L58 12L57 12L57 13L56 13L56 11L55 11L55 10L52 10L52 11L55 11L55 13L56 13L56 14L59 14L59 13L60 13L60 12L61 12L61 13L62 13L62 12L63 12L63 11L62 11L62 9ZM63 9L63 10L64 10L64 9ZM11 10L11 11L10 11L10 12L11 12L11 13L13 13L13 12L14 12L14 10L13 10L13 12L12 12L12 10ZM38 10L38 11L39 11L39 10ZM24 11L24 13L22 13L22 15L23 15L23 16L24 16L24 15L23 15L23 14L24 14L24 13L26 13L26 14L25 14L25 15L28 15L28 17L29 17L29 16L31 16L31 15L29 15L29 13L28 13L28 14L27 14L27 13L26 13L26 11ZM46 11L46 12L47 12L47 11ZM31 12L31 13L32 13L32 12ZM39 12L39 14L38 14L38 15L37 15L37 14L36 14L36 15L35 15L35 14L34 14L34 17L37 17L37 16L42 16L42 15L40 15L40 14L41 14L41 13L40 13L40 12ZM5 13L5 14L7 14L7 13ZM48 14L48 15L49 15L49 14ZM6 15L6 16L7 16L7 15ZM32 15L32 16L33 16L33 15ZM36 15L36 16L37 16L37 15ZM58 15L58 16L59 16L59 15ZM60 15L60 16L61 16L61 15ZM44 17L44 18L45 18L45 17ZM9 18L9 19L10 19L10 18ZM11 18L11 19L12 19L12 18ZM20 18L20 19L21 19L21 18ZM34 18L34 21L37 21L37 22L36 22L36 23L37 23L37 22L38 22L38 23L39 23L39 24L38 24L38 25L37 25L37 24L34 24L34 23L35 23L35 22L34 22L34 23L32 23L32 24L33 24L33 25L32 25L32 28L33 28L33 29L32 29L32 30L30 30L30 28L31 28L31 27L30 27L30 26L31 26L31 25L30 25L30 26L28 26L28 25L29 25L29 24L31 24L31 23L29 23L29 22L28 22L28 23L27 23L27 24L28 24L28 25L26 25L26 26L25 26L25 25L24 25L24 27L22 27L22 26L23 26L23 25L21 25L21 24L24 24L24 23L22 23L22 21L21 21L21 20L20 20L20 21L21 21L21 23L19 23L19 24L18 24L18 23L17 23L17 21L18 21L18 22L19 22L19 21L18 21L18 20L17 20L17 21L16 21L16 20L14 20L14 19L13 19L13 20L8 20L8 22L6 22L6 23L7 23L7 24L8 24L8 22L9 22L9 23L10 23L10 22L9 22L9 21L14 21L14 22L13 22L13 24L12 24L12 22L11 22L11 26L10 26L10 25L9 25L9 26L8 26L8 25L7 25L7 26L8 26L8 27L7 27L7 28L8 28L8 27L9 27L9 29L10 29L10 28L12 28L12 29L13 29L13 31L11 31L11 30L10 30L10 32L12 32L12 34L11 34L11 35L12 35L12 34L13 34L13 35L14 35L14 36L16 36L16 37L17 37L17 38L16 38L16 40L15 40L15 37L13 37L13 38L12 38L12 36L11 36L11 38L10 38L10 39L11 39L11 38L12 38L12 39L13 39L13 41L12 41L12 40L11 40L11 41L10 41L10 42L13 42L13 43L14 43L14 44L13 44L13 46L15 46L15 45L16 45L16 43L18 43L18 45L19 45L19 44L20 44L20 43L18 43L18 41L19 41L19 40L17 40L17 38L18 38L18 39L20 39L20 37L22 37L22 36L21 36L21 35L22 35L22 34L25 34L25 33L22 33L22 32L23 32L23 31L24 31L24 32L27 32L27 33L26 33L26 34L27 34L27 35L28 35L28 37L30 37L30 38L27 38L27 39L26 39L26 40L25 40L25 41L21 41L21 40L24 40L24 39L25 39L25 38L26 38L26 37L24 37L24 38L23 38L23 39L22 39L22 38L21 38L21 40L20 40L20 41L21 41L21 42L26 42L26 43L28 43L28 44L29 44L29 43L30 43L30 44L31 44L31 45L30 45L30 46L29 46L29 47L28 47L28 48L27 48L27 47L26 47L26 48L27 48L27 49L30 49L30 50L29 50L29 52L30 52L30 53L31 53L31 49L33 49L33 50L32 50L32 51L33 51L33 52L32 52L32 53L33 53L33 52L35 52L35 51L34 51L34 50L35 50L35 49L33 49L33 48L35 48L35 47L38 47L38 49L39 49L39 47L40 47L40 48L41 48L41 47L40 47L40 46L41 46L41 45L42 45L42 46L43 46L43 47L42 47L42 48L43 48L43 49L41 49L41 51L39 51L39 50L36 50L36 51L39 51L39 52L38 52L38 53L39 53L39 52L41 52L41 53L40 53L40 54L43 54L43 55L42 55L42 56L41 56L41 58L43 58L43 59L42 59L42 60L43 60L43 59L44 59L44 60L45 60L45 61L46 61L46 59L47 59L47 58L48 58L48 59L49 59L49 58L50 58L50 56L51 56L51 57L52 57L52 56L53 56L53 54L52 54L52 55L51 55L51 54L50 54L50 53L49 53L49 52L47 52L47 50L46 50L46 51L44 51L44 48L48 48L48 49L49 49L49 48L48 48L48 46L46 46L46 47L45 47L45 46L43 46L43 45L42 45L42 44L41 44L41 43L40 43L40 42L43 42L43 41L44 41L44 42L45 42L45 41L47 41L47 40L46 40L46 39L49 39L49 36L48 36L48 38L45 38L45 37L47 37L47 36L46 36L46 35L47 35L47 34L45 34L45 35L44 35L44 33L42 33L42 32L41 32L41 31L42 31L42 30L43 30L43 28L45 28L45 27L47 27L47 26L46 26L46 24L48 24L48 23L49 23L49 22L50 22L50 20L51 20L51 18L50 18L50 20L48 20L48 19L49 19L49 18L48 18L48 19L47 19L47 18L46 18L46 19L47 19L47 20L48 20L48 21L49 21L49 22L48 22L48 23L47 23L47 22L46 22L46 24L45 24L45 23L44 23L44 22L43 22L43 20L42 20L42 22L43 22L43 23L42 23L42 24L43 24L43 23L44 23L44 24L45 24L45 27L44 27L44 26L43 26L43 25L41 25L41 26L40 26L40 27L39 27L39 26L38 26L38 25L40 25L40 24L41 24L41 23L40 23L40 22L41 22L41 21L39 21L39 20L38 20L38 21L37 21L37 20L36 20L36 19L37 19L37 18L36 18L36 19L35 19L35 18ZM28 19L28 20L29 20L29 19ZM44 19L44 20L45 20L45 19ZM15 21L15 22L14 22L14 25L15 25L15 26L12 26L12 28L14 28L14 29L16 29L16 30L14 30L14 31L13 31L13 34L17 34L17 35L16 35L16 36L17 36L17 37L18 37L18 36L17 36L17 35L18 35L18 34L19 34L19 35L21 35L21 34L22 34L22 33L20 33L20 32L21 32L21 29L23 29L23 30L22 30L22 31L23 31L23 30L24 30L24 29L23 29L23 28L22 28L22 27L20 27L20 26L21 26L21 25L20 25L20 26L19 26L19 25L18 25L18 24L17 24L17 25L16 25L16 23L15 23L15 22L16 22L16 21ZM30 21L30 22L31 22L31 21ZM32 21L32 22L33 22L33 21ZM38 21L38 22L39 22L39 21ZM63 21L63 22L64 22L64 21ZM28 23L28 24L29 24L29 23ZM1 24L1 25L2 25L2 24ZM33 25L33 27L34 27L34 26L35 26L35 27L36 27L36 28L37 28L37 29L36 29L36 31L35 31L35 34L36 34L36 35L35 35L35 36L34 36L34 35L33 35L33 36L34 36L34 37L35 37L35 38L33 38L33 37L32 37L32 38L30 38L30 39L28 39L28 40L29 40L29 41L28 41L28 43L29 43L29 42L30 42L30 41L31 41L31 42L33 42L33 43L35 43L35 44L37 44L37 45L36 45L36 46L39 46L39 45L41 45L41 44L39 44L39 43L38 43L38 42L39 42L39 41L41 41L41 40L42 40L42 41L43 41L43 40L44 40L44 41L45 41L45 40L44 40L44 39L45 39L45 38L42 38L42 39L41 39L41 37L43 37L43 36L42 36L42 35L43 35L43 34L42 34L42 33L41 33L41 32L39 32L39 31L41 31L41 29L42 29L42 28L43 28L43 26L42 26L42 28L40 28L40 30L39 30L39 28L37 28L37 27L36 27L36 26L35 26L35 25ZM9 26L9 27L10 27L10 26ZM17 26L17 28L18 28L18 29L20 29L20 28L18 28L18 27L19 27L19 26ZM26 26L26 27L27 27L27 26ZM15 27L15 28L16 28L16 27ZM28 27L28 30L27 30L27 32L28 32L28 31L29 31L29 27ZM54 27L54 28L55 28L55 27ZM26 28L26 29L25 29L25 31L26 31L26 29L27 29L27 28ZM48 28L48 29L47 29L47 30L46 30L46 31L47 31L47 30L48 30L48 29L49 29L49 28ZM34 29L34 30L35 30L35 29ZM44 29L44 30L45 30L45 29ZM18 30L18 31L20 31L20 30ZM38 30L38 31L39 31L39 30ZM5 31L5 34L8 34L8 31ZM14 31L14 33L19 33L19 32L16 32L16 31ZM31 31L31 34L34 34L34 31ZM44 31L44 32L45 32L45 33L46 33L46 32L45 32L45 31ZM57 31L57 34L60 34L60 31ZM6 32L6 33L7 33L7 32ZM29 32L29 33L28 33L28 35L29 35L29 36L30 36L30 35L29 35L29 33L30 33L30 32ZM32 32L32 33L33 33L33 32ZM36 32L36 34L37 34L37 35L40 35L40 36L41 36L41 35L40 35L40 34L41 34L41 33L39 33L39 32L38 32L38 33L39 33L39 34L37 34L37 32ZM54 32L54 34L55 34L55 32ZM58 32L58 33L59 33L59 32ZM1 33L1 34L2 34L2 33ZM3 33L3 35L4 35L4 33ZM24 35L24 36L26 36L26 35ZM31 35L31 36L32 36L32 35ZM52 35L52 36L51 36L51 38L50 38L50 39L52 39L52 40L53 40L53 41L54 41L54 42L55 42L55 41L54 41L54 40L56 40L56 41L57 41L57 40L56 40L56 39L54 39L54 38L56 38L56 37L54 37L54 35ZM19 36L19 37L20 37L20 36ZM36 36L36 38L35 38L35 39L33 39L33 38L32 38L32 39L33 39L33 40L32 40L32 41L33 41L33 42L38 42L38 41L39 41L39 40L35 40L35 39L36 39L36 38L37 38L37 39L39 39L39 38L38 38L38 36ZM44 36L44 37L45 37L45 36ZM52 36L52 37L53 37L53 36ZM52 38L52 39L53 39L53 38ZM30 39L30 40L31 40L31 39ZM40 39L40 40L41 40L41 39ZM42 39L42 40L43 40L43 39ZM14 40L14 41L13 41L13 42L17 42L17 41L15 41L15 40ZM26 40L26 41L27 41L27 40ZM34 40L34 41L35 41L35 40ZM48 40L48 42L50 42L50 43L51 43L51 42L52 42L52 44L53 44L53 42L52 42L52 41L51 41L51 40L50 40L50 41L49 41L49 40ZM50 41L50 42L51 42L51 41ZM59 41L59 42L61 42L61 41ZM8 43L8 44L6 44L6 45L7 45L7 46L8 46L8 48L9 48L9 45L8 45L8 44L9 44L9 43ZM10 43L10 44L11 44L11 45L10 45L10 46L11 46L11 45L12 45L12 44L11 44L11 43ZM24 43L24 45L25 45L25 46L27 46L27 45L26 45L26 44L25 44L25 43ZM31 43L31 44L32 44L32 43ZM33 44L33 45L31 45L31 46L30 46L30 47L29 47L29 48L33 48L33 47L32 47L32 46L34 46L34 47L35 47L35 45L34 45L34 44ZM38 44L38 45L39 45L39 44ZM43 47L43 48L44 48L44 47ZM60 47L60 48L62 48L62 49L64 49L64 50L65 50L65 49L64 49L64 48L62 48L62 47ZM36 48L36 49L37 49L37 48ZM12 50L12 51L13 51L13 50ZM42 50L42 51L43 51L43 52L42 52L42 53L43 53L43 52L44 52L44 55L45 55L45 56L44 56L44 57L45 57L45 58L47 58L47 57L46 57L46 56L50 56L50 55L48 55L48 54L49 54L49 53L47 53L47 52L44 52L44 51L43 51L43 50ZM48 50L48 51L49 51L49 50ZM58 51L58 52L59 52L59 51ZM20 52L20 53L21 53L21 55L20 55L20 57L21 57L21 55L23 55L23 54L22 54L22 53L21 53L21 52ZM8 54L8 55L11 55L11 54ZM45 54L45 55L47 55L47 54ZM10 56L10 57L11 57L11 56ZM26 57L26 58L25 58L25 59L26 59L26 58L27 58L27 57ZM31 57L31 60L34 60L34 57ZM57 57L57 60L60 60L60 57ZM32 58L32 59L33 59L33 58ZM58 58L58 59L59 59L59 58ZM27 59L27 60L28 60L28 61L29 61L29 60L28 60L28 59ZM40 59L40 60L41 60L41 59ZM17 60L17 62L18 62L18 63L20 63L20 62L18 62L18 61L20 61L20 60ZM61 60L61 61L60 61L60 62L61 62L61 61L62 61L62 60ZM23 61L23 62L24 62L24 61ZM26 61L26 62L27 62L27 61ZM33 61L33 62L32 62L32 63L31 63L31 64L33 64L33 62L34 62L34 64L35 64L35 62L36 62L36 61ZM50 61L50 62L51 62L51 61ZM55 61L55 62L56 62L56 63L57 63L57 62L58 62L58 61L57 61L57 62L56 62L56 61ZM28 63L28 64L29 64L29 63ZM52 63L52 64L51 64L51 65L52 65L52 64L53 64L53 63ZM18 64L18 65L22 65L22 64ZM0 0L0 7L7 7L7 0ZM1 1L1 6L6 6L6 1ZM2 2L2 5L5 5L5 2ZM58 0L58 7L65 7L65 0ZM59 1L59 6L64 6L64 1ZM60 2L60 5L63 5L63 2ZM0 58L0 65L7 65L7 58ZM1 59L1 64L6 64L6 59ZM2 60L2 63L5 63L5 60Z" fill="#000000"/></g></g></svg>
