<?xml version="1.0" encoding="UTF-8"?>
<svg xmlns="http://www.w3.org/2000/svg" version="1.1" width="300" height="300" viewBox="0 0 300 300"><rect x="0" y="0" width="300" height="300" fill="#ffffff"/><g transform="scale(4.615)"><g transform="translate(0,0)"><path fill-rule="evenodd" d="M10 0L10 1L8 1L8 2L10 2L10 3L8 3L8 4L10 4L10 3L11 3L11 2L12 2L12 1L11 1L11 0ZM15 0L15 1L14 1L14 3L12 3L12 4L14 4L14 3L15 3L15 2L16 2L16 4L15 4L15 5L14 5L14 7L13 7L13 6L12 6L12 5L11 5L11 6L10 6L10 5L8 5L8 7L9 7L9 6L10 6L10 7L11 7L11 8L6 8L6 9L5 9L5 8L0 8L0 10L1 10L1 9L3 9L3 10L2 10L2 13L1 13L1 12L0 12L0 15L1 15L1 16L2 16L2 14L3 14L3 11L4 11L4 12L5 12L5 13L4 13L4 14L5 14L5 15L4 15L4 18L3 18L3 17L1 17L1 18L3 18L3 19L0 19L0 20L3 20L3 22L2 22L2 21L1 21L1 22L2 22L2 23L0 23L0 27L2 27L2 28L0 28L0 31L3 31L3 30L4 30L4 35L3 35L3 34L0 34L0 35L2 35L2 36L1 36L1 37L0 37L0 38L1 38L1 39L0 39L0 43L1 43L1 44L0 44L0 45L1 45L1 46L0 46L0 47L1 47L1 48L0 48L0 50L1 50L1 51L0 51L0 52L1 52L1 51L2 51L2 53L3 53L3 52L4 52L4 53L7 53L7 52L6 52L6 51L8 51L8 50L6 50L6 51L5 51L5 48L4 48L4 46L5 46L5 45L7 45L7 46L6 46L6 47L7 47L7 48L6 48L6 49L7 49L7 48L9 48L9 49L10 49L10 51L9 51L9 52L10 52L10 53L9 53L9 54L8 54L8 56L6 56L6 57L8 57L8 59L10 59L10 60L8 60L8 65L9 65L9 64L11 64L11 65L12 65L12 63L13 63L13 62L14 62L14 63L16 63L16 64L15 64L15 65L17 65L17 62L18 62L18 61L19 61L19 62L20 62L20 63L19 63L19 64L18 64L18 65L19 65L19 64L20 64L20 65L22 65L22 62L24 62L24 61L25 61L25 59L26 59L26 58L27 58L27 60L28 60L28 59L29 59L29 58L30 58L30 60L29 60L29 61L31 61L31 62L29 62L29 63L28 63L28 64L27 64L27 65L31 65L31 63L32 63L32 64L33 64L33 65L40 65L40 64L42 64L42 65L44 65L44 64L45 64L45 65L46 65L46 64L47 64L47 63L48 63L48 62L50 62L50 65L52 65L52 64L53 64L53 65L55 65L55 63L56 63L56 64L57 64L57 65L61 65L61 63L62 63L62 62L63 62L63 64L62 64L62 65L63 65L63 64L64 64L64 61L65 61L65 60L62 60L62 59L63 59L63 58L65 58L65 57L64 57L64 56L65 56L65 55L63 55L63 56L62 56L62 57L63 57L63 58L61 58L61 55L60 55L60 56L59 56L59 55L58 55L58 54L65 54L65 53L64 53L64 52L65 52L65 51L64 51L64 52L62 52L62 51L63 51L63 50L65 50L65 49L64 49L64 48L62 48L62 47L63 47L63 46L62 46L62 47L61 47L61 45L60 45L60 44L62 44L62 45L64 45L64 44L62 44L62 42L61 42L61 41L58 41L58 40L61 40L61 39L60 39L60 38L62 38L62 37L63 37L63 40L62 40L62 41L63 41L63 42L65 42L65 41L63 41L63 40L64 40L64 38L65 38L65 37L63 37L63 36L62 36L62 35L63 35L63 34L65 34L65 33L63 33L63 32L62 32L62 33L63 33L63 34L62 34L62 35L61 35L61 31L62 31L62 29L63 29L63 28L64 28L64 29L65 29L65 28L64 28L64 26L65 26L65 25L64 25L64 24L65 24L65 23L64 23L64 22L65 22L65 20L62 20L62 23L63 23L63 24L60 24L60 25L59 25L59 24L58 24L58 23L59 23L59 22L61 22L61 20L58 20L58 19L60 19L60 17L61 17L61 16L62 16L62 18L61 18L61 19L63 19L63 17L64 17L64 18L65 18L65 15L64 15L64 16L62 16L62 15L63 15L63 14L62 14L62 13L64 13L64 14L65 14L65 13L64 13L64 12L65 12L65 11L64 11L64 10L65 10L65 9L64 9L64 8L63 8L63 9L62 9L62 8L61 8L61 9L62 9L62 11L63 11L63 12L62 12L62 13L61 13L61 12L60 12L60 11L61 11L61 10L60 10L60 11L59 11L59 10L58 10L58 11L54 11L54 12L53 12L53 10L55 10L55 5L54 5L54 4L56 4L56 5L57 5L57 4L56 4L56 3L57 3L57 1L56 1L56 0L55 0L55 1L56 1L56 3L55 3L55 2L54 2L54 3L53 3L53 1L54 1L54 0L52 0L52 3L51 3L51 1L50 1L50 0L47 0L47 1L46 1L46 2L44 2L44 0L39 0L39 1L38 1L38 4L39 4L39 5L38 5L38 7L37 7L37 5L36 5L36 7L37 7L37 8L35 8L35 4L37 4L37 3L36 3L36 2L35 2L35 1L34 1L34 0L32 0L32 1L33 1L33 2L30 2L30 3L31 3L31 4L30 4L30 5L27 5L27 6L26 6L26 8L25 8L25 9L24 9L24 8L23 8L23 6L24 6L24 7L25 7L25 6L24 6L24 5L25 5L25 4L27 4L27 2L28 2L28 4L29 4L29 2L28 2L28 1L27 1L27 0L24 0L24 2L23 2L23 0L21 0L21 1L20 1L20 0L19 0L19 4L18 4L18 3L17 3L17 2L18 2L18 0ZM29 0L29 1L31 1L31 0ZM21 1L21 2L22 2L22 1ZM40 1L40 2L41 2L41 3L39 3L39 4L41 4L41 5L40 5L40 6L39 6L39 8L38 8L38 9L37 9L37 10L35 10L35 9L34 9L34 10L35 10L35 11L34 11L34 12L32 12L32 10L33 10L33 9L32 9L32 10L30 10L30 9L28 9L28 11L27 11L27 10L22 10L22 11L23 11L23 12L20 12L20 13L18 13L18 12L19 12L19 10L20 10L20 11L21 11L21 9L23 9L23 8L21 8L21 7L22 7L22 6L23 6L23 5L24 5L24 4L25 4L25 3L26 3L26 2L24 2L24 3L23 3L23 4L22 4L22 3L21 3L21 4L19 4L19 5L18 5L18 4L17 4L17 5L15 5L15 10L16 10L16 11L15 11L15 12L14 12L14 13L12 13L12 14L9 14L9 11L12 11L12 10L13 10L13 11L14 11L14 10L13 10L13 8L11 8L11 10L10 10L10 9L9 9L9 10L7 10L7 9L6 9L6 10L7 10L7 11L6 11L6 12L7 12L7 13L5 13L5 14L7 14L7 13L8 13L8 14L9 14L9 15L5 15L5 18L4 18L4 19L3 19L3 20L5 20L5 18L7 18L7 17L6 17L6 16L10 16L10 15L12 15L12 17L16 17L16 16L19 16L19 17L17 17L17 18L16 18L16 20L15 20L15 18L12 18L12 21L13 21L13 19L14 19L14 20L15 20L15 21L14 21L14 22L13 22L13 23L11 23L11 21L9 21L9 20L10 20L10 19L11 19L11 18L10 18L10 17L8 17L8 19L6 19L6 20L7 20L7 21L5 21L5 26L4 26L4 23L2 23L2 24L1 24L1 26L2 26L2 27L3 27L3 26L4 26L4 27L5 27L5 29L4 29L4 30L5 30L5 29L6 29L6 30L9 30L9 31L10 31L10 32L11 32L11 33L10 33L10 34L9 34L9 35L4 35L4 37L3 37L3 38L2 38L2 40L4 40L4 44L1 44L1 45L2 45L2 46L4 46L4 44L5 44L5 42L7 42L7 43L6 43L6 44L7 44L7 45L8 45L8 44L9 44L9 47L10 47L10 48L11 48L11 46L10 46L10 45L12 45L12 44L13 44L13 41L15 41L15 42L17 42L17 41L15 41L15 40L16 40L16 38L17 38L17 40L19 40L19 41L18 41L18 43L16 43L16 44L15 44L15 45L14 45L14 46L13 46L13 48L12 48L12 49L11 49L11 52L13 52L13 50L12 50L12 49L15 49L15 50L17 50L17 51L16 51L16 52L17 52L17 53L15 53L15 52L14 52L14 53L15 53L15 54L12 54L12 53L11 53L11 54L10 54L10 56L9 56L9 58L11 58L11 61L10 61L10 63L12 63L12 62L13 62L13 60L14 60L14 61L15 61L15 62L16 62L16 61L17 61L17 60L19 60L19 61L24 61L24 60L19 60L19 59L18 59L18 58L19 58L19 57L20 57L20 58L21 58L21 57L23 57L23 58L22 58L22 59L24 59L24 57L25 57L25 58L26 58L26 57L28 57L28 58L29 58L29 57L30 57L30 55L29 55L29 54L30 54L30 53L31 53L31 56L32 56L32 54L33 54L33 55L35 55L35 56L37 56L37 57L36 57L36 58L35 58L35 59L36 59L36 60L37 60L37 61L33 61L33 62L32 62L32 63L33 63L33 64L35 64L35 63L36 63L36 64L37 64L37 63L36 63L36 62L39 62L39 63L40 63L40 61L41 61L41 63L42 63L42 64L43 64L43 63L45 63L45 64L46 64L46 63L45 63L45 62L47 62L47 61L48 61L48 60L49 60L49 59L50 59L50 60L51 60L51 59L50 59L50 58L51 58L51 57L53 57L53 58L52 58L52 59L53 59L53 60L52 60L52 62L51 62L51 61L50 61L50 62L51 62L51 63L53 63L53 64L54 64L54 63L55 63L55 62L56 62L56 63L58 63L58 64L59 64L59 62L58 62L58 61L57 61L57 62L56 62L56 61L55 61L55 62L53 62L53 60L56 60L56 59L55 59L55 58L56 58L56 56L58 56L58 55L56 55L56 56L55 56L55 54L53 54L53 53L56 53L56 54L57 54L57 52L58 52L58 53L59 53L59 52L60 52L60 53L62 53L62 52L60 52L60 51L61 51L61 50L63 50L63 49L61 49L61 47L60 47L60 46L59 46L59 44L60 44L60 43L61 43L61 42L57 42L57 41L56 41L56 40L57 40L57 37L58 37L58 39L59 39L59 37L61 37L61 36L55 36L55 34L54 34L54 33L56 33L56 32L55 32L55 30L57 30L57 29L56 29L56 28L58 28L58 30L59 30L59 28L58 28L58 27L57 27L57 26L59 26L59 27L60 27L60 28L61 28L61 29L62 29L62 28L63 28L63 27L62 27L62 26L63 26L63 25L60 25L60 26L59 26L59 25L58 25L58 24L57 24L57 25L56 25L56 24L55 24L55 23L57 23L57 21L58 21L58 22L59 22L59 21L58 21L58 20L57 20L57 19L56 19L56 18L59 18L59 17L56 17L56 16L57 16L57 15L56 15L56 14L59 14L59 15L58 15L58 16L59 16L59 15L60 15L60 16L61 16L61 15L62 15L62 14L61 14L61 13L60 13L60 14L59 14L59 11L58 11L58 12L57 12L57 13L56 13L56 14L52 14L52 15L53 15L53 16L51 16L51 15L50 15L50 14L51 14L51 13L53 13L53 12L50 12L50 11L48 11L48 10L49 10L49 9L50 9L50 10L52 10L52 9L53 9L53 8L52 8L52 9L50 9L50 8L51 8L51 7L52 7L52 6L51 6L51 7L50 7L50 5L51 5L51 4L50 4L50 5L49 5L49 4L48 4L48 3L49 3L49 2L48 2L48 1L47 1L47 2L46 2L46 3L44 3L44 2L43 2L43 1L42 1L42 2L41 2L41 1ZM33 2L33 3L32 3L32 4L35 4L35 3L34 3L34 2ZM42 2L42 3L43 3L43 2ZM47 2L47 3L46 3L46 4L47 4L47 3L48 3L48 2ZM52 3L52 4L53 4L53 3ZM21 4L21 5L20 5L20 7L21 7L21 6L22 6L22 4ZM42 4L42 5L45 5L45 6L44 6L44 8L45 8L45 10L46 10L46 11L44 11L44 10L43 10L43 9L42 9L42 10L41 10L41 9L39 9L39 10L38 10L38 12L36 12L36 11L35 11L35 13L37 13L37 14L36 14L36 15L35 15L35 14L33 14L33 13L32 13L32 16L33 16L33 15L35 15L35 16L34 16L34 17L35 17L35 16L36 16L36 17L37 17L37 16L39 16L39 17L40 17L40 16L41 16L41 15L42 15L42 16L43 16L43 17L41 17L41 18L45 18L45 19L43 19L43 20L42 20L42 19L40 19L40 18L38 18L38 19L40 19L40 20L42 20L42 22L43 22L43 23L44 23L44 24L43 24L43 25L42 25L42 26L43 26L43 25L44 25L44 26L45 26L45 27L43 27L43 28L42 28L42 27L40 27L40 26L41 26L41 25L40 25L40 24L41 24L41 23L39 23L39 22L38 22L38 21L39 21L39 20L38 20L38 21L37 21L37 20L36 20L36 22L34 22L34 24L33 24L33 23L32 23L32 20L33 20L33 21L35 21L35 20L34 20L34 19L35 19L35 18L29 18L29 19L28 19L28 20L27 20L27 23L26 23L26 21L24 21L24 20L26 20L26 19L25 19L25 17L22 17L22 16L23 16L23 15L24 15L24 16L27 16L27 17L26 17L26 18L28 18L28 17L29 17L29 16L31 16L31 13L29 13L29 16L28 16L28 15L27 15L27 14L28 14L28 13L26 13L26 12L27 12L27 11L26 11L26 12L25 12L25 11L24 11L24 12L23 12L23 13L22 13L22 14L21 14L21 16L20 16L20 17L19 17L19 18L18 18L18 19L17 19L17 20L18 20L18 21L17 21L17 22L19 22L19 20L20 20L20 21L22 21L22 20L20 20L20 19L22 19L22 18L23 18L23 19L24 19L24 20L23 20L23 22L24 22L24 23L23 23L23 24L24 24L24 23L25 23L25 25L24 25L24 26L25 26L25 25L26 25L26 27L25 27L25 28L24 28L24 29L19 29L19 28L18 28L18 27L19 27L19 26L20 26L20 27L22 27L22 28L23 28L23 27L22 27L22 26L23 26L23 25L21 25L21 23L19 23L19 24L18 24L18 23L17 23L17 24L16 24L16 23L15 23L15 22L16 22L16 21L15 21L15 22L14 22L14 23L15 23L15 24L10 24L10 26L9 26L9 24L8 24L8 23L7 23L7 22L9 22L9 21L7 21L7 22L6 22L6 23L7 23L7 24L6 24L6 25L8 25L8 26L6 26L6 27L8 27L8 29L9 29L9 27L10 27L10 26L11 26L11 27L12 27L12 28L11 28L11 29L10 29L10 30L12 30L12 31L11 31L11 32L13 32L13 31L14 31L14 30L15 30L15 31L16 31L16 32L14 32L14 33L17 33L17 31L18 31L18 33L19 33L19 34L20 34L20 35L21 35L21 36L20 36L20 37L18 37L18 36L16 36L16 35L18 35L18 34L13 34L13 33L12 33L12 34L10 34L10 36L9 36L9 37L8 37L8 36L5 36L5 37L4 37L4 38L5 38L5 40L6 40L6 41L7 41L7 42L8 42L8 43L7 43L7 44L8 44L8 43L9 43L9 42L10 42L10 41L9 41L9 40L6 40L6 39L9 39L9 38L10 38L10 40L12 40L12 41L13 41L13 40L14 40L14 38L15 38L15 37L14 37L14 35L15 35L15 36L16 36L16 37L18 37L18 39L20 39L20 37L21 37L21 39L22 39L22 37L23 37L23 35L26 35L26 36L25 36L25 37L24 37L24 38L23 38L23 41L22 41L22 42L23 42L23 41L24 41L24 42L25 42L25 43L24 43L24 44L23 44L23 45L22 45L22 46L21 46L21 47L22 47L22 46L23 46L23 47L24 47L24 48L25 48L25 49L22 49L22 48L20 48L20 49L22 49L22 50L21 50L21 51L19 51L19 50L18 50L18 49L19 49L19 48L18 48L18 49L17 49L17 48L16 48L16 47L15 47L15 46L16 46L16 45L15 45L15 46L14 46L14 47L15 47L15 48L16 48L16 49L17 49L17 50L18 50L18 51L17 51L17 52L18 52L18 53L17 53L17 54L16 54L16 55L17 55L17 56L16 56L16 57L19 57L19 56L18 56L18 55L20 55L20 57L21 57L21 55L22 55L22 56L23 56L23 55L22 55L22 54L21 54L21 55L20 55L20 53L22 53L22 52L21 52L21 51L22 51L22 50L25 50L25 49L26 49L26 50L27 50L27 51L28 51L28 52L27 52L27 55L26 55L26 56L25 56L25 55L24 55L24 56L25 56L25 57L26 57L26 56L27 56L27 55L28 55L28 53L29 53L29 52L30 52L30 50L31 50L31 47L32 47L32 45L34 45L34 46L33 46L33 48L32 48L32 49L33 49L33 51L34 51L34 52L32 52L32 51L31 51L31 53L33 53L33 54L35 54L35 53L34 53L34 52L36 52L36 53L37 53L37 55L40 55L40 56L41 56L41 58L38 58L38 57L39 57L39 56L38 56L38 57L37 57L37 58L36 58L36 59L40 59L40 60L41 60L41 61L42 61L42 62L44 62L44 60L46 60L46 59L47 59L47 58L50 58L50 57L51 57L51 56L50 56L50 57L49 57L49 56L46 56L46 55L48 55L48 53L49 53L49 55L52 55L52 56L53 56L53 55L52 55L52 54L50 54L50 53L51 53L51 52L53 52L53 51L54 51L54 52L56 52L56 50L57 50L57 51L58 51L58 52L59 52L59 51L60 51L60 50L61 50L61 49L58 49L58 48L60 48L60 47L58 47L58 48L57 48L57 46L55 46L55 45L52 45L52 44L53 44L53 43L54 43L54 44L56 44L56 45L57 45L57 43L54 43L54 42L55 42L55 40L56 40L56 39L54 39L54 38L56 38L56 37L54 37L54 34L53 34L53 33L51 33L51 34L50 34L50 35L49 35L49 34L48 34L48 33L49 33L49 32L50 32L50 31L52 31L52 32L53 32L53 31L54 31L54 30L55 30L55 27L56 27L56 25L55 25L55 24L54 24L54 23L52 23L52 22L55 22L55 21L54 21L54 20L55 20L55 19L54 19L54 18L56 18L56 17L54 17L54 18L53 18L53 17L52 17L52 18L53 18L53 19L52 19L52 20L51 20L51 18L50 18L50 17L51 17L51 16L50 16L50 17L49 17L49 16L47 16L47 17L48 17L48 18L50 18L50 19L49 19L49 20L48 20L48 22L46 22L46 23L49 23L49 22L50 22L50 23L52 23L52 24L54 24L54 25L53 25L53 26L52 26L52 25L51 25L51 24L48 24L48 26L46 26L46 25L44 25L44 24L45 24L45 23L44 23L44 20L45 20L45 19L47 19L47 18L46 18L46 16L45 16L45 15L47 15L47 14L46 14L46 13L49 13L49 12L48 12L48 11L47 11L47 10L46 10L46 9L47 9L47 8L48 8L48 9L49 9L49 8L48 8L48 7L49 7L49 5L48 5L48 7L47 7L47 5L45 5L45 4ZM17 5L17 6L16 6L16 7L17 7L17 6L18 6L18 8L16 8L16 9L17 9L17 10L18 10L18 9L19 9L19 6L18 6L18 5ZM31 5L31 8L34 8L34 5ZM11 6L11 7L12 7L12 6ZM27 6L27 7L28 7L28 8L29 8L29 7L30 7L30 6L29 6L29 7L28 7L28 6ZM32 6L32 7L33 7L33 6ZM40 6L40 8L41 8L41 6ZM42 6L42 8L43 8L43 6ZM45 6L45 7L46 7L46 6ZM53 6L53 7L54 7L54 6ZM56 6L56 7L57 7L57 6ZM20 8L20 9L21 9L21 8ZM26 8L26 9L27 9L27 8ZM56 8L56 9L58 9L58 8ZM59 8L59 9L60 9L60 8ZM4 9L4 11L5 11L5 9ZM63 9L63 10L64 10L64 9ZM40 10L40 11L39 11L39 12L38 12L38 14L37 14L37 15L36 15L36 16L37 16L37 15L38 15L38 14L39 14L39 12L40 12L40 13L43 13L43 14L42 14L42 15L43 15L43 16L44 16L44 17L45 17L45 16L44 16L44 13L45 13L45 12L42 12L42 11L43 11L43 10L42 10L42 11L41 11L41 10ZM28 11L28 12L31 12L31 11ZM40 11L40 12L41 12L41 11ZM54 12L54 13L55 13L55 12ZM16 13L16 14L18 14L18 15L20 15L20 14L18 14L18 13ZM23 13L23 14L22 14L22 15L23 15L23 14L24 14L24 13ZM25 13L25 15L26 15L26 13ZM12 14L12 15L14 15L14 16L16 16L16 15L15 15L15 14ZM40 14L40 15L39 15L39 16L40 16L40 15L41 15L41 14ZM48 14L48 15L49 15L49 14ZM60 14L60 15L61 15L61 14ZM54 15L54 16L55 16L55 15ZM20 17L20 18L22 18L22 17ZM36 18L36 19L37 19L37 18ZM8 19L8 20L9 20L9 19ZM29 20L29 21L28 21L28 22L29 22L29 21L31 21L31 20ZM49 20L49 21L50 21L50 22L51 22L51 20ZM52 20L52 21L53 21L53 20ZM56 20L56 21L57 21L57 20ZM63 21L63 22L64 22L64 21ZM30 22L30 23L31 23L31 24L29 24L29 25L28 25L28 26L27 26L27 27L26 27L26 29L24 29L24 30L23 30L23 31L24 31L24 32L22 32L22 33L20 33L20 34L21 34L21 35L22 35L22 33L25 33L25 32L26 32L26 33L27 33L27 34L30 34L30 32L29 32L29 33L28 33L28 31L27 31L27 30L28 30L28 29L29 29L29 27L28 27L28 26L29 26L29 25L30 25L30 27L31 27L31 26L32 26L32 27L33 27L33 28L30 28L30 30L29 30L29 31L30 31L30 30L32 30L32 29L33 29L33 28L34 28L34 30L35 30L35 29L36 29L36 30L37 30L37 31L35 31L35 34L36 34L36 32L37 32L37 33L38 33L38 34L39 34L39 33L38 33L38 32L40 32L40 33L41 33L41 32L43 32L43 31L45 31L45 30L47 30L47 31L46 31L46 32L49 32L49 31L50 31L50 30L51 30L51 28L49 28L49 27L50 27L50 26L51 26L51 27L52 27L52 26L51 26L51 25L50 25L50 26L48 26L48 27L46 27L46 28L47 28L47 29L45 29L45 28L43 28L43 30L42 30L42 29L41 29L41 28L40 28L40 30L39 30L39 27L36 27L36 26L37 26L37 25L38 25L38 26L40 26L40 25L39 25L39 24L37 24L37 22L36 22L36 23L35 23L35 24L34 24L34 25L33 25L33 24L32 24L32 23L31 23L31 22ZM17 24L17 25L11 25L11 26L12 26L12 27L13 27L13 26L15 26L15 27L14 27L14 28L12 28L12 29L14 29L14 28L16 28L16 29L15 29L15 30L16 30L16 29L17 29L17 30L19 30L19 31L20 31L20 30L19 30L19 29L18 29L18 28L17 28L17 26L19 26L19 25L18 25L18 24ZM26 24L26 25L27 25L27 24ZM31 24L31 25L32 25L32 24ZM35 24L35 25L37 25L37 24ZM2 25L2 26L3 26L3 25ZM20 25L20 26L21 26L21 25ZM8 26L8 27L9 27L9 26ZM34 26L34 28L35 28L35 26ZM53 26L53 27L55 27L55 26ZM27 27L27 29L26 29L26 30L27 30L27 29L28 29L28 27ZM61 27L61 28L62 28L62 27ZM6 28L6 29L7 29L7 28ZM36 28L36 29L37 29L37 30L38 30L38 31L39 31L39 30L38 30L38 28ZM48 28L48 29L47 29L47 30L48 30L48 29L49 29L49 28ZM52 28L52 29L53 29L53 28ZM1 29L1 30L2 30L2 29ZM44 29L44 30L45 30L45 29ZM5 31L5 34L8 34L8 31ZM26 31L26 32L27 32L27 31ZM31 31L31 34L34 34L34 31ZM40 31L40 32L41 32L41 31ZM57 31L57 34L60 34L60 31ZM0 32L0 33L2 33L2 32ZM6 32L6 33L7 33L7 32ZM32 32L32 33L33 33L33 32ZM44 32L44 33L43 33L43 34L41 34L41 36L39 36L39 35L35 35L35 37L36 37L36 36L39 36L39 37L38 37L38 38L34 38L34 36L33 36L33 35L31 35L31 37L30 37L30 35L28 35L28 36L27 36L27 37L25 37L25 38L27 38L27 37L28 37L28 38L30 38L30 39L32 39L32 40L30 40L30 41L28 41L28 40L29 40L29 39L28 39L28 40L26 40L26 41L28 41L28 42L30 42L30 43L29 43L29 44L28 44L28 46L25 46L25 47L27 47L27 48L26 48L26 49L27 49L27 48L28 48L28 47L29 47L29 48L30 48L30 47L31 47L31 46L30 46L30 44L31 44L31 45L32 45L32 44L34 44L34 43L35 43L35 44L37 44L37 47L35 47L35 46L34 46L34 47L35 47L35 48L34 48L34 49L35 49L35 50L34 50L34 51L36 51L36 52L37 52L37 53L38 53L38 54L39 54L39 53L41 53L41 52L40 52L40 51L44 51L44 50L40 50L40 51L39 51L39 52L38 52L38 50L39 50L39 49L38 49L38 50L37 50L37 49L35 49L35 48L37 48L37 47L38 47L38 48L40 48L40 49L41 49L41 48L42 48L42 47L43 47L43 49L46 49L46 50L47 50L47 51L48 51L48 52L49 52L49 53L50 53L50 52L51 52L51 51L52 51L52 50L54 50L54 51L55 51L55 50L56 50L56 49L57 49L57 48L55 48L55 50L54 50L54 49L53 49L53 48L54 48L54 47L55 47L55 46L52 46L52 47L53 47L53 48L52 48L52 50L51 50L51 49L50 49L50 48L51 48L51 47L49 47L49 46L48 46L48 45L46 45L46 44L47 44L47 43L48 43L48 44L49 44L49 45L50 45L50 46L51 46L51 45L50 45L50 44L52 44L52 42L53 42L53 40L54 40L54 39L53 39L53 40L52 40L52 41L51 41L51 39L52 39L52 38L53 38L53 36L52 36L52 38L51 38L51 35L50 35L50 36L49 36L49 35L48 35L48 34L47 34L47 33L45 33L45 32ZM58 32L58 33L59 33L59 32ZM44 33L44 34L45 34L45 33ZM12 34L12 35L13 35L13 34ZM46 34L46 35L42 35L42 36L43 36L43 37L40 37L40 38L38 38L38 40L36 40L36 39L34 39L34 40L32 40L32 41L31 41L31 43L33 43L33 42L32 42L32 41L34 41L34 42L35 42L35 43L37 43L37 44L42 44L42 45L39 45L39 46L38 46L38 47L40 47L40 48L41 48L41 47L42 47L42 46L43 46L43 47L44 47L44 48L45 48L45 47L46 47L46 48L47 48L47 49L49 49L49 48L47 48L47 47L48 47L48 46L43 46L43 44L42 44L42 43L40 43L40 42L43 42L43 43L44 43L44 44L46 44L46 43L47 43L47 42L48 42L48 43L51 43L51 42L50 42L50 39L51 39L51 38L50 38L50 39L49 39L49 38L48 38L48 39L49 39L49 40L47 40L47 38L45 38L45 39L44 39L44 38L43 38L43 37L44 37L44 36L45 36L45 37L49 37L49 36L46 36L46 35L47 35L47 34ZM52 34L52 35L53 35L53 34ZM10 36L10 38L12 38L12 40L13 40L13 38L14 38L14 37L12 37L12 36ZM21 36L21 37L22 37L22 36ZM28 36L28 37L29 37L29 36ZM32 36L32 37L33 37L33 36ZM5 37L5 38L8 38L8 37ZM32 38L32 39L33 39L33 38ZM40 38L40 39L39 39L39 41L37 41L37 43L38 43L38 42L40 42L40 41L43 41L43 40L42 40L42 39L43 39L43 38L42 38L42 39L41 39L41 38ZM24 39L24 41L25 41L25 39ZM40 39L40 40L41 40L41 39ZM45 39L45 40L44 40L44 41L45 41L45 40L46 40L46 42L47 42L47 40L46 40L46 39ZM20 40L20 41L21 41L21 40ZM34 40L34 41L35 41L35 40ZM2 41L2 42L1 42L1 43L3 43L3 41ZM8 41L8 42L9 42L9 41ZM20 42L20 43L18 43L18 45L20 45L20 44L21 44L21 42ZM10 43L10 44L12 44L12 43ZM58 43L58 44L59 44L59 43ZM26 44L26 45L27 45L27 44ZM23 45L23 46L24 46L24 45ZM7 46L7 47L8 47L8 46ZM18 46L18 47L20 47L20 46ZM29 46L29 47L30 47L30 46ZM40 46L40 47L41 47L41 46ZM3 48L3 49L4 49L4 48ZM1 49L1 50L2 50L2 49ZM28 49L28 50L30 50L30 49ZM36 50L36 51L37 51L37 50ZM48 50L48 51L51 51L51 50ZM58 50L58 51L59 51L59 50ZM24 51L24 52L23 52L23 54L26 54L26 53L24 53L24 52L26 52L26 51ZM19 52L19 53L20 53L20 52ZM42 52L42 53L43 53L43 52ZM44 52L44 53L45 53L45 54L40 54L40 55L42 55L42 56L44 56L44 57L45 57L45 58L44 58L44 59L43 59L43 58L41 58L41 60L42 60L42 61L43 61L43 60L44 60L44 59L46 59L46 58L47 58L47 57L45 57L45 56L44 56L44 55L45 55L45 54L47 54L47 52ZM0 53L0 54L1 54L1 53ZM2 54L2 55L3 55L3 56L1 56L1 55L0 55L0 56L1 56L1 57L3 57L3 56L4 56L4 57L5 57L5 56L4 56L4 54ZM5 54L5 55L7 55L7 54ZM11 54L11 55L12 55L12 54ZM17 54L17 55L18 55L18 54ZM14 55L14 56L15 56L15 55ZM10 56L10 57L12 57L12 58L13 58L13 59L12 59L12 60L13 60L13 59L14 59L14 60L15 60L15 61L16 61L16 60L15 60L15 59L14 59L14 58L15 58L15 57L14 57L14 58L13 58L13 56ZM28 56L28 57L29 57L29 56ZM54 56L54 58L55 58L55 56ZM31 57L31 60L34 60L34 57ZM57 57L57 60L60 60L60 57ZM32 58L32 59L33 59L33 58ZM58 58L58 59L59 59L59 58ZM38 60L38 61L39 61L39 60ZM61 60L61 61L60 61L60 62L61 62L61 61L62 61L62 60ZM26 61L26 62L25 62L25 65L26 65L26 62L27 62L27 61ZM33 62L33 63L34 63L34 62ZM23 63L23 65L24 65L24 63ZM13 64L13 65L14 65L14 64ZM48 64L48 65L49 65L49 64ZM0 0L0 7L7 7L7 0ZM1 1L1 6L6 6L6 1ZM2 2L2 5L5 5L5 2ZM58 0L58 7L65 7L65 0ZM59 1L59 6L64 6L64 1ZM60 2L60 5L63 5L63 2ZM0 58L0 65L7 65L7 58ZM1 59L1 64L6 64L6 59ZM2 60L2 63L5 63L5 60Z" fill="#000000"/></g></g></svg>
