<?xml version="1.0" encoding="UTF-8"?>
<svg xmlns="http://www.w3.org/2000/svg" version="1.1" width="300" height="300" viewBox="0 0 300 300"><rect x="0" y="0" width="300" height="300" fill="#ffffff"/><g transform="scale(4.615)"><g transform="translate(0,0)"><path fill-rule="evenodd" d="M11 0L11 1L12 1L12 0ZM14 0L14 1L13 1L13 2L14 2L14 1L16 1L16 0ZM19 0L19 3L20 3L20 4L18 4L18 3L17 3L17 4L16 4L16 3L14 3L14 5L13 5L13 6L12 6L12 7L11 7L11 6L10 6L10 7L11 7L11 8L12 8L12 7L13 7L13 8L14 8L14 7L15 7L15 8L17 8L17 9L16 9L16 10L15 10L15 12L14 12L14 10L12 10L12 9L9 9L9 8L6 8L6 9L5 9L5 8L0 8L0 11L1 11L1 12L0 12L0 14L3 14L3 15L4 15L4 16L3 16L3 17L4 17L4 18L5 18L5 19L4 19L4 20L5 20L5 19L7 19L7 18L8 18L8 20L6 20L6 21L8 21L8 22L9 22L9 24L10 24L10 25L9 25L9 26L10 26L10 27L11 27L11 28L10 28L10 29L8 29L8 30L5 30L5 29L7 29L7 28L6 28L6 27L7 27L7 26L5 26L5 25L4 25L4 24L5 24L5 22L3 22L3 21L2 21L2 25L1 25L1 26L3 26L3 25L4 25L4 27L3 27L3 28L2 28L2 27L1 27L1 30L2 30L2 31L1 31L1 33L0 33L0 39L2 39L2 40L3 40L3 41L4 41L4 40L5 40L5 41L7 41L7 42L6 42L6 43L8 43L8 44L5 44L5 42L4 42L4 43L3 43L3 42L2 42L2 41L1 41L1 42L0 42L0 43L1 43L1 42L2 42L2 47L4 47L4 49L3 49L3 50L0 50L0 51L1 51L1 53L0 53L0 54L1 54L1 53L2 53L2 55L3 55L3 56L1 56L1 55L0 55L0 56L1 56L1 57L3 57L3 56L4 56L4 57L5 57L5 56L4 56L4 54L5 54L5 55L7 55L7 56L6 56L6 57L7 57L7 56L8 56L8 55L9 55L9 56L10 56L10 57L8 57L8 59L9 59L9 58L10 58L10 60L13 60L13 61L14 61L14 62L13 62L13 63L12 63L12 61L11 61L11 62L10 62L10 61L9 61L9 60L8 60L8 65L10 65L10 64L11 64L11 65L12 65L12 64L13 64L13 65L15 65L15 64L13 64L13 63L16 63L16 65L17 65L17 62L18 62L18 63L19 63L19 64L18 64L18 65L22 65L22 64L21 64L21 63L22 63L22 62L24 62L24 61L25 61L25 62L27 62L27 61L26 61L26 60L28 60L28 59L25 59L25 60L24 60L24 58L25 58L25 57L26 57L26 58L27 58L27 57L29 57L29 59L30 59L30 60L29 60L29 63L28 63L28 64L27 64L27 63L25 63L25 65L26 65L26 64L27 64L27 65L35 65L35 64L34 64L34 63L35 63L35 61L37 61L37 60L36 60L36 59L37 59L37 58L36 58L36 59L35 59L35 57L39 57L39 56L41 56L41 55L40 55L40 54L41 54L41 53L39 53L39 51L40 51L40 52L41 52L41 51L42 51L42 52L43 52L43 53L42 53L42 54L45 54L45 55L42 55L42 56L43 56L43 57L40 57L40 58L38 58L38 59L39 59L39 60L38 60L38 61L39 61L39 62L36 62L36 63L37 63L37 64L36 64L36 65L37 65L37 64L41 64L41 62L40 62L40 60L41 60L41 61L42 61L42 62L43 62L43 63L42 63L42 64L43 64L43 63L44 63L44 64L45 64L45 65L46 65L46 64L45 64L45 63L44 63L44 60L45 60L45 61L48 61L48 62L49 62L49 60L51 60L51 62L50 62L50 63L51 63L51 62L52 62L52 60L53 60L53 63L52 63L52 64L50 64L50 65L52 65L52 64L53 64L53 65L56 65L56 62L59 62L59 64L58 64L58 63L57 63L57 65L63 65L63 64L64 64L64 61L65 61L65 60L62 60L62 61L63 61L63 62L62 62L62 63L61 63L61 62L60 62L60 61L61 61L61 55L60 55L60 56L59 56L59 55L58 55L58 54L63 54L63 53L64 53L64 54L65 54L65 52L62 52L62 51L63 51L63 50L65 50L65 49L64 49L64 48L62 48L62 49L63 49L63 50L61 50L61 49L58 49L58 48L60 48L60 47L62 47L62 46L63 46L63 45L64 45L64 44L61 44L61 43L60 43L60 44L61 44L61 45L60 45L60 46L59 46L59 45L58 45L58 44L59 44L59 43L58 43L58 44L57 44L57 43L54 43L54 42L55 42L55 40L56 40L56 41L57 41L57 40L61 40L61 39L60 39L60 38L62 38L62 37L63 37L63 38L65 38L65 37L64 37L64 36L62 36L62 35L63 35L63 34L65 34L65 33L63 33L63 32L62 32L62 30L61 30L61 28L59 28L59 27L60 27L60 26L62 26L62 25L63 25L63 28L62 28L62 29L63 29L63 28L64 28L64 29L65 29L65 28L64 28L64 26L65 26L65 23L64 23L64 25L63 25L63 24L60 24L60 23L59 23L59 22L61 22L61 20L59 20L59 19L60 19L60 17L61 17L61 16L62 16L62 18L61 18L61 19L63 19L63 17L64 17L64 18L65 18L65 15L64 15L64 16L62 16L62 15L63 15L63 14L62 14L62 15L61 15L61 16L60 16L60 13L61 13L61 12L62 12L62 13L64 13L64 14L65 14L65 13L64 13L64 12L65 12L65 11L64 11L64 10L65 10L65 9L64 9L64 8L63 8L63 9L64 9L64 10L62 10L62 11L61 11L61 12L59 12L59 14L57 14L57 15L55 15L55 16L54 16L54 15L52 15L52 14L53 14L53 13L54 13L54 14L56 14L56 13L57 13L57 12L58 12L58 11L59 11L59 10L60 10L60 8L59 8L59 10L58 10L58 8L56 8L56 9L55 9L55 8L53 8L53 6L54 6L54 7L55 7L55 5L54 5L54 4L56 4L56 5L57 5L57 4L56 4L56 3L57 3L57 1L56 1L56 0L55 0L55 1L56 1L56 3L55 3L55 2L54 2L54 3L53 3L53 2L51 2L51 1L50 1L50 0L49 0L49 1L50 1L50 2L51 2L51 3L47 3L47 2L48 2L48 0L47 0L47 1L46 1L46 3L45 3L45 0L42 0L42 1L44 1L44 3L45 3L45 4L46 4L46 3L47 3L47 4L49 4L49 5L48 5L48 7L49 7L49 5L50 5L50 8L48 8L48 10L46 10L46 9L47 9L47 8L46 8L46 7L47 7L47 5L46 5L46 7L45 7L45 6L44 6L44 8L43 8L43 6L42 6L42 7L41 7L41 6L40 6L40 5L41 5L41 4L39 4L39 3L42 3L42 5L43 5L43 3L42 3L42 2L40 2L40 1L41 1L41 0L39 0L39 1L36 1L36 2L35 2L35 1L33 1L33 0L29 0L29 1L33 1L33 2L32 2L32 3L30 3L30 2L28 2L28 3L27 3L27 1L28 1L28 0L26 0L26 1L25 1L25 0L21 0L21 1L20 1L20 0ZM52 0L52 1L54 1L54 0ZM8 1L8 2L9 2L9 3L8 3L8 4L9 4L9 5L8 5L8 7L9 7L9 5L11 5L11 4L9 4L9 3L10 3L10 2L9 2L9 1ZM17 1L17 2L18 2L18 1ZM21 1L21 2L20 2L20 3L21 3L21 4L20 4L20 6L19 6L19 5L18 5L18 4L17 4L17 5L18 5L18 6L17 6L17 8L18 8L18 6L19 6L19 9L18 9L18 10L16 10L16 12L15 12L15 15L16 15L16 16L17 16L17 14L18 14L18 16L21 16L21 15L22 15L22 17L25 17L25 16L26 16L26 17L27 17L27 18L25 18L25 19L23 19L23 18L22 18L22 19L20 19L20 18L21 18L21 17L20 17L20 18L19 18L19 17L18 17L18 18L17 18L17 19L18 19L18 18L19 18L19 21L20 21L20 22L17 22L17 21L18 21L18 20L15 20L15 18L13 18L13 17L12 17L12 15L14 15L14 12L12 12L12 13L11 13L11 12L10 12L10 13L11 13L11 16L10 16L10 14L9 14L9 16L8 16L8 15L6 15L6 16L4 16L4 17L6 17L6 18L7 18L7 17L6 17L6 16L8 16L8 17L9 17L9 19L11 19L11 20L12 20L12 21L11 21L11 22L12 22L12 21L14 21L14 20L15 20L15 21L16 21L16 22L13 22L13 23L10 23L10 24L11 24L11 25L12 25L12 27L13 27L13 28L14 28L14 29L11 29L11 30L14 30L14 29L15 29L15 30L16 30L16 29L17 29L17 32L19 32L19 33L14 33L14 31L12 31L12 32L13 32L13 33L14 33L14 35L13 35L13 34L12 34L12 33L10 33L10 32L11 32L11 31L9 31L9 35L10 35L10 36L9 36L9 37L8 37L8 38L7 38L7 37L6 37L6 38L5 38L5 39L6 39L6 40L8 40L8 41L9 41L9 40L10 40L10 43L11 43L11 44L12 44L12 42L13 42L13 40L16 40L16 39L17 39L17 40L19 40L19 41L18 41L18 42L17 42L17 41L14 41L14 42L17 42L17 43L16 43L16 44L14 44L14 43L13 43L13 45L11 45L11 46L9 46L9 44L8 44L8 45L6 45L6 46L5 46L5 45L4 45L4 44L3 44L3 45L4 45L4 47L5 47L5 48L7 48L7 49L5 49L5 50L7 50L7 49L9 49L9 47L10 47L10 48L11 48L11 49L10 49L10 50L8 50L8 51L5 51L5 52L4 52L4 53L3 53L3 54L4 54L4 53L5 53L5 52L8 52L8 53L6 53L6 54L7 54L7 55L8 55L8 54L9 54L9 55L10 55L10 56L11 56L11 57L13 57L13 58L11 58L11 59L13 59L13 60L14 60L14 61L15 61L15 62L16 62L16 61L18 61L18 62L19 62L19 63L20 63L20 62L19 62L19 61L21 61L21 62L22 62L22 61L24 61L24 60L21 60L21 58L22 58L22 59L23 59L23 58L22 58L22 57L23 57L23 55L24 55L24 54L23 54L23 53L26 53L26 55L27 55L27 54L30 54L30 55L31 55L31 56L33 56L33 55L36 55L36 56L38 56L38 54L39 54L39 53L38 53L38 50L41 50L41 48L39 48L39 47L38 47L38 46L39 46L39 45L42 45L42 44L44 44L44 45L43 45L43 46L42 46L42 47L45 47L45 46L44 46L44 45L45 45L45 44L44 44L44 43L45 43L45 42L44 42L44 43L43 43L43 42L42 42L42 41L43 41L43 40L44 40L44 41L46 41L46 42L47 42L47 45L46 45L46 46L48 46L48 44L49 44L49 47L46 47L46 48L47 48L47 49L45 49L45 48L44 48L44 49L43 49L43 50L42 50L42 51L43 51L43 52L44 52L44 53L45 53L45 54L47 54L47 56L46 56L46 55L45 55L45 56L44 56L44 57L43 57L43 58L40 58L40 59L41 59L41 60L42 60L42 61L43 61L43 59L45 59L45 58L44 58L44 57L45 57L45 56L46 56L46 58L47 58L47 59L46 59L46 60L47 60L47 59L48 59L48 60L49 60L49 59L48 59L48 58L49 58L49 57L47 57L47 56L49 56L49 55L50 55L50 58L51 58L51 59L53 59L53 57L55 57L55 58L54 58L54 59L55 59L55 60L56 60L56 59L55 59L55 58L56 58L56 56L58 56L58 55L56 55L56 56L54 56L54 55L55 55L55 54L52 54L52 55L53 55L53 56L52 56L52 58L51 58L51 55L50 55L50 54L51 54L51 53L56 53L56 54L57 54L57 52L58 52L58 53L59 53L59 52L60 52L60 53L62 53L62 52L60 52L60 51L61 51L61 50L58 50L58 51L57 51L57 48L55 48L55 47L56 47L56 46L57 46L57 47L59 47L59 46L58 46L58 45L57 45L57 44L54 44L54 43L53 43L53 42L52 42L52 43L51 43L51 44L50 44L50 42L51 42L51 41L53 41L53 40L52 40L52 39L50 39L50 38L53 38L53 36L50 36L50 34L51 34L51 35L52 35L52 34L54 34L54 37L56 37L56 38L54 38L54 39L56 39L56 40L57 40L57 37L58 37L58 39L59 39L59 37L61 37L61 35L62 35L62 34L63 34L63 33L62 33L62 32L61 32L61 35L59 35L59 36L55 36L55 35L56 35L56 34L54 34L54 33L55 33L55 32L56 32L56 31L55 31L55 30L57 30L57 29L56 29L56 27L57 27L57 28L58 28L58 30L60 30L60 29L59 29L59 28L58 28L58 26L60 26L60 25L56 25L56 24L52 24L52 25L50 25L50 24L51 24L51 23L50 23L50 22L52 22L52 23L57 23L57 22L59 22L59 21L56 21L56 20L58 20L58 19L57 19L57 18L59 18L59 17L56 17L56 16L55 16L55 17L56 17L56 18L54 18L54 16L52 16L52 15L51 15L51 17L50 17L50 18L51 18L51 17L53 17L53 18L52 18L52 19L56 19L56 20L54 20L54 21L55 21L55 22L53 22L53 20L49 20L49 19L48 19L48 20L49 20L49 21L48 21L48 23L47 23L47 24L49 24L49 25L50 25L50 26L51 26L51 27L52 27L52 26L53 26L53 28L52 28L52 29L55 29L55 30L54 30L54 31L53 31L53 32L52 32L52 34L51 34L51 33L50 33L50 32L51 32L51 31L48 31L48 30L51 30L51 29L50 29L50 27L48 27L48 26L47 26L47 25L46 25L46 26L45 26L45 27L46 27L46 28L47 28L47 27L48 27L48 28L49 28L49 29L46 29L46 30L45 30L45 28L44 28L44 27L43 27L43 26L42 26L42 25L43 25L43 24L42 24L42 23L43 23L43 22L42 22L42 21L43 21L43 20L42 20L42 19L43 19L43 18L48 18L48 17L46 17L46 16L49 16L49 14L51 14L51 13L53 13L53 12L54 12L54 13L55 13L55 12L57 12L57 9L56 9L56 11L55 11L55 10L54 10L54 11L53 11L53 12L52 12L52 10L53 10L53 8L52 8L52 5L53 5L53 3L52 3L52 5L51 5L51 4L50 4L50 5L51 5L51 9L49 9L49 10L48 10L48 11L46 11L46 10L44 10L44 9L45 9L45 8L44 8L44 9L43 9L43 10L42 10L42 8L40 8L40 11L39 11L39 12L38 12L38 11L36 11L36 10L37 10L37 9L38 9L38 10L39 10L39 9L38 9L38 8L39 8L39 7L40 7L40 6L39 6L39 7L38 7L38 5L39 5L39 4L38 4L38 3L39 3L39 2L36 2L36 3L37 3L37 4L35 4L35 8L37 8L37 9L34 9L34 10L35 10L35 12L32 12L32 11L33 11L33 9L32 9L32 11L31 11L31 10L30 10L30 8L29 8L29 9L28 9L28 8L24 8L24 6L25 6L25 7L26 7L26 6L27 6L27 7L28 7L28 6L27 6L27 4L25 4L25 3L26 3L26 2L25 2L25 3L24 3L24 2L23 2L23 3L24 3L24 4L25 4L25 5L23 5L23 4L22 4L22 3L21 3L21 2L22 2L22 1ZM11 2L11 3L12 3L12 2ZM33 2L33 3L32 3L32 4L34 4L34 2ZM29 3L29 4L28 4L28 5L29 5L29 7L30 7L30 3ZM15 4L15 5L14 5L14 6L13 6L13 7L14 7L14 6L15 6L15 7L16 7L16 4ZM21 4L21 6L20 6L20 9L21 9L21 10L22 10L22 11L23 11L23 9L24 9L24 10L25 10L25 9L24 9L24 8L23 8L23 5L22 5L22 4ZM37 4L37 5L36 5L36 7L37 7L37 5L38 5L38 4ZM31 5L31 8L34 8L34 5ZM21 6L21 7L22 7L22 6ZM32 6L32 7L33 7L33 6ZM56 6L56 7L57 7L57 6ZM22 8L22 9L23 9L23 8ZM61 8L61 9L62 9L62 8ZM1 9L1 10L2 10L2 9ZM6 9L6 10L4 10L4 11L2 11L2 12L3 12L3 14L8 14L8 13L9 13L9 10L8 10L8 9ZM26 9L26 10L27 10L27 11L26 11L26 12L25 12L25 11L24 11L24 12L23 12L23 13L22 13L22 12L21 12L21 11L20 11L20 10L18 10L18 11L17 11L17 13L16 13L16 14L17 14L17 13L20 13L20 12L21 12L21 14L22 14L22 15L24 15L24 16L25 16L25 15L27 15L27 16L28 16L28 17L29 17L29 18L27 18L27 20L28 20L28 21L27 21L27 22L26 22L26 21L24 21L24 22L23 22L23 23L22 23L22 22L20 22L20 23L21 23L21 24L18 24L18 23L17 23L17 24L16 24L16 23L15 23L15 25L14 25L14 26L13 26L13 27L14 27L14 28L15 28L15 29L16 29L16 28L15 28L15 27L16 27L16 26L15 26L15 25L17 25L17 24L18 24L18 25L19 25L19 26L20 26L20 27L21 27L21 28L22 28L22 27L23 27L23 28L24 28L24 29L22 29L22 30L21 30L21 29L19 29L19 27L18 27L18 26L17 26L17 27L18 27L18 29L19 29L19 30L18 30L18 31L19 31L19 32L20 32L20 33L22 33L22 35L19 35L19 37L18 37L18 36L16 36L16 35L18 35L18 34L15 34L15 36L14 36L14 39L16 39L16 37L18 37L18 39L19 39L19 40L20 40L20 41L21 41L21 42L20 42L20 43L22 43L22 44L21 44L21 48L20 48L20 49L22 49L22 50L21 50L21 51L22 51L22 50L23 50L23 52L26 52L26 51L25 51L25 50L27 50L27 49L26 49L26 48L27 48L27 47L26 47L26 48L25 48L25 45L26 45L26 46L28 46L28 44L29 44L29 45L30 45L30 46L29 46L29 47L28 47L28 49L30 49L30 50L29 50L29 52L27 52L27 53L29 53L29 52L30 52L30 53L33 53L33 54L32 54L32 55L33 55L33 54L35 54L35 53L34 53L34 52L36 52L36 53L37 53L37 52L36 52L36 51L37 51L37 50L36 50L36 51L34 51L34 49L37 49L37 48L36 48L36 47L37 47L37 44L39 44L39 42L40 42L40 44L42 44L42 43L41 43L41 42L40 42L40 41L39 41L39 42L38 42L38 41L37 41L37 40L41 40L41 39L42 39L42 38L43 38L43 39L44 39L44 40L45 40L45 37L47 37L47 38L46 38L46 39L49 39L49 38L50 38L50 36L46 36L46 35L47 35L47 34L46 34L46 35L45 35L45 34L44 34L44 33L42 33L42 32L43 32L43 31L42 31L42 32L41 32L41 31L39 31L39 30L38 30L38 28L35 28L35 29L37 29L37 30L38 30L38 31L39 31L39 32L41 32L41 34L43 34L43 37L42 37L42 38L41 38L41 37L40 37L40 38L37 38L37 36L36 36L36 37L35 37L35 35L39 35L39 36L38 36L38 37L39 37L39 36L41 36L41 35L40 35L40 34L36 34L36 33L38 33L38 32L35 32L35 31L36 31L36 30L33 30L33 29L32 29L32 30L31 30L31 29L30 29L30 34L28 34L28 33L29 33L29 29L28 29L28 27L29 27L29 28L34 28L34 27L37 27L37 25L38 25L38 24L39 24L39 22L38 22L38 23L37 23L37 24L36 24L36 22L37 22L37 20L38 20L38 19L39 19L39 18L40 18L40 20L41 20L41 19L42 19L42 18L43 18L43 17L44 17L44 16L45 16L45 15L48 15L48 14L49 14L49 12L48 12L48 13L47 13L47 14L46 14L46 12L45 12L45 11L44 11L44 12L43 12L43 11L42 11L42 12L43 12L43 13L40 13L40 15L39 15L39 14L38 14L38 12L35 12L35 13L36 13L36 14L33 14L33 13L32 13L32 16L33 16L33 15L35 15L35 16L34 16L34 17L35 17L35 18L33 18L33 17L32 17L32 18L31 18L31 17L30 17L30 16L31 16L31 14L30 14L30 13L29 13L29 16L28 16L28 15L27 15L27 14L28 14L28 13L26 13L26 12L31 12L31 11L29 11L29 10L28 10L28 9ZM51 9L51 10L50 10L50 11L51 11L51 10L52 10L52 9ZM6 10L6 11L4 11L4 12L6 12L6 13L8 13L8 10ZM6 11L6 12L7 12L7 11ZM40 11L40 12L41 12L41 11ZM62 11L62 12L63 12L63 11ZM44 12L44 14L42 14L42 15L41 15L41 16L40 16L40 18L41 18L41 17L43 17L43 16L42 16L42 15L45 15L45 12ZM50 12L50 13L51 13L51 12ZM12 13L12 14L13 14L13 13ZM23 13L23 14L24 14L24 13ZM25 13L25 14L26 14L26 13ZM19 14L19 15L20 15L20 14ZM37 14L37 15L36 15L36 16L37 16L37 17L36 17L36 19L33 19L33 18L32 18L32 19L33 19L33 20L32 20L32 21L31 21L31 20L30 20L30 21L28 21L28 22L29 22L29 23L28 23L28 24L27 24L27 23L25 23L25 22L24 22L24 23L23 23L23 24L21 24L21 25L20 25L20 26L21 26L21 27L22 27L22 26L21 26L21 25L23 25L23 27L24 27L24 25L25 25L25 27L26 27L26 29L27 29L27 30L28 30L28 29L27 29L27 26L26 26L26 25L28 25L28 26L29 26L29 25L28 25L28 24L29 24L29 23L33 23L33 22L32 22L32 21L33 21L33 20L34 20L34 22L36 22L36 20L37 20L37 18L39 18L39 17L38 17L38 14ZM1 15L1 16L0 16L0 17L2 17L2 15ZM58 15L58 16L59 16L59 15ZM9 16L9 17L10 17L10 16ZM13 19L13 20L14 20L14 19ZM25 19L25 20L26 20L26 19ZM28 19L28 20L29 20L29 19ZM64 19L64 20L65 20L65 19ZM8 20L8 21L9 21L9 22L10 22L10 20ZM20 20L20 21L22 21L22 20ZM44 20L44 23L45 23L45 21L46 21L46 22L47 22L47 21L46 21L46 20ZM62 20L62 23L63 23L63 20ZM30 21L30 22L31 22L31 21ZM49 21L49 22L50 22L50 21ZM64 21L64 22L65 22L65 21ZM0 22L0 23L1 23L1 22ZM6 22L6 23L7 23L7 22ZM41 22L41 23L40 23L40 24L41 24L41 23L42 23L42 22ZM13 23L13 24L12 24L12 25L13 25L13 24L14 24L14 23ZM24 23L24 24L25 24L25 23ZM34 23L34 24L35 24L35 23ZM58 23L58 24L59 24L59 23ZM6 24L6 25L7 25L7 24ZM30 24L30 27L32 27L32 25L33 25L33 27L34 27L34 26L35 26L35 25L33 25L33 24L32 24L32 25L31 25L31 24ZM44 24L44 25L45 25L45 24ZM53 25L53 26L55 26L55 27L54 27L54 28L55 28L55 27L56 27L56 25ZM38 26L38 27L39 27L39 28L41 28L41 29L40 29L40 30L41 30L41 29L42 29L42 30L44 30L44 32L46 32L46 31L47 31L47 33L49 33L49 34L48 34L48 35L49 35L49 34L50 34L50 33L49 33L49 32L48 32L48 31L47 31L47 30L46 30L46 31L45 31L45 30L44 30L44 28L42 28L42 26L41 26L41 27L40 27L40 26ZM46 26L46 27L47 27L47 26ZM4 27L4 28L5 28L5 27ZM8 27L8 28L9 28L9 27ZM24 29L24 30L22 30L22 31L24 31L24 32L22 32L22 33L25 33L25 34L23 34L23 37L22 37L22 36L21 36L21 37L20 37L20 40L21 40L21 41L25 41L25 40L26 40L26 41L27 41L27 40L30 40L30 41L28 41L28 43L27 43L27 42L23 42L23 44L22 44L22 45L23 45L23 46L24 46L24 45L23 45L23 44L24 44L24 43L25 43L25 44L26 44L26 45L27 45L27 44L28 44L28 43L29 43L29 44L30 44L30 45L32 45L32 46L30 46L30 47L29 47L29 48L30 48L30 47L31 47L31 50L30 50L30 52L31 52L31 51L32 51L32 52L33 52L33 49L34 49L34 48L33 48L33 47L32 47L32 46L34 46L34 47L35 47L35 45L34 45L34 43L35 43L35 44L37 44L37 43L36 43L36 42L37 42L37 41L36 41L36 42L34 42L34 43L33 43L33 45L32 45L32 43L31 43L31 42L33 42L33 41L32 41L32 38L33 38L33 40L34 40L34 41L35 41L35 40L37 40L37 38L34 38L34 36L33 36L33 35L31 35L31 36L33 36L33 37L31 37L31 38L30 38L30 37L28 37L28 39L27 39L27 37L25 37L25 36L26 36L26 35L25 35L25 34L26 34L26 33L27 33L27 32L28 32L28 31L27 31L27 32L25 32L25 31L26 31L26 30L25 30L25 29ZM19 30L19 31L20 31L20 30ZM5 31L5 34L8 34L8 31ZM15 31L15 32L16 32L16 31ZM31 31L31 34L34 34L34 31ZM54 31L54 32L55 32L55 31ZM57 31L57 34L60 34L60 31ZM2 32L2 33L3 33L3 34L2 34L2 35L1 35L1 38L4 38L4 37L5 37L5 36L7 36L7 35L4 35L4 33L3 33L3 32ZM6 32L6 33L7 33L7 32ZM32 32L32 33L33 33L33 32ZM58 32L58 33L59 33L59 32ZM10 34L10 35L11 35L11 34ZM2 35L2 36L3 36L3 37L4 37L4 36L3 36L3 35ZM12 35L12 36L13 36L13 35ZM24 35L24 36L25 36L25 35ZM28 35L28 36L30 36L30 35ZM10 36L10 37L9 37L9 39L8 39L8 40L9 40L9 39L10 39L10 40L11 40L11 41L12 41L12 40L13 40L13 38L12 38L12 37L11 37L11 36ZM44 36L44 37L45 37L45 36ZM21 37L21 40L23 40L23 39L25 39L25 37L23 37L23 39L22 39L22 37ZM48 37L48 38L49 38L49 37ZM6 38L6 39L7 39L7 38ZM11 38L11 40L12 40L12 38ZM29 38L29 39L30 39L30 40L31 40L31 39L30 39L30 38ZM40 38L40 39L41 39L41 38ZM26 39L26 40L27 40L27 39ZM34 39L34 40L35 40L35 39ZM64 39L64 40L65 40L65 39ZM47 40L47 42L50 42L50 41L51 41L51 40ZM62 40L62 41L63 41L63 42L62 42L62 43L63 43L63 42L65 42L65 41L63 41L63 40ZM59 41L59 42L61 42L61 41ZM8 42L8 43L9 43L9 42ZM18 42L18 43L19 43L19 42ZM29 42L29 43L30 43L30 44L31 44L31 43L30 43L30 42ZM26 43L26 44L27 44L27 43ZM52 43L52 44L51 44L51 46L50 46L50 47L49 47L49 48L48 48L48 49L49 49L49 48L50 48L50 47L51 47L51 49L52 49L52 48L53 48L53 47L52 47L52 46L56 46L56 45L54 45L54 44L53 44L53 43ZM0 44L0 46L1 46L1 44ZM18 44L18 45L17 45L17 47L18 47L18 49L19 49L19 47L20 47L20 46L18 46L18 45L20 45L20 44ZM52 44L52 45L53 45L53 44ZM14 45L14 47L13 47L13 46L11 46L11 47L13 47L13 49L12 49L12 50L13 50L13 52L11 52L11 51L8 51L8 52L9 52L9 54L10 54L10 53L11 53L11 54L12 54L12 56L13 56L13 57L14 57L14 59L15 59L15 57L14 57L14 56L13 56L13 52L14 52L14 51L15 51L15 53L14 53L14 54L16 54L16 55L17 55L17 56L16 56L16 57L19 57L19 60L18 60L18 61L19 61L19 60L20 60L20 57L21 57L21 56L22 56L22 55L23 55L23 54L22 54L22 55L21 55L21 54L20 54L20 53L22 53L22 52L20 52L20 53L19 53L19 50L18 50L18 51L17 51L17 50L16 50L16 49L17 49L17 48L16 48L16 47L15 47L15 46L16 46L16 45ZM6 46L6 47L9 47L9 46ZM40 46L40 47L41 47L41 46ZM0 47L0 49L1 49L1 47ZM14 47L14 49L13 49L13 50L15 50L15 47ZM23 47L23 48L22 48L22 49L23 49L23 48L24 48L24 49L25 49L25 48L24 48L24 47ZM32 48L32 49L33 49L33 48ZM38 48L38 49L39 49L39 48ZM44 49L44 50L45 50L45 51L44 51L44 52L46 52L46 53L49 53L49 54L48 54L48 55L49 55L49 54L50 54L50 53L51 53L51 52L53 52L53 51L54 51L54 52L56 52L56 51L54 51L54 50L56 50L56 49L54 49L54 50L53 50L53 51L52 51L52 50L50 50L50 51L49 51L49 52L48 52L48 51L47 51L47 50L45 50L45 49ZM2 51L2 52L3 52L3 51ZM46 51L46 52L47 52L47 51ZM50 51L50 52L51 52L51 51ZM58 51L58 52L59 52L59 51ZM17 52L17 53L16 53L16 54L17 54L17 55L18 55L18 56L21 56L21 55L18 55L18 54L17 54L17 53L18 53L18 52ZM28 55L28 56L29 56L29 55ZM63 55L63 56L62 56L62 59L63 59L63 58L65 58L65 57L64 57L64 56L65 56L65 55ZM24 56L24 57L25 57L25 56ZM26 56L26 57L27 57L27 56ZM31 57L31 60L34 60L34 57ZM57 57L57 60L60 60L60 57ZM32 58L32 59L33 59L33 58ZM58 58L58 59L59 59L59 58ZM15 60L15 61L16 61L16 60ZM30 61L30 62L31 62L31 61ZM9 62L9 63L10 63L10 62ZM32 62L32 63L29 63L29 64L33 64L33 62ZM39 62L39 63L40 63L40 62ZM46 62L46 63L47 63L47 64L48 64L48 65L49 65L49 64L48 64L48 63L47 63L47 62ZM54 62L54 63L53 63L53 64L54 64L54 63L55 63L55 62ZM23 63L23 64L24 64L24 63ZM62 63L62 64L63 64L63 63ZM0 0L0 7L7 7L7 0ZM1 1L1 6L6 6L6 1ZM2 2L2 5L5 5L5 2ZM58 0L58 7L65 7L65 0ZM59 1L59 6L64 6L64 1ZM60 2L60 5L63 5L63 2ZM0 58L0 65L7 65L7 58ZM1 59L1 64L6 64L6 59ZM2 60L2 63L5 63L5 60Z" fill="#000000"/></g></g></svg>
