<?xml version="1.0" encoding="UTF-8"?>
<svg xmlns="http://www.w3.org/2000/svg" version="1.1" width="300" height="300" viewBox="0 0 300 300"><rect x="0" y="0" width="300" height="300" fill="#ffffff"/><g transform="scale(4.615)"><g transform="translate(0,0)"><path fill-rule="evenodd" d="M10 0L10 1L11 1L11 0ZM12 0L12 2L10 2L10 3L11 3L11 4L9 4L9 3L8 3L8 4L9 4L9 5L8 5L8 7L9 7L9 6L10 6L10 8L6 8L6 9L7 9L7 10L6 10L6 11L8 11L8 12L6 12L6 13L8 13L8 12L10 12L10 13L9 13L9 14L10 14L10 15L11 15L11 16L12 16L12 15L13 15L13 14L14 14L14 15L18 15L18 17L19 17L19 18L18 18L18 19L17 19L17 18L16 18L16 20L18 20L18 21L17 21L17 23L18 23L18 22L20 22L20 23L19 23L19 24L16 24L16 23L15 23L15 22L16 22L16 21L15 21L15 17L14 17L14 16L13 16L13 17L12 17L12 18L10 18L10 17L8 17L8 15L7 15L7 14L4 14L4 18L3 18L3 16L2 16L2 18L1 18L1 19L0 19L0 22L1 22L1 23L2 23L2 26L3 26L3 27L0 27L0 28L3 28L3 29L5 29L5 28L4 28L4 26L5 26L5 27L7 27L7 28L6 28L6 29L7 29L7 30L0 30L0 31L1 31L1 32L2 32L2 31L4 31L4 33L3 33L3 35L2 35L2 33L1 33L1 34L0 34L0 35L1 35L1 36L0 36L0 38L1 38L1 39L2 39L2 40L1 40L1 42L0 42L0 45L3 45L3 46L4 46L4 47L5 47L5 49L7 49L7 50L5 50L5 55L7 55L7 56L6 56L6 57L7 57L7 56L8 56L8 59L9 59L9 60L8 60L8 65L9 65L9 62L10 62L10 61L12 61L12 60L13 60L13 61L14 61L14 63L16 63L16 65L17 65L17 64L18 64L18 65L19 65L19 64L20 64L20 65L21 65L21 63L22 63L22 64L25 64L25 65L26 65L26 64L27 64L27 65L31 65L31 64L30 64L30 63L32 63L32 64L33 64L33 65L37 65L37 64L34 64L34 63L35 63L35 62L34 62L34 61L37 61L37 62L36 62L36 63L39 63L39 64L38 64L38 65L40 65L40 64L41 64L41 65L42 65L42 64L45 64L45 65L47 65L47 64L48 64L48 65L50 65L50 64L48 64L48 61L49 61L49 63L51 63L51 64L53 64L53 65L54 65L54 64L55 64L55 65L56 65L56 62L57 62L57 63L59 63L59 64L57 64L57 65L63 65L63 64L64 64L64 61L65 61L65 59L64 59L64 58L65 58L65 57L63 57L63 56L62 56L62 54L61 54L61 53L60 53L60 55L58 55L58 56L56 56L56 55L57 55L57 54L59 54L59 53L58 53L58 52L62 52L62 53L63 53L63 52L62 52L62 51L63 51L63 50L65 50L65 49L64 49L64 48L62 48L62 49L63 49L63 50L61 50L61 49L60 49L60 50L59 50L59 49L58 49L58 48L61 48L61 45L62 45L62 47L63 47L63 45L64 45L64 44L65 44L65 43L63 43L63 42L62 42L62 43L63 43L63 44L61 44L61 43L60 43L60 44L59 44L59 43L58 43L58 44L57 44L57 45L56 45L56 46L58 46L58 44L59 44L59 46L60 46L60 47L57 47L57 49L56 49L56 50L57 50L57 51L54 51L54 50L55 50L55 49L53 49L53 51L51 51L51 50L49 50L49 48L48 48L48 49L47 49L47 50L46 50L46 48L45 48L45 47L47 47L47 46L46 46L46 44L47 44L47 43L48 43L48 42L50 42L50 43L51 43L51 42L50 42L50 41L49 41L49 40L50 40L50 39L51 39L51 40L53 40L53 39L54 39L54 38L55 38L55 40L56 40L56 41L57 41L57 40L58 40L58 42L61 42L61 41L59 41L59 39L58 39L58 37L60 37L60 38L61 38L61 39L60 39L60 40L62 40L62 41L64 41L64 42L65 42L65 41L64 41L64 40L65 40L65 39L63 39L63 40L62 40L62 38L65 38L65 35L64 35L64 37L63 37L63 36L62 36L62 35L63 35L63 34L62 34L62 35L61 35L61 33L63 33L63 32L61 32L61 28L60 28L60 30L58 30L58 28L59 28L59 26L58 26L58 28L55 28L55 27L54 27L54 26L56 26L56 27L57 27L57 26L56 26L56 25L57 25L57 23L58 23L58 24L59 24L59 25L61 25L61 26L60 26L60 27L61 27L61 26L65 26L65 24L62 24L62 23L63 23L63 22L65 22L65 21L64 21L64 20L65 20L65 19L63 19L63 18L65 18L65 15L64 15L64 16L62 16L62 18L61 18L61 19L63 19L63 20L62 20L62 21L63 21L63 22L62 22L62 23L61 23L61 24L60 24L60 23L59 23L59 22L61 22L61 20L58 20L58 21L59 21L59 22L57 22L57 23L54 23L54 24L55 24L55 25L54 25L54 26L53 26L53 25L52 25L52 26L50 26L50 24L48 24L48 23L51 23L51 24L53 24L53 22L55 22L55 21L54 21L54 20L55 20L55 19L54 19L54 18L56 18L56 19L59 19L59 18L58 18L58 16L57 16L57 15L59 15L59 16L60 16L60 17L61 17L61 16L60 16L60 15L61 15L61 14L62 14L62 13L63 13L63 12L62 12L62 10L61 10L61 9L62 9L62 8L61 8L61 9L60 9L60 8L59 8L59 10L57 10L57 11L56 11L56 10L55 10L55 5L54 5L54 4L56 4L56 5L57 5L57 4L56 4L56 3L57 3L57 1L56 1L56 0L55 0L55 1L56 1L56 3L55 3L55 2L54 2L54 3L53 3L53 2L52 2L52 1L50 1L50 0L49 0L49 1L48 1L48 0L47 0L47 1L45 1L45 2L44 2L44 3L42 3L42 1L44 1L44 0L40 0L40 1L38 1L38 2L39 2L39 3L38 3L38 4L37 4L37 3L36 3L36 2L37 2L37 1L36 1L36 2L35 2L35 1L34 1L34 0L30 0L30 1L32 1L32 3L31 3L31 4L30 4L30 3L28 3L28 2L29 2L29 1L28 1L28 0L24 0L24 1L23 1L23 0L21 0L21 1L22 1L22 2L21 2L21 3L20 3L20 4L21 4L21 5L22 5L22 4L23 4L23 5L25 5L25 4L26 4L26 5L27 5L27 6L26 6L26 8L27 8L27 9L22 9L22 7L23 7L23 6L22 6L22 7L21 7L21 6L20 6L20 7L19 7L19 6L18 6L18 5L19 5L19 4L18 4L18 3L17 3L17 2L18 2L18 1L17 1L17 0L14 0L14 2L15 2L15 3L12 3L12 2L13 2L13 0ZM19 0L19 2L20 2L20 0ZM53 0L53 1L54 1L54 0ZM8 1L8 2L9 2L9 1ZM16 1L16 2L17 2L17 1ZM25 1L25 2L24 2L24 3L23 3L23 4L25 4L25 2L27 2L27 1ZM33 1L33 3L32 3L32 4L33 4L33 3L34 3L34 1ZM49 1L49 2L47 2L47 3L46 3L46 2L45 2L45 3L44 3L44 4L43 4L43 5L42 5L42 3L39 3L39 4L38 4L38 5L37 5L37 7L36 7L36 6L35 6L35 8L37 8L37 9L33 9L33 10L32 10L32 11L33 11L33 10L35 10L35 11L34 11L34 12L30 12L30 11L29 11L29 10L31 10L31 9L30 9L30 8L29 8L29 9L28 9L28 11L27 11L27 10L21 10L21 9L20 9L20 8L21 8L21 7L20 7L20 8L19 8L19 7L18 7L18 6L17 6L17 5L18 5L18 4L17 4L17 5L16 5L16 3L15 3L15 5L14 5L14 4L13 4L13 5L12 5L12 4L11 4L11 5L10 5L10 6L11 6L11 8L12 8L12 10L11 10L11 9L10 9L10 10L9 10L9 9L8 9L8 11L10 11L10 12L12 12L12 11L13 11L13 8L14 8L14 12L13 12L13 13L12 13L12 14L11 14L11 13L10 13L10 14L11 14L11 15L12 15L12 14L13 14L13 13L14 13L14 12L15 12L15 13L16 13L16 14L17 14L17 12L20 12L20 13L18 13L18 15L19 15L19 17L20 17L20 19L19 19L19 20L20 20L20 19L21 19L21 20L22 20L22 21L20 21L20 22L22 22L22 23L23 23L23 20L24 20L24 21L25 21L25 22L24 22L24 25L27 25L27 27L28 27L28 28L26 28L26 26L24 26L24 28L25 28L25 29L27 29L27 30L25 30L25 31L24 31L24 32L22 32L22 31L21 31L21 32L22 32L22 33L23 33L23 35L24 35L24 36L23 36L23 37L22 37L22 36L21 36L21 35L22 35L22 34L21 34L21 33L20 33L20 32L19 32L19 31L20 31L20 30L19 30L19 29L21 29L21 30L22 30L22 29L23 29L23 28L22 28L22 29L21 29L21 28L19 28L19 29L18 29L18 28L17 28L17 27L16 27L16 29L15 29L15 27L14 27L14 26L17 26L17 25L16 25L16 24L15 24L15 23L14 23L14 22L13 22L13 23L12 23L12 21L14 21L14 19L13 19L13 20L12 20L12 19L11 19L11 20L12 20L12 21L11 21L11 24L9 24L9 23L10 23L10 21L9 21L9 20L7 20L7 19L6 19L6 18L7 18L7 17L6 17L6 16L7 16L7 15L5 15L5 19L4 19L4 20L3 20L3 21L2 21L2 20L1 20L1 21L2 21L2 22L3 22L3 21L4 21L4 22L5 22L5 26L7 26L7 27L8 27L8 28L7 28L7 29L8 29L8 30L9 30L9 28L10 28L10 29L12 29L12 28L13 28L13 29L15 29L15 30L10 30L10 31L11 31L11 32L9 32L9 34L10 34L10 35L9 35L9 37L6 37L6 36L7 36L7 35L5 35L5 36L4 36L4 37L6 37L6 38L7 38L7 39L4 39L4 38L3 38L3 37L2 37L2 36L1 36L1 37L2 37L2 38L3 38L3 39L4 39L4 40L2 40L2 41L4 41L4 42L5 42L5 43L4 43L4 44L5 44L5 45L4 45L4 46L5 46L5 45L6 45L6 46L7 46L7 47L6 47L6 48L7 48L7 47L8 47L8 50L9 50L9 51L8 51L8 52L9 52L9 53L10 53L10 54L11 54L11 55L10 55L10 56L9 56L9 54L8 54L8 53L6 53L6 54L7 54L7 55L8 55L8 56L9 56L9 57L11 57L11 58L10 58L10 60L9 60L9 61L10 61L10 60L11 60L11 58L12 58L12 59L13 59L13 60L14 60L14 58L13 58L13 57L11 57L11 56L12 56L12 54L17 54L17 55L16 55L16 56L19 56L19 57L18 57L18 58L17 58L17 57L16 57L16 58L15 58L15 60L16 60L16 61L15 61L15 62L16 62L16 61L17 61L17 63L18 63L18 62L19 62L19 63L20 63L20 62L19 62L19 61L21 61L21 62L22 62L22 63L23 63L23 62L24 62L24 61L25 61L25 63L27 63L27 62L26 62L26 61L28 61L28 62L29 62L29 61L28 61L28 60L30 60L30 59L28 59L28 60L27 60L27 59L25 59L25 58L26 58L26 57L27 57L27 58L30 58L30 57L27 57L27 55L25 55L25 54L26 54L26 53L27 53L27 54L30 54L30 55L28 55L28 56L33 56L33 55L36 55L36 56L38 56L38 58L37 58L37 57L35 57L35 60L37 60L37 61L38 61L38 62L39 62L39 63L40 63L40 62L41 62L41 61L43 61L43 60L42 60L42 59L44 59L44 58L47 58L47 59L48 59L48 60L49 60L49 59L50 59L50 62L51 62L51 63L53 63L53 64L54 64L54 63L55 63L55 62L54 62L54 63L53 63L53 60L52 60L52 62L51 62L51 59L54 59L54 60L56 60L56 59L55 59L55 58L56 58L56 56L54 56L54 55L56 55L56 54L53 54L53 53L56 53L56 52L54 52L54 51L53 51L53 52L52 52L52 53L51 53L51 52L50 52L50 51L48 51L48 50L47 50L47 51L46 51L46 52L44 52L44 53L43 53L43 52L42 52L42 51L44 51L44 49L45 49L45 48L44 48L44 47L45 47L45 46L44 46L44 45L45 45L45 44L44 44L44 43L46 43L46 42L47 42L47 41L48 41L48 40L49 40L49 39L50 39L50 38L51 38L51 37L53 37L53 36L52 36L52 35L54 35L54 37L56 37L56 36L55 36L55 34L56 34L56 32L55 32L55 31L56 31L56 30L57 30L57 29L55 29L55 30L54 30L54 31L53 31L53 32L51 32L51 31L48 31L48 30L49 30L49 29L50 29L50 30L51 30L51 29L50 29L50 28L51 28L51 27L49 27L49 26L48 26L48 25L46 25L46 24L47 24L47 23L48 23L48 22L47 22L47 21L46 21L46 20L44 20L44 21L46 21L46 22L47 22L47 23L46 23L46 24L44 24L44 23L43 23L43 22L42 22L42 21L43 21L43 20L42 20L42 19L43 19L43 18L41 18L41 17L43 17L43 16L44 16L44 17L45 17L45 18L44 18L44 19L46 19L46 18L47 18L47 20L49 20L49 19L50 19L50 22L51 22L51 23L52 23L52 22L53 22L53 20L52 20L52 21L51 21L51 19L50 19L50 18L53 18L53 17L54 17L54 16L55 16L55 17L56 17L56 18L57 18L57 17L56 17L56 14L59 14L59 15L60 15L60 14L61 14L61 13L62 13L62 12L61 12L61 11L60 11L60 12L61 12L61 13L59 13L59 11L58 11L58 12L57 12L57 13L56 13L56 12L54 12L54 11L55 11L55 10L54 10L54 8L52 8L52 5L53 5L53 3L52 3L52 2L50 2L50 1ZM21 3L21 4L22 4L22 3ZM26 3L26 4L27 4L27 3ZM45 3L45 4L44 4L44 5L45 5L45 4L46 4L46 3ZM48 3L48 5L46 5L46 7L45 7L45 6L44 6L44 7L43 7L43 6L42 6L42 7L43 7L43 8L45 8L45 9L44 9L44 10L45 10L45 9L47 9L47 10L46 10L46 11L44 11L44 12L43 12L43 11L42 11L42 10L43 10L43 9L42 9L42 10L41 10L41 11L40 11L40 12L42 12L42 14L44 14L44 12L45 12L45 14L46 14L46 17L49 17L49 16L54 16L54 15L52 15L52 14L55 14L55 13L51 13L51 12L53 12L53 9L52 9L52 11L51 11L51 10L50 10L50 9L51 9L51 8L50 8L50 9L49 9L49 8L48 8L48 9L47 9L47 8L46 8L46 7L47 7L47 6L48 6L48 7L49 7L49 6L50 6L50 7L51 7L51 5L52 5L52 4L51 4L51 5L50 5L50 3ZM28 4L28 6L27 6L27 8L28 8L28 6L29 6L29 7L30 7L30 4ZM39 4L39 5L38 5L38 7L39 7L39 8L38 8L38 9L39 9L39 10L36 10L36 11L37 11L37 12L35 12L35 14L33 14L33 13L32 13L32 15L30 15L30 13L29 13L29 11L28 11L28 12L27 12L27 11L26 11L26 12L27 12L27 13L25 13L25 11L24 11L24 14L23 14L23 13L22 13L22 11L21 11L21 10L20 10L20 9L19 9L19 8L18 8L18 7L17 7L17 6L16 6L16 5L15 5L15 6L14 6L14 5L13 5L13 6L12 6L12 8L13 8L13 6L14 6L14 8L15 8L15 9L16 9L16 10L15 10L15 12L17 12L17 9L19 9L19 10L18 10L18 11L21 11L21 14L22 14L22 15L21 15L21 16L20 16L20 17L21 17L21 16L22 16L22 15L23 15L23 17L22 17L22 18L21 18L21 19L22 19L22 18L25 18L25 17L24 17L24 15L25 15L25 14L26 14L26 16L27 16L27 17L26 17L26 19L28 19L28 17L30 17L30 18L31 18L31 19L29 19L29 20L27 20L27 21L26 21L26 20L25 20L25 19L24 19L24 20L25 20L25 21L26 21L26 24L27 24L27 25L29 25L29 26L30 26L30 28L34 28L34 29L35 29L35 30L33 30L33 29L32 29L32 30L31 30L31 29L30 29L30 30L27 30L27 31L26 31L26 32L25 32L25 33L24 33L24 34L25 34L25 37L23 37L23 38L22 38L22 37L21 37L21 36L20 36L20 37L18 37L18 36L17 36L17 35L18 35L18 33L19 33L19 34L20 34L20 35L21 35L21 34L20 34L20 33L19 33L19 32L18 32L18 33L17 33L17 29L16 29L16 30L15 30L15 31L16 31L16 32L15 32L15 34L14 34L14 31L13 31L13 32L12 32L12 35L13 35L13 34L14 34L14 37L13 37L13 36L11 36L11 35L10 35L10 37L9 37L9 38L10 38L10 37L13 37L13 38L12 38L12 39L13 39L13 40L14 40L14 41L13 41L13 44L14 44L14 45L11 45L11 46L10 46L10 44L11 44L11 43L12 43L12 40L11 40L11 39L10 39L10 41L11 41L11 42L9 42L9 41L8 41L8 42L6 42L6 43L9 43L9 45L8 45L8 44L6 44L6 45L7 45L7 46L8 46L8 47L12 47L12 49L11 49L11 48L10 48L10 50L11 50L11 51L12 51L12 52L10 52L10 51L9 51L9 52L10 52L10 53L11 53L11 54L12 54L12 53L13 53L13 51L15 51L15 52L14 52L14 53L15 53L15 52L16 52L16 53L17 53L17 54L18 54L18 55L19 55L19 56L20 56L20 57L19 57L19 58L20 58L20 59L21 59L21 60L23 60L23 59L22 59L22 58L25 58L25 57L24 57L24 56L25 56L25 55L24 55L24 56L23 56L23 55L22 55L22 54L20 54L20 53L22 53L22 52L20 52L20 49L21 49L21 48L23 48L23 47L22 47L22 46L25 46L25 45L24 45L24 44L25 44L25 43L26 43L26 44L27 44L27 45L26 45L26 46L27 46L27 47L24 47L24 48L25 48L25 49L22 49L22 50L21 50L21 51L22 51L22 50L23 50L23 51L24 51L24 52L23 52L23 54L25 54L25 53L26 53L26 51L27 51L27 49L26 49L26 48L28 48L28 49L29 49L29 47L30 47L30 46L31 46L31 44L32 44L32 45L33 45L33 43L34 43L34 44L35 44L35 45L38 45L38 44L39 44L39 42L38 42L38 41L39 41L39 40L38 40L38 41L37 41L37 40L36 40L36 39L39 39L39 38L40 38L40 37L39 37L39 36L38 36L38 37L39 37L39 38L36 38L36 39L32 39L32 38L31 38L31 39L30 39L30 38L29 38L29 39L24 39L24 38L25 38L25 37L26 37L26 38L27 38L27 37L31 37L31 35L34 35L34 36L32 36L32 37L37 37L37 36L36 36L36 35L37 35L37 34L38 34L38 35L39 35L39 34L38 34L38 33L40 33L40 32L42 32L42 33L41 33L41 34L40 34L40 36L41 36L41 34L43 34L43 33L44 33L44 34L45 34L45 35L44 35L44 36L43 36L43 37L42 37L42 38L41 38L41 39L40 39L40 40L42 40L42 42L44 42L44 40L45 40L45 39L44 39L44 38L45 38L45 37L47 37L47 38L46 38L46 39L47 39L47 38L50 38L50 37L49 37L49 36L50 36L50 35L52 35L52 34L53 34L53 33L54 33L54 34L55 34L55 33L54 33L54 32L53 32L53 33L51 33L51 32L50 32L50 33L51 33L51 34L49 34L49 32L48 32L48 34L45 34L45 33L47 33L47 32L46 32L46 31L47 31L47 30L46 30L46 29L49 29L49 28L48 28L48 26L43 26L43 23L42 23L42 22L41 22L41 23L39 23L39 22L38 22L38 25L39 25L39 26L38 26L38 27L39 27L39 28L38 28L38 29L37 29L37 28L36 28L36 27L37 27L37 24L36 24L36 23L37 23L37 22L36 22L36 21L37 21L37 20L38 20L38 19L39 19L39 20L41 20L41 18L40 18L40 17L39 17L39 16L38 16L38 17L37 17L37 16L36 16L36 18L31 18L31 17L32 17L32 16L33 16L33 17L35 17L35 16L34 16L34 15L37 15L37 12L38 12L38 13L39 13L39 12L38 12L38 11L39 11L39 10L40 10L40 8L41 8L41 6L40 6L40 7L39 7L39 5L41 5L41 4ZM31 5L31 8L34 8L34 5ZM48 5L48 6L49 6L49 5ZM15 6L15 8L16 8L16 9L17 9L17 8L16 8L16 6ZM24 6L24 8L25 8L25 6ZM32 6L32 7L33 7L33 6ZM53 6L53 7L54 7L54 6ZM56 6L56 7L57 7L57 6ZM0 8L0 9L1 9L1 11L0 11L0 12L1 12L1 11L2 11L2 12L3 12L3 13L4 13L4 9L5 9L5 8ZM56 8L56 9L58 9L58 8ZM63 8L63 9L64 9L64 10L65 10L65 9L64 9L64 8ZM48 9L48 10L47 10L47 11L46 11L46 12L47 12L47 13L46 13L46 14L47 14L47 13L48 13L48 12L50 12L50 10L49 10L49 9ZM10 10L10 11L11 11L11 10ZM0 13L0 14L1 14L1 15L3 15L3 14L2 14L2 13ZM27 13L27 15L28 15L28 16L29 16L29 15L28 15L28 14L29 14L29 13ZM40 13L40 16L41 16L41 13ZM49 13L49 14L48 14L48 16L49 16L49 15L50 15L50 14L51 14L51 13ZM64 13L64 14L65 14L65 13ZM19 14L19 15L20 15L20 14ZM38 14L38 15L39 15L39 14ZM42 15L42 16L43 16L43 15ZM44 15L44 16L45 16L45 15ZM0 16L0 17L1 17L1 16ZM30 16L30 17L31 17L31 16ZM13 17L13 18L14 18L14 17ZM38 17L38 18L39 18L39 19L40 19L40 18L39 18L39 17ZM8 18L8 19L10 19L10 18ZM36 18L36 19L35 19L35 20L37 20L37 18ZM48 18L48 19L49 19L49 18ZM5 19L5 20L4 20L4 21L5 21L5 22L6 22L6 23L7 23L7 24L6 24L6 25L8 25L8 27L9 27L9 24L8 24L8 23L9 23L9 21L8 21L8 23L7 23L7 22L6 22L6 21L7 21L7 20L6 20L6 19ZM30 20L30 21L27 21L27 23L28 23L28 24L29 24L29 23L31 23L31 22L33 22L33 23L34 23L34 24L32 24L32 25L31 25L31 24L30 24L30 26L31 26L31 27L33 27L33 26L36 26L36 25L34 25L34 24L35 24L35 23L36 23L36 22L35 22L35 21L34 21L34 22L33 22L33 20L32 20L32 21L31 21L31 20ZM56 20L56 21L57 21L57 20ZM30 21L30 22L31 22L31 21ZM34 22L34 23L35 23L35 22ZM12 24L12 26L11 26L11 25L10 25L10 28L12 28L12 26L14 26L14 25L15 25L15 24ZM19 24L19 25L18 25L18 27L21 27L21 26L22 26L22 27L23 27L23 26L22 26L22 25L23 25L23 24L22 24L22 25L20 25L20 24ZM39 24L39 25L41 25L41 26L40 26L40 27L41 27L41 28L39 28L39 29L38 29L38 30L39 30L39 31L37 31L37 29L36 29L36 31L35 31L35 32L39 32L39 31L41 31L41 30L42 30L42 32L44 32L44 33L45 33L45 32L44 32L44 30L45 30L45 31L46 31L46 30L45 30L45 28L44 28L44 27L43 27L43 26L42 26L42 25L41 25L41 24ZM61 24L61 25L62 25L62 24ZM19 25L19 26L20 26L20 25ZM32 25L32 26L33 26L33 25ZM52 26L52 27L53 27L53 28L52 28L52 29L53 29L53 28L54 28L54 27L53 27L53 26ZM13 27L13 28L14 28L14 27ZM34 27L34 28L35 28L35 27ZM42 27L42 28L43 28L43 29L42 29L42 30L44 30L44 28L43 28L43 27ZM64 27L64 28L62 28L62 29L64 29L64 28L65 28L65 27ZM28 28L28 29L29 29L29 28ZM40 29L40 30L41 30L41 29ZM18 30L18 31L19 31L19 30ZM62 30L62 31L63 31L63 30ZM5 31L5 34L8 34L8 31ZM28 31L28 32L29 32L29 33L27 33L27 32L26 32L26 33L27 33L27 34L26 34L26 37L27 37L27 34L29 34L29 33L30 33L30 31ZM31 31L31 34L34 34L34 31ZM57 31L57 34L60 34L60 31ZM64 31L64 34L65 34L65 31ZM6 32L6 33L7 33L7 32ZM32 32L32 33L33 33L33 32ZM58 32L58 33L59 33L59 32ZM16 33L16 35L15 35L15 36L16 36L16 35L17 35L17 33ZM35 34L35 35L36 35L36 34ZM48 34L48 35L46 35L46 36L49 36L49 34ZM28 35L28 36L30 36L30 35ZM60 35L60 37L61 37L61 38L62 38L62 37L61 37L61 35ZM44 36L44 37L45 37L45 36ZM57 36L57 37L58 37L58 36ZM15 37L15 38L14 38L14 39L16 39L16 40L15 40L15 41L14 41L14 43L15 43L15 45L14 45L14 46L15 46L15 47L14 47L14 48L15 48L15 47L16 47L16 48L17 48L17 49L16 49L16 52L17 52L17 53L18 53L18 52L17 52L17 51L18 51L18 50L19 50L19 49L18 49L18 48L21 48L21 41L20 41L20 40L21 40L21 37L20 37L20 39L19 39L19 38L18 38L18 37ZM16 38L16 39L17 39L17 40L16 40L16 41L17 41L17 40L18 40L18 41L19 41L19 43L18 43L18 42L17 42L17 43L16 43L16 42L15 42L15 43L16 43L16 44L17 44L17 46L18 46L18 45L20 45L20 44L19 44L19 43L20 43L20 41L19 41L19 39L17 39L17 38ZM42 38L42 40L44 40L44 39L43 39L43 38ZM52 38L52 39L53 39L53 38ZM56 38L56 40L57 40L57 38ZM8 39L8 40L9 40L9 39ZM29 39L29 40L30 40L30 39ZM4 40L4 41L7 41L7 40ZM22 40L22 41L25 41L25 42L24 42L24 43L25 43L25 42L26 42L26 43L29 43L29 44L30 44L30 43L31 43L31 42L32 42L32 43L33 43L33 42L34 42L34 43L35 43L35 44L37 44L37 43L38 43L38 42L37 42L37 41L36 41L36 42L35 42L35 40L34 40L34 41L32 41L32 40L31 40L31 41L27 41L27 40ZM26 41L26 42L27 42L27 41ZM40 41L40 44L41 44L41 41ZM54 41L54 42L55 42L55 41ZM1 42L1 43L2 43L2 42ZM29 42L29 43L30 43L30 42ZM36 42L36 43L37 43L37 42ZM17 43L17 44L18 44L18 43ZM52 43L52 44L48 44L48 45L49 45L49 46L48 46L48 47L49 47L49 46L50 46L50 49L51 49L51 47L52 47L52 48L53 48L53 47L52 47L52 46L55 46L55 45L52 45L52 44L53 44L53 43ZM54 43L54 44L56 44L56 43ZM22 44L22 45L23 45L23 44ZM43 44L43 45L42 45L42 46L43 46L43 45L44 45L44 44ZM60 44L60 45L61 45L61 44ZM15 45L15 46L16 46L16 45ZM28 45L28 46L30 46L30 45ZM39 45L39 46L38 46L38 47L37 47L37 46L36 46L36 47L37 47L37 48L35 48L35 47L34 47L34 46L33 46L33 47L31 47L31 48L32 48L32 49L33 49L33 51L31 51L31 49L30 49L30 50L28 50L28 52L27 52L27 53L29 53L29 51L30 51L30 52L31 52L31 54L32 54L32 55L33 55L33 54L32 54L32 53L34 53L34 52L35 52L35 51L34 51L34 49L33 49L33 48L35 48L35 50L37 50L37 51L38 51L38 53L39 53L39 51L40 51L40 52L41 52L41 51L40 51L40 50L43 50L43 48L41 48L41 47L40 47L40 46L41 46L41 45ZM50 45L50 46L51 46L51 45ZM0 46L0 47L1 47L1 51L0 51L0 52L1 52L1 53L0 53L0 54L2 54L2 55L3 55L3 56L1 56L1 55L0 55L0 56L1 56L1 57L3 57L3 56L4 56L4 57L5 57L5 56L4 56L4 53L3 53L3 54L2 54L2 52L3 52L3 51L2 51L2 50L3 50L3 49L2 49L2 46ZM12 46L12 47L13 47L13 46ZM19 46L19 47L20 47L20 46ZM38 47L38 50L39 50L39 49L41 49L41 48L40 48L40 47ZM54 47L54 48L56 48L56 47ZM14 49L14 50L15 50L15 49ZM17 49L17 50L18 50L18 49ZM25 49L25 50L26 50L26 49ZM12 50L12 51L13 51L13 50ZM58 50L58 51L57 51L57 52L58 52L58 51L59 51L59 50ZM60 50L60 51L61 51L61 50ZM1 51L1 52L2 52L2 51ZM6 51L6 52L7 52L7 51ZM64 51L64 52L65 52L65 51ZM19 52L19 53L20 53L20 52ZM24 52L24 53L25 53L25 52ZM36 52L36 53L35 53L35 54L36 54L36 53L37 53L37 52ZM46 52L46 53L49 53L49 54L48 54L48 55L47 55L47 54L45 54L45 53L44 53L44 54L45 54L45 55L44 55L44 56L43 56L43 55L42 55L42 56L43 56L43 57L40 57L40 58L41 58L41 59L39 59L39 58L38 58L38 59L37 59L37 58L36 58L36 59L37 59L37 60L39 60L39 62L40 62L40 60L41 60L41 59L42 59L42 58L44 58L44 56L45 56L45 57L50 57L50 55L51 55L51 56L53 56L53 54L50 54L50 53L49 53L49 52ZM40 53L40 54L38 54L38 55L39 55L39 56L41 56L41 55L40 55L40 54L41 54L41 53ZM42 53L42 54L43 54L43 53ZM64 53L64 54L65 54L65 53ZM49 54L49 55L48 55L48 56L49 56L49 55L50 55L50 54ZM20 55L20 56L21 56L21 57L20 57L20 58L21 58L21 57L23 57L23 56L21 56L21 55ZM46 55L46 56L47 56L47 55ZM60 55L60 56L61 56L61 60L64 60L64 59L62 59L62 56L61 56L61 55ZM14 56L14 57L15 57L15 56ZM31 57L31 60L34 60L34 57ZM51 57L51 58L50 58L50 59L51 59L51 58L52 58L52 57ZM53 57L53 58L55 58L55 57ZM57 57L57 60L60 60L60 57ZM32 58L32 59L33 59L33 58ZM48 58L48 59L49 59L49 58ZM58 58L58 59L59 59L59 58ZM16 59L16 60L18 60L18 61L19 61L19 60L18 60L18 59ZM24 59L24 60L25 60L25 59ZM45 59L45 60L44 60L44 63L45 63L45 60L46 60L46 62L47 62L47 60L46 60L46 59ZM22 61L22 62L23 62L23 61ZM30 61L30 62L31 62L31 61ZM58 61L58 62L59 62L59 61ZM60 61L60 62L61 62L61 63L62 63L62 64L63 64L63 63L62 63L62 62L63 62L63 61ZM32 62L32 63L33 63L33 62ZM42 62L42 63L41 63L41 64L42 64L42 63L43 63L43 62ZM10 63L10 65L11 65L11 64L13 64L13 63ZM28 63L28 64L29 64L29 63ZM46 63L46 64L47 64L47 63ZM14 64L14 65L15 65L15 64ZM0 0L0 7L7 7L7 0ZM1 1L1 6L6 6L6 1ZM2 2L2 5L5 5L5 2ZM58 0L58 7L65 7L65 0ZM59 1L59 6L64 6L64 1ZM60 2L60 5L63 5L63 2ZM0 58L0 65L7 65L7 58ZM1 59L1 64L6 64L6 59ZM2 60L2 63L5 63L5 60Z" fill="#000000"/></g></g></svg>
