<?xml version="1.0" encoding="UTF-8"?>
<svg xmlns="http://www.w3.org/2000/svg" version="1.1" width="300" height="300" viewBox="0 0 300 300"><rect x="0" y="0" width="300" height="300" fill="#ffffff"/><g transform="scale(4.615)"><g transform="translate(0,0)"><path fill-rule="evenodd" d="M9 0L9 1L8 1L8 2L10 2L10 1L11 1L11 5L10 5L10 3L8 3L8 4L9 4L9 5L8 5L8 7L9 7L9 6L10 6L10 8L11 8L11 9L12 9L12 10L13 10L13 11L12 11L12 13L13 13L13 12L16 12L16 13L17 13L17 14L16 14L16 16L17 16L17 17L14 17L14 18L13 18L13 17L12 17L12 16L13 16L13 15L14 15L14 16L15 16L15 14L13 14L13 15L12 15L12 16L11 16L11 18L12 18L12 19L14 19L14 18L17 18L17 19L18 19L18 17L19 17L19 16L20 16L20 17L21 17L21 18L22 18L22 19L21 19L21 20L19 20L19 21L18 21L18 20L17 20L17 21L16 21L16 19L15 19L15 21L16 21L16 22L15 22L15 23L16 23L16 24L15 24L15 25L14 25L14 23L13 23L13 22L14 22L14 20L13 20L13 22L12 22L12 21L10 21L10 22L9 22L9 23L7 23L7 22L6 22L6 21L7 21L7 20L6 20L6 19L7 19L7 18L8 18L8 19L9 19L9 20L8 20L8 21L9 21L9 20L10 20L10 19L9 19L9 17L7 17L7 16L8 16L8 14L6 14L6 13L9 13L9 15L11 15L11 14L10 14L10 13L11 13L11 12L10 12L10 11L11 11L11 10L10 10L10 9L9 9L9 8L6 8L6 9L5 9L5 8L0 8L0 9L2 9L2 10L0 10L0 11L1 11L1 12L2 12L2 11L4 11L4 12L3 12L3 13L4 13L4 14L6 14L6 15L5 15L5 16L4 16L4 15L2 15L2 13L0 13L0 14L1 14L1 15L2 15L2 17L3 17L3 18L2 18L2 19L1 19L1 22L0 22L0 23L1 23L1 22L2 22L2 24L1 24L1 26L0 26L0 27L1 27L1 26L2 26L2 27L3 27L3 28L2 28L2 29L1 29L1 30L0 30L0 34L1 34L1 35L0 35L0 36L1 36L1 35L2 35L2 36L3 36L3 35L5 35L5 36L4 36L4 37L5 37L5 39L4 39L4 40L5 40L5 39L8 39L8 38L9 38L9 39L10 39L10 37L12 37L12 36L13 36L13 35L14 35L14 36L16 36L16 37L14 37L14 41L13 41L13 42L12 42L12 41L11 41L11 40L9 40L9 41L11 41L11 42L9 42L9 43L8 43L8 44L5 44L5 45L2 45L2 46L1 46L1 47L4 47L4 48L5 48L5 47L7 47L7 48L6 48L6 49L3 49L3 48L1 48L1 49L0 49L0 50L2 50L2 51L5 51L5 52L6 52L6 53L5 53L5 55L7 55L7 56L6 56L6 57L7 57L7 56L8 56L8 59L9 59L9 60L8 60L8 65L9 65L9 63L11 63L11 65L12 65L12 64L14 64L14 62L13 62L13 63L11 63L11 62L12 62L12 61L13 61L13 60L12 60L12 59L13 59L13 58L12 58L12 59L9 59L9 57L10 57L10 58L11 58L11 57L12 57L12 56L14 56L14 57L15 57L15 56L14 56L14 55L13 55L13 52L14 52L14 53L15 53L15 55L16 55L16 57L17 57L17 56L18 56L18 57L19 57L19 58L18 58L18 59L17 59L17 58L14 58L14 59L15 59L15 60L14 60L14 61L15 61L15 62L16 62L16 61L15 61L15 60L16 60L16 59L17 59L17 61L20 61L20 60L19 60L19 59L21 59L21 58L20 58L20 57L21 57L21 55L22 55L22 56L23 56L23 55L22 55L22 53L23 53L23 54L24 54L24 56L25 56L25 57L22 57L22 59L23 59L23 58L27 58L27 59L26 59L26 60L25 60L25 59L24 59L24 60L23 60L23 61L22 61L22 60L21 60L21 64L16 64L16 63L15 63L15 65L22 65L22 64L23 64L23 63L24 63L24 64L28 64L28 65L31 65L31 64L32 64L32 65L37 65L37 64L36 64L36 63L37 63L37 62L38 62L38 63L39 63L39 64L38 64L38 65L39 65L39 64L41 64L41 65L44 65L44 64L45 64L45 65L47 65L47 64L46 64L46 63L50 63L50 65L52 65L52 64L53 64L53 65L55 65L55 63L56 63L56 64L57 64L57 65L61 65L61 63L62 63L62 62L63 62L63 64L62 64L62 65L63 65L63 64L64 64L64 61L63 61L63 60L62 60L62 59L63 59L63 58L62 58L62 59L61 59L61 57L64 57L64 58L65 58L65 55L64 55L64 54L65 54L65 53L64 53L64 52L65 52L65 51L63 51L63 50L65 50L65 49L64 49L64 48L62 48L62 47L63 47L63 46L62 46L62 47L61 47L61 45L64 45L64 44L65 44L65 43L63 43L63 42L65 42L65 41L63 41L63 40L61 40L61 41L58 41L58 40L60 40L60 39L61 39L61 37L63 37L63 38L62 38L62 39L64 39L64 40L65 40L65 39L64 39L64 38L65 38L65 35L63 35L63 34L65 34L65 32L64 32L64 31L63 31L63 32L62 32L62 33L63 33L63 34L62 34L62 35L61 35L61 31L62 31L62 29L65 29L65 28L62 28L62 27L63 27L63 26L65 26L65 24L64 24L64 22L65 22L65 21L64 21L64 20L62 20L62 21L61 21L61 20L58 20L58 19L59 19L59 18L56 18L56 21L59 21L59 22L57 22L57 23L54 23L54 24L53 24L53 23L52 23L52 22L55 22L55 21L54 21L54 20L55 20L55 19L54 19L54 18L55 18L55 17L54 17L54 18L53 18L53 17L52 17L52 18L53 18L53 19L51 19L51 18L50 18L50 17L51 17L51 16L53 16L53 15L52 15L52 14L53 14L53 13L54 13L54 14L56 14L56 15L59 15L59 16L58 16L58 17L61 17L61 16L62 16L62 18L60 18L60 19L63 19L63 18L65 18L65 15L64 15L64 16L62 16L62 14L63 14L63 13L64 13L64 14L65 14L65 13L64 13L64 12L62 12L62 11L63 11L63 10L65 10L65 9L64 9L64 8L63 8L63 10L62 10L62 11L61 11L61 10L60 10L60 11L61 11L61 12L60 12L60 13L61 13L61 16L60 16L60 15L59 15L59 14L56 14L56 13L57 13L57 12L58 12L58 11L59 11L59 10L58 10L58 11L55 11L55 12L54 12L54 10L55 10L55 9L51 9L51 10L50 10L50 11L52 11L52 12L53 12L53 13L51 13L51 14L50 14L50 12L48 12L48 11L47 11L47 10L49 10L49 9L50 9L50 8L51 8L51 6L52 6L52 8L53 8L53 6L54 6L54 8L55 8L55 5L54 5L54 4L56 4L56 5L57 5L57 4L56 4L56 3L57 3L57 1L56 1L56 0L55 0L55 1L56 1L56 3L55 3L55 2L54 2L54 3L53 3L53 1L54 1L54 0L52 0L52 2L51 2L51 1L50 1L50 0L48 0L48 1L45 1L45 0L44 0L44 1L45 1L45 2L42 2L42 1L43 1L43 0L39 0L39 1L37 1L37 0L36 0L36 1L34 1L34 0L33 0L33 2L32 2L32 0L29 0L29 2L30 2L30 3L31 3L31 4L30 4L30 7L29 7L29 5L25 5L25 4L23 4L23 6L22 6L22 5L20 5L20 4L22 4L22 3L21 3L21 2L22 2L22 1L25 1L25 2L24 2L24 3L26 3L26 2L27 2L27 1L28 1L28 0L26 0L26 1L25 1L25 0L21 0L21 2L19 2L19 1L18 1L18 2L16 2L16 1L15 1L15 2L16 2L16 3L14 3L14 2L13 2L13 1L14 1L14 0L13 0L13 1L12 1L12 0ZM30 1L30 2L31 2L31 3L32 3L32 4L33 4L33 3L32 3L32 2L31 2L31 1ZM48 1L48 2L47 2L47 3L51 3L51 4L50 4L50 5L53 5L53 3L51 3L51 2L49 2L49 1ZM12 2L12 3L13 3L13 2ZM34 2L34 3L35 3L35 7L36 7L36 8L37 8L37 7L38 7L38 10L39 10L39 11L36 11L36 10L37 10L37 9L31 9L31 10L32 10L32 11L31 11L31 12L30 12L30 10L29 10L29 9L28 9L28 10L26 10L26 9L27 9L27 7L28 7L28 8L29 8L29 7L28 7L28 6L27 6L27 7L26 7L26 6L25 6L25 7L24 7L24 6L23 6L23 8L21 8L21 7L22 7L22 6L21 6L21 7L20 7L20 6L19 6L19 7L18 7L18 5L17 5L17 7L16 7L16 6L15 6L15 4L14 4L14 5L13 5L13 7L14 7L14 6L15 6L15 7L16 7L16 8L15 8L15 9L14 9L14 8L12 8L12 9L13 9L13 10L15 10L15 9L16 9L16 11L17 11L17 8L19 8L19 9L18 9L18 10L19 10L19 11L20 11L20 10L22 10L22 11L21 11L21 12L19 12L19 13L18 13L18 14L17 14L17 16L19 16L19 15L20 15L20 14L19 14L19 13L24 13L24 14L23 14L23 15L21 15L21 17L23 17L23 15L24 15L24 17L25 17L25 16L26 16L26 17L27 17L27 21L25 21L25 20L26 20L26 19L25 19L25 20L23 20L23 21L22 21L22 20L21 20L21 21L20 21L20 22L18 22L18 21L17 21L17 22L18 22L18 23L19 23L19 25L18 25L18 24L17 24L17 25L16 25L16 26L17 26L17 28L15 28L15 27L14 27L14 26L12 26L12 24L13 24L13 23L12 23L12 22L11 22L11 23L9 23L9 24L7 24L7 23L6 23L6 22L4 22L4 23L3 23L3 25L4 25L4 23L6 23L6 24L7 24L7 25L6 25L6 26L5 26L5 27L6 27L6 28L4 28L4 29L6 29L6 30L7 30L7 29L6 29L6 28L8 28L8 27L9 27L9 28L10 28L10 27L9 27L9 26L8 26L8 25L10 25L10 26L12 26L12 28L11 28L11 29L10 29L10 30L9 30L9 36L10 36L10 34L11 34L11 31L12 31L12 30L11 30L11 29L13 29L13 28L14 28L14 30L13 30L13 33L12 33L12 34L13 34L13 33L14 33L14 34L15 34L15 33L16 33L16 34L17 34L17 35L16 35L16 36L17 36L17 37L16 37L16 38L17 38L17 37L18 37L18 36L17 36L17 35L18 35L18 34L20 34L20 35L19 35L19 38L18 38L18 39L16 39L16 40L18 40L18 39L19 39L19 41L18 41L18 42L17 42L17 41L15 41L15 42L13 42L13 43L16 43L16 45L15 45L15 44L14 44L14 46L13 46L13 45L12 45L12 47L11 47L11 46L10 46L10 47L9 47L9 49L8 49L8 50L7 50L7 49L6 49L6 50L7 50L7 51L6 51L6 52L9 52L9 51L8 51L8 50L9 50L9 49L10 49L10 47L11 47L11 49L12 49L12 50L10 50L10 52L13 52L13 51L12 51L12 50L14 50L14 51L15 51L15 52L18 52L18 53L16 53L16 55L18 55L18 56L19 56L19 57L20 57L20 56L19 56L19 55L21 55L21 53L22 53L22 52L21 52L21 53L20 53L20 54L18 54L18 53L19 53L19 52L20 52L20 50L21 50L21 51L22 51L22 50L21 50L21 49L18 49L18 51L17 51L17 49L16 49L16 51L15 51L15 49L12 49L12 48L13 48L13 47L14 47L14 48L16 48L16 47L15 47L15 46L16 46L16 45L17 45L17 46L18 46L18 48L19 48L19 47L20 47L20 46L19 46L19 45L21 45L21 47L22 47L22 49L23 49L23 47L24 47L24 49L25 49L25 48L26 48L26 49L27 49L27 53L25 53L25 52L26 52L26 51L25 51L25 50L23 50L23 53L25 53L25 54L30 54L30 55L31 55L31 56L32 56L32 55L33 55L33 56L34 56L34 55L35 55L35 57L36 57L36 56L37 56L37 57L38 57L38 58L39 58L39 57L38 57L38 56L39 56L39 55L40 55L40 54L41 54L41 56L40 56L40 57L41 57L41 58L42 58L42 59L41 59L41 60L40 60L40 59L39 59L39 60L38 60L38 59L37 59L37 58L36 58L36 59L35 59L35 60L38 60L38 62L39 62L39 61L43 61L43 62L42 62L42 63L41 63L41 62L40 62L40 63L41 63L41 64L43 64L43 63L46 63L46 62L47 62L47 61L48 61L48 60L49 60L49 62L51 62L51 63L53 63L53 64L54 64L54 63L55 63L55 62L56 62L56 63L57 63L57 64L59 64L59 62L58 62L58 61L57 61L57 62L56 62L56 61L55 61L55 60L56 60L56 59L55 59L55 58L56 58L56 56L57 56L57 55L60 55L60 53L61 53L61 56L63 56L63 55L62 55L62 52L63 52L63 51L62 51L62 52L58 52L58 51L60 51L60 49L61 49L61 50L63 50L63 49L61 49L61 47L60 47L60 46L59 46L59 44L60 44L60 45L61 45L61 44L60 44L60 43L61 43L61 42L58 42L58 41L56 41L56 40L58 40L58 39L60 39L60 37L61 37L61 36L60 36L60 35L59 35L59 38L58 38L58 36L57 36L57 35L56 35L56 36L55 36L55 34L56 34L56 33L55 33L55 30L57 30L57 29L56 29L56 28L58 28L58 30L61 30L61 29L62 29L62 28L61 28L61 25L62 25L62 26L63 26L63 25L64 25L64 24L63 24L63 22L59 22L59 23L58 23L58 24L57 24L57 25L56 25L56 24L54 24L54 25L56 25L56 27L55 27L55 26L54 26L54 28L52 28L52 29L54 29L54 28L55 28L55 30L54 30L54 31L53 31L53 32L52 32L52 31L50 31L50 30L51 30L51 28L49 28L49 27L48 27L48 26L49 26L49 25L50 25L50 26L53 26L53 24L52 24L52 25L51 25L51 24L49 24L49 23L50 23L50 22L51 22L51 21L53 21L53 20L51 20L51 19L50 19L50 18L49 18L49 19L48 19L48 18L47 18L47 16L49 16L49 17L50 17L50 16L51 16L51 15L50 15L50 14L48 14L48 13L46 13L46 11L45 11L45 10L47 10L47 8L49 8L49 7L50 7L50 6L49 6L49 7L48 7L48 6L47 6L47 7L46 7L46 6L45 6L45 5L44 5L44 4L46 4L46 5L47 5L47 4L46 4L46 3L44 3L44 4L43 4L43 3L42 3L42 2L41 2L41 3L40 3L40 2L38 2L38 3L37 3L37 2L36 2L36 3L35 3L35 2ZM17 3L17 4L18 4L18 3ZM19 3L19 4L20 4L20 3ZM27 3L27 4L29 4L29 3ZM36 3L36 4L37 4L37 3ZM39 4L39 5L38 5L38 7L39 7L39 8L41 8L41 10L40 10L40 9L39 9L39 10L40 10L40 11L39 11L39 12L36 12L36 14L33 14L33 13L32 13L32 12L34 12L34 13L35 13L35 12L34 12L34 11L35 11L35 10L34 10L34 11L32 11L32 12L31 12L31 13L32 13L32 14L33 14L33 15L32 15L32 16L35 16L35 17L38 17L38 16L35 16L35 15L36 15L36 14L38 14L38 15L40 15L40 16L39 16L39 18L36 18L36 19L35 19L35 18L34 18L34 17L33 17L33 18L31 18L31 17L30 17L30 18L31 18L31 19L29 19L29 18L28 18L28 19L29 19L29 20L28 20L28 21L29 21L29 20L31 20L31 22L34 22L34 24L35 24L35 22L34 22L34 21L35 21L35 20L36 20L36 21L37 21L37 20L36 20L36 19L39 19L39 20L38 20L38 21L40 21L40 22L36 22L36 23L39 23L39 24L36 24L36 25L35 25L35 26L34 26L34 25L33 25L33 26L32 26L32 24L33 24L33 23L32 23L32 24L31 24L31 23L30 23L30 24L29 24L29 22L28 22L28 25L26 25L26 24L27 24L27 23L26 23L26 24L25 24L25 25L24 25L24 23L25 23L25 21L23 21L23 22L24 22L24 23L22 23L22 21L21 21L21 22L20 22L20 23L22 23L22 24L23 24L23 25L21 25L21 24L20 24L20 25L19 25L19 26L18 26L18 27L19 27L19 28L17 28L17 29L20 29L20 28L21 28L21 31L22 31L22 30L23 30L23 31L24 31L24 32L26 32L26 31L27 31L27 33L26 33L26 34L27 34L27 37L29 37L29 36L30 36L30 37L31 37L31 39L30 39L30 38L28 38L28 39L30 39L30 40L28 40L28 41L26 41L26 40L27 40L27 39L26 39L26 37L23 37L23 40L24 40L24 38L25 38L25 41L24 41L24 43L22 43L22 42L23 42L23 41L22 41L22 42L21 42L21 43L20 43L20 41L21 41L21 38L19 38L19 39L20 39L20 41L19 41L19 43L17 43L17 42L16 42L16 43L17 43L17 45L19 45L19 43L20 43L20 44L24 44L24 45L22 45L22 47L23 47L23 46L24 46L24 45L25 45L25 41L26 41L26 44L27 44L27 45L26 45L26 46L25 46L25 47L28 47L28 45L30 45L30 46L29 46L29 47L30 47L30 48L28 48L28 49L30 49L30 48L32 48L32 49L31 49L31 51L30 51L30 50L29 50L29 51L30 51L30 53L31 53L31 55L32 55L32 53L33 53L33 54L36 54L36 55L39 55L39 54L38 54L38 53L40 53L40 52L42 52L42 54L43 54L43 52L42 52L42 51L40 51L40 50L38 50L38 51L39 51L39 52L38 52L38 53L37 53L37 52L35 52L35 51L37 51L37 50L36 50L36 49L37 49L37 48L41 48L41 47L39 47L39 46L38 46L38 45L39 45L39 44L41 44L41 45L40 45L40 46L41 46L41 45L42 45L42 46L44 46L44 48L47 48L47 49L49 49L49 48L47 48L47 46L46 46L46 44L45 44L45 42L46 42L46 43L47 43L47 45L49 45L49 44L48 44L48 43L49 43L49 41L51 41L51 38L50 38L50 36L51 36L51 35L52 35L52 36L53 36L53 39L52 39L52 40L53 40L53 42L55 42L55 40L56 40L56 39L54 39L54 38L56 38L56 37L54 37L54 34L55 34L55 33L54 33L54 34L53 34L53 33L51 33L51 34L50 34L50 36L48 36L48 38L45 38L45 37L44 37L44 36L46 36L46 37L47 37L47 36L46 36L46 35L49 35L49 34L48 34L48 33L49 33L49 32L50 32L50 31L49 31L49 32L47 32L47 31L48 31L48 30L49 30L49 28L48 28L48 29L47 29L47 28L46 28L46 27L47 27L47 26L46 26L46 24L47 24L47 25L49 25L49 24L47 24L47 22L46 22L46 24L45 24L45 23L44 23L44 22L43 22L43 21L44 21L44 20L45 20L45 21L49 21L49 22L48 22L48 23L49 23L49 22L50 22L50 21L49 21L49 20L48 20L48 19L47 19L47 18L46 18L46 19L45 19L45 17L42 17L42 16L43 16L43 15L44 15L44 16L46 16L46 15L48 15L48 14L46 14L46 15L45 15L45 14L43 14L43 11L44 11L44 12L45 12L45 11L44 11L44 10L45 10L45 9L44 9L44 8L46 8L46 7L45 7L45 6L44 6L44 8L43 8L43 9L42 9L42 7L43 7L43 6L42 6L42 5L43 5L43 4L42 4L42 5L41 5L41 4ZM48 4L48 5L49 5L49 4ZM11 5L11 7L12 7L12 5ZM31 5L31 8L34 8L34 5ZM40 5L40 6L39 6L39 7L40 7L40 6L41 6L41 7L42 7L42 6L41 6L41 5ZM32 6L32 7L33 7L33 6ZM36 6L36 7L37 7L37 6ZM56 6L56 7L57 7L57 6ZM20 8L20 9L21 9L21 8ZM56 8L56 9L58 9L58 8ZM59 8L59 9L60 9L60 8ZM61 8L61 9L62 9L62 8ZM6 9L6 10L5 10L5 11L6 11L6 12L4 12L4 13L6 13L6 12L7 12L7 11L8 11L8 12L9 12L9 9L8 9L8 10L7 10L7 9ZM22 9L22 10L23 10L23 9ZM24 9L24 10L25 10L25 11L26 11L26 10L25 10L25 9ZM6 10L6 11L7 11L7 10ZM28 10L28 11L27 11L27 12L28 12L28 11L29 11L29 10ZM42 10L42 11L43 11L43 10ZM52 10L52 11L53 11L53 10ZM22 11L22 12L23 12L23 11ZM24 12L24 13L25 13L25 12ZM39 12L39 13L38 13L38 14L39 14L39 13L41 13L41 12ZM26 13L26 14L27 14L27 13ZM29 13L29 14L30 14L30 13ZM18 14L18 15L19 15L19 14ZM40 14L40 15L41 15L41 16L40 16L40 17L41 17L41 16L42 16L42 15L43 15L43 14ZM6 15L6 16L7 16L7 15ZM26 15L26 16L27 16L27 17L29 17L29 16L31 16L31 15L28 15L28 16L27 16L27 15ZM54 15L54 16L55 16L55 15ZM0 16L0 18L1 18L1 16ZM56 16L56 17L57 17L57 16ZM4 17L4 18L5 18L5 19L6 19L6 18L7 18L7 17ZM40 18L40 19L41 19L41 20L40 20L40 21L41 21L41 22L42 22L42 23L41 23L41 24L39 24L39 25L38 25L38 26L39 26L39 25L43 25L43 26L40 26L40 27L38 27L38 30L39 30L39 31L37 31L37 30L36 30L36 29L35 29L35 28L37 28L37 25L36 25L36 26L35 26L35 27L33 27L33 28L32 28L32 29L33 29L33 30L36 30L36 32L37 32L37 33L36 33L36 35L35 35L35 37L34 37L34 35L33 35L33 37L32 37L32 36L31 36L31 37L32 37L32 39L31 39L31 40L30 40L30 41L28 41L28 42L30 42L30 41L31 41L31 40L33 40L33 37L34 37L34 39L35 39L35 38L36 38L36 40L39 40L39 41L37 41L37 42L36 42L36 41L35 41L35 42L34 42L34 43L35 43L35 44L37 44L37 45L38 45L38 44L39 44L39 43L38 43L38 42L39 42L39 41L41 41L41 42L40 42L40 43L41 43L41 44L42 44L42 45L43 45L43 44L44 44L44 46L45 46L45 44L44 44L44 43L43 43L43 42L45 42L45 40L44 40L44 39L45 39L45 38L44 38L44 37L43 37L43 36L42 36L42 35L43 35L43 34L45 34L45 35L46 35L46 34L47 34L47 32L46 32L46 33L45 33L45 32L44 32L44 33L43 33L43 34L42 34L42 35L41 35L41 36L40 36L40 34L41 34L41 32L40 32L40 34L39 34L39 33L38 33L38 32L39 32L39 31L40 31L40 29L41 29L41 28L42 28L42 29L43 29L43 28L44 28L44 30L41 30L41 31L45 31L45 30L47 30L47 29L45 29L45 28L44 28L44 27L45 27L45 26L44 26L44 25L45 25L45 24L44 24L44 25L43 25L43 24L42 24L42 23L43 23L43 22L42 22L42 21L43 21L43 19L44 19L44 18ZM3 19L3 20L2 20L2 22L3 22L3 20L4 20L4 21L5 21L5 20L4 20L4 19ZM31 19L31 20L32 20L32 21L33 21L33 20L32 20L32 19ZM34 19L34 20L35 20L35 19ZM46 19L46 20L47 20L47 19ZM30 24L30 25L28 25L28 26L29 26L29 28L30 28L30 29L28 29L28 28L26 28L26 27L27 27L27 26L24 26L24 25L23 25L23 26L21 26L21 25L20 25L20 26L21 26L21 28L22 28L22 29L23 29L23 30L24 30L24 29L23 29L23 28L24 28L24 27L25 27L25 29L27 29L27 30L29 30L29 31L28 31L28 32L29 32L29 33L27 33L27 34L29 34L29 33L30 33L30 32L29 32L29 31L30 31L30 30L31 30L31 28L30 28L30 27L32 27L32 26L30 26L30 25L31 25L31 24ZM58 24L58 25L59 25L59 26L57 26L57 27L58 27L58 28L60 28L60 29L61 29L61 28L60 28L60 27L59 27L59 26L60 26L60 25L61 25L61 24L60 24L60 25L59 25L59 24ZM62 24L62 25L63 25L63 24ZM3 26L3 27L4 27L4 26ZM6 26L6 27L7 27L7 26ZM40 27L40 28L41 28L41 27ZM42 27L42 28L43 28L43 27ZM15 29L15 30L14 30L14 31L15 31L15 32L14 32L14 33L15 33L15 32L16 32L16 33L21 33L21 35L22 35L22 34L23 34L23 35L24 35L24 36L26 36L26 35L24 35L24 34L25 34L25 33L21 33L21 32L18 32L18 31L20 31L20 30L17 30L17 32L16 32L16 31L15 31L15 30L16 30L16 29ZM3 30L3 31L4 31L4 30ZM1 31L1 32L2 32L2 31ZM5 31L5 34L8 34L8 31ZM31 31L31 34L34 34L34 31ZM57 31L57 34L60 34L60 31ZM6 32L6 33L7 33L7 32ZM32 32L32 33L33 33L33 32ZM58 32L58 33L59 33L59 32ZM2 33L2 35L3 35L3 33ZM38 34L38 37L39 37L39 38L38 38L38 39L39 39L39 40L42 40L42 42L43 42L43 39L41 39L41 38L40 38L40 37L39 37L39 34ZM52 34L52 35L53 35L53 34ZM6 35L6 36L5 36L5 37L6 37L6 38L7 38L7 37L6 37L6 36L8 36L8 35ZM28 35L28 36L29 36L29 35ZM62 35L62 36L63 36L63 37L64 37L64 36L63 36L63 35ZM20 36L20 37L22 37L22 36ZM36 36L36 38L37 38L37 36ZM0 37L0 41L2 41L2 42L0 42L0 45L1 45L1 44L2 44L2 43L3 43L3 41L2 41L2 40L3 40L3 38L2 38L2 39L1 39L1 37ZM42 37L42 38L43 38L43 37ZM39 38L39 39L40 39L40 38ZM48 38L48 40L50 40L50 38ZM12 39L12 40L13 40L13 39ZM46 39L46 40L47 40L47 39ZM6 40L6 41L4 41L4 42L5 42L5 43L7 43L7 42L6 42L6 41L8 41L8 40ZM32 41L32 42L31 42L31 45L32 45L32 47L33 47L33 48L34 48L34 49L35 49L35 48L37 48L37 47L38 47L38 46L37 46L37 47L36 47L36 46L35 46L35 45L34 45L34 44L33 44L33 43L32 43L32 42L33 42L33 41ZM46 41L46 42L47 42L47 41ZM35 42L35 43L36 43L36 42ZM50 42L50 43L52 43L52 44L50 44L50 45L51 45L51 46L48 46L48 47L51 47L51 48L50 48L50 49L51 49L51 50L48 50L48 51L50 51L50 52L48 52L48 54L50 54L50 55L51 55L51 56L50 56L50 57L49 57L49 56L47 56L47 54L46 54L46 55L45 55L45 53L44 53L44 56L45 56L45 58L46 58L46 59L44 59L44 57L42 57L42 58L43 58L43 59L42 59L42 60L43 60L43 61L44 61L44 62L46 62L46 61L47 61L47 60L46 60L46 59L47 59L47 58L48 58L48 59L50 59L50 61L51 61L51 62L52 62L52 60L53 60L53 59L54 59L54 60L55 60L55 59L54 59L54 58L55 58L55 57L52 57L52 58L53 58L53 59L51 59L51 58L50 58L50 57L51 57L51 56L53 56L53 55L52 55L52 54L55 54L55 53L52 53L52 54L50 54L50 53L51 53L51 52L53 52L53 51L54 51L54 52L56 52L56 51L54 51L54 50L55 50L55 48L56 48L56 49L57 49L57 51L58 51L58 50L59 50L59 49L58 49L58 48L60 48L60 47L58 47L58 48L57 48L57 46L55 46L55 45L54 45L54 44L53 44L53 43L52 43L52 42ZM9 43L9 44L8 44L8 45L5 45L5 46L4 46L4 47L5 47L5 46L7 46L7 47L8 47L8 45L10 45L10 43ZM28 43L28 44L29 44L29 43ZM55 43L55 44L56 44L56 45L57 45L57 44L59 44L59 43ZM62 43L62 44L63 44L63 43ZM32 44L32 45L33 45L33 46L34 46L34 45L33 45L33 44ZM52 44L52 45L53 45L53 46L52 46L52 47L53 47L53 48L52 48L52 50L51 50L51 51L52 51L52 50L54 50L54 49L53 49L53 48L54 48L54 47L55 47L55 46L54 46L54 45L53 45L53 44ZM34 47L34 48L35 48L35 47ZM42 47L42 48L43 48L43 47ZM2 49L2 50L3 50L3 49ZM32 49L32 50L33 50L33 51L32 51L32 52L31 52L31 53L32 53L32 52L33 52L33 51L35 51L35 50L33 50L33 49ZM41 49L41 50L43 50L43 51L44 51L44 52L45 52L45 51L47 51L47 50L46 50L46 49L45 49L45 50L44 50L44 49ZM24 51L24 52L25 52L25 51ZM0 52L0 54L1 54L1 52ZM2 52L2 55L3 55L3 56L1 56L1 55L0 55L0 56L1 56L1 57L3 57L3 56L4 56L4 57L5 57L5 56L4 56L4 53L3 53L3 52ZM28 52L28 53L29 53L29 52ZM34 52L34 53L35 53L35 52ZM57 52L57 53L56 53L56 55L54 55L54 56L56 56L56 55L57 55L57 54L59 54L59 53L58 53L58 52ZM6 53L6 54L9 54L9 55L8 55L8 56L9 56L9 55L10 55L10 57L11 57L11 56L12 56L12 54L11 54L11 53ZM63 53L63 54L64 54L64 53ZM10 54L10 55L11 55L11 54ZM28 55L28 56L29 56L29 55ZM42 55L42 56L43 56L43 55ZM26 56L26 57L27 57L27 56ZM28 57L28 59L27 59L27 60L26 60L26 61L27 61L27 62L28 62L28 63L29 63L29 64L31 64L31 63L33 63L33 64L35 64L35 63L33 63L33 62L32 62L32 61L30 61L30 57ZM31 57L31 60L34 60L34 57ZM46 57L46 58L47 58L47 57ZM48 57L48 58L49 58L49 57ZM57 57L57 60L60 60L60 57ZM32 58L32 59L33 59L33 58ZM58 58L58 59L59 59L59 58ZM28 59L28 61L29 61L29 59ZM43 59L43 60L44 60L44 61L45 61L45 60L44 60L44 59ZM11 60L11 61L12 61L12 60ZM61 60L61 61L60 61L60 62L61 62L61 61L62 61L62 60ZM23 61L23 62L22 62L22 63L23 63L23 62L24 62L24 61ZM34 61L34 62L35 62L35 61ZM36 61L36 62L37 62L37 61ZM53 61L53 63L54 63L54 62L55 62L55 61ZM18 62L18 63L20 63L20 62ZM25 62L25 63L26 63L26 62ZM30 62L30 63L31 63L31 62ZM57 62L57 63L58 63L58 62ZM48 64L48 65L49 65L49 64ZM0 0L0 7L7 7L7 0ZM1 1L1 6L6 6L6 1ZM2 2L2 5L5 5L5 2ZM58 0L58 7L65 7L65 0ZM59 1L59 6L64 6L64 1ZM60 2L60 5L63 5L63 2ZM0 58L0 65L7 65L7 58ZM1 59L1 64L6 64L6 59ZM2 60L2 63L5 63L5 60Z" fill="#000000"/></g></g></svg>
