<?xml version="1.0" encoding="UTF-8"?>
<svg xmlns="http://www.w3.org/2000/svg" version="1.1" width="300" height="300" viewBox="0 0 300 300"><rect x="0" y="0" width="300" height="300" fill="#ffffff"/><g transform="scale(4.615)"><g transform="translate(0,0)"><path fill-rule="evenodd" d="M9 0L9 1L8 1L8 2L9 2L9 1L11 1L11 3L8 3L8 4L11 4L11 5L12 5L12 8L13 8L13 5L14 5L14 4L15 4L15 5L16 5L16 7L17 7L17 4L18 4L18 7L19 7L19 6L20 6L20 9L22 9L22 11L23 11L23 13L22 13L22 12L21 12L21 16L19 16L19 15L20 15L20 14L19 14L19 15L18 15L18 14L16 14L16 15L15 15L15 16L14 16L14 15L13 15L13 13L14 13L14 14L15 14L15 13L16 13L16 12L17 12L17 13L20 13L20 11L21 11L21 10L20 10L20 11L19 11L19 10L18 10L18 9L19 9L19 8L17 8L17 9L13 9L13 11L11 11L11 10L12 10L12 9L11 9L11 8L10 8L10 9L9 9L9 8L6 8L6 9L7 9L7 10L5 10L5 13L4 13L4 10L3 10L3 9L5 9L5 8L0 8L0 9L1 9L1 10L0 10L0 13L4 13L4 14L3 14L3 15L2 15L2 14L1 14L1 15L0 15L0 19L1 19L1 16L3 16L3 17L2 17L2 18L3 18L3 19L4 19L4 20L5 20L5 21L9 21L9 22L8 22L8 23L7 23L7 22L6 22L6 23L7 23L7 24L5 24L5 25L2 25L2 24L1 24L1 23L3 23L3 22L4 22L4 21L3 21L3 22L2 22L2 21L1 21L1 20L0 20L0 24L1 24L1 25L0 25L0 27L2 27L2 28L3 28L3 26L5 26L5 27L4 27L4 30L2 30L2 32L3 32L3 33L1 33L1 34L0 34L0 36L1 36L1 37L0 37L0 40L1 40L1 41L2 41L2 42L3 42L3 43L4 43L4 41L5 41L5 43L7 43L7 44L6 44L6 45L5 45L5 44L4 44L4 46L2 46L2 47L3 47L3 49L2 49L2 48L1 48L1 46L0 46L0 49L1 49L1 50L0 50L0 54L1 54L1 53L2 53L2 55L3 55L3 56L1 56L1 55L0 55L0 56L1 56L1 57L3 57L3 56L4 56L4 57L5 57L5 56L4 56L4 54L3 54L3 52L5 52L5 53L7 53L7 52L9 52L9 50L11 50L11 47L12 47L12 46L11 46L11 45L8 45L8 43L9 43L9 44L10 44L10 41L12 41L12 42L11 42L11 44L12 44L12 45L13 45L13 46L14 46L14 47L13 47L13 48L12 48L12 50L13 50L13 53L11 53L11 52L10 52L10 54L5 54L5 55L9 55L9 56L6 56L6 57L8 57L8 59L9 59L9 60L8 60L8 65L9 65L9 63L10 63L10 65L11 65L11 64L13 64L13 65L15 65L15 64L14 64L14 63L16 63L16 65L19 65L19 64L20 64L20 65L22 65L22 63L23 63L23 65L24 65L24 63L23 63L23 62L24 62L24 61L26 61L26 62L25 62L25 63L28 63L28 64L27 64L27 65L29 65L29 63L28 63L28 61L29 61L29 62L30 62L30 61L32 61L32 62L33 62L33 64L32 64L32 63L31 63L31 64L30 64L30 65L35 65L35 64L36 64L36 65L38 65L38 64L36 64L36 63L37 63L37 62L38 62L38 63L39 63L39 64L41 64L41 65L42 65L42 64L43 64L43 65L44 65L44 64L45 64L45 65L47 65L47 64L46 64L46 63L47 63L47 62L46 62L46 61L49 61L49 60L48 60L48 59L50 59L50 60L51 60L51 62L50 62L50 63L49 63L49 62L48 62L48 63L49 63L49 64L48 64L48 65L49 65L49 64L50 64L50 63L51 63L51 62L52 62L52 60L53 60L53 62L55 62L55 64L57 64L57 65L61 65L61 63L62 63L62 61L63 61L63 64L62 64L62 65L63 65L63 64L64 64L64 61L63 61L63 60L62 60L62 61L61 61L61 57L62 57L62 59L63 59L63 57L64 57L64 58L65 58L65 57L64 57L64 56L65 56L65 55L63 55L63 53L64 53L64 54L65 54L65 51L64 51L64 50L65 50L65 49L64 49L64 48L62 48L62 47L63 47L63 46L62 46L62 45L64 45L64 44L65 44L65 43L63 43L63 42L65 42L65 41L63 41L63 40L61 40L61 41L59 41L59 42L61 42L61 41L63 41L63 42L62 42L62 43L63 43L63 44L61 44L61 43L60 43L60 44L59 44L59 43L58 43L58 44L57 44L57 42L56 42L56 43L54 43L54 44L56 44L56 46L62 46L62 47L60 47L60 48L62 48L62 49L63 49L63 50L61 50L61 49L58 49L58 48L59 48L59 47L58 47L58 48L56 48L56 47L54 47L54 46L55 46L55 45L52 45L52 44L53 44L53 43L52 43L52 42L55 42L55 41L54 41L54 40L56 40L56 41L57 41L57 40L56 40L56 39L54 39L54 38L56 38L56 37L54 37L54 35L52 35L52 34L50 34L50 33L52 33L52 32L54 32L54 34L55 34L55 36L56 36L56 35L57 35L57 36L58 36L58 38L59 38L59 36L60 36L60 35L61 35L61 37L60 37L60 39L58 39L58 40L60 40L60 39L61 39L61 37L63 37L63 38L62 38L62 39L63 39L63 38L65 38L65 37L64 37L64 36L65 36L65 35L63 35L63 34L65 34L65 33L63 33L63 32L62 32L62 30L63 30L63 29L65 29L65 28L62 28L62 30L61 30L61 28L59 28L59 27L60 27L60 26L62 26L62 25L63 25L63 26L65 26L65 23L64 23L64 25L63 25L63 24L62 24L62 25L61 25L61 24L60 24L60 25L59 25L59 22L63 22L63 20L64 20L64 19L63 19L63 17L64 17L64 18L65 18L65 15L64 15L64 16L62 16L62 15L63 15L63 14L62 14L62 15L61 15L61 16L60 16L60 15L59 15L59 14L61 14L61 12L62 12L62 13L64 13L64 14L65 14L65 13L64 13L64 12L62 12L62 11L63 11L63 10L65 10L65 9L64 9L64 8L63 8L63 10L62 10L62 11L61 11L61 12L59 12L59 14L57 14L57 15L56 15L56 14L55 14L55 12L54 12L54 10L55 10L55 11L56 11L56 13L57 13L57 12L58 12L58 11L60 11L60 10L61 10L61 9L62 9L62 8L61 8L61 9L60 9L60 8L59 8L59 9L60 9L60 10L58 10L58 11L56 11L56 9L58 9L58 8L56 8L56 9L53 9L53 10L52 10L52 9L51 9L51 6L52 6L52 8L53 8L53 6L54 6L54 8L55 8L55 5L54 5L54 4L56 4L56 5L57 5L57 4L56 4L56 3L57 3L57 1L56 1L56 0L55 0L55 1L56 1L56 3L55 3L55 2L54 2L54 3L53 3L53 2L52 2L52 1L54 1L54 0L51 0L51 1L50 1L50 0L49 0L49 1L48 1L48 0L47 0L47 1L44 1L44 0L42 0L42 1L43 1L43 4L42 4L42 5L41 5L41 4L40 4L40 3L41 3L41 2L40 2L40 1L38 1L38 0L37 0L37 1L36 1L36 0L35 0L35 1L33 1L33 0L32 0L32 1L33 1L33 2L31 2L31 4L30 4L30 7L29 7L29 6L28 6L28 4L29 4L29 3L28 3L28 2L30 2L30 1L31 1L31 0L29 0L29 1L27 1L27 0L22 0L22 2L21 2L21 3L20 3L20 4L18 4L18 3L17 3L17 2L18 2L18 1L17 1L17 0L15 0L15 1L16 1L16 2L15 2L15 3L14 3L14 0L13 0L13 1L12 1L12 0ZM37 1L37 2L36 2L36 3L35 3L35 2L33 2L33 3L32 3L32 4L33 4L33 3L34 3L34 4L35 4L35 8L37 8L37 9L36 9L36 10L35 10L35 9L33 9L33 10L32 10L32 9L31 9L31 10L30 10L30 9L28 9L28 8L29 8L29 7L28 7L28 6L27 6L27 8L26 8L26 5L27 5L27 4L25 4L25 3L26 3L26 2L25 2L25 3L24 3L24 4L25 4L25 5L23 5L23 4L22 4L22 3L21 3L21 4L20 4L20 6L21 6L21 7L22 7L22 6L23 6L23 8L22 8L22 9L23 9L23 11L24 11L24 9L28 9L28 10L29 10L29 11L28 11L28 14L27 14L27 15L26 15L26 14L25 14L25 15L26 15L26 16L24 16L24 15L23 15L23 14L24 14L24 13L23 13L23 14L22 14L22 15L23 15L23 16L21 16L21 17L18 17L18 15L16 15L16 16L15 16L15 17L17 17L17 18L16 18L16 19L15 19L15 20L12 20L12 19L13 19L13 18L12 18L12 16L13 16L13 15L12 15L12 16L11 16L11 14L12 14L12 13L13 13L13 12L14 12L14 11L13 11L13 12L11 12L11 11L10 11L10 10L9 10L9 9L8 9L8 10L9 10L9 11L6 11L6 12L8 12L8 13L6 13L6 14L7 14L7 15L6 15L6 16L5 16L5 14L4 14L4 15L3 15L3 16L5 16L5 19L6 19L6 20L7 20L7 19L9 19L9 20L10 20L10 22L11 22L11 23L12 23L12 22L13 22L13 24L11 24L11 25L12 25L12 26L13 26L13 27L11 27L11 26L9 26L9 27L8 27L8 29L6 29L6 28L7 28L7 27L6 27L6 28L5 28L5 29L6 29L6 30L11 30L11 31L14 31L14 30L12 30L12 29L13 29L13 27L14 27L14 28L15 28L15 25L16 25L16 26L18 26L18 27L16 27L16 29L15 29L15 30L16 30L16 29L17 29L17 32L19 32L19 31L20 31L20 30L19 30L19 29L21 29L21 30L22 30L22 29L24 29L24 30L23 30L23 31L21 31L21 33L18 33L18 35L17 35L17 33L16 33L16 35L15 35L15 34L14 34L14 35L13 35L13 36L12 36L12 34L13 34L13 33L14 33L14 32L13 32L13 33L12 33L12 32L11 32L11 34L9 34L9 38L8 38L8 36L7 36L7 35L4 35L4 34L1 34L1 36L2 36L2 38L1 38L1 40L2 40L2 41L3 41L3 40L2 40L2 39L4 39L4 40L5 40L5 41L6 41L6 42L9 42L9 41L10 41L10 40L13 40L13 41L15 41L15 42L12 42L12 44L13 44L13 45L14 45L14 44L15 44L15 45L16 45L16 46L15 46L15 47L14 47L14 48L15 48L15 47L16 47L16 48L17 48L17 45L18 45L18 46L20 46L20 47L18 47L18 48L21 48L21 49L15 49L15 50L14 50L14 51L15 51L15 50L17 50L17 51L16 51L16 52L17 52L17 53L16 53L16 54L13 54L13 56L12 56L12 54L11 54L11 55L10 55L10 56L9 56L9 58L10 58L10 59L11 59L11 60L14 60L14 61L12 61L12 62L16 62L16 61L18 61L18 64L19 64L19 63L20 63L20 62L19 62L19 61L21 61L21 63L22 63L22 61L24 61L24 60L21 60L21 59L20 59L20 58L22 58L22 59L23 59L23 58L22 58L22 57L25 57L25 56L26 56L26 57L27 57L27 59L26 59L26 58L24 58L24 59L25 59L25 60L26 60L26 61L27 61L27 59L29 59L29 60L30 60L30 58L29 58L29 57L30 57L30 55L31 55L31 56L33 56L33 53L34 53L34 55L36 55L36 56L37 56L37 54L35 54L35 53L34 53L34 52L33 52L33 51L35 51L35 52L38 52L38 54L39 54L39 53L43 53L43 54L42 54L42 55L41 55L41 54L40 54L40 55L41 55L41 56L38 56L38 57L37 57L37 58L36 58L36 57L35 57L35 58L36 58L36 59L35 59L35 60L37 60L37 61L38 61L38 62L39 62L39 63L41 63L41 64L42 64L42 63L43 63L43 64L44 64L44 62L45 62L45 60L44 60L44 59L45 59L45 58L44 58L44 57L45 57L45 56L46 56L46 58L47 58L47 59L48 59L48 58L49 58L49 57L47 57L47 56L49 56L49 55L50 55L50 58L51 58L51 55L53 55L53 56L52 56L52 59L53 59L53 60L54 60L54 61L55 61L55 62L56 62L56 63L57 63L57 64L59 64L59 61L57 61L57 62L56 62L56 61L55 61L55 60L56 60L56 59L55 59L55 58L56 58L56 56L57 56L57 55L60 55L60 53L61 53L61 56L63 56L63 55L62 55L62 52L63 52L63 51L62 51L62 52L60 52L60 51L61 51L61 50L58 50L58 51L57 51L57 50L56 50L56 48L54 48L54 47L53 47L53 46L52 46L52 47L49 47L49 46L51 46L51 45L50 45L50 42L51 42L51 41L53 41L53 40L52 40L52 39L53 39L53 38L52 38L52 39L48 39L48 38L49 38L49 37L47 37L47 35L48 35L48 36L51 36L51 37L50 37L50 38L51 38L51 37L53 37L53 36L51 36L51 35L49 35L49 33L48 33L48 32L49 32L49 30L51 30L51 29L50 29L50 28L51 28L51 27L52 27L52 26L53 26L53 24L54 24L54 25L56 25L56 26L54 26L54 27L53 27L53 28L52 28L52 29L53 29L53 31L54 31L54 32L55 32L55 34L56 34L56 32L55 32L55 31L56 31L56 30L57 30L57 29L56 29L56 30L54 30L54 29L55 29L55 28L58 28L58 30L59 30L59 28L58 28L58 27L56 27L56 26L57 26L57 25L58 25L58 26L59 26L59 25L58 25L58 24L57 24L57 25L56 25L56 24L54 24L54 23L58 23L58 22L59 22L59 21L56 21L56 18L59 18L59 20L61 20L61 21L62 21L62 20L63 20L63 19L60 19L60 18L62 18L62 16L61 16L61 17L58 17L58 16L59 16L59 15L57 15L57 17L56 17L56 16L55 16L55 18L53 18L53 16L54 16L54 15L55 15L55 14L54 14L54 15L53 15L53 14L52 14L52 15L53 15L53 16L52 16L52 18L51 18L51 17L50 17L50 18L49 18L49 17L46 17L46 15L45 15L45 14L47 14L47 16L49 16L49 15L50 15L50 16L51 16L51 15L50 15L50 14L51 14L51 13L54 13L54 12L49 12L49 11L50 11L50 10L51 10L51 11L52 11L52 10L51 10L51 9L49 9L49 10L48 10L48 8L50 8L50 6L49 6L49 4L50 4L50 5L52 5L52 6L53 6L53 3L51 3L51 2L50 2L50 3L49 3L49 2L48 2L48 1L47 1L47 2L46 2L46 3L47 3L47 2L48 2L48 3L49 3L49 4L48 4L48 6L47 6L47 7L46 7L46 5L47 5L47 4L45 4L45 3L44 3L44 4L43 4L43 5L42 5L42 6L41 6L41 7L42 7L42 6L43 6L43 8L44 8L44 9L43 9L43 10L42 10L42 8L37 8L37 7L38 7L38 6L37 6L37 7L36 7L36 5L40 5L40 4L38 4L38 3L39 3L39 2L38 2L38 1ZM13 3L13 4L14 4L14 3ZM36 3L36 4L37 4L37 3ZM21 4L21 6L22 6L22 4ZM44 4L44 5L45 5L45 4ZM8 5L8 7L9 7L9 5ZM31 5L31 8L34 8L34 5ZM10 6L10 7L11 7L11 6ZM14 6L14 7L15 7L15 6ZM24 6L24 8L25 8L25 6ZM32 6L32 7L33 7L33 6ZM39 6L39 7L40 7L40 6ZM44 6L44 8L45 8L45 9L44 9L44 10L46 10L46 11L42 11L42 12L45 12L45 13L44 13L44 14L45 14L45 13L47 13L47 14L48 14L48 13L49 13L49 12L48 12L48 13L47 13L47 12L46 12L46 11L48 11L48 10L46 10L46 9L47 9L47 8L46 8L46 7L45 7L45 6ZM48 6L48 7L49 7L49 6ZM56 6L56 7L57 7L57 6ZM37 9L37 10L36 10L36 11L35 11L35 10L34 10L34 11L35 11L35 14L34 14L34 15L33 15L33 13L32 13L32 12L33 12L33 11L29 11L29 12L31 12L31 13L30 13L30 14L29 14L29 15L28 15L28 17L29 17L29 16L33 16L33 17L32 17L32 18L34 18L34 21L35 21L35 18L34 18L34 17L37 17L37 16L42 16L42 17L41 17L41 18L38 18L38 21L39 21L39 22L38 22L38 23L37 23L37 24L36 24L36 22L37 22L37 20L36 20L36 22L34 22L34 23L33 23L33 21L29 21L29 20L31 20L31 19L30 19L30 18L31 18L31 17L30 17L30 18L29 18L29 20L27 20L27 21L29 21L29 22L27 22L27 23L25 23L25 22L26 22L26 21L24 21L24 23L25 23L25 24L27 24L27 25L26 25L26 28L27 28L27 27L28 27L28 28L29 28L29 27L28 27L28 25L29 25L29 26L30 26L30 28L31 28L31 29L30 29L30 31L28 31L28 33L29 33L29 34L27 34L27 33L26 33L26 32L27 32L27 31L26 31L26 32L25 32L25 33L24 33L24 31L23 31L23 33L21 33L21 34L20 34L20 36L19 36L19 37L18 37L18 36L14 36L14 37L12 37L12 36L11 36L11 35L10 35L10 36L11 36L11 37L10 37L10 38L11 38L11 39L13 39L13 40L14 40L14 39L16 39L16 40L15 40L15 41L17 41L17 42L16 42L16 43L15 43L15 44L16 44L16 43L17 43L17 42L18 42L18 43L19 43L19 44L18 44L18 45L20 45L20 44L21 44L21 47L22 47L22 46L23 46L23 47L24 47L24 48L26 48L26 47L27 47L27 49L26 49L26 50L27 50L27 53L30 53L30 54L28 54L28 55L30 55L30 54L31 54L31 55L32 55L32 53L33 53L33 52L32 52L32 53L31 53L31 51L30 51L30 50L27 50L27 49L29 49L29 48L30 48L30 49L31 49L31 50L32 50L32 51L33 51L33 50L32 50L32 49L35 49L35 47L34 47L34 48L30 48L30 47L31 47L31 45L33 45L33 46L32 46L32 47L33 47L33 46L36 46L36 47L38 47L38 49L39 49L39 46L38 46L38 43L40 43L40 44L42 44L42 43L41 43L41 42L38 42L38 41L39 41L39 40L41 40L41 38L40 38L40 39L39 39L39 38L38 38L38 37L40 37L40 36L42 36L42 38L43 38L43 39L44 39L44 40L43 40L43 41L42 41L42 42L43 42L43 43L44 43L44 44L43 44L43 45L40 45L40 48L41 48L41 47L42 47L42 48L43 48L43 49L41 49L41 51L40 51L40 52L41 52L41 51L42 51L42 52L43 52L43 53L44 53L44 54L45 54L45 55L42 55L42 56L43 56L43 57L41 57L41 58L40 58L40 59L39 59L39 58L38 58L38 59L39 59L39 60L38 60L38 61L39 61L39 60L42 60L42 62L44 62L44 60L43 60L43 59L41 59L41 58L43 58L43 57L44 57L44 56L45 56L45 55L46 55L46 56L47 56L47 55L48 55L48 54L49 54L49 52L50 52L50 51L52 51L52 52L53 52L53 51L54 51L54 52L56 52L56 51L54 51L54 50L55 50L55 49L54 49L54 50L53 50L53 51L52 51L52 50L50 50L50 49L52 49L52 48L53 48L53 47L52 47L52 48L50 48L50 49L49 49L49 48L48 48L48 46L49 46L49 44L48 44L48 45L47 45L47 44L46 44L46 43L47 43L47 42L50 42L50 41L51 41L51 40L47 40L47 42L46 42L46 41L44 41L44 40L45 40L45 39L44 39L44 38L45 38L45 37L44 37L44 36L45 36L45 34L43 34L43 33L42 33L42 32L41 32L41 31L40 31L40 30L43 30L43 31L44 31L44 32L45 32L45 33L47 33L47 31L48 31L48 30L49 30L49 28L48 28L48 27L51 27L51 26L50 26L50 25L52 25L52 24L53 24L53 22L55 22L55 21L54 21L54 20L55 20L55 19L53 19L53 18L52 18L52 19L51 19L51 18L50 18L50 19L49 19L49 18L48 18L48 19L49 19L49 20L46 20L46 19L47 19L47 18L45 18L45 17L44 17L44 16L45 16L45 15L43 15L43 16L42 16L42 15L39 15L39 14L40 14L40 12L41 12L41 11L39 11L39 10L40 10L40 9L39 9L39 10L38 10L38 9ZM1 10L1 12L3 12L3 10ZM17 10L17 11L18 11L18 10ZM25 10L25 13L27 13L27 12L26 12L26 11L27 11L27 10ZM37 10L37 11L36 11L36 12L37 12L37 13L38 13L38 14L39 14L39 13L38 13L38 12L39 12L39 11L38 11L38 10ZM9 11L9 12L10 12L10 11ZM9 13L9 14L8 14L8 16L10 16L10 17L9 17L9 18L11 18L11 16L10 16L10 15L9 15L9 14L11 14L11 13ZM41 13L41 14L43 14L43 13ZM30 14L30 15L31 15L31 14ZM35 14L35 15L36 15L36 16L37 16L37 14ZM6 16L6 17L7 17L7 16ZM3 17L3 18L4 18L4 17ZM21 17L21 19L22 19L22 18L23 18L23 19L24 19L24 20L26 20L26 19L24 19L24 18L25 18L25 17ZM26 17L26 18L27 18L27 17ZM43 17L43 18L42 18L42 19L41 19L41 20L40 20L40 19L39 19L39 21L40 21L40 22L39 22L39 23L38 23L38 25L35 25L35 24L32 24L32 22L29 22L29 23L28 23L28 24L29 24L29 25L31 25L31 28L32 28L32 29L33 29L33 30L36 30L36 31L35 31L35 34L36 34L36 35L35 35L35 36L37 36L37 37L38 37L38 36L39 36L39 35L37 35L37 34L39 34L39 33L41 33L41 34L40 34L40 35L42 35L42 36L44 36L44 35L43 35L43 34L42 34L42 33L41 33L41 32L39 32L39 31L38 31L38 30L39 30L39 29L41 29L41 28L42 28L42 27L43 27L43 30L45 30L45 28L46 28L46 30L48 30L48 29L47 29L47 27L48 27L48 26L47 26L47 25L46 25L46 26L45 26L45 28L44 28L44 27L43 27L43 26L42 26L42 25L43 25L43 24L42 24L42 23L44 23L44 22L47 22L47 21L46 21L46 20L44 20L44 19L45 19L45 18L44 18L44 17ZM6 18L6 19L7 19L7 18ZM18 18L18 19L17 19L17 20L18 20L18 21L17 21L17 24L16 24L16 23L14 23L14 24L13 24L13 25L15 25L15 24L16 24L16 25L17 25L17 24L18 24L18 25L19 25L19 27L18 27L18 29L19 29L19 28L22 28L22 27L23 27L23 26L25 26L25 25L22 25L22 24L23 24L23 22L20 22L20 21L22 21L22 20L20 20L20 21L19 21L19 19L20 19L20 18ZM36 18L36 19L37 19L37 18ZM10 19L10 20L11 20L11 19ZM32 19L32 20L33 20L33 19ZM42 19L42 20L43 20L43 21L42 21L42 22L44 22L44 20L43 20L43 19ZM50 19L50 22L53 22L53 20L51 20L51 19ZM57 19L57 20L58 20L58 19ZM13 21L13 22L14 22L14 21ZM15 21L15 22L16 22L16 21ZM48 21L48 22L49 22L49 21ZM64 21L64 22L65 22L65 21ZM18 22L18 23L19 23L19 25L20 25L20 26L21 26L21 27L22 27L22 26L21 26L21 25L20 25L20 24L21 24L21 23L20 23L20 22ZM40 22L40 23L39 23L39 24L41 24L41 22ZM8 23L8 24L7 24L7 25L6 25L6 26L7 26L7 25L9 25L9 24L10 24L10 23ZM30 23L30 24L31 24L31 23ZM47 23L47 24L49 24L49 25L50 25L50 24L51 24L51 23ZM44 24L44 25L45 25L45 24ZM1 25L1 26L2 26L2 25ZM32 25L32 28L33 28L33 29L36 29L36 30L38 30L38 29L39 29L39 28L41 28L41 27L42 27L42 26L41 26L41 27L39 27L39 26L40 26L40 25L39 25L39 26L38 26L38 27L39 27L39 28L34 28L34 27L35 27L35 26L34 26L34 25ZM36 26L36 27L37 27L37 26ZM46 26L46 27L47 27L47 26ZM9 27L9 28L10 28L10 29L11 29L11 27ZM24 27L24 29L25 29L25 27ZM0 28L0 29L1 29L1 28ZM53 28L53 29L54 29L54 28ZM26 29L26 30L27 30L27 29ZM18 30L18 31L19 31L19 30ZM0 31L0 32L1 32L1 31ZM3 31L3 32L4 32L4 31ZM5 31L5 34L8 34L8 31ZM15 31L15 32L16 32L16 31ZM31 31L31 34L34 34L34 31ZM45 31L45 32L46 32L46 31ZM57 31L57 34L60 34L60 31ZM64 31L64 32L65 32L65 31ZM6 32L6 33L7 33L7 32ZM29 32L29 33L30 33L30 32ZM32 32L32 33L33 33L33 32ZM36 32L36 34L37 34L37 32ZM38 32L38 33L39 33L39 32ZM58 32L58 33L59 33L59 32ZM61 33L61 35L62 35L62 36L63 36L63 35L62 35L62 34L63 34L63 33ZM21 34L21 35L22 35L22 34ZM23 34L23 37L22 37L22 36L21 36L21 37L20 37L20 40L19 40L19 41L18 41L18 42L19 42L19 41L20 41L20 42L22 42L22 41L23 41L23 40L21 40L21 37L22 37L22 39L23 39L23 37L25 37L25 38L24 38L24 39L25 39L25 40L24 40L24 41L25 41L25 42L24 42L24 44L26 44L26 45L25 45L25 46L26 46L26 45L27 45L27 46L30 46L30 45L28 45L28 44L30 44L30 43L29 43L29 42L30 42L30 41L31 41L31 39L33 39L33 38L34 38L34 39L35 39L35 40L34 40L34 41L36 41L36 42L33 42L33 41L32 41L32 42L31 42L31 43L35 43L35 44L34 44L34 45L35 45L35 44L37 44L37 41L38 41L38 40L39 40L39 39L36 39L36 38L35 38L35 37L32 37L32 36L33 36L33 35L32 35L32 36L30 36L30 35L27 35L27 37L25 37L25 36L26 36L26 35L25 35L25 34ZM46 34L46 35L47 35L47 34ZM2 35L2 36L3 36L3 38L4 38L4 37L7 37L7 36L3 36L3 35ZM24 35L24 36L25 36L25 35ZM28 36L28 37L29 37L29 36ZM11 37L11 38L12 38L12 37ZM16 37L16 39L17 39L17 40L18 40L18 39L19 39L19 38L18 38L18 37ZM43 37L43 38L44 38L44 37ZM5 38L5 39L7 39L7 40L6 40L6 41L7 41L7 40L8 40L8 41L9 41L9 39L8 39L8 38ZM13 38L13 39L14 39L14 38ZM17 38L17 39L18 39L18 38ZM25 38L25 39L27 39L27 38ZM28 38L28 40L27 40L27 41L26 41L26 42L27 42L27 41L29 41L29 40L30 40L30 38ZM46 38L46 39L47 39L47 38ZM64 39L64 40L65 40L65 39ZM20 40L20 41L21 41L21 40ZM36 40L36 41L37 41L37 40ZM0 42L0 43L1 43L1 42ZM44 42L44 43L45 43L45 42ZM21 43L21 44L22 44L22 45L23 45L23 46L24 46L24 45L23 45L23 44L22 44L22 43ZM26 43L26 44L28 44L28 43ZM51 43L51 44L52 44L52 43ZM1 44L1 45L2 45L2 44ZM44 44L44 46L42 46L42 47L43 47L43 48L44 48L44 49L45 49L45 51L46 51L46 52L47 52L47 53L45 53L45 52L44 52L44 53L45 53L45 54L48 54L48 52L49 52L49 51L50 51L50 50L49 50L49 49L48 49L48 48L47 48L47 47L46 47L46 46L47 46L47 45L46 45L46 46L45 46L45 44ZM58 44L58 45L59 45L59 44ZM60 44L60 45L61 45L61 44ZM6 45L6 46L5 46L5 47L4 47L4 48L5 48L5 50L4 50L4 51L6 51L6 52L7 52L7 51L8 51L8 50L7 50L7 49L6 49L6 48L7 48L7 47L8 47L8 49L10 49L10 47L11 47L11 46L8 46L8 45ZM6 46L6 47L7 47L7 46ZM28 47L28 48L29 48L29 47ZM44 47L44 48L45 48L45 49L46 49L46 48L45 48L45 47ZM36 48L36 49L37 49L37 48ZM21 49L21 50L20 50L20 51L22 51L22 50L23 50L23 51L24 51L24 50L25 50L25 49L24 49L24 50L23 50L23 49ZM6 50L6 51L7 51L7 50ZM18 50L18 51L17 51L17 52L18 52L18 53L17 53L17 54L16 54L16 55L17 55L17 56L16 56L16 57L17 57L17 56L18 56L18 57L19 57L19 58L20 58L20 57L21 57L21 56L22 56L22 54L20 54L20 53L22 53L22 52L20 52L20 53L19 53L19 50ZM36 50L36 51L39 51L39 50ZM42 50L42 51L43 51L43 50ZM46 50L46 51L47 51L47 50ZM48 50L48 51L49 51L49 50ZM1 51L1 52L3 52L3 51ZM25 51L25 52L26 52L26 51ZM28 51L28 52L30 52L30 51ZM58 51L58 52L57 52L57 53L56 53L56 55L54 55L54 56L53 56L53 59L54 59L54 60L55 60L55 59L54 59L54 58L55 58L55 56L56 56L56 55L57 55L57 54L59 54L59 53L58 53L58 52L59 52L59 51ZM23 53L23 55L25 55L25 54L26 54L26 53ZM53 53L53 54L55 54L55 53ZM17 54L17 55L18 55L18 56L19 56L19 57L20 57L20 56L21 56L21 55L19 55L19 54ZM50 54L50 55L51 55L51 54ZM14 55L14 56L13 56L13 57L11 57L11 56L10 56L10 58L11 58L11 59L12 59L12 58L13 58L13 57L14 57L14 58L15 58L15 59L14 59L14 60L15 60L15 61L16 61L16 59L17 59L17 58L15 58L15 57L14 57L14 56L15 56L15 55ZM26 55L26 56L27 56L27 57L29 57L29 56L27 56L27 55ZM31 57L31 60L34 60L34 57ZM57 57L57 60L60 60L60 57ZM32 58L32 59L33 59L33 58ZM58 58L58 59L59 59L59 58ZM9 60L9 62L10 62L10 63L11 63L11 61L10 61L10 60ZM18 60L18 61L19 61L19 60ZM33 61L33 62L34 62L34 64L35 64L35 61ZM40 61L40 62L41 62L41 61ZM60 61L60 62L61 62L61 61ZM57 62L57 63L58 63L58 62ZM52 63L52 64L51 64L51 65L52 65L52 64L53 64L53 63ZM25 64L25 65L26 65L26 64ZM0 0L0 7L7 7L7 0ZM1 1L1 6L6 6L6 1ZM2 2L2 5L5 5L5 2ZM58 0L58 7L65 7L65 0ZM59 1L59 6L64 6L64 1ZM60 2L60 5L63 5L63 2ZM0 58L0 65L7 65L7 58ZM1 59L1 64L6 64L6 59ZM2 60L2 63L5 63L5 60Z" fill="#000000"/></g></g></svg>
