<?xml version="1.0" encoding="UTF-8"?>
<svg xmlns="http://www.w3.org/2000/svg" version="1.1" width="300" height="300" viewBox="0 0 300 300"><rect x="0" y="0" width="300" height="300" fill="#ffffff"/><g transform="scale(4.615)"><g transform="translate(0,0)"><path fill-rule="evenodd" d="M13 0L13 1L12 1L12 2L11 2L11 1L10 1L10 2L11 2L11 3L12 3L12 2L14 2L14 0ZM17 0L17 1L18 1L18 2L15 2L15 4L13 4L13 5L12 5L12 9L11 9L11 10L12 10L12 12L8 12L8 11L7 11L7 10L6 10L6 11L2 11L2 12L1 12L1 11L0 11L0 12L1 12L1 15L0 15L0 16L1 16L1 17L0 17L0 19L1 19L1 20L3 20L3 21L5 21L5 22L6 22L6 23L7 23L7 22L6 22L6 21L7 21L7 20L8 20L8 21L9 21L9 24L10 24L10 22L11 22L11 20L13 20L13 22L15 22L15 23L16 23L16 24L14 24L14 25L17 25L17 24L18 24L18 25L19 25L19 26L20 26L20 27L19 27L19 28L18 28L18 29L17 29L17 31L18 31L18 33L19 33L19 34L18 34L18 35L17 35L17 34L15 34L15 33L17 33L17 32L16 32L16 31L15 31L15 32L13 32L13 33L11 33L11 31L13 31L13 30L16 30L16 29L15 29L15 28L16 28L16 27L13 27L13 25L11 25L11 26L12 26L12 27L10 27L10 26L9 26L9 25L8 25L8 24L5 24L5 23L4 23L4 22L2 22L2 21L0 21L0 22L2 22L2 23L1 23L1 25L0 25L0 26L1 26L1 27L2 27L2 25L3 25L3 24L2 24L2 23L4 23L4 24L5 24L5 26L4 26L4 30L3 30L3 28L0 28L0 30L1 30L1 29L2 29L2 31L0 31L0 32L1 32L1 33L0 33L0 34L2 34L2 35L4 35L4 36L6 36L6 37L7 37L7 38L6 38L6 39L7 39L7 40L6 40L6 41L7 41L7 42L6 42L6 43L5 43L5 44L4 44L4 43L2 43L2 42L1 42L1 41L0 41L0 42L1 42L1 43L2 43L2 48L3 48L3 46L4 46L4 45L7 45L7 44L8 44L8 46L10 46L10 47L7 47L7 46L5 46L5 47L4 47L4 48L5 48L5 47L7 47L7 48L6 48L6 49L7 49L7 50L6 50L6 51L7 51L7 50L8 50L8 49L10 49L10 50L11 50L11 49L10 49L10 47L11 47L11 48L12 48L12 49L17 49L17 50L15 50L15 51L13 51L13 50L12 50L12 51L13 51L13 52L16 52L16 53L18 53L18 54L20 54L20 55L22 55L22 53L23 53L23 50L25 50L25 51L24 51L24 52L25 52L25 53L24 53L24 54L23 54L23 55L24 55L24 56L23 56L23 57L22 57L22 58L23 58L23 61L22 61L22 62L21 62L21 64L20 64L20 65L22 65L22 62L23 62L23 63L24 63L24 64L23 64L23 65L24 65L24 64L25 64L25 65L26 65L26 62L28 62L28 61L26 61L26 60L24 60L24 58L25 58L25 59L26 59L26 58L27 58L27 57L29 57L29 59L30 59L30 60L29 60L29 63L30 63L30 64L28 64L28 63L27 63L27 65L35 65L35 64L36 64L36 65L37 65L37 64L36 64L36 63L37 63L37 62L36 62L36 61L38 61L38 60L39 60L39 58L40 58L40 60L41 60L41 61L39 61L39 62L38 62L38 63L40 63L40 64L38 64L38 65L40 65L40 64L41 64L41 65L44 65L44 64L46 64L46 65L49 65L49 64L50 64L50 63L51 63L51 64L53 64L53 65L54 65L54 64L55 64L55 65L63 65L63 64L64 64L64 61L63 61L63 60L62 60L62 58L63 58L63 56L61 56L61 53L60 53L60 55L57 55L57 54L59 54L59 53L58 53L58 52L59 52L59 51L60 51L60 52L62 52L62 55L63 55L63 53L64 53L64 54L65 54L65 53L64 53L64 52L65 52L65 51L63 51L63 50L61 50L61 49L58 49L58 48L59 48L59 47L60 47L60 48L61 48L61 47L63 47L63 45L64 45L64 44L65 44L65 43L63 43L63 42L65 42L65 41L64 41L64 40L65 40L65 39L63 39L63 38L65 38L65 36L62 36L62 35L64 35L64 34L65 34L65 33L64 33L64 31L63 31L63 32L62 32L62 31L61 31L61 30L63 30L63 29L65 29L65 28L62 28L62 29L61 29L61 28L59 28L59 27L61 27L61 24L60 24L60 23L59 23L59 22L63 22L63 24L62 24L62 27L63 27L63 26L65 26L65 25L63 25L63 24L64 24L64 22L65 22L65 21L64 21L64 20L65 20L65 19L63 19L63 17L64 17L64 18L65 18L65 15L64 15L64 16L62 16L62 18L60 18L60 19L63 19L63 20L62 20L62 21L61 21L61 20L59 20L59 18L56 18L56 21L57 21L57 23L52 23L52 22L55 22L55 21L54 21L54 20L55 20L55 19L52 19L52 20L51 20L51 22L50 22L50 19L51 19L51 18L52 18L52 16L53 16L53 17L54 17L54 18L55 18L55 15L54 15L54 16L53 16L53 15L52 15L52 14L56 14L56 15L59 15L59 16L58 16L58 17L61 17L61 16L60 16L60 15L62 15L62 14L63 14L63 13L64 13L64 14L65 14L65 13L64 13L64 12L59 12L59 14L56 14L56 13L57 13L57 12L58 12L58 11L59 11L59 10L57 10L57 12L55 12L55 11L56 11L56 10L55 10L55 9L58 9L58 8L55 8L55 5L54 5L54 4L56 4L56 5L57 5L57 4L56 4L56 3L57 3L57 1L56 1L56 0L55 0L55 1L56 1L56 3L55 3L55 2L54 2L54 3L53 3L53 2L52 2L52 1L54 1L54 0L51 0L51 1L49 1L49 0L47 0L47 1L46 1L46 0L45 0L45 2L44 2L44 3L46 3L46 4L45 4L45 5L44 5L44 4L42 4L42 5L41 5L41 6L40 6L40 5L38 5L38 7L39 7L39 8L38 8L38 9L37 9L37 8L35 8L35 6L36 6L36 7L37 7L37 6L36 6L36 4L37 4L37 3L38 3L38 2L39 2L39 3L41 3L41 2L39 2L39 1L38 1L38 0L36 0L36 1L38 1L38 2L37 2L37 3L36 3L36 2L35 2L35 1L33 1L33 0L29 0L29 1L33 1L33 3L35 3L35 4L31 4L31 3L30 3L30 2L28 2L28 1L27 1L27 0L24 0L24 2L23 2L23 5L21 5L21 6L20 6L20 7L19 7L19 3L20 3L20 4L22 4L22 3L21 3L21 2L22 2L22 1L23 1L23 0L21 0L21 1L20 1L20 0L19 0L19 1L18 1L18 0ZM40 0L40 1L44 1L44 0ZM8 1L8 2L9 2L9 1ZM25 1L25 2L24 2L24 4L26 4L26 5L25 5L25 7L24 7L24 5L23 5L23 7L24 7L24 9L23 9L23 8L22 8L22 9L23 9L23 12L22 12L22 11L21 11L21 9L20 9L20 8L19 8L19 7L18 7L18 5L17 5L17 4L18 4L18 3L17 3L17 4L16 4L16 5L15 5L15 8L13 8L13 9L12 9L12 10L16 10L16 11L14 11L14 12L12 12L12 13L11 13L11 14L10 14L10 13L8 13L8 12L7 12L7 11L6 11L6 12L7 12L7 13L6 13L6 14L7 14L7 15L6 15L6 16L4 16L4 15L5 15L5 13L4 13L4 15L3 15L3 12L2 12L2 15L1 15L1 16L2 16L2 15L3 15L3 16L4 16L4 17L2 17L2 18L1 18L1 19L2 19L2 18L4 18L4 19L5 19L5 17L6 17L6 18L7 18L7 19L6 19L6 20L5 20L5 21L6 21L6 20L7 20L7 19L8 19L8 20L11 20L11 19L10 19L10 18L11 18L11 17L12 17L12 18L14 18L14 21L15 21L15 22L16 22L16 21L17 21L17 22L18 22L18 23L19 23L19 24L21 24L21 25L20 25L20 26L22 26L22 27L24 27L24 25L25 25L25 27L27 27L27 26L26 26L26 25L28 25L28 26L29 26L29 25L28 25L28 24L29 24L29 23L32 23L32 26L33 26L33 27L34 27L34 28L32 28L32 29L31 29L31 28L29 28L29 27L28 27L28 28L26 28L26 29L25 29L25 32L24 32L24 31L23 31L23 32L22 32L22 33L20 33L20 34L19 34L19 37L20 37L20 39L19 39L19 38L18 38L18 39L16 39L16 38L17 38L17 37L18 37L18 36L17 36L17 35L16 35L16 36L17 36L17 37L15 37L15 38L14 38L14 36L13 36L13 35L15 35L15 34L14 34L14 33L13 33L13 34L11 34L11 33L9 33L9 35L6 35L6 36L8 36L8 37L9 37L9 38L7 38L7 39L8 39L8 40L9 40L9 41L10 41L10 40L9 40L9 38L10 38L10 39L11 39L11 40L12 40L12 41L11 41L11 45L13 45L13 46L11 46L11 47L12 47L12 48L13 48L13 47L14 47L14 46L16 46L16 45L17 45L17 49L18 49L18 51L16 51L16 52L18 52L18 53L20 53L20 54L21 54L21 53L22 53L22 52L21 52L21 53L20 53L20 52L19 52L19 51L22 51L22 49L25 49L25 50L26 50L26 49L27 49L27 48L28 48L28 47L27 47L27 46L28 46L28 45L29 45L29 46L30 46L30 49L31 49L31 50L29 50L29 49L28 49L28 50L27 50L27 52L28 52L28 50L29 50L29 51L31 51L31 52L32 52L32 50L33 50L33 49L34 49L34 51L35 51L35 52L34 52L34 53L35 53L35 54L34 54L34 55L32 55L32 54L33 54L33 53L30 53L30 52L29 52L29 53L25 53L25 54L26 54L26 55L27 55L27 54L30 54L30 55L31 55L31 56L34 56L34 55L35 55L35 54L36 54L36 56L38 56L38 55L37 55L37 54L36 54L36 52L37 52L37 53L38 53L38 54L39 54L39 55L41 55L41 56L39 56L39 57L35 57L35 59L36 59L36 60L38 60L38 58L39 58L39 57L40 57L40 58L41 58L41 60L42 60L42 61L43 61L43 62L40 62L40 63L41 63L41 64L42 64L42 63L43 63L43 64L44 64L44 63L45 63L45 62L47 62L47 61L48 61L48 60L49 60L49 59L48 59L48 58L49 58L49 57L47 57L47 56L49 56L49 55L50 55L50 58L51 58L51 59L50 59L50 60L51 60L51 59L53 59L53 60L52 60L52 62L51 62L51 61L50 61L50 62L49 62L49 63L46 63L46 64L49 64L49 63L50 63L50 62L51 62L51 63L55 63L55 64L57 64L57 63L58 63L58 64L59 64L59 62L58 62L58 61L57 61L57 62L56 62L56 61L55 61L55 62L53 62L53 60L56 60L56 59L55 59L55 58L56 58L56 56L57 56L57 55L56 55L56 53L57 53L57 52L58 52L58 51L59 51L59 50L58 50L58 51L57 51L57 50L56 50L56 49L57 49L57 48L54 48L54 47L56 47L56 46L57 46L57 47L59 47L59 45L61 45L61 46L60 46L60 47L61 47L61 46L62 46L62 44L63 44L63 43L62 43L62 42L63 42L63 41L61 41L61 40L63 40L63 39L62 39L62 38L63 38L63 37L61 37L61 35L62 35L62 34L63 34L63 33L61 33L61 35L60 35L60 36L59 36L59 38L58 38L58 36L57 36L57 35L56 35L56 36L55 36L55 34L54 34L54 32L55 32L55 33L56 33L56 32L55 32L55 30L57 30L57 29L56 29L56 26L59 26L59 24L57 24L57 25L55 25L55 24L52 24L52 25L50 25L50 24L51 24L51 23L50 23L50 22L49 22L49 23L47 23L47 24L49 24L49 25L50 25L50 26L51 26L51 27L52 27L52 26L53 26L53 27L55 27L55 30L54 30L54 32L51 32L51 31L50 31L50 30L51 30L51 28L49 28L49 27L48 27L48 26L47 26L47 25L46 25L46 26L45 26L45 27L46 27L46 28L47 28L47 29L45 29L45 28L44 28L44 27L43 27L43 26L42 26L42 25L43 25L43 24L42 24L42 23L46 23L46 22L48 22L48 20L49 20L49 19L50 19L50 18L51 18L51 17L50 17L50 14L51 14L51 13L53 13L53 12L54 12L54 13L55 13L55 12L54 12L54 11L55 11L55 10L53 10L53 9L55 9L55 8L54 8L54 6L53 6L53 8L52 8L52 6L51 6L51 9L49 9L49 10L48 10L48 8L50 8L50 6L49 6L49 7L48 7L48 5L49 5L49 4L50 4L50 5L51 5L51 4L50 4L50 2L49 2L49 1L48 1L48 3L47 3L47 4L46 4L46 5L47 5L47 7L46 7L46 6L45 6L45 7L46 7L46 8L47 8L47 9L46 9L46 10L44 10L44 9L45 9L45 8L44 8L44 6L43 6L43 5L42 5L42 6L41 6L41 7L42 7L42 6L43 6L43 8L44 8L44 9L43 9L43 10L42 10L42 8L40 8L40 9L38 9L38 10L39 10L39 11L42 11L42 12L37 12L37 11L36 11L36 10L37 10L37 9L34 9L34 10L35 10L35 11L36 11L36 12L37 12L37 13L35 13L35 12L32 12L32 11L31 11L31 9L30 9L30 8L29 8L29 9L28 9L28 8L25 8L25 7L26 7L26 6L27 6L27 7L28 7L28 6L27 6L27 3L28 3L28 2L27 2L27 1ZM25 2L25 3L26 3L26 2ZM42 2L42 3L43 3L43 2ZM51 2L51 3L52 3L52 4L53 4L53 3L52 3L52 2ZM8 3L8 4L9 4L9 3ZM29 3L29 4L28 4L28 5L29 5L29 7L30 7L30 3ZM48 3L48 4L49 4L49 3ZM10 4L10 5L11 5L11 4ZM8 5L8 7L9 7L9 8L6 8L6 9L9 9L9 11L10 11L10 9L9 9L9 8L10 8L10 7L11 7L11 6L10 6L10 7L9 7L9 5ZM13 5L13 7L14 7L14 5ZM16 5L16 8L17 8L17 9L16 9L16 10L18 10L18 11L19 11L19 12L18 12L18 13L17 13L17 14L16 14L16 12L17 12L17 11L16 11L16 12L15 12L15 13L12 13L12 14L11 14L11 15L12 15L12 17L14 17L14 16L15 16L15 17L16 17L16 16L15 16L15 15L17 15L17 14L18 14L18 15L19 15L19 16L17 16L17 17L19 17L19 20L20 20L20 21L18 21L18 20L17 20L17 19L18 19L18 18L16 18L16 19L15 19L15 21L16 21L16 20L17 20L17 21L18 21L18 22L19 22L19 23L20 23L20 21L21 21L21 24L24 24L24 23L27 23L27 24L28 24L28 23L29 23L29 22L28 22L28 21L30 21L30 22L31 22L31 21L32 21L32 22L33 22L33 25L35 25L35 26L34 26L34 27L37 27L37 25L38 25L38 24L41 24L41 23L42 23L42 22L43 22L43 21L44 21L44 22L45 22L45 21L47 21L47 20L46 20L46 19L47 19L47 18L46 18L46 19L45 19L45 18L44 18L44 16L45 16L45 17L46 17L46 16L47 16L47 17L49 17L49 16L48 16L48 14L49 14L49 12L48 12L48 10L46 10L46 11L44 11L44 12L45 12L45 14L43 14L43 12L42 12L42 13L39 13L39 14L38 14L38 15L37 15L37 16L34 16L34 15L36 15L36 14L33 14L33 15L32 15L32 14L31 14L31 15L32 15L32 16L33 16L33 17L32 17L32 18L31 18L31 16L30 16L30 15L29 15L29 14L30 14L30 13L28 13L28 12L31 12L31 13L32 13L32 12L31 12L31 11L30 11L30 9L29 9L29 10L28 10L28 9L26 9L26 10L27 10L27 11L26 11L26 12L25 12L25 11L24 11L24 13L22 13L22 12L21 12L21 13L19 13L19 12L20 12L20 11L19 11L19 10L18 10L18 9L19 9L19 8L17 8L17 5ZM31 5L31 8L34 8L34 5ZM21 6L21 7L22 7L22 6ZM32 6L32 7L33 7L33 6ZM39 6L39 7L40 7L40 6ZM56 6L56 7L57 7L57 6ZM0 8L0 10L2 10L2 9L4 9L4 10L5 10L5 8ZM59 8L59 9L60 9L60 8ZM61 8L61 9L62 9L62 8ZM63 8L63 10L62 10L62 11L63 11L63 10L65 10L65 9L64 9L64 8ZM24 9L24 10L25 10L25 9ZM32 9L32 10L33 10L33 9ZM40 9L40 10L41 10L41 9ZM51 9L51 10L50 10L50 12L53 12L53 10L52 10L52 9ZM51 10L51 11L52 11L52 10ZM60 10L60 11L61 11L61 10ZM26 12L26 13L27 13L27 14L28 14L28 13L27 13L27 12ZM18 13L18 14L19 14L19 15L20 15L20 14L19 14L19 13ZM24 13L24 14L22 14L22 15L24 15L24 16L22 16L22 17L20 17L20 16L19 16L19 17L20 17L20 18L21 18L21 19L20 19L20 20L21 20L21 21L22 21L22 23L23 23L23 22L24 22L24 21L25 21L25 22L27 22L27 21L28 21L28 19L29 19L29 17L30 17L30 16L29 16L29 17L28 17L28 18L27 18L27 21L25 21L25 20L26 20L26 19L25 19L25 20L24 20L24 19L23 19L23 21L22 21L22 20L21 20L21 19L22 19L22 17L25 17L25 18L26 18L26 17L27 17L27 16L28 16L28 15L27 15L27 16L25 16L25 15L26 15L26 14L25 14L25 13ZM46 13L46 14L48 14L48 13ZM60 13L60 14L61 14L61 13ZM9 14L9 15L7 15L7 16L6 16L6 17L7 17L7 18L8 18L8 19L9 19L9 18L10 18L10 17L8 17L8 16L10 16L10 14ZM12 14L12 15L13 15L13 16L14 16L14 15L15 15L15 14L14 14L14 15L13 15L13 14ZM40 14L40 15L39 15L39 17L38 17L38 18L39 18L39 17L41 17L41 18L40 18L40 19L41 19L41 20L39 20L39 19L36 19L36 18L37 18L37 17L36 17L36 18L35 18L35 17L33 17L33 18L32 18L32 19L33 19L33 20L32 20L32 21L33 21L33 22L35 22L35 20L37 20L37 21L36 21L36 22L42 22L42 21L43 21L43 19L44 19L44 18L42 18L42 16L44 16L44 15L43 15L43 14L42 14L42 16L40 16L40 15L41 15L41 14ZM45 15L45 16L46 16L46 15ZM56 16L56 17L57 17L57 16ZM33 18L33 19L35 19L35 18ZM48 18L48 19L49 19L49 18ZM57 19L57 21L58 21L58 22L59 22L59 21L58 21L58 19ZM30 20L30 21L31 21L31 20ZM38 20L38 21L39 21L39 20ZM44 20L44 21L45 21L45 20ZM52 20L52 21L53 21L53 20ZM34 23L34 24L35 24L35 23ZM36 23L36 24L37 24L37 23ZM30 24L30 26L31 26L31 24ZM44 24L44 25L45 25L45 24ZM6 25L6 26L5 26L5 28L7 28L7 27L6 27L6 26L7 26L7 25ZM22 25L22 26L23 26L23 25ZM39 25L39 26L38 26L38 27L39 27L39 26L40 26L40 28L41 28L41 29L40 29L40 31L39 31L39 30L37 30L37 31L39 31L39 32L38 32L38 33L37 33L37 32L35 32L35 31L36 31L36 30L33 30L33 29L32 29L32 30L31 30L31 29L30 29L30 31L29 31L29 32L28 32L28 31L26 31L26 32L25 32L25 33L22 33L22 34L20 34L20 35L22 35L22 34L23 34L23 35L25 35L25 36L26 36L26 35L25 35L25 34L27 34L27 39L26 39L26 40L25 40L25 39L24 39L24 40L25 40L25 41L21 41L21 40L22 40L22 38L21 38L21 39L20 39L20 41L19 41L19 39L18 39L18 40L15 40L15 39L13 39L13 36L12 36L12 35L11 35L11 36L12 36L12 38L11 38L11 39L12 39L12 40L14 40L14 41L17 41L17 42L16 42L16 43L15 43L15 42L12 42L12 43L15 43L15 45L16 45L16 43L17 43L17 44L18 44L18 45L19 45L19 46L18 46L18 47L19 47L19 48L18 48L18 49L19 49L19 48L20 48L20 49L22 49L22 48L21 48L21 47L22 47L22 46L24 46L24 45L26 45L26 46L27 46L27 45L28 45L28 44L29 44L29 43L30 43L30 45L31 45L31 46L32 46L32 47L33 47L33 48L32 48L32 49L33 49L33 48L34 48L34 49L35 49L35 47L37 47L37 48L36 48L36 49L37 49L37 48L38 48L38 47L39 47L39 50L38 50L38 51L40 51L40 52L42 52L42 54L44 54L44 55L42 55L42 56L43 56L43 57L41 57L41 58L43 58L43 57L44 57L44 58L45 58L45 59L44 59L44 60L43 60L43 59L42 59L42 60L43 60L43 61L44 61L44 62L45 62L45 61L44 61L44 60L46 60L46 59L47 59L47 58L46 58L46 56L47 56L47 55L48 55L48 53L49 53L49 54L50 54L50 55L51 55L51 57L52 57L52 56L53 56L53 55L52 55L52 54L50 54L50 53L51 53L51 52L53 52L53 51L54 51L54 52L56 52L56 50L55 50L55 49L52 49L52 51L51 51L51 50L50 50L50 48L51 48L51 47L52 47L52 48L53 48L53 47L52 47L52 46L56 46L56 45L52 45L52 44L53 44L53 43L54 43L54 44L56 44L56 43L57 43L57 42L61 42L61 41L58 41L58 40L60 40L60 39L61 39L61 37L60 37L60 39L58 39L58 40L56 40L56 39L55 39L55 40L53 40L53 39L54 39L54 38L56 38L56 37L54 37L54 35L52 35L52 34L53 34L53 33L51 33L51 32L50 32L50 33L49 33L49 32L48 32L48 33L47 33L47 31L48 31L48 30L49 30L49 28L48 28L48 29L47 29L47 30L46 30L46 31L44 31L44 32L43 32L43 31L42 31L42 32L43 32L43 33L42 33L42 34L40 34L40 32L41 32L41 29L42 29L42 30L44 30L44 28L43 28L43 29L42 29L42 28L41 28L41 27L42 27L42 26L41 26L41 25ZM53 25L53 26L55 26L55 25ZM8 26L8 27L9 27L9 28L8 28L8 29L5 29L5 30L8 30L8 29L9 29L9 28L10 28L10 27L9 27L9 26ZM46 26L46 27L47 27L47 26ZM12 27L12 28L11 28L11 29L10 29L10 31L9 31L9 32L10 32L10 31L11 31L11 30L12 30L12 28L13 28L13 29L14 29L14 28L13 28L13 27ZM57 27L57 28L58 28L58 30L61 30L61 29L59 29L59 28L58 28L58 27ZM20 28L20 29L18 29L18 30L20 30L20 31L19 31L19 32L21 32L21 30L22 30L22 29L23 29L23 30L24 30L24 29L23 29L23 28ZM35 28L35 29L37 29L37 28ZM38 28L38 29L39 29L39 28ZM52 28L52 29L53 29L53 28ZM26 29L26 30L28 30L28 29ZM3 31L3 32L2 32L2 33L3 33L3 32L4 32L4 31ZM5 31L5 34L8 34L8 31ZM31 31L31 34L34 34L34 31ZM57 31L57 34L60 34L60 31ZM6 32L6 33L7 33L7 32ZM26 32L26 33L27 33L27 34L29 34L29 35L28 35L28 36L33 36L33 37L31 37L31 38L30 38L30 37L28 37L28 39L27 39L27 40L26 40L26 41L27 41L27 40L30 40L30 41L28 41L28 43L27 43L27 44L26 44L26 45L27 45L27 44L28 44L28 43L29 43L29 42L30 42L30 43L31 43L31 44L32 44L32 43L31 43L31 42L33 42L33 43L35 43L35 44L37 44L37 46L39 46L39 47L41 47L41 48L40 48L40 49L41 49L41 50L40 50L40 51L41 51L41 50L42 50L42 52L44 52L44 54L45 54L45 56L44 56L44 57L45 57L45 56L46 56L46 54L47 54L47 51L46 51L46 50L47 50L47 49L45 49L45 48L44 48L44 51L43 51L43 50L42 50L42 49L43 49L43 47L44 47L44 46L47 46L47 47L46 47L46 48L50 48L50 47L48 47L48 46L49 46L49 45L50 45L50 46L51 46L51 45L50 45L50 44L52 44L52 43L53 43L53 42L52 42L52 43L50 43L50 42L51 42L51 41L53 41L53 40L52 40L52 38L53 38L53 36L52 36L52 38L51 38L51 36L50 36L50 34L51 34L51 33L50 33L50 34L49 34L49 35L48 35L48 34L47 34L47 33L46 33L46 32L44 32L44 33L43 33L43 34L42 34L42 35L41 35L41 36L39 36L39 37L38 37L38 34L39 34L39 35L40 35L40 34L39 34L39 33L38 33L38 34L37 34L37 33L35 33L35 35L36 35L36 36L37 36L37 37L35 37L35 36L33 36L33 35L30 35L30 32L29 32L29 33L28 33L28 32ZM32 32L32 33L33 33L33 32ZM58 32L58 33L59 33L59 32ZM44 33L44 34L45 34L45 35L44 35L44 36L46 36L46 37L49 37L49 38L48 38L48 39L49 39L49 38L50 38L50 39L51 39L51 38L50 38L50 36L46 36L46 35L47 35L47 34L46 34L46 33ZM36 34L36 35L37 35L37 34ZM9 35L9 37L10 37L10 35ZM42 35L42 36L43 36L43 35ZM0 36L0 38L1 38L1 39L3 39L3 38L4 38L4 37L1 37L1 36ZM20 36L20 37L22 37L22 36ZM23 36L23 38L26 38L26 37L24 37L24 36ZM33 37L33 38L32 38L32 41L34 41L34 42L36 42L36 43L38 43L38 45L39 45L39 44L41 44L41 41L40 41L40 43L39 43L39 42L38 42L38 41L37 41L37 40L41 40L41 39L40 39L40 38L41 38L41 37L39 37L39 38L38 38L38 39L37 39L37 38L36 38L36 39L37 39L37 40L35 40L35 39L34 39L34 37ZM42 37L42 38L43 38L43 39L44 39L44 40L43 40L43 41L42 41L42 42L43 42L43 43L42 43L42 44L43 44L43 45L40 45L40 46L41 46L41 47L42 47L42 46L44 46L44 44L45 44L45 45L46 45L46 44L45 44L45 43L47 43L47 45L49 45L49 44L48 44L48 43L47 43L47 42L50 42L50 41L51 41L51 40L47 40L47 42L46 42L46 41L44 41L44 40L45 40L45 39L47 39L47 38L43 38L43 37ZM29 38L29 39L30 39L30 40L31 40L31 39L30 39L30 38ZM4 39L4 40L3 40L3 41L5 41L5 39ZM34 40L34 41L35 41L35 40ZM55 40L55 42L54 42L54 43L56 43L56 42L57 42L57 41L56 41L56 40ZM18 41L18 42L19 42L19 41ZM20 41L20 44L19 44L19 43L18 43L18 44L19 44L19 45L24 45L24 43L25 43L25 42L22 42L22 43L21 43L21 41ZM36 41L36 42L37 42L37 41ZM7 42L7 43L6 43L6 44L7 44L7 43L9 43L9 42ZM44 42L44 43L43 43L43 44L44 44L44 43L45 43L45 42ZM22 43L22 44L23 44L23 43ZM58 43L58 44L57 44L57 45L58 45L58 44L59 44L59 43ZM60 43L60 44L62 44L62 43ZM9 44L9 45L10 45L10 44ZM13 44L13 45L14 45L14 44ZM33 44L33 45L32 45L32 46L34 46L34 47L35 47L35 45L34 45L34 44ZM0 45L0 52L1 52L1 53L0 53L0 54L1 54L1 53L3 53L3 54L2 54L2 55L3 55L3 56L1 56L1 55L0 55L0 56L1 56L1 57L3 57L3 56L4 56L4 57L5 57L5 56L4 56L4 53L8 53L8 54L5 54L5 55L8 55L8 54L9 54L9 55L11 55L11 51L10 51L10 52L9 52L9 51L8 51L8 52L5 52L5 51L4 51L4 49L1 49L1 45ZM19 46L19 47L20 47L20 46ZM15 47L15 48L16 48L16 47ZM23 47L23 48L24 48L24 47ZM25 47L25 49L26 49L26 48L27 48L27 47ZM7 48L7 49L8 49L8 48ZM62 48L62 49L64 49L64 50L65 50L65 49L64 49L64 48ZM1 50L1 51L3 51L3 53L4 53L4 51L3 51L3 50ZM49 50L49 51L48 51L48 52L51 52L51 51L50 51L50 50ZM54 50L54 51L55 51L55 50ZM25 51L25 52L26 52L26 51ZM44 51L44 52L45 52L45 51ZM62 51L62 52L63 52L63 51ZM8 52L8 53L9 53L9 54L10 54L10 53L9 53L9 52ZM38 52L38 53L39 53L39 52ZM14 53L14 54L15 54L15 55L12 55L12 56L11 56L11 57L12 57L12 58L10 58L10 59L12 59L12 58L13 58L13 59L14 59L14 60L10 60L10 61L9 61L9 60L8 60L8 65L9 65L9 63L10 63L10 64L11 64L11 63L13 63L13 64L12 64L12 65L13 65L13 64L14 64L14 65L17 65L17 64L16 64L16 63L14 63L14 61L15 61L15 62L16 62L16 61L15 61L15 60L16 60L16 59L18 59L18 61L20 61L20 60L19 60L19 59L18 59L18 58L14 58L14 57L15 57L15 56L16 56L16 57L17 57L17 56L18 56L18 57L19 57L19 58L20 58L20 59L21 59L21 58L20 58L20 57L21 57L21 56L20 56L20 57L19 57L19 56L18 56L18 55L17 55L17 54L15 54L15 53ZM53 53L53 54L55 54L55 53ZM16 55L16 56L17 56L17 55ZM28 55L28 56L29 56L29 55ZM54 55L54 56L56 56L56 55ZM64 55L64 58L65 58L65 55ZM6 56L6 57L8 57L8 59L9 59L9 57L10 57L10 56L9 56L9 57L8 57L8 56ZM12 56L12 57L14 57L14 56ZM24 56L24 57L25 57L25 58L26 58L26 57L27 57L27 56L26 56L26 57L25 57L25 56ZM31 57L31 60L34 60L34 57ZM53 57L53 58L55 58L55 57ZM57 57L57 60L60 60L60 57ZM32 58L32 59L33 59L33 58ZM36 58L36 59L37 59L37 58ZM58 58L58 59L59 59L59 58ZM27 59L27 60L28 60L28 59ZM61 60L61 61L60 61L60 62L61 62L61 63L62 63L62 64L63 64L63 63L62 63L62 62L63 62L63 61L62 61L62 60ZM10 61L10 63L11 63L11 62L13 62L13 61ZM23 61L23 62L24 62L24 61ZM25 61L25 62L26 62L26 61ZM30 61L30 62L31 62L31 61ZM19 62L19 63L20 63L20 62ZM32 62L32 63L31 63L31 64L33 64L33 63L34 63L34 64L35 64L35 63L36 63L36 62L35 62L35 63L34 63L34 62ZM18 64L18 65L19 65L19 64ZM0 0L0 7L7 7L7 0ZM1 1L1 6L6 6L6 1ZM2 2L2 5L5 5L5 2ZM58 0L58 7L65 7L65 0ZM59 1L59 6L64 6L64 1ZM60 2L60 5L63 5L63 2ZM0 58L0 65L7 65L7 58ZM1 59L1 64L6 64L6 59ZM2 60L2 63L5 63L5 60Z" fill="#000000"/></g></g></svg>
