<?xml version="1.0" encoding="UTF-8"?>
<svg xmlns="http://www.w3.org/2000/svg" version="1.1" width="300" height="300" viewBox="0 0 300 300"><rect x="0" y="0" width="300" height="300" fill="#ffffff"/><g transform="scale(4.615)"><g transform="translate(0,0)"><path fill-rule="evenodd" d="M12 0L12 1L10 1L10 3L8 3L8 4L11 4L11 2L12 2L12 4L13 4L13 3L15 3L15 4L14 4L14 5L15 5L15 6L14 6L14 7L13 7L13 5L11 5L11 6L10 6L10 7L11 7L11 6L12 6L12 8L6 8L6 9L8 9L8 10L9 10L9 12L8 12L8 11L7 11L7 10L6 10L6 11L5 11L5 10L3 10L3 11L2 11L2 9L5 9L5 8L0 8L0 16L1 16L1 17L0 17L0 18L2 18L2 15L3 15L3 16L4 16L4 15L3 15L3 14L4 14L4 13L5 13L5 12L6 12L6 13L7 13L7 12L8 12L8 15L9 15L9 18L10 18L10 19L9 19L9 20L8 20L8 19L7 19L7 18L8 18L8 17L7 17L7 16L6 16L6 17L7 17L7 18L6 18L6 19L5 19L5 18L3 18L3 19L0 19L0 22L1 22L1 23L3 23L3 22L4 22L4 23L9 23L9 24L8 24L8 25L7 25L7 24L5 24L5 25L7 25L7 26L6 26L6 27L5 27L5 26L3 26L3 27L2 27L2 28L3 28L3 29L2 29L2 30L4 30L4 32L3 32L3 31L2 31L2 32L1 32L1 33L2 33L2 32L3 32L3 34L1 34L1 35L3 35L3 34L4 34L4 41L2 41L2 40L1 40L1 39L3 39L3 36L0 36L0 38L1 38L1 39L0 39L0 40L1 40L1 41L2 41L2 42L4 42L4 43L5 43L5 41L7 41L7 40L6 40L6 39L7 39L7 38L6 38L6 39L5 39L5 36L6 36L6 37L9 37L9 38L8 38L8 40L9 40L9 41L8 41L8 42L9 42L9 43L10 43L10 41L11 41L11 36L12 36L12 38L13 38L13 37L14 37L14 36L15 36L15 38L14 38L14 39L13 39L13 40L12 40L12 41L13 41L13 40L14 40L14 39L16 39L16 41L17 41L17 40L18 40L18 41L19 41L19 42L18 42L18 43L19 43L19 42L20 42L20 43L23 43L23 45L22 45L22 44L21 44L21 46L22 46L22 47L21 47L21 48L19 48L19 47L20 47L20 46L19 46L19 47L18 47L18 46L17 46L17 47L18 47L18 49L19 49L19 50L18 50L18 51L17 51L17 50L16 50L16 49L17 49L17 48L16 48L16 47L15 47L15 46L16 46L16 45L15 45L15 44L16 44L16 43L17 43L17 42L15 42L15 41L14 41L14 42L11 42L11 44L8 44L8 43L7 43L7 42L6 42L6 43L7 43L7 44L5 44L5 45L4 45L4 46L3 46L3 47L2 47L2 45L3 45L3 43L2 43L2 44L0 44L0 46L1 46L1 47L0 47L0 48L1 48L1 49L0 49L0 50L2 50L2 51L1 51L1 54L2 54L2 55L3 55L3 56L1 56L1 55L0 55L0 56L1 56L1 57L3 57L3 56L4 56L4 57L5 57L5 56L4 56L4 54L5 54L5 55L7 55L7 56L6 56L6 57L8 57L8 59L9 59L9 58L10 58L10 59L11 59L11 61L9 61L9 60L8 60L8 65L9 65L9 64L10 64L10 65L11 65L11 64L12 64L12 65L15 65L15 63L16 63L16 65L17 65L17 61L19 61L19 62L18 62L18 63L19 63L19 64L18 64L18 65L19 65L19 64L20 64L20 65L22 65L22 64L24 64L24 63L23 63L23 61L22 61L22 62L21 62L21 61L19 61L19 59L20 59L20 57L21 57L21 60L25 60L25 59L26 59L26 58L27 58L27 57L29 57L29 58L30 58L30 61L29 61L29 59L27 59L27 61L26 61L26 62L25 62L25 61L24 61L24 62L25 62L25 65L26 65L26 64L28 64L28 65L38 65L38 64L39 64L39 62L40 62L40 64L41 64L41 62L43 62L43 63L42 63L42 64L45 64L45 65L47 65L47 64L48 64L48 65L50 65L50 64L48 64L48 63L49 63L49 62L50 62L50 63L51 63L51 64L53 64L53 65L54 65L54 64L57 64L57 65L63 65L63 64L64 64L64 60L65 60L65 59L64 59L64 60L62 60L62 59L63 59L63 58L65 58L65 57L64 57L64 56L65 56L65 55L64 55L64 54L65 54L65 52L64 52L64 50L65 50L65 49L64 49L64 48L62 48L62 49L63 49L63 50L61 50L61 49L58 49L58 48L59 48L59 47L57 47L57 46L56 46L56 45L57 45L57 44L56 44L56 43L54 43L54 42L55 42L55 40L56 40L56 41L57 41L57 42L61 42L61 43L60 43L60 44L62 44L62 45L60 45L60 46L62 46L62 45L63 45L63 44L62 44L62 43L63 43L63 42L62 42L62 41L64 41L64 42L65 42L65 39L64 39L64 38L65 38L65 37L64 37L64 36L65 36L65 35L63 35L63 34L62 34L62 35L61 35L61 32L62 32L62 33L63 33L63 32L62 32L62 31L63 31L63 30L62 30L62 31L61 31L61 29L64 29L64 28L65 28L65 27L63 27L63 26L65 26L65 25L63 25L63 24L62 24L62 22L61 22L61 20L59 20L59 19L60 19L60 18L61 18L61 19L63 19L63 18L65 18L65 15L64 15L64 16L62 16L62 15L63 15L63 13L64 13L64 14L65 14L65 12L62 12L62 13L61 13L61 12L60 12L60 11L61 11L61 10L65 10L65 9L64 9L64 8L63 8L63 9L62 9L62 8L61 8L61 10L60 10L60 8L59 8L59 10L57 10L57 11L56 11L56 10L55 10L55 9L54 9L54 10L55 10L55 12L54 12L54 11L53 11L53 9L51 9L51 8L53 8L53 6L54 6L54 7L55 7L55 5L54 5L54 4L56 4L56 5L57 5L57 4L56 4L56 3L57 3L57 1L56 1L56 0L55 0L55 1L56 1L56 3L55 3L55 2L54 2L54 3L53 3L53 2L52 2L52 1L50 1L50 0L49 0L49 1L48 1L48 0L47 0L47 1L45 1L45 0L39 0L39 1L38 1L38 0L37 0L37 2L39 2L39 3L38 3L38 4L37 4L37 3L35 3L35 1L34 1L34 0L32 0L32 1L34 1L34 2L31 2L31 3L29 3L29 2L30 2L30 1L31 1L31 0L29 0L29 1L28 1L28 0L26 0L26 1L27 1L27 2L24 2L24 3L25 3L25 4L23 4L23 0L21 0L21 1L20 1L20 0L19 0L19 1L20 1L20 2L21 2L21 3L19 3L19 4L18 4L18 3L17 3L17 2L18 2L18 1L17 1L17 2L16 2L16 0L15 0L15 2L13 2L13 0ZM24 0L24 1L25 1L25 0ZM53 0L53 1L54 1L54 0ZM8 1L8 2L9 2L9 1ZM21 1L21 2L22 2L22 1ZM40 1L40 2L41 2L41 1ZM42 1L42 3L40 3L40 4L41 4L41 7L42 7L42 8L40 8L40 9L41 9L41 12L40 12L40 11L38 11L38 10L39 10L39 9L38 9L38 8L39 8L39 7L40 7L40 5L39 5L39 4L38 4L38 5L37 5L37 4L35 4L35 3L32 3L32 4L35 4L35 9L33 9L33 12L32 12L32 11L31 11L31 12L30 12L30 10L31 10L31 9L30 9L30 8L29 8L29 7L30 7L30 6L29 6L29 7L28 7L28 6L27 6L27 7L28 7L28 8L26 8L26 5L25 5L25 7L24 7L24 5L23 5L23 4L22 4L22 3L21 3L21 4L20 4L20 5L18 5L18 4L17 4L17 5L16 5L16 6L15 6L15 7L14 7L14 8L16 8L16 11L18 11L18 12L19 12L19 11L21 11L21 12L20 12L20 13L17 13L17 12L16 12L16 13L17 13L17 14L16 14L16 15L19 15L19 16L21 16L21 17L20 17L20 20L19 20L19 22L23 22L23 24L22 24L22 25L25 25L25 26L21 26L21 25L20 25L20 23L18 23L18 22L17 22L17 21L18 21L18 20L17 20L17 19L18 19L18 18L19 18L19 17L17 17L17 16L16 16L16 18L17 18L17 19L15 19L15 15L13 15L13 13L14 13L14 14L15 14L15 12L11 12L11 13L12 13L12 14L10 14L10 12L9 12L9 15L13 15L13 16L12 16L12 17L13 17L13 18L14 18L14 19L13 19L13 20L12 20L12 19L11 19L11 20L12 20L12 22L11 22L11 23L10 23L10 22L9 22L9 23L10 23L10 25L11 25L11 24L12 24L12 23L13 23L13 25L14 25L14 28L15 28L15 25L14 25L14 23L16 23L16 24L19 24L19 25L18 25L18 26L19 26L19 25L20 25L20 28L19 28L19 29L18 29L18 30L17 30L17 31L18 31L18 30L19 30L19 31L20 31L20 30L19 30L19 29L21 29L21 32L22 32L22 33L25 33L25 35L26 35L26 37L25 37L25 36L23 36L23 37L22 37L22 36L21 36L21 35L22 35L22 34L21 34L21 33L20 33L20 32L19 32L19 33L16 33L16 31L15 31L15 30L16 30L16 29L17 29L17 25L16 25L16 29L14 29L14 30L13 30L13 28L12 28L12 30L11 30L11 28L10 28L10 27L9 27L9 26L8 26L8 27L6 27L6 28L8 28L8 29L6 29L6 30L9 30L9 28L10 28L10 34L9 34L9 36L10 36L10 34L11 34L11 33L12 33L12 34L13 34L13 35L12 35L12 36L13 36L13 35L14 35L14 34L15 34L15 35L16 35L16 36L18 36L18 37L16 37L16 39L17 39L17 38L18 38L18 39L21 39L21 37L22 37L22 39L23 39L23 40L21 40L21 41L20 41L20 40L19 40L19 41L20 41L20 42L21 42L21 41L23 41L23 40L24 40L24 41L25 41L25 42L24 42L24 45L25 45L25 46L23 46L23 47L22 47L22 48L21 48L21 49L20 49L20 50L19 50L19 54L18 54L18 55L17 55L17 53L18 53L18 52L17 52L17 53L14 53L14 52L15 52L15 49L16 49L16 48L15 48L15 47L14 47L14 46L15 46L15 45L14 45L14 43L12 43L12 44L11 44L11 45L9 45L9 46L8 46L8 44L7 44L7 45L5 45L5 46L4 46L4 47L3 47L3 48L7 48L7 49L6 49L6 50L8 50L8 47L9 47L9 51L4 51L4 50L5 50L5 49L4 49L4 50L3 50L3 53L2 53L2 54L3 54L3 53L6 53L6 54L7 54L7 53L10 53L10 54L8 54L8 57L10 57L10 56L11 56L11 55L12 55L12 54L11 54L11 53L13 53L13 55L14 55L14 56L12 56L12 58L11 58L11 59L13 59L13 57L14 57L14 59L16 59L16 58L17 58L17 59L19 59L19 57L18 57L18 58L17 58L17 57L16 57L16 58L15 58L15 57L14 57L14 56L15 56L15 55L16 55L16 56L18 56L18 55L19 55L19 54L20 54L20 55L21 55L21 54L22 54L22 55L23 55L23 56L21 56L21 57L25 57L25 56L26 56L26 57L27 57L27 56L26 56L26 55L27 55L27 54L26 54L26 53L28 53L28 54L30 54L30 55L29 55L29 57L30 57L30 55L31 55L31 56L33 56L33 55L31 55L31 54L30 54L30 53L28 53L28 52L31 52L31 53L32 53L32 54L33 54L33 53L34 53L34 55L35 55L35 56L37 56L37 57L36 57L36 58L37 58L37 59L36 59L36 60L38 60L38 58L39 58L39 57L41 57L41 56L39 56L39 55L40 55L40 54L39 54L39 53L41 53L41 55L42 55L42 57L43 57L43 58L42 58L42 59L41 59L41 58L40 58L40 59L41 59L41 60L40 60L40 62L41 62L41 60L42 60L42 61L43 61L43 58L48 58L48 59L47 59L47 60L50 60L50 62L51 62L51 63L53 63L53 64L54 64L54 63L55 63L55 62L56 62L56 63L57 63L57 64L59 64L59 63L58 63L58 62L59 62L59 61L58 61L58 62L56 62L56 61L55 61L55 62L54 62L54 61L53 61L53 60L52 60L52 62L51 62L51 59L50 59L50 58L52 58L52 59L54 59L54 60L56 60L56 59L55 59L55 58L56 58L56 56L58 56L58 55L59 55L59 56L63 56L63 55L62 55L62 54L64 54L64 52L63 52L63 51L62 51L62 52L60 52L60 51L61 51L61 50L58 50L58 51L57 51L57 48L54 48L54 47L55 47L55 46L54 46L54 47L53 47L53 46L52 46L52 47L51 47L51 49L50 49L50 46L51 46L51 44L52 44L52 45L56 45L56 44L54 44L54 43L53 43L53 44L52 44L52 43L51 43L51 44L50 44L50 43L49 43L49 41L50 41L50 42L51 42L51 41L52 41L52 42L53 42L53 40L51 40L51 39L50 39L50 38L52 38L52 37L53 37L53 36L52 36L52 37L50 37L50 36L51 36L51 35L49 35L49 34L51 34L51 33L53 33L53 34L52 34L52 35L54 35L54 37L55 37L55 38L54 38L54 39L56 39L56 40L57 40L57 39L60 39L60 37L61 37L61 36L57 36L57 35L56 35L56 32L55 32L55 31L56 31L56 30L57 30L57 29L56 29L56 28L58 28L58 30L60 30L60 28L61 28L61 27L62 27L62 28L63 28L63 27L62 27L62 26L63 26L63 25L62 25L62 24L61 24L61 22L59 22L59 21L58 21L58 22L59 22L59 24L58 24L58 23L57 23L57 21L56 21L56 20L57 20L57 19L58 19L58 18L60 18L60 16L61 16L61 15L60 15L60 14L61 14L61 13L60 13L60 12L59 12L59 11L60 11L60 10L59 10L59 11L58 11L58 12L57 12L57 13L56 13L56 12L55 12L55 13L56 13L56 15L55 15L55 14L54 14L54 16L49 16L49 14L48 14L48 16L49 16L49 17L46 17L46 15L45 15L45 12L46 12L46 14L47 14L47 13L48 13L48 12L49 12L49 11L50 11L50 14L51 14L51 13L53 13L53 12L51 12L51 11L52 11L52 10L51 10L51 9L50 9L50 10L49 10L49 9L48 9L48 10L47 10L47 8L49 8L49 7L50 7L50 8L51 8L51 7L52 7L52 6L53 6L53 5L52 5L52 4L53 4L53 3L51 3L51 4L50 4L50 3L49 3L49 2L50 2L50 1L49 1L49 2L47 2L47 3L46 3L46 2L45 2L45 3L44 3L44 2L43 2L43 1ZM15 2L15 3L16 3L16 2ZM26 3L26 4L27 4L27 5L30 5L30 4L28 4L28 3ZM42 3L42 5L43 5L43 3ZM45 3L45 4L44 4L44 8L45 8L45 4L46 4L46 3ZM48 3L48 5L50 5L50 7L51 7L51 6L52 6L52 5L50 5L50 4L49 4L49 3ZM21 4L21 5L20 5L20 7L21 7L21 8L19 8L19 6L18 6L18 7L17 7L17 6L16 6L16 8L18 8L18 9L19 9L19 10L18 10L18 11L19 11L19 10L20 10L20 9L22 9L22 10L21 10L21 11L22 11L22 10L23 10L23 9L22 9L22 8L24 8L24 7L23 7L23 6L22 6L22 4ZM8 5L8 7L9 7L9 5ZM31 5L31 8L34 8L34 5ZM36 5L36 7L37 7L37 5ZM38 5L38 7L39 7L39 5ZM46 5L46 7L47 7L47 5ZM21 6L21 7L22 7L22 6ZM32 6L32 7L33 7L33 6ZM42 6L42 7L43 7L43 6ZM48 6L48 7L49 7L49 6ZM56 6L56 7L57 7L57 6ZM28 8L28 9L24 9L24 11L23 11L23 12L24 12L24 14L23 14L23 13L21 13L21 16L23 16L23 17L22 17L22 18L21 18L21 19L22 19L22 18L23 18L23 20L25 20L25 21L23 21L23 22L25 22L25 21L26 21L26 22L27 22L27 23L24 23L24 24L27 24L27 25L26 25L26 26L25 26L25 27L24 27L24 28L23 28L23 29L22 29L22 31L23 31L23 32L24 32L24 31L25 31L25 30L27 30L27 31L29 31L29 30L30 30L30 34L29 34L29 35L30 35L30 36L31 36L31 41L30 41L30 42L29 42L29 43L30 43L30 44L28 44L28 43L26 43L26 44L25 44L25 45L26 45L26 47L24 47L24 48L25 48L25 49L22 49L22 50L20 50L20 51L22 51L22 50L25 50L25 53L24 53L24 51L23 51L23 53L24 53L24 54L25 54L25 53L26 53L26 52L28 52L28 51L31 51L31 49L33 49L33 50L32 50L32 51L33 51L33 50L36 50L36 51L34 51L34 53L37 53L37 52L36 52L36 51L37 51L37 50L38 50L38 53L39 53L39 52L41 52L41 50L40 50L40 51L39 51L39 50L38 50L38 49L40 49L40 48L41 48L41 47L40 47L40 46L43 46L43 45L44 45L44 46L45 46L45 47L44 47L44 48L45 48L45 49L44 49L44 52L43 52L43 51L42 51L42 52L43 52L43 53L42 53L42 54L43 54L43 53L44 53L44 54L45 54L45 55L44 55L44 56L46 56L46 55L47 55L47 57L48 57L48 58L49 58L49 57L50 57L50 56L53 56L53 54L56 54L56 55L55 55L55 56L54 56L54 57L52 57L52 58L55 58L55 56L56 56L56 55L57 55L57 54L56 54L56 53L53 53L53 54L52 54L52 53L51 53L51 54L50 54L50 52L51 52L51 50L49 50L49 48L48 48L48 49L47 49L47 50L46 50L46 48L45 48L45 47L48 47L48 46L50 46L50 44L48 44L48 46L45 46L45 45L44 45L44 44L45 44L45 43L47 43L47 42L48 42L48 41L49 41L49 40L48 40L48 41L47 41L47 42L45 42L45 41L44 41L44 42L45 42L45 43L44 43L44 44L43 44L43 45L39 45L39 46L38 46L38 45L37 45L37 44L39 44L39 42L40 42L40 40L41 40L41 42L43 42L43 41L42 41L42 40L47 40L47 38L46 38L46 39L44 39L44 38L43 38L43 37L42 37L42 38L41 38L41 37L40 37L40 39L39 39L39 38L36 38L36 37L37 37L37 36L35 36L35 35L36 35L36 34L37 34L37 35L39 35L39 34L40 34L40 36L41 36L41 34L43 34L43 33L44 33L44 34L45 34L45 35L44 35L44 36L45 36L45 37L47 37L47 36L48 36L48 37L49 37L49 38L48 38L48 39L49 39L49 38L50 38L50 37L49 37L49 36L48 36L48 34L49 34L49 32L48 32L48 34L45 34L45 33L47 33L47 32L46 32L46 31L47 31L47 30L46 30L46 31L45 31L45 30L44 30L44 28L45 28L45 29L49 29L49 30L48 30L48 31L49 31L49 30L50 30L50 31L51 31L51 32L50 32L50 33L51 33L51 32L53 32L53 33L54 33L54 34L55 34L55 33L54 33L54 32L53 32L53 29L52 29L52 28L53 28L53 27L52 27L52 26L50 26L50 27L51 27L51 28L50 28L50 29L49 29L49 28L48 28L48 27L49 27L49 26L48 26L48 27L47 27L47 26L45 26L45 25L50 25L50 23L51 23L51 24L53 24L53 23L52 23L52 22L55 22L55 21L54 21L54 20L55 20L55 19L54 19L54 18L55 18L55 17L59 17L59 16L58 16L58 15L59 15L59 14L57 14L57 15L56 15L56 16L54 16L54 17L53 17L53 18L50 18L50 19L49 19L49 18L48 18L48 19L47 19L47 18L46 18L46 19L42 19L42 20L46 20L46 21L44 21L44 22L45 22L45 23L42 23L42 22L43 22L43 21L42 21L42 22L41 22L41 21L40 21L40 22L41 22L41 23L40 23L40 24L39 24L39 22L38 22L38 25L37 25L37 24L36 24L36 23L37 23L37 20L38 20L38 19L39 19L39 20L41 20L41 18L45 18L45 17L44 17L44 16L45 16L45 15L44 15L44 16L43 16L43 15L42 15L42 14L44 14L44 12L45 12L45 11L44 11L44 9L43 9L43 8L42 8L42 10L43 10L43 11L42 11L42 12L43 12L43 13L40 13L40 15L39 15L39 14L38 14L38 13L39 13L39 12L38 12L38 13L37 13L37 12L35 12L35 11L36 11L36 10L38 10L38 9L37 9L37 8L36 8L36 9L35 9L35 10L34 10L34 12L33 12L33 13L34 13L34 12L35 12L35 14L34 14L34 15L33 15L33 14L32 14L32 13L30 13L30 14L32 14L32 16L31 16L31 15L26 15L26 16L25 16L25 17L24 17L24 15L25 15L25 13L26 13L26 14L27 14L27 13L29 13L29 12L28 12L28 11L29 11L29 10L30 10L30 9L29 9L29 8ZM56 8L56 9L58 9L58 8ZM9 9L9 10L11 10L11 11L14 11L14 10L15 10L15 9L14 9L14 10L13 10L13 9L12 9L12 10L11 10L11 9ZM28 9L28 10L29 10L29 9ZM26 10L26 11L27 11L27 10ZM46 10L46 12L47 12L47 10ZM48 10L48 11L49 11L49 10ZM50 10L50 11L51 11L51 10ZM6 11L6 12L7 12L7 11ZM43 11L43 12L44 12L44 11ZM2 12L2 14L3 14L3 12ZM26 12L26 13L27 13L27 12ZM36 13L36 14L35 14L35 15L36 15L36 16L32 16L32 17L31 17L31 16L29 16L29 17L28 17L28 16L26 16L26 17L28 17L28 18L30 18L30 19L31 19L31 20L29 20L29 19L28 19L28 20L29 20L29 21L28 21L28 23L27 23L27 24L28 24L28 23L29 23L29 22L30 22L30 21L34 21L34 22L33 22L33 24L32 24L32 22L31 22L31 24L29 24L29 25L28 25L28 27L27 27L27 28L26 28L26 29L27 29L27 30L29 30L29 29L27 29L27 28L28 28L28 27L31 27L31 26L30 26L30 25L31 25L31 24L32 24L32 25L33 25L33 24L34 24L34 26L35 26L35 27L36 27L36 28L37 28L37 27L36 27L36 26L37 26L37 25L35 25L35 23L34 23L34 22L35 22L35 19L36 19L36 20L37 20L37 19L38 19L38 18L40 18L40 17L41 17L41 16L40 16L40 17L38 17L38 18L37 18L37 17L36 17L36 16L39 16L39 15L36 15L36 14L37 14L37 13ZM5 14L5 15L7 15L7 14ZM19 14L19 15L20 15L20 14ZM22 14L22 15L23 15L23 14ZM52 14L52 15L53 15L53 14ZM10 16L10 18L11 18L11 16ZM13 16L13 17L14 17L14 16ZM30 17L30 18L31 18L31 17ZM32 17L32 18L33 18L33 19L32 19L32 20L34 20L34 19L35 19L35 18L33 18L33 17ZM61 17L61 18L62 18L62 17ZM26 18L26 19L25 19L25 20L26 20L26 21L27 21L27 18ZM36 18L36 19L37 19L37 18ZM56 18L56 19L57 19L57 18ZM3 19L3 21L2 21L2 20L1 20L1 22L3 22L3 21L4 21L4 19ZM6 19L6 20L5 20L5 21L6 21L6 22L8 22L8 21L6 21L6 20L7 20L7 19ZM14 19L14 20L15 20L15 19ZM48 19L48 20L47 20L47 21L46 21L46 22L47 22L47 23L46 23L46 24L47 24L47 23L48 23L48 24L49 24L49 21L48 21L48 20L49 20L49 19ZM51 19L51 21L50 21L50 22L51 22L51 21L53 21L53 20L52 20L52 19ZM64 19L64 20L65 20L65 19ZM9 20L9 21L10 21L10 20ZM20 20L20 21L22 21L22 20ZM62 20L62 21L63 21L63 23L64 23L64 24L65 24L65 23L64 23L64 22L65 22L65 21L63 21L63 20ZM14 21L14 22L16 22L16 21ZM41 23L41 24L40 24L40 25L43 25L43 26L42 26L42 27L43 27L43 28L44 28L44 25L45 25L45 24L42 24L42 23ZM54 23L54 24L55 24L55 25L53 25L53 26L56 26L56 27L58 27L58 28L59 28L59 26L56 26L56 25L58 25L58 24L57 24L57 23ZM0 24L0 26L1 26L1 25L2 25L2 24ZM59 24L59 25L61 25L61 24ZM38 25L38 26L39 26L39 25ZM11 26L11 27L13 27L13 26ZM32 26L32 27L33 27L33 26ZM40 26L40 27L41 27L41 26ZM60 26L60 27L61 27L61 26ZM0 27L0 30L1 30L1 27ZM3 27L3 28L4 28L4 29L5 29L5 28L4 28L4 27ZM21 27L21 28L22 28L22 27ZM46 27L46 28L47 28L47 27ZM54 27L54 30L56 30L56 29L55 29L55 27ZM30 28L30 29L31 29L31 30L32 30L32 29L34 29L34 30L35 30L35 34L36 34L36 32L37 32L37 31L38 31L38 34L39 34L39 33L40 33L40 34L41 34L41 32L42 32L42 33L43 33L43 32L44 32L44 33L45 33L45 32L44 32L44 30L40 30L40 29L41 29L41 28L38 28L38 29L37 29L37 30L35 30L35 29L34 29L34 28ZM50 29L50 30L51 30L51 29ZM12 30L12 31L13 31L13 30ZM38 30L38 31L39 31L39 30ZM5 31L5 34L8 34L8 31ZM31 31L31 34L34 34L34 31ZM40 31L40 32L41 32L41 31ZM42 31L42 32L43 32L43 31ZM57 31L57 34L60 34L60 31ZM64 31L64 34L65 34L65 31ZM6 32L6 33L7 33L7 32ZM12 32L12 33L13 33L13 34L14 34L14 33L15 33L15 34L16 34L16 33L15 33L15 32L14 32L14 33L13 33L13 32ZM25 32L25 33L26 33L26 35L28 35L28 33L29 33L29 32L27 32L27 33L26 33L26 32ZM32 32L32 33L33 33L33 32ZM58 32L58 33L59 33L59 32ZM19 33L19 35L21 35L21 34L20 34L20 33ZM17 34L17 35L18 35L18 34ZM6 35L6 36L8 36L8 35ZM31 35L31 36L32 36L32 35ZM46 35L46 36L47 36L47 35ZM55 35L55 36L56 36L56 35ZM62 35L62 36L63 36L63 35ZM19 36L19 37L18 37L18 38L20 38L20 37L21 37L21 36ZM27 36L27 37L26 37L26 38L25 38L25 37L24 37L24 38L25 38L25 39L29 39L29 40L27 40L27 41L26 41L26 42L27 42L27 41L29 41L29 40L30 40L30 38L28 38L28 37L29 37L29 36ZM34 36L34 37L32 37L32 40L33 40L33 39L35 39L35 40L34 40L34 41L36 41L36 40L37 40L37 39L36 39L36 38L35 38L35 36ZM38 36L38 37L39 37L39 36ZM56 37L56 38L57 38L57 37ZM58 37L58 38L59 38L59 37ZM63 37L63 38L61 38L61 40L58 40L58 41L62 41L62 40L63 40L63 38L64 38L64 37ZM9 38L9 40L10 40L10 38ZM42 38L42 39L43 39L43 38ZM38 39L38 42L37 42L37 43L35 43L35 42L34 42L34 43L35 43L35 44L34 44L34 45L35 45L35 46L33 46L33 45L32 45L32 46L31 46L31 44L30 44L30 45L27 45L27 44L26 44L26 45L27 45L27 46L30 46L30 47L28 47L28 48L30 48L30 47L31 47L31 48L34 48L34 49L35 49L35 48L37 48L37 49L38 49L38 48L39 48L39 47L35 47L35 46L37 46L37 45L35 45L35 44L37 44L37 43L38 43L38 42L39 42L39 39ZM50 40L50 41L51 41L51 40ZM32 41L32 42L31 42L31 43L33 43L33 41ZM0 42L0 43L1 43L1 42ZM40 43L40 44L42 44L42 43ZM58 43L58 46L59 46L59 43ZM12 44L12 45L13 45L13 44ZM17 44L17 45L20 45L20 44ZM46 44L46 45L47 45L47 44ZM6 46L6 47L8 47L8 46ZM32 46L32 47L33 47L33 46ZM1 47L1 48L2 48L2 47ZM12 47L12 48L13 48L13 50L12 50L12 49L11 49L11 48L10 48L10 49L11 49L11 50L10 50L10 51L9 51L9 52L10 52L10 53L11 53L11 52L10 52L10 51L11 51L11 50L12 50L12 52L13 52L13 51L14 51L14 47ZM26 47L26 49L25 49L25 50L26 50L26 49L27 49L27 50L30 50L30 49L27 49L27 47ZM34 47L34 48L35 48L35 47ZM52 47L52 48L53 48L53 47ZM42 48L42 50L43 50L43 48ZM53 49L53 51L52 51L52 52L53 52L53 51L54 51L54 52L57 52L57 51L56 51L56 50L55 50L55 49ZM47 50L47 51L46 51L46 52L44 52L44 53L45 53L45 54L48 54L48 56L49 56L49 55L50 55L50 54L48 54L48 52L49 52L49 51L48 51L48 50ZM54 50L54 51L55 51L55 50ZM58 51L58 54L59 54L59 53L60 53L60 54L61 54L61 53L60 53L60 52L59 52L59 51ZM6 52L6 53L7 53L7 52ZM20 52L20 53L22 53L22 52ZM32 52L32 53L33 53L33 52ZM46 52L46 53L47 53L47 52ZM62 52L62 53L63 53L63 52ZM10 54L10 55L9 55L9 56L10 56L10 55L11 55L11 54ZM36 54L36 55L37 55L37 56L38 56L38 55L39 55L39 54L38 54L38 55L37 55L37 54ZM51 54L51 55L52 55L52 54ZM24 55L24 56L25 56L25 55ZM31 57L31 60L34 60L34 57ZM37 57L37 58L38 58L38 57ZM57 57L57 60L60 60L60 57ZM22 58L22 59L23 59L23 58ZM24 58L24 59L25 59L25 58ZM32 58L32 59L33 59L33 58ZM58 58L58 59L59 59L59 58ZM45 59L45 60L44 60L44 63L46 63L46 64L47 64L47 63L48 63L48 62L47 62L47 61L46 61L46 59ZM12 60L12 61L11 61L11 63L10 63L10 64L11 64L11 63L13 63L13 64L14 64L14 62L16 62L16 61L17 61L17 60L16 60L16 61L15 61L15 60ZM28 61L28 62L29 62L29 61ZM30 61L30 64L31 64L31 63L32 63L32 64L33 64L33 62L34 62L34 64L38 64L38 62L39 62L39 61L35 61L35 62L34 62L34 61L33 61L33 62L32 62L32 61ZM60 61L60 62L61 62L61 64L63 64L63 63L62 63L62 62L63 62L63 61ZM19 62L19 63L20 63L20 62ZM36 62L36 63L37 63L37 62ZM46 62L46 63L47 63L47 62ZM21 63L21 64L22 64L22 63ZM0 0L0 7L7 7L7 0ZM1 1L1 6L6 6L6 1ZM2 2L2 5L5 5L5 2ZM58 0L58 7L65 7L65 0ZM59 1L59 6L64 6L64 1ZM60 2L60 5L63 5L63 2ZM0 58L0 65L7 65L7 58ZM1 59L1 64L6 64L6 59ZM2 60L2 63L5 63L5 60Z" fill="#000000"/></g></g></svg>
