<?xml version="1.0" encoding="UTF-8"?>
<svg xmlns="http://www.w3.org/2000/svg" version="1.1" width="300" height="300" viewBox="0 0 300 300"><rect x="0" y="0" width="300" height="300" fill="#ffffff"/><g transform="scale(4.615)"><g transform="translate(0,0)"><path fill-rule="evenodd" d="M11 0L11 2L10 2L10 1L8 1L8 2L9 2L9 3L8 3L8 4L9 4L9 5L8 5L8 7L9 7L9 5L10 5L10 7L11 7L11 8L10 8L10 9L9 9L9 8L6 8L6 9L7 9L7 10L6 10L6 11L7 11L7 12L5 12L5 13L7 13L7 14L6 14L6 15L5 15L5 16L3 16L3 17L2 17L2 16L1 16L1 15L2 15L2 14L0 14L0 16L1 16L1 18L0 18L0 20L1 20L1 19L2 19L2 18L3 18L3 19L5 19L5 20L4 20L4 22L6 22L6 23L8 23L8 22L9 22L9 21L8 21L8 20L9 20L9 19L10 19L10 15L12 15L12 14L10 14L10 12L8 12L8 11L11 11L11 10L12 10L12 11L13 11L13 14L14 14L14 16L15 16L15 18L16 18L16 19L15 19L15 20L13 20L13 19L14 19L14 17L13 17L13 18L12 18L12 17L11 17L11 20L10 20L10 22L11 22L11 23L10 23L10 24L9 24L9 25L8 25L8 24L4 24L4 23L3 23L3 20L2 20L2 22L0 22L0 24L1 24L1 25L2 25L2 26L1 26L1 27L0 27L0 28L1 28L1 29L2 29L2 30L0 30L0 31L2 31L2 32L1 32L1 33L2 33L2 34L3 34L3 32L4 32L4 36L3 36L3 35L1 35L1 34L0 34L0 37L1 37L1 38L0 38L0 39L1 39L1 40L2 40L2 41L1 41L1 42L0 42L0 43L2 43L2 44L1 44L1 46L0 46L0 49L1 49L1 50L0 50L0 54L1 54L1 51L2 51L2 52L3 52L3 54L2 54L2 55L3 55L3 56L1 56L1 55L0 55L0 56L1 56L1 57L3 57L3 56L4 56L4 57L5 57L5 56L4 56L4 54L5 54L5 55L9 55L9 56L6 56L6 57L8 57L8 59L12 59L12 60L11 60L11 61L12 61L12 62L10 62L10 60L8 60L8 65L9 65L9 63L11 63L11 65L19 65L19 64L18 64L18 63L20 63L20 62L17 62L17 64L16 64L16 63L15 63L15 62L16 62L16 61L15 61L15 62L14 62L14 63L13 63L13 61L12 61L12 60L14 60L14 59L15 59L15 60L17 60L17 61L20 61L20 60L19 60L19 59L21 59L21 60L23 60L23 61L22 61L22 62L21 62L21 63L22 63L22 62L23 62L23 63L24 63L24 64L26 64L26 63L27 63L27 61L29 61L29 62L28 62L28 64L27 64L27 65L29 65L29 62L30 62L30 61L31 61L31 63L32 63L32 64L34 64L34 65L35 65L35 64L34 64L34 63L35 63L35 62L34 62L34 61L37 61L37 62L36 62L36 63L37 63L37 62L38 62L38 63L39 63L39 62L40 62L40 64L41 64L41 65L44 65L44 64L46 64L46 65L52 65L52 64L54 64L54 65L55 65L55 64L56 64L56 65L61 65L61 64L62 64L62 65L63 65L63 64L64 64L64 60L65 60L65 59L64 59L64 60L62 60L62 59L63 59L63 58L65 58L65 57L64 57L64 56L65 56L65 55L64 55L64 54L65 54L65 53L64 53L64 52L65 52L65 51L64 51L64 50L65 50L65 49L64 49L64 48L62 48L62 47L61 47L61 48L62 48L62 49L64 49L64 50L61 50L61 49L58 49L58 48L60 48L60 47L58 47L58 48L57 48L57 47L54 47L54 46L56 46L56 45L55 45L55 44L57 44L57 42L61 42L61 43L60 43L60 44L59 44L59 43L58 43L58 45L57 45L57 46L58 46L58 45L59 45L59 46L63 46L63 44L62 44L62 43L63 43L63 42L62 42L62 41L64 41L64 42L65 42L65 39L64 39L64 38L65 38L65 35L64 35L64 34L65 34L65 32L64 32L64 31L63 31L63 32L62 32L62 30L61 30L61 29L64 29L64 28L65 28L65 27L63 27L63 26L65 26L65 25L63 25L63 24L62 24L62 22L61 22L61 20L59 20L59 19L60 19L60 18L61 18L61 19L63 19L63 20L62 20L62 21L63 21L63 23L64 23L64 24L65 24L65 23L64 23L64 22L65 22L65 21L64 21L64 20L65 20L65 19L63 19L63 17L64 17L64 18L65 18L65 15L64 15L64 16L62 16L62 15L61 15L61 14L62 14L62 13L64 13L64 14L65 14L65 12L62 12L62 13L61 13L61 12L60 12L60 11L61 11L61 10L65 10L65 9L64 9L64 8L63 8L63 9L62 9L62 8L61 8L61 10L60 10L60 11L59 11L59 10L58 10L58 11L57 11L57 12L56 12L56 9L58 9L58 8L55 8L55 9L54 9L54 10L55 10L55 11L54 11L54 12L56 12L56 13L57 13L57 12L58 12L58 11L59 11L59 12L60 12L60 13L61 13L61 14L60 14L60 15L61 15L61 16L60 16L60 18L58 18L58 19L57 19L57 18L56 18L56 19L57 19L57 20L56 20L56 21L57 21L57 23L54 23L54 24L56 24L56 25L53 25L53 26L55 26L55 27L58 27L58 28L54 28L54 27L51 27L51 26L52 26L52 24L53 24L53 23L51 23L51 22L50 22L50 20L48 20L48 22L46 22L46 21L47 21L47 18L44 18L44 17L42 17L42 16L41 16L41 14L44 14L44 12L45 12L45 11L47 11L47 10L49 10L49 9L50 9L50 8L51 8L51 6L52 6L52 8L53 8L53 6L54 6L54 7L55 7L55 5L54 5L54 4L56 4L56 5L57 5L57 4L56 4L56 3L57 3L57 1L56 1L56 0L55 0L55 1L56 1L56 3L55 3L55 2L54 2L54 3L53 3L53 2L52 2L52 1L50 1L50 2L49 2L49 3L48 3L48 2L47 2L47 1L46 1L46 0L45 0L45 1L43 1L43 0L41 0L41 1L40 1L40 0L39 0L39 1L38 1L38 2L39 2L39 3L38 3L38 4L37 4L37 3L36 3L36 0L35 0L35 1L34 1L34 2L33 2L33 0L30 0L30 1L32 1L32 3L31 3L31 2L30 2L30 3L28 3L28 2L27 2L27 0L26 0L26 1L25 1L25 0L21 0L21 2L22 2L22 1L23 1L23 2L24 2L24 3L26 3L26 2L27 2L27 4L30 4L30 5L28 5L28 7L29 7L29 8L27 8L27 6L26 6L26 8L27 8L27 9L22 9L22 7L23 7L23 6L22 6L22 7L21 7L21 5L20 5L20 4L22 4L22 3L19 3L19 2L20 2L20 1L18 1L18 0L16 0L16 1L15 1L15 2L14 2L14 3L16 3L16 4L15 4L15 5L14 5L14 7L13 7L13 5L12 5L12 7L11 7L11 5L10 5L10 4L11 4L11 2L13 2L13 1L12 1L12 0ZM53 0L53 1L54 1L54 0ZM16 1L16 3L17 3L17 4L16 4L16 5L15 5L15 7L16 7L16 6L17 6L17 8L15 8L15 10L14 10L14 9L13 9L13 10L14 10L14 11L15 11L15 12L14 12L14 14L16 14L16 16L17 16L17 18L18 18L18 19L17 19L17 20L16 20L16 21L15 21L15 22L14 22L14 21L13 21L13 20L11 20L11 21L13 21L13 22L12 22L12 23L11 23L11 24L10 24L10 27L11 27L11 28L10 28L10 30L9 30L9 27L6 27L6 26L7 26L7 25L5 25L5 26L4 26L4 25L3 25L3 24L2 24L2 25L3 25L3 26L2 26L2 29L3 29L3 31L4 31L4 30L5 30L5 29L6 29L6 30L7 30L7 29L8 29L8 30L9 30L9 32L10 32L10 33L9 33L9 35L6 35L6 36L5 36L5 37L4 37L4 38L3 38L3 39L4 39L4 38L5 38L5 37L6 37L6 38L7 38L7 37L6 37L6 36L8 36L8 38L9 38L9 39L12 39L12 40L13 40L13 42L12 42L12 44L11 44L11 43L10 43L10 42L11 42L11 40L10 40L10 42L9 42L9 43L10 43L10 44L9 44L9 45L8 45L8 44L7 44L7 43L5 43L5 42L7 42L7 41L9 41L9 40L7 40L7 39L6 39L6 40L4 40L4 42L3 42L3 41L2 41L2 43L3 43L3 44L2 44L2 45L3 45L3 46L2 46L2 47L1 47L1 48L2 48L2 49L3 49L3 50L2 50L2 51L3 51L3 52L4 52L4 53L5 53L5 54L7 54L7 53L5 53L5 52L8 52L8 51L9 51L9 52L10 52L10 49L9 49L9 50L8 50L8 49L6 49L6 50L7 50L7 51L3 51L3 50L5 50L5 49L4 49L4 48L3 48L3 47L4 47L4 45L5 45L5 44L7 44L7 45L6 45L6 46L5 46L5 48L7 48L7 47L8 47L8 48L9 48L9 47L10 47L10 48L11 48L11 52L12 52L12 53L11 53L11 54L10 54L10 53L9 53L9 54L10 54L10 56L11 56L11 54L13 54L13 57L14 57L14 58L13 58L13 59L14 59L14 58L15 58L15 59L16 59L16 58L17 58L17 59L19 59L19 57L18 57L18 58L17 58L17 57L16 57L16 58L15 58L15 57L14 57L14 56L15 56L15 55L16 55L16 56L18 56L18 55L19 55L19 54L20 54L20 55L21 55L21 53L22 53L22 55L23 55L23 56L21 56L21 57L20 57L20 58L22 58L22 59L23 59L23 60L24 60L24 59L25 59L25 61L27 61L27 60L26 60L26 59L27 59L27 58L29 58L29 59L28 59L28 60L29 60L29 61L30 61L30 58L29 58L29 57L30 57L30 56L31 56L31 52L33 52L33 53L32 53L32 56L33 56L33 53L34 53L34 55L35 55L35 59L36 59L36 60L37 60L37 61L38 61L38 62L39 62L39 61L38 61L38 60L39 60L39 59L36 59L36 58L37 58L37 57L36 57L36 56L37 56L37 55L38 55L38 58L39 58L39 55L38 55L38 54L39 54L39 53L41 53L41 54L40 54L40 55L41 55L41 56L40 56L40 57L41 57L41 58L42 58L42 59L41 59L41 60L40 60L40 62L41 62L41 63L43 63L43 64L44 64L44 63L45 63L45 60L46 60L46 62L47 62L47 59L48 59L48 60L49 60L49 62L51 62L51 63L54 63L54 64L55 64L55 63L57 63L57 64L59 64L59 63L58 63L58 62L59 62L59 61L58 61L58 62L56 62L56 61L55 61L55 60L56 60L56 59L55 59L55 58L56 58L56 56L58 56L58 55L59 55L59 56L63 56L63 55L62 55L62 54L64 54L64 53L62 53L62 52L63 52L63 51L62 51L62 52L60 52L60 51L61 51L61 50L58 50L58 51L57 51L57 48L55 48L55 50L52 50L52 51L51 51L51 53L50 53L50 52L49 52L49 51L50 51L50 50L51 50L51 49L50 49L50 50L49 50L49 49L47 49L47 48L49 48L49 47L50 47L50 48L52 48L52 49L53 49L53 48L54 48L54 47L53 47L53 46L52 46L52 47L50 47L50 46L51 46L51 44L52 44L52 45L54 45L54 44L55 44L55 43L56 43L56 42L57 42L57 41L56 41L56 40L57 40L57 39L60 39L60 37L61 37L61 36L57 36L57 35L56 35L56 34L53 34L53 35L54 35L54 37L55 37L55 38L54 38L54 39L53 39L53 38L52 38L52 37L53 37L53 36L49 36L49 35L46 35L46 36L47 36L47 37L45 37L45 36L44 36L44 35L45 35L45 34L48 34L48 32L49 32L49 33L50 33L50 34L51 34L51 33L50 33L50 32L52 32L52 33L53 33L53 32L55 32L55 33L56 33L56 31L55 31L55 30L54 30L54 29L53 29L53 28L52 28L52 29L53 29L53 32L52 32L52 31L50 31L50 30L51 30L51 27L48 27L48 26L49 26L49 25L50 25L50 26L51 26L51 24L49 24L49 23L50 23L50 22L48 22L48 23L47 23L47 24L46 24L46 23L45 23L45 22L44 22L44 21L46 21L46 20L44 20L44 19L43 19L43 18L42 18L42 17L41 17L41 16L39 16L39 15L40 15L40 13L42 13L42 12L44 12L44 11L45 11L45 10L47 10L47 8L49 8L49 7L50 7L50 5L51 5L51 4L53 4L53 3L51 3L51 2L50 2L50 3L51 3L51 4L50 4L50 5L49 5L49 4L47 4L47 3L46 3L46 2L45 2L45 3L44 3L44 2L43 2L43 1L42 1L42 3L40 3L40 4L38 4L38 5L37 5L37 4L36 4L36 3L35 3L35 7L36 7L36 8L37 8L37 7L38 7L38 5L40 5L40 4L41 4L41 7L42 7L42 9L43 9L43 8L44 8L44 9L45 9L45 10L44 10L44 11L43 11L43 10L42 10L42 12L40 12L40 11L41 11L41 10L40 10L40 11L37 11L37 10L36 10L36 9L33 9L33 10L30 10L30 8L29 8L29 9L28 9L28 11L27 11L27 12L26 12L26 13L27 13L27 16L26 16L26 17L25 17L25 15L26 15L26 14L25 14L25 13L24 13L24 11L25 11L25 10L21 10L21 9L20 9L20 8L21 8L21 7L20 7L20 5L18 5L18 6L17 6L17 4L18 4L18 3L17 3L17 2L18 2L18 1ZM24 1L24 2L25 2L25 1ZM39 1L39 2L40 2L40 1ZM12 3L12 4L13 4L13 3ZM32 3L32 4L33 4L33 3ZM42 3L42 5L45 5L45 4L46 4L46 3L45 3L45 4L44 4L44 3ZM23 4L23 5L24 5L24 7L25 7L25 4ZM31 5L31 8L34 8L34 5ZM36 5L36 7L37 7L37 5ZM46 5L46 7L45 7L45 6L44 6L44 8L46 8L46 7L47 7L47 5ZM48 5L48 7L49 7L49 5ZM52 5L52 6L53 6L53 5ZM18 6L18 9L19 9L19 10L18 10L18 11L17 11L17 10L16 10L16 11L17 11L17 13L19 13L19 14L18 14L18 17L21 17L21 14L24 14L24 13L19 13L19 12L21 12L21 10L20 10L20 9L19 9L19 6ZM29 6L29 7L30 7L30 6ZM32 6L32 7L33 7L33 6ZM39 6L39 7L40 7L40 6ZM42 6L42 7L43 7L43 6ZM56 6L56 7L57 7L57 6ZM12 7L12 8L13 8L13 7ZM0 8L0 9L3 9L3 11L5 11L5 8ZM39 8L39 9L38 9L38 10L39 10L39 9L41 9L41 8ZM59 8L59 9L60 9L60 8ZM10 9L10 10L11 10L11 9ZM51 9L51 10L50 10L50 12L48 12L48 13L47 13L47 12L46 12L46 13L47 13L47 14L45 14L45 15L44 15L44 16L45 16L45 17L47 17L47 16L48 16L48 17L49 17L49 16L51 16L51 17L52 17L52 16L53 16L53 15L54 15L54 16L55 16L55 17L53 17L53 18L55 18L55 17L59 17L59 16L58 16L58 15L59 15L59 14L57 14L57 16L55 16L55 15L54 15L54 14L55 14L55 13L51 13L51 14L50 14L50 12L51 12L51 11L52 11L52 12L53 12L53 11L52 11L52 10L53 10L53 9ZM0 10L0 11L1 11L1 10ZM7 10L7 11L8 11L8 10ZM33 10L33 11L28 11L28 12L31 12L31 13L30 13L30 14L29 14L29 15L28 15L28 16L27 16L27 17L26 17L26 18L25 18L25 17L24 17L24 15L23 15L23 17L22 17L22 19L21 19L21 18L20 18L20 21L21 21L21 22L19 22L19 21L18 21L18 20L17 20L17 21L16 21L16 22L15 22L15 23L16 23L16 24L15 24L15 25L14 25L14 26L13 26L13 28L14 28L14 31L13 31L13 29L12 29L12 30L11 30L11 31L10 31L10 32L11 32L11 31L12 31L12 33L11 33L11 35L10 35L10 36L9 36L9 37L11 37L11 38L13 38L13 40L14 40L14 41L15 41L15 40L14 40L14 38L15 38L15 39L16 39L16 41L17 41L17 40L18 40L18 41L19 41L19 42L18 42L18 43L19 43L19 44L17 44L17 45L16 45L16 43L17 43L17 42L15 42L15 43L13 43L13 44L14 44L14 46L13 46L13 47L16 47L16 49L17 49L17 50L16 50L16 52L14 52L14 50L15 50L15 48L13 48L13 49L14 49L14 50L12 50L12 52L14 52L14 55L15 55L15 53L18 53L18 54L17 54L17 55L18 55L18 54L19 54L19 53L18 53L18 52L17 52L17 51L18 51L18 49L19 49L19 48L20 48L20 49L21 49L21 50L22 50L22 51L19 51L19 52L20 52L20 53L21 53L21 52L22 52L22 53L23 53L23 52L24 52L24 51L26 51L26 52L25 52L25 53L24 53L24 54L25 54L25 55L29 55L29 56L27 56L27 57L26 57L26 58L27 58L27 57L29 57L29 56L30 56L30 54L28 54L28 53L29 53L29 52L28 52L28 51L30 51L30 52L31 52L31 51L30 51L30 50L32 50L32 51L33 51L33 52L34 52L34 53L35 53L35 54L37 54L37 52L35 52L35 51L36 51L36 50L37 50L37 51L38 51L38 53L39 53L39 51L40 51L40 52L41 52L41 51L40 51L40 50L43 50L43 51L42 51L42 52L46 52L46 53L47 53L47 52L48 52L48 53L49 53L49 55L51 55L51 56L50 56L50 57L49 57L49 56L47 56L47 54L45 54L45 53L44 53L44 54L45 54L45 55L44 55L44 56L45 56L45 58L46 58L46 59L47 59L47 58L48 58L48 59L51 59L51 60L50 60L50 61L51 61L51 62L52 62L52 60L53 60L53 61L54 61L54 62L55 62L55 61L54 61L54 60L53 60L53 58L55 58L55 56L56 56L56 55L57 55L57 54L56 54L56 53L51 53L51 54L50 54L50 53L49 53L49 52L48 52L48 51L49 51L49 50L48 50L48 51L47 51L47 50L45 50L45 51L44 51L44 49L42 49L42 48L43 48L43 47L42 47L42 48L41 48L41 47L40 47L40 46L43 46L43 45L44 45L44 46L45 46L45 47L44 47L44 48L47 48L47 47L49 47L49 44L51 44L51 42L50 42L50 43L49 43L49 41L51 41L51 40L53 40L53 39L52 39L52 38L50 38L50 37L49 37L49 36L48 36L48 38L50 38L50 40L48 40L48 39L47 39L47 38L46 38L46 39L45 39L45 37L44 37L44 40L45 40L45 42L43 42L43 39L42 39L42 38L43 38L43 37L42 37L42 38L40 38L40 39L39 39L39 38L37 38L37 36L35 36L35 33L37 33L37 32L36 32L36 31L37 31L37 30L38 30L38 33L39 33L39 32L41 32L41 31L42 31L42 32L43 32L43 33L41 33L41 34L36 34L36 35L39 35L39 36L38 36L38 37L40 37L40 36L41 36L41 35L42 35L42 34L43 34L43 33L44 33L44 34L45 34L45 33L46 33L46 32L45 32L45 30L44 30L44 28L45 28L45 27L46 27L46 29L49 29L49 30L48 30L48 31L49 31L49 30L50 30L50 28L48 28L48 27L47 27L47 26L46 26L46 24L45 24L45 23L42 23L42 22L43 22L43 21L44 21L44 20L43 20L43 19L42 19L42 20L43 20L43 21L42 21L42 22L40 22L40 21L39 21L39 22L38 22L38 23L37 23L37 24L36 24L36 25L35 25L35 26L33 26L33 25L34 25L34 24L35 24L35 23L36 23L36 22L37 22L37 20L38 20L38 19L40 19L40 20L41 20L41 19L40 19L40 18L36 18L36 17L37 17L37 16L35 16L35 14L34 14L34 13L37 13L37 15L39 15L39 14L38 14L38 13L39 13L39 12L38 12L38 13L37 13L37 12L36 12L36 10ZM18 11L18 12L19 12L19 11ZM0 12L0 13L2 13L2 12ZM11 12L11 13L12 13L12 12ZM15 12L15 13L16 13L16 12ZM32 12L32 13L34 13L34 12ZM3 13L3 14L4 14L4 13ZM19 14L19 15L20 15L20 14ZM48 14L48 16L49 16L49 15L50 15L50 14ZM52 14L52 15L51 15L51 16L52 16L52 15L53 15L53 14ZM6 15L6 16L5 16L5 17L3 17L3 18L7 18L7 19L6 19L6 20L8 20L8 19L9 19L9 18L7 18L7 17L9 17L9 15ZM31 15L31 16L30 16L30 17L27 17L27 21L25 21L25 20L26 20L26 19L25 19L25 18L23 18L23 21L22 21L22 20L21 20L21 21L22 21L22 23L24 23L24 22L23 22L23 21L25 21L25 24L24 24L24 25L27 25L27 26L24 26L24 28L26 28L26 29L25 29L25 30L26 30L26 32L24 32L24 31L23 31L23 30L24 30L24 29L23 29L23 27L22 27L22 25L23 25L23 24L22 24L22 25L20 25L20 23L18 23L18 21L17 21L17 24L19 24L19 25L18 25L18 26L19 26L19 25L20 25L20 26L21 26L21 28L20 28L20 29L18 29L18 31L17 31L17 25L16 25L16 27L15 27L15 26L14 26L14 28L15 28L15 29L16 29L16 30L15 30L15 31L14 31L14 32L13 32L13 33L14 33L14 34L13 34L13 35L12 35L12 36L11 36L11 37L12 37L12 36L13 36L13 38L14 38L14 37L15 37L15 36L13 36L13 35L14 35L14 34L17 34L17 35L16 35L16 36L17 36L17 37L16 37L16 39L17 39L17 37L18 37L18 36L17 36L17 35L18 35L18 34L19 34L19 36L22 36L22 37L20 37L20 38L18 38L18 39L21 39L21 38L23 38L23 40L22 40L22 41L25 41L25 42L24 42L24 43L25 43L25 45L24 45L24 44L23 44L23 42L21 42L21 41L20 41L20 40L19 40L19 41L20 41L20 42L19 42L19 43L20 43L20 44L19 44L19 45L17 45L17 48L19 48L19 47L20 47L20 46L19 46L19 45L21 45L21 44L22 44L22 45L24 45L24 46L23 46L23 47L21 47L21 49L23 49L23 47L24 47L24 49L25 49L25 48L26 48L26 49L27 49L27 50L30 50L30 49L27 49L27 48L28 48L28 47L27 47L27 46L26 46L26 45L27 45L27 43L29 43L29 44L31 44L31 47L29 47L29 48L32 48L32 46L34 46L34 47L35 47L35 48L34 48L34 49L32 49L32 50L33 50L33 51L35 51L35 50L36 50L36 48L38 48L38 49L37 49L37 50L39 50L39 49L41 49L41 48L39 48L39 47L36 47L36 45L35 45L35 44L33 44L33 45L32 45L32 44L31 44L31 43L29 43L29 42L30 42L30 41L27 41L27 40L28 40L28 39L29 39L29 40L30 40L30 39L31 39L31 42L32 42L32 43L33 43L33 41L34 41L34 43L36 43L36 44L37 44L37 43L38 43L38 46L39 46L39 45L43 45L43 44L44 44L44 45L45 45L45 46L48 46L48 44L49 44L49 43L46 43L46 42L47 42L47 41L46 41L46 42L45 42L45 43L46 43L46 44L47 44L47 45L45 45L45 44L44 44L44 43L43 43L43 42L42 42L42 40L38 40L38 39L36 39L36 38L35 38L35 37L32 37L32 36L34 36L34 35L32 35L32 36L31 36L31 37L28 37L28 39L27 39L27 35L28 35L28 36L30 36L30 35L29 35L29 33L30 33L30 31L28 31L28 32L27 32L27 30L30 30L30 29L31 29L31 28L32 28L32 29L33 29L33 30L35 30L35 29L33 29L33 28L32 28L32 27L33 27L33 26L32 26L32 25L33 25L33 24L34 24L34 23L33 23L33 24L32 24L32 23L31 23L31 24L30 24L30 22L36 22L36 20L37 20L37 19L34 19L34 18L35 18L35 17L34 17L34 18L33 18L33 16L32 16L32 15ZM46 15L46 16L47 16L47 15ZM6 16L6 17L7 17L7 16ZM31 16L31 17L30 17L30 18L32 18L32 19L29 19L29 18L28 18L28 19L29 19L29 20L28 20L28 21L29 21L29 22L26 22L26 24L27 24L27 25L29 25L29 26L30 26L30 28L31 28L31 25L32 25L32 24L31 24L31 25L29 25L29 24L28 24L28 23L29 23L29 22L30 22L30 20L31 20L31 21L32 21L32 20L33 20L33 21L35 21L35 20L34 20L34 19L33 19L33 18L32 18L32 16ZM38 16L38 17L39 17L39 16ZM61 16L61 18L62 18L62 16ZM48 18L48 19L49 19L49 18ZM50 18L50 19L52 19L52 20L53 20L53 22L55 22L55 21L54 21L54 20L55 20L55 19L52 19L52 18ZM24 19L24 20L25 20L25 19ZM6 21L6 22L8 22L8 21ZM58 21L58 22L59 22L59 24L58 24L58 23L57 23L57 25L56 25L56 26L57 26L57 25L58 25L58 26L60 26L60 24L61 24L61 27L59 27L59 28L58 28L58 30L60 30L60 28L61 28L61 27L62 27L62 28L63 28L63 27L62 27L62 26L63 26L63 25L62 25L62 24L61 24L61 22L59 22L59 21ZM39 22L39 23L38 23L38 24L37 24L37 25L38 25L38 26L36 26L36 28L39 28L39 29L38 29L38 30L39 30L39 31L41 31L41 30L40 30L40 29L41 29L41 28L39 28L39 27L38 27L38 26L39 26L39 25L43 25L43 26L40 26L40 27L43 27L43 28L44 28L44 27L45 27L45 26L44 26L44 25L45 25L45 24L44 24L44 25L43 25L43 24L42 24L42 23L41 23L41 24L40 24L40 22ZM12 24L12 25L11 25L11 26L12 26L12 25L13 25L13 24ZM47 24L47 25L49 25L49 24ZM3 27L3 28L4 28L4 29L5 29L5 28L6 28L6 29L7 29L7 28L6 28L6 27L5 27L5 28L4 28L4 27ZM26 27L26 28L28 28L28 29L29 29L29 28L28 28L28 27ZM34 27L34 28L35 28L35 27ZM21 29L21 32L19 32L19 31L20 31L20 30L19 30L19 31L18 31L18 33L21 33L21 34L20 34L20 35L22 35L22 34L23 34L23 35L24 35L24 34L25 34L25 33L24 33L24 34L23 34L23 33L21 33L21 32L23 32L23 31L22 31L22 30L23 30L23 29ZM26 29L26 30L27 30L27 29ZM56 29L56 30L57 30L57 29ZM42 30L42 31L44 31L44 30ZM46 30L46 31L47 31L47 30ZM5 31L5 34L8 34L8 31ZM15 31L15 32L14 32L14 33L17 33L17 32L16 32L16 31ZM31 31L31 34L34 34L34 31ZM57 31L57 34L60 34L60 31ZM6 32L6 33L7 33L7 32ZM28 32L28 33L29 33L29 32ZM32 32L32 33L33 33L33 32ZM44 32L44 33L45 33L45 32ZM58 32L58 33L59 33L59 32ZM61 32L61 35L62 35L62 36L63 36L63 35L62 35L62 34L63 34L63 33L62 33L62 32ZM26 33L26 34L27 34L27 33ZM25 35L25 36L26 36L26 35ZM55 35L55 36L56 36L56 35ZM1 36L1 37L2 37L2 36ZM23 36L23 38L26 38L26 37L24 37L24 36ZM31 37L31 38L32 38L32 39L33 39L33 40L32 40L32 41L33 41L33 40L35 40L35 41L37 41L37 42L36 42L36 43L37 43L37 42L38 42L38 43L40 43L40 44L41 44L41 43L40 43L40 42L41 42L41 41L39 41L39 42L38 42L38 41L37 41L37 40L36 40L36 39L34 39L34 38L32 38L32 37ZM56 37L56 38L57 38L57 37ZM58 37L58 38L59 38L59 37ZM63 37L63 38L61 38L61 40L58 40L58 41L62 41L62 40L63 40L63 38L64 38L64 37ZM1 38L1 39L2 39L2 38ZM29 38L29 39L30 39L30 38ZM24 39L24 40L27 40L27 39ZM46 39L46 40L47 40L47 39ZM54 39L54 40L56 40L56 39ZM6 40L6 41L7 41L7 40ZM26 41L26 42L25 42L25 43L26 43L26 42L27 42L27 41ZM52 41L52 44L54 44L54 43L53 43L53 42L55 42L55 41ZM42 43L42 44L43 44L43 43ZM60 44L60 45L62 45L62 44ZM7 45L7 46L6 46L6 47L7 47L7 46L8 46L8 47L9 47L9 46L10 46L10 47L12 47L12 46L10 46L10 45L9 45L9 46L8 46L8 45ZM15 45L15 46L16 46L16 45ZM28 45L28 46L30 46L30 45ZM18 46L18 47L19 47L19 46ZM26 47L26 48L27 48L27 47ZM52 47L52 48L53 48L53 47ZM34 49L34 50L35 50L35 49ZM23 50L23 51L24 51L24 50ZM55 50L55 51L54 51L54 52L57 52L57 51L56 51L56 50ZM46 51L46 52L47 52L47 51ZM52 51L52 52L53 52L53 51ZM58 51L58 54L59 54L59 53L60 53L60 54L61 54L61 53L60 53L60 52L59 52L59 51ZM25 53L25 54L27 54L27 53ZM42 53L42 54L43 54L43 53ZM52 54L52 55L54 55L54 56L51 56L51 57L50 57L50 58L51 58L51 59L52 59L52 57L54 57L54 56L55 56L55 55L56 55L56 54ZM42 55L42 56L43 56L43 55ZM23 56L23 57L22 57L22 58L25 58L25 57L24 57L24 56ZM9 57L9 58L11 58L11 57ZM31 57L31 60L34 60L34 57ZM42 57L42 58L43 58L43 61L42 61L42 60L41 60L41 61L42 61L42 62L43 62L43 63L44 63L44 60L45 60L45 59L44 59L44 57ZM46 57L46 58L47 58L47 57ZM48 57L48 58L49 58L49 57ZM57 57L57 60L60 60L60 57ZM32 58L32 59L33 59L33 58ZM58 58L58 59L59 59L59 58ZM23 61L23 62L24 62L24 61ZM60 61L60 62L61 62L61 61ZM62 61L62 64L63 64L63 61ZM32 62L32 63L33 63L33 62ZM12 63L12 64L13 64L13 63ZM46 63L46 64L47 64L47 63ZM48 63L48 64L49 64L49 63ZM20 64L20 65L21 65L21 64ZM30 64L30 65L31 65L31 64ZM36 64L36 65L37 65L37 64ZM38 64L38 65L39 65L39 64ZM0 0L0 7L7 7L7 0ZM1 1L1 6L6 6L6 1ZM2 2L2 5L5 5L5 2ZM58 0L58 7L65 7L65 0ZM59 1L59 6L64 6L64 1ZM60 2L60 5L63 5L63 2ZM0 58L0 65L7 65L7 58ZM1 59L1 64L6 64L6 59ZM2 60L2 63L5 63L5 60Z" fill="#000000"/></g></g></svg>
