<?xml version="1.0" encoding="UTF-8"?>
<svg xmlns="http://www.w3.org/2000/svg" version="1.1" width="300" height="300" viewBox="0 0 300 300"><rect x="0" y="0" width="300" height="300" fill="#ffffff"/><g transform="scale(4.615)"><g transform="translate(0,0)"><path fill-rule="evenodd" d="M10 0L10 1L8 1L8 2L9 2L9 3L8 3L8 4L9 4L9 3L10 3L10 1L11 1L11 2L12 2L12 3L11 3L11 4L12 4L12 5L14 5L14 7L15 7L15 8L16 8L16 10L15 10L15 9L14 9L14 8L12 8L12 7L13 7L13 6L12 6L12 7L11 7L11 6L10 6L10 7L9 7L9 5L8 5L8 7L9 7L9 8L6 8L6 9L9 9L9 8L10 8L10 9L11 9L11 11L9 11L9 10L8 10L8 12L6 12L6 13L8 13L8 12L10 12L10 14L9 14L9 15L7 15L7 14L4 14L4 16L3 16L3 13L2 13L2 12L4 12L4 13L5 13L5 10L4 10L4 9L5 9L5 8L0 8L0 10L1 10L1 9L2 9L2 11L1 11L1 13L2 13L2 14L1 14L1 15L0 15L0 16L1 16L1 17L0 17L0 18L1 18L1 19L0 19L0 21L1 21L1 22L2 22L2 21L3 21L3 20L4 20L4 21L7 21L7 22L6 22L6 23L7 23L7 22L11 22L11 19L9 19L9 20L10 20L10 21L7 21L7 20L6 20L6 19L7 19L7 18L9 18L9 17L10 17L10 18L11 18L11 17L10 17L10 16L14 16L14 17L13 17L13 18L14 18L14 20L13 20L13 22L12 22L12 23L11 23L11 25L10 25L10 23L8 23L8 24L9 24L9 26L8 26L8 25L7 25L7 24L3 24L3 23L4 23L4 22L3 22L3 23L2 23L2 24L0 24L0 25L1 25L1 26L0 26L0 28L2 28L2 30L1 30L1 29L0 29L0 32L1 32L1 33L0 33L0 34L1 34L1 35L0 35L0 36L1 36L1 35L3 35L3 37L2 37L2 38L3 38L3 41L2 41L2 40L1 40L1 41L0 41L0 42L1 42L1 45L2 45L2 46L0 46L0 48L1 48L1 47L2 47L2 48L3 48L3 47L2 47L2 46L4 46L4 48L5 48L5 50L4 50L4 52L3 52L3 50L2 50L2 49L0 49L0 50L2 50L2 51L1 51L1 54L2 54L2 55L3 55L3 56L1 56L1 55L0 55L0 56L1 56L1 57L3 57L3 56L4 56L4 57L5 57L5 56L4 56L4 54L5 54L5 55L8 55L8 56L6 56L6 57L8 57L8 59L11 59L11 61L9 61L9 60L8 60L8 65L9 65L9 63L11 63L11 64L10 64L10 65L13 65L13 64L12 64L12 62L15 62L15 63L14 63L14 64L15 64L15 65L21 65L21 64L24 64L24 63L22 63L22 62L24 62L24 61L25 61L25 60L26 60L26 58L27 58L27 61L26 61L26 63L25 63L25 65L26 65L26 63L28 63L28 65L31 65L31 64L33 64L33 65L37 65L37 64L33 64L33 63L35 63L35 62L36 62L36 63L37 63L37 61L38 61L38 60L41 60L41 61L40 61L40 62L44 62L44 64L46 64L46 65L50 65L50 63L51 63L51 64L53 64L53 65L54 65L54 64L55 64L55 65L57 65L57 64L55 64L55 63L51 63L51 62L52 62L52 60L53 60L53 62L55 62L55 61L56 61L56 62L57 62L57 63L58 63L58 62L59 62L59 64L58 64L58 65L63 65L63 64L64 64L64 61L65 61L65 60L64 60L64 58L65 58L65 57L64 57L64 56L65 56L65 55L63 55L63 54L65 54L65 53L64 53L64 52L62 52L62 51L63 51L63 50L61 50L61 49L60 49L60 48L61 48L61 47L63 47L63 45L64 45L64 44L65 44L65 43L64 43L64 42L65 42L65 41L64 41L64 42L61 42L61 41L63 41L63 40L64 40L64 38L65 38L65 37L64 37L64 36L65 36L65 35L64 35L64 34L65 34L65 33L64 33L64 32L65 32L65 31L64 31L64 32L62 32L62 31L61 31L61 30L63 30L63 29L65 29L65 27L64 27L64 26L65 26L65 25L64 25L64 24L65 24L65 23L64 23L64 22L65 22L65 21L64 21L64 20L65 20L65 19L63 19L63 17L64 17L64 18L65 18L65 15L64 15L64 16L62 16L62 18L61 18L61 16L60 16L60 18L58 18L58 17L59 17L59 16L58 16L58 15L62 15L62 14L63 14L63 12L64 12L64 10L65 10L65 9L64 9L64 8L63 8L63 9L62 9L62 8L61 8L61 9L62 9L62 11L63 11L63 12L62 12L62 13L61 13L61 12L60 12L60 14L56 14L56 13L57 13L57 12L58 12L58 11L59 11L59 10L57 10L57 12L56 12L56 13L55 13L55 11L56 11L56 10L55 10L55 9L58 9L58 8L54 8L54 7L55 7L55 5L54 5L54 4L56 4L56 5L57 5L57 4L56 4L56 3L57 3L57 1L56 1L56 0L55 0L55 1L56 1L56 3L55 3L55 2L54 2L54 3L53 3L53 2L52 2L52 1L54 1L54 0L51 0L51 1L49 1L49 0L47 0L47 1L46 1L46 0L44 0L44 1L45 1L45 2L44 2L44 3L45 3L45 4L47 4L47 3L46 3L46 2L48 2L48 1L49 1L49 2L51 2L51 3L48 3L48 4L49 4L49 5L50 5L50 7L51 7L51 8L50 8L50 9L49 9L49 8L48 8L48 7L49 7L49 6L48 6L48 7L47 7L47 5L46 5L46 7L45 7L45 5L44 5L44 4L42 4L42 5L41 5L41 6L40 6L40 5L37 5L37 6L36 6L36 4L37 4L37 3L36 3L36 2L37 2L37 1L36 1L36 2L35 2L35 1L32 1L32 0L29 0L29 1L27 1L27 0L24 0L24 1L25 1L25 2L26 2L26 3L25 3L25 4L24 4L24 5L22 5L22 4L23 4L23 0L22 0L22 2L21 2L21 3L20 3L20 2L19 2L19 4L18 4L18 3L17 3L17 4L18 4L18 7L19 7L19 4L21 4L21 5L20 5L20 7L21 7L21 6L22 6L22 7L23 7L23 6L24 6L24 7L25 7L25 9L21 9L21 8L20 8L20 9L21 9L21 10L19 10L19 11L20 11L20 12L18 12L18 13L17 13L17 14L18 14L18 15L20 15L20 14L18 14L18 13L20 13L20 12L23 12L23 13L22 13L22 14L21 14L21 15L22 15L22 14L23 14L23 15L24 15L24 16L23 16L23 17L22 17L22 16L20 16L20 17L19 17L19 16L18 16L18 17L17 17L17 18L16 18L16 17L15 17L15 16L14 16L14 14L13 14L13 13L16 13L16 11L17 11L17 10L18 10L18 9L19 9L19 8L16 8L16 7L17 7L17 6L16 6L16 4L15 4L15 3L14 3L14 2L13 2L13 1L12 1L12 0ZM14 0L14 1L16 1L16 2L18 2L18 1L17 1L17 0ZM39 0L39 1L38 1L38 2L39 2L39 3L38 3L38 4L39 4L39 3L41 3L41 1L43 1L43 0L41 0L41 1L40 1L40 0ZM29 1L29 2L28 2L28 3L29 3L29 4L25 4L25 5L24 5L24 6L25 6L25 7L26 7L26 6L27 6L27 7L28 7L28 8L26 8L26 9L25 9L25 10L24 10L24 11L23 11L23 10L22 10L22 11L23 11L23 12L24 12L24 11L25 11L25 10L26 10L26 9L27 9L27 10L31 10L31 9L28 9L28 8L29 8L29 7L30 7L30 6L29 6L29 7L28 7L28 6L27 6L27 5L30 5L30 4L33 4L33 3L34 3L34 4L35 4L35 3L34 3L34 2L33 2L33 3L32 3L32 1ZM39 1L39 2L40 2L40 1ZM30 2L30 3L31 3L31 2ZM12 3L12 4L14 4L14 5L15 5L15 4L14 4L14 3ZM21 3L21 4L22 4L22 3ZM52 3L52 5L53 5L53 3ZM50 4L50 5L51 5L51 4ZM25 5L25 6L26 6L26 5ZM31 5L31 8L34 8L34 5ZM42 5L42 6L41 6L41 8L40 8L40 6L39 6L39 8L38 8L38 9L37 9L37 10L35 10L35 9L32 9L32 11L31 11L31 12L29 12L29 11L28 11L28 12L26 12L26 13L25 13L25 15L28 15L28 16L29 16L29 15L31 15L31 16L30 16L30 17L28 17L28 18L26 18L26 17L27 17L27 16L26 16L26 17L25 17L25 16L24 16L24 17L23 17L23 18L22 18L22 17L20 17L20 18L19 18L19 17L18 17L18 18L17 18L17 19L18 19L18 18L19 18L19 23L18 23L18 22L17 22L17 21L18 21L18 20L16 20L16 19L15 19L15 21L16 21L16 22L15 22L15 23L16 23L16 24L17 24L17 23L18 23L18 24L19 24L19 23L22 23L22 22L23 22L23 23L24 23L24 25L25 25L25 23L24 23L24 22L23 22L23 20L24 20L24 21L26 21L26 22L27 22L27 19L28 19L28 18L30 18L30 17L31 17L31 18L35 18L35 20L34 20L34 19L33 19L33 20L32 20L32 19L31 19L31 20L29 20L29 21L28 21L28 22L29 22L29 21L31 21L31 22L30 22L30 23L31 23L31 24L29 24L29 25L28 25L28 27L27 27L27 28L26 28L26 27L25 27L25 26L22 26L22 27L21 27L21 25L23 25L23 24L21 24L21 25L20 25L20 26L19 26L19 25L13 25L13 24L12 24L12 26L10 26L10 27L9 27L9 28L7 28L7 27L6 27L6 26L7 26L7 25L5 25L5 27L6 27L6 28L5 28L5 29L4 29L4 30L3 30L3 31L2 31L2 32L3 32L3 33L1 33L1 34L3 34L3 35L4 35L4 34L3 34L3 33L4 33L4 30L5 30L5 29L6 29L6 30L7 30L7 29L9 29L9 31L10 31L10 32L9 32L9 33L10 33L10 32L11 32L11 34L9 34L9 35L8 35L8 36L9 36L9 35L11 35L11 39L12 39L12 40L14 40L14 42L15 42L15 43L16 43L16 44L13 44L13 43L12 43L12 42L11 42L11 43L10 43L10 42L7 42L7 41L9 41L9 40L8 40L8 39L6 39L6 38L7 38L7 37L6 37L6 36L7 36L7 35L6 35L6 36L5 36L5 37L6 37L6 38L5 38L5 39L4 39L4 41L3 41L3 44L2 44L2 45L3 45L3 44L4 44L4 45L6 45L6 46L5 46L5 47L6 47L6 48L7 48L7 47L11 47L11 48L10 48L10 50L9 50L9 51L11 51L11 52L7 52L7 51L6 51L6 50L7 50L7 49L6 49L6 50L5 50L5 52L7 52L7 53L5 53L5 54L7 54L7 53L10 53L10 54L12 54L12 51L11 51L11 50L12 50L12 49L13 49L13 51L14 51L14 52L13 52L13 54L14 54L14 53L15 53L15 56L14 56L14 57L13 57L13 58L12 58L12 56L13 56L13 55L12 55L12 56L11 56L11 57L9 57L9 56L10 56L10 55L9 55L9 54L8 54L8 55L9 55L9 56L8 56L8 57L9 57L9 58L11 58L11 59L12 59L12 61L13 61L13 60L15 60L15 59L17 59L17 60L16 60L16 61L15 61L15 62L16 62L16 61L17 61L17 60L19 60L19 61L18 61L18 62L17 62L17 64L19 64L19 63L20 63L20 62L19 62L19 61L24 61L24 59L25 59L25 58L26 58L26 57L28 57L28 58L29 58L29 60L28 60L28 61L27 61L27 62L28 62L28 61L29 61L29 64L31 64L31 63L30 63L30 62L32 62L32 63L33 63L33 62L34 62L34 61L33 61L33 62L32 62L32 61L29 61L29 60L30 60L30 58L29 58L29 57L30 57L30 56L32 56L32 54L33 54L33 53L31 53L31 55L29 55L29 54L30 54L30 53L28 53L28 55L27 55L27 52L28 52L28 51L29 51L29 52L30 52L30 50L31 50L31 52L32 52L32 50L33 50L33 49L32 49L32 48L34 48L34 49L35 49L35 50L34 50L34 51L33 51L33 52L34 52L34 53L35 53L35 54L34 54L34 55L33 55L33 56L34 56L34 55L35 55L35 56L37 56L37 57L36 57L36 58L35 58L35 60L38 60L38 59L36 59L36 58L37 58L37 57L38 57L38 58L39 58L39 57L40 57L40 58L41 58L41 60L42 60L42 61L43 61L43 60L44 60L44 62L47 62L47 63L48 63L48 64L49 64L49 63L48 63L48 62L49 62L49 61L45 61L45 60L44 60L44 59L46 59L46 60L47 60L47 59L48 59L48 60L49 60L49 59L50 59L50 58L51 58L51 57L53 57L53 58L52 58L52 59L53 59L53 60L54 60L54 59L55 59L55 60L56 60L56 59L55 59L55 58L56 58L56 56L57 56L57 55L59 55L59 54L57 54L57 55L56 55L56 56L54 56L54 55L55 55L55 54L53 54L53 53L57 53L57 52L58 52L58 53L59 53L59 52L58 52L58 51L59 51L59 50L58 50L58 51L57 51L57 52L54 52L54 51L55 51L55 50L54 50L54 51L53 51L53 52L52 52L52 54L51 54L51 51L52 51L52 49L56 49L56 50L57 50L57 49L56 49L56 48L57 48L57 47L59 47L59 48L58 48L58 49L59 49L59 48L60 48L60 47L61 47L61 46L62 46L62 45L61 45L61 44L60 44L60 43L61 43L61 42L59 42L59 41L61 41L61 40L60 40L60 39L62 39L62 40L63 40L63 39L62 39L62 38L63 38L63 37L61 37L61 36L60 36L60 35L59 35L59 37L61 37L61 38L58 38L58 39L59 39L59 41L58 41L58 40L57 40L57 38L56 38L56 36L55 36L55 35L56 35L56 32L55 32L55 31L56 31L56 30L57 30L57 29L56 29L56 30L53 30L53 31L54 31L54 32L51 32L51 31L49 31L49 30L48 30L48 29L47 29L47 27L45 27L45 26L44 26L44 25L46 25L46 26L48 26L48 28L49 28L49 29L50 29L50 30L51 30L51 29L50 29L50 28L51 28L51 27L52 27L52 26L53 26L53 28L52 28L52 29L55 29L55 28L56 28L56 26L59 26L59 24L57 24L57 25L55 25L55 26L53 26L53 24L52 24L52 23L50 23L50 22L51 22L51 21L50 21L50 22L49 22L49 21L48 21L48 20L49 20L49 19L50 19L50 18L51 18L51 20L52 20L52 21L53 21L53 20L52 20L52 19L55 19L55 20L54 20L54 21L55 21L55 22L53 22L53 23L58 23L58 22L59 22L59 23L60 23L60 24L61 24L61 27L59 27L59 28L58 28L58 27L57 27L57 28L58 28L58 30L61 30L61 29L59 29L59 28L61 28L61 27L62 27L62 28L63 28L63 27L62 27L62 26L64 26L64 25L62 25L62 24L63 24L63 22L64 22L64 21L63 21L63 22L59 22L59 21L56 21L56 20L57 20L57 19L58 19L58 20L61 20L61 21L62 21L62 20L63 20L63 19L58 19L58 18L57 18L57 17L56 17L56 16L57 16L57 15L55 15L55 14L54 14L54 15L53 15L53 14L52 14L52 15L53 15L53 16L52 16L52 18L51 18L51 17L50 17L50 14L51 14L51 13L53 13L53 12L49 12L49 11L48 11L48 10L49 10L49 9L48 9L48 8L47 8L47 9L46 9L46 10L45 10L45 8L44 8L44 6L43 6L43 5ZM15 6L15 7L16 7L16 6ZM32 6L32 7L33 7L33 6ZM35 6L35 8L37 8L37 7L38 7L38 6L37 6L37 7L36 7L36 6ZM42 6L42 8L43 8L43 6ZM51 6L51 7L52 7L52 6ZM53 6L53 7L54 7L54 6ZM56 6L56 7L57 7L57 6ZM10 7L10 8L11 8L11 7ZM52 8L52 9L50 9L50 10L52 10L52 9L54 9L54 8ZM59 8L59 9L60 9L60 8ZM12 9L12 11L11 11L11 13L13 13L13 12L15 12L15 10L14 10L14 9ZM39 9L39 10L38 10L38 11L37 11L37 12L36 12L36 13L35 13L35 14L33 14L33 13L32 13L32 12L34 12L34 11L35 11L35 10L34 10L34 11L32 11L32 12L31 12L31 13L30 13L30 14L33 14L33 15L32 15L32 16L33 16L33 17L35 17L35 16L34 16L34 15L36 15L36 14L37 14L37 12L39 12L39 14L38 14L38 15L39 15L39 16L38 16L38 17L37 17L37 16L36 16L36 17L37 17L37 19L38 19L38 21L39 21L39 20L41 20L41 19L40 19L40 18L43 18L43 19L42 19L42 20L43 20L43 21L42 21L42 22L43 22L43 21L44 21L44 22L45 22L45 23L44 23L44 24L43 24L43 25L42 25L42 26L43 26L43 25L44 25L44 24L45 24L45 23L47 23L47 22L45 22L45 21L44 21L44 20L46 20L46 21L47 21L47 20L48 20L48 19L49 19L49 16L46 16L46 15L47 15L47 14L48 14L48 13L49 13L49 12L48 12L48 13L47 13L47 12L46 12L46 11L47 11L47 10L46 10L46 11L44 11L44 10L43 10L43 9L42 9L42 10L41 10L41 9ZM6 10L6 11L7 11L7 10ZM13 10L13 11L14 11L14 10ZM40 10L40 11L41 11L41 10ZM42 10L42 12L40 12L40 14L39 14L39 15L41 15L41 16L40 16L40 17L41 17L41 16L43 16L43 15L46 15L46 14L47 14L47 13L45 13L45 12L43 12L43 10ZM53 10L53 11L55 11L55 10ZM60 10L60 11L61 11L61 10ZM42 12L42 13L41 13L41 15L42 15L42 14L43 14L43 12ZM23 13L23 14L24 14L24 13ZM26 13L26 14L28 14L28 13ZM44 13L44 14L45 14L45 13ZM64 13L64 14L65 14L65 13ZM15 14L15 15L16 15L16 14ZM5 15L5 16L4 16L4 17L5 17L5 16L7 16L7 17L6 17L6 18L7 18L7 17L8 17L8 16L7 16L7 15ZM9 15L9 16L10 16L10 15ZM54 15L54 16L53 16L53 17L54 17L54 18L55 18L55 19L57 19L57 18L56 18L56 17L55 17L55 15ZM2 16L2 17L3 17L3 16ZM44 16L44 19L46 19L46 20L47 20L47 19L46 19L46 18L47 18L47 17L45 17L45 16ZM24 17L24 18L25 18L25 17ZM38 17L38 18L39 18L39 17ZM2 18L2 20L3 20L3 18ZM4 18L4 19L5 19L5 18ZM20 18L20 19L22 19L22 18ZM24 19L24 20L26 20L26 19ZM20 20L20 21L22 21L22 20ZM31 20L31 21L32 21L32 22L33 22L33 23L32 23L32 24L31 24L31 25L29 25L29 26L30 26L30 27L28 27L28 28L27 28L27 29L26 29L26 28L25 28L25 27L24 27L24 29L19 29L19 28L21 28L21 27L19 27L19 26L17 26L17 28L18 28L18 29L19 29L19 30L20 30L20 31L19 31L19 32L18 32L18 33L19 33L19 36L20 36L20 37L18 37L18 36L16 36L16 37L18 37L18 38L16 38L16 40L15 40L15 41L17 41L17 43L18 43L18 45L20 45L20 44L21 44L21 43L20 43L20 42L19 42L19 43L18 43L18 41L19 41L19 39L20 39L20 37L21 37L21 39L22 39L22 40L24 40L24 39L25 39L25 37L27 37L27 39L26 39L26 40L25 40L25 41L24 41L24 42L25 42L25 41L26 41L26 42L28 42L28 43L25 43L25 44L23 44L23 45L22 45L22 47L21 47L21 48L20 48L20 49L19 49L19 48L16 48L16 47L15 47L15 48L14 48L14 46L16 46L16 45L14 45L14 46L13 46L13 44L12 44L12 45L11 45L11 44L10 44L10 43L7 43L7 42L6 42L6 43L5 43L5 42L4 42L4 44L6 44L6 45L8 45L8 46L9 46L9 45L10 45L10 46L13 46L13 48L14 48L14 50L15 50L15 49L19 49L19 50L18 50L18 51L17 51L17 52L16 52L16 51L15 51L15 53L17 53L17 54L16 54L16 55L17 55L17 54L18 54L18 55L20 55L20 56L15 56L15 57L14 57L14 58L13 58L13 59L14 59L14 58L15 58L15 57L19 57L19 58L18 58L18 59L19 59L19 58L20 58L20 59L21 59L21 60L23 60L23 59L22 59L22 58L23 58L23 57L24 57L24 58L25 58L25 57L24 57L24 56L25 56L25 55L26 55L26 53L24 53L24 52L26 52L26 51L25 51L25 49L26 49L26 50L28 50L28 49L29 49L29 48L31 48L31 47L32 47L32 45L33 45L33 46L35 46L35 47L34 47L34 48L35 48L35 47L36 47L36 46L35 46L35 45L34 45L34 44L35 44L35 43L37 43L37 41L39 41L39 39L40 39L40 40L41 40L41 39L40 39L40 38L41 38L41 37L39 37L39 36L42 36L42 38L43 38L43 39L42 39L42 40L43 40L43 41L41 41L41 42L38 42L38 45L39 45L39 43L40 43L40 44L41 44L41 43L42 43L42 44L43 44L43 45L40 45L40 48L39 48L39 46L37 46L37 48L36 48L36 50L35 50L35 51L34 51L34 52L35 52L35 51L37 51L37 52L36 52L36 54L35 54L35 55L36 55L36 54L38 54L38 55L39 55L39 56L38 56L38 57L39 57L39 56L41 56L41 58L43 58L43 59L42 59L42 60L43 60L43 59L44 59L44 58L45 58L45 57L47 57L47 58L46 58L46 59L47 59L47 58L50 58L50 57L51 57L51 56L50 56L50 57L49 57L49 56L46 56L46 55L47 55L47 54L43 54L43 53L44 53L44 52L45 52L45 53L50 53L50 51L51 51L51 50L50 50L50 48L51 48L51 47L52 47L52 48L53 48L53 47L52 47L52 46L56 46L56 45L55 45L55 44L56 44L56 43L57 43L57 45L58 45L58 44L59 44L59 43L58 43L58 42L56 42L56 43L55 43L55 44L53 44L53 43L54 43L54 42L55 42L55 40L56 40L56 41L57 41L57 40L56 40L56 39L54 39L54 38L55 38L55 37L54 37L54 35L52 35L52 34L53 34L53 33L51 33L51 32L50 32L50 33L49 33L49 32L48 32L48 30L43 30L43 29L42 29L42 28L41 28L41 27L40 27L40 24L41 24L41 22L38 22L38 23L37 23L37 22L36 22L36 21L37 21L37 20L35 20L35 22L33 22L33 21L32 21L32 20ZM48 22L48 23L49 23L49 22ZM35 23L35 24L37 24L37 25L34 25L34 24L32 24L32 25L34 25L34 26L35 26L35 27L36 27L36 28L37 28L37 29L35 29L35 28L34 28L34 27L33 27L33 26L32 26L32 27L33 27L33 28L32 28L32 29L31 29L31 28L28 28L28 29L27 29L27 30L26 30L26 29L24 29L24 30L22 30L22 33L23 33L23 35L24 35L24 36L23 36L23 37L22 37L22 36L21 36L21 37L22 37L22 39L23 39L23 38L24 38L24 37L25 37L25 36L26 36L26 35L24 35L24 33L25 33L25 30L26 30L26 33L27 33L27 34L28 34L28 35L27 35L27 37L28 37L28 38L30 38L30 37L31 37L31 39L32 39L32 40L33 40L33 39L32 39L32 38L33 38L33 37L34 37L34 39L36 39L36 40L38 40L38 38L39 38L39 37L38 37L38 36L39 36L39 35L38 35L38 34L40 34L40 35L42 35L42 36L43 36L43 37L44 37L44 39L45 39L45 40L44 40L44 41L45 41L45 40L46 40L46 42L47 42L47 43L46 43L46 44L44 44L44 43L43 43L43 42L42 42L42 43L43 43L43 44L44 44L44 46L42 46L42 48L40 48L40 49L41 49L41 52L40 52L40 51L38 51L38 52L37 52L37 53L38 53L38 54L39 54L39 55L41 55L41 53L43 53L43 52L44 52L44 51L46 51L46 52L49 52L49 51L48 51L48 50L49 50L49 49L48 49L48 50L47 50L47 48L49 48L49 47L50 47L50 46L51 46L51 45L50 45L50 46L48 46L48 47L47 47L47 48L46 48L46 47L45 47L45 46L47 46L47 45L48 45L48 44L49 44L49 43L48 43L48 42L47 42L47 40L49 40L49 39L50 39L50 42L51 42L51 43L50 43L50 44L52 44L52 45L53 45L53 44L52 44L52 42L53 42L53 40L54 40L54 39L53 39L53 38L52 38L52 39L53 39L53 40L52 40L52 41L51 41L51 39L50 39L50 38L51 38L51 36L52 36L52 37L53 37L53 36L52 36L52 35L50 35L50 34L51 34L51 33L50 33L50 34L49 34L49 35L45 35L45 34L41 34L41 32L42 32L42 31L43 31L43 32L44 32L44 33L46 33L46 34L47 34L47 32L46 32L46 31L45 31L45 32L44 32L44 31L43 31L43 30L42 30L42 29L41 29L41 28L39 28L39 27L36 27L36 26L37 26L37 25L38 25L38 26L39 26L39 24L37 24L37 23ZM2 24L2 26L1 26L1 27L2 27L2 28L4 28L4 26L3 26L3 24ZM26 24L26 25L27 25L27 24ZM48 24L48 26L50 26L50 27L51 27L51 26L52 26L52 25L51 25L51 24ZM50 25L50 26L51 26L51 25ZM12 26L12 27L10 27L10 28L11 28L11 29L10 29L10 30L11 30L11 29L12 29L12 28L13 28L13 29L14 29L14 26ZM18 27L18 28L19 28L19 27ZM22 27L22 28L23 28L23 27ZM44 27L44 28L45 28L45 29L46 29L46 28L45 28L45 27ZM54 27L54 28L55 28L55 27ZM6 28L6 29L7 29L7 28ZM15 28L15 29L16 29L16 30L13 30L13 31L14 31L14 32L12 32L12 31L11 31L11 32L12 32L12 33L14 33L14 34L12 34L12 36L13 36L13 35L14 35L14 34L15 34L15 31L16 31L16 33L17 33L17 29L16 29L16 28ZM33 28L33 29L32 29L32 30L30 30L30 29L28 29L28 30L27 30L27 31L28 31L28 33L29 33L29 34L30 34L30 35L28 35L28 37L29 37L29 36L30 36L30 35L33 35L33 36L32 36L32 37L33 37L33 36L35 36L35 37L37 37L37 38L36 38L36 39L37 39L37 38L38 38L38 37L37 37L37 36L36 36L36 35L37 35L37 34L38 34L38 33L40 33L40 32L41 32L41 31L40 31L40 30L41 30L41 29L39 29L39 28L38 28L38 29L39 29L39 30L36 30L36 31L35 31L35 30L34 30L34 28ZM29 30L29 31L30 31L30 30ZM5 31L5 34L8 34L8 31ZM23 31L23 32L24 32L24 31ZM31 31L31 34L34 34L34 31ZM36 31L36 32L35 32L35 35L36 35L36 34L37 34L37 33L36 33L36 32L37 32L37 31ZM38 31L38 32L40 32L40 31ZM57 31L57 34L60 34L60 31ZM6 32L6 33L7 33L7 32ZM29 32L29 33L30 33L30 32ZM32 32L32 33L33 33L33 32ZM54 32L54 34L55 34L55 32ZM58 32L58 33L59 33L59 32ZM20 33L20 34L21 34L21 35L22 35L22 34L21 34L21 33ZM61 33L61 35L62 35L62 36L63 36L63 35L62 35L62 34L63 34L63 33ZM16 34L16 35L18 35L18 34ZM44 35L44 36L45 36L45 35ZM49 35L49 36L48 36L48 38L46 38L46 40L47 40L47 39L49 39L49 38L50 38L50 37L49 37L49 36L50 36L50 35ZM14 36L14 37L15 37L15 36ZM9 37L9 39L10 39L10 37ZM0 38L0 39L1 39L1 38ZM13 38L13 39L15 39L15 38ZM5 39L5 41L7 41L7 40L6 40L6 39ZM28 39L28 40L29 40L29 39ZM10 40L10 41L11 41L11 40ZM20 40L20 41L21 41L21 42L23 42L23 41L21 41L21 40ZM26 40L26 41L27 41L27 40ZM30 40L30 41L28 41L28 42L30 42L30 43L28 43L28 44L26 44L26 45L25 45L25 48L24 48L24 47L22 47L22 49L25 49L25 48L26 48L26 49L27 49L27 48L26 48L26 47L28 47L28 48L29 48L29 46L31 46L31 45L32 45L32 44L33 44L33 43L35 43L35 40L34 40L34 41L32 41L32 44L31 44L31 40ZM6 43L6 44L7 44L7 43ZM62 43L62 44L63 44L63 43ZM36 44L36 45L37 45L37 44ZM23 45L23 46L24 46L24 45ZM26 45L26 46L28 46L28 45ZM59 45L59 47L60 47L60 46L61 46L61 45ZM6 46L6 47L7 47L7 46ZM18 46L18 47L20 47L20 46ZM43 47L43 48L42 48L42 50L43 50L43 49L44 49L44 50L45 50L45 49L46 49L46 48L45 48L45 47ZM54 47L54 48L56 48L56 47ZM8 48L8 49L9 49L9 48ZM11 48L11 49L12 49L12 48ZM44 48L44 49L45 49L45 48ZM62 48L62 49L64 49L64 50L65 50L65 49L64 49L64 48ZM20 49L20 50L21 50L21 49ZM38 49L38 50L39 50L39 49ZM22 50L22 51L20 51L20 52L19 52L19 53L20 53L20 55L21 55L21 56L22 56L22 57L23 57L23 56L24 56L24 55L25 55L25 54L23 54L23 52L24 52L24 51L23 51L23 50ZM46 50L46 51L47 51L47 50ZM60 50L60 53L62 53L62 54L63 54L63 53L62 53L62 52L61 52L61 50ZM42 51L42 52L43 52L43 51ZM2 52L2 54L4 54L4 53L3 53L3 52ZM17 52L17 53L18 53L18 52ZM20 52L20 53L22 53L22 52ZM38 52L38 53L39 53L39 52ZM42 54L42 55L43 55L43 56L42 56L42 57L43 57L43 56L44 56L44 57L45 57L45 56L44 56L44 55L43 55L43 54ZM48 54L48 55L49 55L49 54ZM50 54L50 55L51 55L51 54ZM52 54L52 56L53 56L53 54ZM60 54L60 56L61 56L61 57L62 57L62 58L63 58L63 57L62 57L62 56L63 56L63 55L62 55L62 56L61 56L61 54ZM28 56L28 57L29 57L29 56ZM20 57L20 58L21 58L21 57ZM31 57L31 60L34 60L34 57ZM54 57L54 58L55 58L55 57ZM57 57L57 60L60 60L60 57ZM32 58L32 59L33 59L33 58ZM58 58L58 59L59 59L59 58ZM62 59L62 60L61 60L61 61L60 61L60 62L61 62L61 63L62 63L62 64L63 64L63 63L62 63L62 62L63 62L63 61L64 61L64 60L63 60L63 59ZM62 60L62 61L63 61L63 60ZM50 61L50 62L51 62L51 61ZM57 61L57 62L58 62L58 61ZM38 62L38 63L39 63L39 62ZM15 63L15 64L16 64L16 63ZM40 63L40 64L38 64L38 65L40 65L40 64L41 64L41 63ZM42 63L42 64L43 64L43 63ZM0 0L0 7L7 7L7 0ZM1 1L1 6L6 6L6 1ZM2 2L2 5L5 5L5 2ZM58 0L58 7L65 7L65 0ZM59 1L59 6L64 6L64 1ZM60 2L60 5L63 5L63 2ZM0 58L0 65L7 65L7 58ZM1 59L1 64L6 64L6 59ZM2 60L2 63L5 63L5 60Z" fill="#000000"/></g></g></svg>
