<?xml version="1.0" encoding="UTF-8"?>
<svg xmlns="http://www.w3.org/2000/svg" version="1.1" width="300" height="300" viewBox="0 0 300 300"><rect x="0" y="0" width="300" height="300" fill="#ffffff"/><g transform="scale(4.615)"><g transform="translate(0,0)"><path fill-rule="evenodd" d="M12 0L12 1L11 1L11 2L12 2L12 3L13 3L13 2L12 2L12 1L15 1L15 2L14 2L14 3L15 3L15 4L16 4L16 1L15 1L15 0ZM17 0L17 1L18 1L18 2L17 2L17 3L18 3L18 4L17 4L17 6L16 6L16 5L14 5L14 4L13 4L13 6L12 6L12 5L10 5L10 3L8 3L8 4L9 4L9 5L8 5L8 7L9 7L9 8L6 8L6 9L5 9L5 8L0 8L0 11L1 11L1 12L0 12L0 13L1 13L1 14L0 14L0 15L2 15L2 17L1 17L1 16L0 16L0 18L1 18L1 19L0 19L0 20L1 20L1 19L2 19L2 20L3 20L3 19L4 19L4 20L6 20L6 21L5 21L5 23L4 23L4 22L3 22L3 23L4 23L4 24L3 24L3 25L7 25L7 26L4 26L4 27L5 27L5 28L6 28L6 29L4 29L4 32L3 32L3 34L2 34L2 31L3 31L3 26L2 26L2 25L1 25L1 26L0 26L0 30L1 30L1 33L0 33L0 34L1 34L1 35L2 35L2 36L1 36L1 38L0 38L0 41L1 41L1 42L0 42L0 43L1 43L1 42L2 42L2 45L3 45L3 47L1 47L1 46L0 46L0 47L1 47L1 48L0 48L0 50L1 50L1 52L0 52L0 53L1 53L1 52L3 52L3 53L2 53L2 55L3 55L3 56L1 56L1 55L0 55L0 56L1 56L1 57L3 57L3 56L4 56L4 57L5 57L5 56L4 56L4 51L2 51L2 50L4 50L4 48L5 48L5 55L8 55L8 59L9 59L9 60L8 60L8 65L9 65L9 62L10 62L10 65L11 65L11 63L12 63L12 62L14 62L14 61L15 61L15 62L16 62L16 61L15 61L15 60L14 60L14 58L13 58L13 53L11 53L11 54L12 54L12 55L11 55L11 56L9 56L9 55L10 55L10 53L9 53L9 52L10 52L10 51L13 51L13 50L15 50L15 51L14 51L14 52L15 52L15 54L14 54L14 57L15 57L15 54L16 54L16 55L17 55L17 56L16 56L16 57L19 57L19 59L21 59L21 60L23 60L23 61L22 61L22 62L21 62L21 64L19 64L19 63L20 63L20 62L18 62L18 61L20 61L20 60L18 60L18 61L17 61L17 63L18 63L18 65L22 65L22 64L23 64L23 65L24 65L24 64L25 64L25 65L26 65L26 64L27 64L27 65L40 65L40 64L42 64L42 65L44 65L44 64L45 64L45 65L46 65L46 64L47 64L47 62L44 62L44 60L45 60L45 61L49 61L49 62L48 62L48 63L50 63L50 65L52 65L52 64L53 64L53 65L55 65L55 63L56 63L56 64L57 64L57 63L59 63L59 64L58 64L58 65L61 65L61 63L62 63L62 62L63 62L63 64L62 64L62 65L63 65L63 64L64 64L64 61L65 61L65 60L62 60L62 61L61 61L61 55L60 55L60 56L59 56L59 55L58 55L58 54L63 54L63 53L64 53L64 54L65 54L65 53L64 53L64 52L65 52L65 51L63 51L63 50L65 50L65 49L64 49L64 48L62 48L62 47L63 47L63 46L62 46L62 47L61 47L61 45L64 45L64 44L61 44L61 43L60 43L60 44L59 44L59 43L58 43L58 42L57 42L57 43L54 43L54 42L55 42L55 40L56 40L56 41L57 41L57 40L61 40L61 39L60 39L60 38L62 38L62 37L63 37L63 38L65 38L65 35L64 35L64 37L63 37L63 36L62 36L62 35L63 35L63 34L65 34L65 33L64 33L64 32L65 32L65 31L63 31L63 32L62 32L62 33L63 33L63 34L62 34L62 35L61 35L61 30L62 30L62 29L63 29L63 28L64 28L64 29L65 29L65 28L64 28L64 26L65 26L65 23L64 23L64 25L63 25L63 24L60 24L60 25L59 25L59 24L58 24L58 23L59 23L59 22L61 22L61 20L59 20L59 19L60 19L60 17L61 17L61 16L62 16L62 18L61 18L61 19L63 19L63 17L64 17L64 18L65 18L65 15L64 15L64 16L62 16L62 15L63 15L63 14L62 14L62 15L61 15L61 16L60 16L60 13L61 13L61 12L62 12L62 13L64 13L64 14L65 14L65 13L64 13L64 12L65 12L65 11L64 11L64 10L65 10L65 9L64 9L64 8L63 8L63 9L64 9L64 10L62 10L62 11L61 11L61 10L60 10L60 11L61 11L61 12L59 12L59 14L55 14L55 13L51 13L51 11L52 11L52 12L53 12L53 11L54 11L54 12L56 12L56 13L57 13L57 12L58 12L58 11L59 11L59 10L58 10L58 11L54 11L54 10L55 10L55 5L54 5L54 4L56 4L56 5L57 5L57 4L56 4L56 3L57 3L57 1L56 1L56 0L55 0L55 1L56 1L56 3L55 3L55 2L54 2L54 3L53 3L53 1L54 1L54 0L52 0L52 3L48 3L48 5L46 5L46 7L45 7L45 5L43 5L43 4L42 4L42 5L41 5L41 4L39 4L39 3L41 3L41 2L42 2L42 1L43 1L43 2L44 2L44 3L45 3L45 4L47 4L47 3L46 3L46 2L48 2L48 1L45 1L45 2L44 2L44 0L39 0L39 1L38 1L38 2L39 2L39 3L38 3L38 4L39 4L39 5L36 5L36 7L37 7L37 8L35 8L35 4L37 4L37 3L36 3L36 2L35 2L35 1L34 1L34 0L29 0L29 1L27 1L27 0L21 0L21 1L20 1L20 0L19 0L19 1L18 1L18 0ZM49 0L49 2L51 2L51 1L50 1L50 0ZM8 1L8 2L9 2L9 1ZM19 1L19 4L20 4L20 6L19 6L19 5L18 5L18 6L17 6L17 7L16 7L16 6L15 6L15 7L16 7L16 8L15 8L15 10L14 10L14 11L13 11L13 13L11 13L11 11L12 11L12 10L13 10L13 9L14 9L14 8L12 8L12 6L11 6L11 7L10 7L10 5L9 5L9 7L10 7L10 9L12 9L12 10L9 10L9 9L8 9L8 10L7 10L7 9L6 9L6 10L5 10L5 9L4 9L4 10L2 10L2 9L1 9L1 10L2 10L2 11L4 11L4 13L3 13L3 12L2 12L2 13L3 13L3 15L4 15L4 18L5 18L5 19L6 19L6 20L7 20L7 21L6 21L6 22L7 22L7 21L8 21L8 23L6 23L6 24L8 24L8 23L10 23L10 26L9 26L9 25L8 25L8 26L9 26L9 27L6 27L6 28L8 28L8 30L10 30L10 29L11 29L11 30L12 30L12 29L13 29L13 28L14 28L14 26L18 26L18 27L16 27L16 28L15 28L15 29L14 29L14 30L13 30L13 31L12 31L12 32L13 32L13 31L14 31L14 33L15 33L15 31L16 31L16 32L17 32L17 30L18 30L18 32L19 32L19 33L18 33L18 34L17 34L17 33L16 33L16 34L17 34L17 35L18 35L18 34L19 34L19 36L22 36L22 37L20 37L20 40L19 40L19 39L18 39L18 38L17 38L17 37L18 37L18 36L17 36L17 37L16 37L16 39L14 39L14 38L15 38L15 37L14 37L14 36L15 36L15 34L14 34L14 35L13 35L13 36L12 36L12 35L11 35L11 34L10 34L10 33L9 33L9 37L8 37L8 39L5 39L5 40L2 40L2 42L3 42L3 41L4 41L4 42L5 42L5 43L3 43L3 45L4 45L4 47L3 47L3 48L4 48L4 47L6 47L6 48L7 48L7 49L6 49L6 50L9 50L9 51L10 51L10 49L9 49L9 48L11 48L11 49L12 49L12 50L13 50L13 49L12 49L12 46L13 46L13 48L14 48L14 47L15 47L15 49L16 49L16 50L18 50L18 51L16 51L16 52L18 52L18 53L16 53L16 54L17 54L17 55L18 55L18 56L19 56L19 57L20 57L20 58L21 58L21 57L23 57L23 53L22 53L22 52L21 52L21 51L22 51L22 49L25 49L25 50L24 50L24 51L23 51L23 52L24 52L24 53L25 53L25 54L26 54L26 55L27 55L27 56L26 56L26 57L25 57L25 56L24 56L24 57L25 57L25 58L24 58L24 60L26 60L26 61L25 61L25 64L26 64L26 63L28 63L28 64L30 64L30 63L31 63L31 64L35 64L35 61L33 61L33 62L32 62L32 63L31 63L31 61L30 61L30 63L29 63L29 60L30 60L30 58L29 58L29 57L30 57L30 55L31 55L31 56L33 56L33 55L36 55L36 56L37 56L37 55L38 55L38 54L39 54L39 53L43 53L43 52L44 52L44 53L45 53L45 54L47 54L47 53L45 53L45 52L44 52L44 50L40 50L40 51L38 51L38 50L39 50L39 49L38 49L38 50L37 50L37 49L32 49L32 48L33 48L33 46L34 46L34 47L35 47L35 48L37 48L37 47L38 47L38 48L40 48L40 49L41 49L41 48L42 48L42 47L43 47L43 49L46 49L46 50L47 50L47 51L46 51L46 52L50 52L50 51L48 51L48 50L51 50L51 51L52 51L52 50L54 50L54 51L53 51L53 52L51 52L51 53L48 53L48 54L49 54L49 55L46 55L46 56L49 56L49 57L50 57L50 58L47 58L47 57L45 57L45 56L44 56L44 55L43 55L43 54L42 54L42 55L41 55L41 54L40 54L40 55L39 55L39 56L38 56L38 57L37 57L37 58L36 58L36 57L35 57L35 58L36 58L36 59L35 59L35 60L37 60L37 61L36 61L36 64L37 64L37 62L39 62L39 63L42 63L42 64L43 64L43 63L44 63L44 62L42 62L42 61L43 61L43 60L44 60L44 59L45 59L45 60L47 60L47 59L48 59L48 60L49 60L49 61L50 61L50 62L51 62L51 63L53 63L53 64L54 64L54 63L55 63L55 62L56 62L56 63L57 63L57 62L56 62L56 61L55 61L55 60L56 60L56 59L55 59L55 58L56 58L56 56L58 56L58 55L56 55L56 56L55 56L55 58L54 58L54 55L55 55L55 54L53 54L53 53L56 53L56 54L57 54L57 52L58 52L58 53L59 53L59 52L60 52L60 53L62 53L62 52L63 52L63 51L62 51L62 52L60 52L60 51L61 51L61 50L63 50L63 49L61 49L61 47L60 47L60 46L59 46L59 44L57 44L57 45L56 45L56 44L55 44L55 46L54 46L54 47L53 47L53 46L52 46L52 47L53 47L53 48L52 48L52 50L51 50L51 49L50 49L50 48L51 48L51 47L50 47L50 46L51 46L51 44L52 44L52 45L53 45L53 44L52 44L52 42L53 42L53 40L52 40L52 41L51 41L51 39L50 39L50 38L52 38L52 39L53 39L53 36L49 36L49 35L50 35L50 34L51 34L51 33L53 33L53 34L52 34L52 35L53 35L53 34L54 34L54 37L56 37L56 38L54 38L54 39L56 39L56 40L57 40L57 37L58 37L58 39L59 39L59 37L61 37L61 36L60 36L60 35L59 35L59 36L55 36L55 34L54 34L54 33L55 33L55 32L56 32L56 30L57 30L57 29L56 29L56 30L53 30L53 32L52 32L52 31L50 31L50 30L51 30L51 28L50 28L50 26L51 26L51 27L52 27L52 26L53 26L53 25L54 25L54 24L52 24L52 22L53 22L53 23L57 23L57 22L59 22L59 20L58 20L58 19L55 19L55 18L54 18L54 17L56 17L56 18L59 18L59 17L56 17L56 15L55 15L55 14L54 14L54 15L53 15L53 14L52 14L52 15L53 15L53 16L51 16L51 15L49 15L49 14L51 14L51 13L50 13L50 11L48 11L48 10L49 10L49 9L50 9L50 10L52 10L52 9L53 9L53 8L52 8L52 9L50 9L50 8L51 8L51 7L52 7L52 6L53 6L53 7L54 7L54 6L53 6L53 5L52 5L52 6L51 6L51 7L50 7L50 5L51 5L51 4L50 4L50 5L49 5L49 7L48 7L48 6L47 6L47 7L48 7L48 8L47 8L47 9L46 9L46 10L45 10L45 8L44 8L44 6L43 6L43 5L42 5L42 6L41 6L41 5L40 5L40 6L39 6L39 7L38 7L38 6L37 6L37 7L38 7L38 10L37 10L37 9L36 9L36 10L35 10L35 9L34 9L34 10L35 10L35 11L33 11L33 10L32 10L32 9L31 9L31 10L30 10L30 9L28 9L28 8L29 8L29 7L30 7L30 4L31 4L31 2L33 2L33 3L32 3L32 4L33 4L33 3L34 3L34 4L35 4L35 2L33 2L33 1L29 1L29 2L28 2L28 3L29 3L29 4L28 4L28 6L27 6L27 1L25 1L25 2L23 2L23 1L22 1L22 2L20 2L20 1ZM40 1L40 2L41 2L41 1ZM25 2L25 3L26 3L26 2ZM20 3L20 4L22 4L22 3ZM23 3L23 5L21 5L21 6L20 6L20 9L21 9L21 10L22 10L22 11L23 11L23 9L24 9L24 10L25 10L25 9L24 9L24 8L27 8L27 6L26 6L26 7L25 7L25 6L24 6L24 8L23 8L23 5L26 5L26 4L24 4L24 3ZM52 3L52 4L53 4L53 3ZM31 5L31 8L34 8L34 5ZM13 6L13 7L14 7L14 6ZM18 6L18 8L17 8L17 9L16 9L16 11L14 11L14 14L13 14L13 16L12 16L12 15L11 15L11 14L8 14L8 16L6 16L6 15L7 15L7 14L6 14L6 13L8 13L8 12L9 12L9 13L10 13L10 11L9 11L9 10L8 10L8 11L7 11L7 10L6 10L6 11L7 11L7 12L5 12L5 13L4 13L4 15L5 15L5 16L6 16L6 17L9 17L9 18L10 18L10 17L12 17L12 18L11 18L11 19L8 19L8 18L6 18L6 19L8 19L8 20L9 20L9 21L10 21L10 23L11 23L11 24L12 24L12 25L17 25L17 24L18 24L18 25L19 25L19 26L20 26L20 27L21 27L21 28L22 28L22 27L23 27L23 29L22 29L22 31L21 31L21 32L20 32L20 33L21 33L21 35L22 35L22 34L23 34L23 39L24 39L24 40L25 40L25 41L22 41L22 42L18 42L18 41L19 41L19 40L17 40L17 39L16 39L16 40L13 40L13 41L10 41L10 42L9 42L9 41L8 41L8 40L5 40L5 41L7 41L7 42L6 42L6 43L7 43L7 42L9 42L9 44L8 44L8 47L7 47L7 46L6 46L6 45L7 45L7 44L6 44L6 45L5 45L5 44L4 44L4 45L5 45L5 46L6 46L6 47L7 47L7 48L9 48L9 45L11 45L11 44L13 44L13 46L15 46L15 47L16 47L16 49L22 49L22 48L24 48L24 47L22 47L22 46L24 46L24 45L25 45L25 46L26 46L26 47L25 47L25 48L27 48L27 49L26 49L26 50L25 50L25 51L24 51L24 52L25 52L25 53L29 53L29 52L30 52L30 53L31 53L31 55L32 55L32 53L33 53L33 54L35 54L35 53L34 53L34 52L36 52L36 53L37 53L37 54L38 54L38 53L37 53L37 52L38 52L38 51L37 51L37 50L36 50L36 51L33 51L33 52L32 52L32 51L29 51L29 52L27 52L27 49L29 49L29 50L31 50L31 49L30 49L30 48L32 48L32 45L33 45L33 42L31 42L31 41L30 41L30 42L29 42L29 43L28 43L28 41L29 41L29 40L32 40L32 41L35 41L35 42L36 42L36 41L37 41L37 44L35 44L35 43L34 43L34 45L35 45L35 46L37 46L37 44L39 44L39 42L40 42L40 41L39 41L39 40L38 40L38 41L37 41L37 40L36 40L36 41L35 41L35 39L34 39L34 40L33 40L33 39L30 39L30 38L31 38L31 35L33 35L33 36L32 36L32 37L33 37L33 36L34 36L34 38L37 38L37 39L40 39L40 40L41 40L41 39L40 39L40 38L41 38L41 37L40 37L40 38L38 38L38 37L39 37L39 36L42 36L42 38L45 38L45 37L44 37L44 36L45 36L45 35L44 35L44 36L42 36L42 35L41 35L41 34L43 34L43 33L44 33L44 34L45 34L45 33L47 33L47 34L46 34L46 35L47 35L47 38L46 38L46 40L45 40L45 39L42 39L42 40L43 40L43 41L41 41L41 42L43 42L43 43L44 43L44 44L42 44L42 43L40 43L40 44L42 44L42 45L40 45L40 48L41 48L41 47L42 47L42 46L44 46L44 44L45 44L45 45L47 45L47 46L46 46L46 48L47 48L47 49L49 49L49 48L48 48L48 46L49 46L49 44L51 44L51 42L50 42L50 39L49 39L49 40L47 40L47 39L48 39L48 37L49 37L49 38L50 38L50 37L49 37L49 36L48 36L48 35L49 35L49 34L48 34L48 33L49 33L49 32L50 32L50 31L49 31L49 32L46 32L46 31L48 31L48 30L49 30L49 28L48 28L48 26L50 26L50 25L51 25L51 26L52 26L52 25L51 25L51 24L48 24L48 26L46 26L46 25L44 25L44 24L45 24L45 23L47 23L47 22L45 22L45 23L44 23L44 24L43 24L43 25L42 25L42 26L43 26L43 25L44 25L44 26L45 26L45 27L44 27L44 28L45 28L45 30L43 30L43 28L42 28L42 27L39 27L39 26L38 26L38 27L39 27L39 28L41 28L41 29L39 29L39 30L38 30L38 28L34 28L34 27L35 27L35 26L34 26L34 27L33 27L33 26L32 26L32 25L30 25L30 26L28 26L28 25L29 25L29 24L28 24L28 23L29 23L29 22L31 22L31 21L32 21L32 22L33 22L33 23L32 23L32 24L33 24L33 25L37 25L37 24L38 24L38 25L39 25L39 24L41 24L41 23L39 23L39 22L38 22L38 23L37 23L37 24L36 24L36 22L37 22L37 20L36 20L36 22L33 22L33 21L35 21L35 20L34 20L34 19L35 19L35 18L33 18L33 17L32 17L32 18L33 18L33 19L31 19L31 16L33 16L33 13L32 13L32 15L31 15L31 14L30 14L30 12L31 12L31 11L29 11L29 10L28 10L28 9L26 9L26 10L27 10L27 11L26 11L26 12L27 12L27 13L25 13L25 11L24 11L24 13L22 13L22 12L21 12L21 11L20 11L20 10L18 10L18 9L19 9L19 6ZM21 6L21 7L22 7L22 6ZM28 6L28 7L29 7L29 6ZM32 6L32 7L33 7L33 6ZM40 6L40 7L39 7L39 8L41 8L41 6ZM42 6L42 8L43 8L43 6ZM56 6L56 7L57 7L57 6ZM22 8L22 9L23 9L23 8ZM48 8L48 9L49 9L49 8ZM56 8L56 9L58 9L58 8ZM59 8L59 9L60 9L60 8ZM61 8L61 9L62 9L62 8ZM42 9L42 10L41 10L41 11L39 11L39 10L38 10L38 12L36 12L36 11L37 11L37 10L36 10L36 11L35 11L35 14L34 14L34 15L35 15L35 16L34 16L34 17L35 17L35 16L36 16L36 17L37 17L37 16L39 16L39 17L40 17L40 16L41 16L41 15L42 15L42 16L43 16L43 17L41 17L41 18L45 18L45 19L44 19L44 20L43 20L43 19L42 19L42 20L43 20L43 21L42 21L42 22L44 22L44 20L46 20L46 21L49 21L49 22L48 22L48 23L49 23L49 22L50 22L50 23L51 23L51 22L52 22L52 20L53 20L53 22L55 22L55 21L54 21L54 20L55 20L55 19L54 19L54 18L53 18L53 17L52 17L52 18L53 18L53 19L51 19L51 18L50 18L50 17L51 17L51 16L50 16L50 17L49 17L49 16L46 16L46 17L44 17L44 16L45 16L45 15L44 15L44 16L43 16L43 15L42 15L42 14L43 14L43 13L41 13L41 15L40 15L40 16L39 16L39 14L40 14L40 12L41 12L41 11L42 11L42 12L45 12L45 13L44 13L44 14L46 14L46 15L47 15L47 14L48 14L48 13L49 13L49 12L48 12L48 13L47 13L47 12L46 12L46 11L47 11L47 10L46 10L46 11L44 11L44 10L43 10L43 9ZM17 10L17 11L18 11L18 10ZM42 10L42 11L43 11L43 10ZM32 11L32 12L33 12L33 11ZM62 11L62 12L63 12L63 11ZM19 12L19 13L17 13L17 14L16 14L16 15L17 15L17 14L19 14L19 15L18 15L18 16L19 16L19 17L17 17L17 16L16 16L16 17L17 17L17 18L18 18L18 19L16 19L16 18L15 18L15 17L14 17L14 16L15 16L15 14L14 14L14 16L13 16L13 18L14 18L14 19L13 19L13 20L15 20L15 19L16 19L16 21L13 21L13 22L16 22L16 21L17 21L17 23L18 23L18 24L21 24L21 25L20 25L20 26L21 26L21 27L22 27L22 26L21 26L21 25L23 25L23 27L24 27L24 25L25 25L25 30L26 30L26 29L28 29L28 30L27 30L27 31L25 31L25 32L24 32L24 31L22 31L22 33L23 33L23 32L24 32L24 33L25 33L25 32L26 32L26 33L27 33L27 34L25 34L25 35L26 35L26 36L24 36L24 37L26 37L26 38L24 38L24 39L25 39L25 40L26 40L26 41L27 41L27 40L28 40L28 38L30 38L30 37L28 37L28 35L27 35L27 34L29 34L29 36L30 36L30 32L29 32L29 31L30 31L30 30L32 30L32 29L33 29L33 30L36 30L36 31L35 31L35 34L36 34L36 32L37 32L37 33L38 33L38 34L39 34L39 33L38 33L38 32L40 32L40 33L41 33L41 32L43 32L43 30L42 30L42 29L41 29L41 30L40 30L40 31L38 31L38 30L36 30L36 29L33 29L33 28L29 28L29 27L28 27L28 28L26 28L26 25L28 25L28 24L27 24L27 23L25 23L25 24L21 24L21 23L20 23L20 22L21 22L21 21L22 21L22 23L24 23L24 21L25 21L25 22L29 22L29 21L25 21L25 20L26 20L26 19L25 19L25 18L26 18L26 17L27 17L27 16L28 16L28 15L26 15L26 16L25 16L25 13L24 13L24 14L22 14L22 15L21 15L21 17L20 17L20 16L19 16L19 15L20 15L20 14L19 14L19 13L21 13L21 12ZM28 12L28 13L27 13L27 14L28 14L28 13L29 13L29 12ZM38 12L38 14L37 14L37 15L36 15L36 16L37 16L37 15L38 15L38 14L39 14L39 12ZM46 13L46 14L47 14L47 13ZM5 14L5 15L6 15L6 14ZM9 15L9 16L10 16L10 15ZM23 15L23 16L24 16L24 15ZM54 15L54 16L55 16L55 15ZM58 15L58 16L59 16L59 15ZM21 17L21 18L22 18L22 19L19 19L19 20L20 20L20 21L18 21L18 20L17 20L17 21L18 21L18 22L20 22L20 21L21 21L21 20L22 20L22 21L23 21L23 18L25 18L25 17ZM28 17L28 19L27 19L27 20L29 20L29 17ZM46 17L46 18L47 18L47 19L46 19L46 20L50 20L50 22L51 22L51 20L50 20L50 18L47 18L47 17ZM36 18L36 19L37 19L37 18ZM38 18L38 21L39 21L39 19L40 19L40 20L41 20L41 19L40 19L40 18ZM24 19L24 20L25 20L25 19ZM10 20L10 21L11 21L11 23L12 23L12 24L13 24L13 23L12 23L12 21L11 21L11 20ZM30 20L30 21L31 21L31 20ZM32 20L32 21L33 21L33 20ZM56 20L56 21L58 21L58 20ZM62 20L62 23L63 23L63 21L64 21L64 22L65 22L65 21L64 21L64 20ZM0 21L0 24L2 24L2 23L1 23L1 22L2 22L2 21ZM14 23L14 24L16 24L16 23ZM30 23L30 24L31 24L31 23ZM34 23L34 24L35 24L35 23ZM55 24L55 25L56 25L56 27L55 27L55 26L54 26L54 27L53 27L53 28L52 28L52 29L53 29L53 28L54 28L54 29L55 29L55 28L58 28L58 30L60 30L60 29L59 29L59 28L61 28L61 29L62 29L62 28L63 28L63 25L62 25L62 26L61 26L61 25L60 25L60 26L59 26L59 25L58 25L58 24L57 24L57 25L56 25L56 24ZM40 25L40 26L41 26L41 25ZM1 26L1 27L2 27L2 26ZM10 26L10 27L11 27L11 26ZM30 26L30 27L31 27L31 26ZM36 26L36 27L37 27L37 26ZM57 26L57 27L58 27L58 28L59 28L59 26ZM18 27L18 29L20 29L20 28L19 28L19 27ZM54 27L54 28L55 28L55 27ZM1 28L1 30L2 30L2 28ZM6 29L6 30L7 30L7 29ZM15 29L15 30L14 30L14 31L15 31L15 30L16 30L16 29ZM23 29L23 30L24 30L24 29ZM29 29L29 30L30 30L30 29ZM46 29L46 30L48 30L48 29ZM19 30L19 31L20 31L20 30ZM5 31L5 34L8 34L8 31ZM10 31L10 32L11 32L11 31ZM27 31L27 32L28 32L28 33L29 33L29 32L28 32L28 31ZM31 31L31 34L34 34L34 31ZM40 31L40 32L41 32L41 31ZM57 31L57 34L60 34L60 31ZM6 32L6 33L7 33L7 32ZM32 32L32 33L33 33L33 32ZM44 32L44 33L45 33L45 32ZM58 32L58 33L59 33L59 32ZM12 33L12 34L13 34L13 33ZM3 35L3 36L2 36L2 37L3 37L3 38L2 38L2 39L4 39L4 37L6 37L6 38L7 38L7 37L6 37L6 36L7 36L7 35L6 35L6 36L5 36L5 35ZM10 35L10 36L11 36L11 35ZM35 35L35 37L36 37L36 36L37 36L37 37L38 37L38 36L39 36L39 35ZM9 37L9 39L11 39L11 40L12 40L12 39L13 39L13 38L12 38L12 39L11 39L11 38L10 38L10 37ZM21 39L21 40L20 40L20 41L21 41L21 40L22 40L22 39ZM26 39L26 40L27 40L27 39ZM64 39L64 40L65 40L65 39ZM44 40L44 41L45 41L45 40ZM46 40L46 42L47 42L47 43L46 43L46 44L47 44L47 45L48 45L48 44L49 44L49 43L48 43L48 42L47 42L47 40ZM62 40L62 41L63 41L63 42L62 42L62 43L63 43L63 42L65 42L65 41L63 41L63 40ZM15 41L15 42L17 42L17 43L16 43L16 45L15 45L15 43L14 43L14 42L13 42L13 43L14 43L14 45L15 45L15 46L16 46L16 45L18 45L18 46L17 46L17 48L19 48L19 47L20 47L20 46L19 46L19 45L21 45L21 44L22 44L22 45L24 45L24 43L25 43L25 44L26 44L26 45L27 45L27 46L28 46L28 45L29 45L29 46L30 46L30 47L31 47L31 45L32 45L32 43L31 43L31 45L30 45L30 44L28 44L28 43L27 43L27 42L23 42L23 44L22 44L22 43L21 43L21 44L20 44L20 43L18 43L18 42L17 42L17 41ZM38 41L38 42L39 42L39 41ZM59 41L59 42L61 42L61 41ZM11 42L11 43L10 43L10 44L11 44L11 43L12 43L12 42ZM26 43L26 44L27 44L27 45L28 45L28 44L27 44L27 43ZM0 44L0 45L1 45L1 44ZM18 44L18 45L19 45L19 44ZM60 44L60 45L61 45L61 44ZM18 46L18 47L19 47L19 46ZM38 46L38 47L39 47L39 46ZM55 46L55 47L54 47L54 48L53 48L53 49L54 49L54 50L55 50L55 51L54 51L54 52L56 52L56 50L57 50L57 51L58 51L58 52L59 52L59 51L58 51L58 50L61 50L61 49L60 49L60 47L58 47L58 48L56 48L56 46ZM27 47L27 48L28 48L28 47ZM44 47L44 48L45 48L45 47ZM1 48L1 49L2 49L2 48ZM55 48L55 50L56 50L56 48ZM58 48L58 49L59 49L59 48ZM19 50L19 51L20 51L20 50ZM6 51L6 52L7 52L7 53L6 53L6 54L7 54L7 53L8 53L8 55L9 55L9 53L8 53L8 52L7 52L7 51ZM25 51L25 52L26 52L26 51ZM36 51L36 52L37 52L37 51ZM40 51L40 52L41 52L41 51ZM42 51L42 52L43 52L43 51ZM20 52L20 53L18 53L18 55L21 55L21 54L22 54L22 53L21 53L21 52ZM31 52L31 53L32 53L32 52ZM20 53L20 54L21 54L21 53ZM28 54L28 55L30 55L30 54ZM50 54L50 55L52 55L52 56L53 56L53 54ZM40 55L40 56L41 56L41 55ZM42 55L42 56L43 56L43 57L41 57L41 58L43 58L43 59L44 59L44 58L45 58L45 57L44 57L44 56L43 56L43 55ZM63 55L63 56L62 56L62 59L63 59L63 58L65 58L65 57L64 57L64 56L65 56L65 55ZM6 56L6 57L7 57L7 56ZM11 56L11 57L10 57L10 58L9 58L9 59L10 59L10 60L11 60L11 61L10 61L10 62L11 62L11 61L12 61L12 59L13 59L13 58L12 58L12 56ZM20 56L20 57L21 57L21 56ZM27 56L27 57L26 57L26 58L25 58L25 59L26 59L26 58L27 58L27 57L29 57L29 56ZM50 56L50 57L51 57L51 58L50 58L50 59L51 59L51 60L50 60L50 61L51 61L51 62L52 62L52 60L53 60L53 59L52 59L52 58L53 58L53 57L51 57L51 56ZM31 57L31 60L34 60L34 57ZM57 57L57 60L60 60L60 57ZM10 58L10 59L11 59L11 58ZM22 58L22 59L23 59L23 58ZM32 58L32 59L33 59L33 58ZM38 58L38 59L39 59L39 60L38 60L38 61L39 61L39 60L41 60L41 61L40 61L40 62L41 62L41 61L42 61L42 60L41 60L41 59L39 59L39 58ZM46 58L46 59L47 59L47 58ZM58 58L58 59L59 59L59 58ZM27 59L27 60L28 60L28 59ZM54 59L54 60L55 60L55 59ZM23 61L23 62L24 62L24 61ZM26 61L26 62L28 62L28 61ZM53 61L53 62L55 62L55 61ZM58 61L58 62L59 62L59 61ZM60 61L60 62L61 62L61 61ZM33 62L33 63L34 63L34 62ZM13 63L13 64L14 64L14 65L17 65L17 64L16 64L16 63L15 63L15 64L14 64L14 63ZM23 63L23 64L24 64L24 63ZM45 63L45 64L46 64L46 63ZM48 64L48 65L49 65L49 64ZM0 0L0 7L7 7L7 0ZM1 1L1 6L6 6L6 1ZM2 2L2 5L5 5L5 2ZM58 0L58 7L65 7L65 0ZM59 1L59 6L64 6L64 1ZM60 2L60 5L63 5L63 2ZM0 58L0 65L7 65L7 58ZM1 59L1 64L6 64L6 59ZM2 60L2 63L5 63L5 60Z" fill="#000000"/></g></g></svg>
