<?xml version="1.0" encoding="UTF-8"?>
<svg xmlns="http://www.w3.org/2000/svg" version="1.1" width="300" height="300" viewBox="0 0 300 300"><rect x="0" y="0" width="300" height="300" fill="#ffffff"/><g transform="scale(4.615)"><g transform="translate(0,0)"><path fill-rule="evenodd" d="M11 0L11 1L8 1L8 2L9 2L9 3L8 3L8 4L9 4L9 3L10 3L10 4L11 4L11 1L12 1L12 0ZM13 0L13 3L12 3L12 7L11 7L11 6L10 6L10 5L8 5L8 7L9 7L9 6L10 6L10 7L11 7L11 8L6 8L6 9L5 9L5 8L0 8L0 10L1 10L1 9L2 9L2 10L3 10L3 9L4 9L4 10L6 10L6 11L0 11L0 12L2 12L2 13L3 13L3 14L5 14L5 13L7 13L7 14L6 14L6 15L7 15L7 16L6 16L6 17L5 17L5 15L4 15L4 16L2 16L2 14L1 14L1 13L0 13L0 18L1 18L1 19L0 19L0 20L1 20L1 19L2 19L2 18L3 18L3 19L4 19L4 21L7 21L7 20L5 20L5 19L8 19L8 21L9 21L9 20L10 20L10 22L8 22L8 23L10 23L10 22L11 22L11 23L12 23L12 24L10 24L10 26L9 26L9 24L5 24L5 23L7 23L7 22L5 22L5 23L4 23L4 24L5 24L5 25L4 25L4 26L3 26L3 27L1 27L1 28L0 28L0 29L1 29L1 28L2 28L2 30L3 30L3 33L0 33L0 38L2 38L2 39L1 39L1 40L0 40L0 41L1 41L1 42L0 42L0 44L1 44L1 45L2 45L2 46L3 46L3 47L2 47L2 48L3 48L3 49L8 49L8 48L9 48L9 50L2 50L2 49L1 49L1 48L0 48L0 51L1 51L1 54L2 54L2 55L3 55L3 56L1 56L1 55L0 55L0 56L1 56L1 57L3 57L3 56L4 56L4 57L5 57L5 56L4 56L4 53L3 53L3 52L6 52L6 53L5 53L5 55L7 55L7 56L6 56L6 57L7 57L7 56L8 56L8 54L10 54L10 55L9 55L9 57L8 57L8 59L10 59L10 61L11 61L11 62L9 62L9 60L8 60L8 65L10 65L10 63L11 63L11 62L16 62L16 61L13 61L13 60L14 60L14 59L11 59L11 55L12 55L12 58L14 58L14 57L13 57L13 54L14 54L14 56L15 56L15 58L16 58L16 57L17 57L17 58L18 58L18 59L19 59L19 60L17 60L17 59L16 59L16 60L17 60L17 63L18 63L18 65L21 65L21 64L22 64L22 63L24 63L24 64L25 64L25 65L26 65L26 62L27 62L27 61L26 61L26 60L28 60L28 61L32 61L32 62L33 62L33 64L32 64L32 63L31 63L31 62L30 62L30 63L31 63L31 64L29 64L29 62L28 62L28 65L33 65L33 64L34 64L34 65L37 65L37 64L36 64L36 63L37 63L37 62L36 62L36 63L35 63L35 62L34 62L34 61L38 61L38 60L39 60L39 62L38 62L38 63L39 63L39 64L38 64L38 65L39 65L39 64L42 64L42 63L41 63L41 62L43 62L43 65L44 65L44 64L45 64L45 63L46 63L46 65L47 65L47 63L48 63L48 61L49 61L49 64L48 64L48 65L49 65L49 64L51 64L51 62L52 62L52 60L53 60L53 62L55 62L55 63L56 63L56 62L57 62L57 65L61 65L61 62L62 62L62 61L63 61L63 64L62 64L62 65L63 65L63 64L64 64L64 61L65 61L65 59L64 59L64 58L65 58L65 57L64 57L64 56L65 56L65 55L63 55L63 56L62 56L62 54L61 54L61 53L60 53L60 55L58 55L58 56L56 56L56 55L57 55L57 54L59 54L59 53L58 53L58 52L60 52L60 51L61 51L61 52L62 52L62 53L63 53L63 54L65 54L65 53L64 53L64 50L65 50L65 49L64 49L64 48L62 48L62 47L63 47L63 46L65 46L65 45L64 45L64 44L65 44L65 43L63 43L63 41L64 41L64 42L65 42L65 40L62 40L62 38L65 38L65 36L64 36L64 34L65 34L65 33L64 33L64 32L65 32L65 31L63 31L63 29L64 29L64 28L65 28L65 27L64 27L64 28L60 28L60 27L59 27L59 26L57 26L57 27L58 27L58 28L56 28L56 27L55 27L55 28L53 28L53 27L54 27L54 26L56 26L56 25L57 25L57 24L58 24L58 25L59 25L59 24L58 24L58 23L59 23L59 22L61 22L61 20L59 20L59 18L58 18L58 16L56 16L56 17L55 17L55 16L54 16L54 15L52 15L52 14L56 14L56 15L59 15L59 16L60 16L60 17L61 17L61 16L62 16L62 18L61 18L61 19L63 19L63 20L62 20L62 21L63 21L63 22L62 22L62 23L61 23L61 24L60 24L60 25L61 25L61 24L62 24L62 25L63 25L63 26L62 26L62 27L63 27L63 26L65 26L65 25L64 25L64 24L62 24L62 23L63 23L63 22L65 22L65 21L64 21L64 20L65 20L65 19L63 19L63 17L64 17L64 18L65 18L65 15L64 15L64 16L62 16L62 15L63 15L63 14L62 14L62 13L63 13L63 12L62 12L62 13L61 13L61 12L59 12L59 14L56 14L56 13L57 13L57 12L58 12L58 11L59 11L59 10L57 10L57 12L55 12L55 11L56 11L56 9L58 9L58 8L56 8L56 9L55 9L55 5L54 5L54 4L56 4L56 5L57 5L57 4L56 4L56 3L57 3L57 1L56 1L56 0L55 0L55 1L56 1L56 3L55 3L55 2L54 2L54 3L53 3L53 2L52 2L52 3L53 3L53 5L52 5L52 4L51 4L51 1L50 1L50 0L47 0L47 1L46 1L46 0L44 0L44 3L42 3L42 2L40 2L40 1L41 1L41 0L39 0L39 1L38 1L38 0L35 0L35 1L33 1L33 0L32 0L32 1L33 1L33 2L32 2L32 3L34 3L34 4L30 4L30 3L31 3L31 2L30 2L30 1L31 1L31 0L29 0L29 2L30 2L30 3L28 3L28 4L26 4L26 8L28 8L28 9L24 9L24 11L23 11L23 9L22 9L22 8L23 8L23 6L22 6L22 5L23 5L23 4L24 4L24 5L25 5L25 4L24 4L24 3L25 3L25 0L22 0L22 1L21 1L21 3L20 3L20 0L19 0L19 1L18 1L18 0L17 0L17 1L18 1L18 2L17 2L17 3L18 3L18 4L17 4L17 5L16 5L16 3L15 3L15 1L16 1L16 0L15 0L15 1L14 1L14 0ZM26 0L26 3L27 3L27 2L28 2L28 0ZM42 0L42 1L43 1L43 0ZM53 0L53 1L54 1L54 0ZM22 1L22 2L23 2L23 1ZM35 1L35 2L34 2L34 3L37 3L37 4L36 4L36 5L35 5L35 8L37 8L37 9L38 9L38 10L39 10L39 9L38 9L38 8L39 8L39 7L40 7L40 4L41 4L41 7L42 7L42 8L40 8L40 9L41 9L41 11L43 11L43 12L44 12L44 14L42 14L42 12L40 12L40 11L38 11L38 12L37 12L37 11L35 11L35 12L34 12L34 10L35 10L35 9L33 9L33 10L32 10L32 9L30 9L30 8L29 8L29 9L28 9L28 10L29 10L29 11L28 11L28 12L26 12L26 11L27 11L27 10L26 10L26 11L25 11L25 12L22 12L22 13L23 13L23 14L22 14L22 15L24 15L24 13L25 13L25 16L22 16L22 17L27 17L27 18L25 18L25 19L24 19L24 18L23 18L23 19L22 19L22 18L21 18L21 17L20 17L20 16L19 16L19 15L20 15L20 14L19 14L19 13L21 13L21 11L20 11L20 12L19 12L19 13L18 13L18 12L16 12L16 14L15 14L15 12L14 12L14 13L13 13L13 10L14 10L14 11L15 11L15 10L16 10L16 9L17 9L17 10L18 10L18 11L19 11L19 9L20 9L20 10L22 10L22 9L20 9L20 8L21 8L21 7L22 7L22 6L21 6L21 7L20 7L20 5L22 5L22 4L23 4L23 3L21 3L21 4L20 4L20 5L19 5L19 7L18 7L18 6L17 6L17 7L16 7L16 6L15 6L15 7L14 7L14 6L13 6L13 7L12 7L12 8L13 8L13 7L14 7L14 9L13 9L13 10L9 10L9 9L6 9L6 10L7 10L7 11L6 11L6 12L7 12L7 13L8 13L8 15L9 15L9 16L8 16L8 18L13 18L13 16L14 16L14 17L16 17L16 21L15 21L15 20L14 20L14 19L11 19L11 20L14 20L14 21L13 21L13 22L12 22L12 23L14 23L14 24L12 24L12 25L11 25L11 26L10 26L10 27L12 27L12 28L8 28L8 29L4 29L4 30L9 30L9 29L10 29L10 30L11 30L11 31L12 31L12 32L15 32L15 33L14 33L14 34L13 34L13 33L12 33L12 34L13 34L13 35L11 35L11 32L10 32L10 33L9 33L9 34L10 34L10 35L11 35L11 36L9 36L9 35L3 35L3 34L1 34L1 35L3 35L3 36L1 36L1 37L3 37L3 39L2 39L2 42L1 42L1 43L2 43L2 42L4 42L4 43L3 43L3 44L4 44L4 43L5 43L5 44L7 44L7 43L5 43L5 42L7 42L7 41L5 41L5 42L4 42L4 40L5 40L5 39L6 39L6 40L7 40L7 39L8 39L8 38L9 38L9 43L8 43L8 45L6 45L6 46L5 46L5 48L8 48L8 47L6 47L6 46L10 46L10 50L11 50L11 51L10 51L10 52L11 52L11 51L12 51L12 53L11 53L11 54L13 54L13 53L14 53L14 54L15 54L15 55L16 55L16 56L19 56L19 55L20 55L20 56L21 56L21 57L20 57L20 58L19 58L19 57L18 57L18 58L19 58L19 59L20 59L20 61L18 61L18 63L19 63L19 64L21 64L21 63L22 63L22 61L25 61L25 62L24 62L24 63L25 63L25 62L26 62L26 61L25 61L25 60L23 60L23 59L21 59L21 58L22 58L22 57L25 57L25 56L26 56L26 57L27 57L27 58L26 58L26 59L29 59L29 60L30 60L30 59L29 59L29 58L30 58L30 56L29 56L29 54L30 54L30 55L35 55L35 54L36 54L36 56L37 56L37 55L38 55L38 58L35 58L35 60L37 60L37 59L38 59L38 58L39 58L39 57L41 57L41 56L39 56L39 55L42 55L42 57L43 57L43 58L42 58L42 59L41 59L41 58L40 58L40 59L41 59L41 60L40 60L40 62L39 62L39 63L40 63L40 62L41 62L41 61L43 61L43 60L42 60L42 59L43 59L43 58L48 58L48 60L49 60L49 59L50 59L50 62L51 62L51 59L52 59L52 57L55 57L55 58L53 58L53 60L56 60L56 59L55 59L55 58L56 58L56 56L54 56L54 55L56 55L56 54L53 54L53 53L56 53L56 52L54 52L54 51L57 51L57 52L58 52L58 51L60 51L60 49L61 49L61 50L63 50L63 49L62 49L62 48L60 48L60 47L62 47L62 46L63 46L63 45L61 45L61 44L63 44L63 43L62 43L62 40L60 40L60 39L61 39L61 38L62 38L62 37L61 37L61 36L60 36L60 35L59 35L59 36L60 36L60 37L58 37L58 36L57 36L57 37L58 37L58 39L59 39L59 40L58 40L58 41L61 41L61 42L57 42L57 41L56 41L56 40L57 40L57 38L56 38L56 40L55 40L55 38L54 38L54 39L53 39L53 38L52 38L52 39L53 39L53 40L51 40L51 39L50 39L50 38L51 38L51 37L53 37L53 36L52 36L52 35L53 35L53 34L52 34L52 35L51 35L51 37L50 37L50 36L49 36L49 35L50 35L50 34L51 34L51 33L56 33L56 32L54 32L54 31L56 31L56 30L57 30L57 29L56 29L56 28L55 28L55 30L53 30L53 32L52 32L52 31L51 31L51 32L50 32L50 31L48 31L48 30L49 30L49 29L50 29L50 30L51 30L51 29L50 29L50 28L51 28L51 27L50 27L50 26L52 26L52 27L53 27L53 26L54 26L54 25L56 25L56 24L54 24L54 23L58 23L58 22L59 22L59 21L58 21L58 19L56 19L56 18L57 18L57 17L56 17L56 18L54 18L54 16L51 16L51 15L50 15L50 14L51 14L51 13L55 13L55 12L54 12L54 11L55 11L55 10L54 10L54 8L51 8L51 7L52 7L52 5L51 5L51 4L50 4L50 2L48 2L48 1L47 1L47 3L46 3L46 2L45 2L45 3L44 3L44 4L43 4L43 5L42 5L42 3L39 3L39 2L37 2L37 1ZM14 3L14 5L15 5L15 3ZM38 3L38 4L37 4L37 5L36 5L36 7L37 7L37 5L38 5L38 7L39 7L39 5L38 5L38 4L39 4L39 3ZM45 3L45 4L44 4L44 5L45 5L45 4L46 4L46 3ZM48 3L48 5L46 5L46 7L47 7L47 6L48 6L48 7L49 7L49 8L47 8L47 10L46 10L46 11L44 11L44 9L43 9L43 8L42 8L42 10L43 10L43 11L44 11L44 12L45 12L45 14L46 14L46 16L45 16L45 15L42 15L42 16L45 16L45 17L44 17L44 18L45 18L45 19L42 19L42 18L43 18L43 17L40 17L40 16L41 16L41 13L40 13L40 15L39 15L39 14L38 14L38 13L37 13L37 12L35 12L35 13L37 13L37 14L36 14L36 15L37 15L37 16L35 16L35 17L38 17L38 16L39 16L39 18L38 18L38 19L37 19L37 18L36 18L36 19L35 19L35 18L34 18L34 19L32 19L32 20L34 20L34 19L35 19L35 21L37 21L37 20L38 20L38 19L39 19L39 20L41 20L41 19L42 19L42 20L43 20L43 21L42 21L42 22L41 22L41 21L39 21L39 22L38 22L38 23L40 23L40 24L35 24L35 22L33 22L33 21L29 21L29 20L31 20L31 19L30 19L30 18L31 18L31 17L32 17L32 18L33 18L33 17L32 17L32 16L33 16L33 15L35 15L35 14L34 14L34 12L33 12L33 11L30 11L30 12L28 12L28 13L26 13L26 14L27 14L27 15L26 15L26 16L27 16L27 17L29 17L29 16L28 16L28 15L29 15L29 14L30 14L30 16L31 16L31 17L30 17L30 18L27 18L27 19L26 19L26 20L25 20L25 21L24 21L24 23L23 23L23 22L21 22L21 24L20 24L20 22L19 22L19 21L18 21L18 20L17 20L17 21L16 21L16 22L15 22L15 23L16 23L16 25L14 25L14 27L13 27L13 28L12 28L12 29L15 29L15 30L16 30L16 29L15 29L15 28L16 28L16 27L15 27L15 26L16 26L16 25L19 25L19 27L18 27L18 26L17 26L17 27L18 27L18 28L17 28L17 30L18 30L18 29L20 29L20 25L21 25L21 28L23 28L23 29L22 29L22 30L21 30L21 32L19 32L19 31L20 31L20 30L19 30L19 31L17 31L17 32L16 32L16 31L15 31L15 32L16 32L16 33L15 33L15 34L14 34L14 36L16 36L16 37L17 37L17 40L16 40L16 41L17 41L17 40L18 40L18 41L19 41L19 42L20 42L20 43L21 43L21 44L22 44L22 43L21 43L21 42L20 42L20 41L21 41L21 40L23 40L23 41L22 41L22 42L23 42L23 45L19 45L19 44L18 44L18 43L16 43L16 42L14 42L14 43L11 43L11 41L10 41L10 43L9 43L9 45L10 45L10 43L11 43L11 46L12 46L12 47L11 47L11 48L12 48L12 51L13 51L13 50L14 50L14 52L15 52L15 53L18 53L18 55L19 55L19 54L20 54L20 53L21 53L21 55L22 55L22 56L24 56L24 54L27 54L27 53L30 53L30 54L32 54L32 53L36 53L36 54L37 54L37 52L36 52L36 51L37 51L37 50L36 50L36 49L39 49L39 50L38 50L38 53L39 53L39 52L41 52L41 51L39 51L39 50L40 50L40 49L39 49L39 48L41 48L41 50L43 50L43 49L44 49L44 50L45 50L45 51L42 51L42 52L43 52L43 53L42 53L42 54L43 54L43 53L44 53L44 54L45 54L45 55L44 55L44 56L46 56L46 55L47 55L47 57L48 57L48 58L49 58L49 57L50 57L50 56L51 56L51 54L52 54L52 52L53 52L53 49L54 49L54 50L56 50L56 49L55 49L55 48L56 48L56 47L57 47L57 46L55 46L55 45L54 45L54 44L56 44L56 45L58 45L58 44L59 44L59 45L60 45L60 46L61 46L61 45L60 45L60 44L61 44L61 43L60 43L60 44L59 44L59 43L57 43L57 42L56 42L56 43L52 43L52 42L53 42L53 41L51 41L51 40L50 40L50 41L49 41L49 40L48 40L48 41L47 41L47 42L45 42L45 41L44 41L44 42L45 42L45 43L44 43L44 44L43 44L43 45L42 45L42 46L43 46L43 45L44 45L44 46L45 46L45 47L44 47L44 48L43 48L43 47L40 47L40 46L41 46L41 45L39 45L39 44L38 44L38 45L37 45L37 44L35 44L35 43L34 43L34 41L37 41L37 42L36 42L36 43L39 43L39 42L40 42L40 40L41 40L41 42L43 42L43 41L42 41L42 40L47 40L47 38L50 38L50 37L49 37L49 36L46 36L46 35L47 35L47 34L46 34L46 35L44 35L44 34L43 34L43 33L40 33L40 35L39 35L39 34L38 34L38 33L37 33L37 32L39 32L39 30L38 30L38 31L37 31L37 29L38 29L38 28L41 28L41 27L42 27L42 28L43 28L43 29L42 29L42 30L41 30L41 29L40 29L40 30L41 30L41 31L40 31L40 32L43 32L43 31L42 31L42 30L44 30L44 32L45 32L45 33L47 33L47 32L48 32L48 33L49 33L49 34L50 34L50 32L48 32L48 31L47 31L47 30L46 30L46 29L49 29L49 28L48 28L48 27L49 27L49 26L48 26L48 27L47 27L47 26L45 26L45 25L50 25L50 23L51 23L51 24L53 24L53 22L55 22L55 21L54 21L54 20L55 20L55 19L52 19L52 18L53 18L53 17L52 17L52 18L50 18L50 17L51 17L51 16L50 16L50 17L49 17L49 16L48 16L48 14L49 14L49 13L51 13L51 12L53 12L53 9L51 9L51 8L50 8L50 7L51 7L51 5L50 5L50 4L49 4L49 3ZM28 4L28 5L30 5L30 4ZM31 5L31 8L34 8L34 5ZM48 5L48 6L49 6L49 7L50 7L50 6L49 6L49 5ZM24 6L24 8L25 8L25 6ZM27 6L27 7L28 7L28 6ZM29 6L29 7L30 7L30 6ZM32 6L32 7L33 7L33 6ZM42 6L42 7L43 7L43 6ZM44 6L44 8L45 8L45 6ZM53 6L53 7L54 7L54 6ZM56 6L56 7L57 7L57 6ZM15 7L15 9L14 9L14 10L15 10L15 9L16 9L16 7ZM17 7L17 9L19 9L19 8L18 8L18 7ZM59 8L59 9L60 9L60 8ZM61 8L61 10L60 10L60 11L61 11L61 10L63 10L63 9L64 9L64 10L65 10L65 9L64 9L64 8L63 8L63 9L62 9L62 8ZM48 9L48 10L47 10L47 11L46 11L46 12L47 12L47 13L46 13L46 14L47 14L47 13L48 13L48 12L50 12L50 10L51 10L51 11L52 11L52 10L51 10L51 9L50 9L50 10L49 10L49 9ZM8 10L8 11L7 11L7 12L8 12L8 11L9 11L9 12L10 12L10 11L9 11L9 10ZM48 10L48 11L49 11L49 10ZM11 11L11 12L12 12L12 11ZM4 12L4 13L5 13L5 12ZM30 12L30 14L31 14L31 15L33 15L33 14L32 14L32 13L33 13L33 12ZM9 13L9 15L10 15L10 16L9 16L9 17L11 17L11 15L13 15L13 14L11 14L11 13ZM28 13L28 14L29 14L29 13ZM60 13L60 14L61 14L61 13ZM64 13L64 14L65 14L65 13ZM18 14L18 15L19 15L19 14ZM16 15L16 16L17 16L17 17L19 17L19 19L21 19L21 18L20 18L20 17L19 17L19 16L17 16L17 15ZM60 15L60 16L61 16L61 15ZM1 16L1 17L2 17L2 16ZM46 16L46 18L47 18L47 20L49 20L49 19L50 19L50 22L49 22L49 23L48 23L48 22L47 22L47 21L46 21L46 20L44 20L44 21L46 21L46 22L47 22L47 23L46 23L46 24L47 24L47 23L48 23L48 24L49 24L49 23L50 23L50 22L51 22L51 23L52 23L52 22L53 22L53 20L52 20L52 21L51 21L51 19L50 19L50 18L49 18L49 19L48 19L48 18L47 18L47 17L48 17L48 16ZM4 17L4 18L5 18L5 17ZM6 17L6 18L7 18L7 17ZM17 18L17 19L18 19L18 18ZM40 18L40 19L41 19L41 18ZM28 19L28 20L26 20L26 21L25 21L25 23L27 23L27 22L26 22L26 21L28 21L28 22L29 22L29 21L28 21L28 20L29 20L29 19ZM36 19L36 20L37 20L37 19ZM2 20L2 21L3 21L3 20ZM20 20L20 21L21 21L21 20ZM56 20L56 21L57 21L57 20ZM0 21L0 22L1 22L1 23L0 23L0 25L3 25L3 23L2 23L2 22L1 22L1 21ZM17 21L17 22L18 22L18 23L17 23L17 24L18 24L18 23L19 23L19 22L18 22L18 21ZM31 22L31 23L32 23L32 22ZM36 22L36 23L37 23L37 22ZM40 22L40 23L41 23L41 24L40 24L40 25L43 25L43 26L42 26L42 27L43 27L43 28L44 28L44 30L45 30L45 31L46 31L46 32L47 32L47 31L46 31L46 30L45 30L45 28L44 28L44 25L45 25L45 24L42 24L42 23L43 23L43 22L42 22L42 23L41 23L41 22ZM28 23L28 24L29 24L29 23ZM19 24L19 25L20 25L20 24ZM22 24L22 25L25 25L25 26L22 26L22 27L23 27L23 28L24 28L24 29L25 29L25 30L24 30L24 31L23 31L23 30L22 30L22 31L23 31L23 32L21 32L21 33L20 33L20 34L19 34L19 33L16 33L16 34L17 34L17 35L18 35L18 34L19 34L19 37L20 37L20 38L19 38L19 39L21 39L21 37L20 37L20 36L22 36L22 39L23 39L23 40L24 40L24 41L25 41L25 42L24 42L24 45L25 45L25 44L26 44L26 45L27 45L27 46L25 46L25 47L22 47L22 46L21 46L21 48L22 48L22 49L23 49L23 48L24 48L24 49L25 49L25 51L23 51L23 52L24 52L24 53L25 53L25 51L27 51L27 52L26 52L26 53L27 53L27 52L30 52L30 51L31 51L31 52L33 52L33 50L34 50L34 51L36 51L36 50L35 50L35 49L34 49L34 47L35 47L35 48L38 48L38 47L37 47L37 46L36 46L36 47L35 47L35 46L33 46L33 45L31 45L31 44L29 44L29 42L30 42L30 43L33 43L33 41L34 41L34 40L33 40L33 41L32 41L32 42L30 42L30 41L27 41L27 40L28 40L28 39L29 39L29 40L32 40L32 39L31 39L31 38L33 38L33 39L36 39L36 40L38 40L38 42L39 42L39 39L40 39L40 38L42 38L42 39L43 39L43 38L42 38L42 37L43 37L43 36L44 36L44 37L45 37L45 38L44 38L44 39L46 39L46 38L47 38L47 37L45 37L45 36L44 36L44 35L43 35L43 34L41 34L41 36L39 36L39 35L35 35L35 36L34 36L34 35L33 35L33 36L34 36L34 37L36 37L36 38L33 38L33 37L32 37L32 36L31 36L31 35L29 35L29 37L28 37L28 39L25 39L25 38L23 38L23 37L25 37L25 36L23 36L23 35L24 35L24 34L23 34L23 35L22 35L22 33L25 33L25 35L26 35L26 37L27 37L27 36L28 36L28 34L29 34L29 33L30 33L30 31L29 31L29 30L30 30L30 29L31 29L31 30L35 30L35 29L33 29L33 28L32 28L32 27L33 27L33 25L34 25L34 26L35 26L35 27L34 27L34 28L35 28L35 27L36 27L36 28L38 28L38 27L36 27L36 26L37 26L37 25L35 25L35 24L30 24L30 25L28 25L28 27L25 27L25 26L26 26L26 25L27 25L27 24ZM5 25L5 26L4 26L4 27L3 27L3 28L7 28L7 27L6 27L6 26L7 26L7 25ZM12 25L12 26L13 26L13 25ZM31 25L31 26L29 26L29 27L28 27L28 28L27 28L27 29L26 29L26 32L27 32L27 31L28 31L28 29L29 29L29 27L30 27L30 28L31 28L31 26L32 26L32 25ZM38 25L38 26L39 26L39 25ZM40 26L40 27L41 27L41 26ZM24 27L24 28L25 28L25 27ZM52 28L52 29L53 29L53 28ZM58 28L58 30L61 30L61 29L59 29L59 28ZM12 30L12 31L14 31L14 30ZM5 31L5 34L8 34L8 31ZM24 31L24 32L25 32L25 31ZM31 31L31 34L34 34L34 31ZM36 31L36 32L37 32L37 31ZM57 31L57 34L60 34L60 31ZM62 31L62 32L63 32L63 31ZM6 32L6 33L7 33L7 32ZM28 32L28 33L29 33L29 32ZM32 32L32 33L33 33L33 32ZM58 32L58 33L59 33L59 32ZM26 33L26 34L27 34L27 33ZM61 33L61 35L62 35L62 36L63 36L63 37L64 37L64 36L63 36L63 35L62 35L62 34L63 34L63 33ZM20 34L20 35L21 35L21 34ZM54 34L54 37L56 37L56 36L55 36L55 34ZM3 36L3 37L4 37L4 39L5 39L5 37L7 37L7 38L6 38L6 39L7 39L7 38L8 38L8 37L9 37L9 36L8 36L8 37L7 37L7 36ZM17 36L17 37L18 37L18 36ZM36 36L36 37L37 37L37 36ZM38 36L38 37L39 37L39 36ZM13 37L13 38L11 38L11 39L10 39L10 40L11 40L11 39L13 39L13 41L15 41L15 40L14 40L14 39L15 39L15 38L14 38L14 37ZM60 37L60 38L61 38L61 37ZM29 38L29 39L30 39L30 38ZM37 38L37 39L39 39L39 38ZM24 39L24 40L25 40L25 39ZM26 41L26 42L27 42L27 41ZM48 41L48 42L47 42L47 44L46 44L46 46L47 46L47 47L45 47L45 48L44 48L44 49L45 49L45 50L47 50L47 51L46 51L46 52L44 52L44 53L45 53L45 54L47 54L47 55L48 55L48 56L49 56L49 55L50 55L50 54L51 54L51 52L50 52L50 50L52 50L52 49L53 49L53 48L52 48L52 49L51 49L51 47L50 47L50 46L51 46L51 45L50 45L50 46L49 46L49 45L48 45L48 44L52 44L52 45L53 45L53 44L52 44L52 43L49 43L49 41ZM50 41L50 42L51 42L51 41ZM54 41L54 42L55 42L55 41ZM15 43L15 44L16 44L16 45L14 45L14 44L12 44L12 45L13 45L13 46L14 46L14 47L12 47L12 48L14 48L14 47L15 47L15 49L16 49L16 50L18 50L18 51L16 51L16 52L18 52L18 53L20 53L20 51L19 51L19 50L21 50L21 51L22 51L22 50L21 50L21 49L20 49L20 48L19 48L19 49L16 49L16 47L15 47L15 46L16 46L16 45L17 45L17 47L18 47L18 46L19 46L19 47L20 47L20 46L19 46L19 45L18 45L18 44L16 44L16 43ZM26 43L26 44L27 44L27 45L29 45L29 44L28 44L28 43ZM40 43L40 44L41 44L41 43ZM34 44L34 45L35 45L35 44ZM44 44L44 45L45 45L45 44ZM3 45L3 46L4 46L4 45ZM30 45L30 46L27 46L27 47L26 47L26 48L25 48L25 49L26 49L26 50L27 50L27 49L30 49L30 48L31 48L31 45ZM38 45L38 46L39 46L39 45ZM32 46L32 49L31 49L31 51L32 51L32 49L33 49L33 46ZM48 46L48 47L47 47L47 48L46 48L46 49L47 49L47 48L48 48L48 49L49 49L49 50L48 50L48 51L49 51L49 50L50 50L50 48L48 48L48 47L49 47L49 46ZM52 46L52 47L54 47L54 48L55 48L55 46ZM28 47L28 48L30 48L30 47ZM58 47L58 48L57 48L57 51L58 51L58 50L59 50L59 49L58 49L58 48L59 48L59 47ZM26 48L26 49L27 49L27 48ZM28 50L28 51L30 51L30 50ZM2 51L2 52L3 52L3 51ZM6 51L6 52L7 52L7 53L6 53L6 54L8 54L8 53L9 53L9 51L8 51L8 52L7 52L7 51ZM62 51L62 52L63 52L63 51ZM21 52L21 53L22 53L22 55L23 55L23 53L22 53L22 52ZM46 52L46 53L49 53L49 54L48 54L48 55L49 55L49 54L50 54L50 52ZM16 54L16 55L17 55L17 54ZM38 54L38 55L39 55L39 54ZM26 55L26 56L27 56L27 57L29 57L29 56L28 56L28 55ZM52 55L52 56L53 56L53 55ZM60 55L60 56L61 56L61 57L62 57L62 58L63 58L63 57L62 57L62 56L61 56L61 55ZM31 57L31 60L34 60L34 57ZM57 57L57 60L60 60L60 57ZM24 58L24 59L25 59L25 58ZM32 58L32 59L33 59L33 58ZM50 58L50 59L51 59L51 58ZM58 58L58 59L59 59L59 58ZM45 59L45 60L44 60L44 63L45 63L45 60L46 60L46 62L47 62L47 60L46 60L46 59ZM61 59L61 61L60 61L60 62L61 62L61 61L62 61L62 60L64 60L64 59ZM11 60L11 61L12 61L12 60ZM55 61L55 62L56 62L56 61ZM57 61L57 62L58 62L58 64L59 64L59 61ZM19 62L19 63L20 63L20 62ZM12 63L12 64L11 64L11 65L12 65L12 64L13 64L13 65L14 65L14 64L13 64L13 63ZM15 63L15 65L17 65L17 64L16 64L16 63ZM34 63L34 64L35 64L35 63ZM52 63L52 64L54 64L54 65L55 65L55 64L54 64L54 63ZM0 0L0 7L7 7L7 0ZM1 1L1 6L6 6L6 1ZM2 2L2 5L5 5L5 2ZM58 0L58 7L65 7L65 0ZM59 1L59 6L64 6L64 1ZM60 2L60 5L63 5L63 2ZM0 58L0 65L7 65L7 58ZM1 59L1 64L6 64L6 59ZM2 60L2 63L5 63L5 60Z" fill="#000000"/></g></g></svg>
