<?xml version="1.0" encoding="UTF-8"?>
<svg xmlns="http://www.w3.org/2000/svg" version="1.1" width="300" height="300" viewBox="0 0 300 300"><rect x="0" y="0" width="300" height="300" fill="#ffffff"/><g transform="scale(4.615)"><g transform="translate(0,0)"><path fill-rule="evenodd" d="M9 0L9 1L8 1L8 2L9 2L9 3L8 3L8 4L10 4L10 5L8 5L8 7L9 7L9 6L10 6L10 7L11 7L11 8L10 8L10 9L9 9L9 8L6 8L6 9L5 9L5 8L0 8L0 10L1 10L1 9L3 9L3 12L2 12L2 11L1 11L1 13L3 13L3 14L5 14L5 15L7 15L7 14L8 14L8 16L9 16L9 14L8 14L8 13L10 13L10 14L12 14L12 16L11 16L11 15L10 15L10 16L11 16L11 17L10 17L10 18L11 18L11 20L10 20L10 21L9 21L9 20L8 20L8 19L7 19L7 18L9 18L9 17L7 17L7 16L3 16L3 18L4 18L4 19L5 19L5 20L6 20L6 21L9 21L9 22L6 22L6 23L7 23L7 24L6 24L6 25L5 25L5 26L4 26L4 24L5 24L5 22L4 22L4 24L3 24L3 23L2 23L2 25L1 25L1 24L0 24L0 25L1 25L1 26L0 26L0 29L1 29L1 30L0 30L0 31L1 31L1 32L0 32L0 34L1 34L1 32L2 32L2 29L1 29L1 28L2 28L2 27L3 27L3 28L6 28L6 29L5 29L5 30L4 30L4 29L3 29L3 30L4 30L4 32L3 32L3 33L2 33L2 34L3 34L3 33L4 33L4 35L1 35L1 36L0 36L0 39L1 39L1 40L2 40L2 41L3 41L3 42L0 42L0 47L1 47L1 46L2 46L2 47L3 47L3 46L4 46L4 48L3 48L3 49L2 49L2 51L1 51L1 52L0 52L0 53L1 53L1 54L2 54L2 55L3 55L3 56L1 56L1 55L0 55L0 56L1 56L1 57L3 57L3 56L4 56L4 57L5 57L5 56L4 56L4 54L5 54L5 55L7 55L7 54L5 54L5 53L7 53L7 52L8 52L8 51L7 51L7 50L6 50L6 51L7 51L7 52L5 52L5 50L4 50L4 51L3 51L3 49L4 49L4 48L5 48L5 49L7 49L7 48L8 48L8 49L9 49L9 48L8 48L8 47L9 47L9 44L10 44L10 50L11 50L11 52L9 52L9 53L10 53L10 54L11 54L11 52L12 52L12 53L13 53L13 54L12 54L12 57L13 57L13 56L14 56L14 51L13 51L13 52L12 52L12 50L13 50L13 49L15 49L15 53L17 53L17 54L16 54L16 55L15 55L15 56L16 56L16 57L17 57L17 56L16 56L16 55L18 55L18 57L19 57L19 58L18 58L18 59L21 59L21 60L22 60L22 59L21 59L21 58L25 58L25 59L24 59L24 60L23 60L23 61L22 61L22 62L21 62L21 61L19 61L19 60L17 60L17 61L16 61L16 59L17 59L17 58L15 58L15 59L14 59L14 58L13 58L13 59L12 59L12 58L11 58L11 57L10 57L10 59L9 59L9 57L8 57L8 56L6 56L6 57L8 57L8 59L9 59L9 60L8 60L8 65L9 65L9 60L10 60L10 59L12 59L12 60L11 60L11 61L13 61L13 62L11 62L11 64L10 64L10 65L13 65L13 63L14 63L14 62L15 62L15 63L16 63L16 65L17 65L17 64L18 64L18 65L19 65L19 64L20 64L20 65L21 65L21 63L22 63L22 64L23 64L23 65L24 65L24 63L25 63L25 65L26 65L26 63L25 63L25 62L27 62L27 61L31 61L31 63L32 63L32 64L33 64L33 65L35 65L35 64L33 64L33 63L32 63L32 62L33 62L33 61L35 61L35 60L36 60L36 61L39 61L39 62L38 62L38 63L37 63L37 62L36 62L36 63L37 63L37 64L36 64L36 65L37 65L37 64L39 64L39 63L40 63L40 64L42 64L42 65L44 65L44 64L45 64L45 65L46 65L46 63L47 63L47 65L49 65L49 64L48 64L48 63L51 63L51 64L50 64L50 65L51 65L51 64L53 64L53 65L63 65L63 64L64 64L64 61L65 61L65 60L64 60L64 59L63 59L63 58L62 58L62 57L64 57L64 58L65 58L65 57L64 57L64 56L65 56L65 55L63 55L63 56L62 56L62 54L65 54L65 53L63 53L63 52L62 52L62 51L63 51L63 50L65 50L65 49L64 49L64 48L62 48L62 49L63 49L63 50L61 50L61 49L60 49L60 51L58 51L58 50L59 50L59 49L58 49L58 48L59 48L59 47L60 47L60 48L61 48L61 47L60 47L60 46L61 46L61 45L62 45L62 47L63 47L63 45L65 45L65 43L64 43L64 42L65 42L65 40L62 40L62 39L63 39L63 38L65 38L65 35L64 35L64 37L63 37L63 36L62 36L62 35L63 35L63 34L62 34L62 35L61 35L61 33L63 33L63 32L61 32L61 30L58 30L58 28L59 28L59 29L64 29L64 28L65 28L65 27L63 27L63 26L62 26L62 27L63 27L63 28L60 28L60 27L61 27L61 25L64 25L64 26L65 26L65 25L64 25L64 24L62 24L62 21L63 21L63 22L65 22L65 21L64 21L64 20L65 20L65 19L63 19L63 18L65 18L65 15L64 15L64 16L62 16L62 18L60 18L60 19L63 19L63 20L62 20L62 21L61 21L61 20L59 20L59 18L58 18L58 17L59 17L59 16L60 16L60 17L61 17L61 16L60 16L60 15L61 15L61 14L62 14L62 13L64 13L64 14L65 14L65 13L64 13L64 12L65 12L65 11L64 11L64 12L62 12L62 13L61 13L61 12L59 12L59 14L56 14L56 13L57 13L57 12L58 12L58 11L61 11L61 10L65 10L65 9L64 9L64 8L63 8L63 9L62 9L62 8L61 8L61 9L60 9L60 8L59 8L59 10L56 10L56 9L58 9L58 8L55 8L55 5L54 5L54 4L56 4L56 5L57 5L57 4L56 4L56 3L57 3L57 1L56 1L56 0L55 0L55 1L56 1L56 3L55 3L55 2L54 2L54 3L53 3L53 1L54 1L54 0L51 0L51 1L49 1L49 0L48 0L48 1L46 1L46 0L45 0L45 1L44 1L44 0L41 0L41 1L44 1L44 3L41 3L41 2L39 2L39 1L38 1L38 0L37 0L37 1L36 1L36 2L37 2L37 3L35 3L35 1L34 1L34 0L30 0L30 1L32 1L32 3L35 3L35 4L31 4L31 2L29 2L29 1L28 1L28 0L26 0L26 1L25 1L25 0L24 0L24 1L23 1L23 0L21 0L21 1L22 1L22 2L21 2L21 3L19 3L19 4L18 4L18 3L17 3L17 4L16 4L16 3L15 3L15 4L16 4L16 5L17 5L17 6L16 6L16 7L15 7L15 6L14 6L14 3L13 3L13 2L11 2L11 3L10 3L10 1L11 1L11 0ZM12 0L12 1L13 1L13 0ZM14 0L14 1L15 1L15 2L16 2L16 0ZM19 0L19 2L20 2L20 0ZM17 1L17 2L18 2L18 1ZM24 2L24 3L23 3L23 4L22 4L22 3L21 3L21 4L20 4L20 5L18 5L18 4L17 4L17 5L18 5L18 6L17 6L17 7L16 7L16 8L17 8L17 7L18 7L18 8L19 8L19 9L17 9L17 10L18 10L18 11L19 11L19 12L20 12L20 13L18 13L18 12L17 12L17 11L16 11L16 9L15 9L15 10L14 10L14 9L13 9L13 8L14 8L14 6L13 6L13 5L12 5L12 6L11 6L11 5L10 5L10 6L11 6L11 7L12 7L12 8L11 8L11 9L10 9L10 10L8 10L8 9L6 9L6 10L5 10L5 9L4 9L4 10L5 10L5 11L4 11L4 12L3 12L3 13L4 13L4 12L5 12L5 13L6 13L6 14L7 14L7 13L8 13L8 11L12 11L12 12L11 12L11 13L12 13L12 14L13 14L13 15L14 15L14 17L13 17L13 16L12 16L12 17L13 17L13 18L12 18L12 19L13 19L13 20L11 20L11 22L10 22L10 23L8 23L8 24L9 24L9 25L6 25L6 26L5 26L5 27L6 27L6 28L7 28L7 29L6 29L6 30L7 30L7 29L8 29L8 28L9 28L9 27L8 27L8 28L7 28L7 27L6 27L6 26L10 26L10 27L11 27L11 30L12 30L12 28L13 28L13 27L14 27L14 26L17 26L17 25L16 25L16 24L17 24L17 23L18 23L18 22L17 22L17 21L18 21L18 20L17 20L17 19L18 19L18 18L19 18L19 17L20 17L20 19L19 19L19 23L21 23L21 22L22 22L22 23L23 23L23 24L22 24L22 25L20 25L20 24L19 24L19 25L18 25L18 27L16 27L16 29L14 29L14 30L13 30L13 31L14 31L14 32L16 32L16 31L15 31L15 30L16 30L16 29L17 29L17 28L18 28L18 27L19 27L19 29L18 29L18 30L17 30L17 33L16 33L16 35L15 35L15 33L12 33L12 32L10 32L10 29L9 29L9 32L10 32L10 33L9 33L9 36L10 36L10 38L8 38L8 36L7 36L7 35L5 35L5 36L7 36L7 37L6 37L6 38L5 38L5 37L4 37L4 36L1 36L1 38L2 38L2 37L4 37L4 39L2 39L2 40L3 40L3 41L4 41L4 42L5 42L5 41L6 41L6 42L8 42L8 41L9 41L9 43L5 43L5 44L3 44L3 43L1 43L1 44L3 44L3 45L2 45L2 46L3 46L3 45L4 45L4 46L5 46L5 48L7 48L7 47L8 47L8 46L7 46L7 45L6 45L6 44L9 44L9 43L15 43L15 45L16 45L16 46L13 46L13 47L16 47L16 48L17 48L17 49L16 49L16 52L17 52L17 53L18 53L18 52L17 52L17 51L18 51L18 50L19 50L19 49L18 49L18 48L21 48L21 49L20 49L20 52L19 52L19 53L20 53L20 54L19 54L19 56L21 56L21 57L20 57L20 58L21 58L21 57L23 57L23 56L24 56L24 57L25 57L25 58L26 58L26 57L27 57L27 58L30 58L30 56L32 56L32 55L31 55L31 54L33 54L33 53L34 53L34 55L36 55L36 56L37 56L37 57L38 57L38 58L39 58L39 60L40 60L40 61L43 61L43 62L41 62L41 63L42 63L42 64L43 64L43 63L45 63L45 62L44 62L44 61L45 61L45 60L46 60L46 62L48 62L48 61L47 61L47 60L49 60L49 59L50 59L50 62L51 62L51 63L53 63L53 64L55 64L55 63L56 63L56 64L57 64L57 62L58 62L58 64L59 64L59 61L57 61L57 62L56 62L56 61L55 61L55 60L56 60L56 59L55 59L55 58L56 58L56 56L57 56L57 55L56 55L56 54L57 54L57 53L58 53L58 55L59 55L59 56L60 56L60 55L59 55L59 53L61 53L61 54L62 54L62 52L61 52L61 51L60 51L60 52L59 52L59 53L58 53L58 51L57 51L57 52L54 52L54 51L56 51L56 50L57 50L57 48L58 48L58 47L59 47L59 46L57 46L57 47L56 47L56 48L54 48L54 47L55 47L55 46L56 46L56 45L57 45L57 44L55 44L55 46L52 46L52 47L53 47L53 48L49 48L49 47L50 47L50 46L51 46L51 45L50 45L50 46L47 46L47 44L52 44L52 45L53 45L53 44L54 44L54 43L56 43L56 42L57 42L57 43L59 43L59 44L58 44L58 45L61 45L61 44L64 44L64 43L62 43L62 40L61 40L61 39L62 39L62 38L63 38L63 37L61 37L61 36L60 36L60 35L59 35L59 36L57 36L57 37L58 37L58 39L60 39L60 40L58 40L58 41L61 41L61 42L57 42L57 41L56 41L56 40L57 40L57 38L54 38L54 39L53 39L53 38L52 38L52 39L53 39L53 40L51 40L51 39L50 39L50 38L51 38L51 37L53 37L53 36L52 36L52 34L53 34L53 32L52 32L52 34L51 34L51 31L49 31L49 29L50 29L50 30L51 30L51 29L50 29L50 28L51 28L51 27L49 27L49 26L48 26L48 25L46 25L46 24L47 24L47 23L48 23L48 24L49 24L49 25L50 25L50 26L52 26L52 27L53 27L53 28L52 28L52 29L55 29L55 30L53 30L53 31L56 31L56 30L57 30L57 29L56 29L56 27L55 27L55 26L57 26L57 25L56 25L56 24L55 24L55 26L54 26L54 24L49 24L49 23L48 23L48 22L47 22L47 20L49 20L49 19L48 19L48 18L51 18L51 16L52 16L52 17L53 17L53 16L54 16L54 17L55 17L55 16L57 16L57 15L56 15L56 14L54 14L54 15L53 15L53 14L52 14L52 15L50 15L50 14L51 14L51 13L53 13L53 12L52 12L52 11L55 11L55 12L54 12L54 13L56 13L56 12L57 12L57 11L56 11L56 10L52 10L52 9L55 9L55 8L54 8L54 6L53 6L53 8L52 8L52 5L53 5L53 3L52 3L52 2L46 2L46 3L47 3L47 4L45 4L45 3L44 3L44 4L43 4L43 5L41 5L41 3L40 3L40 4L38 4L38 5L37 5L37 4L35 4L35 9L30 9L30 10L29 10L29 9L28 9L28 11L25 11L25 10L22 10L22 11L23 11L23 12L21 12L21 11L20 11L20 10L21 10L21 9L20 9L20 8L21 8L21 7L22 7L22 9L27 9L27 8L29 8L29 7L30 7L30 6L29 6L29 7L28 7L28 6L27 6L27 5L24 5L24 4L25 4L25 3L26 3L26 4L27 4L27 2ZM38 2L38 3L39 3L39 2ZM11 3L11 4L13 4L13 3ZM48 3L48 5L46 5L46 7L45 7L45 6L44 6L44 7L43 7L43 6L42 6L42 7L43 7L43 8L45 8L45 9L44 9L44 10L45 10L45 9L47 9L47 10L46 10L46 11L44 11L44 12L43 12L43 11L42 11L42 10L43 10L43 9L42 9L42 10L41 10L41 11L40 11L40 12L42 12L42 14L43 14L43 13L44 13L44 14L46 14L46 15L44 15L44 16L43 16L43 15L42 15L42 16L41 16L41 15L40 15L40 14L41 14L41 13L39 13L39 12L38 12L38 13L37 13L37 12L34 12L34 11L35 11L35 10L33 10L33 11L32 11L32 10L30 10L30 12L31 12L31 11L32 11L32 12L33 12L33 13L36 13L36 15L35 15L35 14L34 14L34 15L33 15L33 14L32 14L32 13L30 13L30 14L32 14L32 16L31 16L31 15L30 15L30 16L28 16L28 17L26 17L26 16L27 16L27 15L26 15L26 16L25 16L25 11L24 11L24 12L23 12L23 13L22 13L22 15L21 15L21 16L20 16L20 17L21 17L21 16L22 16L22 15L24 15L24 16L23 16L23 17L22 17L22 18L21 18L21 19L20 19L20 21L22 21L22 20L21 20L21 19L22 19L22 18L27 18L27 19L24 19L24 20L23 20L23 21L24 21L24 22L25 22L25 21L26 21L26 24L27 24L27 25L24 25L24 24L25 24L25 23L24 23L24 24L23 24L23 25L22 25L22 26L21 26L21 28L22 28L22 26L23 26L23 28L24 28L24 29L19 29L19 30L18 30L18 31L19 31L19 32L18 32L18 33L17 33L17 35L16 35L16 37L18 37L18 39L19 39L19 40L15 40L15 37L14 37L14 36L13 36L13 37L12 37L12 36L11 36L11 34L12 34L12 35L13 35L13 34L12 34L12 33L10 33L10 36L11 36L11 37L12 37L12 38L10 38L10 42L11 42L11 41L12 41L12 42L13 42L13 41L12 41L12 40L13 40L13 39L14 39L14 40L15 40L15 42L16 42L16 41L19 41L19 44L18 44L18 43L16 43L16 44L18 44L18 45L20 45L20 41L21 41L21 43L22 43L22 42L23 42L23 44L24 44L24 46L23 46L23 45L22 45L22 46L21 46L21 48L24 48L24 47L25 47L25 49L22 49L22 50L21 50L21 51L22 51L22 50L24 50L24 51L23 51L23 52L25 52L25 53L23 53L23 54L25 54L25 55L24 55L24 56L25 56L25 55L28 55L28 56L27 56L27 57L29 57L29 55L30 55L30 54L29 54L29 55L28 55L28 53L29 53L29 52L28 52L28 51L30 51L30 52L31 52L31 51L30 51L30 50L31 50L31 49L33 49L33 50L32 50L32 51L33 51L33 50L34 50L34 49L35 49L35 48L36 48L36 49L37 49L37 50L36 50L36 51L34 51L34 53L37 53L37 52L38 52L38 51L39 51L39 52L41 52L41 49L42 49L42 50L43 50L43 51L42 51L42 52L43 52L43 53L42 53L42 54L41 54L41 53L40 53L40 54L38 54L38 55L37 55L37 54L36 54L36 55L37 55L37 56L38 56L38 55L39 55L39 56L41 56L41 55L42 55L42 56L43 56L43 57L40 57L40 58L41 58L41 59L40 59L40 60L41 60L41 59L42 59L42 60L43 60L43 61L44 61L44 60L45 60L45 59L46 59L46 60L47 60L47 58L44 58L44 56L45 56L45 57L50 57L50 56L53 56L53 55L51 55L51 54L50 54L50 52L51 52L51 53L52 53L52 52L53 52L53 51L52 51L52 50L50 50L50 52L47 52L47 51L49 51L49 50L48 50L48 49L49 49L49 48L46 48L46 47L47 47L47 46L46 46L46 44L47 44L47 43L48 43L48 42L49 42L49 43L51 43L51 42L53 42L53 43L52 43L52 44L53 44L53 43L54 43L54 42L55 42L55 41L54 41L54 42L53 42L53 41L51 41L51 42L50 42L50 41L49 41L49 40L50 40L50 39L49 39L49 40L48 40L48 41L47 41L47 42L46 42L46 43L44 43L44 44L43 44L43 45L42 45L42 46L45 46L45 47L44 47L44 48L42 48L42 47L40 47L40 46L41 46L41 45L40 45L40 44L41 44L41 41L40 41L40 43L39 43L39 42L38 42L38 41L39 41L39 40L38 40L38 41L37 41L37 40L35 40L35 39L33 39L33 38L32 38L32 37L34 37L34 36L35 36L35 38L36 38L36 39L37 39L37 38L38 38L38 39L39 39L39 38L38 38L38 37L39 37L39 36L38 36L38 37L37 37L37 36L35 36L35 32L36 32L36 33L37 33L37 34L38 34L38 35L40 35L40 36L42 36L42 38L43 38L43 39L44 39L44 40L42 40L42 39L41 39L41 37L40 37L40 40L42 40L42 42L44 42L44 40L45 40L45 39L44 39L44 38L45 38L45 37L46 37L46 36L47 36L47 38L46 38L46 39L47 39L47 38L50 38L50 37L51 37L51 36L47 36L47 35L48 35L48 33L50 33L50 32L48 32L48 29L49 29L49 28L47 28L47 27L48 27L48 26L43 26L43 23L44 23L44 24L46 24L46 23L47 23L47 22L46 22L46 21L44 21L44 20L45 20L45 18L46 18L46 20L47 20L47 18L46 18L46 17L50 17L50 16L46 16L46 15L48 15L48 14L46 14L46 13L47 13L47 12L46 12L46 11L47 11L47 10L48 10L48 9L49 9L49 10L50 10L50 12L48 12L48 13L51 13L51 11L52 11L52 10L50 10L50 7L51 7L51 5L52 5L52 4L51 4L51 5L50 5L50 4L49 4L49 3ZM21 4L21 5L20 5L20 7L21 7L21 5L22 5L22 4ZM28 4L28 5L30 5L30 4ZM44 4L44 5L45 5L45 4ZM31 5L31 8L34 8L34 5ZM36 5L36 7L37 7L37 5ZM38 5L38 7L39 7L39 8L38 8L38 9L39 9L39 10L37 10L37 8L36 8L36 10L37 10L37 11L39 11L39 10L40 10L40 8L41 8L41 6L40 6L40 7L39 7L39 5ZM48 5L48 6L47 6L47 7L46 7L46 8L47 8L47 9L48 9L48 8L49 8L49 7L50 7L50 5ZM12 6L12 7L13 7L13 6ZM18 6L18 7L19 7L19 6ZM22 6L22 7L23 7L23 6ZM24 6L24 7L25 7L25 6ZM26 6L26 8L27 8L27 6ZM32 6L32 7L33 7L33 6ZM48 6L48 7L49 7L49 6ZM56 6L56 7L57 7L57 6ZM11 9L11 10L12 10L12 11L13 11L13 12L15 12L15 13L14 13L14 15L15 15L15 13L16 13L16 12L15 12L15 11L13 11L13 9ZM19 9L19 10L20 10L20 9ZM6 10L6 11L8 11L8 10ZM28 11L28 12L27 12L27 13L26 13L26 14L27 14L27 13L29 13L29 11ZM6 12L6 13L7 13L7 12ZM44 12L44 13L45 13L45 12ZM23 13L23 14L24 14L24 13ZM38 13L38 14L39 14L39 13ZM60 13L60 14L61 14L61 13ZM0 14L0 17L1 17L1 18L2 18L2 17L1 17L1 14ZM17 14L17 15L16 15L16 16L17 16L17 15L18 15L18 17L19 17L19 15L20 15L20 14L19 14L19 15L18 15L18 14ZM36 15L36 16L32 16L32 17L33 17L33 18L30 18L30 17L31 17L31 16L30 16L30 17L28 17L28 18L29 18L29 19L28 19L28 20L26 20L26 21L28 21L28 22L29 22L29 23L31 23L31 24L29 24L29 25L27 25L27 26L24 26L24 28L26 28L26 29L27 29L27 30L25 30L25 29L24 29L24 30L23 30L23 31L24 31L24 32L22 32L22 31L21 31L21 32L22 32L22 33L23 33L23 34L24 34L24 33L25 33L25 34L26 34L26 36L23 36L23 37L22 37L22 36L21 36L21 35L22 35L22 34L21 34L21 33L20 33L20 32L19 32L19 33L18 33L18 35L17 35L17 36L18 36L18 37L20 37L20 38L21 38L21 37L22 37L22 38L23 38L23 39L24 39L24 37L25 37L25 39L27 39L27 38L26 38L26 37L28 37L28 38L30 38L30 39L31 39L31 41L30 41L30 40L29 40L29 39L28 39L28 40L29 40L29 41L27 41L27 40L22 40L22 41L25 41L25 42L24 42L24 43L25 43L25 42L26 42L26 43L29 43L29 44L30 44L30 45L28 45L28 44L26 44L26 45L25 45L25 47L26 47L26 45L27 45L27 48L26 48L26 49L25 49L25 52L26 52L26 53L27 53L27 52L26 52L26 51L27 51L27 50L30 50L30 49L27 49L27 48L28 48L28 47L29 47L29 48L30 48L30 47L31 47L31 44L30 44L30 43L31 43L31 42L32 42L32 43L33 43L33 45L32 45L32 46L33 46L33 45L34 45L34 47L36 47L36 48L38 48L38 50L37 50L37 51L36 51L36 52L37 52L37 51L38 51L38 50L40 50L40 49L41 49L41 48L40 48L40 49L39 49L39 47L37 47L37 45L38 45L38 46L39 46L39 44L37 44L37 43L38 43L38 42L37 42L37 43L35 43L35 42L36 42L36 41L35 41L35 40L34 40L34 41L35 41L35 42L33 42L33 41L32 41L32 40L33 40L33 39L32 39L32 38L31 38L31 37L28 37L28 36L30 36L30 35L29 35L29 34L30 34L30 31L29 31L29 30L32 30L32 29L34 29L34 30L35 30L35 31L36 31L36 32L38 32L38 34L39 34L39 33L43 33L43 34L42 34L42 36L44 36L44 37L45 37L45 36L46 36L46 35L45 35L45 34L44 34L44 33L45 33L45 32L44 32L44 31L46 31L46 30L47 30L47 29L46 29L46 30L45 30L45 28L44 28L44 31L43 31L43 30L42 30L42 29L43 29L43 28L42 28L42 27L43 27L43 26L42 26L42 25L41 25L41 24L39 24L39 25L38 25L38 23L35 23L35 24L34 24L34 23L33 23L33 24L32 24L32 23L31 23L31 22L33 22L33 20L34 20L34 22L35 22L35 20L34 20L34 19L33 19L33 18L35 18L35 19L36 19L36 20L37 20L37 19L38 19L38 18L40 18L40 19L41 19L41 20L39 20L39 21L38 21L38 22L39 22L39 21L41 21L41 20L42 20L42 19L43 19L43 18L45 18L45 16L44 16L44 17L43 17L43 16L42 16L42 17L41 17L41 16L39 16L39 15ZM52 15L52 16L53 16L53 15ZM54 15L54 16L55 16L55 15ZM24 16L24 17L25 17L25 16ZM36 16L36 17L35 17L35 18L36 18L36 19L37 19L37 18L38 18L38 17L39 17L39 16L38 16L38 17L37 17L37 16ZM6 17L6 18L5 18L5 19L6 19L6 20L7 20L7 19L6 19L6 18L7 18L7 17ZM40 17L40 18L41 18L41 17ZM42 17L42 18L43 18L43 17ZM56 17L56 18L57 18L57 21L56 21L56 20L54 20L54 21L55 21L55 22L53 22L53 20L52 20L52 21L50 21L50 22L51 22L51 23L52 23L52 22L53 22L53 23L57 23L57 24L58 24L58 26L59 26L59 24L61 24L61 22L59 22L59 21L58 21L58 18L57 18L57 17ZM13 18L13 19L14 19L14 20L15 20L15 19L17 19L17 18L15 18L15 19L14 19L14 18ZM52 18L52 19L55 19L55 18ZM0 19L0 21L1 21L1 22L0 22L0 23L1 23L1 22L3 22L3 19ZM29 19L29 20L28 20L28 21L30 21L30 22L31 22L31 21L32 21L32 20L33 20L33 19ZM24 20L24 21L25 21L25 20ZM30 20L30 21L31 21L31 20ZM12 21L12 22L11 22L11 23L13 23L13 25L14 25L14 23L13 23L13 22L14 22L14 21ZM15 21L15 22L16 22L16 21ZM40 22L40 23L43 23L43 22ZM58 22L58 23L59 23L59 22ZM15 23L15 24L16 24L16 23ZM10 24L10 26L11 26L11 27L13 27L13 26L11 26L11 25L12 25L12 24ZM31 24L31 25L30 25L30 26L31 26L31 25L32 25L32 26L33 26L33 27L29 27L29 28L28 28L28 27L26 27L26 28L28 28L28 29L30 29L30 28L33 28L33 27L34 27L34 28L35 28L35 29L38 29L38 28L39 28L39 30L38 30L38 32L39 32L39 30L40 30L40 32L41 32L41 31L42 31L42 32L43 32L43 33L44 33L44 32L43 32L43 31L42 31L42 30L40 30L40 28L41 28L41 27L40 27L40 26L41 26L41 25L39 25L39 26L38 26L38 27L37 27L37 26L36 26L36 25L37 25L37 24L35 24L35 26L33 26L33 25L34 25L34 24L33 24L33 25L32 25L32 24ZM19 25L19 26L20 26L20 25ZM1 26L1 27L2 27L2 26ZM3 26L3 27L4 27L4 26ZM35 26L35 27L36 27L36 28L37 28L37 27L36 27L36 26ZM54 27L54 28L55 28L55 27ZM57 27L57 28L58 28L58 27ZM19 30L19 31L20 31L20 30ZM27 30L27 31L25 31L25 33L26 33L26 34L27 34L27 35L28 35L28 33L29 33L29 32L28 32L28 30ZM36 30L36 31L37 31L37 30ZM62 30L62 31L63 31L63 30ZM5 31L5 34L8 34L8 31ZM31 31L31 34L34 34L34 31ZM57 31L57 34L60 34L60 31ZM6 32L6 33L7 33L7 32ZM26 32L26 33L27 33L27 32ZM32 32L32 33L33 33L33 32ZM55 32L55 33L56 33L56 32ZM58 32L58 33L59 33L59 32ZM64 32L64 34L65 34L65 32ZM19 33L19 34L20 34L20 35L21 35L21 34L20 34L20 33ZM46 33L46 34L47 34L47 33ZM40 34L40 35L41 35L41 34ZM50 34L50 35L51 35L51 34ZM54 34L54 37L56 37L56 36L55 36L55 35L56 35L56 34ZM31 35L31 36L32 36L32 35ZM44 35L44 36L45 36L45 35ZM20 36L20 37L21 37L21 36ZM13 37L13 38L14 38L14 37ZM36 37L36 38L37 38L37 37ZM60 37L60 39L61 39L61 37ZM6 38L6 39L5 39L5 40L6 40L6 41L8 41L8 40L9 40L9 39L8 39L8 38ZM6 39L6 40L7 40L7 39ZM54 39L54 40L56 40L56 39ZM26 41L26 42L27 42L27 41ZM29 42L29 43L30 43L30 42ZM34 43L34 45L35 45L35 43ZM60 43L60 44L61 44L61 43ZM12 44L12 45L13 45L13 44ZM36 44L36 45L37 45L37 44ZM44 44L44 45L45 45L45 44ZM5 45L5 46L6 46L6 47L7 47L7 46L6 46L6 45ZM19 46L19 47L20 47L20 46ZM22 46L22 47L23 47L23 46ZM29 46L29 47L30 47L30 46ZM11 47L11 48L12 48L12 47ZM33 48L33 49L34 49L34 48ZM44 48L44 51L46 51L46 50L47 50L47 49L45 49L45 48ZM0 49L0 50L1 50L1 49ZM11 49L11 50L12 50L12 49ZM17 49L17 50L18 50L18 49ZM26 49L26 50L27 50L27 49ZM53 49L53 50L56 50L56 49ZM64 51L64 52L65 52L65 51ZM3 52L3 53L5 53L5 52ZM20 52L20 53L22 53L22 52ZM32 52L32 53L33 53L33 52ZM44 52L44 53L43 53L43 54L42 54L42 55L43 55L43 56L44 56L44 55L45 55L45 54L44 54L44 53L46 53L46 54L47 54L47 55L46 55L46 56L47 56L47 55L48 55L48 56L50 56L50 55L48 55L48 54L49 54L49 53L46 53L46 52ZM53 53L53 54L56 54L56 53ZM8 54L8 55L9 55L9 54ZM20 54L20 55L21 55L21 56L23 56L23 55L22 55L22 54ZM40 54L40 55L41 55L41 54ZM10 55L10 56L11 56L11 55ZM55 55L55 56L56 56L56 55ZM61 56L61 57L62 57L62 56ZM31 57L31 60L34 60L34 57ZM51 57L51 58L50 58L50 59L51 59L51 62L52 62L52 60L53 60L53 62L55 62L55 61L54 61L54 60L55 60L55 59L54 59L54 60L53 60L53 59L52 59L52 58L53 58L53 57ZM54 57L54 58L55 58L55 57ZM57 57L57 60L60 60L60 57ZM32 58L32 59L33 59L33 58ZM42 58L42 59L44 59L44 58ZM48 58L48 59L49 59L49 58ZM58 58L58 59L59 59L59 58ZM28 59L28 60L30 60L30 59ZM36 59L36 60L38 60L38 59ZM61 59L61 61L60 61L60 62L61 62L61 63L62 63L62 64L63 64L63 63L62 63L62 62L63 62L63 61L64 61L64 60L63 60L63 59ZM13 60L13 61L15 61L15 62L16 62L16 61L15 61L15 60ZM26 60L26 61L27 61L27 60ZM62 60L62 61L63 61L63 60ZM18 61L18 62L17 62L17 63L18 63L18 62L19 62L19 63L20 63L20 62L19 62L19 61ZM22 62L22 63L23 63L23 62ZM29 62L29 63L27 63L27 64L28 64L28 65L31 65L31 64L30 64L30 62ZM34 62L34 63L35 63L35 62ZM14 64L14 65L15 65L15 64ZM0 0L0 7L7 7L7 0ZM1 1L1 6L6 6L6 1ZM2 2L2 5L5 5L5 2ZM58 0L58 7L65 7L65 0ZM59 1L59 6L64 6L64 1ZM60 2L60 5L63 5L63 2ZM0 58L0 65L7 65L7 58ZM1 59L1 64L6 64L6 59ZM2 60L2 63L5 63L5 60Z" fill="#000000"/></g></g></svg>
