<?xml version="1.0" encoding="UTF-8"?>
<svg xmlns="http://www.w3.org/2000/svg" version="1.1" width="300" height="300" viewBox="0 0 300 300"><rect x="0" y="0" width="300" height="300" fill="#ffffff"/><g transform="scale(4.615)"><g transform="translate(0,0)"><path fill-rule="evenodd" d="M9 0L9 1L8 1L8 2L9 2L9 3L8 3L8 4L11 4L11 5L12 5L12 8L13 8L13 9L12 9L12 11L9 11L9 12L6 12L6 11L7 11L7 10L8 10L8 9L10 9L10 8L11 8L11 6L10 6L10 5L8 5L8 7L9 7L9 6L10 6L10 8L6 8L6 9L7 9L7 10L6 10L6 11L4 11L4 12L3 12L3 9L5 9L5 8L0 8L0 9L2 9L2 11L0 11L0 14L1 14L1 15L0 15L0 16L1 16L1 15L2 15L2 17L4 17L4 18L2 18L2 20L4 20L4 21L3 21L3 23L5 23L5 22L6 22L6 23L7 23L7 24L6 24L6 25L4 25L4 24L2 24L2 27L1 27L1 26L0 26L0 27L1 27L1 28L0 28L0 29L2 29L2 31L1 31L1 30L0 30L0 31L1 31L1 33L0 33L0 34L1 34L1 35L2 35L2 36L0 36L0 38L1 38L1 39L0 39L0 41L1 41L1 42L0 42L0 43L4 43L4 45L2 45L2 44L1 44L1 46L0 46L0 47L1 47L1 48L0 48L0 50L1 50L1 51L0 51L0 52L1 52L1 53L0 53L0 54L1 54L1 53L3 53L3 54L2 54L2 55L3 55L3 56L1 56L1 55L0 55L0 56L1 56L1 57L3 57L3 56L4 56L4 57L5 57L5 56L4 56L4 53L3 53L3 52L4 52L4 51L5 51L5 52L6 52L6 53L7 53L7 52L9 52L9 50L8 50L8 49L13 49L13 51L12 51L12 50L10 50L10 51L12 51L12 52L10 52L10 54L11 54L11 53L12 53L12 52L13 52L13 54L14 54L14 55L15 55L15 56L13 56L13 55L12 55L12 56L6 56L6 57L8 57L8 59L9 59L9 60L8 60L8 65L9 65L9 64L11 64L11 65L12 65L12 62L10 62L10 61L11 61L11 60L12 60L12 61L13 61L13 64L14 64L14 65L22 65L22 64L24 64L24 63L22 63L22 62L24 62L24 61L25 61L25 62L26 62L26 63L25 63L25 64L27 64L27 65L31 65L31 64L29 64L29 63L30 63L30 62L29 62L29 63L28 63L28 64L27 64L27 61L26 61L26 59L27 59L27 60L28 60L28 59L30 59L30 60L29 60L29 61L31 61L31 63L32 63L32 64L33 64L33 65L35 65L35 64L34 64L34 63L35 63L35 61L36 61L36 62L37 62L37 64L36 64L36 65L37 65L37 64L41 64L41 63L40 63L40 62L41 62L41 61L42 61L42 62L43 62L43 61L44 61L44 62L45 62L45 63L44 63L44 64L45 64L45 65L46 65L46 64L45 64L45 63L47 63L47 64L48 64L48 65L49 65L49 64L48 64L48 63L47 63L47 62L49 62L49 60L51 60L51 62L50 62L50 63L51 63L51 62L52 62L52 60L53 60L53 63L52 63L52 64L50 64L50 65L52 65L52 64L53 64L53 65L56 65L56 62L57 62L57 65L63 65L63 64L64 64L64 61L65 61L65 60L62 60L62 59L61 59L61 55L60 55L60 56L59 56L59 55L58 55L58 54L63 54L63 53L64 53L64 54L65 54L65 53L64 53L64 52L65 52L65 51L63 51L63 50L65 50L65 49L64 49L64 48L62 48L62 49L63 49L63 50L61 50L61 49L58 49L58 48L60 48L60 47L62 47L62 46L63 46L63 45L64 45L64 44L62 44L62 43L63 43L63 42L65 42L65 41L64 41L64 40L65 40L65 39L63 39L63 40L62 40L62 41L63 41L63 42L62 42L62 43L60 43L60 44L62 44L62 46L61 46L61 45L60 45L60 46L59 46L59 45L58 45L58 44L59 44L59 43L54 43L54 44L53 44L53 43L52 43L52 42L55 42L55 40L56 40L56 41L57 41L57 40L61 40L61 39L60 39L60 38L62 38L62 37L63 37L63 38L65 38L65 37L64 37L64 36L65 36L65 35L64 35L64 36L62 36L62 35L63 35L63 34L65 34L65 33L63 33L63 32L62 32L62 31L61 31L61 30L62 30L62 29L63 29L63 28L64 28L64 29L65 29L65 28L64 28L64 26L65 26L65 25L63 25L63 24L64 24L64 22L65 22L65 21L64 21L64 20L62 20L62 23L63 23L63 24L60 24L60 23L59 23L59 22L61 22L61 20L58 20L58 19L60 19L60 17L61 17L61 16L62 16L62 18L61 18L61 19L63 19L63 18L65 18L65 15L64 15L64 16L62 16L62 15L63 15L63 13L64 13L64 14L65 14L65 13L64 13L64 12L65 12L65 11L64 11L64 10L65 10L65 9L64 9L64 8L63 8L63 9L64 9L64 10L62 10L62 11L63 11L63 12L60 12L60 11L59 11L59 10L60 10L60 8L59 8L59 10L58 10L58 8L56 8L56 9L53 9L53 10L52 10L52 9L51 9L51 5L52 5L52 8L54 8L54 7L55 7L55 5L54 5L54 4L56 4L56 5L57 5L57 4L56 4L56 3L57 3L57 1L56 1L56 0L55 0L55 1L56 1L56 3L55 3L55 2L54 2L54 3L53 3L53 2L51 2L51 1L50 1L50 0L47 0L47 1L46 1L46 2L45 2L45 0L42 0L42 1L44 1L44 3L46 3L46 4L45 4L45 5L44 5L44 4L42 4L42 5L41 5L41 4L39 4L39 5L38 5L38 7L37 7L37 5L36 5L36 7L35 7L35 4L37 4L37 3L38 3L38 2L39 2L39 3L41 3L41 2L40 2L40 1L41 1L41 0L39 0L39 1L36 1L36 2L35 2L35 1L33 1L33 0L32 0L32 1L33 1L33 2L32 2L32 3L31 3L31 2L29 2L29 3L28 3L28 4L27 4L27 2L28 2L28 0L26 0L26 1L25 1L25 0L21 0L21 1L22 1L22 2L19 2L19 3L20 3L20 4L21 4L21 6L20 6L20 7L19 7L19 6L18 6L18 5L19 5L19 4L18 4L18 3L17 3L17 2L18 2L18 1L17 1L17 0L14 0L14 1L16 1L16 2L15 2L15 3L17 3L17 4L18 4L18 5L17 5L17 6L16 6L16 7L17 7L17 6L18 6L18 8L15 8L15 9L16 9L16 10L13 10L13 9L14 9L14 7L15 7L15 4L12 4L12 2L11 2L11 1L13 1L13 0L11 0L11 1L10 1L10 0ZM29 0L29 1L31 1L31 0ZM52 0L52 1L54 1L54 0ZM9 1L9 2L10 2L10 1ZM23 1L23 3L24 3L24 4L25 4L25 7L24 7L24 5L23 5L23 4L22 4L22 3L21 3L21 4L22 4L22 6L21 6L21 9L20 9L20 8L19 8L19 9L18 9L18 10L16 10L16 11L17 11L17 12L15 12L15 13L13 13L13 14L11 14L11 12L10 12L10 14L9 14L9 13L5 13L5 12L4 12L4 13L5 13L5 15L6 15L6 16L7 16L7 17L6 17L6 18L4 18L4 20L7 20L7 21L6 21L6 22L8 22L8 21L11 21L11 19L12 19L12 20L13 20L13 21L12 21L12 22L13 22L13 24L12 24L12 23L11 23L11 22L9 22L9 23L8 23L8 24L7 24L7 25L6 25L6 26L5 26L5 28L7 28L7 29L5 29L5 30L7 30L7 29L8 29L8 30L11 30L11 31L12 31L12 32L11 32L11 33L9 33L9 36L8 36L8 35L6 35L6 36L8 36L8 38L7 38L7 37L5 37L5 35L4 35L4 36L3 36L3 37L5 37L5 39L6 39L6 40L4 40L4 39L3 39L3 38L2 38L2 37L1 37L1 38L2 38L2 39L3 39L3 40L4 40L4 41L3 41L3 42L4 42L4 41L6 41L6 42L5 42L5 43L6 43L6 44L5 44L5 45L6 45L6 46L5 46L5 47L6 47L6 48L8 48L8 47L9 47L9 46L8 46L8 45L6 45L6 44L7 44L7 43L9 43L9 45L10 45L10 48L11 48L11 47L12 47L12 42L11 42L11 41L9 41L9 42L8 42L8 40L7 40L7 39L9 39L9 40L12 40L12 41L13 41L13 44L14 44L14 41L13 41L13 40L14 40L14 38L15 38L15 40L19 40L19 41L18 41L18 42L19 42L19 43L18 43L18 44L17 44L17 43L16 43L16 44L15 44L15 45L13 45L13 47L14 47L14 48L13 48L13 49L14 49L14 51L13 51L13 52L14 52L14 51L15 51L15 53L14 53L14 54L17 54L17 55L16 55L16 56L15 56L15 59L14 59L14 57L13 57L13 58L12 58L12 60L13 60L13 59L14 59L14 60L16 60L16 61L15 61L15 62L14 62L14 64L16 64L16 63L15 63L15 62L16 62L16 61L17 61L17 64L19 64L19 63L20 63L20 62L19 62L19 61L21 61L21 62L22 62L22 61L24 61L24 60L23 60L23 59L24 59L24 57L25 57L25 59L26 59L26 57L28 57L28 58L29 58L29 57L28 57L28 54L30 54L30 53L31 53L31 55L35 55L35 57L36 57L36 58L35 58L35 60L37 60L37 62L39 62L39 61L41 61L41 60L42 60L42 61L43 61L43 60L44 60L44 61L45 61L45 62L47 62L47 61L48 61L48 60L49 60L49 59L48 59L48 58L49 58L49 57L47 57L47 56L49 56L49 55L48 55L48 54L49 54L49 53L47 53L47 51L48 51L48 52L50 52L50 50L52 50L52 51L53 51L53 52L51 52L51 53L50 53L50 54L51 54L51 53L56 53L56 54L57 54L57 52L58 52L58 53L59 53L59 52L58 52L58 51L59 51L59 50L58 50L58 51L57 51L57 48L55 48L55 47L56 47L56 46L57 46L57 47L59 47L59 46L58 46L58 45L57 45L57 44L54 44L54 45L56 45L56 46L52 46L52 47L53 47L53 48L52 48L52 49L51 49L51 47L50 47L50 46L51 46L51 44L52 44L52 45L53 45L53 44L52 44L52 43L51 43L51 44L50 44L50 42L51 42L51 41L54 41L54 40L55 40L55 39L56 39L56 40L57 40L57 37L58 37L58 39L59 39L59 37L61 37L61 35L62 35L62 34L63 34L63 33L61 33L61 35L60 35L60 36L55 36L55 35L56 35L56 34L54 34L54 33L55 33L55 32L56 32L56 31L55 31L55 30L57 30L57 29L56 29L56 27L57 27L57 28L58 28L58 30L61 30L61 29L62 29L62 28L63 28L63 27L62 27L62 25L61 25L61 26L60 26L60 25L56 25L56 24L54 24L54 23L57 23L57 22L59 22L59 21L56 21L56 20L57 20L57 18L59 18L59 17L56 17L56 16L55 16L55 15L57 15L57 14L60 14L60 13L59 13L59 11L58 11L58 12L57 12L57 9L56 9L56 11L55 11L55 10L53 10L53 12L51 12L51 11L52 11L52 10L51 10L51 9L49 9L49 10L48 10L48 8L50 8L50 6L49 6L49 7L48 7L48 5L49 5L49 4L50 4L50 5L51 5L51 3L49 3L49 2L50 2L50 1L49 1L49 2L48 2L48 1L47 1L47 3L49 3L49 4L46 4L46 5L47 5L47 7L46 7L46 6L45 6L45 7L46 7L46 8L47 8L47 9L46 9L46 10L44 10L44 9L45 9L45 8L44 8L44 5L42 5L42 6L41 6L41 5L40 5L40 6L39 6L39 7L40 7L40 6L41 6L41 7L42 7L42 6L43 6L43 8L44 8L44 9L43 9L43 10L42 10L42 8L37 8L37 7L36 7L36 8L37 8L37 11L36 11L36 12L38 12L38 14L37 14L37 13L33 13L33 12L32 12L32 11L33 11L33 9L32 9L32 11L31 11L31 10L30 10L30 8L29 8L29 7L30 7L30 4L31 4L31 3L29 3L29 4L28 4L28 5L29 5L29 7L28 7L28 6L27 6L27 4L25 4L25 3L26 3L26 2L25 2L25 1ZM13 2L13 3L14 3L14 2ZM24 2L24 3L25 3L25 2ZM33 2L33 3L32 3L32 4L35 4L35 3L34 3L34 2ZM36 2L36 3L37 3L37 2ZM42 2L42 3L43 3L43 2ZM52 3L52 5L53 5L53 3ZM31 5L31 8L34 8L34 5ZM13 6L13 7L14 7L14 6ZM22 6L22 8L23 8L23 9L22 9L22 10L21 10L21 11L20 11L20 10L18 10L18 11L19 11L19 12L18 12L18 13L17 13L17 14L18 14L18 15L20 15L20 14L18 14L18 13L20 13L20 12L21 12L21 15L24 15L24 16L23 16L23 17L21 17L21 16L20 16L20 17L21 17L21 19L22 19L22 18L23 18L23 20L26 20L26 19L25 19L25 18L27 18L27 17L29 17L29 16L33 16L33 15L35 15L35 16L34 16L34 17L35 17L35 18L33 18L33 17L32 17L32 19L31 19L31 18L29 18L29 20L27 20L27 23L26 23L26 21L24 21L24 22L23 22L23 24L24 24L24 23L25 23L25 25L24 25L24 26L25 26L25 25L26 25L26 26L28 26L28 27L26 27L26 28L24 28L24 29L22 29L22 30L21 30L21 29L19 29L19 28L18 28L18 29L16 29L16 28L17 28L17 26L16 26L16 25L17 25L17 24L18 24L18 25L19 25L19 26L20 26L20 27L21 27L21 28L23 28L23 27L22 27L22 26L23 26L23 25L22 25L22 26L20 26L20 25L21 25L21 24L22 24L22 22L21 22L21 24L18 24L18 23L17 23L17 24L16 24L16 23L15 23L15 22L16 22L16 21L15 21L15 22L14 22L14 21L13 21L13 22L14 22L14 24L13 24L13 26L11 26L11 27L9 27L9 24L10 24L10 25L11 25L11 23L9 23L9 24L8 24L8 26L6 26L6 27L8 27L8 29L10 29L10 28L11 28L11 29L12 29L12 31L13 31L13 28L14 28L14 29L16 29L16 30L14 30L14 32L12 32L12 33L13 33L13 34L14 34L14 33L15 33L15 35L14 35L14 37L12 37L12 36L13 36L13 35L12 35L12 34L10 34L10 35L11 35L11 37L12 37L12 38L14 38L14 37L18 37L18 39L20 39L20 41L21 41L21 43L22 43L22 44L23 44L23 45L21 45L21 46L22 46L22 47L21 47L21 48L18 48L18 46L17 46L17 48L16 48L16 47L15 47L15 51L16 51L16 49L17 49L17 50L18 50L18 51L17 51L17 52L16 52L16 53L17 53L17 54L18 54L18 55L17 55L17 56L16 56L16 57L19 57L19 59L18 59L18 58L17 58L17 59L18 59L18 61L19 61L19 59L20 59L20 57L21 57L21 58L23 58L23 57L21 57L21 56L20 56L20 57L19 57L19 56L18 56L18 55L19 55L19 54L20 54L20 55L21 55L21 54L20 54L20 53L22 53L22 52L21 52L21 51L22 51L22 50L27 50L27 51L28 51L28 50L27 50L27 49L26 49L26 48L25 48L25 47L27 47L27 46L28 46L28 44L29 44L29 43L30 43L30 42L31 42L31 43L34 43L34 44L31 44L31 46L32 46L32 47L33 47L33 48L32 48L32 49L34 49L34 48L35 48L35 49L37 49L37 48L36 48L36 47L37 47L37 44L42 44L42 45L40 45L40 46L41 46L41 47L39 47L39 46L38 46L38 47L39 47L39 48L38 48L38 49L39 49L39 48L41 48L41 50L38 50L38 51L40 51L40 52L42 52L42 54L43 54L43 55L42 55L42 56L43 56L43 57L40 57L40 58L38 58L38 57L37 57L37 56L39 56L39 55L40 55L40 56L41 56L41 55L40 55L40 54L41 54L41 53L39 53L39 52L38 52L38 53L37 53L37 52L36 52L36 51L37 51L37 50L36 50L36 51L33 51L33 52L32 52L32 51L31 51L31 52L32 52L32 53L33 53L33 54L35 54L35 53L34 53L34 52L36 52L36 53L37 53L37 54L38 54L38 55L37 55L37 56L36 56L36 57L37 57L37 59L40 59L40 60L41 60L41 59L40 59L40 58L43 58L43 57L44 57L44 58L45 58L45 59L44 59L44 60L45 60L45 61L47 61L47 60L46 60L46 59L47 59L47 58L46 58L46 56L47 56L47 54L46 54L46 56L45 56L45 55L44 55L44 54L43 54L43 53L44 53L44 52L45 52L45 51L44 51L44 52L42 52L42 50L43 50L43 49L44 49L44 50L45 50L45 49L44 49L44 48L45 48L45 47L47 47L47 46L46 46L46 45L49 45L49 44L48 44L48 43L47 43L47 42L50 42L50 41L51 41L51 40L47 40L47 42L46 42L46 41L44 41L44 40L45 40L45 39L49 39L49 38L50 38L50 39L52 39L52 40L53 40L53 39L54 39L54 38L56 38L56 37L54 37L54 34L52 34L52 32L53 32L53 31L54 31L54 32L55 32L55 31L54 31L54 30L55 30L55 29L52 29L52 28L53 28L53 26L55 26L55 27L54 27L54 28L55 28L55 27L56 27L56 25L54 25L54 24L53 24L53 23L52 23L52 22L50 22L50 19L51 19L51 20L53 20L53 22L55 22L55 21L54 21L54 20L55 20L55 19L56 19L56 17L55 17L55 16L54 16L54 15L52 15L52 14L53 14L53 13L54 13L54 14L56 14L56 13L57 13L57 12L55 12L55 13L54 13L54 12L53 12L53 13L51 13L51 12L50 12L50 13L51 13L51 14L49 14L49 12L48 12L48 10L46 10L46 11L47 11L47 13L48 13L48 14L46 14L46 12L45 12L45 11L44 11L44 12L45 12L45 14L43 14L43 13L39 13L39 14L38 14L38 17L39 17L39 18L37 18L37 19L39 19L39 18L40 18L40 20L41 20L41 19L42 19L42 18L43 18L43 21L42 21L42 22L41 22L41 23L40 23L40 24L41 24L41 23L42 23L42 24L43 24L43 25L42 25L42 26L41 26L41 27L40 27L40 26L38 26L38 25L39 25L39 24L38 24L38 25L37 25L37 24L35 24L35 23L36 23L36 22L37 22L37 23L39 23L39 22L37 22L37 20L36 20L36 22L34 22L34 20L33 20L33 19L36 19L36 17L37 17L37 16L36 16L36 15L37 15L37 14L36 14L36 15L35 15L35 14L33 14L33 13L32 13L32 15L31 15L31 13L30 13L30 14L29 14L29 16L28 16L28 15L26 15L26 16L25 16L25 11L24 11L24 12L23 12L23 10L26 10L26 12L27 12L27 11L28 11L28 12L31 12L31 11L28 11L28 9L29 9L29 8L28 8L28 7L27 7L27 6L26 6L26 8L25 8L25 9L24 9L24 7L23 7L23 6ZM32 6L32 7L33 7L33 6ZM53 6L53 7L54 7L54 6ZM56 6L56 7L57 7L57 6ZM26 8L26 9L27 9L27 8ZM61 8L61 9L62 9L62 8ZM34 9L34 10L35 10L35 9ZM40 9L40 10L41 10L41 9ZM38 10L38 12L41 12L41 11L39 11L39 10ZM50 10L50 11L51 11L51 10ZM12 11L12 12L14 12L14 11ZM21 11L21 12L22 12L22 13L23 13L23 14L24 14L24 13L23 13L23 12L22 12L22 11ZM34 11L34 12L35 12L35 11ZM42 11L42 12L43 12L43 11ZM1 12L1 13L2 13L2 14L3 14L3 15L4 15L4 14L3 14L3 12ZM26 13L26 14L28 14L28 13ZM6 14L6 15L8 15L8 17L9 17L9 20L10 20L10 19L11 19L11 17L12 17L12 16L11 16L11 14L10 14L10 15L8 15L8 14ZM13 14L13 16L14 16L14 14ZM15 14L15 16L16 16L16 17L17 17L17 18L15 18L15 17L14 17L14 18L15 18L15 19L13 19L13 18L12 18L12 19L13 19L13 20L18 20L18 21L17 21L17 22L19 22L19 23L20 23L20 21L22 21L22 20L20 20L20 21L19 21L19 18L18 18L18 17L19 17L19 16L16 16L16 14ZM40 14L40 15L41 15L41 16L40 16L40 18L41 18L41 17L43 17L43 18L47 18L47 19L46 19L46 20L47 20L47 19L48 19L48 20L49 20L49 19L48 19L48 18L49 18L49 17L46 17L46 16L49 16L49 14L48 14L48 15L46 15L46 16L44 16L44 17L43 17L43 16L42 16L42 15L43 15L43 14L42 14L42 15L41 15L41 14ZM61 14L61 15L60 15L60 16L61 16L61 15L62 15L62 14ZM51 15L51 17L50 17L50 18L51 18L51 17L53 17L53 18L52 18L52 19L55 19L55 18L54 18L54 16L52 16L52 15ZM58 15L58 16L59 16L59 15ZM9 16L9 17L11 17L11 16ZM24 16L24 17L25 17L25 16ZM26 16L26 17L27 17L27 16ZM0 18L0 23L2 23L2 21L1 21L1 18ZM6 18L6 19L7 19L7 18ZM17 18L17 19L18 19L18 18ZM29 20L29 21L28 21L28 23L27 23L27 24L26 24L26 25L27 25L27 24L29 24L29 25L28 25L28 26L29 26L29 27L28 27L28 29L27 29L27 28L26 28L26 29L27 29L27 30L28 30L28 29L29 29L29 27L30 27L30 26L32 26L32 27L34 27L34 26L35 26L35 28L30 28L30 30L29 30L29 31L30 31L30 30L32 30L32 29L33 29L33 30L36 30L36 31L35 31L35 32L38 32L38 33L36 33L36 34L40 34L40 35L41 35L41 36L39 36L39 37L38 37L38 35L35 35L35 37L36 37L36 36L37 36L37 38L34 38L34 36L33 36L33 35L31 35L31 36L33 36L33 37L30 37L30 35L28 35L28 36L29 36L29 37L25 37L25 36L26 36L26 35L25 35L25 34L26 34L26 33L27 33L27 34L30 34L30 32L29 32L29 33L27 33L27 32L28 32L28 31L26 31L26 32L25 32L25 29L24 29L24 30L22 30L22 31L21 31L21 33L16 33L16 31L15 31L15 33L16 33L16 34L18 34L18 35L16 35L16 36L18 36L18 37L20 37L20 39L21 39L21 37L22 37L22 39L23 39L23 40L21 40L21 41L23 41L23 42L22 42L22 43L23 43L23 44L24 44L24 43L27 43L27 42L24 42L24 41L25 41L25 40L24 40L24 39L25 39L25 38L30 38L30 39L28 39L28 40L26 40L26 41L28 41L28 42L30 42L30 41L28 41L28 40L30 40L30 39L31 39L31 41L32 41L32 42L33 42L33 41L32 41L32 40L34 40L34 41L35 41L35 42L34 42L34 43L35 43L35 44L37 44L37 43L38 43L38 42L39 42L39 41L41 41L41 42L40 42L40 43L42 43L42 44L44 44L44 46L42 46L42 47L44 47L44 46L45 46L45 44L44 44L44 43L45 43L45 42L44 42L44 43L43 43L43 42L42 42L42 41L43 41L43 40L44 40L44 39L45 39L45 38L47 38L47 37L46 37L46 36L51 36L51 37L50 37L50 38L53 38L53 36L51 36L51 35L52 35L52 34L51 34L51 33L50 33L50 32L51 32L51 31L49 31L49 30L51 30L51 29L50 29L50 27L48 27L48 26L47 26L47 25L46 25L46 26L45 26L45 27L46 27L46 28L47 28L47 29L46 29L46 30L45 30L45 28L44 28L44 27L43 27L43 26L42 26L42 28L44 28L44 30L42 30L42 29L41 29L41 28L40 28L40 27L36 27L36 26L37 26L37 25L36 25L36 26L35 26L35 24L34 24L34 23L33 23L33 20L32 20L32 23L31 23L31 24L30 24L30 22L31 22L31 20ZM38 20L38 21L39 21L39 20ZM44 20L44 21L43 21L43 22L42 22L42 23L43 23L43 22L44 22L44 23L46 23L46 22L47 22L47 21L45 21L45 20ZM29 21L29 22L30 22L30 21ZM44 21L44 22L45 22L45 21ZM48 21L48 23L47 23L47 24L49 24L49 25L50 25L50 26L51 26L51 27L52 27L52 26L53 26L53 24L52 24L52 25L50 25L50 24L51 24L51 23L50 23L50 22L49 22L49 21ZM32 23L32 24L31 24L31 25L32 25L32 24L33 24L33 25L34 25L34 24L33 24L33 23ZM58 23L58 24L59 24L59 23ZM0 24L0 25L1 25L1 24ZM44 24L44 25L45 25L45 24ZM14 25L14 26L15 26L15 25ZM3 26L3 27L2 27L2 29L4 29L4 28L3 28L3 27L4 27L4 26ZM46 26L46 27L47 27L47 26ZM58 26L58 28L59 28L59 29L61 29L61 28L59 28L59 27L60 27L60 26ZM11 27L11 28L13 28L13 27ZM36 28L36 29L37 29L37 30L38 30L38 31L39 31L39 32L41 32L41 34L43 34L43 35L42 35L42 36L43 36L43 37L42 37L42 38L43 38L43 39L44 39L44 36L46 36L46 35L47 35L47 34L44 34L44 33L42 33L42 32L43 32L43 31L42 31L42 32L41 32L41 29L40 29L40 31L39 31L39 30L38 30L38 28ZM48 28L48 29L47 29L47 30L46 30L46 31L44 31L44 32L46 32L46 33L49 33L49 34L48 34L48 35L49 35L49 34L50 34L50 35L51 35L51 34L50 34L50 33L49 33L49 32L47 32L47 31L48 31L48 30L49 30L49 28ZM18 29L18 30L19 30L19 31L18 31L18 32L19 32L19 31L20 31L20 30L19 30L19 29ZM5 31L5 34L8 34L8 31ZM23 31L23 32L24 32L24 31ZM31 31L31 34L34 34L34 31ZM57 31L57 34L60 34L60 31ZM3 32L3 33L2 33L2 35L3 35L3 34L4 34L4 32ZM6 32L6 33L7 33L7 32ZM32 32L32 33L33 33L33 32ZM58 32L58 33L59 33L59 32ZM21 33L21 34L22 34L22 35L21 35L21 36L20 36L20 37L21 37L21 36L22 36L22 37L23 37L23 38L25 38L25 37L24 37L24 36L25 36L25 35L24 35L24 34L25 34L25 33ZM19 34L19 35L20 35L20 34ZM23 35L23 36L24 36L24 35ZM43 35L43 36L44 36L44 35ZM9 36L9 38L10 38L10 36ZM40 37L40 38L38 38L38 39L37 39L37 40L36 40L36 39L34 39L34 40L35 40L35 41L38 41L38 40L41 40L41 39L40 39L40 38L41 38L41 37ZM48 37L48 38L49 38L49 37ZM6 38L6 39L7 39L7 38ZM16 38L16 39L17 39L17 38ZM32 38L32 39L33 39L33 38ZM12 39L12 40L13 40L13 39ZM1 40L1 41L2 41L2 40ZM6 40L6 41L7 41L7 40ZM23 40L23 41L24 41L24 40ZM15 41L15 42L17 42L17 41ZM59 41L59 42L61 42L61 41ZM6 42L6 43L7 43L7 42ZM10 42L10 43L11 43L11 42ZM36 42L36 43L37 43L37 42ZM19 43L19 44L18 44L18 45L20 45L20 43ZM10 44L10 45L11 45L11 44ZM26 44L26 45L25 45L25 46L26 46L26 45L27 45L27 44ZM15 45L15 46L16 46L16 45ZM23 45L23 46L24 46L24 45ZM32 45L32 46L34 46L34 47L35 47L35 46L34 46L34 45ZM6 46L6 47L8 47L8 46ZM19 46L19 47L20 47L20 46ZM29 46L29 47L28 47L28 49L30 49L30 50L29 50L29 52L28 52L28 53L29 53L29 52L30 52L30 50L31 50L31 47L30 47L30 46ZM48 46L48 47L49 47L49 48L48 48L48 49L49 49L49 48L50 48L50 47L49 47L49 46ZM3 47L3 48L4 48L4 47ZM22 47L22 49L23 49L23 48L24 48L24 49L25 49L25 48L24 48L24 47ZM29 47L29 48L30 48L30 47ZM1 49L1 50L2 50L2 51L1 51L1 52L3 52L3 51L4 51L4 49ZM6 49L6 50L7 50L7 49ZM18 49L18 50L19 50L19 53L20 53L20 50L21 50L21 49ZM54 49L54 50L53 50L53 51L54 51L54 52L56 52L56 51L54 51L54 50L56 50L56 49ZM46 50L46 51L47 51L47 50ZM6 51L6 52L7 52L7 51ZM24 51L24 52L26 52L26 51ZM62 51L62 52L60 52L60 53L62 53L62 52L63 52L63 51ZM17 52L17 53L18 53L18 52ZM8 53L8 55L9 55L9 53ZM24 53L24 55L25 55L25 54L26 54L26 53ZM38 53L38 54L39 54L39 53ZM5 54L5 55L7 55L7 54ZM52 54L52 55L54 55L54 57L55 57L55 58L54 58L54 59L55 59L55 60L56 60L56 59L55 59L55 58L56 58L56 56L58 56L58 55L56 55L56 56L55 56L55 54ZM26 55L26 56L25 56L25 57L26 57L26 56L27 56L27 55ZM29 55L29 56L30 56L30 55ZM50 55L50 58L51 58L51 55ZM64 55L64 57L63 57L63 56L62 56L62 58L65 58L65 55ZM44 56L44 57L45 57L45 56ZM52 56L52 57L53 57L53 56ZM10 57L10 58L9 58L9 59L10 59L10 58L11 58L11 57ZM31 57L31 60L34 60L34 57ZM57 57L57 60L60 60L60 57ZM32 58L32 59L33 59L33 58ZM52 58L52 59L53 59L53 58ZM58 58L58 59L59 59L59 58ZM38 60L38 61L39 61L39 60ZM57 61L57 62L58 62L58 64L59 64L59 61ZM60 61L60 62L61 62L61 63L62 63L62 64L63 64L63 63L62 63L62 62L63 62L63 61ZM18 62L18 63L19 63L19 62ZM32 62L32 63L33 63L33 62ZM54 62L54 63L53 63L53 64L54 64L54 63L55 63L55 62ZM42 63L42 64L43 64L43 63ZM0 0L0 7L7 7L7 0ZM1 1L1 6L6 6L6 1ZM2 2L2 5L5 5L5 2ZM58 0L58 7L65 7L65 0ZM59 1L59 6L64 6L64 1ZM60 2L60 5L63 5L63 2ZM0 58L0 65L7 65L7 58ZM1 59L1 64L6 64L6 59ZM2 60L2 63L5 63L5 60Z" fill="#000000"/></g></g></svg>
