<?xml version="1.0" encoding="UTF-8"?>
<svg xmlns="http://www.w3.org/2000/svg" version="1.1" width="300" height="300" viewBox="0 0 300 300"><rect x="0" y="0" width="300" height="300" fill="#ffffff"/><g transform="scale(4.615)"><g transform="translate(0,0)"><path fill-rule="evenodd" d="M10 0L10 1L12 1L12 2L11 2L11 3L10 3L10 4L9 4L9 3L8 3L8 4L9 4L9 5L8 5L8 7L9 7L9 6L10 6L10 7L11 7L11 8L13 8L13 10L12 10L12 9L10 9L10 8L6 8L6 9L5 9L5 8L0 8L0 9L4 9L4 10L5 10L5 11L8 11L8 10L9 10L9 9L10 9L10 11L9 11L9 13L7 13L7 12L3 12L3 13L7 13L7 14L6 14L6 15L7 15L7 14L8 14L8 15L9 15L9 16L8 16L8 17L9 17L9 18L6 18L6 17L7 17L7 16L6 16L6 17L5 17L5 20L4 20L4 19L3 19L3 20L2 20L2 21L1 21L1 20L0 20L0 21L1 21L1 22L0 22L0 23L1 23L1 24L0 24L0 25L1 25L1 24L2 24L2 21L3 21L3 22L5 22L5 21L7 21L7 20L6 20L6 19L8 19L8 22L6 22L6 23L5 23L5 24L3 24L3 26L1 26L1 27L3 27L3 29L4 29L4 34L3 34L3 35L2 35L2 34L1 34L1 35L0 35L0 36L3 36L3 35L5 35L5 36L6 36L6 37L4 37L4 38L3 38L3 39L5 39L5 40L4 40L4 41L5 41L5 42L4 42L4 43L3 43L3 42L1 42L1 41L3 41L3 40L2 40L2 39L0 39L0 44L2 44L2 45L1 45L1 46L0 46L0 49L1 49L1 48L2 48L2 49L3 49L3 50L5 50L5 51L3 51L3 52L1 52L1 53L3 53L3 54L2 54L2 55L3 55L3 56L1 56L1 55L0 55L0 56L1 56L1 57L3 57L3 56L4 56L4 57L5 57L5 56L4 56L4 53L7 53L7 54L5 54L5 55L7 55L7 56L6 56L6 57L7 57L7 56L11 56L11 58L12 58L12 57L13 57L13 58L14 58L14 60L12 60L12 61L11 61L11 60L10 60L10 61L9 61L9 60L8 60L8 65L9 65L9 62L10 62L10 61L11 61L11 62L12 62L12 61L13 61L13 63L12 63L12 64L11 64L11 63L10 63L10 65L12 65L12 64L13 64L13 65L15 65L15 63L16 63L16 65L19 65L19 64L20 64L20 65L21 65L21 63L23 63L23 65L24 65L24 63L23 63L23 62L24 62L24 61L26 61L26 62L27 62L27 61L32 61L32 62L30 62L30 63L31 63L31 64L30 64L30 65L31 65L31 64L33 64L33 65L35 65L35 64L36 64L36 65L38 65L38 64L36 64L36 63L35 63L35 64L34 64L34 62L33 62L33 61L35 61L35 62L37 62L37 63L39 63L39 64L41 64L41 65L42 65L42 64L43 64L43 65L44 65L44 64L47 64L47 65L52 65L52 64L54 64L54 65L55 65L55 64L56 64L56 65L61 65L61 64L62 64L62 65L63 65L63 64L64 64L64 60L62 60L62 61L61 61L61 58L62 58L62 57L63 57L63 58L65 58L65 57L63 57L63 56L62 56L62 55L64 55L64 56L65 56L65 55L64 55L64 54L65 54L65 53L63 53L63 52L64 52L64 50L65 50L65 49L64 49L64 48L62 48L62 47L63 47L63 44L64 44L64 45L65 45L65 44L64 44L64 42L65 42L65 40L64 40L64 38L65 38L65 37L64 37L64 36L65 36L65 35L64 35L64 34L65 34L65 32L62 32L62 30L63 30L63 29L64 29L64 28L65 28L65 27L64 27L64 26L65 26L65 25L64 25L64 24L65 24L65 23L63 23L63 24L62 24L62 25L61 25L61 24L60 24L60 25L61 25L61 26L60 26L60 27L61 27L61 28L60 28L60 29L61 29L61 30L58 30L58 28L59 28L59 26L58 26L58 25L57 25L57 23L58 23L58 24L59 24L59 22L62 22L62 21L64 21L64 22L65 22L65 19L64 19L64 18L65 18L65 15L64 15L64 16L62 16L62 15L63 15L63 14L62 14L62 15L61 15L61 14L60 14L60 15L61 15L61 16L59 16L59 17L61 17L61 16L62 16L62 18L60 18L60 19L63 19L63 20L62 20L62 21L61 21L61 20L56 20L56 17L57 17L57 19L59 19L59 18L58 18L58 16L56 16L56 17L53 17L53 18L55 18L55 19L52 19L52 18L50 18L50 19L49 19L49 18L48 18L48 19L47 19L47 18L45 18L45 17L47 17L47 16L48 16L48 17L49 17L49 16L51 16L51 17L52 17L52 16L53 16L53 15L52 15L52 14L53 14L53 13L54 13L54 14L56 14L56 15L59 15L59 14L56 14L56 13L57 13L57 12L58 12L58 11L59 11L59 13L61 13L61 12L62 12L62 13L64 13L64 14L65 14L65 11L64 11L64 10L65 10L65 9L64 9L64 8L63 8L63 9L64 9L64 10L62 10L62 8L61 8L61 10L60 10L60 11L59 11L59 10L58 10L58 11L57 11L57 12L56 12L56 9L58 9L58 8L55 8L55 5L54 5L54 4L56 4L56 5L57 5L57 4L56 4L56 3L57 3L57 1L56 1L56 0L55 0L55 1L56 1L56 3L55 3L55 2L54 2L54 3L53 3L53 2L52 2L52 1L50 1L50 2L51 2L51 3L46 3L46 2L47 2L47 1L46 1L46 0L45 0L45 1L44 1L44 0L42 0L42 1L43 1L43 4L42 4L42 5L40 5L40 4L39 4L39 3L38 3L38 4L39 4L39 5L37 5L37 3L36 3L36 5L35 5L35 4L34 4L34 3L35 3L35 2L37 2L37 1L38 1L38 2L40 2L40 3L41 3L41 2L40 2L40 1L38 1L38 0L37 0L37 1L36 1L36 0L35 0L35 1L32 1L32 0L29 0L29 1L32 1L32 3L31 3L31 2L28 2L28 1L27 1L27 0L26 0L26 1L25 1L25 0L22 0L22 2L21 2L21 1L20 1L20 3L19 3L19 4L18 4L18 3L16 3L16 2L14 2L14 0ZM16 0L16 1L17 1L17 2L18 2L18 0ZM53 0L53 1L54 1L54 0ZM8 1L8 2L9 2L9 1ZM23 1L23 4L22 4L22 3L21 3L21 4L20 4L20 6L19 6L19 5L18 5L18 4L17 4L17 5L15 5L15 4L16 4L16 3L15 3L15 4L14 4L14 2L12 2L12 3L11 3L11 4L12 4L12 3L13 3L13 5L12 5L12 6L11 6L11 5L10 5L10 6L11 6L11 7L12 7L12 6L13 6L13 8L15 8L15 9L14 9L14 10L15 10L15 12L16 12L16 13L17 13L17 15L16 15L16 16L15 16L15 17L13 17L13 15L15 15L15 14L13 14L13 15L12 15L12 16L11 16L11 17L10 17L10 16L9 16L9 17L10 17L10 18L9 18L9 19L11 19L11 22L12 22L12 23L10 23L10 20L9 20L9 22L8 22L8 23L9 23L9 26L8 26L8 27L6 27L6 26L7 26L7 25L6 25L6 26L5 26L5 25L4 25L4 26L3 26L3 27L4 27L4 29L5 29L5 30L9 30L9 32L10 32L10 34L9 34L9 35L6 35L6 36L7 36L7 37L6 37L6 38L5 38L5 39L6 39L6 40L7 40L7 41L6 41L6 42L5 42L5 43L4 43L4 44L3 44L3 43L2 43L2 44L3 44L3 46L1 46L1 47L4 47L4 48L3 48L3 49L5 49L5 47L6 47L6 48L7 48L7 49L6 49L6 50L7 50L7 49L8 49L8 50L10 50L10 51L9 51L9 52L8 52L8 54L7 54L7 55L12 55L12 54L10 54L10 53L11 53L11 50L12 50L12 51L13 51L13 52L12 52L12 53L13 53L13 52L14 52L14 51L13 51L13 50L12 50L12 49L13 49L13 46L15 46L15 47L16 47L16 48L17 48L17 49L15 49L15 53L14 53L14 54L13 54L13 57L14 57L14 54L15 54L15 53L16 53L16 54L17 54L17 53L18 53L18 52L17 52L17 51L18 51L18 50L19 50L19 49L20 49L20 51L19 51L19 54L21 54L21 57L20 57L20 55L19 55L19 57L18 57L18 59L16 59L16 61L15 61L15 62L14 62L14 63L15 63L15 62L16 62L16 61L17 61L17 64L19 64L19 63L20 63L20 62L19 62L19 61L21 61L21 62L22 62L22 61L24 61L24 59L25 59L25 58L26 58L26 61L27 61L27 58L26 58L26 57L28 57L28 58L29 58L29 57L28 57L28 54L30 54L30 53L28 53L28 52L27 52L27 50L26 50L26 49L27 49L27 48L28 48L28 47L29 47L29 48L30 48L30 47L29 47L29 46L30 46L30 45L31 45L31 49L28 49L28 50L30 50L30 51L29 51L29 52L30 52L30 51L35 51L35 52L37 52L37 53L32 53L32 52L31 52L31 55L29 55L29 56L31 56L31 55L33 55L33 54L34 54L34 55L35 55L35 57L36 57L36 58L35 58L35 60L37 60L37 57L38 57L38 58L40 58L40 59L42 59L42 60L39 60L39 59L38 59L38 62L39 62L39 63L41 63L41 64L42 64L42 63L43 63L43 64L44 64L44 62L45 62L45 63L46 63L46 62L47 62L47 63L48 63L48 64L49 64L49 63L48 63L48 62L51 62L51 63L53 63L53 61L55 61L55 62L54 62L54 64L55 64L55 63L57 63L57 64L59 64L59 61L57 61L57 62L56 62L56 61L55 61L55 60L56 60L56 59L55 59L55 58L56 58L56 56L57 56L57 55L56 55L56 54L57 54L57 52L58 52L58 51L59 51L59 53L61 53L61 54L60 54L60 55L62 55L62 54L63 54L63 53L62 53L62 52L63 52L63 51L62 51L62 52L60 52L60 51L61 51L61 50L63 50L63 49L61 49L61 46L60 46L60 49L59 49L59 48L58 48L58 47L59 47L59 45L58 45L58 44L55 44L55 43L56 43L56 42L57 42L57 43L59 43L59 44L60 44L60 45L62 45L62 44L63 44L63 43L62 43L62 42L63 42L63 41L64 41L64 40L63 40L63 38L60 38L60 40L59 40L59 41L56 41L56 40L58 40L58 39L59 39L59 38L58 38L58 39L57 39L57 38L54 38L54 39L56 39L56 40L55 40L55 42L53 42L53 40L52 40L52 41L51 41L51 39L53 39L53 36L52 36L52 35L45 35L45 36L44 36L44 37L43 37L43 38L42 38L42 36L43 36L43 34L44 34L44 33L45 33L45 34L48 34L48 32L49 32L49 33L50 33L50 34L51 34L51 33L50 33L50 32L52 32L52 33L53 33L53 32L55 32L55 30L57 30L57 29L56 29L56 28L58 28L58 27L55 27L55 26L53 26L53 24L54 24L54 25L56 25L56 26L57 26L57 25L56 25L56 24L54 24L54 23L57 23L57 22L59 22L59 21L56 21L56 20L54 20L54 21L55 21L55 22L52 22L52 23L50 23L50 22L51 22L51 21L53 21L53 20L51 20L51 19L50 19L50 22L49 22L49 21L46 21L46 20L47 20L47 19L46 19L46 20L44 20L44 21L45 21L45 22L42 22L42 21L43 21L43 20L42 20L42 19L45 19L45 18L44 18L44 17L45 17L45 16L44 16L44 17L43 17L43 18L42 18L42 19L41 19L41 20L40 20L40 21L38 21L38 18L41 18L41 17L42 17L42 16L43 16L43 15L46 15L46 16L47 16L47 15L48 15L48 16L49 16L49 15L50 15L50 14L51 14L51 13L53 13L53 12L52 12L52 11L48 11L48 10L49 10L49 9L50 9L50 10L52 10L52 9L53 9L53 8L54 8L54 6L53 6L53 8L52 8L52 9L50 9L50 8L51 8L51 7L52 7L52 6L51 6L51 7L50 7L50 5L53 5L53 3L51 3L51 4L50 4L50 5L49 5L49 4L48 4L48 5L49 5L49 7L48 7L48 6L47 6L47 7L48 7L48 8L47 8L47 9L46 9L46 10L45 10L45 8L44 8L44 6L45 6L45 7L46 7L46 5L47 5L47 4L45 4L45 3L44 3L44 4L43 4L43 5L42 5L42 6L41 6L41 8L38 8L38 9L37 9L37 11L34 11L34 10L35 10L35 9L33 9L33 10L32 10L32 9L30 9L30 8L29 8L29 7L30 7L30 4L31 4L31 3L29 3L29 4L28 4L28 3L27 3L27 2L26 2L26 6L25 6L25 7L24 7L24 6L23 6L23 7L24 7L24 8L22 8L22 5L23 5L23 4L25 4L25 3L24 3L24 2L25 2L25 1ZM33 2L33 3L32 3L32 4L33 4L33 3L34 3L34 2ZM21 4L21 5L22 5L22 4ZM27 4L27 6L26 6L26 7L25 7L25 9L22 9L22 10L24 10L24 12L23 12L23 13L22 13L22 12L21 12L21 11L19 11L19 10L20 10L20 9L21 9L21 8L20 8L20 7L21 7L21 6L20 6L20 7L19 7L19 6L18 6L18 7L17 7L17 6L16 6L16 7L15 7L15 5L13 5L13 6L14 6L14 7L15 7L15 8L16 8L16 9L15 9L15 10L16 10L16 11L17 11L17 8L18 8L18 9L19 9L19 10L18 10L18 11L19 11L19 12L17 12L17 13L20 13L20 12L21 12L21 15L22 15L22 16L23 16L23 15L24 15L24 16L25 16L25 17L24 17L24 18L23 18L23 17L21 17L21 16L19 16L19 15L20 15L20 14L18 14L18 15L17 15L17 16L18 16L18 17L17 17L17 18L16 18L16 17L15 17L15 18L13 18L13 17L12 17L12 18L11 18L11 19L12 19L12 22L13 22L13 23L15 23L15 24L14 24L14 25L13 25L13 26L12 26L12 25L11 25L11 24L10 24L10 26L12 26L12 27L14 27L14 30L15 30L15 31L14 31L14 35L15 35L15 31L16 31L16 33L17 33L17 29L19 29L19 30L18 30L18 33L19 33L19 32L20 32L20 33L21 33L21 29L19 29L19 28L23 28L23 27L22 27L22 26L27 26L27 27L26 27L26 28L25 28L25 27L24 27L24 29L22 29L22 30L24 30L24 29L25 29L25 30L28 30L28 29L29 29L29 30L30 30L30 31L29 31L29 32L28 32L28 33L29 33L29 34L27 34L27 33L26 33L26 32L27 32L27 31L25 31L25 33L24 33L24 31L23 31L23 33L22 33L22 35L19 35L19 37L18 37L18 36L17 36L17 35L18 35L18 34L16 34L16 37L15 37L15 38L13 38L13 34L11 34L11 36L10 36L10 35L9 35L9 36L8 36L8 37L7 37L7 38L6 38L6 39L7 39L7 40L8 40L8 42L9 42L9 40L10 40L10 41L11 41L11 42L10 42L10 43L11 43L11 44L12 44L12 45L11 45L11 46L10 46L10 44L9 44L9 43L7 43L7 42L6 42L6 43L7 43L7 44L6 44L6 45L7 45L7 44L8 44L8 45L9 45L9 46L8 46L8 47L7 47L7 46L6 46L6 47L7 47L7 48L8 48L8 49L9 49L9 47L12 47L12 46L13 46L13 45L14 45L14 43L15 43L15 44L17 44L17 45L20 45L20 44L19 44L19 42L20 42L20 43L21 43L21 42L22 42L22 43L23 43L23 41L21 41L21 40L22 40L22 39L21 39L21 38L22 38L22 37L23 37L23 39L24 39L24 40L25 40L25 41L24 41L24 42L25 42L25 44L23 44L23 45L22 45L22 44L21 44L21 48L20 48L20 49L21 49L21 51L22 51L22 50L23 50L23 52L24 52L24 51L25 51L25 52L26 52L26 51L25 51L25 49L24 49L24 50L23 50L23 49L21 49L21 48L23 48L23 47L24 47L24 48L27 48L27 47L28 47L28 46L27 46L27 45L29 45L29 44L28 44L28 43L30 43L30 42L31 42L31 45L33 45L33 46L32 46L32 47L33 47L33 46L35 46L35 47L34 47L34 48L32 48L32 49L34 49L34 48L35 48L35 47L37 47L37 46L38 46L38 49L39 49L39 46L38 46L38 45L39 45L39 44L36 44L36 45L34 45L34 44L35 44L35 43L33 43L33 44L32 44L32 41L33 41L33 42L35 42L35 41L38 41L38 40L39 40L39 39L40 39L40 40L41 40L41 39L40 39L40 38L41 38L41 37L39 37L39 36L38 36L38 37L37 37L37 36L35 36L35 35L36 35L36 34L37 34L37 35L40 35L40 36L42 36L42 35L40 35L40 34L41 34L41 33L42 33L42 34L43 34L43 33L42 33L42 32L41 32L41 31L40 31L40 30L43 30L43 31L44 31L44 32L45 32L45 31L46 31L46 33L47 33L47 31L48 31L48 30L49 30L49 28L51 28L51 30L50 30L50 31L52 31L52 32L53 32L53 31L54 31L54 30L55 30L55 28L54 28L54 27L53 27L53 26L52 26L52 25L51 25L51 24L48 24L48 26L46 26L46 25L44 25L44 24L45 24L45 23L47 23L47 22L45 22L45 23L44 23L44 24L43 24L43 25L42 25L42 26L43 26L43 25L44 25L44 26L45 26L45 27L44 27L44 28L45 28L45 29L48 29L48 30L43 30L43 28L42 28L42 27L39 27L39 26L38 26L38 25L39 25L39 24L38 24L38 25L37 25L37 24L35 24L35 22L36 22L36 23L37 23L37 20L35 20L35 18L34 18L34 17L37 17L37 16L42 16L42 15L39 15L39 14L40 14L40 12L41 12L41 14L43 14L43 12L45 12L45 11L44 11L44 10L43 10L43 9L42 9L42 10L41 10L41 11L39 11L39 10L38 10L38 12L36 12L36 13L35 13L35 12L34 12L34 11L32 11L32 12L31 12L31 11L30 11L30 9L29 9L29 8L28 8L28 7L29 7L29 5L28 5L28 4ZM31 5L31 8L34 8L34 5ZM36 5L36 6L35 6L35 7L36 7L36 8L37 8L37 7L38 7L38 6L37 6L37 5ZM39 5L39 7L40 7L40 5ZM43 5L43 6L42 6L42 8L43 8L43 6L44 6L44 5ZM27 6L27 7L28 7L28 6ZM32 6L32 7L33 7L33 6ZM36 6L36 7L37 7L37 6ZM56 6L56 7L57 7L57 6ZM18 7L18 8L19 8L19 7ZM26 8L26 9L25 9L25 14L26 14L26 13L27 13L27 14L29 14L29 13L28 13L28 12L29 12L29 11L28 11L28 12L26 12L26 9L27 9L27 10L29 10L29 9L28 9L28 8ZM48 8L48 9L49 9L49 8ZM59 8L59 9L60 9L60 8ZM6 9L6 10L7 10L7 9ZM0 10L0 12L1 12L1 13L2 13L2 11L3 11L3 10ZM11 10L11 11L10 11L10 12L11 12L11 13L12 13L12 12L11 12L11 11L12 11L12 10ZM42 10L42 11L43 11L43 10ZM46 10L46 13L47 13L47 14L46 14L46 15L47 15L47 14L48 14L48 13L49 13L49 14L50 14L50 12L48 12L48 13L47 13L47 10ZM54 10L54 12L55 12L55 10ZM60 11L60 12L61 12L61 11ZM62 11L62 12L63 12L63 11ZM30 12L30 14L31 14L31 12ZM32 12L32 13L33 13L33 14L32 14L32 15L33 15L33 14L35 14L35 13L33 13L33 12ZM23 13L23 14L22 14L22 15L23 15L23 14L24 14L24 13ZM37 13L37 14L36 14L36 16L37 16L37 15L38 15L38 14L39 14L39 13ZM44 13L44 14L45 14L45 13ZM0 14L0 15L1 15L1 16L0 16L0 19L1 19L1 18L3 18L3 17L4 17L4 16L3 16L3 14ZM28 15L28 16L29 16L29 15ZM34 15L34 16L35 16L35 15ZM51 15L51 16L52 16L52 15ZM54 15L54 16L55 16L55 15ZM1 16L1 17L3 17L3 16ZM26 16L26 17L25 17L25 18L24 18L24 19L23 19L23 18L22 18L22 19L20 19L20 18L21 18L21 17L18 17L18 18L17 18L17 19L16 19L16 18L15 18L15 19L14 19L14 20L15 20L15 21L16 21L16 22L15 22L15 23L16 23L16 24L19 24L19 25L18 25L18 26L17 26L17 25L15 25L15 26L17 26L17 27L16 27L16 29L15 29L15 30L16 30L16 29L17 29L17 27L19 27L19 26L20 26L20 27L21 27L21 25L23 25L23 24L22 24L22 23L23 23L23 21L25 21L25 22L24 22L24 25L25 25L25 22L27 22L27 19L28 19L28 20L29 20L29 21L28 21L28 23L27 23L27 24L26 24L26 25L27 25L27 24L29 24L29 25L28 25L28 27L27 27L27 28L26 28L26 29L27 29L27 28L28 28L28 27L32 27L32 25L34 25L34 26L35 26L35 27L36 27L36 28L37 28L37 29L35 29L35 28L32 28L32 29L31 29L31 28L29 28L29 29L31 29L31 30L32 30L32 29L33 29L33 30L35 30L35 34L36 34L36 32L37 32L37 34L39 34L39 33L41 33L41 32L39 32L39 31L36 31L36 30L37 30L37 29L38 29L38 30L39 30L39 29L41 29L41 28L39 28L39 27L36 27L36 26L37 26L37 25L36 25L36 26L35 26L35 25L34 25L34 24L32 24L32 23L34 23L34 22L35 22L35 21L34 21L34 18L33 18L33 20L32 20L32 17L33 17L33 16L30 16L30 17L27 17L27 16ZM26 17L26 18L25 18L25 20L26 20L26 19L27 19L27 17ZM30 17L30 18L28 18L28 19L29 19L29 20L31 20L31 21L32 21L32 22L33 22L33 21L32 21L32 20L31 20L31 17ZM12 18L12 19L13 19L13 18ZM18 18L18 19L17 19L17 20L18 20L18 21L17 21L17 22L18 22L18 23L21 23L21 22L20 22L20 21L22 21L22 20L20 20L20 21L19 21L19 18ZM36 18L36 19L37 19L37 18ZM48 19L48 20L49 20L49 19ZM13 21L13 22L14 22L14 21ZM29 21L29 22L30 22L30 24L31 24L31 22L30 22L30 21ZM38 22L38 23L39 23L39 22ZM40 22L40 24L41 24L41 22ZM48 22L48 23L49 23L49 22ZM6 23L6 24L7 24L7 23ZM52 23L52 24L53 24L53 23ZM20 24L20 25L21 25L21 24ZM30 25L30 26L31 26L31 25ZM50 25L50 26L48 26L48 28L49 28L49 27L50 27L50 26L51 26L51 27L52 27L52 26L51 26L51 25ZM63 25L63 26L64 26L64 25ZM5 27L5 28L6 28L6 29L7 29L7 28L6 28L6 27ZM10 27L10 28L8 28L8 29L10 29L10 30L11 30L11 31L10 31L10 32L11 32L11 33L12 33L12 32L11 32L11 31L13 31L13 29L10 29L10 28L11 28L11 27ZM46 27L46 28L47 28L47 27ZM62 27L62 28L63 28L63 27ZM0 28L0 29L1 29L1 31L0 31L0 33L2 33L2 28ZM38 28L38 29L39 29L39 28ZM52 28L52 29L54 29L54 28ZM19 30L19 31L20 31L20 30ZM5 31L5 34L8 34L8 31ZM31 31L31 34L34 34L34 31ZM57 31L57 34L60 34L60 31ZM6 32L6 33L7 33L7 32ZM29 32L29 33L30 33L30 32ZM32 32L32 33L33 33L33 32ZM38 32L38 33L39 33L39 32ZM58 32L58 33L59 33L59 32ZM61 32L61 35L59 35L59 36L58 36L58 37L59 37L59 36L60 36L60 37L61 37L61 35L62 35L62 36L63 36L63 35L62 35L62 34L64 34L64 33L62 33L62 32ZM25 33L25 34L26 34L26 33ZM23 34L23 35L24 35L24 36L23 36L23 37L25 37L25 38L24 38L24 39L25 39L25 40L26 40L26 41L25 41L25 42L26 42L26 43L28 43L28 42L30 42L30 41L28 41L28 42L26 42L26 41L27 41L27 40L26 40L26 39L27 39L27 38L30 38L30 37L31 37L31 40L34 40L34 41L35 41L35 40L34 40L34 39L36 39L36 40L37 40L37 38L34 38L34 39L32 39L32 38L33 38L33 37L31 37L31 36L33 36L33 35L30 35L30 36L29 36L29 35L28 35L28 36L29 36L29 37L25 37L25 36L26 36L26 35L24 35L24 34ZM53 34L53 35L54 35L54 37L56 37L56 36L55 36L55 35L56 35L56 34ZM21 36L21 37L20 37L20 38L19 38L19 39L18 39L18 37L16 37L16 38L17 38L17 39L18 39L18 40L21 40L21 39L20 39L20 38L21 38L21 37L22 37L22 36ZM48 36L48 38L46 38L46 40L45 40L45 39L42 39L42 40L43 40L43 41L40 41L40 42L38 42L38 43L40 43L40 44L41 44L41 43L42 43L42 44L43 44L43 45L40 45L40 48L41 48L41 46L44 46L44 44L45 44L45 47L44 47L44 48L43 48L43 47L42 47L42 48L43 48L43 49L41 49L41 51L39 51L39 50L36 50L36 51L39 51L39 53L40 53L40 52L41 52L41 51L42 51L42 52L43 52L43 51L44 51L44 52L45 52L45 53L44 53L44 56L43 56L43 55L42 55L42 54L43 54L43 53L41 53L41 55L39 55L39 54L38 54L38 53L37 53L37 54L36 54L36 55L37 55L37 56L36 56L36 57L37 57L37 56L43 56L43 57L41 57L41 58L43 58L43 59L44 59L44 60L42 60L42 61L40 61L40 62L44 62L44 60L45 60L45 62L46 62L46 61L49 61L49 60L48 60L48 59L47 59L47 58L50 58L50 61L51 61L51 62L52 62L52 60L53 60L53 59L52 59L52 58L53 58L53 57L51 57L51 56L50 56L50 57L49 57L49 56L46 56L46 55L47 55L47 54L45 54L45 53L47 53L47 52L46 52L46 51L47 51L47 50L45 50L45 49L49 49L49 50L48 50L48 51L49 51L49 52L48 52L48 54L49 54L49 52L50 52L50 51L51 51L51 52L53 52L53 51L52 51L52 50L55 50L55 48L56 48L56 51L54 51L54 52L57 52L57 51L58 51L58 50L59 50L59 49L58 49L58 48L57 48L57 47L54 47L54 48L53 48L53 47L52 47L52 46L53 46L53 45L54 45L54 46L56 46L56 45L54 45L54 44L53 44L53 42L52 42L52 44L50 44L50 45L51 45L51 46L49 46L49 44L48 44L48 45L47 45L47 46L46 46L46 44L45 44L45 43L47 43L47 42L48 42L48 43L51 43L51 42L50 42L50 39L51 39L51 38L50 38L50 36ZM0 37L0 38L1 38L1 37ZM10 37L10 38L12 38L12 39L13 39L13 40L11 40L11 39L10 39L10 40L11 40L11 41L12 41L12 44L13 44L13 42L14 42L14 41L15 41L15 43L18 43L18 42L19 42L19 41L15 41L15 40L14 40L14 39L13 39L13 38L12 38L12 37ZM38 37L38 38L39 38L39 37ZM44 37L44 38L45 38L45 37ZM7 38L7 39L8 39L8 40L9 40L9 38ZM48 38L48 39L47 39L47 40L46 40L46 42L47 42L47 40L49 40L49 38ZM28 39L28 40L30 40L30 39ZM13 40L13 41L14 41L14 40ZM44 40L44 41L45 41L45 40ZM62 40L62 41L63 41L63 40ZM20 41L20 42L21 42L21 41ZM59 41L59 42L61 42L61 41ZM36 42L36 43L37 43L37 42ZM40 42L40 43L41 43L41 42ZM42 42L42 43L43 43L43 44L44 44L44 43L43 43L43 42ZM60 43L60 44L62 44L62 43ZM4 44L4 45L5 45L5 44ZM26 44L26 45L25 45L25 47L26 47L26 45L27 45L27 44ZM52 44L52 45L53 45L53 44ZM15 45L15 46L16 46L16 45ZM23 45L23 46L22 46L22 47L23 47L23 46L24 46L24 45ZM36 45L36 46L37 46L37 45ZM57 45L57 46L58 46L58 45ZM17 46L17 47L18 47L18 49L19 49L19 47L20 47L20 46L19 46L19 47L18 47L18 46ZM48 46L48 47L47 47L47 48L49 48L49 46ZM45 47L45 48L44 48L44 49L45 49L45 48L46 48L46 47ZM50 47L50 48L52 48L52 49L53 49L53 48L52 48L52 47ZM11 48L11 49L12 49L12 48ZM36 48L36 49L37 49L37 48ZM50 49L50 50L49 50L49 51L50 51L50 50L51 50L51 49ZM60 49L60 50L61 50L61 49ZM1 50L1 51L2 51L2 50ZM16 50L16 51L17 51L17 50ZM42 50L42 51L43 51L43 50ZM5 51L5 52L7 52L7 51ZM3 52L3 53L4 53L4 52ZM16 52L16 53L17 53L17 52ZM20 52L20 53L22 53L22 52ZM23 53L23 54L24 54L24 55L23 55L23 57L22 57L22 59L21 59L21 58L20 58L20 59L21 59L21 60L22 60L22 59L23 59L23 57L24 57L24 58L25 58L25 57L24 57L24 55L26 55L26 53ZM52 53L52 54L50 54L50 55L52 55L52 56L54 56L54 58L55 58L55 56L56 56L56 55L55 55L55 56L54 56L54 55L52 55L52 54L56 54L56 53ZM37 54L37 55L38 55L38 54ZM58 54L58 55L59 55L59 54ZM16 55L16 56L17 56L17 55ZM44 56L44 57L45 57L45 58L44 58L44 59L46 59L46 60L47 60L47 59L46 59L46 58L47 58L47 57L45 57L45 56ZM8 57L8 59L9 59L9 58L10 58L10 57ZM15 57L15 58L17 58L17 57ZM31 57L31 60L34 60L34 57ZM50 57L50 58L51 58L51 57ZM57 57L57 60L60 60L60 57ZM32 58L32 59L33 59L33 58ZM58 58L58 59L59 59L59 58ZM18 59L18 61L19 61L19 59ZM29 59L29 60L30 60L30 59ZM54 59L54 60L55 60L55 59ZM60 61L60 62L61 62L61 63L62 63L62 64L63 64L63 61L62 61L62 62L61 62L61 61ZM18 62L18 63L19 63L19 62ZM28 62L28 63L26 63L26 64L25 64L25 65L26 65L26 64L28 64L28 65L29 65L29 64L28 64L28 63L29 63L29 62ZM32 62L32 63L33 63L33 62ZM57 62L57 63L58 63L58 62ZM0 0L0 7L7 7L7 0ZM1 1L1 6L6 6L6 1ZM2 2L2 5L5 5L5 2ZM58 0L58 7L65 7L65 0ZM59 1L59 6L64 6L64 1ZM60 2L60 5L63 5L63 2ZM0 58L0 65L7 65L7 58ZM1 59L1 64L6 64L6 59ZM2 60L2 63L5 63L5 60Z" fill="#000000"/></g></g></svg>
