<?xml version="1.0" encoding="UTF-8"?>
<svg xmlns="http://www.w3.org/2000/svg" version="1.1" width="300" height="300" viewBox="0 0 300 300"><rect x="0" y="0" width="300" height="300" fill="#ffffff"/><g transform="scale(4.615)"><g transform="translate(0,0)"><path fill-rule="evenodd" d="M8 0L8 1L9 1L9 2L8 2L8 5L9 5L9 6L8 6L8 7L9 7L9 6L10 6L10 8L12 8L12 7L13 7L13 9L12 9L12 10L9 10L9 8L8 8L8 10L6 10L6 11L4 11L4 8L0 8L0 9L1 9L1 10L0 10L0 11L1 11L1 10L3 10L3 11L2 11L2 12L1 12L1 13L0 13L0 14L1 14L1 13L3 13L3 11L4 11L4 12L5 12L5 13L4 13L4 14L2 14L2 15L0 15L0 17L1 17L1 19L3 19L3 20L2 20L2 21L0 21L0 22L6 22L6 23L4 23L4 25L3 25L3 26L2 26L2 24L3 24L3 23L1 23L1 24L0 24L0 26L2 26L2 27L7 27L7 28L6 28L6 29L5 29L5 28L3 28L3 30L2 30L2 29L1 29L1 27L0 27L0 29L1 29L1 30L0 30L0 33L1 33L1 34L0 34L0 38L3 38L3 39L4 39L4 36L5 36L5 35L7 35L7 36L6 36L6 37L5 37L5 38L6 38L6 39L5 39L5 40L6 40L6 41L5 41L5 43L4 43L4 42L2 42L2 43L4 43L4 45L5 45L5 43L9 43L9 44L8 44L8 47L9 47L9 48L10 48L10 46L11 46L11 47L12 47L12 48L11 48L11 50L8 50L8 48L6 48L6 49L7 49L7 50L5 50L5 49L4 49L4 50L0 50L0 52L3 52L3 51L4 51L4 52L6 52L6 53L4 53L4 54L3 54L3 53L1 53L1 54L2 54L2 55L3 55L3 56L1 56L1 55L0 55L0 56L1 56L1 57L3 57L3 56L4 56L4 57L5 57L5 56L4 56L4 54L5 54L5 55L8 55L8 56L6 56L6 57L8 57L8 58L11 58L11 59L12 59L12 57L13 57L13 56L17 56L17 57L18 57L18 56L17 56L17 55L19 55L19 54L17 54L17 52L16 52L16 54L17 54L17 55L15 55L15 53L13 53L13 52L12 52L12 51L13 51L13 50L15 50L15 51L19 51L19 50L20 50L20 51L21 51L21 53L22 53L22 54L24 54L24 53L25 53L25 54L27 54L27 55L29 55L29 57L30 57L30 60L29 60L29 58L28 58L28 61L27 61L27 62L28 62L28 61L30 61L30 63L29 63L29 64L28 64L28 63L25 63L25 64L23 64L23 65L27 65L27 64L28 64L28 65L29 65L29 64L31 64L31 65L32 65L32 64L33 64L33 63L35 63L35 64L34 64L34 65L35 65L35 64L36 64L36 63L35 63L35 62L37 62L37 64L38 64L38 65L40 65L40 64L41 64L41 65L43 65L43 63L44 63L44 65L45 65L45 63L44 63L44 62L42 62L42 64L41 64L41 63L40 63L40 64L39 64L39 61L40 61L40 62L41 62L41 61L42 61L42 59L44 59L44 60L43 60L43 61L44 61L44 60L45 60L45 58L44 58L44 57L42 57L42 56L41 56L41 55L42 55L42 54L40 54L40 52L41 52L41 53L46 53L46 54L45 54L45 55L47 55L47 58L46 58L46 59L48 59L48 60L47 60L47 62L50 62L50 63L51 63L51 64L53 64L53 65L54 65L54 64L55 64L55 63L56 63L56 65L59 65L59 64L61 64L61 63L62 63L62 61L63 61L63 60L65 60L65 59L63 59L63 58L65 58L65 57L63 57L63 56L65 56L65 55L64 55L64 54L62 54L62 53L61 53L61 52L62 52L62 51L65 51L65 49L64 49L64 48L65 48L65 47L64 47L64 46L65 46L65 43L64 43L64 45L63 45L63 43L62 43L62 42L64 42L64 41L62 41L62 39L63 39L63 40L65 40L65 35L64 35L64 37L63 37L63 36L61 36L61 37L62 37L62 38L60 38L60 40L59 40L59 38L58 38L58 39L57 39L57 41L58 41L58 42L57 42L57 43L54 43L54 41L55 41L55 42L56 42L56 41L55 41L55 40L56 40L56 38L53 38L53 37L54 37L54 36L55 36L55 34L56 34L56 35L61 35L61 31L62 31L62 33L63 33L63 34L65 34L65 31L64 31L64 33L63 33L63 31L62 31L62 29L60 29L60 26L61 26L61 28L62 28L62 27L63 27L63 25L64 25L64 27L65 27L65 25L64 25L64 22L65 22L65 19L64 19L64 17L65 17L65 11L64 11L64 10L65 10L65 8L64 8L64 10L62 10L62 9L63 9L63 8L60 8L60 9L59 9L59 10L57 10L57 11L58 11L58 12L60 12L60 13L59 13L59 14L60 14L60 15L64 15L64 17L62 17L62 16L61 16L61 19L59 19L59 18L60 18L60 17L58 17L58 15L57 15L57 14L58 14L58 13L57 13L57 12L56 12L56 9L58 9L58 8L57 8L57 6L56 6L56 9L55 9L55 8L54 8L54 7L55 7L55 5L53 5L53 4L56 4L56 5L57 5L57 4L56 4L56 3L57 3L57 1L56 1L56 0L55 0L55 1L56 1L56 3L55 3L55 2L54 2L54 0L52 0L52 2L54 2L54 3L53 3L53 4L52 4L52 5L51 5L51 4L49 4L49 3L50 3L50 2L48 2L48 1L46 1L46 0L44 0L44 3L45 3L45 5L42 5L42 8L43 8L43 6L44 6L44 7L45 7L45 8L46 8L46 9L47 9L47 10L44 10L44 9L42 9L42 10L41 10L41 4L43 4L43 0L39 0L39 3L37 3L37 2L35 2L35 1L38 1L38 0L35 0L35 1L33 1L33 0L32 0L32 3L33 3L33 4L30 4L30 3L31 3L31 0L29 0L29 1L28 1L28 0L24 0L24 1L23 1L23 0L22 0L22 1L23 1L23 2L25 2L25 3L26 3L26 2L27 2L27 1L28 1L28 2L29 2L29 1L30 1L30 3L27 3L27 4L29 4L29 5L28 5L28 7L27 7L27 5L24 5L24 7L23 7L23 4L21 4L21 1L19 1L19 2L20 2L20 4L19 4L19 3L18 3L18 1L17 1L17 0L14 0L14 1L13 1L13 2L14 2L14 3L12 3L12 4L14 4L14 7L13 7L13 5L11 5L11 3L9 3L9 2L12 2L12 0ZM14 1L14 2L15 2L15 5L16 5L16 6L15 6L15 7L14 7L14 8L15 8L15 7L16 7L16 6L17 6L17 8L16 8L16 11L15 11L15 10L14 10L14 9L13 9L13 10L12 10L12 11L9 11L9 13L8 13L8 12L7 12L7 11L6 11L6 12L7 12L7 13L5 13L5 14L4 14L4 15L5 15L5 14L7 14L7 13L8 13L8 14L9 14L9 16L7 16L7 15L6 15L6 16L7 16L7 17L6 17L6 18L5 18L5 17L4 17L4 16L2 16L2 18L3 18L3 17L4 17L4 18L5 18L5 19L6 19L6 20L5 20L5 21L6 21L6 22L7 22L7 23L6 23L6 24L5 24L5 26L8 26L8 28L7 28L7 29L6 29L6 30L9 30L9 32L10 32L10 34L9 34L9 35L8 35L8 37L6 37L6 38L7 38L7 39L6 39L6 40L7 40L7 39L8 39L8 40L9 40L9 43L10 43L10 41L12 41L12 40L13 40L13 39L14 39L14 43L13 43L13 44L14 44L14 43L15 43L15 45L14 45L14 48L13 48L13 49L14 49L14 48L15 48L15 49L16 49L16 50L18 50L18 49L16 49L16 48L18 48L18 47L19 47L19 49L20 49L20 47L21 47L21 49L23 49L23 50L22 50L22 51L23 51L23 50L25 50L25 48L24 48L24 49L23 49L23 48L22 48L22 47L24 47L24 46L22 46L22 47L21 47L21 46L19 46L19 44L20 44L20 45L22 45L22 43L20 43L20 42L24 42L24 44L26 44L26 45L25 45L25 47L26 47L26 45L27 45L27 46L29 46L29 47L30 47L30 48L29 48L29 49L28 49L28 50L29 50L29 49L30 49L30 51L31 51L31 48L32 48L32 46L34 46L34 47L33 47L33 48L34 48L34 49L33 49L33 50L32 50L32 51L34 51L34 49L35 49L35 53L36 53L36 54L34 54L34 55L33 55L33 56L34 56L34 55L37 55L37 56L36 56L36 57L35 57L35 58L36 58L36 59L39 59L39 57L40 57L40 58L42 58L42 57L40 57L40 54L39 54L39 53L38 53L38 52L40 52L40 50L39 50L39 51L38 51L38 52L37 52L37 51L36 51L36 47L35 47L35 46L37 46L37 48L38 48L38 49L37 49L37 50L38 50L38 49L42 49L42 50L41 50L41 52L42 52L42 50L44 50L44 51L43 51L43 52L44 52L44 51L47 51L47 52L48 52L48 55L49 55L49 54L52 54L52 55L50 55L50 56L51 56L51 57L50 57L50 58L49 58L49 59L50 59L50 60L49 60L49 61L50 61L50 60L52 60L52 61L51 61L51 62L55 62L55 59L53 59L53 57L54 57L54 56L55 56L55 54L58 54L58 55L59 55L59 56L61 56L61 55L59 55L59 53L60 53L60 54L61 54L61 53L60 53L60 52L61 52L61 51L62 51L62 48L63 48L63 47L62 47L62 46L63 46L63 45L61 45L61 47L59 47L59 45L58 45L58 46L57 46L57 44L58 44L58 43L60 43L60 44L61 44L61 41L60 41L60 42L58 42L58 43L57 43L57 44L56 44L56 46L57 46L57 48L58 48L58 49L56 49L56 47L55 47L55 48L53 48L53 46L54 46L54 44L53 44L53 46L51 46L51 45L52 45L52 44L50 44L50 45L49 45L49 44L48 44L48 42L47 42L47 43L46 43L46 42L43 42L43 41L41 41L41 40L44 40L44 37L45 37L45 36L43 36L43 37L42 37L42 36L41 36L41 35L42 35L42 32L43 32L43 33L45 33L45 32L47 32L47 31L46 31L46 30L45 30L45 29L43 29L43 27L42 27L42 29L41 29L41 28L39 28L39 27L35 27L35 26L36 26L36 25L35 25L35 23L36 23L36 22L37 22L37 21L38 21L38 23L37 23L37 26L38 26L38 25L42 25L42 26L43 26L43 23L44 23L44 21L45 21L45 19L46 19L46 16L45 16L45 19L44 19L44 21L43 21L43 18L44 18L44 17L43 17L43 16L42 16L42 17L41 17L41 16L40 16L40 17L41 17L41 18L39 18L39 15L40 15L40 13L42 13L42 14L41 14L41 15L42 15L42 14L44 14L44 15L47 15L47 16L48 16L48 17L47 17L47 18L48 18L48 19L49 19L49 20L47 20L47 21L46 21L46 22L45 22L45 24L44 24L44 25L45 25L45 28L46 28L46 29L47 29L47 30L54 30L54 31L53 31L53 32L54 32L54 33L56 33L56 32L55 32L55 30L58 30L58 29L59 29L59 30L60 30L60 29L59 29L59 28L58 28L58 27L59 27L59 26L60 26L60 25L58 25L58 26L57 26L57 27L55 27L55 28L56 28L56 29L53 29L53 28L54 28L54 26L55 26L55 24L56 24L56 22L57 22L57 24L58 24L58 22L59 22L59 19L58 19L58 22L57 22L57 21L55 21L55 23L54 23L54 25L53 25L53 21L50 21L50 22L49 22L49 20L50 20L50 19L49 19L49 18L51 18L51 19L52 19L52 17L53 17L53 16L54 16L54 18L53 18L53 20L55 20L55 19L56 19L56 20L57 20L57 15L55 15L55 16L54 16L54 14L55 14L55 13L56 13L56 12L55 12L55 11L54 11L54 10L51 10L51 9L50 9L50 5L47 5L47 4L46 4L46 6L45 6L45 7L46 7L46 6L47 6L47 7L48 7L48 6L49 6L49 8L47 8L47 9L50 9L50 10L49 10L49 12L50 12L50 13L51 13L51 15L48 15L48 14L49 14L49 13L48 13L48 10L47 10L47 13L46 13L46 11L45 11L45 12L44 12L44 13L42 13L42 11L40 11L40 12L39 12L39 15L38 15L38 16L37 16L37 14L38 14L38 12L37 12L37 13L35 13L35 12L36 12L36 11L39 11L39 10L40 10L40 9L38 9L38 10L37 10L37 8L38 8L38 6L37 6L37 4L35 4L35 5L36 5L36 6L35 6L35 8L36 8L36 11L35 11L35 12L34 12L34 14L33 14L33 12L32 12L32 11L34 11L34 10L35 10L35 9L33 9L33 10L32 10L32 9L31 9L31 11L30 11L30 5L29 5L29 8L25 8L25 7L26 7L26 6L25 6L25 7L24 7L24 8L25 8L25 11L23 11L23 10L22 10L22 11L21 11L21 9L20 9L20 12L19 12L19 8L20 8L20 6L21 6L21 7L22 7L22 6L21 6L21 5L20 5L20 6L19 6L19 4L18 4L18 3L17 3L17 2L16 2L16 1ZM40 1L40 4L39 4L39 7L40 7L40 4L41 4L41 3L42 3L42 2L41 2L41 1ZM34 2L34 3L35 3L35 2ZM45 2L45 3L46 3L46 2ZM9 4L9 5L10 5L10 4ZM17 5L17 6L18 6L18 7L19 7L19 6L18 6L18 5ZM31 5L31 8L34 8L34 5ZM11 6L11 7L12 7L12 6ZM32 6L32 7L33 7L33 6ZM36 6L36 8L37 8L37 6ZM51 6L51 8L52 8L52 6ZM53 6L53 7L54 7L54 6ZM6 8L6 9L7 9L7 8ZM17 8L17 9L18 9L18 8ZM53 8L53 9L54 9L54 8ZM26 9L26 11L25 11L25 12L27 12L27 14L26 14L26 13L25 13L25 14L24 14L24 13L22 13L22 12L23 12L23 11L22 11L22 12L21 12L21 13L22 13L22 14L24 14L24 16L23 16L23 15L21 15L21 14L20 14L20 13L19 13L19 12L18 12L18 10L17 10L17 13L16 13L16 14L15 14L15 12L14 12L14 11L13 11L13 12L12 12L12 13L11 13L11 12L10 12L10 13L9 13L9 14L10 14L10 13L11 13L11 14L12 14L12 16L9 16L9 17L8 17L8 18L6 18L6 19L7 19L7 20L6 20L6 21L7 21L7 20L9 20L9 17L10 17L10 18L12 18L12 20L13 20L13 21L14 21L14 22L13 22L13 23L12 23L12 21L11 21L11 19L10 19L10 21L9 21L9 22L8 22L8 23L7 23L7 24L6 24L6 25L8 25L8 26L9 26L9 28L8 28L8 29L10 29L10 28L11 28L11 27L12 27L12 29L11 29L11 30L12 30L12 32L14 32L14 33L15 33L15 29L16 29L16 30L17 30L17 29L16 29L16 28L17 28L17 26L16 26L16 25L18 25L18 26L19 26L19 27L21 27L21 28L19 28L19 29L18 29L18 30L19 30L19 31L18 31L18 32L19 32L19 33L21 33L21 35L20 35L20 34L19 34L19 36L18 36L18 34L16 34L16 37L15 37L15 36L14 36L14 34L13 34L13 35L12 35L12 39L13 39L13 36L14 36L14 39L15 39L15 38L16 38L16 41L15 41L15 42L16 42L16 43L19 43L19 42L20 42L20 41L18 41L18 42L17 42L17 39L18 39L18 40L19 40L19 39L21 39L21 41L22 41L22 40L23 40L23 41L25 41L25 43L26 43L26 42L28 42L28 43L29 43L29 45L30 45L30 47L31 47L31 45L33 45L33 42L35 42L35 43L34 43L34 45L35 45L35 44L37 44L37 43L38 43L38 45L37 45L37 46L38 46L38 45L39 45L39 46L42 46L42 48L43 48L43 49L44 49L44 48L45 48L45 45L43 45L43 44L42 44L42 42L41 42L41 43L40 43L40 42L38 42L38 41L36 41L36 42L35 42L35 39L39 39L39 36L38 36L38 33L39 33L39 35L40 35L40 33L41 33L41 32L42 32L42 31L41 31L41 29L40 29L40 31L39 31L39 30L38 30L38 32L37 32L37 29L36 29L36 32L35 32L35 29L34 29L34 28L33 28L33 27L32 27L32 26L31 26L31 27L30 27L30 26L28 26L28 25L30 25L30 23L32 23L32 24L33 24L33 26L34 26L34 24L33 24L33 22L32 22L32 20L30 20L30 19L35 19L35 21L36 21L36 20L38 20L38 21L39 21L39 23L40 23L40 21L41 21L41 23L43 23L43 21L42 21L42 19L40 19L40 21L39 21L39 20L38 20L38 19L39 19L39 18L38 18L38 17L34 17L34 16L35 16L35 15L36 15L36 14L35 14L35 15L32 15L32 14L31 14L31 15L30 15L30 13L29 13L29 12L30 12L30 11L29 11L29 10L28 10L28 12L27 12L27 9ZM60 9L60 10L59 10L59 11L60 11L60 10L61 10L61 9ZM43 10L43 11L44 11L44 10ZM51 11L51 12L52 12L52 11ZM53 11L53 12L54 12L54 13L52 13L52 16L51 16L51 17L52 17L52 16L53 16L53 14L54 14L54 13L55 13L55 12L54 12L54 11ZM61 11L61 12L63 12L63 13L61 13L61 14L63 14L63 13L64 13L64 11ZM31 12L31 13L32 13L32 12ZM12 13L12 14L13 14L13 15L15 15L15 17L16 17L16 18L17 18L17 17L19 17L19 18L18 18L18 19L19 19L19 21L20 21L20 22L23 22L23 23L22 23L22 24L21 24L21 23L19 23L19 24L21 24L21 25L24 25L24 26L23 26L23 27L24 27L24 28L21 28L21 29L20 29L20 31L19 31L19 32L20 32L20 31L21 31L21 32L22 32L22 31L23 31L23 33L24 33L24 32L26 32L26 33L25 33L25 35L23 35L23 36L22 36L22 37L21 37L21 39L22 39L22 38L25 38L25 41L26 41L26 40L27 40L27 41L28 41L28 40L27 40L27 39L26 39L26 38L27 38L27 36L25 36L25 35L28 35L28 36L29 36L29 37L28 37L28 38L29 38L29 37L30 37L30 38L31 38L31 39L29 39L29 42L30 42L30 45L31 45L31 44L32 44L32 43L31 43L31 42L33 42L33 41L34 41L34 39L33 39L33 38L34 38L34 37L35 37L35 38L37 38L37 37L38 37L38 36L37 36L37 37L35 37L35 36L36 36L36 35L37 35L37 32L36 32L36 33L35 33L35 34L36 34L36 35L34 35L34 37L33 37L33 38L32 38L32 36L31 36L31 35L30 35L30 32L26 32L26 31L23 31L23 29L24 29L24 30L26 30L26 27L25 27L25 26L27 26L27 25L28 25L28 23L29 23L29 22L30 22L30 20L29 20L29 19L27 19L27 18L28 18L28 17L27 17L27 18L25 18L25 17L26 17L26 16L27 16L27 15L28 15L28 16L29 16L29 17L30 17L30 15L29 15L29 13L28 13L28 14L27 14L27 15L26 15L26 16L25 16L25 17L23 17L23 16L20 16L20 17L19 17L19 16L18 16L18 15L15 15L15 14L13 14L13 13ZM17 13L17 14L18 14L18 13ZM45 13L45 14L46 14L46 13ZM16 16L16 17L17 17L17 16ZM13 17L13 18L14 18L14 21L15 21L15 23L13 23L13 24L15 24L15 23L16 23L16 24L18 24L18 21L17 21L17 23L16 23L16 20L15 20L15 18L14 18L14 17ZM32 17L32 18L34 18L34 17ZM55 17L55 18L56 18L56 17ZM20 18L20 21L23 21L23 22L24 22L24 23L23 23L23 24L25 24L25 25L26 25L26 24L25 24L25 22L26 22L26 23L28 23L28 22L27 22L27 21L26 21L26 20L22 20L22 19L23 19L23 18L22 18L22 19L21 19L21 18ZM24 18L24 19L25 19L25 18ZM35 18L35 19L36 19L36 18ZM37 18L37 19L38 19L38 18ZM61 19L61 20L60 20L60 21L61 21L61 22L62 22L62 24L61 24L61 26L62 26L62 24L63 24L63 22L62 22L62 21L61 21L61 20L62 20L62 19ZM63 19L63 21L64 21L64 19ZM3 20L3 21L4 21L4 20ZM10 21L10 22L9 22L9 23L10 23L10 24L9 24L9 26L10 26L10 27L11 27L11 26L10 26L10 25L12 25L12 26L13 26L13 25L12 25L12 23L10 23L10 22L11 22L11 21ZM47 21L47 22L46 22L46 23L47 23L47 24L46 24L46 25L47 25L47 26L49 26L49 28L53 28L53 27L51 27L51 25L52 25L52 26L53 26L53 25L52 25L52 24L51 24L51 23L52 23L52 22L51 22L51 23L50 23L50 24L51 24L51 25L49 25L49 22L48 22L48 21ZM34 22L34 23L35 23L35 22ZM59 23L59 24L60 24L60 23ZM14 26L14 27L13 27L13 29L12 29L12 30L14 30L14 27L15 27L15 26ZM21 26L21 27L22 27L22 26ZM27 27L27 28L29 28L29 30L32 30L32 27L31 27L31 29L30 29L30 28L29 28L29 27ZM47 27L47 28L48 28L48 27ZM24 28L24 29L25 29L25 28ZM63 28L63 30L65 30L65 28ZM4 29L4 30L3 30L3 31L2 31L2 30L1 30L1 31L2 31L2 32L1 32L1 33L4 33L4 32L3 32L3 31L4 31L4 30L5 30L5 29ZM21 29L21 31L22 31L22 29ZM27 30L27 31L28 31L28 30ZM43 30L43 31L44 31L44 30ZM5 31L5 34L8 34L8 31ZM10 31L10 32L11 32L11 31ZM31 31L31 34L34 34L34 31ZM49 31L49 32L48 32L48 33L50 33L50 34L48 34L48 35L51 35L51 36L50 36L50 37L51 37L51 41L49 41L49 40L50 40L50 39L47 39L47 35L46 35L46 40L45 40L45 41L46 41L46 40L48 40L48 41L49 41L49 43L50 43L50 42L52 42L52 43L53 43L53 41L54 41L54 40L55 40L55 39L54 39L54 40L52 40L52 37L53 37L53 35L51 35L51 34L53 34L53 33L52 33L52 31L51 31L51 33L50 33L50 31ZM57 31L57 34L60 34L60 31ZM6 32L6 33L7 33L7 32ZM32 32L32 33L33 33L33 32ZM58 32L58 33L59 33L59 32ZM26 33L26 34L28 34L28 33ZM46 33L46 34L47 34L47 33ZM1 34L1 35L3 35L3 36L2 36L2 37L3 37L3 36L4 36L4 35L3 35L3 34ZM9 35L9 37L8 37L8 38L9 38L9 39L10 39L10 40L11 40L11 38L9 38L9 37L10 37L10 36L11 36L11 35ZM29 35L29 36L30 36L30 35ZM17 36L17 37L16 37L16 38L18 38L18 39L19 39L19 37L20 37L20 36L19 36L19 37L18 37L18 36ZM58 36L58 37L59 37L59 36ZM40 37L40 40L39 40L39 41L40 41L40 40L41 40L41 38L42 38L42 39L43 39L43 38L42 38L42 37ZM48 37L48 38L49 38L49 37ZM0 39L0 43L1 43L1 41L3 41L3 40L2 40L2 39ZM31 39L31 40L33 40L33 39ZM6 41L6 42L8 42L8 41ZM30 41L30 42L31 42L31 41ZM11 43L11 44L10 44L10 45L9 45L9 46L10 46L10 45L12 45L12 46L13 46L13 45L12 45L12 43ZM39 43L39 45L40 45L40 43ZM1 44L1 45L0 45L0 48L1 48L1 47L2 47L2 49L3 49L3 48L5 48L5 47L7 47L7 46L5 46L5 47L4 47L4 46L3 46L3 44ZM6 44L6 45L7 45L7 44ZM16 44L16 47L15 47L15 48L16 48L16 47L18 47L18 46L17 46L17 44ZM41 44L41 45L42 45L42 44ZM47 44L47 46L46 46L46 48L47 48L47 49L49 49L49 50L48 50L48 51L49 51L49 53L50 53L50 52L51 52L51 53L52 53L52 54L54 54L54 53L55 53L55 52L56 52L56 53L57 53L57 52L56 52L56 51L57 51L57 50L56 50L56 49L55 49L55 50L54 50L54 52L53 52L53 49L52 49L52 52L51 52L51 49L50 49L50 48L49 48L49 45L48 45L48 44ZM1 45L1 46L2 46L2 47L3 47L3 46L2 46L2 45ZM43 46L43 48L44 48L44 46ZM38 47L38 48L40 48L40 47ZM47 47L47 48L48 48L48 47ZM51 47L51 48L52 48L52 47ZM61 47L61 48L62 48L62 47ZM26 48L26 51L24 51L24 52L23 52L23 53L24 53L24 52L26 52L26 51L27 51L27 48ZM58 49L58 52L60 52L60 51L59 51L59 50L60 50L60 49ZM63 49L63 50L64 50L64 49ZM4 50L4 51L5 51L5 50ZM7 50L7 51L6 51L6 52L8 52L8 50ZM11 50L11 51L10 51L10 52L9 52L9 54L8 54L8 53L6 53L6 54L8 54L8 55L9 55L9 57L11 57L11 56L12 56L12 55L13 55L13 54L11 54L11 53L10 53L10 52L11 52L11 51L12 51L12 50ZM49 50L49 51L50 51L50 50ZM28 51L28 52L27 52L27 53L28 53L28 52L29 52L29 54L30 54L30 53L31 53L31 55L30 55L30 56L32 56L32 54L33 54L33 52L32 52L32 53L31 53L31 52L29 52L29 51ZM18 52L18 53L20 53L20 52ZM52 52L52 53L53 53L53 52ZM37 53L37 54L38 54L38 55L39 55L39 54L38 54L38 53ZM9 54L9 55L10 55L10 56L11 56L11 54ZM20 55L20 57L21 57L21 58L23 58L23 59L24 59L24 60L26 60L26 58L27 58L27 57L28 57L28 56L27 56L27 57L26 57L26 56L24 56L24 55L23 55L23 56L22 56L22 57L21 57L21 55ZM43 55L43 56L44 56L44 55ZM52 55L52 57L51 57L51 59L52 59L52 57L53 57L53 56L54 56L54 55ZM37 56L37 57L39 57L39 56ZM45 56L45 57L46 57L46 56ZM48 56L48 57L49 57L49 56ZM23 57L23 58L24 58L24 57ZM31 57L31 60L34 60L34 57ZM55 57L55 58L56 58L56 57ZM57 57L57 60L60 60L60 57ZM61 57L61 58L63 58L63 57ZM13 58L13 59L14 59L14 60L10 60L10 62L9 62L9 61L8 61L8 65L9 65L9 63L10 63L10 65L12 65L12 64L14 64L14 65L15 65L15 64L16 64L16 65L17 65L17 64L18 64L18 63L17 63L17 62L14 62L14 63L13 63L13 62L12 62L12 64L11 64L11 61L14 61L14 60L16 60L16 59L18 59L18 60L17 60L17 61L18 61L18 62L19 62L19 61L20 61L20 62L21 62L21 63L23 63L23 61L20 61L20 59L18 59L18 58L16 58L16 59L14 59L14 58ZM32 58L32 59L33 59L33 58ZM58 58L58 59L59 59L59 58ZM40 59L40 61L41 61L41 59ZM61 59L61 61L62 61L62 60L63 60L63 59ZM35 60L35 61L31 61L31 64L32 64L32 63L33 63L33 62L35 62L35 61L36 61L36 60ZM37 60L37 61L39 61L39 60ZM45 61L45 62L46 62L46 61ZM56 61L56 63L57 63L57 64L59 64L59 62L60 62L60 63L61 63L61 62L60 62L60 61ZM64 62L64 63L63 63L63 65L64 65L64 63L65 63L65 62ZM16 63L16 64L17 64L17 63ZM46 63L46 64L47 64L47 63ZM21 64L21 65L22 65L22 64ZM0 0L0 7L7 7L7 0ZM1 1L1 6L6 6L6 1ZM2 2L2 5L5 5L5 2ZM58 0L58 7L65 7L65 0ZM59 1L59 6L64 6L64 1ZM60 2L60 5L63 5L63 2ZM0 58L0 65L7 65L7 58ZM1 59L1 64L6 64L6 59ZM2 60L2 63L5 63L5 60Z" fill="#000000"/></g></g></svg>
