<?xml version="1.0" encoding="UTF-8"?>
<svg xmlns="http://www.w3.org/2000/svg" version="1.1" width="300" height="300" viewBox="0 0 300 300"><rect x="0" y="0" width="300" height="300" fill="#ffffff"/><g transform="scale(4.615)"><g transform="translate(0,0)"><path fill-rule="evenodd" d="M9 0L9 1L8 1L8 2L9 2L9 3L8 3L8 4L9 4L9 3L10 3L10 2L11 2L11 4L10 4L10 5L8 5L8 7L9 7L9 8L6 8L6 9L7 9L7 10L6 10L6 11L5 11L5 12L4 12L4 9L5 9L5 8L0 8L0 10L1 10L1 9L2 9L2 10L3 10L3 12L2 12L2 13L1 13L1 12L0 12L0 14L2 14L2 15L3 15L3 16L5 16L5 17L3 17L3 18L0 18L0 19L3 19L3 18L6 18L6 19L5 19L5 20L4 20L4 21L1 21L1 20L0 20L0 21L1 21L1 22L2 22L2 23L4 23L4 22L6 22L6 23L5 23L5 24L4 24L4 25L3 25L3 24L1 24L1 25L0 25L0 27L2 27L2 28L1 28L1 29L2 29L2 30L3 30L3 29L2 29L2 28L3 28L3 26L4 26L4 25L5 25L5 24L6 24L6 25L7 25L7 26L6 26L6 27L4 27L4 28L6 28L6 29L7 29L7 30L4 30L4 31L3 31L3 32L2 32L2 31L0 31L0 32L2 32L2 35L10 35L10 36L8 36L8 37L9 37L9 39L11 39L11 40L8 40L8 38L5 38L5 39L4 39L4 37L7 37L7 36L4 36L4 37L2 37L2 36L1 36L1 34L0 34L0 38L3 38L3 39L1 39L1 41L4 41L4 46L3 46L3 47L2 47L2 45L0 45L0 46L1 46L1 47L0 47L0 49L1 49L1 50L2 50L2 51L1 51L1 54L2 54L2 55L3 55L3 56L1 56L1 55L0 55L0 56L1 56L1 57L3 57L3 56L4 56L4 57L5 57L5 56L4 56L4 54L2 54L2 51L3 51L3 52L4 52L4 53L5 53L5 55L7 55L7 54L6 54L6 53L8 53L8 59L9 59L9 60L8 60L8 65L9 65L9 62L10 62L10 63L11 63L11 62L12 62L12 60L14 60L14 61L15 61L15 62L16 62L16 61L15 61L15 60L16 60L16 59L17 59L17 61L20 61L20 59L17 59L17 58L18 58L18 57L19 57L19 58L20 58L20 57L21 57L21 55L22 55L22 56L23 56L23 55L22 55L22 53L23 53L23 54L25 54L25 57L22 57L22 58L21 58L21 60L23 60L23 59L22 59L22 58L27 58L27 59L26 59L26 60L25 60L25 59L24 59L24 62L23 62L23 61L22 61L22 62L21 62L21 64L20 64L20 65L21 65L21 64L24 64L24 63L26 63L26 62L27 62L27 65L29 65L29 64L28 64L28 63L30 63L30 65L31 65L31 64L32 64L32 65L35 65L35 64L33 64L33 63L31 63L31 62L27 62L27 61L29 61L29 59L28 59L28 57L30 57L30 61L32 61L32 62L33 62L33 61L37 61L37 62L34 62L34 63L37 63L37 64L36 64L36 65L37 65L37 64L39 64L39 63L40 63L40 64L42 64L42 65L44 65L44 64L45 64L45 63L43 63L43 64L42 64L42 63L40 63L40 62L43 62L43 61L44 61L44 62L45 62L45 61L44 61L44 60L45 60L45 59L44 59L44 57L42 57L42 58L41 58L41 57L40 57L40 56L41 56L41 55L40 55L40 54L41 54L41 53L40 53L40 54L38 54L38 53L39 53L39 52L42 52L42 54L43 54L43 53L44 53L44 54L45 54L45 53L44 53L44 52L45 52L45 51L48 51L48 49L49 49L49 51L51 51L51 50L52 50L52 52L53 52L53 50L55 50L55 51L54 51L54 52L56 52L56 51L58 51L58 52L59 52L59 51L58 51L58 50L61 50L61 51L60 51L60 52L62 52L62 53L60 53L60 55L58 55L58 53L57 53L57 54L56 54L56 53L53 53L53 54L52 54L52 53L51 53L51 54L50 54L50 52L48 52L48 54L46 54L46 55L44 55L44 56L45 56L45 58L46 58L46 61L47 61L47 58L48 58L48 59L51 59L51 62L50 62L50 60L48 60L48 62L46 62L46 63L48 63L48 62L50 62L50 63L49 63L49 64L47 64L47 65L51 65L51 64L53 64L53 65L61 65L61 64L62 64L62 65L63 65L63 64L64 64L64 60L65 60L65 59L63 59L63 58L65 58L65 57L64 57L64 56L65 56L65 55L64 55L64 54L65 54L65 53L64 53L64 52L65 52L65 51L63 51L63 50L65 50L65 49L64 49L64 48L62 48L62 46L63 46L63 45L65 45L65 44L62 44L62 43L63 43L63 42L65 42L65 39L64 39L64 38L65 38L65 37L64 37L64 38L63 38L63 36L64 36L64 34L65 34L65 32L64 32L64 31L63 31L63 30L62 30L62 31L61 31L61 29L64 29L64 28L62 28L62 27L63 27L63 26L65 26L65 25L63 25L63 24L58 24L58 23L59 23L59 22L61 22L61 20L59 20L59 19L63 19L63 20L62 20L62 21L63 21L63 22L62 22L62 23L64 23L64 24L65 24L65 23L64 23L64 22L65 22L65 21L64 21L64 20L65 20L65 19L64 19L64 18L65 18L65 15L64 15L64 16L62 16L62 18L60 18L60 17L61 17L61 16L59 16L59 14L57 14L57 15L58 15L58 17L59 17L59 18L58 18L58 19L57 19L57 18L56 18L56 17L57 17L57 16L56 16L56 13L57 13L57 12L58 12L58 11L59 11L59 12L60 12L60 13L61 13L61 12L60 12L60 8L59 8L59 10L58 10L58 8L56 8L56 9L55 9L55 8L53 8L53 6L54 6L54 7L55 7L55 5L54 5L54 4L56 4L56 5L57 5L57 4L56 4L56 3L57 3L57 1L56 1L56 0L55 0L55 1L56 1L56 3L55 3L55 2L54 2L54 3L53 3L53 2L52 2L52 1L48 1L48 2L49 2L49 3L48 3L48 5L50 5L50 7L49 7L49 6L48 6L48 7L49 7L49 8L47 8L47 10L45 10L45 9L44 9L44 8L46 8L46 7L47 7L47 5L46 5L46 4L47 4L47 1L46 1L46 0L45 0L45 1L44 1L44 0L41 0L41 2L39 2L39 1L38 1L38 0L37 0L37 1L36 1L36 2L37 2L37 3L34 3L34 2L35 2L35 1L34 1L34 0L33 0L33 2L32 2L32 0L29 0L29 1L28 1L28 2L30 2L30 3L31 3L31 2L32 2L32 3L33 3L33 4L30 4L30 7L29 7L29 5L27 5L27 4L29 4L29 3L27 3L27 2L25 2L25 4L23 4L23 5L25 5L25 6L24 6L24 8L25 8L25 6L26 6L26 7L27 7L27 9L26 9L26 10L25 10L25 9L24 9L24 10L25 10L25 11L26 11L26 10L28 10L28 11L27 11L27 12L28 12L28 13L29 13L29 12L31 12L31 13L30 13L30 14L31 14L31 13L32 13L32 14L33 14L33 15L32 15L32 16L33 16L33 18L31 18L31 17L30 17L30 16L31 16L31 15L30 15L30 16L29 16L29 15L27 15L27 13L26 13L26 15L25 15L25 17L24 17L24 15L22 15L22 14L24 14L24 13L25 13L25 12L24 12L24 13L19 13L19 12L18 12L18 11L19 11L19 10L20 10L20 11L21 11L21 12L23 12L23 9L21 9L21 8L23 8L23 6L22 6L22 5L20 5L20 4L22 4L22 3L19 3L19 1L18 1L18 0L14 0L14 1L13 1L13 3L14 3L14 2L15 2L15 5L14 5L14 4L13 4L13 5L12 5L12 0L11 0L11 1L10 1L10 0ZM21 0L21 1L20 1L20 2L22 2L22 1L23 1L23 2L24 2L24 1L25 1L25 0L24 0L24 1L23 1L23 0ZM26 0L26 1L27 1L27 0ZM53 0L53 1L54 1L54 0ZM9 1L9 2L10 2L10 1ZM17 1L17 2L18 2L18 1ZM30 1L30 2L31 2L31 1ZM42 1L42 2L41 2L41 3L40 3L40 4L39 4L39 2L38 2L38 3L37 3L37 7L36 7L36 5L35 5L35 7L36 7L36 8L37 8L37 7L38 7L38 5L39 5L39 7L40 7L40 5L42 5L42 6L41 6L41 7L42 7L42 9L43 9L43 8L44 8L44 4L46 4L46 3L44 3L44 1ZM45 1L45 2L46 2L46 1ZM42 2L42 3L43 3L43 2ZM50 2L50 3L49 3L49 4L50 4L50 5L52 5L52 6L51 6L51 8L50 8L50 9L49 9L49 10L47 10L47 11L48 11L48 12L49 12L49 11L50 11L50 14L51 14L51 13L53 13L53 12L54 12L54 11L55 11L55 13L56 13L56 12L57 12L57 11L55 11L55 10L52 10L52 11L53 11L53 12L51 12L51 11L50 11L50 10L51 10L51 9L53 9L53 8L52 8L52 6L53 6L53 5L52 5L52 4L53 4L53 3L51 3L51 2ZM16 3L16 4L18 4L18 3ZM26 3L26 4L27 4L27 3ZM50 3L50 4L51 4L51 3ZM42 4L42 5L43 5L43 4ZM10 5L10 6L9 6L9 7L10 7L10 6L11 6L11 8L12 8L12 9L14 9L14 8L12 8L12 5ZM13 5L13 7L14 7L14 5ZM15 5L15 9L16 9L16 11L15 11L15 13L16 13L16 14L14 14L14 17L13 17L13 19L14 19L14 18L17 18L17 17L18 17L18 19L15 19L15 20L14 20L14 21L15 21L15 22L14 22L14 23L13 23L13 24L12 24L12 22L13 22L13 21L11 21L11 20L12 20L12 16L11 16L11 15L12 15L12 14L13 14L13 13L12 13L12 12L11 12L11 13L10 13L10 12L9 12L9 13L8 13L8 14L10 14L10 15L9 15L9 16L7 16L7 15L6 15L6 14L7 14L7 13L5 13L5 16L7 16L7 17L6 17L6 18L7 18L7 17L9 17L9 16L10 16L10 17L11 17L11 20L10 20L10 21L8 21L8 20L9 20L9 19L10 19L10 18L8 18L8 20L7 20L7 19L6 19L6 20L7 20L7 21L6 21L6 22L7 22L7 23L6 23L6 24L8 24L8 25L10 25L10 26L8 26L8 30L9 30L9 31L10 31L10 30L11 30L11 31L12 31L12 32L13 32L13 31L12 31L12 30L11 30L11 29L13 29L13 30L15 30L15 31L16 31L16 32L17 32L17 33L15 33L15 32L14 32L14 33L15 33L15 36L14 36L14 34L13 34L13 33L12 33L12 36L10 36L10 38L12 38L12 39L13 39L13 38L14 38L14 40L11 40L11 41L10 41L10 42L8 42L8 40L7 40L7 39L6 39L6 40L5 40L5 41L6 41L6 42L5 42L5 43L6 43L6 44L7 44L7 43L8 43L8 46L11 46L11 47L9 47L9 48L7 48L7 47L6 47L6 46L7 46L7 45L6 45L6 46L4 46L4 47L5 47L5 48L3 48L3 51L4 51L4 50L5 50L5 49L6 49L6 50L7 50L7 51L5 51L5 52L7 52L7 51L9 51L9 52L8 52L8 53L9 53L9 55L12 55L12 54L10 54L10 53L9 53L9 52L10 52L10 51L11 51L11 47L12 47L12 48L13 48L13 47L14 47L14 46L16 46L16 45L17 45L17 49L16 49L16 47L15 47L15 48L14 48L14 49L15 49L15 50L14 50L14 51L15 51L15 50L18 50L18 51L16 51L16 52L18 52L18 53L14 53L14 52L13 52L13 51L12 51L12 52L13 52L13 55L14 55L14 56L12 56L12 57L11 57L11 58L10 58L10 62L11 62L11 59L12 59L12 58L14 58L14 60L15 60L15 59L16 59L16 58L17 58L17 57L15 57L15 55L16 55L16 56L19 56L19 57L20 57L20 56L19 56L19 55L18 55L18 53L19 53L19 54L20 54L20 55L21 55L21 53L22 53L22 52L21 52L21 53L20 53L20 51L22 51L22 49L23 49L23 47L24 47L24 49L25 49L25 48L26 48L26 49L28 49L28 50L30 50L30 51L28 51L28 52L27 52L27 51L26 51L26 54L30 54L30 55L31 55L31 56L32 56L32 55L33 55L33 56L34 56L34 55L35 55L35 57L36 57L36 56L37 56L37 57L38 57L38 58L39 58L39 57L38 57L38 56L39 56L39 55L38 55L38 54L37 54L37 55L35 55L35 54L34 54L34 55L33 55L33 53L32 53L32 51L36 51L36 52L37 52L37 53L38 53L38 52L39 52L39 51L38 51L38 50L40 50L40 49L41 49L41 51L42 51L42 52L44 52L44 51L45 51L45 50L47 50L47 47L48 47L48 48L49 48L49 49L50 49L50 50L51 50L51 49L50 49L50 48L51 48L51 47L50 47L50 46L51 46L51 44L52 44L52 45L56 45L56 47L57 47L57 46L58 46L58 47L60 47L60 48L58 48L58 49L61 49L61 50L63 50L63 49L62 49L62 48L61 48L61 46L59 46L59 45L62 45L62 44L60 44L60 43L61 43L61 42L57 42L57 41L56 41L56 40L57 40L57 39L59 39L59 40L58 40L58 41L61 41L61 40L63 40L63 39L62 39L62 37L61 37L61 36L60 36L60 37L61 37L61 38L57 38L57 35L56 35L56 34L52 34L52 35L54 35L54 37L56 37L56 40L55 40L55 42L54 42L54 43L53 43L53 42L51 42L51 41L54 41L54 39L55 39L55 38L54 38L54 39L53 39L53 40L51 40L51 41L49 41L49 43L48 43L48 44L50 44L50 46L49 46L49 45L46 45L46 44L47 44L47 43L46 43L46 42L47 42L47 41L46 41L46 42L45 42L45 40L44 40L44 39L45 39L45 38L47 38L47 39L46 39L46 40L47 40L47 39L48 39L48 40L50 40L50 38L52 38L52 37L53 37L53 36L52 36L52 37L51 37L51 35L50 35L50 34L51 34L51 32L52 32L52 33L55 33L55 32L54 32L54 31L56 31L56 30L57 30L57 29L56 29L56 30L54 30L54 28L58 28L58 30L60 30L60 28L61 28L61 27L62 27L62 26L63 26L63 25L60 25L60 26L61 26L61 27L59 27L59 28L58 28L58 26L59 26L59 25L56 25L56 26L54 26L54 28L52 28L52 29L53 29L53 32L52 32L52 31L51 31L51 32L49 32L49 31L50 31L50 30L51 30L51 29L50 29L50 28L51 28L51 27L53 27L53 24L52 24L52 25L51 25L51 24L49 24L49 21L48 21L48 20L50 20L50 22L51 22L51 21L53 21L53 20L52 20L52 19L50 19L50 18L51 18L51 16L52 16L52 17L53 17L53 16L52 16L52 15L55 15L55 14L52 14L52 15L49 15L49 14L48 14L48 13L47 13L47 12L46 12L46 11L45 11L45 10L44 10L44 11L43 11L43 10L42 10L42 11L41 11L41 10L39 10L39 9L41 9L41 8L39 8L39 9L38 9L38 10L37 10L37 9L31 9L31 10L30 10L30 11L31 11L31 10L32 10L32 11L34 11L34 12L32 12L32 13L33 13L33 14L36 14L36 16L34 16L34 15L33 15L33 16L34 16L34 18L35 18L35 20L34 20L34 19L33 19L33 20L32 20L32 19L31 19L31 18L30 18L30 17L27 17L27 15L26 15L26 17L25 17L25 18L26 18L26 19L24 19L24 18L23 18L23 19L24 19L24 21L25 21L25 24L24 24L24 25L23 25L23 24L21 24L21 25L20 25L20 23L19 23L19 22L21 22L21 23L23 23L23 21L22 21L22 20L21 20L21 21L20 21L20 20L19 20L19 19L22 19L22 17L23 17L23 16L21 16L21 17L20 17L20 16L19 16L19 15L20 15L20 14L19 14L19 13L17 13L17 12L16 12L16 11L18 11L18 10L19 10L19 9L18 9L18 8L17 8L17 9L16 9L16 6L17 6L17 7L18 7L18 6L19 6L19 8L21 8L21 7L22 7L22 6L21 6L21 7L20 7L20 5L18 5L18 6L17 6L17 5ZM31 5L31 8L34 8L34 5ZM27 6L27 7L28 7L28 8L29 8L29 7L28 7L28 6ZM32 6L32 7L33 7L33 6ZM42 6L42 7L43 7L43 6ZM45 6L45 7L46 7L46 6ZM56 6L56 7L57 7L57 6ZM61 8L61 10L63 10L63 12L62 12L62 15L63 15L63 12L64 12L64 14L65 14L65 12L64 12L64 10L65 10L65 9L64 9L64 8L63 8L63 9L62 9L62 8ZM10 9L10 11L13 11L13 10L11 10L11 9ZM20 9L20 10L21 10L21 11L22 11L22 10L21 10L21 9ZM28 9L28 10L29 10L29 9ZM56 9L56 10L57 10L57 9ZM34 10L34 11L35 11L35 10ZM36 10L36 11L37 11L37 12L36 12L36 14L37 14L37 15L39 15L39 16L38 16L38 17L37 17L37 16L36 16L36 17L35 17L35 18L36 18L36 19L37 19L37 18L38 18L38 19L40 19L40 20L41 20L41 19L40 19L40 18L41 18L41 17L40 17L40 18L38 18L38 17L39 17L39 16L42 16L42 18L45 18L45 19L43 19L43 20L45 20L45 21L44 21L44 22L45 22L45 21L47 21L47 20L48 20L48 19L49 19L49 17L50 17L50 16L48 16L48 18L46 18L46 17L47 17L47 15L48 15L48 14L46 14L46 12L45 12L45 11L44 11L44 12L45 12L45 14L43 14L43 13L39 13L39 14L38 14L38 13L37 13L37 12L41 12L41 11L39 11L39 10L38 10L38 11L37 11L37 10ZM6 11L6 12L7 12L7 11ZM28 11L28 12L29 12L29 11ZM42 11L42 12L43 12L43 11ZM3 12L3 13L4 13L4 12ZM34 12L34 13L35 13L35 12ZM3 14L3 15L4 15L4 14ZM16 14L16 15L15 15L15 16L17 16L17 14ZM40 14L40 15L43 15L43 16L44 16L44 17L45 17L45 16L44 16L44 15L43 15L43 14ZM60 14L60 15L61 15L61 14ZM18 16L18 17L19 17L19 16ZM55 16L55 17L56 17L56 16ZM26 17L26 18L27 18L27 20L28 20L28 21L29 21L29 20L31 20L31 22L33 22L33 23L32 23L32 24L31 24L31 23L30 23L30 24L29 24L29 22L28 22L28 25L26 25L26 24L27 24L27 23L26 23L26 24L25 24L25 25L24 25L24 26L27 26L27 27L26 27L26 28L27 28L27 29L25 29L25 27L24 27L24 28L23 28L23 29L22 29L22 30L21 30L21 31L22 31L22 32L23 32L23 31L24 31L24 32L25 32L25 33L24 33L24 34L23 34L23 33L21 33L21 32L20 32L20 33L19 33L19 31L20 31L20 30L18 30L18 29L20 29L20 28L19 28L19 26L18 26L18 25L19 25L19 23L18 23L18 22L19 22L19 21L18 21L18 20L17 20L17 21L16 21L16 20L15 20L15 21L16 21L16 22L15 22L15 23L14 23L14 24L15 24L15 23L16 23L16 25L17 25L17 26L16 26L16 28L17 28L17 30L18 30L18 31L17 31L17 32L18 32L18 33L17 33L17 34L16 34L16 35L17 35L17 36L15 36L15 37L14 37L14 36L12 36L12 37L14 37L14 38L15 38L15 39L16 39L16 41L17 41L17 40L18 40L18 41L19 41L19 42L18 42L18 43L19 43L19 44L17 44L17 45L19 45L19 46L18 46L18 49L19 49L19 51L20 51L20 49L21 49L21 46L24 46L24 45L25 45L25 41L26 41L26 44L28 44L28 45L30 45L30 46L29 46L29 47L30 47L30 48L28 48L28 49L30 49L30 50L31 50L31 51L32 51L32 50L31 50L31 48L32 48L32 49L33 49L33 50L35 50L35 49L34 49L34 48L36 48L36 49L37 49L37 50L36 50L36 51L37 51L37 50L38 50L38 48L36 48L36 45L37 45L37 47L39 47L39 49L40 49L40 48L41 48L41 49L42 49L42 50L43 50L43 49L44 49L44 48L45 48L45 49L46 49L46 48L45 48L45 47L47 47L47 46L44 46L44 44L45 44L45 42L43 42L43 39L44 39L44 38L43 38L43 37L42 37L42 38L43 38L43 39L41 39L41 37L40 37L40 36L41 36L41 35L42 35L42 36L43 36L43 35L44 35L44 36L46 36L46 37L47 37L47 36L48 36L48 37L49 37L49 38L48 38L48 39L49 39L49 38L50 38L50 37L49 37L49 36L50 36L50 35L49 35L49 34L48 34L48 35L47 35L47 34L45 34L45 33L49 33L49 32L46 32L46 31L48 31L48 30L50 30L50 29L49 29L49 28L48 28L48 29L47 29L47 28L46 28L46 27L47 27L47 26L46 26L46 24L47 24L47 25L49 25L49 26L48 26L48 27L51 27L51 26L50 26L50 25L49 25L49 24L47 24L47 22L46 22L46 24L45 24L45 23L42 23L42 22L43 22L43 21L42 21L42 22L41 22L41 21L39 21L39 20L38 20L38 21L39 21L39 22L37 22L37 20L35 20L35 22L34 22L34 20L33 20L33 21L32 21L32 20L31 20L31 19L29 19L29 18L27 18L27 17ZM63 17L63 18L64 18L64 17ZM54 18L54 19L55 19L55 20L54 20L54 21L55 21L55 22L52 22L52 23L54 23L54 24L55 24L55 23L57 23L57 21L56 21L56 20L57 20L57 19L56 19L56 18ZM28 19L28 20L29 20L29 19ZM46 19L46 20L47 20L47 19ZM10 21L10 23L11 23L11 21ZM17 21L17 22L18 22L18 21ZM21 21L21 22L22 22L22 21ZM26 21L26 22L27 22L27 21ZM58 21L58 22L59 22L59 21ZM35 22L35 24L34 24L34 23L33 23L33 24L32 24L32 25L31 25L31 24L30 24L30 27L31 27L31 28L30 28L30 29L27 29L27 30L25 30L25 31L26 31L26 33L25 33L25 35L24 35L24 37L25 37L25 36L26 36L26 37L27 37L27 38L26 38L26 39L27 39L27 40L26 40L26 41L28 41L28 42L30 42L30 41L31 41L31 40L34 40L34 41L35 41L35 42L33 42L33 41L32 41L32 42L31 42L31 44L33 44L33 45L32 45L32 46L33 46L33 48L34 48L34 47L35 47L35 45L34 45L34 43L35 43L35 44L37 44L37 45L38 45L38 46L39 46L39 47L42 47L42 48L44 48L44 46L40 46L40 45L43 45L43 44L44 44L44 43L43 43L43 42L42 42L42 40L39 40L39 39L38 39L38 38L40 38L40 37L38 37L38 34L39 34L39 33L43 33L43 32L42 32L42 31L46 31L46 30L47 30L47 29L45 29L45 28L44 28L44 27L45 27L45 26L44 26L44 25L45 25L45 24L44 24L44 25L43 25L43 24L42 24L42 23L41 23L41 22L40 22L40 23L39 23L39 25L38 25L38 26L37 26L37 25L36 25L36 24L38 24L38 23L37 23L37 22ZM17 23L17 24L18 24L18 23ZM40 23L40 24L41 24L41 23ZM10 24L10 25L12 25L12 24ZM1 25L1 26L3 26L3 25ZM14 25L14 26L11 26L11 27L14 27L14 28L15 28L15 25ZM21 25L21 26L20 26L20 27L21 27L21 26L23 26L23 25ZM28 25L28 26L29 26L29 25ZM32 25L32 26L33 26L33 27L32 27L32 28L33 28L33 27L35 27L35 26L36 26L36 25L35 25L35 26L34 26L34 25ZM41 25L41 26L43 26L43 25ZM38 26L38 28L35 28L35 30L28 30L28 31L27 31L27 33L26 33L26 34L27 34L27 35L26 35L26 36L27 36L27 37L29 37L29 36L30 36L30 37L31 37L31 39L30 39L30 38L28 38L28 39L30 39L30 40L28 40L28 41L30 41L30 40L31 40L31 39L32 39L32 37L33 37L33 39L34 39L34 40L35 40L35 41L36 41L36 42L35 42L35 43L36 43L36 42L37 42L37 41L38 41L38 39L37 39L37 38L36 38L36 39L34 39L34 38L35 38L35 37L37 37L37 36L35 36L35 32L36 32L36 33L37 33L37 34L38 34L38 32L39 32L39 30L38 30L38 32L36 32L36 31L35 31L35 30L37 30L37 29L39 29L39 26ZM56 26L56 27L57 27L57 26ZM6 27L6 28L7 28L7 27ZM9 27L9 28L10 28L10 27ZM40 27L40 28L41 28L41 29L40 29L40 32L41 32L41 31L42 31L42 30L44 30L44 28L43 28L43 27L42 27L42 28L41 28L41 27ZM42 28L42 29L43 29L43 28ZM9 29L9 30L10 30L10 29ZM15 29L15 30L16 30L16 29ZM23 29L23 30L22 30L22 31L23 31L23 30L24 30L24 29ZM5 31L5 34L8 34L8 31ZM28 31L28 32L29 32L29 33L28 33L28 34L30 34L30 31ZM31 31L31 34L34 34L34 31ZM57 31L57 34L60 34L60 31ZM62 31L62 32L61 32L61 35L62 35L62 36L63 36L63 35L62 35L62 34L63 34L63 33L64 33L64 32L63 32L63 31ZM6 32L6 33L7 33L7 32ZM32 32L32 33L33 33L33 32ZM44 32L44 33L45 33L45 32ZM58 32L58 33L59 33L59 32ZM62 32L62 33L63 33L63 32ZM3 33L3 34L4 34L4 33ZM9 33L9 34L11 34L11 33ZM18 33L18 34L17 34L17 35L18 35L18 34L19 34L19 33ZM20 33L20 35L19 35L19 36L22 36L22 37L20 37L20 38L17 38L17 37L18 37L18 36L17 36L17 37L16 37L16 39L18 39L18 40L19 40L19 39L21 39L21 41L20 41L20 44L19 44L19 45L21 45L21 44L22 44L22 45L24 45L24 44L23 44L23 43L24 43L24 41L25 41L25 38L24 38L24 40L22 40L22 38L23 38L23 34L22 34L22 35L21 35L21 33ZM40 34L40 35L41 35L41 34ZM42 34L42 35L43 35L43 34ZM33 35L33 36L34 36L34 37L35 37L35 36L34 36L34 35ZM46 35L46 36L47 36L47 35ZM48 35L48 36L49 36L49 35ZM55 35L55 36L56 36L56 35ZM31 36L31 37L32 37L32 36ZM58 36L58 37L59 37L59 36ZM3 39L3 40L4 40L4 39ZM36 39L36 40L37 40L37 39ZM60 39L60 40L61 40L61 39ZM6 40L6 41L7 41L7 40ZM14 40L14 42L13 42L13 41L11 41L11 43L9 43L9 44L11 44L11 45L12 45L12 44L13 44L13 43L15 43L15 40ZM22 41L22 42L21 42L21 43L23 43L23 41ZM39 41L39 42L38 42L38 43L39 43L39 44L38 44L38 45L39 45L39 44L41 44L41 43L40 43L40 42L41 42L41 41ZM62 41L62 42L63 42L63 41ZM1 42L1 43L0 43L0 44L1 44L1 43L2 43L2 44L3 44L3 43L2 43L2 42ZM6 42L6 43L7 43L7 42ZM32 42L32 43L33 43L33 42ZM50 42L50 44L51 44L51 42ZM11 43L11 44L12 44L12 43ZM28 43L28 44L30 44L30 43ZM42 43L42 44L43 44L43 43ZM52 43L52 44L53 44L53 43ZM54 43L54 44L56 44L56 45L57 45L57 44L58 44L58 45L59 45L59 43L57 43L57 44L56 44L56 43ZM14 44L14 45L16 45L16 44ZM26 45L26 46L25 46L25 47L26 47L26 48L27 48L27 45ZM33 45L33 46L34 46L34 45ZM12 46L12 47L13 47L13 46ZM19 46L19 47L20 47L20 46ZM30 46L30 47L31 47L31 46ZM48 46L48 47L49 47L49 46ZM52 46L52 47L53 47L53 48L52 48L52 50L53 50L53 48L55 48L55 49L57 49L57 48L55 48L55 46L54 46L54 47L53 47L53 46ZM1 47L1 49L2 49L2 47ZM6 48L6 49L7 49L7 50L8 50L8 49L7 49L7 48ZM9 48L9 49L10 49L10 48ZM19 48L19 49L20 49L20 48ZM12 49L12 50L13 50L13 49ZM23 50L23 53L25 53L25 52L24 52L24 51L25 51L25 50ZM62 51L62 52L63 52L63 51ZM28 52L28 53L29 53L29 52ZM30 52L30 53L31 53L31 55L32 55L32 53L31 53L31 52ZM62 53L62 54L61 54L61 55L60 55L60 56L61 56L61 57L62 57L62 56L63 56L63 54L64 54L64 53ZM14 54L14 55L15 55L15 54ZM48 54L48 55L47 55L47 56L49 56L49 57L48 57L48 58L49 58L49 57L50 57L50 58L51 58L51 59L52 59L52 57L55 57L55 58L53 58L53 59L54 59L54 60L56 60L56 59L55 59L55 58L56 58L56 56L57 56L57 55L56 55L56 54L53 54L53 56L52 56L52 54L51 54L51 55L50 55L50 54ZM28 55L28 56L29 56L29 55ZM42 55L42 56L43 56L43 55ZM54 55L54 56L56 56L56 55ZM6 56L6 57L7 57L7 56ZM9 56L9 57L10 57L10 56ZM26 56L26 57L27 57L27 56ZM50 56L50 57L51 57L51 56ZM14 57L14 58L15 58L15 57ZM31 57L31 60L34 60L34 57ZM46 57L46 58L47 58L47 57ZM57 57L57 60L60 60L60 57ZM32 58L32 59L33 59L33 58ZM36 58L36 59L35 59L35 60L39 60L39 61L38 61L38 62L37 62L37 63L38 63L38 62L39 62L39 61L41 61L41 60L42 60L42 59L43 59L43 60L44 60L44 59L43 59L43 58L42 58L42 59L41 59L41 60L40 60L40 59L37 59L37 58ZM58 58L58 59L59 59L59 58ZM27 59L27 60L26 60L26 61L25 61L25 62L26 62L26 61L27 61L27 60L28 60L28 59ZM62 59L62 60L63 60L63 59ZM52 60L52 62L51 62L51 63L50 63L50 64L51 64L51 63L53 63L53 64L54 64L54 63L55 63L55 64L59 64L59 61L58 61L58 62L56 62L56 63L55 63L55 62L54 62L54 61L53 61L53 60ZM60 61L60 62L62 62L62 64L63 64L63 61ZM13 62L13 63L12 63L12 64L11 64L11 65L13 65L13 64L14 64L14 65L17 65L17 64L16 64L16 63L14 63L14 62ZM17 62L17 63L18 63L18 65L19 65L19 63L20 63L20 62L19 62L19 63L18 63L18 62ZM22 62L22 63L23 63L23 62ZM0 0L0 7L7 7L7 0ZM1 1L1 6L6 6L6 1ZM2 2L2 5L5 5L5 2ZM58 0L58 7L65 7L65 0ZM59 1L59 6L64 6L64 1ZM60 2L60 5L63 5L63 2ZM0 58L0 65L7 65L7 58ZM1 59L1 64L6 64L6 59ZM2 60L2 63L5 63L5 60Z" fill="#000000"/></g></g></svg>
