<?xml version="1.0" encoding="UTF-8"?>
<svg xmlns="http://www.w3.org/2000/svg" version="1.1" width="300" height="300" viewBox="0 0 300 300"><rect x="0" y="0" width="300" height="300" fill="#ffffff"/><g transform="scale(4.615)"><g transform="translate(0,0)"><path fill-rule="evenodd" d="M10 0L10 2L11 2L11 3L12 3L12 1L11 1L11 0ZM14 0L14 1L13 1L13 3L15 3L15 4L16 4L16 0ZM19 0L19 1L20 1L20 2L21 2L21 3L19 3L19 4L18 4L18 3L17 3L17 4L18 4L18 5L19 5L19 4L21 4L21 5L20 5L20 8L18 8L18 7L19 7L19 6L18 6L18 7L17 7L17 5L16 5L16 7L15 7L15 6L14 6L14 4L10 4L10 3L8 3L8 4L9 4L9 5L8 5L8 7L9 7L9 5L11 5L11 6L10 6L10 7L11 7L11 8L6 8L6 9L5 9L5 8L0 8L0 10L1 10L1 11L0 11L0 18L1 18L1 19L0 19L0 21L2 21L2 22L1 22L1 23L0 23L0 24L1 24L1 26L0 26L0 28L2 28L2 29L0 29L0 30L1 30L1 32L0 32L0 33L1 33L1 34L0 34L0 35L5 35L5 36L4 36L4 37L2 37L2 36L0 36L0 41L1 41L1 40L2 40L2 41L3 41L3 45L4 45L4 46L3 46L3 47L2 47L2 45L0 45L0 47L2 47L2 48L1 48L1 49L2 49L2 50L1 50L1 52L0 52L0 54L1 54L1 52L2 52L2 55L3 55L3 56L1 56L1 55L0 55L0 56L1 56L1 57L3 57L3 56L4 56L4 57L5 57L5 56L4 56L4 53L3 53L3 52L4 52L4 51L5 51L5 52L6 52L6 53L5 53L5 55L7 55L7 54L6 54L6 53L8 53L8 55L9 55L9 56L8 56L8 59L9 59L9 57L10 57L10 61L9 61L9 60L8 60L8 65L9 65L9 64L12 64L12 63L13 63L13 64L14 64L14 65L19 65L19 64L20 64L20 65L22 65L22 63L23 63L23 64L24 64L24 63L23 63L23 62L24 62L24 61L25 61L25 62L27 62L27 61L26 61L26 60L28 60L28 59L26 59L26 60L24 60L24 58L25 58L25 57L26 57L26 58L27 58L27 57L29 57L29 58L30 58L30 61L29 61L29 63L28 63L28 64L27 64L27 63L26 63L26 64L25 64L25 65L26 65L26 64L27 64L27 65L29 65L29 64L30 64L30 65L37 65L37 64L31 64L31 63L32 63L32 62L34 62L34 61L37 61L37 60L35 60L35 57L37 57L37 58L36 58L36 59L38 59L38 61L39 61L39 59L40 59L40 60L41 60L41 58L43 58L43 57L44 57L44 58L45 58L45 57L44 57L44 56L45 56L45 55L46 55L46 57L47 57L47 55L48 55L48 53L49 53L49 55L52 55L52 56L53 56L53 57L54 57L54 58L55 58L55 59L56 59L56 60L53 60L53 58L52 58L52 57L51 57L51 58L50 58L50 56L48 56L48 58L46 58L46 61L47 61L47 62L45 62L45 63L44 63L44 64L46 64L46 65L49 65L49 64L51 64L51 62L52 62L52 60L53 60L53 62L55 62L55 63L54 63L54 64L56 64L56 62L57 62L57 61L58 61L58 62L59 62L59 64L58 64L58 63L57 63L57 65L61 65L61 63L63 63L63 64L62 64L62 65L63 65L63 64L64 64L64 60L62 60L62 59L63 59L63 58L65 58L65 57L63 57L63 56L64 56L64 54L65 54L65 53L63 53L63 52L62 52L62 51L63 51L63 50L65 50L65 49L64 49L64 48L62 48L62 47L60 47L60 48L61 48L61 49L58 49L58 48L59 48L59 47L57 47L57 45L59 45L59 46L63 46L63 44L64 44L64 45L65 45L65 44L64 44L64 42L65 42L65 41L64 41L64 40L65 40L65 39L64 39L64 38L65 38L65 35L63 35L63 34L65 34L65 33L63 33L63 32L62 32L62 33L63 33L63 34L62 34L62 35L61 35L61 31L62 31L62 30L63 30L63 29L64 29L64 28L65 28L65 27L64 27L64 26L65 26L65 23L64 23L64 22L65 22L65 21L63 21L63 20L62 20L62 21L61 21L61 20L59 20L59 18L58 18L58 16L55 16L55 15L54 15L54 16L53 16L53 15L52 15L52 14L56 14L56 15L60 15L60 13L61 13L61 12L62 12L62 13L64 13L64 14L65 14L65 11L64 11L64 10L65 10L65 9L64 9L64 8L63 8L63 9L64 9L64 10L62 10L62 11L61 11L61 9L62 9L62 8L61 8L61 9L60 9L60 8L59 8L59 10L58 10L58 11L57 11L57 10L56 10L56 12L55 12L55 11L54 11L54 12L53 12L53 11L52 11L52 10L55 10L55 9L58 9L58 8L55 8L55 5L54 5L54 4L56 4L56 5L57 5L57 4L56 4L56 3L57 3L57 1L56 1L56 0L55 0L55 1L56 1L56 3L55 3L55 2L54 2L54 3L53 3L53 2L52 2L52 3L48 3L48 1L46 1L46 0L44 0L44 1L45 1L45 2L42 2L42 3L43 3L43 4L42 4L42 5L43 5L43 4L44 4L44 5L45 5L45 6L44 6L44 8L45 8L45 9L44 9L44 11L43 11L43 12L42 12L42 11L41 11L41 10L43 10L43 9L41 9L41 10L40 10L40 9L39 9L39 6L40 6L40 8L41 8L41 5L38 5L38 8L36 8L36 10L34 10L34 9L35 9L35 6L36 6L36 7L37 7L37 5L36 5L36 4L37 4L37 3L35 3L35 4L34 4L34 2L35 2L35 1L34 1L34 2L32 2L32 3L31 3L31 4L30 4L30 2L29 2L29 1L33 1L33 0L29 0L29 1L28 1L28 0L26 0L26 1L25 1L25 0L24 0L24 1L25 1L25 2L24 2L24 3L23 3L23 0L22 0L22 2L21 2L21 1L20 1L20 0ZM39 0L39 1L38 1L38 4L39 4L39 3L41 3L41 1L43 1L43 0L41 0L41 1L40 1L40 0ZM51 0L51 1L50 1L50 2L51 2L51 1L52 1L52 0ZM53 0L53 1L54 1L54 0ZM8 1L8 2L9 2L9 1ZM14 1L14 2L15 2L15 1ZM17 1L17 2L18 2L18 1ZM27 1L27 2L28 2L28 1ZM36 1L36 2L37 2L37 1ZM39 1L39 2L40 2L40 1ZM25 2L25 3L24 3L24 4L25 4L25 5L23 5L23 4L22 4L22 3L21 3L21 4L22 4L22 5L23 5L23 8L22 8L22 9L23 9L23 10L22 10L22 11L21 11L21 9L20 9L20 10L19 10L19 9L18 9L18 8L17 8L17 7L16 7L16 9L15 9L15 7L14 7L14 6L13 6L13 5L12 5L12 6L11 6L11 7L12 7L12 6L13 6L13 7L14 7L14 8L11 8L11 9L12 9L12 11L9 11L9 12L12 12L12 13L13 13L13 16L14 16L14 18L15 18L15 21L14 21L14 20L13 20L13 17L12 17L12 15L11 15L11 16L10 16L10 15L9 15L9 14L8 14L8 12L7 12L7 11L8 11L8 10L9 10L9 9L8 9L8 10L7 10L7 9L6 9L6 10L4 10L4 9L3 9L3 11L2 11L2 12L1 12L1 14L2 14L2 12L3 12L3 13L4 13L4 14L3 14L3 16L4 16L4 17L2 17L2 16L1 16L1 17L2 17L2 18L3 18L3 19L4 19L4 20L3 20L3 21L4 21L4 22L3 22L3 24L2 24L2 23L1 23L1 24L2 24L2 26L1 26L1 27L2 27L2 28L3 28L3 27L2 27L2 26L3 26L3 24L4 24L4 26L5 26L5 23L4 23L4 22L5 22L5 21L4 21L4 20L5 20L5 19L6 19L6 20L8 20L8 21L10 21L10 22L9 22L9 23L8 23L8 22L7 22L7 21L6 21L6 22L7 22L7 23L6 23L6 24L8 24L8 25L6 25L6 26L8 26L8 27L4 27L4 28L8 28L8 29L4 29L4 30L3 30L3 29L2 29L2 32L1 32L1 33L2 33L2 34L4 34L4 32L3 32L3 31L4 31L4 30L10 30L10 31L9 31L9 32L11 32L11 33L10 33L10 34L9 34L9 35L10 35L10 34L11 34L11 36L10 36L10 37L6 37L6 36L8 36L8 35L6 35L6 36L5 36L5 37L4 37L4 39L3 39L3 38L2 38L2 39L3 39L3 41L4 41L4 45L5 45L5 46L4 46L4 49L3 49L3 50L2 50L2 51L4 51L4 49L5 49L5 50L8 50L8 48L9 48L9 51L8 51L8 53L9 53L9 52L10 52L10 53L13 53L13 54L15 54L15 55L14 55L14 57L13 57L13 56L12 56L12 57L11 57L11 56L10 56L10 57L11 57L11 59L13 59L13 61L14 61L14 62L16 62L16 61L17 61L17 64L19 64L19 63L20 63L20 62L19 62L19 61L24 61L24 60L23 60L23 59L21 59L21 58L22 58L22 57L23 57L23 55L21 55L21 54L24 54L24 53L26 53L26 55L27 55L27 50L30 50L30 52L29 52L29 51L28 51L28 52L29 52L29 53L28 53L28 54L30 54L30 55L29 55L29 57L30 57L30 55L33 55L33 53L34 53L34 55L35 55L35 56L37 56L37 54L35 54L35 53L36 53L36 52L37 52L37 51L35 51L35 50L36 50L36 48L37 48L37 47L35 47L35 45L34 45L34 44L33 44L33 45L32 45L32 46L34 46L34 47L35 47L35 48L33 48L33 47L31 47L31 45L29 45L29 44L30 44L30 43L29 43L29 42L30 42L30 41L31 41L31 42L33 42L33 43L35 43L35 44L37 44L37 46L39 46L39 45L41 45L41 46L40 46L40 47L39 47L39 48L40 48L40 49L41 49L41 51L46 51L46 50L47 50L47 48L49 48L49 49L50 49L50 50L49 50L49 51L48 51L48 52L49 52L49 53L50 53L50 54L52 54L52 55L54 55L54 56L55 56L55 58L56 58L56 56L57 56L57 55L56 55L56 54L57 54L57 52L58 52L58 51L59 51L59 50L58 50L58 51L57 51L57 50L56 50L56 49L57 49L57 48L55 48L55 46L56 46L56 45L57 45L57 44L58 44L58 43L59 43L59 44L60 44L60 45L62 45L62 44L63 44L63 42L57 42L57 41L56 41L56 40L58 40L58 41L62 41L62 40L63 40L63 38L64 38L64 36L63 36L63 35L62 35L62 36L63 36L63 38L60 38L60 40L58 40L58 39L59 39L59 38L58 38L58 39L57 39L57 38L56 38L56 36L55 36L55 35L56 35L56 34L54 34L54 33L53 33L53 32L54 32L54 31L55 31L55 30L57 30L57 29L56 29L56 28L58 28L58 30L60 30L60 29L59 29L59 28L61 28L61 29L62 29L62 28L63 28L63 26L64 26L64 25L62 25L62 24L63 24L63 21L62 21L62 22L59 22L59 20L58 20L58 19L57 19L57 17L56 17L56 18L54 18L54 17L53 17L53 16L51 16L51 15L50 15L50 14L51 14L51 13L53 13L53 12L52 12L52 11L51 11L51 12L50 12L50 11L48 11L48 12L49 12L49 13L46 13L46 14L47 14L47 15L46 15L46 16L49 16L49 17L48 17L48 19L46 19L46 18L47 18L47 17L45 17L45 16L44 16L44 19L43 19L43 18L40 18L40 19L42 19L42 20L39 20L39 19L37 19L37 17L38 17L38 18L39 18L39 17L38 17L38 16L39 16L39 15L38 15L38 14L39 14L39 12L40 12L40 13L41 13L41 14L40 14L40 15L41 15L41 16L40 16L40 17L41 17L41 16L43 16L43 15L44 15L44 13L45 13L45 12L43 12L43 14L42 14L42 13L41 13L41 12L40 12L40 10L39 10L39 9L37 9L37 10L36 10L36 12L38 12L38 14L37 14L37 13L36 13L36 15L35 15L35 17L34 17L34 14L35 14L35 13L34 13L34 14L32 14L32 13L33 13L33 12L32 12L32 10L33 10L33 9L32 9L32 10L31 10L31 9L30 9L30 10L29 10L29 9L28 9L28 8L29 8L29 7L30 7L30 6L29 6L29 7L28 7L28 6L27 6L27 5L30 5L30 4L25 4L25 3L26 3L26 2ZM46 2L46 3L44 3L44 4L45 4L45 5L47 5L47 8L46 8L46 6L45 6L45 8L46 8L46 10L47 10L47 9L48 9L48 8L49 8L49 7L50 7L50 10L52 10L52 9L53 9L53 8L54 8L54 9L55 9L55 8L54 8L54 6L53 6L53 8L51 8L51 7L52 7L52 6L51 6L51 7L50 7L50 5L51 5L51 4L50 4L50 5L49 5L49 4L48 4L48 3L47 3L47 2ZM32 3L32 4L33 4L33 3ZM46 3L46 4L47 4L47 3ZM52 3L52 4L53 4L53 3ZM31 5L31 8L34 8L34 5ZM48 5L48 7L49 7L49 5ZM21 6L21 7L22 7L22 6ZM24 6L24 8L23 8L23 9L24 9L24 10L25 10L25 9L24 9L24 8L28 8L28 7L27 7L27 6L26 6L26 7L25 7L25 6ZM32 6L32 7L33 7L33 6ZM42 6L42 8L43 8L43 6ZM56 6L56 7L57 7L57 6ZM1 9L1 10L2 10L2 9ZM14 9L14 11L12 11L12 12L14 12L14 13L15 13L15 14L14 14L14 16L15 16L15 18L17 18L17 16L16 16L16 15L18 15L18 17L19 17L19 18L18 18L18 19L16 19L16 20L18 20L18 21L17 21L17 22L18 22L18 23L19 23L19 21L22 21L22 20L21 20L21 19L22 19L22 18L23 18L23 17L22 17L22 16L23 16L23 15L24 15L24 16L25 16L25 17L24 17L24 19L23 19L23 20L24 20L24 19L25 19L25 20L26 20L26 19L25 19L25 18L27 18L27 19L28 19L28 21L30 21L30 22L31 22L31 21L32 21L32 22L33 22L33 21L34 21L34 19L35 19L35 21L37 21L37 22L36 22L36 23L37 23L37 22L38 22L38 23L39 23L39 24L38 24L38 25L37 25L37 24L34 24L34 23L35 23L35 22L34 22L34 23L32 23L32 24L31 24L31 23L29 23L29 22L26 22L26 21L24 21L24 22L23 22L23 23L22 23L22 22L20 22L20 23L21 23L21 24L20 24L20 25L21 25L21 26L23 26L23 25L21 25L21 24L23 24L23 23L24 23L24 22L25 22L25 23L27 23L27 24L28 24L28 25L26 25L26 26L27 26L27 27L25 27L25 25L24 25L24 27L23 27L23 28L24 28L24 29L22 29L22 30L21 30L21 29L19 29L19 28L21 28L21 27L20 27L20 26L19 26L19 27L18 27L18 25L19 25L19 24L16 24L16 23L15 23L15 22L16 22L16 21L15 21L15 22L13 22L13 21L12 21L12 20L11 20L11 21L12 21L12 22L10 22L10 23L9 23L9 25L8 25L8 26L9 26L9 29L11 29L11 30L14 30L14 29L16 29L16 30L15 30L15 31L16 31L16 32L14 32L14 31L11 31L11 32L12 32L12 33L11 33L11 34L12 34L12 33L13 33L13 32L14 32L14 35L15 35L15 33L17 33L17 35L16 35L16 36L15 36L15 37L14 37L14 38L13 38L13 36L11 36L11 37L12 37L12 38L11 38L11 39L12 39L12 38L13 38L13 39L14 39L14 38L15 38L15 41L19 41L19 42L18 42L18 43L19 43L19 42L20 42L20 43L21 43L21 44L23 44L23 45L21 45L21 48L18 48L18 49L19 49L19 50L18 50L18 51L15 51L15 52L16 52L16 53L17 53L17 54L16 54L16 56L15 56L15 57L17 57L17 58L15 58L15 61L16 61L16 59L17 59L17 61L19 61L19 60L18 60L18 59L19 59L19 58L18 58L18 57L19 57L19 55L20 55L20 53L22 53L22 52L20 52L20 53L19 53L19 50L20 50L20 51L22 51L22 50L23 50L23 51L25 51L25 52L26 52L26 51L25 51L25 50L27 50L27 49L26 49L26 46L28 46L28 44L29 44L29 43L28 43L28 41L29 41L29 40L28 40L28 39L30 39L30 40L31 40L31 39L30 39L30 38L32 38L32 39L33 39L33 40L32 40L32 41L33 41L33 42L38 42L38 43L39 43L39 44L38 44L38 45L39 45L39 44L41 44L41 45L42 45L42 46L43 46L43 48L42 48L42 47L40 47L40 48L42 48L42 50L43 50L43 49L44 49L44 50L45 50L45 49L46 49L46 48L47 48L47 47L48 47L48 46L49 46L49 47L51 47L51 48L50 48L50 49L51 49L51 48L54 48L54 50L55 50L55 51L54 51L54 52L57 52L57 51L56 51L56 50L55 50L55 48L54 48L54 47L52 47L52 46L55 46L55 45L52 45L52 44L53 44L53 43L54 43L54 44L56 44L56 43L54 43L54 42L55 42L55 41L52 41L52 40L53 40L53 39L54 39L54 40L56 40L56 39L54 39L54 38L55 38L55 37L54 37L54 35L53 35L53 33L52 33L52 35L51 35L51 34L50 34L50 35L49 35L49 36L46 36L46 35L48 35L48 34L49 34L49 32L47 32L47 30L48 30L48 29L49 29L49 28L51 28L51 30L50 30L50 33L51 33L51 31L52 31L52 32L53 32L53 31L54 31L54 30L55 30L55 27L52 27L52 26L53 26L53 25L54 25L54 26L55 26L55 25L59 25L59 26L56 26L56 27L58 27L58 28L59 28L59 26L60 26L60 27L61 27L61 28L62 28L62 26L60 26L60 25L61 25L61 24L58 24L58 23L59 23L59 22L58 22L58 20L57 20L57 19L54 19L54 18L53 18L53 17L51 17L51 16L50 16L50 17L51 17L51 18L49 18L49 19L52 19L52 20L51 20L51 22L50 22L50 20L48 20L48 22L46 22L46 23L44 23L44 21L43 21L43 20L42 20L42 22L43 22L43 24L45 24L45 25L44 25L44 26L45 26L45 25L47 25L47 24L48 24L48 25L49 25L49 26L50 26L50 27L49 27L49 28L48 28L48 29L47 29L47 28L46 28L46 27L47 27L47 26L46 26L46 27L43 27L43 28L42 28L42 27L41 27L41 26L43 26L43 25L41 25L41 26L40 26L40 27L39 27L39 26L38 26L38 25L40 25L40 24L42 24L42 23L40 23L40 22L41 22L41 21L39 21L39 20L38 20L38 21L37 21L37 20L36 20L36 19L35 19L35 18L34 18L34 19L32 19L32 18L33 18L33 17L32 17L32 16L33 16L33 15L32 15L32 16L31 16L31 15L30 15L30 14L31 14L31 13L32 13L32 12L31 12L31 11L29 11L29 10L28 10L28 9L26 9L26 11L24 11L24 12L23 12L23 11L22 11L22 12L23 12L23 13L21 13L21 16L19 16L19 15L20 15L20 14L17 14L17 12L18 12L18 13L20 13L20 12L21 12L21 11L19 11L19 10L17 10L17 9L16 9L16 10L15 10L15 9ZM6 10L6 11L3 11L3 12L6 12L6 13L7 13L7 12L6 12L6 11L7 11L7 10ZM16 10L16 11L15 11L15 12L16 12L16 11L17 11L17 10ZM38 10L38 11L39 11L39 10ZM18 11L18 12L19 12L19 11ZM26 11L26 13L25 13L25 16L26 16L26 17L27 17L27 18L28 18L28 19L29 19L29 17L31 17L31 16L29 16L29 14L30 14L30 13L31 13L31 12L27 12L27 11ZM34 11L34 12L35 12L35 11ZM58 11L58 12L57 12L57 13L56 13L56 14L59 14L59 12L61 12L61 11ZM62 11L62 12L63 12L63 11ZM54 12L54 13L55 13L55 12ZM10 13L10 14L11 14L11 13ZM23 13L23 14L24 14L24 13ZM26 13L26 14L28 14L28 13ZM4 14L4 16L5 16L5 17L7 17L7 16L5 16L5 15L8 15L8 17L9 17L9 18L8 18L8 19L9 19L9 18L11 18L11 17L10 17L10 16L9 16L9 15L8 15L8 14ZM48 14L48 15L49 15L49 14ZM62 14L62 15L61 15L61 16L59 16L59 17L62 17L62 18L60 18L60 19L64 19L64 18L65 18L65 15L64 15L64 16L62 16L62 15L63 15L63 14ZM26 15L26 16L28 16L28 17L29 17L29 16L28 16L28 15ZM36 16L36 17L37 17L37 16ZM20 17L20 18L22 18L22 17ZM4 18L4 19L5 19L5 18ZM6 18L6 19L7 19L7 18ZM52 18L52 19L53 19L53 18ZM44 19L44 20L45 20L45 19ZM30 20L30 21L31 21L31 20ZM32 20L32 21L33 21L33 20ZM52 20L52 21L53 21L53 20ZM54 20L54 21L55 21L55 22L52 22L52 23L50 23L50 22L49 22L49 23L48 23L48 24L49 24L49 25L50 25L50 26L51 26L51 25L53 25L53 24L52 24L52 23L57 23L57 21L56 21L56 20ZM38 21L38 22L39 22L39 21ZM13 23L13 24L12 24L12 25L11 25L11 24L10 24L10 25L9 25L9 26L10 26L10 27L11 27L11 26L13 26L13 24L14 24L14 23ZM28 23L28 24L29 24L29 25L28 25L28 26L32 26L32 27L31 27L31 28L29 28L29 27L28 27L28 29L27 29L27 28L26 28L26 29L24 29L24 30L22 30L22 31L21 31L21 32L22 32L22 33L20 33L20 32L19 32L19 31L20 31L20 30L19 30L19 29L18 29L18 27L17 27L17 25L16 25L16 24L15 24L15 25L14 25L14 26L15 26L15 28L16 28L16 29L17 29L17 33L18 33L18 35L17 35L17 36L18 36L18 37L15 37L15 38L17 38L17 39L16 39L16 40L17 40L17 39L18 39L18 40L19 40L19 39L21 39L21 37L22 37L22 38L23 38L23 39L22 39L22 40L21 40L21 41L20 41L20 42L21 42L21 41L25 41L25 40L26 40L26 41L27 41L27 40L26 40L26 39L27 39L27 38L30 38L30 37L25 37L25 36L26 36L26 35L25 35L25 36L24 36L24 35L23 35L23 36L24 36L24 37L25 37L25 39L24 39L24 38L23 38L23 37L22 37L22 36L21 36L21 35L22 35L22 33L25 33L25 34L26 34L26 33L27 33L27 32L28 32L28 31L27 31L27 30L28 30L28 29L31 29L31 30L32 30L32 29L33 29L33 28L32 28L32 27L34 27L34 26L35 26L35 28L37 28L37 30L36 30L36 29L34 29L34 30L36 30L36 32L35 32L35 36L34 36L34 35L33 35L33 36L34 36L34 37L35 37L35 38L33 38L33 37L32 37L32 38L33 38L33 39L35 39L35 40L34 40L34 41L35 41L35 40L39 40L39 41L38 41L38 42L39 42L39 41L41 41L41 40L40 40L40 39L41 39L41 37L43 37L43 38L42 38L42 39L43 39L43 42L40 42L40 43L41 43L41 44L42 44L42 45L43 45L43 46L48 46L48 45L46 45L46 44L47 44L47 43L48 43L48 44L49 44L49 45L50 45L50 46L51 46L51 45L50 45L50 44L52 44L52 43L50 43L50 42L52 42L52 41L51 41L51 40L50 40L50 38L51 38L51 39L52 39L52 38L53 38L53 36L52 36L52 38L51 38L51 35L50 35L50 36L49 36L49 37L45 37L45 36L44 36L44 35L45 35L45 34L41 34L41 32L42 32L42 31L43 31L43 32L44 32L44 33L46 33L46 34L47 34L47 32L46 32L46 30L47 30L47 29L45 29L45 28L43 28L43 30L42 30L42 31L41 31L41 29L42 29L42 28L40 28L40 30L39 30L39 28L37 28L37 27L36 27L36 26L35 26L35 25L33 25L33 24L32 24L32 25L31 25L31 24L29 24L29 23ZM46 23L46 24L47 24L47 23ZM50 24L50 25L51 25L51 24ZM10 25L10 26L11 26L11 25ZM16 27L16 28L17 28L17 27ZM11 28L11 29L12 29L12 28ZM13 28L13 29L14 29L14 28ZM52 28L52 29L53 29L53 28ZM26 29L26 30L27 30L27 29ZM44 29L44 30L45 30L45 29ZM18 30L18 31L19 31L19 30ZM29 30L29 31L30 31L30 30ZM38 30L38 31L37 31L37 32L36 32L36 33L37 33L37 34L36 34L36 35L37 35L37 36L36 36L36 38L35 38L35 39L36 39L36 38L38 38L38 39L39 39L39 38L38 38L38 37L37 37L37 36L38 36L38 35L40 35L40 36L41 36L41 35L40 35L40 34L38 34L38 33L40 33L40 32L41 32L41 31L40 31L40 32L38 32L38 31L39 31L39 30ZM5 31L5 34L8 34L8 31ZM23 31L23 32L24 32L24 31ZM25 31L25 33L26 33L26 32L27 32L27 31ZM31 31L31 34L34 34L34 31ZM44 31L44 32L45 32L45 31ZM57 31L57 34L60 34L60 31ZM6 32L6 33L7 33L7 32ZM18 32L18 33L19 33L19 36L20 36L20 37L21 37L21 36L20 36L20 35L21 35L21 34L20 34L20 33L19 33L19 32ZM29 32L29 33L28 33L28 34L27 34L27 36L28 36L28 35L29 35L29 36L30 36L30 35L29 35L29 34L30 34L30 32ZM32 32L32 33L33 33L33 32ZM55 32L55 33L56 33L56 32ZM58 32L58 33L59 33L59 32ZM37 34L37 35L38 35L38 34ZM31 35L31 36L32 36L32 35ZM42 35L42 36L43 36L43 37L44 37L44 38L43 38L43 39L44 39L44 40L45 40L45 39L47 39L47 40L46 40L46 41L47 41L47 40L48 40L48 41L49 41L49 42L48 42L48 43L49 43L49 42L50 42L50 40L48 40L48 39L49 39L49 38L48 38L48 39L47 39L47 38L45 38L45 37L44 37L44 36L43 36L43 35ZM59 35L59 36L58 36L58 37L59 37L59 36L60 36L60 37L61 37L61 35ZM18 37L18 39L19 39L19 37ZM5 38L5 39L4 39L4 41L5 41L5 43L7 43L7 42L6 42L6 41L7 41L7 40L8 40L8 42L9 42L9 43L10 43L10 46L9 46L9 44L8 44L8 45L7 45L7 44L5 44L5 45L7 45L7 46L5 46L5 48L6 48L6 49L7 49L7 48L6 48L6 47L8 47L8 46L9 46L9 48L10 48L10 51L11 51L11 52L13 52L13 51L14 51L14 50L15 50L15 49L17 49L17 48L16 48L16 47L15 47L15 49L14 49L14 50L13 50L13 48L12 48L12 45L11 45L11 44L13 44L13 45L14 45L14 46L13 46L13 47L14 47L14 46L16 46L16 45L14 45L14 44L17 44L17 46L18 46L18 45L20 45L20 44L17 44L17 43L15 43L15 42L14 42L14 40L10 40L10 41L11 41L11 43L10 43L10 42L9 42L9 39L7 39L7 38ZM44 38L44 39L45 39L45 38ZM6 39L6 40L5 40L5 41L6 41L6 40L7 40L7 39ZM23 39L23 40L24 40L24 39ZM22 42L22 43L23 43L23 44L24 44L24 43L26 43L26 42ZM43 42L43 43L44 43L44 44L46 44L46 43L47 43L47 42L45 42L45 43L44 43L44 42ZM0 43L0 44L1 44L1 43ZM13 43L13 44L14 44L14 43ZM27 43L27 44L25 44L25 46L26 46L26 45L27 45L27 44L28 44L28 43ZM31 43L31 44L32 44L32 43ZM60 43L60 44L62 44L62 43ZM23 45L23 46L22 46L22 49L25 49L25 48L24 48L24 47L23 47L23 46L24 46L24 45ZM19 46L19 47L20 47L20 46ZM29 46L29 47L28 47L28 49L30 49L30 50L31 50L31 49L33 49L33 50L32 50L32 51L33 51L33 52L32 52L32 53L33 53L33 52L35 52L35 51L34 51L34 50L35 50L35 49L33 49L33 48L31 48L31 47L30 47L30 46ZM29 47L29 48L30 48L30 47ZM45 47L45 48L44 48L44 49L45 49L45 48L46 48L46 47ZM20 49L20 50L21 50L21 49ZM38 49L38 50L39 50L39 49ZM52 49L52 50L53 50L53 49ZM61 49L61 50L60 50L60 52L59 52L59 53L61 53L61 54L60 54L60 55L62 55L62 56L63 56L63 55L62 55L62 54L63 54L63 53L62 53L62 52L61 52L61 50L63 50L63 49ZM11 50L11 51L13 51L13 50ZM50 50L50 51L51 51L51 52L50 52L50 53L51 53L51 52L53 52L53 51L51 51L51 50ZM6 51L6 52L7 52L7 51ZM38 51L38 54L40 54L40 55L41 55L41 56L40 56L40 57L39 57L39 55L38 55L38 58L40 58L40 57L41 57L41 56L42 56L42 57L43 57L43 56L44 56L44 55L43 55L43 54L47 54L47 52L44 52L44 53L43 53L43 52L42 52L42 53L43 53L43 54L40 54L40 53L41 53L41 52L39 52L39 51ZM17 52L17 53L18 53L18 52ZM30 52L30 53L31 53L31 52ZM53 53L53 54L56 54L56 53ZM10 54L10 55L11 55L11 54ZM58 54L58 55L59 55L59 54ZM24 55L24 57L25 57L25 55ZM42 55L42 56L43 56L43 55ZM55 55L55 56L56 56L56 55ZM6 56L6 57L7 57L7 56ZM20 56L20 57L21 57L21 56ZM26 56L26 57L27 57L27 56ZM12 57L12 58L13 58L13 57ZM31 57L31 60L34 60L34 57ZM57 57L57 60L60 60L60 57ZM61 57L61 58L63 58L63 57ZM32 58L32 59L33 59L33 58ZM48 58L48 59L47 59L47 61L48 61L48 60L49 60L49 59L50 59L50 60L51 60L51 59L52 59L52 58L51 58L51 59L50 59L50 58ZM58 58L58 59L59 59L59 58ZM42 59L42 60L43 60L43 61L40 61L40 64L38 64L38 65L40 65L40 64L41 64L41 63L42 63L42 64L43 64L43 63L42 63L42 62L44 62L44 60L45 60L45 59L44 59L44 60L43 60L43 59ZM11 60L11 61L12 61L12 60ZM61 60L61 61L60 61L60 62L62 62L62 60ZM30 61L30 62L31 62L31 61ZM50 61L50 62L48 62L48 63L47 63L47 64L49 64L49 63L50 63L50 62L51 62L51 61ZM55 61L55 62L56 62L56 61ZM9 62L9 63L12 63L12 62ZM18 62L18 63L19 63L19 62ZM21 62L21 63L22 63L22 62ZM35 62L35 63L39 63L39 62ZM14 63L14 64L16 64L16 63ZM52 63L52 64L53 64L53 63ZM0 0L0 7L7 7L7 0ZM1 1L1 6L6 6L6 1ZM2 2L2 5L5 5L5 2ZM58 0L58 7L65 7L65 0ZM59 1L59 6L64 6L64 1ZM60 2L60 5L63 5L63 2ZM0 58L0 65L7 65L7 58ZM1 59L1 64L6 64L6 59ZM2 60L2 63L5 63L5 60Z" fill="#000000"/></g></g></svg>
