<?xml version="1.0" encoding="UTF-8"?>
<svg xmlns="http://www.w3.org/2000/svg" version="1.1" width="300" height="300" viewBox="0 0 300 300"><rect x="0" y="0" width="300" height="300" fill="#ffffff"/><g transform="scale(4.615)"><g transform="translate(0,0)"><path fill-rule="evenodd" d="M13 0L13 1L11 1L11 2L13 2L13 1L14 1L14 2L15 2L15 0ZM22 0L22 1L21 1L21 2L19 2L19 1L18 1L18 2L17 2L17 3L18 3L18 4L17 4L17 6L16 6L16 5L15 5L15 3L14 3L14 7L15 7L15 9L16 9L16 10L17 10L17 8L16 8L16 7L17 7L17 6L18 6L18 9L19 9L19 10L18 10L18 11L19 11L19 10L20 10L20 11L21 11L21 13L19 13L19 12L17 12L17 13L16 13L16 14L15 14L15 13L14 13L14 11L15 11L15 12L16 12L16 11L15 11L15 10L14 10L14 9L13 9L13 8L11 8L11 9L10 9L10 10L11 10L11 12L10 12L10 11L9 11L9 8L10 8L10 7L11 7L11 6L10 6L10 5L8 5L8 7L9 7L9 8L6 8L6 9L5 9L5 8L0 8L0 11L1 11L1 12L2 12L2 13L0 13L0 15L1 15L1 14L2 14L2 15L3 15L3 14L4 14L4 16L5 16L5 17L4 17L4 18L5 18L5 19L4 19L4 20L3 20L3 18L0 18L0 22L1 22L1 23L0 23L0 26L1 26L1 25L4 25L4 26L6 26L6 27L4 27L4 28L3 28L3 26L2 26L2 27L1 27L1 28L0 28L0 29L1 29L1 30L2 30L2 32L1 32L1 33L2 33L2 34L0 34L0 35L3 35L3 32L4 32L4 37L3 37L3 36L2 36L2 37L3 37L3 39L4 39L4 40L2 40L2 41L3 41L3 42L2 42L2 44L4 44L4 45L5 45L5 44L6 44L6 45L8 45L8 48L6 48L6 47L7 47L7 46L4 46L4 47L3 47L3 45L1 45L1 43L0 43L0 45L1 45L1 46L0 46L0 48L1 48L1 46L2 46L2 47L3 47L3 48L5 48L5 49L4 49L4 50L5 50L5 51L7 51L7 52L4 52L4 53L3 53L3 54L2 54L2 53L0 53L0 54L2 54L2 55L3 55L3 56L1 56L1 55L0 55L0 56L1 56L1 57L3 57L3 56L4 56L4 57L5 57L5 56L4 56L4 53L5 53L5 55L7 55L7 56L6 56L6 57L8 57L8 59L9 59L9 60L8 60L8 65L9 65L9 63L10 63L10 65L14 65L14 63L15 63L15 65L17 65L17 64L16 64L16 63L15 63L15 62L16 62L16 61L15 61L15 60L17 60L17 59L18 59L18 61L20 61L20 60L19 60L19 59L18 59L18 57L19 57L19 58L20 58L20 59L21 59L21 60L22 60L22 59L23 59L23 61L22 61L22 62L23 62L23 63L24 63L24 64L23 64L23 65L24 65L24 64L25 64L25 65L26 65L26 64L27 64L27 65L32 65L32 63L31 63L31 62L30 62L30 63L31 63L31 64L27 64L27 61L29 61L29 60L27 60L27 59L26 59L26 60L24 60L24 59L25 59L25 57L24 57L24 59L23 59L23 57L22 57L22 56L28 56L28 57L30 57L30 61L32 61L32 62L33 62L33 61L34 61L34 63L35 63L35 64L34 64L34 65L35 65L35 64L36 64L36 65L37 65L37 64L36 64L36 63L35 63L35 59L36 59L36 58L37 58L37 59L39 59L39 60L38 60L38 61L37 61L37 60L36 60L36 61L37 61L37 63L39 63L39 64L38 64L38 65L40 65L40 64L41 64L41 65L42 65L42 64L41 64L41 63L40 63L40 62L45 62L45 63L44 63L44 64L43 64L43 65L44 65L44 64L46 64L46 65L49 65L49 64L48 64L48 63L49 63L49 62L48 62L48 63L47 63L47 62L45 62L45 61L49 61L49 60L51 60L51 62L50 62L50 63L51 63L51 64L50 64L50 65L51 65L51 64L53 64L53 65L63 65L63 64L64 64L64 60L65 60L65 59L64 59L64 60L62 60L62 61L63 61L63 62L60 62L60 61L61 61L61 58L62 58L62 57L63 57L63 58L65 58L65 57L63 57L63 56L59 56L59 55L58 55L58 56L56 56L56 55L57 55L57 54L56 54L56 53L52 53L52 52L53 52L53 51L52 51L52 50L50 50L50 51L49 51L49 50L48 50L48 49L49 49L49 48L53 48L53 47L52 47L52 46L53 46L53 45L54 45L54 46L55 46L55 47L54 47L54 48L57 48L57 49L56 49L56 50L55 50L55 49L53 49L53 50L55 50L55 51L54 51L54 52L57 52L57 51L58 51L58 54L59 54L59 53L60 53L60 54L61 54L61 53L60 53L60 52L62 52L62 53L63 53L63 54L62 54L62 55L64 55L64 56L65 56L65 55L64 55L64 54L65 54L65 51L64 51L64 53L63 53L63 52L62 52L62 51L63 51L63 50L61 50L61 49L64 49L64 50L65 50L65 49L64 49L64 48L62 48L62 47L63 47L63 46L62 46L62 47L61 47L61 45L58 45L58 44L59 44L59 43L57 43L57 42L58 42L58 41L59 41L59 42L61 42L61 41L59 41L59 40L61 40L61 38L63 38L63 40L62 40L62 41L63 41L63 40L64 40L64 42L65 42L65 40L64 40L64 38L65 38L65 37L64 37L64 36L65 36L65 35L63 35L63 34L65 34L65 31L63 31L63 29L64 29L64 28L65 28L65 27L63 27L63 26L65 26L65 25L64 25L64 24L65 24L65 23L63 23L63 24L62 24L62 22L61 22L61 20L59 20L59 22L58 22L58 23L59 23L59 22L61 22L61 24L59 24L59 26L58 26L58 25L57 25L57 23L54 23L54 24L56 24L56 25L57 25L57 26L55 26L55 25L53 25L53 26L52 26L52 27L51 27L51 26L50 26L50 25L52 25L52 24L53 24L53 23L52 23L52 22L55 22L55 21L54 21L54 20L55 20L55 19L52 19L52 18L55 18L55 17L59 17L59 16L58 16L58 15L59 15L59 14L57 14L57 16L56 16L56 15L54 15L54 16L53 16L53 15L52 15L52 14L53 14L53 13L54 13L54 14L56 14L56 13L57 13L57 12L58 12L58 11L60 11L60 10L56 10L56 9L58 9L58 8L55 8L55 9L54 9L54 10L56 10L56 11L57 11L57 12L56 12L56 13L55 13L55 11L53 11L53 10L52 10L52 9L51 9L51 5L50 5L50 4L49 4L49 3L50 3L50 2L52 2L52 3L53 3L53 6L52 6L52 8L53 8L53 6L54 6L54 7L55 7L55 5L54 5L54 4L56 4L56 5L57 5L57 4L56 4L56 3L57 3L57 1L56 1L56 0L55 0L55 1L56 1L56 3L55 3L55 2L54 2L54 3L53 3L53 1L54 1L54 0L51 0L51 1L49 1L49 0L48 0L48 1L46 1L46 0L45 0L45 2L44 2L44 1L43 1L43 0L42 0L42 1L43 1L43 2L42 2L42 3L41 3L41 2L40 2L40 1L41 1L41 0L39 0L39 1L38 1L38 0L36 0L36 1L34 1L34 0L33 0L33 1L31 1L31 0L29 0L29 1L27 1L27 0L26 0L26 1L27 1L27 2L26 2L26 3L25 3L25 4L24 4L24 2L25 2L25 0ZM8 1L8 2L10 2L10 1ZM22 1L22 2L21 2L21 3L22 3L22 4L20 4L20 6L19 6L19 5L18 5L18 6L19 6L19 7L20 7L20 8L19 8L19 9L20 9L20 10L21 10L21 11L22 11L22 13L24 13L24 14L23 14L23 15L24 15L24 16L22 16L22 15L21 15L21 16L22 16L22 17L23 17L23 18L24 18L24 17L25 17L25 18L26 18L26 17L27 17L27 16L28 16L28 15L29 15L29 17L28 17L28 18L30 18L30 19L29 19L29 21L28 21L28 20L27 20L27 19L26 19L26 22L25 22L25 23L23 23L23 21L22 21L22 20L21 20L21 19L22 19L22 18L21 18L21 17L20 17L20 16L19 16L19 15L20 15L20 14L19 14L19 13L17 13L17 14L16 14L16 15L15 15L15 14L14 14L14 13L13 13L13 12L12 12L12 13L9 13L9 12L8 12L8 11L6 11L6 12L5 12L5 9L4 9L4 10L3 10L3 11L4 11L4 14L5 14L5 13L6 13L6 14L7 14L7 15L5 15L5 16L7 16L7 17L6 17L6 18L7 18L7 17L9 17L9 18L8 18L8 19L9 19L9 18L10 18L10 17L9 17L9 16L10 16L10 15L8 15L8 14L12 14L12 15L11 15L11 17L12 17L12 16L13 16L13 17L14 17L14 15L15 15L15 16L17 16L17 17L16 17L16 18L17 18L17 17L18 17L18 19L16 19L16 21L15 21L15 18L14 18L14 21L13 21L13 18L12 18L12 21L11 21L11 20L7 20L7 19L5 19L5 20L4 20L4 21L3 21L3 20L2 20L2 19L1 19L1 21L2 21L2 23L1 23L1 24L5 24L5 21L6 21L6 22L8 22L8 23L9 23L9 24L8 24L8 25L6 25L6 26L8 26L8 27L9 27L9 26L10 26L10 28L14 28L14 29L13 29L13 30L12 30L12 31L13 31L13 30L15 30L15 31L16 31L16 32L11 32L11 31L10 31L10 33L11 33L11 34L13 34L13 33L14 33L14 35L10 35L10 34L9 34L9 35L10 35L10 36L15 36L15 37L13 37L13 38L14 38L14 39L15 39L15 37L16 37L16 38L17 38L17 37L18 37L18 36L17 36L17 35L18 35L18 34L19 34L19 33L20 33L20 35L19 35L19 36L20 36L20 35L21 35L21 36L22 36L22 37L20 37L20 38L18 38L18 39L19 39L19 41L18 41L18 40L17 40L17 41L16 41L16 40L15 40L15 41L14 41L14 42L17 42L17 43L16 43L16 45L15 45L15 46L14 46L14 45L13 45L13 44L15 44L15 43L11 43L11 41L10 41L10 39L9 39L9 38L11 38L11 40L13 40L13 39L12 39L12 37L6 37L6 36L7 36L7 35L5 35L5 37L6 37L6 38L7 38L7 39L6 39L6 40L8 40L8 41L9 41L9 42L10 42L10 44L8 44L8 43L6 43L6 44L8 44L8 45L9 45L9 48L8 48L8 49L9 49L9 48L10 48L10 50L9 50L9 52L7 52L7 53L6 53L6 54L7 54L7 55L8 55L8 56L9 56L9 58L10 58L10 57L11 57L11 58L12 58L12 55L10 55L10 56L9 56L9 55L8 55L8 53L9 53L9 54L10 54L10 53L9 53L9 52L10 52L10 51L11 51L11 50L12 50L12 49L14 49L14 48L12 48L12 47L13 47L13 46L14 46L14 47L15 47L15 48L16 48L16 47L15 47L15 46L16 46L16 45L17 45L17 47L18 47L18 46L19 46L19 47L20 47L20 46L19 46L19 45L21 45L21 44L22 44L22 45L24 45L24 46L22 46L22 47L21 47L21 49L20 49L20 48L19 48L19 49L18 49L18 48L17 48L17 49L16 49L16 51L15 51L15 50L14 50L14 51L15 51L15 52L13 52L13 51L12 51L12 52L13 52L13 53L16 53L16 54L18 54L18 55L16 55L16 56L18 56L18 55L19 55L19 57L20 57L20 58L21 58L21 59L22 59L22 58L21 58L21 57L20 57L20 55L19 55L19 54L21 54L21 53L22 53L22 54L23 54L23 53L22 53L22 52L21 52L21 51L22 51L22 50L21 50L21 49L23 49L23 50L24 50L24 49L25 49L25 48L26 48L26 49L27 49L27 48L29 48L29 49L28 49L28 51L27 51L27 53L25 53L25 52L26 52L26 51L23 51L23 52L24 52L24 53L25 53L25 54L24 54L24 55L27 55L27 54L30 54L30 55L31 55L31 56L32 56L32 55L33 55L33 56L34 56L34 55L35 55L35 57L36 57L36 56L37 56L37 57L38 57L38 58L39 58L39 59L40 59L40 57L43 57L43 58L41 58L41 59L42 59L42 60L40 60L40 61L43 61L43 60L44 60L44 61L45 61L45 60L44 60L44 59L45 59L45 58L44 58L44 57L45 57L45 56L46 56L46 58L47 58L47 59L46 59L46 60L49 60L49 59L48 59L48 58L49 58L49 57L47 57L47 56L49 56L49 55L50 55L50 58L51 58L51 59L54 59L54 60L52 60L52 62L51 62L51 63L53 63L53 64L55 64L55 63L56 63L56 64L59 64L59 63L58 63L58 62L59 62L59 61L58 61L58 62L56 62L56 61L55 61L55 62L54 62L54 63L53 63L53 61L54 61L54 60L56 60L56 59L55 59L55 58L56 58L56 56L54 56L54 55L56 55L56 54L53 54L53 56L52 56L52 57L51 57L51 55L50 55L50 54L52 54L52 53L51 53L51 51L50 51L50 54L49 54L49 53L48 53L48 52L49 52L49 51L48 51L48 52L47 52L47 51L46 51L46 50L47 50L47 49L45 49L45 48L44 48L44 49L45 49L45 51L46 51L46 52L47 52L47 53L45 53L45 52L44 52L44 51L43 51L43 50L42 50L42 51L41 51L41 50L40 50L40 51L41 51L41 52L39 52L39 51L38 51L38 50L39 50L39 49L42 49L42 48L43 48L43 46L41 46L41 45L43 45L43 42L42 42L42 41L43 41L43 40L44 40L44 41L46 41L46 42L47 42L47 44L50 44L50 46L48 46L48 45L46 45L46 43L45 43L45 42L44 42L44 43L45 43L45 44L44 44L44 47L46 47L46 48L49 48L49 47L50 47L50 46L51 46L51 44L52 44L52 45L53 45L53 44L52 44L52 43L54 43L54 44L55 44L55 46L56 46L56 45L57 45L57 44L55 44L55 43L56 43L56 42L57 42L57 41L56 41L56 40L57 40L57 39L60 39L60 37L61 37L61 35L62 35L62 36L63 36L63 35L62 35L62 34L63 34L63 33L62 33L62 32L63 32L63 31L62 31L62 29L60 29L60 28L61 28L61 25L62 25L62 24L61 24L61 25L60 25L60 27L59 27L59 28L58 28L58 27L57 27L57 28L58 28L58 30L61 30L61 35L59 35L59 36L57 36L57 35L56 35L56 33L55 33L55 34L54 34L54 37L55 37L55 38L54 38L54 39L53 39L53 38L52 38L52 39L49 39L49 37L48 37L48 36L49 36L49 35L50 35L50 34L51 34L51 37L50 37L50 38L51 38L51 37L53 37L53 36L52 36L52 34L53 34L53 32L52 32L52 34L51 34L51 31L50 31L50 30L51 30L51 28L50 28L50 27L48 27L48 26L47 26L47 25L46 25L46 26L45 26L45 28L44 28L44 27L43 27L43 26L42 26L42 25L43 25L43 24L42 24L42 23L44 23L44 21L45 21L45 23L46 23L46 22L47 22L47 24L49 24L49 25L50 25L50 24L51 24L51 23L50 23L50 22L52 22L52 21L53 21L53 20L51 20L51 19L48 19L48 18L51 18L51 16L52 16L52 17L53 17L53 16L52 16L52 15L50 15L50 14L51 14L51 13L53 13L53 12L52 12L52 10L51 10L51 9L49 9L49 10L48 10L48 8L50 8L50 6L49 6L49 5L48 5L48 3L49 3L49 2L47 2L47 3L46 3L46 2L45 2L45 3L44 3L44 2L43 2L43 3L44 3L44 4L43 4L43 5L40 5L40 6L39 6L39 7L38 7L38 6L37 6L37 5L35 5L35 7L36 7L36 8L38 8L38 10L39 10L39 9L40 9L40 10L41 10L41 12L38 12L38 13L37 13L37 14L35 14L35 13L34 13L34 12L35 12L35 11L36 11L36 12L37 12L37 11L36 11L36 10L37 10L37 9L33 9L33 10L32 10L32 9L31 9L31 10L30 10L30 9L27 9L27 7L28 7L28 8L29 8L29 7L30 7L30 4L33 4L33 3L34 3L34 4L35 4L35 3L37 3L37 2L38 2L38 1L36 1L36 2L33 2L33 3L30 3L30 2L31 2L31 1L30 1L30 2L28 2L28 3L29 3L29 4L27 4L27 3L26 3L26 4L27 4L27 5L29 5L29 7L28 7L28 6L27 6L27 7L26 7L26 6L25 6L25 5L24 5L24 6L23 6L23 2L24 2L24 1ZM39 2L39 4L38 4L38 5L39 5L39 4L41 4L41 3L40 3L40 2ZM8 3L8 4L11 4L11 3ZM12 3L12 5L13 5L13 3ZM44 4L44 5L45 5L45 6L44 6L44 8L43 8L43 6L42 6L42 7L41 7L41 6L40 6L40 7L39 7L39 8L42 8L42 10L43 10L43 9L44 9L44 10L46 10L46 11L44 11L44 12L43 12L43 11L42 11L42 12L41 12L41 13L40 13L40 14L44 14L44 16L43 16L43 15L42 15L42 16L43 16L43 17L41 17L41 19L39 19L39 18L38 18L38 16L39 16L39 14L38 14L38 16L36 16L36 17L37 17L37 18L36 18L36 19L37 19L37 18L38 18L38 19L39 19L39 20L38 20L38 21L37 21L37 20L34 20L34 19L35 19L35 18L31 18L31 19L30 19L30 20L31 20L31 19L32 19L32 20L33 20L33 21L37 21L37 22L36 22L36 23L37 23L37 22L38 22L38 23L39 23L39 24L38 24L38 25L37 25L37 24L36 24L36 25L35 25L35 26L33 26L33 27L32 27L32 26L31 26L31 25L30 25L30 24L31 24L31 23L32 23L32 24L33 24L33 25L34 25L34 24L33 24L33 22L32 22L32 21L31 21L31 23L30 23L30 24L29 24L29 22L28 22L28 24L27 24L27 23L26 23L26 24L27 24L27 25L22 25L22 23L21 23L21 22L22 22L22 21L21 21L21 20L20 20L20 21L18 21L18 20L17 20L17 21L16 21L16 22L15 22L15 21L14 21L14 22L11 22L11 21L10 21L10 22L9 22L9 23L10 23L10 22L11 22L11 25L13 25L13 27L14 27L14 28L15 28L15 27L14 27L14 25L17 25L17 26L16 26L16 27L17 27L17 29L20 29L20 28L23 28L23 29L22 29L22 30L21 30L21 32L20 32L20 33L21 33L21 32L23 32L23 33L22 33L22 34L21 34L21 35L22 35L22 34L25 34L25 35L24 35L24 36L26 36L26 35L27 35L27 37L30 37L30 38L28 38L28 39L30 39L30 38L31 38L31 39L32 39L32 37L33 37L33 40L31 40L31 41L30 41L30 40L27 40L27 38L26 38L26 40L27 40L27 41L24 41L24 40L25 40L25 39L24 39L24 40L23 40L23 39L22 39L22 38L20 38L20 39L21 39L21 40L20 40L20 41L19 41L19 42L18 42L18 43L17 43L17 45L19 45L19 44L20 44L20 43L21 43L21 42L20 42L20 41L22 41L22 43L23 43L23 42L26 42L26 44L27 44L27 45L26 45L26 48L27 48L27 45L30 45L30 44L31 44L31 42L32 42L32 43L33 43L33 44L32 44L32 45L31 45L31 46L32 46L32 47L33 47L33 48L31 48L31 49L30 49L30 50L29 50L29 51L30 51L30 52L28 52L28 53L31 53L31 55L32 55L32 53L33 53L33 55L34 55L34 54L36 54L36 55L39 55L39 54L36 54L36 53L37 53L37 52L35 52L35 51L33 51L33 50L35 50L35 49L34 49L34 48L36 48L36 49L37 49L37 48L39 48L39 46L40 46L40 48L42 48L42 47L41 47L41 46L40 46L40 44L42 44L42 43L40 43L40 42L41 42L41 41L39 41L39 42L38 42L38 44L35 44L35 43L36 43L36 42L37 42L37 40L38 40L38 39L39 39L39 40L41 40L41 39L42 39L42 38L43 38L43 37L42 37L42 38L41 38L41 37L40 37L40 38L38 38L38 39L37 39L37 36L38 36L38 35L40 35L40 36L41 36L41 35L40 35L40 34L41 34L41 33L42 33L42 34L43 34L43 35L42 35L42 36L46 36L46 37L44 37L44 38L45 38L45 39L44 39L44 40L45 40L45 39L47 39L47 38L46 38L46 37L47 37L47 36L48 36L48 33L50 33L50 32L48 32L48 31L49 31L49 30L50 30L50 28L48 28L48 29L47 29L47 28L46 28L46 29L47 29L47 30L45 30L45 29L44 29L44 28L43 28L43 29L42 29L42 26L41 26L41 25L40 25L40 26L38 26L38 25L39 25L39 24L41 24L41 23L39 23L39 22L40 22L40 20L42 20L42 22L43 22L43 20L42 20L42 18L43 18L43 19L44 19L44 20L45 20L45 21L46 21L46 20L47 20L47 18L46 18L46 17L50 17L50 16L46 16L46 15L47 15L47 14L46 14L46 15L45 15L45 14L44 14L44 12L45 12L45 13L49 13L49 14L48 14L48 15L49 15L49 14L50 14L50 13L51 13L51 12L50 12L50 13L49 13L49 12L48 12L48 10L46 10L46 9L47 9L47 8L46 8L46 7L47 7L47 6L48 6L48 7L49 7L49 6L48 6L48 5L46 5L46 4ZM21 5L21 6L20 6L20 7L21 7L21 8L20 8L20 9L21 9L21 10L23 10L23 12L24 12L24 13L25 13L25 12L24 12L24 10L25 10L25 11L26 11L26 10L27 10L27 9L26 9L26 10L25 10L25 9L24 9L24 8L25 8L25 6L24 6L24 8L23 8L23 6L22 6L22 5ZM31 5L31 8L34 8L34 5ZM9 6L9 7L10 7L10 6ZM12 6L12 7L13 7L13 6ZM15 6L15 7L16 7L16 6ZM21 6L21 7L22 7L22 6ZM32 6L32 7L33 7L33 6ZM36 6L36 7L37 7L37 6ZM45 6L45 7L46 7L46 6ZM56 6L56 7L57 7L57 6ZM21 8L21 9L23 9L23 8ZM44 8L44 9L45 9L45 8ZM59 8L59 9L60 9L60 8ZM61 8L61 12L59 12L59 13L61 13L61 12L62 12L62 13L64 13L64 14L65 14L65 12L62 12L62 11L63 11L63 10L65 10L65 9L64 9L64 8L63 8L63 10L62 10L62 8ZM1 9L1 10L2 10L2 9ZM6 9L6 10L8 10L8 9ZM11 9L11 10L12 10L12 11L14 11L14 10L12 10L12 9ZM34 10L34 11L32 11L32 12L34 12L34 11L35 11L35 10ZM50 10L50 11L51 11L51 10ZM27 11L27 13L26 13L26 14L25 14L25 15L26 15L26 14L27 14L27 15L28 15L28 13L30 13L30 12L31 12L31 11L29 11L29 12L28 12L28 11ZM46 11L46 12L47 12L47 11ZM6 12L6 13L8 13L8 12ZM42 12L42 13L43 13L43 12ZM2 13L2 14L3 14L3 13ZM18 14L18 15L19 15L19 14ZM31 14L31 15L30 15L30 16L31 16L31 15L32 15L32 16L34 16L34 15L35 15L35 14ZM60 14L60 15L61 15L61 14ZM62 14L62 15L63 15L63 14ZM7 15L7 16L8 16L8 15ZM40 15L40 16L41 16L41 15ZM64 15L64 16L60 16L60 18L58 18L58 19L60 19L60 18L61 18L61 19L63 19L63 20L62 20L62 21L63 21L63 20L64 20L64 18L65 18L65 15ZM0 16L0 17L1 17L1 16ZM18 16L18 17L19 17L19 19L20 19L20 17L19 17L19 16ZM25 16L25 17L26 17L26 16ZM44 16L44 17L43 17L43 18L44 18L44 17L45 17L45 16ZM54 16L54 17L55 17L55 16ZM61 17L61 18L62 18L62 17ZM45 18L45 20L46 20L46 18ZM56 18L56 19L57 19L57 18ZM24 19L24 21L25 21L25 19ZM6 20L6 21L7 21L7 20ZM48 20L48 22L50 22L50 21L51 21L51 20L50 20L50 21L49 21L49 20ZM56 20L56 21L57 21L57 20ZM17 21L17 24L21 24L21 23L18 23L18 21ZM20 21L20 22L21 22L21 21ZM38 21L38 22L39 22L39 21ZM64 21L64 22L65 22L65 21ZM34 22L34 23L35 23L35 22ZM6 23L6 24L7 24L7 23ZM14 23L14 24L16 24L16 23ZM9 24L9 25L10 25L10 24ZM44 24L44 25L45 25L45 24ZM18 25L18 26L17 26L17 27L19 27L19 28L20 28L20 27L21 27L21 25L20 25L20 27L19 27L19 25ZM27 25L27 26L24 26L24 27L25 27L25 29L27 29L27 31L26 31L26 30L25 30L25 31L26 31L26 33L28 33L28 34L29 34L29 33L30 33L30 31L29 31L29 30L30 30L30 29L32 29L32 30L36 30L36 32L35 32L35 33L36 33L36 32L38 32L38 34L37 34L37 35L36 35L36 34L35 34L35 35L36 35L36 36L37 36L37 35L38 35L38 34L40 34L40 33L41 33L41 32L39 32L39 31L37 31L37 30L36 30L36 29L35 29L35 28L37 28L37 29L38 29L38 30L39 30L39 29L41 29L41 28L40 28L40 27L41 27L41 26L40 26L40 27L39 27L39 28L37 28L37 27L38 27L38 26L37 26L37 25L36 25L36 26L35 26L35 27L33 27L33 28L32 28L32 27L31 27L31 26L30 26L30 27L31 27L31 28L29 28L29 29L27 29L27 28L26 28L26 27L29 27L29 25ZM11 26L11 27L12 27L12 26ZM22 26L22 27L23 27L23 26ZM46 26L46 27L47 27L47 26ZM53 26L53 28L52 28L52 29L56 29L56 30L57 30L57 29L56 29L56 27L55 27L55 26ZM6 27L6 28L4 28L4 30L3 30L3 31L4 31L4 30L5 30L5 29L6 29L6 30L7 30L7 29L8 29L8 30L9 30L9 28L7 28L7 27ZM54 27L54 28L55 28L55 27ZM62 27L62 28L63 28L63 27ZM2 28L2 29L3 29L3 28ZM6 28L6 29L7 29L7 28ZM10 29L10 30L11 30L11 29ZM15 29L15 30L16 30L16 29ZM23 29L23 30L22 30L22 31L23 31L23 32L24 32L24 33L25 33L25 32L24 32L24 31L23 31L23 30L24 30L24 29ZM43 29L43 30L40 30L40 31L42 31L42 32L44 32L44 35L45 35L45 32L44 32L44 31L45 31L45 30L44 30L44 29ZM19 30L19 31L20 31L20 30ZM54 30L54 31L55 31L55 32L56 32L56 31L55 31L55 30ZM5 31L5 34L8 34L8 31ZM27 31L27 32L28 32L28 33L29 33L29 32L28 32L28 31ZM31 31L31 34L34 34L34 31ZM57 31L57 34L60 34L60 31ZM6 32L6 33L7 33L7 32ZM16 32L16 33L17 33L17 34L15 34L15 36L16 36L16 37L17 37L17 36L16 36L16 35L17 35L17 34L18 34L18 33L19 33L19 32L18 32L18 33L17 33L17 32ZM32 32L32 33L33 33L33 32ZM58 32L58 33L59 33L59 32ZM46 33L46 34L47 34L47 33ZM28 35L28 36L30 36L30 35ZM31 35L31 37L32 37L32 35ZM33 35L33 37L34 37L34 39L35 39L35 37L34 37L34 35ZM55 35L55 36L56 36L56 35ZM0 36L0 37L1 37L1 36ZM23 37L23 38L25 38L25 37ZM56 37L56 38L57 38L57 37ZM58 37L58 38L59 38L59 37ZM0 38L0 40L1 40L1 38ZM40 38L40 39L41 39L41 38ZM8 39L8 40L9 40L9 39ZM36 39L36 40L37 40L37 39ZM52 39L52 40L53 40L53 41L51 41L51 40L47 40L47 42L50 42L50 43L52 43L52 42L55 42L55 40L56 40L56 39L55 39L55 40L53 40L53 39ZM22 40L22 41L23 41L23 40ZM33 40L33 41L32 41L32 42L33 42L33 43L35 43L35 42L36 42L36 41L35 41L35 40ZM4 41L4 42L7 42L7 41ZM12 41L12 42L13 42L13 41ZM27 41L27 42L30 42L30 41ZM34 41L34 42L35 42L35 41ZM50 41L50 42L51 42L51 41ZM62 42L62 43L60 43L60 44L62 44L62 45L63 45L63 44L62 44L62 43L63 43L63 42ZM4 43L4 44L5 44L5 43ZM24 43L24 45L25 45L25 43ZM28 43L28 44L29 44L29 43ZM33 44L33 45L32 45L32 46L33 46L33 47L36 47L36 48L37 48L37 47L38 47L38 46L39 46L39 45L34 45L34 44ZM33 45L33 46L34 46L34 45ZM10 46L10 47L11 47L11 46ZM28 46L28 47L29 47L29 48L30 48L30 46ZM36 46L36 47L37 47L37 46ZM46 46L46 47L48 47L48 46ZM57 46L57 48L58 48L58 49L59 49L59 50L58 50L58 51L59 51L59 52L60 52L60 51L61 51L61 50L60 50L60 49L61 49L61 48L60 48L60 49L59 49L59 48L58 48L58 47L60 47L60 46ZM22 47L22 48L24 48L24 47ZM6 49L6 50L7 50L7 49ZM17 49L17 51L16 51L16 53L18 53L18 54L19 54L19 53L18 53L18 52L17 52L17 51L18 51L18 49ZM19 49L19 50L20 50L20 51L21 51L21 50L20 50L20 49ZM31 49L31 50L30 50L30 51L31 51L31 53L32 53L32 50L33 50L33 49ZM0 50L0 52L2 52L2 51L3 51L3 50L2 50L2 51L1 51L1 50ZM56 50L56 51L57 51L57 50ZM20 52L20 53L21 53L21 52ZM34 52L34 53L35 53L35 52ZM38 52L38 53L39 53L39 52ZM42 53L42 54L41 54L41 55L40 55L40 56L41 56L41 55L42 55L42 56L43 56L43 57L44 57L44 56L45 56L45 55L44 55L44 54L43 54L43 53ZM42 54L42 55L43 55L43 54ZM46 54L46 56L47 56L47 54ZM48 54L48 55L49 55L49 54ZM13 55L13 57L14 57L14 55ZM28 55L28 56L29 56L29 55ZM38 56L38 57L39 57L39 56ZM53 56L53 58L55 58L55 57L54 57L54 56ZM16 57L16 58L14 58L14 60L13 60L13 59L10 59L10 60L11 60L11 61L9 61L9 62L10 62L10 63L11 63L11 64L13 64L13 62L14 62L14 60L15 60L15 59L16 59L16 58L17 58L17 57ZM26 57L26 58L27 58L27 57ZM31 57L31 60L34 60L34 57ZM57 57L57 60L60 60L60 57ZM32 58L32 59L33 59L33 58ZM58 58L58 59L59 59L59 58ZM26 60L26 61L27 61L27 60ZM23 61L23 62L24 62L24 61ZM38 61L38 62L39 62L39 61ZM18 62L18 65L21 65L21 64L19 64L19 63L20 63L20 62ZM25 62L25 64L26 64L26 62ZM46 63L46 64L47 64L47 63ZM62 63L62 64L63 64L63 63ZM0 0L0 7L7 7L7 0ZM1 1L1 6L6 6L6 1ZM2 2L2 5L5 5L5 2ZM58 0L58 7L65 7L65 0ZM59 1L59 6L64 6L64 1ZM60 2L60 5L63 5L63 2ZM0 58L0 65L7 65L7 58ZM1 59L1 64L6 64L6 59ZM2 60L2 63L5 63L5 60Z" fill="#000000"/></g></g></svg>
