<?xml version="1.0" encoding="UTF-8"?>
<svg xmlns="http://www.w3.org/2000/svg" version="1.1" width="300" height="300" viewBox="0 0 300 300"><rect x="0" y="0" width="300" height="300" fill="#ffffff"/><g transform="scale(4.615)"><g transform="translate(0,0)"><path fill-rule="evenodd" d="M11 0L11 1L10 1L10 2L9 2L9 1L8 1L8 2L9 2L9 3L8 3L8 4L9 4L9 5L8 5L8 7L9 7L9 5L10 5L10 10L9 10L9 11L8 11L8 10L5 10L5 11L8 11L8 12L9 12L9 11L11 11L11 13L12 13L12 15L11 15L11 16L12 16L12 17L13 17L13 16L14 16L14 18L12 18L12 19L11 19L11 18L10 18L10 16L9 16L9 15L10 15L10 14L8 14L8 13L7 13L7 12L6 12L6 13L7 13L7 14L5 14L5 15L4 15L4 13L3 13L3 14L1 14L1 11L2 11L2 9L5 9L5 8L0 8L0 9L1 9L1 10L0 10L0 18L2 18L2 19L0 19L0 20L1 20L1 21L0 21L0 22L1 22L1 23L2 23L2 22L1 22L1 21L2 21L2 19L3 19L3 20L4 20L4 21L5 21L5 22L3 22L3 23L4 23L4 24L5 24L5 25L3 25L3 24L2 24L2 25L3 25L3 28L1 28L1 27L2 27L2 26L0 26L0 28L1 28L1 29L2 29L2 30L1 30L1 31L0 31L0 32L2 32L2 33L0 33L0 34L1 34L1 35L0 35L0 38L3 38L3 39L2 39L2 40L0 40L0 41L2 41L2 42L1 42L1 43L0 43L0 44L1 44L1 48L2 48L2 47L3 47L3 48L4 48L4 49L1 49L1 51L0 51L0 54L1 54L1 51L5 51L5 50L6 50L6 51L7 51L7 50L6 50L6 49L9 49L9 50L10 50L10 48L9 48L9 47L11 47L11 50L13 50L13 49L15 49L15 51L14 51L14 52L15 52L15 51L16 51L16 49L17 49L17 50L18 50L18 51L17 51L17 52L16 52L16 53L15 53L15 55L14 55L14 56L13 56L13 54L14 54L14 53L12 53L12 52L13 52L13 51L10 51L10 53L9 53L9 52L6 52L6 53L7 53L7 54L5 54L5 53L4 53L4 52L3 52L3 54L2 54L2 55L3 55L3 56L1 56L1 55L0 55L0 56L1 56L1 57L3 57L3 56L4 56L4 57L5 57L5 56L4 56L4 54L5 54L5 55L7 55L7 54L8 54L8 56L6 56L6 57L8 57L8 59L10 59L10 62L9 62L9 60L8 60L8 65L9 65L9 64L10 64L10 65L11 65L11 63L10 63L10 62L11 62L11 60L12 60L12 62L13 62L13 63L12 63L12 64L14 64L14 63L16 63L16 64L15 64L15 65L22 65L22 64L24 64L24 63L22 63L22 62L24 62L24 61L25 61L25 62L26 62L26 63L25 63L25 64L27 64L27 65L31 65L31 63L32 63L32 64L33 64L33 65L35 65L35 64L34 64L34 63L37 63L37 64L36 64L36 65L37 65L37 64L41 64L41 63L39 63L39 62L38 62L38 60L35 60L35 59L36 59L36 58L37 58L37 59L39 59L39 60L41 60L41 61L40 61L40 62L41 62L41 61L42 61L42 62L44 62L44 64L45 64L45 63L46 63L46 64L48 64L48 65L49 65L49 64L48 64L48 63L49 63L49 62L48 62L48 63L47 63L47 62L44 62L44 60L45 60L45 61L49 61L49 60L51 60L51 62L50 62L50 63L51 63L51 62L52 62L52 60L53 60L53 63L52 63L52 64L50 64L50 65L52 65L52 64L53 64L53 65L56 65L56 62L57 62L57 61L59 61L59 64L58 64L58 63L57 63L57 65L63 65L63 64L64 64L64 60L65 60L65 59L63 59L63 58L62 58L62 59L63 59L63 60L61 60L61 55L60 55L60 56L59 56L59 55L57 55L57 51L58 51L58 52L59 52L59 53L58 53L58 54L59 54L59 53L60 53L60 54L63 54L63 56L62 56L62 57L63 57L63 56L64 56L64 58L65 58L65 56L64 56L64 54L65 54L65 53L64 53L64 52L65 52L65 51L63 51L63 50L65 50L65 49L64 49L64 48L62 48L62 49L63 49L63 50L61 50L61 49L60 49L60 50L61 50L61 52L62 52L62 53L60 53L60 52L59 52L59 51L58 51L58 50L59 50L59 49L58 49L58 48L60 48L60 47L61 47L61 46L62 46L62 45L64 45L64 44L65 44L65 43L64 43L64 44L62 44L62 45L60 45L60 46L59 46L59 45L58 45L58 44L59 44L59 43L54 43L54 44L53 44L53 43L52 43L52 44L51 44L51 42L50 42L50 41L49 41L49 40L51 40L51 39L52 39L52 40L53 40L53 39L54 39L54 40L56 40L56 41L57 41L57 40L56 40L56 39L54 39L54 38L56 38L56 37L54 37L54 34L56 34L56 35L55 35L55 36L57 36L57 38L59 38L59 37L60 37L60 38L61 38L61 40L62 40L62 41L58 41L58 42L62 42L62 41L63 41L63 42L65 42L65 41L64 41L64 40L65 40L65 39L63 39L63 40L62 40L62 38L61 38L61 37L63 37L63 36L62 36L62 35L63 35L63 34L62 34L62 35L61 35L61 33L63 33L63 32L62 32L62 31L63 31L63 30L58 30L58 28L59 28L59 29L61 29L61 28L62 28L62 29L63 29L63 28L62 28L62 27L63 27L63 26L62 26L62 27L61 27L61 28L60 28L60 26L61 26L61 24L62 24L62 25L63 25L63 24L62 24L62 22L65 22L65 20L64 20L64 19L63 19L63 18L65 18L65 15L64 15L64 16L62 16L62 14L63 14L63 13L64 13L64 14L65 14L65 13L64 13L64 12L65 12L65 11L63 11L63 10L65 10L65 9L64 9L64 8L63 8L63 9L62 9L62 8L61 8L61 12L59 12L59 13L60 13L60 15L61 15L61 16L60 16L60 18L58 18L58 16L59 16L59 14L57 14L57 15L55 15L55 16L54 16L54 15L52 15L52 14L53 14L53 13L54 13L54 14L56 14L56 13L57 13L57 12L58 12L58 11L59 11L59 10L60 10L60 8L59 8L59 10L58 10L58 8L56 8L56 9L54 9L54 10L53 10L53 11L51 11L51 10L50 10L50 9L52 9L52 8L53 8L53 6L54 6L54 8L55 8L55 5L54 5L54 4L56 4L56 5L57 5L57 4L56 4L56 3L57 3L57 1L56 1L56 0L55 0L55 1L56 1L56 3L55 3L55 2L54 2L54 3L53 3L53 2L51 2L51 1L50 1L50 0L47 0L47 1L46 1L46 2L45 2L45 0L42 0L42 1L44 1L44 3L43 3L43 4L42 4L42 5L41 5L41 4L40 4L40 5L37 5L37 3L36 3L36 4L35 4L35 1L33 1L33 0L30 0L30 1L32 1L32 3L31 3L31 2L30 2L30 3L31 3L31 4L30 4L30 7L29 7L29 5L27 5L27 6L26 6L26 8L27 8L27 9L22 9L22 7L23 7L23 8L25 8L25 6L24 6L24 5L25 5L25 4L29 4L29 2L28 2L28 0L26 0L26 1L25 1L25 0L21 0L21 1L22 1L22 2L19 2L19 3L20 3L20 4L18 4L18 3L17 3L17 2L18 2L18 1L17 1L17 0L16 0L16 1L17 1L17 2L15 2L15 0ZM39 0L39 1L36 1L36 2L39 2L39 3L38 3L38 4L39 4L39 3L41 3L41 2L40 2L40 1L41 1L41 0ZM52 0L52 1L54 1L54 0ZM11 1L11 2L10 2L10 5L12 5L12 6L11 6L11 7L12 7L12 6L13 6L13 8L11 8L11 9L12 9L12 10L11 10L11 11L12 11L12 12L13 12L13 14L15 14L15 15L14 15L14 16L15 16L15 17L16 17L16 16L15 16L15 15L16 15L16 14L15 14L15 13L16 13L16 12L17 12L17 11L19 11L19 12L20 12L20 13L17 13L17 16L19 16L19 17L18 17L18 18L17 18L17 19L18 19L18 18L19 18L19 20L22 20L22 21L20 21L20 24L19 24L19 25L18 25L18 23L17 23L17 21L18 21L18 20L16 20L16 18L14 18L14 19L13 19L13 21L11 21L11 19L10 19L10 18L9 18L9 19L8 19L8 18L7 18L7 17L6 17L6 16L7 16L7 15L8 15L8 14L7 14L7 15L5 15L5 16L4 16L4 15L3 15L3 16L2 16L2 15L1 15L1 16L2 16L2 18L3 18L3 19L4 19L4 20L5 20L5 21L6 21L6 22L7 22L7 23L5 23L5 24L7 24L7 25L6 25L6 26L8 26L8 27L9 27L9 25L11 25L11 26L14 26L14 28L13 28L13 27L11 27L11 28L10 28L10 29L9 29L9 28L7 28L7 27L5 27L5 28L3 28L3 29L4 29L4 30L7 30L7 29L9 29L9 32L10 32L10 33L9 33L9 34L10 34L10 35L8 35L8 36L7 36L7 35L6 35L6 36L7 36L7 37L5 37L5 38L4 38L4 36L3 36L3 34L4 34L4 33L3 33L3 34L2 34L2 35L1 35L1 37L2 37L2 36L3 36L3 38L4 38L4 40L2 40L2 41L4 41L4 42L2 42L2 43L1 43L1 44L2 44L2 45L3 45L3 46L4 46L4 48L5 48L5 49L4 49L4 50L5 50L5 49L6 49L6 48L7 48L7 47L5 47L5 46L8 46L8 47L9 47L9 46L11 46L11 47L12 47L12 46L13 46L13 45L14 45L14 46L15 46L15 47L13 47L13 48L15 48L15 47L16 47L16 48L17 48L17 46L18 46L18 48L21 48L21 47L22 47L22 49L23 49L23 48L24 48L24 49L25 49L25 48L26 48L26 49L27 49L27 50L22 50L22 51L21 51L21 52L22 52L22 53L20 53L20 54L18 54L18 55L19 55L19 57L18 57L18 56L17 56L17 57L16 57L16 56L15 56L15 58L16 58L16 59L12 59L12 60L14 60L14 61L13 61L13 62L14 62L14 61L15 61L15 62L16 62L16 61L18 61L18 62L17 62L17 64L19 64L19 63L20 63L20 62L19 62L19 61L21 61L21 60L22 60L22 61L24 61L24 59L25 59L25 60L26 60L26 61L27 61L27 60L26 60L26 59L27 59L27 58L29 58L29 59L28 59L28 60L29 60L29 61L28 61L28 62L27 62L27 64L30 64L30 63L31 63L31 61L30 61L30 57L27 57L27 55L25 55L25 54L24 54L24 55L25 55L25 56L24 56L24 57L25 57L25 58L23 58L23 60L22 60L22 59L21 59L21 58L22 58L22 57L23 57L23 56L21 56L21 55L20 55L20 54L22 54L22 55L23 55L23 53L26 53L26 54L30 54L30 56L32 56L32 55L35 55L35 57L36 57L36 56L37 56L37 57L38 57L38 58L39 58L39 57L38 57L38 56L40 56L40 57L41 57L41 58L40 58L40 59L42 59L42 60L44 60L44 57L45 57L45 56L43 56L43 58L42 58L42 56L40 56L40 54L41 54L41 53L43 53L43 52L44 52L44 54L42 54L42 55L45 55L45 54L47 54L47 55L46 55L46 56L47 56L47 55L48 55L48 56L50 56L50 54L51 54L51 53L56 53L56 52L54 52L54 51L56 51L56 50L57 50L57 48L55 48L55 47L56 47L56 46L57 46L57 47L59 47L59 46L58 46L58 45L57 45L57 44L54 44L54 45L56 45L56 46L52 46L52 47L53 47L53 48L52 48L52 49L51 49L51 47L50 47L50 46L51 46L51 44L50 44L50 43L48 43L48 42L49 42L49 41L48 41L48 42L47 42L47 40L49 40L49 39L47 39L47 40L46 40L46 38L47 38L47 36L49 36L49 35L50 35L50 34L51 34L51 35L52 35L52 34L54 34L54 33L55 33L55 32L56 32L56 31L55 31L55 30L57 30L57 29L56 29L56 27L57 27L57 28L58 28L58 26L60 26L60 25L56 25L56 24L55 24L55 23L57 23L57 22L59 22L59 23L58 23L58 24L59 24L59 23L60 23L60 24L61 24L61 22L62 22L62 20L63 20L63 19L58 19L58 20L57 20L57 17L56 17L56 16L55 16L55 18L54 18L54 16L52 16L52 15L51 15L51 17L50 17L50 18L51 18L51 17L53 17L53 18L52 18L52 19L56 19L56 20L54 20L54 21L55 21L55 22L53 22L53 20L51 20L51 19L48 19L48 18L49 18L49 17L48 17L48 18L47 18L47 17L46 17L46 16L47 16L47 15L48 15L48 16L49 16L49 14L51 14L51 13L53 13L53 12L54 12L54 13L55 13L55 12L57 12L57 9L56 9L56 11L55 11L55 10L54 10L54 11L53 11L53 12L51 12L51 11L48 11L48 10L49 10L49 9L50 9L50 8L51 8L51 7L52 7L52 5L53 5L53 3L52 3L52 5L51 5L51 4L50 4L50 5L49 5L49 4L45 4L45 3L44 3L44 5L42 5L42 6L41 6L41 5L40 5L40 6L39 6L39 7L38 7L38 6L37 6L37 5L35 5L35 7L36 7L36 8L37 8L37 7L38 7L38 10L39 10L39 9L41 9L41 8L40 8L40 6L41 6L41 7L42 7L42 6L43 6L43 7L44 7L44 5L45 5L45 7L46 7L46 5L47 5L47 8L44 8L44 9L43 9L43 8L42 8L42 9L43 9L43 10L40 10L40 11L41 11L41 12L40 12L40 14L39 14L39 11L38 11L38 14L39 14L39 15L41 15L41 16L40 16L40 18L39 18L39 17L38 17L38 15L36 15L36 16L37 16L37 17L36 17L36 20L35 20L35 19L33 19L33 20L32 20L32 21L31 21L31 20L30 20L30 21L28 21L28 20L29 20L29 19L31 19L31 18L33 18L33 16L34 16L34 18L35 18L35 16L34 16L34 15L33 15L33 14L35 14L35 13L34 13L34 12L37 12L37 11L36 11L36 10L37 10L37 9L31 9L31 10L30 10L30 9L28 9L28 11L27 11L27 10L26 10L26 11L25 11L25 10L22 10L22 11L23 11L23 12L21 12L21 9L20 9L20 8L21 8L21 7L22 7L22 6L23 6L23 7L24 7L24 6L23 6L23 5L24 5L24 4L25 4L25 3L26 3L26 2L25 2L25 1L23 1L23 4L22 4L22 3L21 3L21 4L20 4L20 5L18 5L18 4L16 4L16 5L13 5L13 4L12 4L12 2L14 2L14 1ZM47 1L47 2L46 2L46 3L51 3L51 2L50 2L50 1ZM24 2L24 3L25 3L25 2ZM27 2L27 3L28 3L28 2ZM33 2L33 3L32 3L32 4L33 4L33 3L34 3L34 2ZM14 3L14 4L15 4L15 3ZM21 4L21 5L20 5L20 7L21 7L21 5L22 5L22 4ZM16 5L16 7L15 7L15 6L14 6L14 8L15 8L15 10L12 10L12 11L13 11L13 12L14 12L14 13L15 13L15 10L16 10L16 11L17 11L17 10L18 10L18 9L19 9L19 11L20 11L20 9L19 9L19 8L16 8L16 7L17 7L17 6L18 6L18 7L19 7L19 6L18 6L18 5ZM31 5L31 8L34 8L34 5ZM48 5L48 7L49 7L49 5ZM50 5L50 7L51 7L51 5ZM27 6L27 7L28 7L28 8L29 8L29 7L28 7L28 6ZM32 6L32 7L33 7L33 6ZM36 6L36 7L37 7L37 6ZM56 6L56 7L57 7L57 6ZM6 8L6 9L9 9L9 8ZM47 8L47 9L49 9L49 8ZM44 9L44 10L45 10L45 11L42 11L42 12L41 12L41 14L43 14L43 13L42 13L42 12L45 12L45 13L44 13L44 14L45 14L45 15L42 15L42 16L43 16L43 17L41 17L41 18L40 18L40 20L41 20L41 19L42 19L42 20L43 20L43 21L42 21L42 22L43 22L43 23L44 23L44 24L46 24L46 23L47 23L47 26L43 26L43 25L42 25L42 23L40 23L40 22L41 22L41 21L39 21L39 18L37 18L37 19L38 19L38 21L39 21L39 22L38 22L38 25L37 25L37 24L36 24L36 25L35 25L35 24L34 24L34 23L35 23L35 22L34 22L34 20L33 20L33 22L31 22L31 23L30 23L30 24L29 24L29 22L28 22L28 24L27 24L27 22L26 22L26 21L23 21L23 22L26 22L26 24L27 24L27 25L24 25L24 23L22 23L22 22L21 22L21 24L20 24L20 25L19 25L19 26L18 26L18 27L17 27L17 26L16 26L16 25L17 25L17 24L16 24L16 23L15 23L15 22L16 22L16 21L15 21L15 19L14 19L14 21L13 21L13 24L14 24L14 26L15 26L15 28L14 28L14 29L16 29L16 30L12 30L12 31L11 31L11 29L12 29L12 28L11 28L11 29L10 29L10 31L11 31L11 33L10 33L10 34L11 34L11 33L12 33L12 35L11 35L11 37L10 37L10 36L9 36L9 37L10 37L10 38L8 38L8 37L7 37L7 38L6 38L6 39L5 39L5 40L4 40L4 41L5 41L5 40L6 40L6 41L7 41L7 40L8 40L8 42L10 42L10 41L11 41L11 42L12 42L12 43L13 43L13 41L15 41L15 42L14 42L14 43L15 43L15 44L14 44L14 45L15 45L15 46L16 46L16 45L15 45L15 44L17 44L17 43L18 43L18 45L20 45L20 41L21 41L21 42L22 42L22 43L21 43L21 44L22 44L22 43L23 43L23 45L22 45L22 47L24 47L24 48L25 48L25 47L27 47L27 48L28 48L28 49L31 49L31 51L30 51L30 50L28 50L28 53L29 53L29 51L30 51L30 52L32 52L32 53L31 53L31 55L32 55L32 53L33 53L33 52L35 52L35 51L33 51L33 50L35 50L35 49L37 49L37 48L36 48L36 46L35 46L35 47L34 47L34 46L32 46L32 45L33 45L33 43L34 43L34 44L35 44L35 45L37 45L37 46L38 46L38 47L39 47L39 48L38 48L38 49L39 49L39 48L41 48L41 50L38 50L38 51L40 51L40 52L41 52L41 51L42 51L42 52L43 52L43 51L42 51L42 50L43 50L43 49L44 49L44 50L45 50L45 51L44 51L44 52L45 52L45 53L49 53L49 52L48 52L48 51L47 51L47 50L45 50L45 49L44 49L44 48L45 48L45 47L48 47L48 46L49 46L49 44L48 44L48 45L47 45L47 42L46 42L46 40L45 40L45 39L44 39L44 38L43 38L43 37L44 37L44 36L45 36L45 35L47 35L47 34L44 34L44 33L42 33L42 32L43 32L43 31L44 31L44 32L45 32L45 33L46 33L46 32L45 32L45 30L46 30L46 31L47 31L47 33L49 33L49 34L48 34L48 35L49 35L49 34L50 34L50 33L51 33L51 34L52 34L52 32L53 32L53 31L54 31L54 32L55 32L55 31L54 31L54 30L55 30L55 29L52 29L52 28L53 28L53 27L52 27L52 26L53 26L53 25L52 25L52 26L50 26L50 29L51 29L51 30L49 30L49 28L48 28L48 27L49 27L49 25L50 25L50 24L53 24L53 23L52 23L52 22L50 22L50 20L48 20L48 19L47 19L47 18L46 18L46 19L45 19L45 18L43 18L43 17L44 17L44 16L46 16L46 15L47 15L47 14L48 14L48 13L49 13L49 12L48 12L48 13L47 13L47 14L46 14L46 12L45 12L45 11L47 11L47 10L45 10L45 9ZM3 10L3 11L4 11L4 10ZM31 10L31 11L30 11L30 12L29 12L29 11L28 11L28 12L27 12L27 13L26 13L26 14L28 14L28 12L29 12L29 13L30 13L30 14L29 14L29 15L28 15L28 16L27 16L27 15L26 15L26 16L25 16L25 11L24 11L24 12L23 12L23 13L22 13L22 14L21 14L21 15L24 15L24 16L23 16L23 17L21 17L21 16L20 16L20 17L21 17L21 19L22 19L22 18L23 18L23 20L26 20L26 19L25 19L25 18L27 18L27 17L29 17L29 16L31 16L31 15L32 15L32 16L33 16L33 15L32 15L32 14L31 14L31 13L30 13L30 12L31 12L31 11L32 11L32 12L34 12L34 11L35 11L35 10ZM62 11L62 12L63 12L63 11ZM50 12L50 13L51 13L51 12ZM23 13L23 14L24 14L24 13ZM61 13L61 14L62 14L62 13ZM18 14L18 15L20 15L20 14ZM57 15L57 16L58 16L58 15ZM3 16L3 18L5 18L5 19L7 19L7 18L5 18L5 17L4 17L4 16ZM8 16L8 17L9 17L9 16ZM24 16L24 17L25 17L25 16ZM26 16L26 17L27 17L27 16ZM30 17L30 18L31 18L31 17ZM61 17L61 18L62 18L62 17ZM42 18L42 19L43 19L43 20L44 20L44 21L43 21L43 22L44 22L44 23L45 23L45 22L47 22L47 21L46 21L46 20L47 20L47 19L46 19L46 20L44 20L44 19L43 19L43 18ZM27 19L27 20L28 20L28 19ZM6 20L6 21L7 21L7 22L9 22L9 23L7 23L7 24L11 24L11 25L12 25L12 24L11 24L11 23L12 23L12 22L11 22L11 23L10 23L10 20ZM36 20L36 21L37 21L37 20ZM56 20L56 21L57 21L57 20ZM59 20L59 22L61 22L61 20ZM14 21L14 22L15 22L15 21ZM44 21L44 22L45 22L45 21ZM48 21L48 24L49 24L49 23L50 23L50 22L49 22L49 21ZM14 23L14 24L15 24L15 23ZM31 23L31 24L30 24L30 25L27 25L27 26L24 26L24 28L23 28L23 27L22 27L22 25L23 25L23 24L22 24L22 25L20 25L20 26L19 26L19 27L20 27L20 26L21 26L21 28L19 28L19 29L17 29L17 28L16 28L16 29L17 29L17 30L19 30L19 31L18 31L18 32L19 32L19 31L20 31L20 30L19 30L19 29L21 29L21 28L22 28L22 29L24 29L24 30L22 30L22 31L21 31L21 33L16 33L16 31L12 31L12 32L13 32L13 33L16 33L16 34L18 34L18 35L16 35L16 36L18 36L18 37L16 37L16 38L15 38L15 39L14 39L14 37L15 37L15 34L13 34L13 35L12 35L12 36L13 36L13 39L12 39L12 38L11 38L11 39L12 39L12 41L13 41L13 40L19 40L19 41L18 41L18 43L19 43L19 41L20 41L20 40L21 40L21 39L18 39L18 37L20 37L20 38L21 38L21 37L22 37L22 38L23 38L23 37L25 37L25 39L23 39L23 40L22 40L22 41L25 41L25 42L24 42L24 43L25 43L25 46L26 46L26 45L27 45L27 46L30 46L30 47L28 47L28 48L30 48L30 47L31 47L31 48L33 48L33 47L32 47L32 46L30 46L30 45L28 45L28 44L26 44L26 41L27 41L27 43L29 43L29 44L30 44L30 43L29 43L29 42L30 42L30 41L31 41L31 42L32 42L32 43L33 43L33 41L32 41L32 40L34 40L34 41L35 41L35 42L34 42L34 43L35 43L35 42L36 42L36 44L38 44L38 46L39 46L39 47L40 47L40 45L43 45L43 44L44 44L44 46L42 46L42 47L45 47L45 44L44 44L44 43L45 43L45 40L44 40L44 39L43 39L43 38L42 38L42 36L43 36L43 34L41 34L41 32L42 32L42 31L43 31L43 30L45 30L45 28L44 28L44 27L43 27L43 26L42 26L42 27L43 27L43 30L42 30L42 29L41 29L41 28L39 28L39 27L37 27L37 25L36 25L36 26L35 26L35 25L34 25L34 24L32 24L32 23ZM64 23L64 24L65 24L65 23ZM31 24L31 27L30 27L30 28L31 28L31 29L32 29L32 30L30 30L30 29L29 29L29 31L28 31L28 32L27 32L27 33L26 33L26 34L25 34L25 33L21 33L21 34L22 34L22 35L21 35L21 36L20 36L20 37L21 37L21 36L22 36L22 37L23 37L23 35L24 35L24 36L25 36L25 37L31 37L31 39L30 39L30 38L28 38L28 39L30 39L30 40L27 40L27 39L25 39L25 40L27 40L27 41L30 41L30 40L31 40L31 39L32 39L32 37L33 37L33 38L35 38L35 37L34 37L34 36L36 36L36 37L37 37L37 38L36 38L36 39L34 39L34 40L35 40L35 41L36 41L36 42L37 42L37 40L36 40L36 39L38 39L38 41L39 41L39 42L38 42L38 44L39 44L39 43L40 43L40 44L41 44L41 42L43 42L43 43L42 43L42 44L43 44L43 43L44 43L44 41L40 41L40 40L41 40L41 37L40 37L40 36L42 36L42 35L40 35L40 34L36 34L36 33L38 33L38 32L35 32L35 31L37 31L37 30L38 30L38 31L39 31L39 32L41 32L41 31L40 31L40 30L41 30L41 29L39 29L39 28L38 28L38 29L37 29L37 28L35 28L35 29L36 29L36 30L33 30L33 29L32 29L32 28L33 28L33 27L35 27L35 26L33 26L33 25L32 25L32 24ZM39 24L39 25L38 25L38 26L39 26L39 25L41 25L41 24ZM54 25L54 26L55 26L55 27L54 27L54 28L55 28L55 27L56 27L56 25ZM64 25L64 26L65 26L65 25ZM32 26L32 27L31 27L31 28L32 28L32 27L33 27L33 26ZM40 26L40 27L41 27L41 26ZM26 27L26 28L28 28L28 27ZM46 27L46 28L47 28L47 27ZM5 28L5 29L7 29L7 28ZM24 28L24 29L25 29L25 32L26 32L26 31L27 31L27 29L25 29L25 28ZM38 29L38 30L39 30L39 29ZM46 29L46 30L48 30L48 32L49 32L49 33L50 33L50 32L51 32L51 31L49 31L49 30L48 30L48 29ZM5 31L5 34L8 34L8 31ZM23 31L23 32L24 32L24 31ZM29 31L29 33L27 33L27 35L29 35L29 36L30 36L30 35L29 35L29 33L30 33L30 31ZM31 31L31 34L34 34L34 31ZM57 31L57 34L60 34L60 31ZM64 31L64 32L65 32L65 31ZM6 32L6 33L7 33L7 32ZM32 32L32 33L33 33L33 32ZM58 32L58 33L59 33L59 32ZM64 33L64 34L65 34L65 33ZM19 34L19 35L20 35L20 34ZM24 34L24 35L25 35L25 36L26 36L26 35L25 35L25 34ZM31 35L31 37L32 37L32 36L34 36L34 35ZM36 35L36 36L37 36L37 37L38 37L38 38L40 38L40 37L38 37L38 36L39 36L39 35ZM59 35L59 36L58 36L58 37L59 37L59 36L60 36L60 37L61 37L61 36L60 36L60 35ZM50 36L50 38L53 38L53 36ZM48 37L48 38L49 38L49 37ZM64 37L64 38L65 38L65 37ZM7 38L7 39L6 39L6 40L7 40L7 39L8 39L8 40L9 40L9 41L10 41L10 40L9 40L9 39L8 39L8 38ZM16 38L16 39L17 39L17 38ZM42 39L42 40L43 40L43 39ZM58 39L58 40L59 40L59 39ZM16 41L16 42L15 42L15 43L16 43L16 42L17 42L17 41ZM53 41L53 42L55 42L55 41ZM4 42L4 44L5 44L5 45L7 45L7 44L6 44L6 43L7 43L7 42ZM2 43L2 44L3 44L3 43ZM10 43L10 44L8 44L8 46L9 46L9 45L13 45L13 44L11 44L11 43ZM60 43L60 44L61 44L61 43ZM31 44L31 45L32 45L32 44ZM52 44L52 45L53 45L53 44ZM23 45L23 46L24 46L24 45ZM46 45L46 46L47 46L47 45ZM19 46L19 47L20 47L20 46ZM49 47L49 48L48 48L48 49L49 49L49 48L50 48L50 47ZM34 48L34 49L35 49L35 48ZM18 49L18 50L19 50L19 52L20 52L20 50L21 50L21 49ZM32 49L32 50L33 50L33 49ZM54 49L54 50L53 50L53 51L52 51L52 50L50 50L50 51L51 51L51 52L53 52L53 51L54 51L54 50L56 50L56 49ZM36 50L36 51L37 51L37 50ZM24 51L24 52L26 52L26 51ZM46 51L46 52L47 52L47 51ZM62 51L62 52L63 52L63 51ZM17 52L17 53L16 53L16 54L17 54L17 53L18 53L18 52ZM36 52L36 54L35 54L35 53L34 53L34 54L35 54L35 55L36 55L36 54L38 54L38 55L39 55L39 54L40 54L40 53L39 53L39 52ZM10 53L10 54L9 54L9 56L11 56L11 57L12 57L12 58L14 58L14 57L13 57L13 56L12 56L12 55L11 55L11 53ZM38 53L38 54L39 54L39 53ZM48 54L48 55L49 55L49 54ZM52 54L52 55L51 55L51 57L46 57L46 58L45 58L45 59L46 59L46 60L47 60L47 59L48 59L48 60L49 60L49 59L50 59L50 58L51 58L51 57L53 57L53 56L54 56L54 55L55 55L55 54ZM28 55L28 56L29 56L29 55ZM52 55L52 56L53 56L53 55ZM56 55L56 56L55 56L55 58L52 58L52 59L55 59L55 60L56 60L56 59L55 59L55 58L56 58L56 56L57 56L57 55ZM20 56L20 57L19 57L19 58L18 58L18 59L19 59L19 60L18 60L18 61L19 61L19 60L20 60L20 59L19 59L19 58L20 58L20 57L21 57L21 56ZM9 57L9 58L10 58L10 59L11 59L11 58L10 58L10 57ZM26 57L26 58L27 58L27 57ZM31 57L31 60L34 60L34 57ZM57 57L57 60L60 60L60 57ZM32 58L32 59L33 59L33 58ZM46 58L46 59L47 59L47 58ZM48 58L48 59L49 59L49 58ZM58 58L58 59L59 59L59 58ZM16 59L16 60L15 60L15 61L16 61L16 60L17 60L17 59ZM60 61L60 62L61 62L61 63L62 63L62 64L63 64L63 63L62 63L62 62L63 62L63 61ZM18 62L18 63L19 63L19 62ZM29 62L29 63L30 63L30 62ZM32 62L32 63L33 63L33 62ZM37 62L37 63L38 63L38 62ZM54 62L54 63L53 63L53 64L54 64L54 63L55 63L55 62ZM42 63L42 64L43 64L43 63ZM0 0L0 7L7 7L7 0ZM1 1L1 6L6 6L6 1ZM2 2L2 5L5 5L5 2ZM58 0L58 7L65 7L65 0ZM59 1L59 6L64 6L64 1ZM60 2L60 5L63 5L63 2ZM0 58L0 65L7 65L7 58ZM1 59L1 64L6 64L6 59ZM2 60L2 63L5 63L5 60Z" fill="#000000"/></g></g></svg>
