<?xml version="1.0" encoding="UTF-8"?>
<svg xmlns="http://www.w3.org/2000/svg" version="1.1" width="300" height="300" viewBox="0 0 300 300"><rect x="0" y="0" width="300" height="300" fill="#ffffff"/><g transform="scale(4.615)"><g transform="translate(0,0)"><path fill-rule="evenodd" d="M10 0L10 2L9 2L9 1L8 1L8 2L9 2L9 3L8 3L8 4L9 4L9 3L12 3L12 2L11 2L11 1L13 1L13 0ZM14 0L14 2L13 2L13 3L14 3L14 4L15 4L15 5L12 5L12 4L11 4L11 5L10 5L10 7L11 7L11 9L9 9L9 8L6 8L6 9L5 9L5 8L0 8L0 13L2 13L2 14L1 14L1 15L2 15L2 17L1 17L1 18L2 18L2 19L3 19L3 20L4 20L4 22L6 22L6 23L7 23L7 24L5 24L5 23L4 23L4 24L5 24L5 25L3 25L3 24L2 24L2 23L3 23L3 21L2 21L2 20L1 20L1 22L2 22L2 23L1 23L1 24L0 24L0 30L1 30L1 31L0 31L0 34L1 34L1 37L0 37L0 38L1 38L1 39L2 39L2 41L4 41L4 43L3 43L3 42L1 42L1 43L0 43L0 45L1 45L1 43L3 43L3 45L2 45L2 46L0 46L0 49L1 49L1 51L0 51L0 53L1 53L1 54L2 54L2 55L3 55L3 56L1 56L1 55L0 55L0 56L1 56L1 57L3 57L3 56L4 56L4 57L5 57L5 56L4 56L4 54L2 54L2 53L1 53L1 52L3 52L3 53L5 53L5 55L7 55L7 56L6 56L6 57L8 57L8 59L9 59L9 58L10 58L10 62L9 62L9 60L8 60L8 65L9 65L9 64L10 64L10 63L11 63L11 62L12 62L12 64L11 64L11 65L15 65L15 64L16 64L16 65L17 65L17 64L16 64L16 63L15 63L15 62L16 62L16 61L15 61L15 60L16 60L16 59L17 59L17 58L14 58L14 59L13 59L13 60L12 60L12 58L13 58L13 57L12 57L12 56L13 56L13 55L11 55L11 56L9 56L9 57L8 57L8 55L10 55L10 53L12 53L12 54L14 54L14 53L15 53L15 56L16 56L16 57L17 57L17 56L18 56L18 57L19 57L19 58L18 58L18 59L19 59L19 58L20 58L20 59L22 59L22 60L21 60L21 63L22 63L22 62L23 62L23 63L24 63L24 64L25 64L25 65L26 65L26 64L27 64L27 65L40 65L40 64L42 64L42 65L44 65L44 64L45 64L45 65L46 65L46 64L47 64L47 65L51 65L51 64L53 64L53 65L54 65L54 64L55 64L55 65L57 65L57 64L55 64L55 63L51 63L51 62L52 62L52 60L53 60L53 62L55 62L55 61L56 61L56 62L57 62L57 63L58 63L58 62L59 62L59 64L58 64L58 65L63 65L63 64L64 64L64 61L63 61L63 60L61 60L61 57L63 57L63 56L64 56L64 58L65 58L65 56L64 56L64 54L65 54L65 52L62 52L62 51L63 51L63 50L65 50L65 49L64 49L64 48L62 48L62 49L63 49L63 50L61 50L61 49L60 49L60 50L61 50L61 52L62 52L62 55L63 55L63 56L61 56L61 53L60 53L60 55L57 55L57 54L59 54L59 53L58 53L58 52L59 52L59 51L58 51L58 50L59 50L59 49L58 49L58 48L59 48L59 47L60 47L60 48L61 48L61 47L63 47L63 45L64 45L64 44L65 44L65 43L63 43L63 44L62 44L62 46L61 46L61 45L59 45L59 47L57 47L57 49L56 49L56 50L57 50L57 51L58 51L58 52L57 52L57 53L56 53L56 55L54 55L54 56L56 56L56 58L55 58L55 57L51 57L51 56L48 56L48 54L50 54L50 55L51 55L51 54L50 54L50 52L51 52L51 50L50 50L50 49L51 49L51 48L47 48L47 46L46 46L46 45L49 45L49 44L48 44L48 43L50 43L50 45L51 45L51 46L48 46L48 47L52 47L52 48L53 48L53 47L54 47L54 48L56 48L56 47L54 47L54 46L56 46L56 45L52 45L52 44L53 44L53 42L55 42L55 41L54 41L54 38L56 38L56 37L54 37L54 35L52 35L52 34L53 34L53 33L51 33L51 32L54 32L54 34L55 34L55 36L56 36L56 35L57 35L57 36L58 36L58 38L59 38L59 35L60 35L60 36L61 36L61 37L60 37L60 39L58 39L58 40L60 40L60 39L61 39L61 37L63 37L63 36L64 36L64 38L65 38L65 35L64 35L64 34L65 34L65 33L63 33L63 32L64 32L64 31L63 31L63 32L62 32L62 31L61 31L61 30L63 30L63 29L65 29L65 28L62 28L62 27L63 27L63 26L65 26L65 25L63 25L63 24L62 24L62 25L63 25L63 26L62 26L62 27L61 27L61 24L60 24L60 23L59 23L59 22L65 22L65 21L64 21L64 20L65 20L65 19L63 19L63 17L64 17L64 18L65 18L65 15L64 15L64 16L62 16L62 18L60 18L60 19L63 19L63 20L62 20L62 21L61 21L61 20L59 20L59 22L58 22L58 23L55 23L55 24L54 24L54 25L51 25L51 23L52 23L52 24L53 24L53 22L55 22L55 21L54 21L54 20L55 20L55 19L51 19L51 18L52 18L52 16L53 16L53 17L54 17L54 18L55 18L55 16L56 16L56 17L57 17L57 15L59 15L59 16L58 16L58 17L61 17L61 16L60 16L60 15L62 15L62 14L63 14L63 13L64 13L64 14L65 14L65 13L64 13L64 12L62 12L62 11L63 11L63 10L65 10L65 9L64 9L64 8L63 8L63 9L62 9L62 8L61 8L61 10L60 10L60 11L61 11L61 12L59 12L59 14L57 14L57 15L56 15L56 14L55 14L55 12L54 12L54 11L53 11L53 10L55 10L55 11L56 11L56 10L55 10L55 9L58 9L58 8L55 8L55 5L54 5L54 4L56 4L56 5L57 5L57 4L56 4L56 3L57 3L57 1L56 1L56 0L55 0L55 1L56 1L56 3L55 3L55 2L54 2L54 3L53 3L53 2L52 2L52 1L54 1L54 0L51 0L51 1L48 1L48 2L47 2L47 1L46 1L46 2L44 2L44 0L39 0L39 1L38 1L38 2L37 2L37 3L36 3L36 2L35 2L35 1L34 1L34 0L32 0L32 1L33 1L33 2L31 2L31 4L30 4L30 7L29 7L29 6L28 6L28 4L29 4L29 2L30 2L30 1L31 1L31 0L29 0L29 2L28 2L28 3L27 3L27 5L26 5L26 4L24 4L24 5L26 5L26 8L27 8L27 6L28 6L28 7L29 7L29 8L28 8L28 9L24 9L24 11L22 11L22 10L23 10L23 9L22 9L22 8L24 8L24 7L25 7L25 6L24 6L24 7L23 7L23 6L22 6L22 5L20 5L20 4L22 4L22 3L20 3L20 2L22 2L22 1L23 1L23 2L24 2L24 3L26 3L26 2L25 2L25 0L21 0L21 1L20 1L20 0L19 0L19 1L18 1L18 2L16 2L16 0ZM26 0L26 1L28 1L28 0ZM40 1L40 2L41 2L41 3L39 3L39 2L38 2L38 3L37 3L37 4L35 4L35 8L39 8L39 9L38 9L38 10L37 10L37 9L36 9L36 10L35 10L35 9L32 9L32 11L31 11L31 10L30 10L30 9L28 9L28 10L29 10L29 11L28 11L28 13L27 13L27 12L26 12L26 11L27 11L27 10L25 10L25 13L24 13L24 12L20 12L20 11L21 11L21 10L22 10L22 9L20 9L20 8L21 8L21 7L22 7L22 6L21 6L21 7L20 7L20 5L19 5L19 7L18 7L18 5L17 5L17 8L19 8L19 9L18 9L18 10L16 10L16 6L15 6L15 8L14 8L14 6L13 6L13 8L14 8L14 9L13 9L13 10L11 10L11 11L14 11L14 12L12 12L12 13L11 13L11 12L10 12L10 14L9 14L9 12L7 12L7 11L6 11L6 10L9 10L9 9L6 9L6 10L3 10L3 9L2 9L2 10L1 10L1 12L5 12L5 13L6 13L6 14L9 14L9 15L10 15L10 17L11 17L11 15L12 15L12 17L13 17L13 20L14 20L14 18L15 18L15 20L16 20L16 21L15 21L15 22L16 22L16 21L17 21L17 22L18 22L18 23L19 23L19 22L18 22L18 21L19 21L19 20L21 20L21 21L20 21L20 24L19 24L19 25L18 25L18 24L17 24L17 25L12 25L12 26L15 26L15 27L14 27L14 28L13 28L13 29L12 29L12 31L11 31L11 30L10 30L10 28L12 28L12 27L8 27L8 26L11 26L11 23L12 23L12 24L13 24L13 23L12 23L12 21L11 21L11 20L12 20L12 19L11 19L11 18L9 18L9 17L6 17L6 18L9 18L9 19L8 19L8 20L9 20L9 21L11 21L11 22L10 22L10 23L8 23L8 21L6 21L6 20L7 20L7 19L5 19L5 18L4 18L4 17L5 17L5 15L4 15L4 17L2 17L2 18L3 18L3 19L4 19L4 20L5 20L5 21L6 21L6 22L7 22L7 23L8 23L8 24L9 24L9 25L5 25L5 26L7 26L7 27L6 27L6 28L7 28L7 29L6 29L6 30L7 30L7 29L8 29L8 28L9 28L9 34L10 34L10 32L11 32L11 34L13 34L13 32L12 32L12 31L13 31L13 29L14 29L14 28L15 28L15 29L16 29L16 30L14 30L14 32L15 32L15 34L17 34L17 35L16 35L16 36L17 36L17 37L16 37L16 38L14 38L14 37L15 37L15 36L14 36L14 35L13 35L13 38L14 38L14 40L13 40L13 39L12 39L12 43L11 43L11 40L10 40L10 39L11 39L11 38L12 38L12 37L11 37L11 36L10 36L10 35L9 35L9 37L8 37L8 35L5 35L5 36L7 36L7 37L5 37L5 38L2 38L2 39L3 39L3 40L5 40L5 39L6 39L6 40L7 40L7 41L6 41L6 42L8 42L8 40L7 40L7 39L8 39L8 38L10 38L10 39L9 39L9 43L8 43L8 44L9 44L9 46L8 46L8 45L6 45L6 46L8 46L8 47L5 47L5 45L4 45L4 46L3 46L3 47L4 47L4 48L1 48L1 49L3 49L3 52L5 52L5 53L6 53L6 54L8 54L8 53L9 53L9 52L8 52L8 50L10 50L10 52L11 52L11 50L12 50L12 51L13 51L13 52L12 52L12 53L13 53L13 52L14 52L14 51L13 51L13 50L15 50L15 48L16 48L16 47L15 47L15 48L14 48L14 47L12 47L12 48L11 48L11 50L10 50L10 49L9 49L9 48L10 48L10 47L9 47L9 46L11 46L11 45L12 45L12 46L13 46L13 45L15 45L15 46L16 46L16 45L17 45L17 46L19 46L19 47L20 47L20 46L19 46L19 45L21 45L21 46L22 46L22 45L24 45L24 46L23 46L23 47L24 47L24 49L25 49L25 48L26 48L26 49L27 49L27 52L31 52L31 53L32 53L32 55L31 55L31 54L30 54L30 53L25 53L25 52L26 52L26 51L25 51L25 52L23 52L23 53L22 53L22 52L21 52L21 51L22 51L22 49L23 49L23 48L22 48L22 49L20 49L20 48L19 48L19 49L18 49L18 47L17 47L17 49L16 49L16 50L18 50L18 51L17 51L17 52L18 52L18 53L16 53L16 52L15 52L15 53L16 53L16 54L17 54L17 55L18 55L18 56L21 56L21 57L20 57L20 58L22 58L22 57L25 57L25 56L26 56L26 57L27 57L27 58L24 58L24 59L29 59L29 60L28 60L28 62L26 62L26 61L27 61L27 60L26 60L26 61L25 61L25 63L27 63L27 64L28 64L28 63L29 63L29 64L31 64L31 63L32 63L32 64L35 64L35 63L36 63L36 64L37 64L37 63L36 63L36 62L39 62L39 61L41 61L41 62L40 62L40 63L42 63L42 64L43 64L43 63L45 63L45 64L46 64L46 63L45 63L45 62L44 62L44 61L45 61L45 60L44 60L44 59L43 59L43 58L45 58L45 57L46 57L46 58L47 58L47 55L46 55L46 54L48 54L48 52L50 52L50 50L48 50L48 51L45 51L45 52L44 52L44 50L40 50L40 51L38 51L38 50L39 50L39 49L38 49L38 50L37 50L37 49L32 49L32 48L29 48L29 49L27 49L27 48L28 48L28 47L27 47L27 46L28 46L28 45L29 45L29 46L30 46L30 47L32 47L32 46L33 46L33 48L34 48L34 47L35 47L35 48L37 48L37 47L38 47L38 48L40 48L40 49L41 49L41 48L42 48L42 47L43 47L43 49L46 49L46 50L47 50L47 48L46 48L46 46L45 46L45 44L44 44L44 43L46 43L46 44L47 44L47 43L48 43L48 42L49 42L49 41L50 41L50 42L53 42L53 40L52 40L52 41L50 41L50 40L51 40L51 39L50 39L50 38L51 38L51 37L53 37L53 36L51 36L51 35L50 35L50 34L51 34L51 33L50 33L50 32L51 32L51 31L49 31L49 30L51 30L51 29L50 29L50 28L51 28L51 27L50 27L50 26L51 26L51 25L49 25L49 26L47 26L47 25L46 25L46 26L44 26L44 27L43 27L43 26L42 26L42 24L40 24L40 23L41 23L41 22L42 22L42 23L43 23L43 24L44 24L44 25L45 25L45 24L44 24L44 22L45 22L45 23L46 23L46 24L50 24L50 23L46 23L46 22L47 22L47 21L45 21L45 20L44 20L44 22L42 22L42 21L43 21L43 19L45 19L45 18L41 18L41 17L43 17L43 16L44 16L44 17L45 17L45 16L46 16L46 18L47 18L47 15L45 15L45 16L44 16L44 15L43 15L43 14L48 14L48 16L49 16L49 17L48 17L48 19L46 19L46 20L49 20L49 21L48 21L48 22L49 22L49 21L50 21L50 22L53 22L53 20L51 20L51 19L50 19L50 18L51 18L51 17L50 17L50 14L51 14L51 13L54 13L54 12L49 12L49 11L48 11L48 10L47 10L47 8L49 8L49 9L50 9L50 10L51 10L51 11L52 11L52 10L53 10L53 9L55 9L55 8L54 8L54 6L53 6L53 3L51 3L51 2L48 2L48 3L50 3L50 5L52 5L52 6L51 6L51 7L52 7L52 6L53 6L53 8L52 8L52 9L51 9L51 8L49 8L49 7L50 7L50 6L49 6L49 4L48 4L48 6L47 6L47 8L46 8L46 6L45 6L45 4L46 4L46 5L47 5L47 4L46 4L46 3L44 3L44 2L43 2L43 1L42 1L42 2L41 2L41 1ZM14 2L14 3L15 3L15 4L18 4L18 3L15 3L15 2ZM34 2L34 3L35 3L35 2ZM42 2L42 3L43 3L43 2ZM19 3L19 4L20 4L20 3ZM32 3L32 4L33 4L33 3ZM39 4L39 5L38 5L38 7L39 7L39 6L40 6L40 8L41 8L41 6L42 6L42 8L43 8L43 9L41 9L41 10L43 10L43 11L42 11L42 12L43 12L43 11L44 11L44 12L45 12L45 13L48 13L48 14L49 14L49 12L48 12L48 11L47 11L47 10L46 10L46 8L45 8L45 6L44 6L44 7L43 7L43 6L42 6L42 5L43 5L43 4L42 4L42 5L41 5L41 4ZM8 5L8 7L9 7L9 5ZM31 5L31 8L34 8L34 5ZM36 5L36 7L37 7L37 5ZM40 5L40 6L41 6L41 5ZM11 6L11 7L12 7L12 6ZM32 6L32 7L33 7L33 6ZM48 6L48 7L49 7L49 6ZM56 6L56 7L57 7L57 6ZM44 8L44 9L45 9L45 8ZM59 8L59 9L60 9L60 8ZM15 10L15 12L14 12L14 13L13 13L13 14L12 14L12 15L13 15L13 16L14 16L14 17L17 17L17 18L16 18L16 20L17 20L17 21L18 21L18 20L17 20L17 19L18 19L18 17L19 17L19 18L20 18L20 19L21 19L21 20L22 20L22 21L21 21L21 24L20 24L20 25L19 25L19 26L18 26L18 27L17 27L17 26L16 26L16 27L17 27L17 29L20 29L20 28L19 28L19 27L21 27L21 26L22 26L22 27L23 27L23 26L25 26L25 25L22 25L22 24L24 24L24 22L25 22L25 21L29 21L29 22L27 22L27 23L25 23L25 24L27 24L27 25L26 25L26 28L27 28L27 27L28 27L28 28L33 28L33 29L32 29L32 30L31 30L31 29L30 29L30 30L29 30L29 31L30 31L30 33L29 33L29 32L28 32L28 31L27 31L27 30L28 30L28 29L26 29L26 31L25 31L25 27L24 27L24 28L23 28L23 29L22 29L22 28L21 28L21 32L20 32L20 33L22 33L22 34L21 34L21 35L19 35L19 34L18 34L18 35L17 35L17 36L18 36L18 37L17 37L17 38L16 38L16 39L18 39L18 40L14 40L14 41L13 41L13 43L15 43L15 45L16 45L16 43L18 43L18 45L19 45L19 44L20 44L20 41L21 41L21 42L22 42L22 43L21 43L21 44L22 44L22 43L23 43L23 44L24 44L24 45L25 45L25 46L27 46L27 45L28 45L28 43L26 43L26 44L24 44L24 42L25 42L25 41L24 41L24 39L27 39L27 38L26 38L26 37L23 37L23 38L24 38L24 39L22 39L22 38L20 38L20 37L22 37L22 36L21 36L21 35L22 35L22 34L25 34L25 33L22 33L22 32L23 32L23 31L24 31L24 32L27 32L27 33L26 33L26 34L27 34L27 35L28 35L28 37L29 37L29 35L33 35L33 36L32 36L32 37L33 37L33 36L34 36L34 38L37 38L37 36L36 36L36 37L35 37L35 35L38 35L38 37L39 37L39 36L41 36L41 34L43 34L43 33L44 33L44 34L45 34L45 33L49 33L49 34L46 34L46 35L44 35L44 36L43 36L43 35L42 35L42 36L43 36L43 37L42 37L42 38L43 38L43 37L44 37L44 36L46 36L46 37L49 37L49 38L48 38L48 39L49 39L49 38L50 38L50 37L51 37L51 36L50 36L50 37L49 37L49 36L48 36L48 35L49 35L49 34L50 34L50 33L49 33L49 32L46 32L46 31L48 31L48 30L49 30L49 28L48 28L48 29L47 29L47 30L46 30L46 28L45 28L45 27L44 27L44 28L42 28L42 27L40 27L40 26L41 26L41 25L39 25L39 26L38 26L38 27L40 27L40 28L41 28L41 29L40 29L40 32L38 32L38 33L37 33L37 32L36 32L36 34L35 34L35 31L36 31L36 30L38 30L38 31L39 31L39 30L38 30L38 28L34 28L34 27L35 27L35 26L34 26L34 25L33 25L33 26L32 26L32 24L34 24L34 23L35 23L35 25L37 25L37 24L36 24L36 22L37 22L37 23L38 23L38 24L39 24L39 22L37 22L37 20L36 20L36 22L33 22L33 21L35 21L35 20L34 20L34 19L35 19L35 18L33 18L33 17L32 17L32 18L33 18L33 19L32 19L32 20L33 20L33 21L29 21L29 20L31 20L31 19L30 19L30 18L31 18L31 17L30 17L30 18L27 18L27 17L26 17L26 16L25 16L25 17L22 17L22 15L23 15L23 16L24 16L24 15L23 15L23 14L24 14L24 13L22 13L22 15L21 15L21 13L19 13L19 11L16 11L16 10ZM33 10L33 11L32 11L32 12L33 12L33 11L35 11L35 14L34 14L34 15L35 15L35 16L34 16L34 17L35 17L35 16L36 16L36 17L37 17L37 16L39 16L39 17L40 17L40 16L41 16L41 15L42 15L42 16L43 16L43 15L42 15L42 14L43 14L43 13L39 13L39 14L38 14L38 12L41 12L41 11L39 11L39 10L38 10L38 12L36 12L36 11L37 11L37 10L36 10L36 11L35 11L35 10ZM57 10L57 12L56 12L56 13L57 13L57 12L58 12L58 11L59 11L59 10ZM29 11L29 13L28 13L28 14L27 14L27 13L25 13L25 15L28 15L28 17L29 17L29 15L30 15L30 16L33 16L33 13L32 13L32 15L30 15L30 14L31 14L31 13L30 13L30 12L31 12L31 11ZM46 11L46 12L47 12L47 11ZM6 12L6 13L7 13L7 12ZM3 13L3 14L2 14L2 15L3 15L3 14L4 14L4 13ZM17 13L17 14L16 14L16 15L17 15L17 14L18 14L18 16L19 16L19 15L20 15L20 14L19 14L19 13ZM29 13L29 14L30 14L30 13ZM14 14L14 15L15 15L15 14ZM37 14L37 15L36 15L36 16L37 16L37 15L38 15L38 14ZM40 14L40 15L39 15L39 16L40 16L40 15L41 15L41 14ZM52 14L52 15L53 15L53 16L54 16L54 15L55 15L55 14L54 14L54 15L53 15L53 14ZM59 14L59 15L60 15L60 14ZM6 15L6 16L8 16L8 15ZM20 17L20 18L21 18L21 19L22 19L22 18L21 18L21 17ZM36 18L36 19L37 19L37 18ZM38 18L38 19L40 19L40 20L41 20L41 19L40 19L40 18ZM56 18L56 21L58 21L58 20L57 20L57 19L59 19L59 18ZM9 19L9 20L11 20L11 19ZM23 19L23 21L22 21L22 22L23 22L23 21L25 21L25 20L26 20L26 19ZM28 19L28 20L29 20L29 19ZM38 20L38 21L39 21L39 20ZM29 22L29 23L28 23L28 24L29 24L29 25L28 25L28 27L32 27L32 26L30 26L30 25L31 25L31 24L30 24L30 23L32 23L32 22ZM14 23L14 24L16 24L16 23ZM64 23L64 24L65 24L65 23ZM57 24L57 25L55 25L55 26L52 26L52 27L53 27L53 28L52 28L52 29L53 29L53 31L54 31L54 32L55 32L55 34L56 34L56 32L55 32L55 31L56 31L56 30L57 30L57 29L56 29L56 30L54 30L54 29L55 29L55 28L56 28L56 26L59 26L59 24ZM20 25L20 26L21 26L21 25ZM36 26L36 27L37 27L37 26ZM46 26L46 27L47 27L47 26ZM2 27L2 28L4 28L4 29L5 29L5 27ZM7 27L7 28L8 28L8 27ZM57 27L57 28L58 28L58 30L61 30L61 29L62 29L62 28L61 28L61 27L59 27L59 28L58 28L58 27ZM44 28L44 30L42 30L42 29L41 29L41 32L40 32L40 33L41 33L41 32L43 32L43 31L45 31L45 28ZM53 28L53 29L54 29L54 28ZM59 28L59 29L61 29L61 28ZM1 29L1 30L2 30L2 31L3 31L3 34L4 34L4 31L3 31L3 30L2 30L2 29ZM23 29L23 30L22 30L22 31L23 31L23 30L24 30L24 29ZM33 29L33 30L35 30L35 29ZM18 30L18 31L20 31L20 30ZM5 31L5 34L8 34L8 31ZM15 31L15 32L16 32L16 33L19 33L19 32L16 32L16 31ZM31 31L31 34L34 34L34 31ZM57 31L57 34L60 34L60 31ZM1 32L1 33L2 33L2 32ZM6 32L6 33L7 33L7 32ZM32 32L32 33L33 33L33 32ZM44 32L44 33L45 33L45 32ZM58 32L58 33L59 33L59 32ZM28 33L28 35L29 35L29 33ZM38 33L38 34L39 34L39 33ZM61 33L61 35L62 35L62 36L63 36L63 35L62 35L62 34L63 34L63 33ZM24 35L24 36L26 36L26 35ZM46 35L46 36L47 36L47 35ZM19 36L19 37L20 37L20 36ZM7 37L7 38L6 38L6 39L7 39L7 38L8 38L8 37ZM40 37L40 38L38 38L38 39L40 39L40 40L41 40L41 39L40 39L40 38L41 38L41 37ZM18 38L18 39L19 39L19 40L21 40L21 41L23 41L23 40L21 40L21 39L19 39L19 38ZM28 38L28 40L27 40L27 41L26 41L26 42L27 42L27 41L29 41L29 40L30 40L30 38ZM44 38L44 39L42 39L42 40L43 40L43 41L42 41L42 42L41 42L41 41L40 41L40 42L38 42L38 41L39 41L39 40L38 40L38 41L37 41L37 40L36 40L36 41L34 41L34 42L36 42L36 41L37 41L37 44L35 44L35 43L31 43L31 42L32 42L32 41L33 41L33 39L31 39L31 41L30 41L30 42L29 42L29 43L30 43L30 44L32 44L32 45L31 45L31 46L32 46L32 45L33 45L33 46L36 46L36 47L37 47L37 44L42 44L42 45L40 45L40 46L41 46L41 47L40 47L40 48L41 48L41 47L42 47L42 46L44 46L44 48L45 48L45 46L44 46L44 44L42 44L42 42L43 42L43 41L44 41L44 42L46 42L46 43L47 43L47 42L46 42L46 41L49 41L49 40L47 40L47 38ZM52 38L52 39L53 39L53 38ZM62 38L62 39L63 39L63 40L61 40L61 41L59 41L59 42L62 42L62 41L63 41L63 42L65 42L65 41L64 41L64 40L65 40L65 39L63 39L63 38ZM34 39L34 40L35 40L35 39ZM55 39L55 40L56 40L56 41L57 41L57 40L56 40L56 39ZM0 40L0 41L1 41L1 40ZM44 40L44 41L45 41L45 40ZM14 41L14 42L15 42L15 43L16 43L16 42L17 42L17 41ZM18 41L18 43L19 43L19 41ZM40 42L40 43L41 43L41 42ZM56 42L56 43L54 43L54 44L56 44L56 43L57 43L57 45L58 45L58 44L59 44L59 43L57 43L57 42ZM4 43L4 44L5 44L5 43ZM6 43L6 44L7 44L7 43ZM51 43L51 44L52 44L52 43ZM60 43L60 44L61 44L61 43ZM12 44L12 45L13 45L13 44ZM26 44L26 45L27 45L27 44ZM34 44L34 45L35 45L35 44ZM38 46L38 47L39 47L39 46ZM52 46L52 47L53 47L53 46ZM60 46L60 47L61 47L61 46ZM26 47L26 48L27 48L27 47ZM4 48L4 51L5 51L5 52L6 52L6 53L8 53L8 52L6 52L6 51L7 51L7 50L6 50L6 49L7 49L7 48ZM12 48L12 49L14 49L14 48ZM52 49L52 52L53 52L53 51L54 51L54 52L56 52L56 51L54 51L54 50L55 50L55 49ZM36 50L36 51L33 51L33 52L32 52L32 51L31 51L31 52L32 52L32 53L33 53L33 54L35 54L35 53L34 53L34 52L36 52L36 53L37 53L37 54L38 54L38 55L37 55L37 56L36 56L36 55L33 55L33 56L31 56L31 55L30 55L30 54L28 54L28 55L30 55L30 57L29 57L29 56L27 56L27 55L26 55L26 56L27 56L27 57L29 57L29 58L30 58L30 60L29 60L29 62L30 62L30 63L31 63L31 62L30 62L30 61L32 61L32 62L33 62L33 61L35 61L35 62L36 62L36 61L37 61L37 60L35 60L35 59L36 59L36 58L37 58L37 57L38 57L38 56L41 56L41 55L40 55L40 54L41 54L41 53L39 53L39 52L38 52L38 53L37 53L37 52L36 52L36 51L37 51L37 50ZM40 51L40 52L42 52L42 54L43 54L43 53L44 53L44 54L45 54L45 53L44 53L44 52L42 52L42 51ZM19 52L19 53L18 53L18 54L20 54L20 55L22 55L22 56L23 56L23 55L24 55L24 56L25 56L25 53L23 53L23 55L22 55L22 53L21 53L21 52ZM20 53L20 54L21 54L21 53ZM38 53L38 54L39 54L39 53ZM53 53L53 54L55 54L55 53ZM44 55L44 56L45 56L45 55ZM52 55L52 56L53 56L53 55ZM56 55L56 56L57 56L57 55ZM10 57L10 58L11 58L11 57ZM31 57L31 60L34 60L34 57ZM35 57L35 58L36 58L36 57ZM39 57L39 58L38 58L38 59L40 59L40 60L41 60L41 61L42 61L42 62L43 62L43 61L44 61L44 60L43 60L43 61L42 61L42 60L41 60L41 59L40 59L40 58L41 58L41 57ZM42 57L42 58L43 58L43 57ZM50 57L50 58L49 58L49 59L47 59L47 61L46 61L46 62L48 62L48 63L47 63L47 64L49 64L49 63L50 63L50 62L51 62L51 60L50 60L50 58L51 58L51 57ZM57 57L57 60L60 60L60 57ZM32 58L32 59L33 59L33 58ZM52 58L52 59L53 59L53 60L54 60L54 61L55 61L55 60L56 60L56 59L55 59L55 58ZM58 58L58 59L59 59L59 58ZM62 58L62 59L63 59L63 58ZM14 59L14 60L13 60L13 61L12 61L12 62L15 62L15 61L14 61L14 60L15 60L15 59ZM54 59L54 60L55 60L55 59ZM18 60L18 61L17 61L17 62L18 62L18 63L20 63L20 62L18 62L18 61L20 61L20 60ZM22 60L22 61L23 61L23 62L24 62L24 61L23 61L23 60ZM38 60L38 61L39 61L39 60ZM48 60L48 62L49 62L49 60ZM57 61L57 62L58 62L58 61ZM60 61L60 62L61 62L61 63L62 63L62 64L63 64L63 63L62 63L62 62L63 62L63 61ZM18 64L18 65L22 65L22 64ZM0 0L0 7L7 7L7 0ZM1 1L1 6L6 6L6 1ZM2 2L2 5L5 5L5 2ZM58 0L58 7L65 7L65 0ZM59 1L59 6L64 6L64 1ZM60 2L60 5L63 5L63 2ZM0 58L0 65L7 65L7 58ZM1 59L1 64L6 64L6 59ZM2 60L2 63L5 63L5 60Z" fill="#000000"/></g></g></svg>
