<?xml version="1.0" encoding="UTF-8"?>
<svg xmlns="http://www.w3.org/2000/svg" version="1.1" width="300" height="300" viewBox="0 0 300 300"><rect x="0" y="0" width="300" height="300" fill="#ffffff"/><g transform="scale(4.615)"><g transform="translate(0,0)"><path fill-rule="evenodd" d="M11 0L11 2L12 2L12 1L13 1L13 2L14 2L14 3L13 3L13 4L14 4L14 5L15 5L15 6L14 6L14 8L12 8L12 7L13 7L13 6L12 6L12 7L11 7L11 6L10 6L10 5L11 5L11 4L12 4L12 3L10 3L10 5L8 5L8 7L9 7L9 8L6 8L6 9L7 9L7 10L6 10L6 11L7 11L7 12L6 12L6 13L5 13L5 14L6 14L6 15L7 15L7 16L5 16L5 15L4 15L4 16L3 16L3 15L2 15L2 14L1 14L1 13L2 13L2 12L4 12L4 11L1 11L1 13L0 13L0 14L1 14L1 15L0 15L0 16L1 16L1 15L2 15L2 16L3 16L3 17L1 17L1 18L0 18L0 19L1 19L1 21L2 21L2 22L3 22L3 21L2 21L2 20L4 20L4 18L5 18L5 17L7 17L7 18L6 18L6 19L5 19L5 21L7 21L7 22L5 22L5 23L4 23L4 24L3 24L3 23L0 23L0 24L1 24L1 25L3 25L3 27L4 27L4 28L5 28L5 29L3 29L3 28L2 28L2 29L1 29L1 30L0 30L0 31L1 31L1 32L0 32L0 33L1 33L1 32L2 32L2 34L3 34L3 35L2 35L2 36L1 36L1 35L0 35L0 36L1 36L1 38L2 38L2 39L1 39L1 40L0 40L0 42L2 42L2 43L3 43L3 45L4 45L4 51L2 51L2 50L3 50L3 48L2 48L2 50L1 50L1 51L2 51L2 53L1 53L1 52L0 52L0 53L1 53L1 54L2 54L2 55L3 55L3 56L1 56L1 55L0 55L0 56L1 56L1 57L3 57L3 56L4 56L4 57L5 57L5 56L4 56L4 54L3 54L3 52L5 52L5 55L8 55L8 56L6 56L6 57L8 57L8 59L9 59L9 60L8 60L8 65L9 65L9 63L12 63L12 64L10 64L10 65L15 65L15 63L16 63L16 65L19 65L19 64L20 64L20 65L22 65L22 63L23 63L23 65L24 65L24 63L23 63L23 62L24 62L24 61L26 61L26 62L25 62L25 63L27 63L27 65L31 65L31 64L32 64L32 65L33 65L33 64L34 64L34 65L35 65L35 64L34 64L34 63L37 63L37 62L38 62L38 63L40 63L40 64L41 64L41 65L44 65L44 64L45 64L45 65L49 65L49 64L47 64L47 63L48 63L48 62L49 62L49 60L48 60L48 61L47 61L47 58L50 58L50 60L51 60L51 62L50 62L50 63L51 63L51 62L52 62L52 60L53 60L53 62L55 62L55 63L54 63L54 64L55 64L55 63L56 63L56 64L57 64L57 63L56 63L56 62L57 62L57 61L58 61L58 62L59 62L59 64L58 64L58 65L61 65L61 64L62 64L62 65L63 65L63 64L64 64L64 61L65 61L65 60L62 60L62 61L61 61L61 58L62 58L62 57L63 57L63 58L65 58L65 57L63 57L63 56L62 56L62 57L61 57L61 55L60 55L60 56L59 56L59 55L58 55L58 54L63 54L63 55L64 55L64 56L65 56L65 55L64 55L64 54L65 54L65 51L64 51L64 50L65 50L65 49L64 49L64 48L62 48L62 47L63 47L63 46L62 46L62 47L61 47L61 45L60 45L60 46L59 46L59 43L54 43L54 44L56 44L56 45L52 45L52 44L53 44L53 42L55 42L55 40L56 40L56 41L58 41L58 40L61 40L61 39L60 39L60 38L62 38L62 37L63 37L63 40L62 40L62 41L63 41L63 42L62 42L62 43L60 43L60 44L62 44L62 45L64 45L64 44L62 44L62 43L63 43L63 42L65 42L65 40L64 40L64 38L65 38L65 37L64 37L64 36L65 36L65 35L63 35L63 34L65 34L65 33L63 33L63 32L62 32L62 30L58 30L58 28L59 28L59 26L58 26L58 28L56 28L56 25L58 25L58 24L59 24L59 25L61 25L61 26L60 26L60 27L61 27L61 28L60 28L60 29L63 29L63 28L64 28L64 29L65 29L65 28L64 28L64 26L65 26L65 25L64 25L64 24L65 24L65 23L63 23L63 20L62 20L62 23L63 23L63 24L60 24L60 23L59 23L59 22L61 22L61 20L58 20L58 19L60 19L60 17L61 17L61 16L62 16L62 18L61 18L61 19L63 19L63 18L65 18L65 15L64 15L64 16L62 16L62 15L63 15L63 13L64 13L64 14L65 14L65 13L64 13L64 12L65 12L65 11L64 11L64 10L65 10L65 9L64 9L64 8L63 8L63 9L64 9L64 10L62 10L62 8L61 8L61 9L60 9L60 8L59 8L59 10L58 10L58 8L56 8L56 9L55 9L55 8L54 8L54 7L55 7L55 5L54 5L54 4L56 4L56 5L57 5L57 4L56 4L56 3L57 3L57 1L56 1L56 0L55 0L55 1L56 1L56 3L55 3L55 2L54 2L54 3L53 3L53 1L54 1L54 0L53 0L53 1L52 1L52 0L51 0L51 1L50 1L50 2L49 2L49 1L48 1L48 2L47 2L47 1L46 1L46 2L45 2L45 1L43 1L43 0L41 0L41 1L40 1L40 0L39 0L39 1L38 1L38 2L37 2L37 3L36 3L36 0L35 0L35 1L34 1L34 2L32 2L32 0L29 0L29 3L28 3L28 4L27 4L27 0L26 0L26 1L25 1L25 0L22 0L22 2L21 2L21 3L19 3L19 4L18 4L18 3L17 3L17 2L18 2L18 1L17 1L17 2L16 2L16 3L15 3L15 2L14 2L14 1L15 1L15 0L14 0L14 1L13 1L13 0ZM8 1L8 2L9 2L9 1ZM30 1L30 2L31 2L31 3L29 3L29 4L28 4L28 5L29 5L29 7L28 7L28 6L27 6L27 7L26 7L26 6L25 6L25 5L27 5L27 4L25 4L25 3L26 3L26 2L25 2L25 3L23 3L23 4L22 4L22 3L21 3L21 4L20 4L20 6L19 6L19 5L18 5L18 4L17 4L17 3L16 3L16 4L15 4L15 5L16 5L16 4L17 4L17 5L18 5L18 6L17 6L17 8L18 8L18 6L19 6L19 7L20 7L20 8L19 8L19 9L18 9L18 10L17 10L17 9L16 9L16 8L15 8L15 9L14 9L14 10L13 10L13 9L12 9L12 8L11 8L11 12L12 12L12 14L10 14L10 15L9 15L9 14L8 14L8 13L6 13L6 14L8 14L8 16L7 16L7 17L8 17L8 18L7 18L7 19L6 19L6 20L8 20L8 21L9 21L9 24L8 24L8 25L5 25L5 26L7 26L7 27L5 27L5 28L7 28L7 29L6 29L6 30L7 30L7 29L9 29L9 28L10 28L10 29L11 29L11 30L9 30L9 31L12 31L12 32L11 32L11 33L9 33L9 34L10 34L10 35L14 35L14 36L12 36L12 37L11 37L11 38L10 38L10 37L9 37L9 38L10 38L10 39L8 39L8 40L7 40L7 39L6 39L6 40L4 40L4 39L5 39L5 38L4 38L4 37L5 37L5 36L9 36L9 35L5 35L5 36L4 36L4 37L2 37L2 38L3 38L3 39L2 39L2 40L1 40L1 41L2 41L2 42L4 42L4 43L6 43L6 44L5 44L5 45L6 45L6 46L5 46L5 47L6 47L6 48L5 48L5 49L6 49L6 50L7 50L7 49L6 49L6 48L8 48L8 49L10 49L10 47L11 47L11 48L12 48L12 49L11 49L11 50L9 50L9 51L8 51L8 54L9 54L9 55L10 55L10 56L11 56L11 57L10 57L10 58L9 58L9 59L10 59L10 60L9 60L9 61L10 61L10 62L11 62L11 61L14 61L14 62L16 62L16 61L17 61L17 62L18 62L18 64L19 64L19 63L20 63L20 62L19 62L19 61L21 61L21 63L22 63L22 61L24 61L24 59L25 59L25 58L23 58L23 59L22 59L22 58L21 58L21 57L25 57L25 55L22 55L22 54L23 54L23 52L24 52L24 53L26 53L26 54L27 54L27 56L26 56L26 57L27 57L27 56L28 56L28 54L30 54L30 55L29 55L29 56L30 56L30 55L33 55L33 56L34 56L34 55L35 55L35 57L36 57L36 58L35 58L35 60L38 60L38 62L39 62L39 61L43 61L43 62L42 62L42 63L43 63L43 64L44 64L44 63L45 63L45 64L46 64L46 63L45 63L45 62L44 62L44 61L45 61L45 60L44 60L44 59L46 59L46 58L47 58L47 57L45 57L45 56L44 56L44 55L46 55L46 56L49 56L49 57L50 57L50 58L51 58L51 57L53 57L53 58L52 58L52 59L53 59L53 60L54 60L54 61L55 61L55 60L56 60L56 59L55 59L55 58L56 58L56 56L58 56L58 55L56 55L56 56L55 56L55 58L54 58L54 57L53 57L53 56L52 56L52 55L55 55L55 54L53 54L53 53L56 53L56 54L57 54L57 52L58 52L58 53L59 53L59 52L60 52L60 53L62 53L62 52L63 52L63 51L62 51L62 52L60 52L60 51L61 51L61 50L63 50L63 49L62 49L62 48L60 48L60 49L59 49L59 48L58 48L58 49L59 49L59 50L58 50L58 51L57 51L57 46L58 46L58 47L59 47L59 46L58 46L58 45L56 45L56 46L54 46L54 48L52 48L52 47L53 47L53 46L52 46L52 47L51 47L51 48L52 48L52 49L53 49L53 52L52 52L52 51L51 51L51 53L50 53L50 54L48 54L48 52L49 52L49 51L45 51L45 50L48 50L48 48L49 48L49 47L48 47L48 46L51 46L51 45L50 45L50 43L48 43L48 42L47 42L47 40L49 40L49 39L50 39L50 42L51 42L51 44L52 44L52 42L53 42L53 41L54 41L54 40L52 40L52 41L51 41L51 39L50 39L50 38L51 38L51 37L53 37L53 36L51 36L51 37L50 37L50 38L49 38L49 37L46 37L46 36L47 36L47 35L48 35L48 36L49 36L49 35L50 35L50 34L52 34L52 35L54 35L54 37L56 37L56 38L54 38L54 39L56 39L56 40L57 40L57 37L58 37L58 39L59 39L59 37L61 37L61 35L62 35L62 36L63 36L63 35L62 35L62 34L63 34L63 33L62 33L62 32L61 32L61 35L59 35L59 36L55 36L55 34L56 34L56 32L55 32L55 34L53 34L53 32L54 32L54 31L56 31L56 30L57 30L57 29L56 29L56 30L54 30L54 29L55 29L55 26L54 26L54 27L53 27L53 28L52 28L52 29L53 29L53 32L52 32L52 31L50 31L50 32L52 32L52 33L50 33L50 34L49 34L49 33L48 33L48 32L49 32L49 30L51 30L51 29L50 29L50 28L51 28L51 27L52 27L52 26L53 26L53 24L54 24L54 23L57 23L57 24L58 24L58 23L57 23L57 22L59 22L59 21L56 21L56 20L57 20L57 18L59 18L59 17L56 17L56 16L55 16L55 14L56 14L56 15L57 15L57 14L59 14L59 15L58 15L58 16L59 16L59 15L60 15L60 16L61 16L61 15L62 15L62 14L61 14L61 13L62 13L62 12L63 12L63 11L62 11L62 12L61 12L61 10L60 10L60 12L61 12L61 13L59 13L59 11L58 11L58 12L57 12L57 11L56 11L56 10L57 10L57 9L56 9L56 10L53 10L53 11L54 11L54 12L49 12L49 11L48 11L48 10L49 10L49 9L50 9L50 10L52 10L52 9L54 9L54 8L52 8L52 9L50 9L50 8L51 8L51 7L52 7L52 6L53 6L53 7L54 7L54 6L53 6L53 3L51 3L51 2L52 2L52 1L51 1L51 2L50 2L50 3L51 3L51 4L50 4L50 5L49 5L49 4L48 4L48 6L47 6L47 7L48 7L48 8L47 8L47 9L46 9L46 10L45 10L45 8L44 8L44 6L45 6L45 7L46 7L46 6L45 6L45 4L46 4L46 5L47 5L47 4L46 4L46 3L44 3L44 2L43 2L43 1L42 1L42 2L41 2L41 3L40 3L40 1L39 1L39 2L38 2L38 3L37 3L37 4L36 4L36 3L35 3L35 2L34 2L34 3L35 3L35 7L36 7L36 8L37 8L37 7L38 7L38 8L39 8L39 9L37 9L37 11L34 11L34 10L35 10L35 9L33 9L33 10L31 10L31 12L30 12L30 10L29 10L29 9L30 9L30 8L29 8L29 7L30 7L30 4L31 4L31 3L32 3L32 4L33 4L33 3L32 3L32 2L31 2L31 1ZM42 2L42 3L43 3L43 4L42 4L42 5L41 5L41 4L39 4L39 5L38 5L38 7L39 7L39 6L40 6L40 8L41 8L41 6L42 6L42 8L43 8L43 6L42 6L42 5L43 5L43 4L44 4L44 3L43 3L43 2ZM48 2L48 3L49 3L49 2ZM8 3L8 4L9 4L9 3ZM21 4L21 6L20 6L20 7L21 7L21 8L20 8L20 9L21 9L21 10L22 10L22 11L20 11L20 10L18 10L18 11L19 11L19 12L17 12L17 11L16 11L16 10L14 10L14 11L13 11L13 10L12 10L12 12L13 12L13 15L12 15L12 17L11 17L11 18L13 18L13 19L12 19L12 20L10 20L10 19L9 19L9 18L10 18L10 16L11 16L11 15L10 15L10 16L9 16L9 18L8 18L8 20L9 20L9 21L10 21L10 22L11 22L11 23L12 23L12 24L10 24L10 25L9 25L9 26L10 26L10 25L11 25L11 27L13 27L13 28L12 28L12 31L13 31L13 29L14 29L14 32L13 32L13 33L11 33L11 34L13 34L13 33L14 33L14 35L16 35L16 33L17 33L17 35L18 35L18 33L21 33L21 34L20 34L20 36L19 36L19 37L18 37L18 36L16 36L16 37L15 37L15 36L14 36L14 37L13 37L13 38L14 38L14 37L15 37L15 39L11 39L11 40L10 40L10 41L9 41L9 40L8 40L8 42L9 42L9 43L7 43L7 42L6 42L6 43L7 43L7 44L6 44L6 45L7 45L7 46L6 46L6 47L7 47L7 46L8 46L8 45L9 45L9 46L10 46L10 41L11 41L11 40L12 40L12 41L13 41L13 40L14 40L14 41L17 41L17 42L15 42L15 43L14 43L14 44L13 44L13 43L12 43L12 42L11 42L11 43L12 43L12 44L11 44L11 45L14 45L14 44L16 44L16 43L17 43L17 45L20 45L20 44L21 44L21 47L22 47L22 46L23 46L23 47L24 47L24 48L26 48L26 47L27 47L27 49L26 49L26 50L27 50L27 49L29 49L29 48L28 48L28 47L30 47L30 49L31 49L31 52L30 52L30 53L31 53L31 52L32 52L32 53L33 53L33 54L36 54L36 55L37 55L37 56L36 56L36 57L37 57L37 59L38 59L38 60L39 60L39 58L38 58L38 57L37 57L37 56L39 56L39 54L38 54L38 53L40 53L40 52L42 52L42 54L43 54L43 53L44 53L44 54L45 54L45 53L44 53L44 52L45 52L45 51L44 51L44 49L42 49L42 48L43 48L43 47L42 47L42 48L41 48L41 47L39 47L39 46L38 46L38 45L39 45L39 44L41 44L41 43L40 43L40 41L39 41L39 42L38 42L38 43L39 43L39 44L38 44L38 45L37 45L37 44L35 44L35 43L34 43L34 41L33 41L33 40L35 40L35 41L38 41L38 40L41 40L41 38L40 38L40 37L39 37L39 35L40 35L40 36L41 36L41 35L42 35L42 36L43 36L43 37L42 37L42 38L43 38L43 37L44 37L44 38L45 38L45 39L42 39L42 40L43 40L43 41L41 41L41 42L43 42L43 43L42 43L42 44L43 44L43 45L42 45L42 46L44 46L44 48L45 48L45 46L46 46L46 49L47 49L47 46L46 46L46 45L49 45L49 44L48 44L48 43L47 43L47 42L46 42L46 40L47 40L47 38L45 38L45 37L44 37L44 36L46 36L46 35L47 35L47 34L45 34L45 33L46 33L46 32L48 32L48 30L49 30L49 28L48 28L48 29L47 29L47 30L46 30L46 28L45 28L45 27L48 27L48 26L50 26L50 27L51 27L51 26L52 26L52 25L51 25L51 24L48 24L48 26L46 26L46 25L44 25L44 24L45 24L45 23L44 23L44 20L45 20L45 21L47 21L47 22L46 22L46 23L49 23L49 22L50 22L50 23L52 23L52 24L53 24L53 22L55 22L55 21L54 21L54 20L55 20L55 19L52 19L52 18L50 18L50 17L52 17L52 16L53 16L53 18L56 18L56 17L55 17L55 16L53 16L53 15L54 15L54 14L55 14L55 12L54 12L54 13L51 13L51 14L50 14L50 15L51 15L51 16L50 16L50 17L49 17L49 16L48 16L48 17L49 17L49 20L46 20L46 19L47 19L47 18L44 18L44 17L42 17L42 16L41 16L41 15L40 15L40 14L43 14L43 15L44 15L44 16L45 16L45 17L46 17L46 15L48 15L48 14L49 14L49 12L48 12L48 11L47 11L47 10L46 10L46 11L44 11L44 10L43 10L43 9L42 9L42 10L41 10L41 11L39 11L39 10L38 10L38 11L39 11L39 12L36 12L36 13L35 13L35 12L34 12L34 11L32 11L32 12L31 12L31 13L32 13L32 14L33 14L33 15L31 15L31 14L29 14L29 15L28 15L28 16L27 16L27 17L26 17L26 18L27 18L27 23L26 23L26 24L25 24L25 25L24 25L24 24L23 24L23 25L21 25L21 24L18 24L18 23L17 23L17 24L16 24L16 23L15 23L15 24L13 24L13 23L14 23L14 22L13 22L13 20L14 20L14 21L15 21L15 22L16 22L16 21L15 21L15 20L18 20L18 21L17 21L17 22L19 22L19 23L22 23L22 22L20 22L20 21L22 21L22 20L20 20L20 21L19 21L19 19L20 19L20 18L18 18L18 19L16 19L16 18L15 18L15 20L14 20L14 18L13 18L13 17L14 17L14 16L15 16L15 17L17 17L17 16L16 16L16 15L14 15L14 14L16 14L16 12L17 12L17 13L20 13L20 12L21 12L21 16L19 16L19 15L20 15L20 14L19 14L19 15L18 15L18 14L17 14L17 15L18 15L18 17L21 17L21 19L22 19L22 18L23 18L23 19L24 19L24 20L26 20L26 19L24 19L24 18L25 18L25 17L21 17L21 16L23 16L23 15L24 15L24 16L26 16L26 14L28 14L28 11L29 11L29 10L28 10L28 9L29 9L29 8L28 8L28 7L27 7L27 9L26 9L26 12L27 12L27 13L26 13L26 14L25 14L25 12L23 12L23 9L21 9L21 8L24 8L24 7L25 7L25 6L24 6L24 5L25 5L25 4L23 4L23 6L22 6L22 4ZM31 5L31 8L34 8L34 5ZM40 5L40 6L41 6L41 5ZM50 5L50 7L51 7L51 6L52 6L52 5ZM9 6L9 7L10 7L10 6ZM15 6L15 7L16 7L16 6ZM21 6L21 7L22 7L22 6ZM23 6L23 7L24 7L24 6ZM32 6L32 7L33 7L33 6ZM36 6L36 7L37 7L37 6ZM48 6L48 7L49 7L49 6ZM56 6L56 7L57 7L57 6ZM0 8L0 9L1 9L1 10L5 10L5 8ZM48 8L48 9L49 9L49 8ZM24 9L24 10L25 10L25 9ZM8 10L8 12L9 12L9 10ZM27 10L27 11L28 11L28 10ZM42 10L42 11L41 11L41 12L39 12L39 13L38 13L38 14L37 14L37 13L36 13L36 15L35 15L35 16L29 16L29 17L27 17L27 18L29 18L29 19L28 19L28 20L29 20L29 21L28 21L28 23L27 23L27 24L26 24L26 25L28 25L28 26L29 26L29 28L26 28L26 27L27 27L27 26L24 26L24 25L23 25L23 26L22 26L22 27L23 27L23 28L21 28L21 27L20 27L20 26L21 26L21 25L20 25L20 26L19 26L19 25L18 25L18 24L17 24L17 25L16 25L16 24L15 24L15 25L13 25L13 24L12 24L12 26L13 26L13 27L14 27L14 28L15 28L15 25L16 25L16 26L17 26L17 27L16 27L16 29L15 29L15 30L16 30L16 29L17 29L17 32L19 32L19 31L20 31L20 30L19 30L19 29L21 29L21 30L22 30L22 29L24 29L24 30L23 30L23 31L21 31L21 33L23 33L23 31L24 31L24 33L25 33L25 32L26 32L26 33L27 33L27 36L29 36L29 37L25 37L25 36L26 36L26 35L25 35L25 34L23 34L23 37L22 37L22 36L21 36L21 37L20 37L20 38L19 38L19 39L18 39L18 37L16 37L16 38L17 38L17 40L19 40L19 41L18 41L18 42L17 42L17 43L18 43L18 42L20 42L20 43L19 43L19 44L20 44L20 43L21 43L21 44L22 44L22 45L23 45L23 46L24 46L24 45L23 45L23 43L24 43L24 41L25 41L25 42L26 42L26 43L25 43L25 44L26 44L26 45L27 45L27 46L30 46L30 45L28 45L28 44L29 44L29 43L28 43L28 44L27 44L27 42L26 42L26 41L28 41L28 42L30 42L30 44L31 44L31 49L32 49L32 50L33 50L33 51L32 51L32 52L33 52L33 51L35 51L35 52L34 52L34 53L35 53L35 52L37 52L37 53L38 53L38 52L39 52L39 51L37 51L37 50L39 50L39 49L41 49L41 48L39 48L39 47L38 47L38 46L37 46L37 45L36 45L36 46L35 46L35 45L34 45L34 44L33 44L33 43L32 43L32 42L33 42L33 41L32 41L32 42L30 42L30 41L28 41L28 40L30 40L30 39L31 39L31 40L33 40L33 39L32 39L32 38L33 38L33 37L34 37L34 39L35 39L35 38L36 38L36 40L37 40L37 39L38 39L38 38L39 38L39 39L40 39L40 38L39 38L39 37L38 37L38 35L36 35L36 34L41 34L41 33L43 33L43 34L42 34L42 35L43 35L43 36L44 36L44 35L45 35L45 34L44 34L44 33L45 33L45 32L44 32L44 33L43 33L43 32L42 32L42 31L45 31L45 28L44 28L44 27L45 27L45 26L44 26L44 25L43 25L43 24L44 24L44 23L43 23L43 22L42 22L42 21L43 21L43 18L42 18L42 17L41 17L41 16L39 16L39 15L38 15L38 14L39 14L39 13L41 13L41 12L42 12L42 11L43 11L43 14L48 14L48 13L45 13L45 12L44 12L44 11L43 11L43 10ZM15 11L15 12L14 12L14 13L15 13L15 12L16 12L16 11ZM46 11L46 12L47 12L47 11ZM22 12L22 13L23 13L23 14L22 14L22 15L23 15L23 14L24 14L24 13L23 13L23 12ZM32 12L32 13L33 13L33 14L35 14L35 13L33 13L33 12ZM56 12L56 13L57 13L57 12ZM52 14L52 15L53 15L53 14ZM60 14L60 15L61 15L61 14ZM35 16L35 18L34 18L34 17L32 17L32 20L31 20L31 19L29 19L29 20L31 20L31 22L30 22L30 21L29 21L29 22L30 22L30 24L31 24L31 25L30 25L30 26L31 26L31 25L32 25L32 26L33 26L33 27L30 27L30 28L29 28L29 31L28 31L28 33L29 33L29 34L28 34L28 35L29 35L29 36L30 36L30 37L33 37L33 36L34 36L34 37L35 37L35 33L37 33L37 32L36 32L36 31L35 31L35 30L33 30L33 29L32 29L32 28L35 28L35 29L36 29L36 30L37 30L37 31L38 31L38 33L39 33L39 32L41 32L41 31L42 31L42 30L44 30L44 28L41 28L41 26L40 26L40 25L39 25L39 24L41 24L41 23L42 23L42 22L41 22L41 21L40 21L40 20L41 20L41 19L40 19L40 18L36 18L36 17L37 17L37 16ZM38 16L38 17L39 17L39 16ZM3 17L3 18L4 18L4 17ZM30 17L30 18L31 18L31 17ZM34 19L34 20L35 20L35 21L33 21L33 20L32 20L32 21L33 21L33 22L31 22L31 24L32 24L32 25L34 25L34 26L35 26L35 28L37 28L37 27L36 27L36 26L37 26L37 25L38 25L38 26L39 26L39 25L38 25L38 24L39 24L39 23L36 23L36 22L40 22L40 21L38 21L38 20L39 20L39 19L36 19L36 20L35 20L35 19ZM36 20L36 21L37 21L37 20ZM49 20L49 21L48 21L48 22L49 22L49 21L50 21L50 22L53 22L53 20ZM11 21L11 22L12 22L12 21ZM23 21L23 23L25 23L25 22L26 22L26 21ZM64 21L64 22L65 22L65 21ZM33 22L33 23L32 23L32 24L33 24L33 23L34 23L34 24L35 24L35 26L36 26L36 25L37 25L37 24L35 24L35 22ZM6 23L6 24L7 24L7 23ZM28 24L28 25L29 25L29 24ZM42 25L42 26L43 26L43 25ZM50 25L50 26L51 26L51 25ZM0 26L0 28L1 28L1 26ZM8 27L8 28L9 28L9 27ZM17 27L17 29L19 29L19 27ZM24 27L24 29L25 29L25 30L27 30L27 29L26 29L26 28L25 28L25 27ZM38 27L38 30L39 30L39 31L40 31L40 29L41 29L41 28L40 28L40 27ZM62 27L62 28L63 28L63 27ZM30 28L30 29L31 29L31 28ZM53 28L53 29L54 29L54 28ZM2 29L2 30L1 30L1 31L2 31L2 32L4 32L4 31L3 31L3 29ZM18 30L18 31L19 31L19 30ZM5 31L5 34L8 34L8 31ZM15 31L15 32L14 32L14 33L15 33L15 32L16 32L16 31ZM26 31L26 32L27 32L27 31ZM31 31L31 34L34 34L34 31ZM57 31L57 34L60 34L60 31ZM64 31L64 32L65 32L65 31ZM6 32L6 33L7 33L7 32ZM29 32L29 33L30 33L30 32ZM32 32L32 33L33 33L33 32ZM58 32L58 33L59 33L59 32ZM21 34L21 35L22 35L22 34ZM48 34L48 35L49 35L49 34ZM24 35L24 36L25 36L25 35ZM36 36L36 38L37 38L37 36ZM6 37L6 38L7 38L7 37ZM21 37L21 38L20 38L20 39L21 39L21 40L20 40L20 41L21 41L21 42L22 42L22 43L23 43L23 41L21 41L21 40L22 40L22 39L23 39L23 40L25 40L25 41L26 41L26 40L28 40L28 39L30 39L30 38L27 38L27 39L26 39L26 38L25 38L25 37L23 37L23 38L22 38L22 37ZM21 38L21 39L22 39L22 38ZM23 38L23 39L24 39L24 38ZM48 38L48 39L49 39L49 38ZM52 38L52 39L53 39L53 38ZM45 39L45 40L44 40L44 41L45 41L45 40L46 40L46 39ZM3 40L3 41L4 41L4 42L5 42L5 41L4 41L4 40ZM6 40L6 41L7 41L7 40ZM63 40L63 41L64 41L64 40ZM59 41L59 42L61 42L61 41ZM36 42L36 43L37 43L37 42ZM0 43L0 44L1 44L1 46L2 46L2 47L3 47L3 46L2 46L2 44L1 44L1 43ZM43 43L43 44L44 44L44 46L45 46L45 44L44 44L44 43ZM46 43L46 44L47 44L47 43ZM7 44L7 45L8 45L8 44ZM32 44L32 45L33 45L33 46L32 46L32 49L34 49L34 48L35 48L35 47L34 47L34 48L33 48L33 46L34 46L34 45L33 45L33 44ZM15 45L15 46L14 46L14 47L13 47L13 48L14 48L14 49L13 49L13 51L12 51L12 50L11 50L11 51L10 51L10 52L9 52L9 54L10 54L10 53L11 53L11 51L12 51L12 52L13 52L13 51L14 51L14 52L16 52L16 53L15 53L15 55L13 55L13 54L11 54L11 56L13 56L13 57L15 57L15 56L16 56L16 57L19 57L19 59L18 59L18 58L17 58L17 59L18 59L18 61L19 61L19 60L20 60L20 57L21 57L21 56L22 56L22 55L21 55L21 54L19 54L19 50L18 50L18 51L17 51L17 50L15 50L15 49L21 49L21 50L20 50L20 51L22 51L22 50L23 50L23 51L24 51L24 50L25 50L25 49L24 49L24 50L23 50L23 49L21 49L21 48L18 48L18 47L20 47L20 46L17 46L17 48L16 48L16 47L15 47L15 46L16 46L16 45ZM40 45L40 46L41 46L41 45ZM11 46L11 47L12 47L12 46ZM36 46L36 47L37 47L37 46ZM55 47L55 48L54 48L54 50L55 50L55 48L56 48L56 47ZM36 48L36 50L35 50L35 51L36 51L36 50L37 50L37 49L38 49L38 48ZM50 49L50 50L51 50L51 49ZM60 49L60 50L61 50L61 49ZM14 50L14 51L15 51L15 50ZM29 50L29 51L30 51L30 50ZM40 50L40 51L42 51L42 52L43 52L43 50ZM6 51L6 52L7 52L7 51ZM16 51L16 52L17 52L17 53L16 53L16 54L17 54L17 55L16 55L16 56L17 56L17 55L18 55L18 56L20 56L20 55L18 55L18 54L17 54L17 53L18 53L18 52L17 52L17 51ZM25 51L25 52L26 52L26 51ZM27 51L27 52L28 52L28 53L29 53L29 52L28 52L28 51ZM54 51L54 52L56 52L56 51ZM58 51L58 52L59 52L59 51ZM20 52L20 53L22 53L22 52ZM6 53L6 54L7 54L7 53ZM37 54L37 55L38 55L38 54ZM40 54L40 56L42 56L42 55L41 55L41 54ZM46 54L46 55L48 55L48 54ZM50 54L50 55L51 55L51 54ZM43 56L43 57L41 57L41 58L43 58L43 59L42 59L42 60L43 60L43 61L44 61L44 60L43 60L43 59L44 59L44 58L45 58L45 57L44 57L44 56ZM50 56L50 57L51 57L51 56ZM11 57L11 58L10 58L10 59L11 59L11 60L10 60L10 61L11 61L11 60L12 60L12 59L13 59L13 60L14 60L14 61L16 61L16 60L15 60L15 59L14 59L14 58L12 58L12 57ZM28 57L28 59L27 59L27 58L26 58L26 61L27 61L27 60L28 60L28 59L29 59L29 60L30 60L30 59L29 59L29 57ZM31 57L31 60L34 60L34 57ZM57 57L57 60L60 60L60 57ZM11 58L11 59L12 59L12 58ZM32 58L32 59L33 59L33 58ZM58 58L58 59L59 59L59 58ZM21 59L21 60L22 60L22 59ZM40 59L40 60L41 60L41 59ZM54 59L54 60L55 60L55 59ZM28 61L28 62L29 62L29 63L28 63L28 64L31 64L31 63L33 63L33 62L32 62L32 61ZM34 61L34 62L35 62L35 61ZM46 61L46 62L47 62L47 61ZM60 61L60 62L61 62L61 63L62 63L62 64L63 64L63 62L61 62L61 61ZM12 62L12 63L13 63L13 64L14 64L14 63L13 63L13 62ZM30 62L30 63L31 63L31 62ZM40 62L40 63L41 63L41 62ZM52 63L52 64L50 64L50 65L52 65L52 64L53 64L53 63ZM25 64L25 65L26 65L26 64ZM36 64L36 65L37 65L37 64ZM38 64L38 65L39 65L39 64ZM0 0L0 7L7 7L7 0ZM1 1L1 6L6 6L6 1ZM2 2L2 5L5 5L5 2ZM58 0L58 7L65 7L65 0ZM59 1L59 6L64 6L64 1ZM60 2L60 5L63 5L63 2ZM0 58L0 65L7 65L7 58ZM1 59L1 64L6 64L6 59ZM2 60L2 63L5 63L5 60Z" fill="#000000"/></g></g></svg>
