<?xml version="1.0" encoding="UTF-8"?>
<svg xmlns="http://www.w3.org/2000/svg" version="1.1" width="300" height="300" viewBox="0 0 300 300"><rect x="0" y="0" width="300" height="300" fill="#ffffff"/><g transform="scale(4.615)"><g transform="translate(0,0)"><path fill-rule="evenodd" d="M10 0L10 1L8 1L8 2L9 2L9 3L8 3L8 4L9 4L9 5L8 5L8 7L9 7L9 8L6 8L6 9L8 9L8 10L10 10L10 11L12 11L12 13L10 13L10 12L9 12L9 11L7 11L7 10L5 10L5 8L0 8L0 9L2 9L2 10L3 10L3 9L4 9L4 10L5 10L5 11L4 11L4 13L3 13L3 14L4 14L4 15L3 15L3 16L4 16L4 17L5 17L5 18L4 18L4 19L2 19L2 20L3 20L3 21L5 21L5 23L4 23L4 22L1 22L1 20L0 20L0 22L1 22L1 23L2 23L2 25L1 25L1 24L0 24L0 25L1 25L1 26L0 26L0 27L1 27L1 29L0 29L0 31L1 31L1 30L2 30L2 32L3 32L3 34L4 34L4 35L3 35L3 37L1 37L1 36L2 36L2 35L1 35L1 36L0 36L0 37L1 37L1 38L0 38L0 39L1 39L1 41L2 41L2 39L1 39L1 38L3 38L3 37L4 37L4 36L5 36L5 37L8 37L8 35L9 35L9 36L10 36L10 38L4 38L4 39L3 39L3 41L4 41L4 42L2 42L2 43L0 43L0 46L2 46L2 47L0 47L0 48L3 48L3 49L1 49L1 50L0 50L0 51L1 51L1 50L4 50L4 51L3 51L3 52L1 52L1 53L0 53L0 54L1 54L1 53L2 53L2 55L3 55L3 56L1 56L1 55L0 55L0 56L1 56L1 57L3 57L3 56L4 56L4 57L5 57L5 56L4 56L4 54L3 54L3 53L5 53L5 55L8 55L8 54L9 54L9 56L8 56L8 59L10 59L10 58L9 58L9 57L10 57L10 56L11 56L11 57L12 57L12 56L11 56L11 55L10 55L10 54L12 54L12 55L13 55L13 56L16 56L16 57L17 57L17 56L18 56L18 57L19 57L19 58L20 58L20 57L21 57L21 58L22 58L22 59L20 59L20 60L22 60L22 59L23 59L23 60L24 60L24 61L22 61L22 63L21 63L21 61L19 61L19 59L18 59L18 58L12 58L12 59L11 59L11 60L13 60L13 61L11 61L11 62L10 62L10 60L8 60L8 65L9 65L9 63L10 63L10 65L11 65L11 64L13 64L13 65L15 65L15 63L16 63L16 65L19 65L19 64L20 64L20 65L22 65L22 63L23 63L23 65L24 65L24 63L23 63L23 62L24 62L24 61L25 61L25 63L28 63L28 62L27 62L27 61L32 61L32 62L33 62L33 64L32 64L32 63L31 63L31 62L30 62L30 63L31 63L31 64L28 64L28 65L33 65L33 64L34 64L34 65L35 65L35 64L34 64L34 63L35 63L35 62L34 62L34 61L37 61L37 62L36 62L36 63L37 63L37 62L38 62L38 63L39 63L39 62L40 62L40 64L41 64L41 65L44 65L44 64L45 64L45 65L52 65L52 64L54 64L54 65L55 65L55 64L56 64L56 65L57 65L57 63L55 63L55 64L54 64L54 63L51 63L51 62L52 62L52 60L53 60L53 61L54 61L54 62L55 62L55 61L56 61L56 62L58 62L58 63L59 63L59 64L58 64L58 65L61 65L61 64L62 64L62 65L63 65L63 64L64 64L64 61L63 61L63 60L62 60L62 61L63 61L63 64L62 64L62 62L60 62L60 61L61 61L61 58L62 58L62 57L63 57L63 56L61 56L61 53L60 53L60 55L57 55L57 54L59 54L59 53L58 53L58 52L59 52L59 51L58 51L58 50L59 50L59 49L60 49L60 50L61 50L61 51L60 51L60 52L62 52L62 55L64 55L64 56L65 56L65 55L64 55L64 54L65 54L65 51L64 51L64 50L65 50L65 49L64 49L64 48L62 48L62 47L61 47L61 45L60 45L60 44L62 44L62 45L64 45L64 44L65 44L65 43L63 43L63 42L65 42L65 40L64 40L64 38L65 38L65 37L64 37L64 36L65 36L65 35L63 35L63 34L65 34L65 32L62 32L62 31L63 31L63 30L58 30L58 28L59 28L59 26L58 26L58 25L57 25L57 23L58 23L58 24L59 24L59 22L63 22L63 20L64 20L64 19L63 19L63 18L65 18L65 15L64 15L64 16L62 16L62 13L64 13L64 14L65 14L65 13L64 13L64 12L62 12L62 11L63 11L63 10L65 10L65 9L64 9L64 8L63 8L63 10L62 10L62 8L61 8L61 10L60 10L60 11L61 11L61 12L59 12L59 13L61 13L61 14L60 14L60 15L59 15L59 14L56 14L56 15L54 15L54 14L55 14L55 13L51 13L51 14L50 14L50 12L53 12L53 11L54 11L54 12L56 12L56 13L57 13L57 12L58 12L58 11L59 11L59 10L58 10L58 11L57 11L57 12L56 12L56 9L58 9L58 8L55 8L55 5L54 5L54 4L56 4L56 5L57 5L57 4L56 4L56 3L57 3L57 1L56 1L56 0L55 0L55 1L56 1L56 3L55 3L55 2L54 2L54 3L53 3L53 2L52 2L52 1L50 1L50 2L51 2L51 3L53 3L53 4L51 4L51 5L50 5L50 3L48 3L48 2L47 2L47 1L46 1L46 0L45 0L45 1L43 1L43 0L41 0L41 1L40 1L40 0L39 0L39 1L38 1L38 2L39 2L39 1L40 1L40 3L42 3L42 5L43 5L43 4L44 4L44 3L45 3L45 4L46 4L46 3L47 3L47 4L49 4L49 5L48 5L48 7L49 7L49 5L50 5L50 8L48 8L48 10L46 10L46 9L47 9L47 8L46 8L46 7L47 7L47 5L46 5L46 7L45 7L45 6L44 6L44 8L43 8L43 6L42 6L42 7L41 7L41 6L40 6L40 5L41 5L41 4L39 4L39 3L38 3L38 4L37 4L37 3L36 3L36 0L35 0L35 1L34 1L34 3L33 3L33 2L30 2L30 1L31 1L31 0L29 0L29 1L28 1L28 2L27 2L27 0L26 0L26 1L25 1L25 0L22 0L22 2L21 2L21 3L19 3L19 4L18 4L18 3L16 3L16 2L12 2L12 0ZM14 0L14 1L15 1L15 0ZM16 0L16 1L17 1L17 2L18 2L18 1L17 1L17 0ZM32 0L32 1L33 1L33 0ZM53 0L53 1L54 1L54 0ZM10 1L10 4L12 4L12 6L11 6L11 7L12 7L12 6L13 6L13 8L12 8L12 9L10 9L10 8L9 8L9 9L10 9L10 10L12 10L12 11L13 11L13 14L12 14L12 15L11 15L11 14L9 14L9 13L8 13L8 12L7 12L7 11L5 11L5 12L7 12L7 13L6 13L6 14L7 14L7 15L4 15L4 16L7 16L7 17L6 17L6 18L7 18L7 19L5 19L5 21L6 21L6 22L7 22L7 23L5 23L5 25L2 25L2 26L1 26L1 27L3 27L3 26L4 26L4 27L5 27L5 28L2 28L2 30L3 30L3 32L4 32L4 30L5 30L5 29L6 29L6 30L9 30L9 29L6 29L6 28L7 28L7 27L8 27L8 26L10 26L10 24L8 24L8 22L9 22L9 23L11 23L11 25L12 25L12 26L11 26L11 27L9 27L9 28L10 28L10 30L11 30L11 27L12 27L12 28L13 28L13 26L14 26L14 27L15 27L15 25L16 25L16 26L17 26L17 27L16 27L16 29L14 29L14 30L12 30L12 32L11 32L11 31L10 31L10 33L9 33L9 34L10 34L10 36L11 36L11 37L13 37L13 35L14 35L14 34L13 34L13 31L14 31L14 33L15 33L15 32L16 32L16 31L15 31L15 30L16 30L16 29L17 29L17 32L19 32L19 31L20 31L20 30L19 30L19 29L21 29L21 30L22 30L22 29L24 29L24 30L23 30L23 31L21 31L21 33L18 33L18 35L17 35L17 33L16 33L16 35L15 35L15 37L14 37L14 39L15 39L15 37L16 37L16 38L18 38L18 39L17 39L17 40L18 40L18 39L19 39L19 41L18 41L18 42L17 42L17 41L15 41L15 40L14 40L14 41L13 41L13 38L12 38L12 39L10 39L10 40L11 40L11 41L8 41L8 40L7 40L7 39L5 39L5 40L4 40L4 41L5 41L5 40L7 40L7 41L6 41L6 42L7 42L7 41L8 41L8 43L6 43L6 44L8 44L8 45L6 45L6 46L8 46L8 45L9 45L9 44L10 44L10 43L9 43L9 42L11 42L11 41L12 41L12 43L13 43L13 44L14 44L14 43L16 43L16 44L15 44L15 45L12 45L12 44L11 44L11 47L10 47L10 46L9 46L9 47L5 47L5 45L2 45L2 46L4 46L4 47L5 47L5 49L4 49L4 50L5 50L5 51L4 51L4 52L5 52L5 53L6 53L6 54L7 54L7 53L9 53L9 54L10 54L10 53L11 53L11 52L12 52L12 54L13 54L13 55L14 55L14 54L15 54L15 53L16 53L16 54L17 54L17 55L16 55L16 56L17 56L17 55L18 55L18 56L19 56L19 57L20 57L20 55L19 55L19 54L21 54L21 57L25 57L25 56L26 56L26 57L27 57L27 59L29 59L29 60L30 60L30 59L29 59L29 57L27 57L27 56L28 56L28 54L30 54L30 55L29 55L29 56L30 56L30 55L33 55L33 56L34 56L34 55L35 55L35 57L36 57L36 58L35 58L35 60L38 60L38 62L39 62L39 60L38 60L38 59L37 59L37 57L38 57L38 58L40 58L40 59L41 59L41 60L40 60L40 62L41 62L41 61L43 61L43 60L42 60L42 59L45 59L45 60L44 60L44 63L43 63L43 62L42 62L42 63L43 63L43 64L44 64L44 63L45 63L45 64L47 64L47 63L48 63L48 64L49 64L49 63L48 63L48 62L51 62L51 61L50 61L50 60L51 60L51 59L48 59L48 58L49 58L49 57L47 57L47 56L49 56L49 53L48 53L48 52L49 52L49 51L50 51L50 54L51 54L51 53L55 53L55 54L52 54L52 55L53 55L53 56L52 56L52 57L53 57L53 56L54 56L54 55L56 55L56 56L55 56L55 58L54 58L54 59L53 59L53 58L52 58L52 59L53 59L53 60L54 60L54 61L55 61L55 60L56 60L56 59L55 59L55 58L56 58L56 56L57 56L57 55L56 55L56 53L57 53L57 52L58 52L58 51L57 51L57 49L56 49L56 48L55 48L55 49L56 49L56 50L52 50L52 51L50 51L50 50L51 50L51 49L50 49L50 50L49 50L49 49L47 49L47 48L49 48L49 47L50 47L50 48L52 48L52 49L53 49L53 48L54 48L54 47L57 47L57 48L58 48L58 49L59 49L59 48L60 48L60 49L61 49L61 50L63 50L63 49L62 49L62 48L61 48L61 47L59 47L59 45L58 45L58 43L59 43L59 44L60 44L60 43L62 43L62 44L63 44L63 43L62 43L62 42L63 42L63 41L64 41L64 40L63 40L63 39L62 39L62 38L63 38L63 37L61 37L61 35L62 35L62 36L63 36L63 35L62 35L62 34L63 34L63 33L61 33L61 35L59 35L59 38L58 38L58 36L57 36L57 35L56 35L56 36L55 36L55 34L53 34L53 35L54 35L54 37L56 37L56 38L54 38L54 39L56 39L56 40L55 40L55 42L52 42L52 43L51 43L51 44L49 44L49 43L50 43L50 42L51 42L51 41L53 41L53 40L52 40L52 39L53 39L53 38L52 38L52 37L53 37L53 36L51 36L51 37L50 37L50 35L46 35L46 36L47 36L47 37L45 37L45 36L44 36L44 35L45 35L45 34L48 34L48 32L49 32L49 33L50 33L50 34L51 34L51 33L50 33L50 32L52 32L52 33L53 33L53 32L55 32L55 30L54 30L54 29L53 29L53 28L52 28L52 29L53 29L53 32L52 32L52 31L50 31L50 30L51 30L51 27L52 27L52 26L53 26L53 27L54 27L54 28L55 28L55 29L56 29L56 30L57 30L57 29L56 29L56 28L58 28L58 27L55 27L55 26L53 26L53 25L54 25L54 23L57 23L57 22L59 22L59 20L61 20L61 21L62 21L62 20L63 20L63 19L60 19L60 18L62 18L62 17L58 17L58 16L59 16L59 15L57 15L57 17L56 17L56 16L54 16L54 15L53 15L53 14L52 14L52 15L51 15L51 16L49 16L49 15L50 15L50 14L48 14L48 16L47 16L47 15L46 15L46 16L47 16L47 17L45 17L45 16L44 16L44 15L45 15L45 14L47 14L47 13L48 13L48 12L50 12L50 10L51 10L51 11L52 11L52 10L53 10L53 9L55 9L55 8L54 8L54 6L53 6L53 5L52 5L52 6L51 6L51 9L49 9L49 10L48 10L48 11L46 11L46 10L44 10L44 9L45 9L45 8L44 8L44 9L43 9L43 10L42 10L42 8L39 8L39 7L40 7L40 6L39 6L39 7L38 7L38 5L39 5L39 4L38 4L38 5L37 5L37 4L36 4L36 3L34 3L34 4L35 4L35 7L36 7L36 8L37 8L37 11L34 11L34 12L39 12L39 13L38 13L38 14L37 14L37 13L36 13L36 14L35 14L35 13L33 13L33 12L32 12L32 11L33 11L33 10L35 10L35 9L33 9L33 10L31 10L31 12L30 12L30 10L29 10L29 9L30 9L30 8L29 8L29 7L30 7L30 4L31 4L31 3L29 3L29 2L28 2L28 3L27 3L27 2L26 2L26 5L23 5L23 4L25 4L25 3L23 3L23 4L22 4L22 3L21 3L21 4L20 4L20 6L19 6L19 7L18 7L18 4L16 4L16 3L13 3L13 4L12 4L12 2L11 2L11 1ZM42 1L42 3L44 3L44 2L43 2L43 1ZM45 2L45 3L46 3L46 2ZM28 3L28 4L27 4L27 5L26 5L26 8L28 8L28 9L24 9L24 11L23 11L23 13L22 13L22 12L21 12L21 11L19 11L19 10L18 10L18 9L19 9L19 8L20 8L20 9L22 9L22 10L23 10L23 9L22 9L22 8L23 8L23 6L22 6L22 4L21 4L21 6L20 6L20 7L19 7L19 8L17 8L17 9L16 9L16 8L14 8L14 9L12 9L12 10L13 10L13 11L15 11L15 12L14 12L14 14L13 14L13 16L16 16L16 15L18 15L18 17L21 17L21 19L22 19L22 18L23 18L23 19L24 19L24 20L23 20L23 22L20 22L20 21L22 21L22 20L20 20L20 21L19 21L19 19L20 19L20 18L18 18L18 19L17 19L17 20L18 20L18 21L17 21L17 24L16 24L16 23L15 23L15 22L16 22L16 21L15 21L15 20L14 20L14 19L15 19L15 18L16 18L16 17L15 17L15 18L14 18L14 19L13 19L13 17L12 17L12 20L11 20L11 21L10 21L10 20L9 20L9 19L11 19L11 18L9 18L9 19L8 19L8 20L6 20L6 21L9 21L9 22L11 22L11 21L12 21L12 23L13 23L13 24L14 24L14 23L15 23L15 24L16 24L16 25L17 25L17 24L18 24L18 25L19 25L19 27L17 27L17 29L19 29L19 28L20 28L20 25L21 25L21 28L23 28L23 27L22 27L22 26L25 26L25 25L22 25L22 24L23 24L23 23L25 23L25 24L27 24L27 25L26 25L26 26L27 26L27 27L26 27L26 28L25 28L25 27L24 27L24 29L26 29L26 30L27 30L27 31L26 31L26 32L25 32L25 33L24 33L24 31L23 31L23 33L21 33L21 34L20 34L20 36L19 36L19 37L18 37L18 36L16 36L16 37L18 37L18 38L20 38L20 39L21 39L21 40L20 40L20 41L19 41L19 42L18 42L18 43L17 43L17 42L16 42L16 43L17 43L17 45L20 45L20 41L21 41L21 40L23 40L23 41L22 41L22 43L23 43L23 45L22 45L22 44L21 44L21 47L22 47L22 46L23 46L23 47L24 47L24 48L26 48L26 47L27 47L27 49L26 49L26 50L27 50L27 52L28 52L28 53L30 53L30 54L31 54L31 52L32 52L32 53L33 53L33 54L36 54L36 55L37 55L37 56L36 56L36 57L37 57L37 56L41 56L41 54L40 54L40 55L39 55L39 54L38 54L38 55L37 55L37 52L35 52L35 51L36 51L36 50L37 50L37 51L38 51L38 53L40 53L40 52L41 52L41 51L40 51L40 50L43 50L43 51L42 51L42 52L46 52L46 53L47 53L47 52L48 52L48 51L49 51L49 50L48 50L48 51L47 51L47 50L45 50L45 51L44 51L44 49L42 49L42 48L43 48L43 47L42 47L42 48L41 48L41 47L40 47L40 46L41 46L41 45L39 45L39 44L38 44L38 45L37 45L37 44L36 44L36 43L37 43L37 42L36 42L36 43L34 43L34 41L33 41L33 40L35 40L35 41L38 41L38 40L41 40L41 39L42 39L42 38L43 38L43 37L42 37L42 38L40 38L40 37L39 37L39 36L38 36L38 37L39 37L39 38L37 38L37 36L36 36L36 38L35 38L35 39L34 39L34 37L35 37L35 33L37 33L37 32L36 32L36 31L35 31L35 30L37 30L37 31L38 31L38 33L39 33L39 32L41 32L41 31L39 31L39 30L38 30L38 27L39 27L39 28L42 28L42 29L40 29L40 30L44 30L44 31L42 31L42 32L43 32L43 33L41 33L41 34L36 34L36 35L40 35L40 36L41 36L41 35L42 35L42 34L43 34L43 33L44 33L44 34L45 34L45 33L44 33L44 32L46 32L46 33L47 33L47 32L46 32L46 31L47 31L47 30L46 30L46 31L45 31L45 30L44 30L44 28L45 28L45 26L46 26L46 29L49 29L49 30L48 30L48 31L49 31L49 30L50 30L50 28L48 28L48 27L51 27L51 26L50 26L50 25L52 25L52 24L53 24L53 23L51 23L51 22L50 22L50 21L49 21L49 20L50 20L50 19L52 19L52 20L53 20L53 22L55 22L55 21L54 21L54 20L55 20L55 19L52 19L52 18L50 18L50 19L49 19L49 18L48 18L48 19L49 19L49 20L48 20L48 22L46 22L46 21L47 21L47 18L46 18L46 19L45 19L45 18L44 18L44 17L42 17L42 16L41 16L41 15L42 15L42 14L44 14L44 12L45 12L45 11L44 11L44 12L43 12L43 11L42 11L42 12L41 12L41 11L40 11L40 10L38 10L38 11L40 11L40 12L41 12L41 13L40 13L40 15L39 15L39 14L38 14L38 15L39 15L39 16L38 16L38 17L39 17L39 16L41 16L41 17L42 17L42 18L43 18L43 19L42 19L42 20L43 20L43 21L42 21L42 22L41 22L41 21L40 21L40 20L41 20L41 19L40 19L40 18L36 18L36 17L37 17L37 16L35 16L35 14L33 14L33 13L32 13L32 12L31 12L31 13L30 13L30 14L31 14L31 13L32 13L32 14L33 14L33 15L29 15L29 14L27 14L27 13L26 13L26 14L25 14L25 10L26 10L26 12L28 12L28 13L29 13L29 12L28 12L28 11L29 11L29 10L28 10L28 9L29 9L29 8L28 8L28 7L29 7L29 5L28 5L28 4L29 4L29 3ZM32 3L32 4L33 4L33 3ZM13 4L13 5L14 5L14 7L15 7L15 5L14 5L14 4ZM9 5L9 7L10 7L10 5ZM16 5L16 7L17 7L17 5ZM31 5L31 8L34 8L34 5ZM21 6L21 7L20 7L20 8L21 8L21 7L22 7L22 6ZM24 6L24 8L25 8L25 6ZM27 6L27 7L28 7L28 6ZM32 6L32 7L33 7L33 6ZM36 6L36 7L37 7L37 8L38 8L38 7L37 7L37 6ZM52 6L52 8L53 8L53 6ZM56 6L56 7L57 7L57 6ZM59 8L59 9L60 9L60 8ZM15 9L15 11L17 11L17 12L15 12L15 14L14 14L14 15L16 15L16 13L17 13L17 14L18 14L18 15L19 15L19 16L21 16L21 17L25 17L25 18L24 18L24 19L25 19L25 18L26 18L26 17L27 17L27 19L26 19L26 20L24 20L24 21L25 21L25 23L27 23L27 24L29 24L29 25L28 25L28 27L27 27L27 28L26 28L26 29L27 29L27 28L28 28L28 27L29 27L29 28L30 28L30 29L28 29L28 31L27 31L27 32L26 32L26 33L27 33L27 35L28 35L28 36L29 36L29 37L25 37L25 36L26 36L26 35L25 35L25 34L23 34L23 37L22 37L22 36L21 36L21 37L20 37L20 38L21 38L21 37L22 37L22 39L23 39L23 40L24 40L24 41L25 41L25 42L24 42L24 44L25 44L25 43L26 43L26 45L25 45L25 46L26 46L26 45L27 45L27 47L28 47L28 48L30 48L30 47L29 47L29 46L30 46L30 45L27 45L27 43L28 43L28 44L29 44L29 42L30 42L30 44L31 44L31 49L27 49L27 50L30 50L30 51L28 51L28 52L31 52L31 49L32 49L32 50L33 50L33 51L32 51L32 52L33 52L33 51L35 51L35 50L36 50L36 48L38 48L38 49L37 49L37 50L39 50L39 49L41 49L41 48L39 48L39 47L38 47L38 46L39 46L39 45L38 45L38 46L37 46L37 45L36 45L36 46L33 46L33 45L32 45L32 44L31 44L31 43L33 43L33 41L32 41L32 42L30 42L30 41L27 41L27 39L25 39L25 40L24 40L24 38L23 38L23 37L25 37L25 38L30 38L30 39L28 39L28 40L33 40L33 39L32 39L32 38L33 38L33 37L34 37L34 36L33 36L33 37L31 37L31 35L29 35L29 33L30 33L30 32L29 32L29 33L27 33L27 32L28 32L28 31L30 31L30 30L31 30L31 28L30 28L30 27L33 27L33 26L32 26L32 25L34 25L34 26L35 26L35 28L32 28L32 29L33 29L33 30L35 30L35 28L37 28L37 27L36 27L36 26L37 26L37 25L38 25L38 26L39 26L39 27L40 27L40 26L42 26L42 27L43 27L43 28L44 28L44 27L43 27L43 26L42 26L42 25L43 25L43 24L42 24L42 23L45 23L45 22L44 22L44 21L46 21L46 20L44 20L44 21L43 21L43 22L42 22L42 23L41 23L41 24L39 24L39 23L38 23L38 22L40 22L40 21L39 21L39 19L38 19L38 20L37 20L37 19L36 19L36 20L35 20L35 19L34 19L34 20L35 20L35 21L33 21L33 20L32 20L32 17L34 17L34 18L35 18L35 16L30 16L30 17L28 17L28 16L29 16L29 15L28 15L28 16L27 16L27 14L26 14L26 16L24 16L24 15L23 15L23 14L24 14L24 13L23 13L23 14L22 14L22 15L23 15L23 16L21 16L21 12L20 12L20 13L17 13L17 12L19 12L19 11L18 11L18 10L16 10L16 9ZM51 9L51 10L52 10L52 9ZM54 10L54 11L55 11L55 10ZM2 11L2 12L0 12L0 13L2 13L2 12L3 12L3 11ZM46 12L46 13L47 13L47 12ZM61 12L61 13L62 13L62 12ZM19 14L19 15L20 15L20 14ZM36 14L36 15L37 15L37 14ZM1 15L1 16L0 16L0 19L1 19L1 17L2 17L2 15ZM7 15L7 16L8 16L8 17L7 17L7 18L8 18L8 17L9 17L9 16L8 16L8 15ZM10 15L10 16L11 16L11 15ZM52 15L52 16L51 16L51 17L52 17L52 16L53 16L53 15ZM60 15L60 16L61 16L61 15ZM48 16L48 17L49 17L49 16ZM30 17L30 18L29 18L29 19L27 19L27 23L28 23L28 21L29 21L29 22L30 22L30 24L31 24L31 25L30 25L30 26L31 26L31 25L32 25L32 24L33 24L33 23L35 23L35 22L33 22L33 21L31 21L31 22L30 22L30 21L29 21L29 20L31 20L31 19L30 19L30 18L31 18L31 17ZM53 17L53 18L55 18L55 17ZM56 18L56 21L58 21L58 20L59 20L59 18ZM57 19L57 20L58 20L58 19ZM36 20L36 21L37 21L37 20ZM13 21L13 23L14 23L14 22L15 22L15 21ZM64 21L64 22L65 22L65 21ZM18 22L18 23L19 23L19 25L20 25L20 24L21 24L21 23L19 23L19 22ZM31 22L31 24L32 24L32 22ZM36 22L36 23L37 23L37 22ZM48 22L48 23L47 23L47 24L49 24L49 25L50 25L50 24L51 24L51 23L50 23L50 22ZM63 23L63 24L62 24L62 25L61 25L61 24L60 24L60 25L61 25L61 26L60 26L60 27L61 27L61 28L60 28L60 29L65 29L65 28L62 28L62 27L63 27L63 26L65 26L65 25L64 25L64 24L65 24L65 23ZM6 24L6 25L7 25L7 24ZM35 24L35 26L36 26L36 25L37 25L37 24ZM38 24L38 25L39 25L39 26L40 26L40 25L39 25L39 24ZM44 24L44 25L45 25L45 24ZM55 24L55 25L56 25L56 26L57 26L57 25L56 25L56 24ZM46 25L46 26L47 26L47 27L48 27L48 26L47 26L47 25ZM5 26L5 27L7 27L7 26ZM18 30L18 31L19 31L19 30ZM5 31L5 34L8 34L8 31ZM31 31L31 34L34 34L34 31ZM57 31L57 34L60 34L60 31ZM6 32L6 33L7 33L7 32ZM32 32L32 33L33 33L33 32ZM58 32L58 33L59 33L59 32ZM0 33L0 34L1 34L1 33ZM10 33L10 34L12 34L12 33ZM21 34L21 35L22 35L22 34ZM5 35L5 36L7 36L7 35ZM11 35L11 36L12 36L12 35ZM24 35L24 36L25 36L25 35ZM48 36L48 38L49 38L49 39L52 39L52 38L50 38L50 37L49 37L49 36ZM44 37L44 40L43 40L43 41L42 41L42 42L43 42L43 43L44 43L44 44L42 44L42 46L43 46L43 45L44 45L44 46L45 46L45 47L44 47L44 48L46 48L46 47L49 47L49 44L48 44L48 46L45 46L45 45L47 45L47 44L46 44L46 43L47 43L47 42L50 42L50 41L51 41L51 40L47 40L47 42L46 42L46 41L44 41L44 40L45 40L45 37ZM60 37L60 39L58 39L58 40L60 40L60 39L61 39L61 37ZM36 38L36 40L37 40L37 38ZM39 38L39 39L40 39L40 38ZM46 38L46 39L47 39L47 38ZM56 40L56 41L57 41L57 40ZM61 40L61 41L59 41L59 42L61 42L61 41L63 41L63 40ZM26 41L26 43L27 43L27 41ZM4 42L4 43L5 43L5 42ZM38 42L38 43L40 43L40 44L41 44L41 43L40 43L40 42ZM44 42L44 43L45 43L45 42ZM56 42L56 43L55 43L55 44L54 44L54 43L52 43L52 44L51 44L51 46L50 46L50 47L52 47L52 48L53 48L53 47L54 47L54 46L56 46L56 45L55 45L55 44L57 44L57 42ZM8 43L8 44L9 44L9 43ZM34 44L34 45L35 45L35 44ZM44 44L44 45L45 45L45 44ZM52 44L52 45L54 45L54 44ZM15 45L15 46L14 46L14 47L15 47L15 49L21 49L21 50L20 50L20 51L22 51L22 50L23 50L23 51L24 51L24 50L25 50L25 49L24 49L24 50L23 50L23 49L21 49L21 48L18 48L18 47L20 47L20 46L17 46L17 48L16 48L16 47L15 47L15 46L16 46L16 45ZM23 45L23 46L24 46L24 45ZM57 45L57 46L58 46L58 45ZM12 46L12 47L11 47L11 48L10 48L10 51L9 51L9 53L10 53L10 52L11 52L11 49L12 49L12 47L13 47L13 46ZM32 46L32 49L34 49L34 48L35 48L35 47L34 47L34 48L33 48L33 46ZM36 46L36 47L37 47L37 46ZM52 46L52 47L53 47L53 46ZM58 47L58 48L59 48L59 47ZM6 48L6 49L5 49L5 50L6 50L6 51L5 51L5 52L6 52L6 53L7 53L7 52L6 52L6 51L7 51L7 50L8 50L8 49L9 49L9 48ZM13 48L13 51L12 51L12 52L13 52L13 51L15 51L15 52L14 52L14 53L15 53L15 52L16 52L16 53L17 53L17 54L19 54L19 50L18 50L18 51L17 51L17 50L14 50L14 48ZM6 49L6 50L7 50L7 49ZM16 51L16 52L17 52L17 53L18 53L18 52L17 52L17 51ZM25 51L25 52L26 52L26 51ZM46 51L46 52L47 52L47 51ZM52 51L52 52L53 52L53 51ZM54 51L54 52L56 52L56 51ZM62 51L62 52L63 52L63 51ZM20 52L20 53L22 53L22 52ZM23 52L23 55L22 55L22 56L23 56L23 55L24 55L24 56L25 56L25 55L24 55L24 54L26 54L26 53L24 53L24 52ZM34 52L34 53L35 53L35 52ZM42 53L42 54L43 54L43 53ZM44 53L44 54L45 54L45 55L42 55L42 56L43 56L43 57L40 57L40 58L41 58L41 59L42 59L42 58L43 58L43 57L44 57L44 58L45 58L45 59L47 59L47 62L46 62L46 60L45 60L45 63L47 63L47 62L48 62L48 61L49 61L49 60L48 60L48 59L47 59L47 58L46 58L46 56L47 56L47 54L45 54L45 53ZM26 55L26 56L27 56L27 55ZM45 55L45 56L44 56L44 57L45 57L45 56L46 56L46 55ZM50 55L50 58L51 58L51 55ZM6 56L6 57L7 57L7 56ZM31 57L31 60L34 60L34 57ZM57 57L57 60L60 60L60 57ZM64 57L64 58L65 58L65 57ZM24 58L24 59L25 59L25 60L26 60L26 61L27 61L27 60L26 60L26 59L25 59L25 58ZM32 58L32 59L33 59L33 58ZM58 58L58 59L59 59L59 58ZM13 59L13 60L14 60L14 61L15 61L15 62L12 62L12 63L13 63L13 64L14 64L14 63L15 63L15 62L16 62L16 61L17 61L17 62L18 62L18 64L19 64L19 63L20 63L20 62L19 62L19 61L18 61L18 59L16 59L16 61L15 61L15 59ZM58 61L58 62L59 62L59 61ZM25 64L25 65L26 65L26 64ZM36 64L36 65L37 65L37 64ZM38 64L38 65L39 65L39 64ZM0 0L0 7L7 7L7 0ZM1 1L1 6L6 6L6 1ZM2 2L2 5L5 5L5 2ZM58 0L58 7L65 7L65 0ZM59 1L59 6L64 6L64 1ZM60 2L60 5L63 5L63 2ZM0 58L0 65L7 65L7 58ZM1 59L1 64L6 64L6 59ZM2 60L2 63L5 63L5 60Z" fill="#000000"/></g></g></svg>
