<?xml version="1.0" encoding="UTF-8"?>
<svg xmlns="http://www.w3.org/2000/svg" version="1.1" width="300" height="300" viewBox="0 0 300 300"><rect x="0" y="0" width="300" height="300" fill="#ffffff"/><g transform="scale(4.615)"><g transform="translate(0,0)"><path fill-rule="evenodd" d="M10 0L10 1L12 1L12 0ZM14 0L14 1L13 1L13 2L15 2L15 3L16 3L16 2L15 2L15 0ZM16 0L16 1L17 1L17 2L18 2L18 1L17 1L17 0ZM19 0L19 2L20 2L20 0ZM21 0L21 1L22 1L22 2L21 2L21 3L19 3L19 4L18 4L18 3L17 3L17 4L18 4L18 7L17 7L17 6L16 6L16 7L15 7L15 6L14 6L14 5L15 5L15 4L14 4L14 3L13 3L13 4L14 4L14 5L13 5L13 6L12 6L12 9L13 9L13 10L14 10L14 9L16 9L16 8L17 8L17 9L19 9L19 10L18 10L18 11L17 11L17 10L16 10L16 12L17 12L17 13L20 13L20 12L21 12L21 11L20 11L20 9L21 9L21 10L22 10L22 12L23 12L23 13L22 13L22 15L21 15L21 16L20 16L20 17L19 17L19 15L20 15L20 14L19 14L19 15L18 15L18 14L17 14L17 15L18 15L18 17L19 17L19 18L18 18L18 19L15 19L15 20L18 20L18 21L17 21L17 22L19 22L19 23L17 23L17 24L16 24L16 23L15 23L15 22L16 22L16 21L13 21L13 19L12 19L12 17L10 17L10 15L12 15L12 14L13 14L13 13L12 13L12 14L9 14L9 13L11 13L11 12L15 12L15 11L12 11L12 10L10 10L10 9L11 9L11 8L6 8L6 9L8 9L8 10L9 10L9 11L7 11L7 10L6 10L6 11L7 11L7 12L6 12L6 13L4 13L4 14L6 14L6 15L7 15L7 14L9 14L9 15L8 15L8 17L10 17L10 18L9 18L9 19L8 19L8 18L6 18L6 19L7 19L7 20L6 20L6 21L9 21L9 23L8 23L8 22L6 22L6 23L7 23L7 24L5 24L5 25L7 25L7 26L3 26L3 24L2 24L2 20L3 20L3 23L4 23L4 22L5 22L5 21L4 21L4 18L2 18L2 20L1 20L1 21L0 21L0 22L1 22L1 23L0 23L0 24L2 24L2 25L1 25L1 26L0 26L0 28L2 28L2 29L0 29L0 31L2 31L2 32L3 32L3 33L4 33L4 34L2 34L2 33L1 33L1 32L0 32L0 35L1 35L1 36L2 36L2 35L3 35L3 40L4 40L4 42L3 42L3 43L2 43L2 42L0 42L0 45L1 45L1 47L0 47L0 48L2 48L2 49L0 49L0 50L2 50L2 49L4 49L4 50L3 50L3 51L5 51L5 53L4 53L4 54L3 54L3 53L1 53L1 52L0 52L0 54L2 54L2 55L3 55L3 56L1 56L1 55L0 55L0 56L1 56L1 57L3 57L3 56L4 56L4 57L5 57L5 56L4 56L4 54L5 54L5 55L8 55L8 56L6 56L6 57L8 57L8 59L9 59L9 57L11 57L11 58L10 58L10 60L11 60L11 58L14 58L14 61L16 61L16 62L15 62L15 63L16 63L16 65L17 65L17 64L18 64L18 65L19 65L19 64L20 64L20 65L21 65L21 63L22 63L22 64L24 64L24 63L22 63L22 62L24 62L24 61L25 61L25 62L27 62L27 65L29 65L29 63L30 63L30 65L31 65L31 62L30 62L30 61L32 61L32 62L33 62L33 64L32 64L32 65L38 65L38 64L39 64L39 63L40 63L40 64L41 64L41 62L43 62L43 61L44 61L44 62L45 62L45 61L44 61L44 60L45 60L45 59L46 59L46 61L47 61L47 62L46 62L46 63L42 63L42 64L43 64L43 65L44 65L44 64L45 64L45 65L47 65L47 64L46 64L46 63L49 63L49 64L48 64L48 65L49 65L49 64L53 64L53 63L51 63L51 62L52 62L52 60L53 60L53 61L54 61L54 62L55 62L55 63L54 63L54 64L55 64L55 63L56 63L56 64L57 64L57 65L61 65L61 64L62 64L62 65L63 65L63 64L64 64L64 61L65 61L65 59L64 59L64 58L65 58L65 57L64 57L64 56L65 56L65 55L64 55L64 54L65 54L65 53L64 53L64 54L63 54L63 56L62 56L62 54L61 54L61 53L60 53L60 55L58 55L58 56L56 56L56 55L57 55L57 54L59 54L59 53L58 53L58 52L59 52L59 51L58 51L58 50L61 50L61 51L60 51L60 52L62 52L62 53L63 53L63 52L62 52L62 51L63 51L63 50L65 50L65 49L64 49L64 48L62 48L62 49L63 49L63 50L61 50L61 49L58 49L58 48L59 48L59 47L58 47L58 45L59 45L59 46L60 46L60 47L61 47L61 45L59 45L59 43L57 43L57 44L56 44L56 43L54 43L54 44L56 44L56 46L55 46L55 45L52 45L52 44L53 44L53 43L52 43L52 44L51 44L51 42L50 42L50 44L46 44L46 45L48 45L48 46L45 46L45 45L44 45L44 44L45 44L45 43L48 43L48 42L49 42L49 41L50 41L50 39L51 39L51 40L53 40L53 39L54 39L54 38L55 38L55 40L56 40L56 41L57 41L57 42L61 42L61 43L60 43L60 44L62 44L62 47L63 47L63 45L64 45L64 44L65 44L65 43L63 43L63 42L62 42L62 41L64 41L64 42L65 42L65 39L64 39L64 38L65 38L65 35L64 35L64 38L63 38L63 36L62 36L62 35L63 35L63 34L62 34L62 35L61 35L61 33L64 33L64 34L65 34L65 31L64 31L64 32L61 32L61 29L64 29L64 28L65 28L65 27L64 27L64 28L62 28L62 27L63 27L63 26L65 26L65 25L63 25L63 24L62 24L62 23L64 23L64 24L65 24L65 23L64 23L64 22L65 22L65 21L64 21L64 20L65 20L65 19L63 19L63 18L65 18L65 15L64 15L64 16L62 16L62 18L61 18L61 19L63 19L63 20L62 20L62 21L63 21L63 22L62 22L62 23L61 23L61 24L60 24L60 23L59 23L59 22L61 22L61 20L59 20L59 18L58 18L58 16L56 16L56 15L54 15L54 16L56 16L56 17L53 17L53 18L52 18L52 16L53 16L53 15L52 15L52 14L56 14L56 13L57 13L57 12L58 12L58 11L59 11L59 12L60 12L60 13L61 13L61 14L60 14L60 15L59 15L59 14L57 14L57 15L59 15L59 16L60 16L60 17L61 17L61 16L60 16L60 15L61 15L61 14L62 14L62 13L63 13L63 12L62 12L62 13L61 13L61 12L60 12L60 11L61 11L61 10L63 10L63 9L64 9L64 10L65 10L65 9L64 9L64 8L63 8L63 9L62 9L62 8L61 8L61 10L60 10L60 11L59 11L59 10L58 10L58 11L57 11L57 10L55 10L55 5L54 5L54 4L56 4L56 5L57 5L57 4L56 4L56 3L57 3L57 1L56 1L56 0L55 0L55 1L56 1L56 3L55 3L55 2L54 2L54 3L53 3L53 2L52 2L52 1L54 1L54 0L51 0L51 1L48 1L48 2L49 2L49 3L48 3L48 5L50 5L50 7L49 7L49 6L48 6L48 7L47 7L47 5L46 5L46 7L45 7L45 4L47 4L47 3L46 3L46 2L47 2L47 1L44 1L44 0L39 0L39 1L38 1L38 0L37 0L37 3L35 3L35 4L32 4L32 3L34 3L34 2L35 2L35 1L34 1L34 0L33 0L33 1L31 1L31 0L29 0L29 2L28 2L28 3L27 3L27 2L25 2L25 0L24 0L24 1L23 1L23 0ZM26 0L26 1L27 1L27 0ZM8 1L8 2L9 2L9 3L8 3L8 4L9 4L9 5L8 5L8 7L9 7L9 6L10 6L10 7L11 7L11 5L12 5L12 4L11 4L11 5L10 5L10 4L9 4L9 3L10 3L10 2L9 2L9 1ZM30 1L30 2L29 2L29 3L30 3L30 2L31 2L31 1ZM33 1L33 2L34 2L34 1ZM40 1L40 2L41 2L41 3L40 3L40 4L38 4L38 5L37 5L37 7L36 7L36 5L35 5L35 7L36 7L36 8L37 8L37 10L36 10L36 9L33 9L33 11L34 11L34 10L36 10L36 11L35 11L35 12L37 12L37 13L38 13L38 14L39 14L39 13L43 13L43 14L42 14L42 15L41 15L41 14L40 14L40 15L41 15L41 16L40 16L40 17L38 17L38 18L37 18L37 17L36 17L36 16L39 16L39 15L37 15L37 14L36 14L36 13L34 13L34 12L32 12L32 13L31 13L31 12L29 12L29 9L30 9L30 8L29 8L29 7L30 7L30 6L29 6L29 7L28 7L28 5L30 5L30 4L27 4L27 3L25 3L25 2L24 2L24 3L23 3L23 4L22 4L22 3L21 3L21 4L20 4L20 5L19 5L19 9L20 9L20 8L21 8L21 9L23 9L23 8L21 8L21 7L22 7L22 6L23 6L23 7L24 7L24 9L25 9L25 10L24 10L24 12L25 12L25 10L26 10L26 9L27 9L27 11L28 11L28 12L26 12L26 13L27 13L27 15L26 15L26 14L25 14L25 15L26 15L26 17L27 17L27 18L22 18L22 17L23 17L23 16L24 16L24 17L25 17L25 16L24 16L24 15L22 15L22 16L21 16L21 17L20 17L20 19L19 19L19 22L21 22L21 23L22 23L22 25L27 25L27 26L24 26L24 27L25 27L25 28L26 28L26 29L24 29L24 28L23 28L23 26L21 26L21 25L20 25L20 23L19 23L19 25L16 25L16 24L15 24L15 26L19 26L19 25L20 25L20 28L19 28L19 29L18 29L18 30L17 30L17 33L16 33L16 35L15 35L15 32L16 32L16 31L15 31L15 32L11 32L11 31L13 31L13 30L14 30L14 29L15 29L15 30L16 30L16 29L17 29L17 27L16 27L16 29L15 29L15 27L14 27L14 25L13 25L13 24L12 24L12 23L11 23L11 22L12 22L12 21L11 21L11 20L12 20L12 19L9 19L9 21L10 21L10 23L9 23L9 25L10 25L10 24L11 24L11 26L8 26L8 27L4 27L4 30L3 30L3 29L2 29L2 30L3 30L3 32L4 32L4 30L7 30L7 29L9 29L9 30L10 30L10 31L9 31L9 32L10 32L10 34L11 34L11 33L13 33L13 37L12 37L12 36L11 36L11 35L9 35L9 37L8 37L8 35L5 35L5 36L4 36L4 38L5 38L5 36L7 36L7 37L6 37L6 38L7 38L7 39L6 39L6 40L8 40L8 38L10 38L10 39L11 39L11 40L10 40L10 42L12 42L12 41L14 41L14 43L13 43L13 44L12 44L12 45L16 45L16 46L13 46L13 47L12 47L12 46L11 46L11 45L10 45L10 50L7 50L7 49L6 49L6 50L7 50L7 51L6 51L6 52L8 52L8 53L6 53L6 54L8 54L8 55L10 55L10 56L11 56L11 57L13 57L13 56L14 56L14 57L15 57L15 55L16 55L16 56L19 56L19 55L18 55L18 54L17 54L17 53L18 53L18 52L17 52L17 51L18 51L18 50L19 50L19 49L18 49L18 48L21 48L21 49L20 49L20 52L19 52L19 54L20 54L20 55L21 55L21 54L23 54L23 56L22 56L22 57L23 57L23 58L22 58L22 59L24 59L24 60L21 60L21 59L20 59L20 58L21 58L21 57L20 57L20 58L19 58L19 57L18 57L18 58L17 58L17 57L16 57L16 58L15 58L15 60L16 60L16 61L17 61L17 63L18 63L18 62L19 62L19 63L20 63L20 62L19 62L19 61L21 61L21 62L22 62L22 61L24 61L24 60L25 60L25 61L27 61L27 60L29 60L29 61L28 61L28 62L29 62L29 61L30 61L30 58L29 58L29 57L30 57L30 56L29 56L29 55L27 55L27 51L26 51L26 52L25 52L25 50L26 50L26 49L28 49L28 50L30 50L30 49L28 49L28 48L30 48L30 47L31 47L31 50L32 50L32 51L28 51L28 52L32 52L32 51L36 51L36 52L37 52L37 55L35 55L35 54L34 54L34 55L33 55L33 53L32 53L32 56L34 56L34 55L35 55L35 58L36 58L36 60L35 60L35 62L34 62L34 61L33 61L33 62L34 62L34 64L38 64L38 62L39 62L39 61L38 61L38 62L37 62L37 61L36 61L36 60L40 60L40 61L41 61L41 60L43 60L43 59L45 59L45 58L47 58L47 57L48 57L48 56L49 56L49 57L50 57L50 58L51 58L51 59L49 59L49 58L48 58L48 59L47 59L47 60L50 60L50 62L49 62L49 63L50 63L50 62L51 62L51 59L52 59L52 58L53 58L53 59L54 59L54 60L56 60L56 59L55 59L55 58L56 58L56 56L54 56L54 55L56 55L56 54L53 54L53 53L56 53L56 52L54 52L54 51L57 51L57 52L58 52L58 51L57 51L57 49L56 49L56 48L55 48L55 50L54 50L54 51L53 51L53 52L52 52L52 51L50 51L50 50L53 50L53 48L51 48L51 47L50 47L50 46L51 46L51 44L50 44L50 46L48 46L48 48L50 48L50 49L46 49L46 50L47 50L47 53L46 53L46 52L44 52L44 51L45 51L45 50L42 50L42 49L41 49L41 48L44 48L44 49L45 49L45 48L44 48L44 47L45 47L45 46L40 46L40 47L41 47L41 48L40 48L40 49L38 49L38 48L39 48L39 47L37 47L37 45L38 45L38 46L39 46L39 45L38 45L38 44L39 44L39 43L38 43L38 42L39 42L39 41L43 41L43 42L42 42L42 43L43 43L43 44L44 44L44 43L43 43L43 42L48 42L48 41L45 41L45 40L44 40L44 39L46 39L46 40L47 40L47 39L48 39L48 40L49 40L49 39L48 39L48 38L49 38L49 37L50 37L50 38L52 38L52 37L53 37L53 36L52 36L52 37L50 37L50 36L51 36L51 35L48 35L48 36L46 36L46 34L47 34L47 33L46 33L46 34L45 34L45 32L44 32L44 34L42 34L42 36L40 36L40 37L38 37L38 36L39 36L39 35L40 35L40 34L41 34L41 33L43 33L43 32L40 32L40 30L41 30L41 28L42 28L42 29L43 29L43 28L42 28L42 27L46 27L46 28L49 28L49 29L50 29L50 30L48 30L48 29L45 29L45 28L44 28L44 31L46 31L46 32L50 32L50 33L48 33L48 34L52 34L52 35L54 35L54 37L56 37L56 36L55 36L55 34L56 34L56 32L54 32L54 31L56 31L56 30L57 30L57 29L56 29L56 28L55 28L55 27L57 27L57 28L58 28L58 30L60 30L60 28L61 28L61 27L62 27L62 26L63 26L63 25L62 25L62 24L61 24L61 27L60 27L60 26L59 26L59 25L58 25L58 24L59 24L59 23L58 23L58 24L57 24L57 25L56 25L56 26L54 26L54 25L55 25L55 24L54 24L54 23L57 23L57 21L56 21L56 20L57 20L57 19L56 19L56 18L57 18L57 17L56 17L56 18L54 18L54 19L55 19L55 20L54 20L54 21L55 21L55 22L52 22L52 23L50 23L50 22L51 22L51 21L53 21L53 20L52 20L52 18L51 18L51 17L50 17L50 15L48 15L48 14L47 14L47 13L48 13L48 12L49 12L49 11L48 11L48 10L49 10L49 9L46 9L46 8L47 8L47 7L46 7L46 8L43 8L43 10L42 10L42 9L41 9L41 8L40 8L40 5L41 5L41 7L42 7L42 6L43 6L43 7L44 7L44 4L45 4L45 3L44 3L44 1L42 1L42 2L41 2L41 1ZM11 2L11 3L12 3L12 2ZM38 2L38 3L39 3L39 2ZM50 2L50 5L52 5L52 6L51 6L51 7L50 7L50 10L51 10L51 11L50 11L50 14L51 14L51 13L53 13L53 12L52 12L52 11L55 11L55 13L56 13L56 11L55 11L55 10L54 10L54 8L52 8L52 6L53 6L53 7L54 7L54 6L53 6L53 5L52 5L52 4L53 4L53 3L51 3L51 2ZM41 3L41 5L43 5L43 3ZM21 4L21 5L20 5L20 7L21 7L21 6L22 6L22 4ZM23 4L23 5L24 5L24 7L25 7L25 6L26 6L26 7L27 7L27 4L26 4L26 5L25 5L25 4ZM31 5L31 8L34 8L34 5ZM38 5L38 9L39 9L39 10L38 10L38 11L37 11L37 12L39 12L39 11L40 11L40 12L41 12L41 11L40 11L40 10L41 10L41 9L40 9L40 8L39 8L39 5ZM13 6L13 8L15 8L15 7L14 7L14 6ZM32 6L32 7L33 7L33 6ZM56 6L56 7L57 7L57 6ZM48 7L48 8L49 8L49 7ZM0 8L0 13L2 13L2 12L1 12L1 9L2 9L2 11L3 11L3 12L5 12L5 11L3 11L3 10L5 10L5 8ZM27 8L27 9L29 9L29 8ZM56 8L56 9L58 9L58 8ZM59 8L59 9L60 9L60 8ZM44 9L44 12L43 12L43 11L42 11L42 12L43 12L43 13L44 13L44 14L45 14L45 15L44 15L44 16L43 16L43 15L42 15L42 16L41 16L41 17L40 17L40 18L38 18L38 19L37 19L37 18L36 18L36 19L37 19L37 20L35 20L35 22L34 22L34 21L33 21L33 22L32 22L32 21L31 21L31 22L30 22L30 21L29 21L29 20L28 20L28 19L30 19L30 20L31 20L31 19L30 19L30 18L27 18L27 19L26 19L26 20L25 20L25 19L24 19L24 20L25 20L25 21L23 21L23 23L24 23L24 24L25 24L25 23L24 23L24 22L27 22L27 23L26 23L26 24L27 24L27 25L29 25L29 27L26 27L26 28L27 28L27 29L26 29L26 30L27 30L27 29L29 29L29 30L28 30L28 31L29 31L29 30L30 30L30 34L28 34L28 33L29 33L29 32L27 32L27 31L25 31L25 33L24 33L24 34L23 34L23 33L22 33L22 32L24 32L24 31L23 31L23 30L24 30L24 29L19 29L19 30L18 30L18 31L19 31L19 32L18 32L18 33L17 33L17 35L16 35L16 36L15 36L15 35L14 35L14 36L15 36L15 39L16 39L16 41L17 41L17 39L18 39L18 38L20 38L20 37L21 37L21 39L19 39L19 40L18 40L18 41L19 41L19 42L18 42L18 43L19 43L19 42L20 42L20 43L21 43L21 48L23 48L23 47L24 47L24 48L25 48L25 49L22 49L22 50L21 50L21 51L22 51L22 50L23 50L23 51L24 51L24 50L25 50L25 49L26 49L26 48L25 48L25 47L26 47L26 46L27 46L27 48L28 48L28 47L30 47L30 46L32 46L32 47L33 47L33 48L32 48L32 49L34 49L34 50L36 50L36 51L37 51L37 52L38 52L38 51L39 51L39 52L41 52L41 50L40 50L40 51L39 51L39 50L38 50L38 49L37 49L37 48L35 48L35 47L33 47L33 46L32 46L32 45L33 45L33 44L35 44L35 43L34 43L34 42L35 42L35 41L37 41L37 42L36 42L36 43L37 43L37 42L38 42L38 41L39 41L39 40L41 40L41 37L40 37L40 38L38 38L38 37L37 37L37 36L35 36L35 35L36 35L36 34L37 34L37 35L39 35L39 34L40 34L40 33L39 33L39 34L38 34L38 31L39 31L39 30L40 30L40 28L41 28L41 27L39 27L39 26L40 26L40 24L42 24L42 26L43 26L43 24L45 24L45 23L47 23L47 22L46 22L46 21L44 21L44 22L45 22L45 23L43 23L43 24L42 24L42 23L40 23L40 22L43 22L43 20L45 20L45 19L46 19L46 20L48 20L48 21L49 21L49 22L50 22L50 20L51 20L51 18L49 18L49 20L48 20L48 17L49 17L49 16L48 16L48 15L47 15L47 14L46 14L46 12L47 12L47 10L45 10L45 9ZM51 9L51 10L52 10L52 9ZM30 10L30 11L31 11L31 10ZM9 11L9 12L8 12L8 13L9 13L9 12L11 12L11 11ZM18 11L18 12L19 12L19 11ZM45 11L45 12L44 12L44 13L45 13L45 12L46 12L46 11ZM28 12L28 13L29 13L29 12ZM6 13L6 14L7 14L7 13ZM14 13L14 15L13 15L13 16L15 16L15 17L13 17L13 18L15 18L15 17L17 17L17 16L16 16L16 14L15 14L15 13ZM23 13L23 14L24 14L24 13ZM30 13L30 14L31 14L31 13ZM32 13L32 14L33 14L33 15L32 15L32 16L31 16L31 15L29 15L29 16L28 16L28 15L27 15L27 17L29 17L29 16L31 16L31 18L32 18L32 20L34 20L34 19L35 19L35 18L34 18L34 16L36 16L36 14L34 14L34 13ZM64 13L64 14L65 14L65 13ZM0 14L0 15L1 15L1 17L0 17L0 18L1 18L1 17L3 17L3 16L5 16L5 17L7 17L7 16L5 16L5 15L3 15L3 16L2 16L2 14ZM33 15L33 16L32 16L32 18L33 18L33 16L34 16L34 15ZM45 15L45 16L44 16L44 17L43 17L43 16L42 16L42 17L43 17L43 18L41 18L41 20L40 20L40 19L39 19L39 21L38 21L38 22L39 22L39 21L41 21L41 20L42 20L42 19L43 19L43 18L44 18L44 19L45 19L45 16L46 16L46 18L47 18L47 15ZM21 18L21 19L20 19L20 21L22 21L22 20L21 20L21 19L22 19L22 18ZM26 20L26 21L27 21L27 22L29 22L29 23L28 23L28 24L29 24L29 25L30 25L30 27L31 27L31 28L30 28L30 29L31 29L31 30L35 30L35 34L36 34L36 32L37 32L37 31L38 31L38 30L39 30L39 29L33 29L33 28L32 28L32 27L33 27L33 26L35 26L35 25L36 25L36 24L37 24L37 25L38 25L38 26L39 26L39 25L38 25L38 24L39 24L39 23L37 23L37 22L35 22L35 23L34 23L34 22L33 22L33 24L32 24L32 23L31 23L31 24L30 24L30 22L29 22L29 21L28 21L28 20ZM58 21L58 22L59 22L59 21ZM13 22L13 23L14 23L14 22ZM52 23L52 24L53 24L53 23ZM7 24L7 25L8 25L8 24ZM31 24L31 27L32 27L32 26L33 26L33 25L32 25L32 24ZM48 24L48 25L47 25L47 26L46 26L46 27L47 27L47 26L48 26L48 25L49 25L49 26L50 26L50 27L51 27L51 28L50 28L50 29L51 29L51 30L50 30L50 31L51 31L51 32L53 32L53 34L55 34L55 33L54 33L54 32L53 32L53 29L52 29L52 28L54 28L54 26L53 26L53 25L52 25L52 26L50 26L50 25L51 25L51 24L50 24L50 25L49 25L49 24ZM12 25L12 26L13 26L13 25ZM44 25L44 26L45 26L45 25ZM1 26L1 27L2 27L2 28L3 28L3 27L2 27L2 26ZM36 26L36 27L34 27L34 28L38 28L38 27L37 27L37 26ZM52 26L52 27L53 27L53 26ZM57 26L57 27L58 27L58 28L59 28L59 26ZM9 27L9 29L11 29L11 28L13 28L13 29L14 29L14 27L11 27L11 28L10 28L10 27ZM21 27L21 28L22 28L22 27ZM5 28L5 29L7 29L7 28ZM54 29L54 30L56 30L56 29ZM19 30L19 31L20 31L20 30ZM36 30L36 31L37 31L37 30ZM42 30L42 31L43 31L43 30ZM46 30L46 31L48 31L48 30ZM62 30L62 31L63 31L63 30ZM5 31L5 34L8 34L8 31ZM21 31L21 32L22 32L22 31ZM31 31L31 34L34 34L34 31ZM57 31L57 34L60 34L60 31ZM6 32L6 33L7 33L7 32ZM19 32L19 33L18 33L18 35L17 35L17 36L18 36L18 37L16 37L16 39L17 39L17 38L18 38L18 37L19 37L19 36L21 36L21 37L22 37L22 39L23 39L23 40L22 40L22 41L20 41L20 40L19 40L19 41L20 41L20 42L22 42L22 41L23 41L23 40L24 40L24 41L27 41L27 42L26 42L26 43L25 43L25 42L23 42L23 43L22 43L22 45L23 45L23 46L22 46L22 47L23 47L23 46L24 46L24 45L23 45L23 44L24 44L24 43L25 43L25 46L26 46L26 45L27 45L27 46L30 46L30 45L27 45L27 42L30 42L30 41L27 41L27 40L28 40L28 39L29 39L29 40L34 40L34 41L35 41L35 40L34 40L34 39L36 39L36 40L37 40L37 39L38 39L38 40L39 40L39 39L38 39L38 38L37 38L37 37L35 37L35 36L34 36L34 35L33 35L33 36L34 36L34 37L35 37L35 38L34 38L34 39L32 39L32 38L33 38L33 37L32 37L32 36L31 36L31 37L32 37L32 38L30 38L30 37L28 37L28 39L27 39L27 40L26 40L26 38L27 38L27 35L26 35L26 38L23 38L23 37L25 37L25 36L23 36L23 37L22 37L22 36L21 36L21 35L22 35L22 34L21 34L21 33L20 33L20 32ZM26 32L26 33L27 33L27 32ZM32 32L32 33L33 33L33 32ZM58 32L58 33L59 33L59 32ZM19 33L19 34L20 34L20 35L21 35L21 34L20 34L20 33ZM1 34L1 35L2 35L2 34ZM29 35L29 36L30 36L30 35ZM44 35L44 36L45 36L45 37L46 37L46 36L45 36L45 35ZM10 36L10 37L11 37L11 39L12 39L12 40L11 40L11 41L12 41L12 40L14 40L14 41L15 41L15 40L14 40L14 39L12 39L12 37L11 37L11 36ZM42 36L42 38L43 38L43 39L42 39L42 40L43 40L43 39L44 39L44 38L43 38L43 36ZM48 36L48 37L49 37L49 36ZM57 36L57 37L58 37L58 39L59 39L59 40L58 40L58 41L62 41L62 40L63 40L63 38L62 38L62 37L61 37L61 36L60 36L60 37L58 37L58 36ZM0 37L0 39L1 39L1 38L2 38L2 37ZM7 37L7 38L8 38L8 37ZM13 37L13 38L14 38L14 37ZM60 37L60 38L61 38L61 39L60 39L60 40L62 40L62 38L61 38L61 37ZM29 38L29 39L30 39L30 38ZM36 38L36 39L37 39L37 38ZM46 38L46 39L47 39L47 38ZM56 38L56 40L57 40L57 38ZM4 39L4 40L5 40L5 39ZM24 39L24 40L25 40L25 39ZM0 40L0 41L2 41L2 40ZM5 41L5 42L4 42L4 43L6 43L6 44L4 44L4 47L5 47L5 48L4 48L4 49L5 49L5 48L7 48L7 47L9 47L9 46L7 46L7 45L6 45L6 44L7 44L7 43L6 43L6 42L7 42L7 41ZM32 41L32 42L31 42L31 43L28 43L28 44L33 44L33 43L32 43L32 42L33 42L33 41ZM54 41L54 42L55 42L55 41ZM15 42L15 43L14 43L14 44L15 44L15 43L16 43L16 44L17 44L17 45L20 45L20 44L17 44L17 43L16 43L16 42ZM40 42L40 43L41 43L41 42ZM62 43L62 44L63 44L63 43ZM1 44L1 45L2 45L2 48L3 48L3 45L2 45L2 44ZM36 44L36 45L37 45L37 44ZM40 44L40 45L42 45L42 44ZM34 45L34 46L35 46L35 45ZM6 46L6 47L7 47L7 46ZM19 46L19 47L20 47L20 46ZM52 46L52 47L53 47L53 46ZM54 46L54 47L55 47L55 46ZM11 47L11 50L13 50L13 52L11 52L11 51L9 51L9 52L11 52L11 55L12 55L12 56L13 56L13 55L14 55L14 53L13 53L13 52L15 52L15 53L17 53L17 52L16 52L16 49L17 49L17 50L18 50L18 49L17 49L17 48L16 48L16 47L14 47L14 48L12 48L12 47ZM8 48L8 49L9 49L9 48ZM14 48L14 49L13 49L13 50L14 50L14 49L15 49L15 48ZM34 48L34 49L35 49L35 48ZM37 50L37 51L38 51L38 50ZM48 50L48 51L49 51L49 50ZM42 51L42 52L43 52L43 53L42 53L42 54L41 54L41 53L40 53L40 54L38 54L38 56L36 56L36 57L37 57L37 58L38 58L38 59L39 59L39 58L38 58L38 56L39 56L39 55L40 55L40 56L41 56L41 57L40 57L40 60L41 60L41 58L44 58L44 56L47 56L47 55L48 55L48 54L50 54L50 55L51 55L51 56L50 56L50 57L51 57L51 58L52 58L52 57L51 57L51 56L53 56L53 54L52 54L52 53L51 53L51 52L50 52L50 53L49 53L49 52L48 52L48 54L46 54L46 53L44 53L44 52L43 52L43 51ZM64 51L64 52L65 52L65 51ZM20 52L20 53L22 53L22 52ZM24 53L24 54L25 54L25 53ZM28 53L28 54L30 54L30 55L31 55L31 53ZM43 53L43 54L42 54L42 55L43 55L43 56L42 56L42 57L43 57L43 56L44 56L44 55L45 55L45 54L44 54L44 53ZM50 53L50 54L51 54L51 55L52 55L52 54L51 54L51 53ZM40 54L40 55L41 55L41 54ZM25 55L25 56L27 56L27 55ZM60 55L60 56L61 56L61 57L62 57L62 56L61 56L61 55ZM8 56L8 57L9 57L9 56ZM28 56L28 57L29 57L29 56ZM24 57L24 59L25 59L25 57ZM26 57L26 58L27 58L27 57ZM31 57L31 60L34 60L34 57ZM53 57L53 58L55 58L55 57ZM57 57L57 60L60 60L60 57ZM32 58L32 59L33 59L33 58ZM58 58L58 59L59 59L59 58ZM12 59L12 60L13 60L13 59ZM16 59L16 60L17 60L17 61L19 61L19 59ZM26 59L26 60L27 60L27 59ZM62 59L62 60L64 60L64 59ZM8 60L8 65L9 65L9 64L10 64L10 63L9 63L9 60ZM12 61L12 63L11 63L11 65L12 65L12 64L13 64L13 65L14 65L14 64L13 64L13 63L14 63L14 62L13 62L13 61ZM57 61L57 62L56 62L56 63L57 63L57 64L59 64L59 63L58 63L58 62L59 62L59 61ZM60 61L60 62L61 62L61 63L62 63L62 64L63 64L63 63L62 63L62 62L63 62L63 61ZM36 62L36 63L37 63L37 62ZM25 63L25 65L26 65L26 63ZM0 0L0 7L7 7L7 0ZM1 1L1 6L6 6L6 1ZM2 2L2 5L5 5L5 2ZM58 0L58 7L65 7L65 0ZM59 1L59 6L64 6L64 1ZM60 2L60 5L63 5L63 2ZM0 58L0 65L7 65L7 58ZM1 59L1 64L6 64L6 59ZM2 60L2 63L5 63L5 60Z" fill="#000000"/></g></g></svg>
