<?xml version="1.0" encoding="UTF-8"?>
<svg xmlns="http://www.w3.org/2000/svg" version="1.1" width="300" height="300" viewBox="0 0 300 300"><rect x="0" y="0" width="300" height="300" fill="#ffffff"/><g transform="scale(4.615)"><g transform="translate(0,0)"><path fill-rule="evenodd" d="M9 0L9 1L8 1L8 2L9 2L9 3L8 3L8 4L9 4L9 5L8 5L8 7L9 7L9 8L6 8L6 9L5 9L5 8L0 8L0 9L1 9L1 10L2 10L2 15L0 15L0 18L1 18L1 19L0 19L0 22L1 22L1 23L0 23L0 25L2 25L2 26L1 26L1 27L0 27L0 30L1 30L1 29L2 29L2 30L3 30L3 31L4 31L4 32L0 32L0 33L1 33L1 34L2 34L2 36L0 36L0 37L3 37L3 38L0 38L0 41L1 41L1 42L0 42L0 43L1 43L1 44L2 44L2 45L5 45L5 46L4 46L4 47L3 47L3 46L2 46L2 48L1 48L1 46L0 46L0 54L2 54L2 55L3 55L3 56L1 56L1 55L0 55L0 56L1 56L1 57L3 57L3 56L4 56L4 57L5 57L5 56L4 56L4 54L2 54L2 53L3 53L3 52L4 52L4 51L7 51L7 50L6 50L6 49L7 49L7 48L8 48L8 49L9 49L9 48L8 48L8 47L7 47L7 46L6 46L6 45L11 45L11 46L14 46L14 47L10 47L10 48L15 48L15 50L13 50L13 49L11 49L11 50L10 50L10 51L11 51L11 52L9 52L9 50L8 50L8 54L5 54L5 55L7 55L7 56L6 56L6 57L8 57L8 59L9 59L9 60L8 60L8 65L11 65L11 64L12 64L12 65L22 65L22 64L24 64L24 63L22 63L22 62L24 62L24 61L25 61L25 62L26 62L26 63L25 63L25 64L27 64L27 65L33 65L33 64L34 64L34 65L35 65L35 64L34 64L34 63L35 63L35 62L34 62L34 61L37 61L37 60L39 60L39 59L40 59L40 60L42 60L42 61L40 61L40 64L41 64L41 65L44 65L44 64L45 64L45 63L48 63L48 62L49 62L49 63L51 63L51 62L52 62L52 60L53 60L53 58L55 58L55 59L54 59L54 60L55 60L55 61L53 61L53 62L55 62L55 63L54 63L54 64L55 64L55 63L56 63L56 64L57 64L57 63L59 63L59 64L58 64L58 65L63 65L63 64L64 64L64 60L65 60L65 59L64 59L64 60L62 60L62 61L63 61L63 62L62 62L62 63L61 63L61 62L60 62L60 61L61 61L61 57L62 57L62 59L63 59L63 58L65 58L65 57L64 57L64 56L65 56L65 55L63 55L63 54L62 54L62 55L63 55L63 56L59 56L59 55L58 55L58 56L56 56L56 55L57 55L57 54L56 54L56 53L53 53L53 54L50 54L50 53L51 53L51 52L53 52L53 49L52 49L52 48L54 48L54 50L55 50L55 51L54 51L54 52L57 52L57 51L58 51L58 54L59 54L59 53L60 53L60 54L61 54L61 53L60 53L60 52L62 52L62 53L64 53L64 54L65 54L65 53L64 53L64 52L65 52L65 51L63 51L63 50L61 50L61 49L64 49L64 50L65 50L65 49L64 49L64 48L62 48L62 46L61 46L61 45L63 45L63 44L61 44L61 43L60 43L60 44L61 44L61 45L60 45L60 46L59 46L59 43L58 43L58 42L57 42L57 43L52 43L52 42L55 42L55 40L56 40L56 41L57 41L57 40L61 40L61 38L65 38L65 37L64 37L64 35L63 35L63 34L62 34L62 35L61 35L61 32L62 32L62 33L63 33L63 32L62 32L62 30L63 30L63 29L64 29L64 28L65 28L65 27L63 27L63 28L62 28L62 29L61 29L61 28L59 28L59 26L58 26L58 28L56 28L56 25L58 25L58 24L59 24L59 25L61 25L61 26L60 26L60 27L61 27L61 26L62 26L62 25L63 25L63 26L65 26L65 23L64 23L64 25L63 25L63 24L62 24L62 22L61 22L61 20L58 20L58 21L59 21L59 22L57 22L57 23L54 23L54 24L55 24L55 25L53 25L53 26L52 26L52 27L51 27L51 26L50 26L50 25L52 25L52 24L53 24L53 22L55 22L55 21L54 21L54 20L55 20L55 19L52 19L52 18L50 18L50 17L52 17L52 16L53 16L53 18L55 18L55 17L59 17L59 16L58 16L58 15L61 15L61 16L60 16L60 18L58 18L58 19L60 19L60 18L61 18L61 19L63 19L63 20L62 20L62 21L64 21L64 22L65 22L65 21L64 21L64 20L65 20L65 19L63 19L63 18L65 18L65 15L64 15L64 16L62 16L62 14L63 14L63 13L64 13L64 14L65 14L65 12L62 12L62 11L63 11L63 10L65 10L65 9L64 9L64 8L63 8L63 10L62 10L62 11L61 11L61 12L59 12L59 13L60 13L60 14L55 14L55 13L51 13L51 12L53 12L53 10L52 10L52 9L51 9L51 6L52 6L52 8L53 8L53 6L54 6L54 7L55 7L55 5L54 5L54 4L56 4L56 5L57 5L57 4L56 4L56 3L57 3L57 1L56 1L56 0L55 0L55 1L56 1L56 3L55 3L55 2L54 2L54 3L53 3L53 1L54 1L54 0L53 0L53 1L52 1L52 0L51 0L51 1L50 1L50 2L51 2L51 1L52 1L52 3L51 3L51 5L50 5L50 3L48 3L48 5L45 5L45 4L44 4L44 3L46 3L46 4L47 4L47 3L46 3L46 2L47 2L47 1L46 1L46 2L45 2L45 1L43 1L43 0L41 0L41 1L40 1L40 0L39 0L39 1L38 1L38 4L39 4L39 1L40 1L40 3L41 3L41 2L42 2L42 3L43 3L43 4L42 4L42 5L43 5L43 6L42 6L42 7L41 7L41 6L40 6L40 7L39 7L39 5L38 5L38 7L37 7L37 6L36 6L36 5L37 5L37 3L36 3L36 5L35 5L35 2L36 2L36 0L35 0L35 1L34 1L34 3L33 3L33 2L32 2L32 3L31 3L31 4L30 4L30 7L29 7L29 6L28 6L28 4L29 4L29 2L28 2L28 0L26 0L26 1L25 1L25 0L21 0L21 1L22 1L22 2L19 2L19 3L20 3L20 4L18 4L18 3L17 3L17 4L16 4L16 5L15 5L15 6L14 6L14 5L13 5L13 4L14 4L14 2L16 2L16 0L14 0L14 1L12 1L12 2L9 2L9 1L11 1L11 0ZM29 0L29 1L33 1L33 0ZM17 1L17 2L18 2L18 1ZM23 1L23 3L24 3L24 4L25 4L25 5L23 5L23 4L22 4L22 3L21 3L21 4L20 4L20 6L19 6L19 5L18 5L18 4L17 4L17 5L16 5L16 6L15 6L15 7L14 7L14 6L13 6L13 5L12 5L12 4L13 4L13 3L12 3L12 4L10 4L10 5L9 5L9 7L10 7L10 6L11 6L11 7L12 7L12 6L13 6L13 8L12 8L12 9L11 9L11 8L9 8L9 9L6 9L6 10L7 10L7 11L6 11L6 12L5 12L5 11L4 11L4 9L2 9L2 10L3 10L3 12L5 12L5 14L7 14L7 13L8 13L8 10L9 10L9 14L8 14L8 17L6 17L6 18L4 18L4 20L9 20L9 21L8 21L8 22L7 22L7 21L6 21L6 22L5 22L5 21L4 21L4 22L5 22L5 24L4 24L4 23L3 23L3 22L2 22L2 20L3 20L3 19L2 19L2 20L1 20L1 22L2 22L2 23L1 23L1 24L2 24L2 23L3 23L3 24L4 24L4 25L5 25L5 26L4 26L4 27L1 27L1 28L4 28L4 29L3 29L3 30L5 30L5 28L9 28L9 29L10 29L10 28L11 28L11 30L9 30L9 31L10 31L10 32L9 32L9 35L5 35L5 36L4 36L4 35L3 35L3 37L6 37L6 38L8 38L8 40L7 40L7 39L6 39L6 40L7 40L7 41L5 41L5 38L4 38L4 39L1 39L1 41L2 41L2 42L3 42L3 41L5 41L5 42L7 42L7 43L6 43L6 44L8 44L8 43L9 43L9 44L11 44L11 45L12 45L12 44L13 44L13 45L14 45L14 44L15 44L15 45L16 45L16 46L15 46L15 47L16 47L16 48L17 48L17 45L18 45L18 48L21 48L21 47L22 47L22 49L23 49L23 48L24 48L24 49L25 49L25 48L26 48L26 49L27 49L27 50L22 50L22 51L21 51L21 52L22 52L22 53L20 53L20 50L21 50L21 49L18 49L18 50L17 50L17 49L16 49L16 51L15 51L15 52L17 52L17 53L16 53L16 54L15 54L15 56L18 56L18 55L19 55L19 57L18 57L18 58L17 58L17 57L16 57L16 58L14 58L14 56L12 56L12 58L14 58L14 59L11 59L11 58L10 58L10 57L11 57L11 55L12 55L12 54L13 54L13 55L14 55L14 52L13 52L13 53L12 53L12 54L10 54L10 53L9 53L9 54L10 54L10 57L9 57L9 59L11 59L11 60L12 60L12 61L11 61L11 62L10 62L10 60L9 60L9 64L10 64L10 63L12 63L12 64L13 64L13 63L14 63L14 64L16 64L16 63L15 63L15 62L16 62L16 61L18 61L18 62L17 62L17 64L19 64L19 63L20 63L20 62L19 62L19 61L21 61L21 62L22 62L22 61L24 61L24 60L25 60L25 59L26 59L26 61L27 61L27 59L28 59L28 60L30 60L30 58L29 58L29 57L30 57L30 55L31 55L31 56L34 56L34 55L36 55L36 56L37 56L37 55L36 55L36 54L37 54L37 53L36 53L36 52L38 52L38 54L40 54L40 53L41 53L41 52L40 52L40 53L39 53L39 51L37 51L37 50L39 50L39 49L41 49L41 48L42 48L42 49L43 49L43 50L40 50L40 51L43 51L43 52L42 52L42 53L43 53L43 52L44 52L44 55L45 55L45 56L44 56L44 57L43 57L43 56L42 56L42 55L43 55L43 54L41 54L41 56L38 56L38 57L37 57L37 58L36 58L36 57L35 57L35 58L36 58L36 59L35 59L35 60L37 60L37 59L38 59L38 58L39 58L39 57L43 57L43 58L41 58L41 59L42 59L42 60L44 60L44 62L42 62L42 63L43 63L43 64L44 64L44 63L45 63L45 62L47 62L47 61L48 61L48 60L49 60L49 61L50 61L50 62L51 62L51 61L50 61L50 60L51 60L51 59L52 59L52 58L51 58L51 55L50 55L50 58L51 58L51 59L48 59L48 58L49 58L49 57L47 57L47 56L49 56L49 55L47 55L47 56L46 56L46 55L45 55L45 54L47 54L47 52L49 52L49 53L48 53L48 54L49 54L49 53L50 53L50 52L51 52L51 51L47 51L47 52L44 52L44 51L43 51L43 50L48 50L48 48L49 48L49 47L50 47L50 46L51 46L51 44L52 44L52 45L53 45L53 44L52 44L52 43L51 43L51 44L49 44L49 43L50 43L50 42L51 42L51 41L54 41L54 40L52 40L52 39L53 39L53 36L51 36L51 35L50 35L50 34L52 34L52 35L54 35L54 37L55 37L55 38L54 38L54 39L56 39L56 40L57 40L57 39L60 39L60 37L61 37L61 36L57 36L57 35L56 35L56 34L53 34L53 32L54 32L54 31L55 31L55 32L56 32L56 30L57 30L57 29L56 29L56 30L53 30L53 32L52 32L52 31L50 31L50 30L51 30L51 28L50 28L50 27L48 27L48 26L47 26L47 25L46 25L46 26L45 26L45 27L46 27L46 26L47 26L47 29L46 29L46 30L47 30L47 31L45 31L45 30L44 30L44 29L45 29L45 28L42 28L42 27L43 27L43 26L42 26L42 25L43 25L43 24L42 24L42 23L43 23L43 22L42 22L42 20L43 20L43 18L42 18L42 17L44 17L44 18L45 18L45 20L44 20L44 21L45 21L45 23L46 23L46 22L47 22L47 24L49 24L49 25L50 25L50 24L51 24L51 23L52 23L52 22L53 22L53 20L52 20L52 22L51 22L51 20L50 20L50 19L49 19L49 17L50 17L50 16L51 16L51 15L48 15L48 14L51 14L51 13L50 13L50 10L51 10L51 11L52 11L52 10L51 10L51 9L49 9L49 10L48 10L48 8L50 8L50 5L49 5L49 7L48 7L48 6L47 6L47 7L46 7L46 6L45 6L45 5L44 5L44 4L43 4L43 5L44 5L44 6L43 6L43 8L44 8L44 9L43 9L43 10L42 10L42 8L39 8L39 7L38 7L38 10L40 10L40 9L41 9L41 11L46 11L46 12L47 12L47 11L46 11L46 10L48 10L48 12L49 12L49 13L46 13L46 14L45 14L45 15L46 15L46 16L44 16L44 13L45 13L45 12L43 12L43 14L42 14L42 13L41 13L41 12L40 12L40 11L36 11L36 10L37 10L37 9L36 9L36 10L35 10L35 9L34 9L34 10L35 10L35 11L33 11L33 12L30 12L30 11L31 11L31 9L28 9L28 8L29 8L29 7L28 7L28 6L27 6L27 4L25 4L25 3L26 3L26 2L25 2L25 1ZM42 1L42 2L43 2L43 3L44 3L44 2L43 2L43 1ZM48 1L48 2L49 2L49 1ZM24 2L24 3L25 3L25 2ZM27 2L27 3L28 3L28 2ZM32 3L32 4L33 4L33 3ZM52 3L52 4L53 4L53 3ZM21 4L21 6L20 6L20 9L19 9L19 6L18 6L18 5L17 5L17 6L16 6L16 7L15 7L15 9L14 9L14 8L13 8L13 9L12 9L12 11L13 11L13 9L14 9L14 10L15 10L15 11L14 11L14 12L13 12L13 13L12 13L12 12L11 12L11 10L10 10L10 9L9 9L9 10L10 10L10 12L11 12L11 14L10 14L10 17L9 17L9 18L6 18L6 19L9 19L9 20L10 20L10 22L11 22L11 21L12 21L12 23L11 23L11 25L10 25L10 26L11 26L11 25L13 25L13 24L12 24L12 23L14 23L14 25L15 25L15 27L13 27L13 26L12 26L12 27L13 27L13 28L12 28L12 30L14 30L14 31L13 31L13 32L10 32L10 34L11 34L11 35L9 35L9 37L8 37L8 36L6 36L6 37L8 37L8 38L10 38L10 39L9 39L9 40L10 40L10 41L8 41L8 42L10 42L10 43L11 43L11 44L12 44L12 43L11 43L11 42L13 42L13 44L14 44L14 42L13 42L13 41L14 41L14 40L15 40L15 39L16 39L16 41L17 41L17 40L18 40L18 41L19 41L19 42L18 42L18 43L22 43L22 44L21 44L21 46L22 46L22 47L24 47L24 48L25 48L25 47L27 47L27 49L29 49L29 48L28 48L28 47L30 47L30 46L31 46L31 45L30 45L30 46L27 46L27 45L26 45L26 44L27 44L27 43L28 43L28 45L29 45L29 43L30 43L30 44L31 44L31 43L32 43L32 45L33 45L33 44L34 44L34 45L35 45L35 47L34 47L34 46L32 46L32 49L30 49L30 50L27 50L27 51L28 51L28 52L27 52L27 53L29 53L29 52L30 52L30 53L31 53L31 55L32 55L32 53L33 53L33 52L34 52L34 54L35 54L35 52L36 52L36 50L37 50L37 49L38 49L38 48L36 48L36 50L35 50L35 51L33 51L33 50L32 50L32 49L35 49L35 47L37 47L37 46L38 46L38 47L39 47L39 48L41 48L41 47L40 47L40 46L41 46L41 45L42 45L42 46L43 46L43 47L42 47L42 48L43 48L43 47L44 47L44 48L45 48L45 46L43 46L43 44L42 44L42 43L40 43L40 42L38 42L38 41L39 41L39 40L41 40L41 39L42 39L42 38L43 38L43 39L44 39L44 40L43 40L43 41L42 41L42 42L43 42L43 43L44 43L44 44L45 44L45 45L48 45L48 46L46 46L46 47L48 47L48 46L49 46L49 44L48 44L48 43L47 43L47 42L50 42L50 41L51 41L51 40L47 40L47 42L46 42L46 41L44 41L44 40L45 40L45 39L48 39L48 37L49 37L49 36L48 36L48 35L49 35L49 34L50 34L50 33L52 33L52 32L50 32L50 31L49 31L49 32L48 32L48 31L47 31L47 32L48 32L48 33L49 33L49 34L48 34L48 35L47 35L47 34L45 34L45 33L46 33L46 32L45 32L45 31L42 31L42 30L43 30L43 29L41 29L41 31L39 31L39 30L40 30L40 28L41 28L41 27L42 27L42 26L41 26L41 25L40 25L40 26L38 26L38 28L34 28L34 27L35 27L35 26L34 26L34 27L32 27L32 28L33 28L33 29L35 29L35 30L30 30L30 28L31 28L31 27L29 27L29 26L28 26L28 25L29 25L29 24L28 24L28 23L29 23L29 22L31 22L31 21L32 21L32 22L33 22L33 23L32 23L32 24L31 24L31 23L30 23L30 24L31 24L31 25L30 25L30 26L31 26L31 25L32 25L32 26L33 26L33 25L37 25L37 24L38 24L38 23L39 23L39 24L41 24L41 23L40 23L40 22L41 22L41 21L40 21L40 22L38 22L38 21L39 21L39 20L42 20L42 19L40 19L40 18L36 18L36 17L37 17L37 16L34 16L34 15L35 15L35 14L38 14L38 15L39 15L39 16L38 16L38 17L39 17L39 16L41 16L41 17L42 17L42 16L41 16L41 15L40 15L40 14L41 14L41 13L40 13L40 12L38 12L38 13L37 13L37 12L35 12L35 14L34 14L34 15L30 15L30 13L29 13L29 15L28 15L28 16L27 16L27 15L26 15L26 16L25 16L25 14L28 14L28 12L29 12L29 10L28 10L28 9L26 9L26 10L27 10L27 11L26 11L26 12L27 12L27 13L25 13L25 11L24 11L24 12L23 12L23 13L22 13L22 12L21 12L21 15L24 15L24 16L23 16L23 17L21 17L21 16L20 16L20 17L21 17L21 19L22 19L22 18L23 18L23 20L26 20L26 19L25 19L25 18L27 18L27 17L29 17L29 20L27 20L27 21L29 21L29 22L26 22L26 21L24 21L24 22L23 22L23 23L22 23L22 22L20 22L20 21L22 21L22 20L20 20L20 21L19 21L19 18L18 18L18 17L19 17L19 16L17 16L17 17L16 17L16 18L15 18L15 17L14 17L14 16L15 16L15 14L16 14L16 15L17 15L17 14L16 14L16 13L20 13L20 12L19 12L19 11L20 11L20 9L21 9L21 10L22 10L22 11L23 11L23 9L24 9L24 10L25 10L25 9L24 9L24 8L27 8L27 6L26 6L26 7L25 7L25 6L24 6L24 8L23 8L23 5L22 5L22 4ZM31 5L31 8L34 8L34 5ZM52 5L52 6L53 6L53 5ZM17 6L17 7L16 7L16 8L17 8L17 10L16 10L16 12L17 12L17 11L18 11L18 10L19 10L19 9L18 9L18 6ZM21 6L21 7L22 7L22 6ZM32 6L32 7L33 7L33 6ZM35 6L35 8L37 8L37 7L36 7L36 6ZM44 6L44 8L45 8L45 9L44 9L44 10L46 10L46 9L47 9L47 8L46 8L46 7L45 7L45 6ZM56 6L56 7L57 7L57 6ZM22 8L22 9L23 9L23 8ZM56 8L56 9L54 9L54 10L56 10L56 11L57 11L57 12L56 12L56 13L57 13L57 12L58 12L58 11L60 11L60 10L61 10L61 9L62 9L62 8L61 8L61 9L60 9L60 8L59 8L59 10L58 10L58 8ZM32 9L32 10L33 10L33 9ZM56 9L56 10L57 10L57 9ZM54 11L54 12L55 12L55 11ZM6 12L6 13L7 13L7 12ZM14 12L14 13L15 13L15 12ZM61 12L61 14L62 14L62 12ZM23 13L23 14L24 14L24 13ZM32 13L32 14L33 14L33 13ZM38 13L38 14L39 14L39 13ZM3 14L3 15L2 15L2 17L3 17L3 16L4 16L4 14ZM12 14L12 17L10 17L10 18L13 18L13 19L15 19L15 18L13 18L13 16L14 16L14 15L13 15L13 14ZM18 14L18 15L20 15L20 14ZM46 14L46 15L47 15L47 14ZM52 14L52 15L53 15L53 16L56 16L56 15L55 15L55 14L54 14L54 15L53 15L53 14ZM6 15L6 16L7 16L7 15ZM24 16L24 17L25 17L25 16ZM26 16L26 17L27 17L27 16ZM29 16L29 17L31 17L31 19L34 19L34 20L35 20L35 21L33 21L33 20L32 20L32 21L33 21L33 22L35 22L35 23L34 23L34 24L35 24L35 23L36 23L36 24L37 24L37 23L38 23L38 22L35 22L35 21L36 21L36 20L37 20L37 21L38 21L38 20L39 20L39 19L34 19L34 18L35 18L35 17L33 17L33 16ZM46 16L46 17L47 17L47 16ZM48 16L48 17L49 17L49 16ZM61 16L61 18L62 18L62 16ZM32 17L32 18L33 18L33 17ZM16 18L16 19L18 19L18 18ZM46 18L46 19L47 19L47 18ZM56 18L56 19L57 19L57 18ZM11 19L11 20L12 20L12 19ZM13 20L13 22L14 22L14 20ZM15 20L15 21L16 21L16 22L15 22L15 23L16 23L16 24L19 24L19 25L18 25L18 27L17 27L17 28L16 28L16 29L15 29L15 28L14 28L14 30L16 30L16 29L17 29L17 30L19 30L19 31L18 31L18 32L19 32L19 31L20 31L20 30L19 30L19 29L21 29L21 30L22 30L22 31L21 31L21 33L16 33L16 31L14 31L14 33L12 33L12 36L10 36L10 38L12 38L12 39L10 39L10 40L12 40L12 41L13 41L13 39L15 39L15 38L14 38L14 37L15 37L15 35L14 35L14 37L13 37L13 38L12 38L12 36L13 36L13 34L15 34L15 33L16 33L16 34L18 34L18 35L16 35L16 36L18 36L18 37L16 37L16 39L17 39L17 38L18 38L18 39L19 39L19 38L18 38L18 37L19 37L19 36L21 36L21 37L20 37L20 40L19 40L19 41L20 41L20 42L22 42L22 41L25 41L25 40L26 40L26 41L27 41L27 40L28 40L28 38L30 38L30 39L35 39L35 40L33 40L33 41L32 41L32 40L29 40L29 41L28 41L28 43L29 43L29 42L30 42L30 41L31 41L31 42L33 42L33 41L34 41L34 43L35 43L35 44L38 44L38 46L39 46L39 45L41 45L41 44L39 44L39 43L37 43L37 41L38 41L38 40L39 40L39 39L38 39L38 38L39 38L39 37L43 37L43 36L44 36L44 38L47 38L47 37L45 37L45 36L44 36L44 35L45 35L45 34L44 34L44 33L45 33L45 32L44 32L44 33L43 33L43 32L42 32L42 31L41 31L41 32L39 32L39 33L38 33L38 30L39 30L39 28L38 28L38 30L37 30L37 31L36 31L36 30L35 30L35 31L36 31L36 32L37 32L37 33L35 33L35 35L36 35L36 36L33 36L33 35L32 35L32 36L31 36L31 35L29 35L29 36L31 36L31 38L30 38L30 37L28 37L28 35L27 35L27 37L25 37L25 36L26 36L26 35L25 35L25 34L26 34L26 33L27 33L27 34L29 34L29 33L30 33L30 31L29 31L29 27L28 27L28 28L26 28L26 25L28 25L28 24L27 24L27 23L25 23L25 24L24 24L24 23L23 23L23 24L21 24L21 23L20 23L20 22L19 22L19 23L18 23L18 22L17 22L17 21L18 21L18 20ZM30 20L30 21L31 21L31 20ZM47 20L47 21L49 21L49 22L48 22L48 23L51 23L51 22L50 22L50 20ZM56 20L56 21L57 21L57 20ZM6 22L6 23L7 23L7 22ZM59 22L59 23L60 23L60 24L61 24L61 25L62 25L62 24L61 24L61 22ZM8 23L8 25L9 25L9 24L10 24L10 23ZM57 23L57 24L58 24L58 23ZM5 24L5 25L7 25L7 24ZM20 24L20 25L19 25L19 27L18 27L18 29L19 29L19 27L20 27L20 28L22 28L22 27L23 27L23 28L24 28L24 29L22 29L22 30L24 30L24 29L25 29L25 25L24 25L24 27L23 27L23 25L21 25L21 24ZM32 24L32 25L33 25L33 24ZM44 24L44 25L45 25L45 24ZM16 25L16 26L17 26L17 25ZM20 25L20 27L22 27L22 26L21 26L21 25ZM6 26L6 27L7 27L7 26ZM8 26L8 27L9 27L9 28L10 28L10 27L9 27L9 26ZM36 26L36 27L37 27L37 26ZM40 26L40 27L41 27L41 26ZM54 26L54 27L53 27L53 28L52 28L52 29L53 29L53 28L54 28L54 29L55 29L55 28L54 28L54 27L55 27L55 26ZM48 28L48 29L47 29L47 30L48 30L48 29L49 29L49 28ZM58 28L58 30L59 30L59 28ZM6 29L6 30L7 30L7 29ZM26 29L26 30L25 30L25 32L26 32L26 31L27 31L27 29ZM5 31L5 34L8 34L8 31ZM23 31L23 32L24 32L24 31ZM28 31L28 32L27 32L27 33L29 33L29 31ZM31 31L31 34L34 34L34 31ZM57 31L57 34L60 34L60 31ZM64 31L64 32L65 32L65 31ZM6 32L6 33L7 33L7 32ZM32 32L32 33L33 33L33 32ZM58 32L58 33L59 33L59 32ZM2 33L2 34L4 34L4 33ZM21 33L21 34L22 34L22 35L21 35L21 36L22 36L22 37L21 37L21 39L22 39L22 40L25 40L25 37L23 37L23 35L24 35L24 36L25 36L25 35L24 35L24 34L25 34L25 33ZM41 33L41 34L36 34L36 35L40 35L40 36L41 36L41 35L42 35L42 36L43 36L43 35L42 35L42 34L43 34L43 33ZM64 33L64 34L65 34L65 33ZM19 34L19 35L20 35L20 34ZM46 35L46 36L47 36L47 35ZM55 35L55 36L56 36L56 35ZM62 35L62 36L63 36L63 35ZM32 36L32 37L33 37L33 36ZM36 36L36 37L37 37L37 38L38 38L38 37L39 37L39 36L38 36L38 37L37 37L37 36ZM50 36L50 37L51 37L51 36ZM22 37L22 39L23 39L23 37ZM34 37L34 38L35 38L35 37ZM56 37L56 38L57 38L57 37ZM58 37L58 38L59 38L59 37ZM40 38L40 39L41 39L41 38ZM50 38L50 39L52 39L52 38ZM26 39L26 40L27 40L27 39ZM64 39L64 40L65 40L65 39ZM20 40L20 41L21 41L21 40ZM36 40L36 41L35 41L35 42L36 42L36 41L37 41L37 40ZM62 40L62 41L63 41L63 40ZM10 41L10 42L11 42L11 41ZM59 41L59 42L61 42L61 41ZM64 41L64 42L65 42L65 41ZM15 42L15 44L16 44L16 43L17 43L17 42ZM23 42L23 44L22 44L22 45L23 45L23 46L24 46L24 45L23 45L23 44L24 44L24 43L25 43L25 44L26 44L26 43L27 43L27 42ZM44 42L44 43L45 43L45 42ZM62 42L62 43L63 43L63 42ZM46 43L46 44L47 44L47 43ZM18 44L18 45L20 45L20 44ZM55 44L55 45L56 45L56 46L54 46L54 48L55 48L55 50L56 50L56 51L57 51L57 50L56 50L56 48L57 48L57 46L58 46L58 47L59 47L59 48L58 48L58 49L61 49L61 47L59 47L59 46L58 46L58 45L56 45L56 44ZM25 45L25 46L26 46L26 45ZM36 45L36 46L37 46L37 45ZM5 46L5 48L4 48L4 49L6 49L6 48L7 48L7 47L6 47L6 46ZM19 46L19 47L20 47L20 46ZM52 46L52 47L51 47L51 48L52 48L52 47L53 47L53 46ZM55 47L55 48L56 48L56 47ZM1 49L1 53L2 53L2 52L3 52L3 51L2 51L2 50L3 50L3 49ZM50 49L50 50L51 50L51 49ZM12 50L12 51L13 51L13 50ZM18 50L18 51L17 51L17 52L18 52L18 53L17 53L17 54L16 54L16 55L18 55L18 54L19 54L19 55L21 55L21 56L20 56L20 57L19 57L19 60L18 60L18 61L19 61L19 60L20 60L20 57L21 57L21 56L23 56L23 57L22 57L22 58L21 58L21 60L24 60L24 58L25 58L25 57L26 57L26 58L27 58L27 57L29 57L29 56L27 56L27 55L26 55L26 53L23 53L23 54L25 54L25 55L24 55L24 56L23 56L23 55L22 55L22 54L20 54L20 53L19 53L19 50ZM30 50L30 51L31 51L31 53L32 53L32 52L33 52L33 51L32 51L32 50ZM58 50L58 51L59 51L59 52L60 52L60 51L61 51L61 50ZM24 51L24 52L26 52L26 51ZM62 51L62 52L63 52L63 51ZM6 52L6 53L7 53L7 52ZM28 54L28 55L30 55L30 54ZM53 54L53 55L56 55L56 54ZM8 55L8 56L9 56L9 55ZM24 56L24 57L25 57L25 56ZM26 56L26 57L27 57L27 56ZM45 56L45 57L44 57L44 58L45 58L45 59L44 59L44 60L45 60L45 61L47 61L47 60L46 60L46 59L47 59L47 58L46 58L46 56ZM52 56L52 57L53 57L53 56ZM55 56L55 58L56 58L56 56ZM31 57L31 60L34 60L34 57ZM57 57L57 60L60 60L60 57ZM16 58L16 59L14 59L14 60L13 60L13 61L16 61L16 60L17 60L17 58ZM22 58L22 59L23 59L23 58ZM32 58L32 59L33 59L33 58ZM58 58L58 59L59 59L59 58ZM55 59L55 60L56 60L56 59ZM28 61L28 63L29 63L29 61ZM30 61L30 62L31 62L31 61ZM58 61L58 62L59 62L59 61ZM12 62L12 63L13 63L13 62ZM18 62L18 63L19 63L19 62ZM32 62L32 63L31 63L31 64L33 64L33 62ZM36 62L36 63L37 63L37 62ZM38 62L38 63L39 63L39 62ZM56 62L56 63L57 63L57 62ZM52 63L52 64L50 64L50 65L52 65L52 64L53 64L53 63ZM62 63L62 64L63 64L63 63ZM36 64L36 65L37 65L37 64ZM38 64L38 65L39 65L39 64ZM47 64L47 65L49 65L49 64ZM0 0L0 7L7 7L7 0ZM1 1L1 6L6 6L6 1ZM2 2L2 5L5 5L5 2ZM58 0L58 7L65 7L65 0ZM59 1L59 6L64 6L64 1ZM60 2L60 5L63 5L63 2ZM0 58L0 65L7 65L7 58ZM1 59L1 64L6 64L6 59ZM2 60L2 63L5 63L5 60Z" fill="#000000"/></g></g></svg>
