<?xml version="1.0" encoding="UTF-8"?>
<svg xmlns="http://www.w3.org/2000/svg" version="1.1" width="300" height="300" viewBox="0 0 300 300"><rect x="0" y="0" width="300" height="300" fill="#ffffff"/><g transform="scale(4.615)"><g transform="translate(0,0)"><path fill-rule="evenodd" d="M10 0L10 1L8 1L8 2L9 2L9 3L8 3L8 4L9 4L9 3L11 3L11 2L10 2L10 1L12 1L12 4L11 4L11 6L10 6L10 5L8 5L8 7L9 7L9 8L6 8L6 9L5 9L5 8L0 8L0 11L2 11L2 12L0 12L0 17L1 17L1 18L2 18L2 17L3 17L3 19L2 19L2 20L1 20L1 19L0 19L0 27L1 27L1 33L0 33L0 34L2 34L2 35L3 35L3 36L2 36L2 37L4 37L4 35L7 35L7 36L6 36L6 37L5 37L5 40L6 40L6 41L4 41L4 38L2 38L2 39L3 39L3 42L4 42L4 43L5 43L5 44L2 44L2 45L0 45L0 47L3 47L3 49L5 49L5 50L3 50L3 51L5 51L5 50L6 50L6 51L7 51L7 52L5 52L5 53L8 53L8 55L7 55L7 54L5 54L5 55L7 55L7 56L6 56L6 57L7 57L7 56L8 56L8 59L9 59L9 57L10 57L10 59L12 59L12 61L11 61L11 62L12 62L12 64L15 64L15 63L16 63L16 65L17 65L17 61L19 61L19 62L20 62L20 63L19 63L19 64L18 64L18 65L21 65L21 64L24 64L24 63L26 63L26 62L27 62L27 64L28 64L28 65L33 65L33 64L30 64L30 61L31 61L31 63L32 63L32 62L33 62L33 63L36 63L36 62L37 62L37 61L39 61L39 62L38 62L38 63L39 63L39 65L40 65L40 64L41 64L41 65L43 65L43 64L42 64L42 63L40 63L40 62L43 62L43 61L44 61L44 62L45 62L45 61L44 61L44 60L45 60L45 58L46 58L46 61L47 61L47 62L46 62L46 63L44 63L44 64L45 64L45 65L47 65L47 62L48 62L48 63L49 63L49 62L50 62L50 63L51 63L51 62L52 62L52 60L53 60L53 61L54 61L54 62L55 62L55 61L56 61L56 62L57 62L57 61L58 61L58 63L59 63L59 64L57 64L57 65L61 65L61 62L60 62L60 61L62 61L62 63L63 63L63 64L62 64L62 65L63 65L63 64L64 64L64 61L63 61L63 60L62 60L62 59L63 59L63 57L64 57L64 58L65 58L65 57L64 57L64 56L65 56L65 55L64 55L64 54L65 54L65 53L64 53L64 52L65 52L65 51L63 51L63 50L61 50L61 49L64 49L64 50L65 50L65 49L64 49L64 48L61 48L61 47L60 47L60 48L61 48L61 49L58 49L58 48L59 48L59 47L54 47L54 46L56 46L56 45L52 45L52 44L53 44L53 43L52 43L52 44L51 44L51 42L50 42L50 41L49 41L49 40L51 40L51 39L52 39L52 40L53 40L53 42L55 42L55 40L56 40L56 41L57 41L57 42L56 42L56 43L54 43L54 44L57 44L57 45L58 45L58 46L61 46L61 45L58 45L58 44L59 44L59 43L57 43L57 42L61 42L61 43L60 43L60 44L62 44L62 45L64 45L64 44L65 44L65 43L63 43L63 42L65 42L65 39L64 39L64 38L65 38L65 37L64 37L64 38L62 38L62 39L63 39L63 40L61 40L61 41L58 41L58 40L60 40L60 39L61 39L61 37L63 37L63 36L62 36L62 35L63 35L63 34L65 34L65 32L64 32L64 33L63 33L63 32L62 32L62 33L63 33L63 34L62 34L62 35L61 35L61 30L62 30L62 29L65 29L65 28L62 28L62 27L63 27L63 26L65 26L65 25L63 25L63 24L62 24L62 25L63 25L63 26L62 26L62 27L61 27L61 26L60 26L60 25L61 25L61 24L59 24L59 26L58 26L58 28L57 28L57 27L56 27L56 26L55 26L55 24L56 24L56 25L57 25L57 23L59 23L59 22L63 22L63 23L64 23L64 24L65 24L65 23L64 23L64 22L65 22L65 19L64 19L64 21L63 21L63 20L62 20L62 21L61 21L61 20L59 20L59 18L56 18L56 21L57 21L57 23L55 23L55 24L54 24L54 23L52 23L52 22L55 22L55 21L54 21L54 20L55 20L55 19L52 19L52 18L48 18L48 17L49 17L49 16L46 16L46 15L48 15L48 14L49 14L49 15L51 15L51 16L50 16L50 17L51 17L51 16L53 16L53 17L54 17L54 18L55 18L55 17L54 17L54 16L53 16L53 15L52 15L52 14L55 14L55 15L56 15L56 17L57 17L57 15L59 15L59 16L58 16L58 17L61 17L61 16L62 16L62 18L60 18L60 19L63 19L63 17L64 17L64 18L65 18L65 15L64 15L64 16L62 16L62 15L63 15L63 14L62 14L62 15L61 15L61 14L60 14L60 15L59 15L59 14L57 14L57 15L56 15L56 13L57 13L57 12L58 12L58 11L59 11L59 12L60 12L60 13L61 13L61 12L60 12L60 11L61 11L61 10L65 10L65 9L64 9L64 8L63 8L63 9L62 9L62 8L61 8L61 9L60 9L60 8L59 8L59 10L58 10L58 11L55 11L55 12L56 12L56 13L51 13L51 14L50 14L50 11L51 11L51 12L54 12L54 11L51 11L51 10L50 10L50 9L52 9L52 8L53 8L53 6L54 6L54 8L55 8L55 9L53 9L53 10L56 10L56 9L58 9L58 8L55 8L55 5L54 5L54 4L56 4L56 5L57 5L57 4L56 4L56 3L57 3L57 1L56 1L56 0L55 0L55 1L56 1L56 3L55 3L55 2L54 2L54 3L53 3L53 1L54 1L54 0L53 0L53 1L52 1L52 0L51 0L51 1L50 1L50 2L49 2L49 3L48 3L48 5L49 5L49 6L48 6L48 7L49 7L49 6L50 6L50 7L51 7L51 8L50 8L50 9L49 9L49 8L47 8L47 5L46 5L46 4L47 4L47 2L48 2L48 0L47 0L47 1L46 1L46 2L44 2L44 0L40 0L40 1L38 1L38 0L35 0L35 1L34 1L34 0L29 0L29 1L28 1L28 0L26 0L26 1L25 1L25 0L22 0L22 2L20 2L20 0L19 0L19 2L20 2L20 3L19 3L19 4L18 4L18 3L16 3L16 0L14 0L14 2L13 2L13 0ZM17 1L17 2L18 2L18 1ZM23 1L23 4L22 4L22 3L21 3L21 4L20 4L20 5L19 5L19 7L18 7L18 4L17 4L17 7L16 7L16 6L15 6L15 7L14 7L14 6L13 6L13 5L14 5L14 4L15 4L15 5L16 5L16 3L14 3L14 4L13 4L13 5L12 5L12 6L11 6L11 7L10 7L10 6L9 6L9 7L10 7L10 9L8 9L8 11L6 11L6 12L7 12L7 13L6 13L6 14L7 14L7 15L6 15L6 16L5 16L5 15L4 15L4 12L5 12L5 10L4 10L4 11L3 11L3 12L2 12L2 14L3 14L3 15L2 15L2 16L5 16L5 18L4 18L4 19L5 19L5 18L7 18L7 19L6 19L6 20L8 20L8 22L9 22L9 24L8 24L8 25L6 25L6 24L7 24L7 23L6 23L6 22L7 22L7 21L6 21L6 22L5 22L5 23L2 23L2 22L4 22L4 21L2 21L2 22L1 22L1 23L2 23L2 26L1 26L1 27L2 27L2 26L3 26L3 24L4 24L4 26L8 26L8 27L4 27L4 28L3 28L3 30L4 30L4 29L5 29L5 28L9 28L9 26L10 26L10 25L15 25L15 23L16 23L16 24L17 24L17 25L16 25L16 27L15 27L15 28L16 28L16 29L15 29L15 30L14 30L14 29L13 29L13 31L12 31L12 28L11 28L11 27L12 27L12 26L11 26L11 27L10 27L10 29L9 29L9 30L10 30L10 31L9 31L9 35L8 35L8 36L7 36L7 37L6 37L6 38L7 38L7 39L6 39L6 40L9 40L9 42L8 42L8 41L6 41L6 42L5 42L5 43L6 43L6 44L8 44L8 45L5 45L5 48L7 48L7 49L6 49L6 50L8 50L8 48L7 48L7 47L8 47L8 46L9 46L9 45L10 45L10 46L14 46L14 47L12 47L12 48L11 48L11 49L9 49L9 50L10 50L10 51L9 51L9 52L8 52L8 53L9 53L9 55L10 55L10 52L11 52L11 49L12 49L12 51L13 51L13 52L15 52L15 51L16 51L16 52L17 52L17 53L15 53L15 55L16 55L16 56L15 56L15 57L14 57L14 56L12 56L12 57L13 57L13 60L15 60L15 59L14 59L14 58L17 58L17 59L16 59L16 61L14 61L14 62L13 62L13 63L14 63L14 62L16 62L16 61L17 61L17 59L20 59L20 60L19 60L19 61L21 61L21 62L22 62L22 63L23 63L23 62L22 62L22 61L23 61L23 60L21 60L21 58L22 58L22 59L23 59L23 58L22 58L22 57L23 57L23 56L24 56L24 57L25 57L25 58L24 58L24 60L25 60L25 61L27 61L27 62L29 62L29 61L30 61L30 58L29 58L29 57L30 57L30 56L29 56L29 55L27 55L27 54L26 54L26 55L27 55L27 56L26 56L26 57L25 57L25 54L24 54L24 53L25 53L25 52L26 52L26 53L27 53L27 52L26 52L26 51L27 51L27 50L30 50L30 49L27 49L27 48L26 48L26 49L27 49L27 50L25 50L25 52L24 52L24 51L23 51L23 50L22 50L22 51L19 51L19 54L17 54L17 53L18 53L18 52L17 52L17 51L18 51L18 50L19 50L19 49L20 49L20 50L21 50L21 49L20 49L20 48L22 48L22 49L23 49L23 48L22 48L22 47L21 47L21 43L22 43L22 45L23 45L23 46L24 46L24 43L25 43L25 46L26 46L26 45L27 45L27 47L28 47L28 48L29 48L29 46L30 46L30 47L31 47L31 45L32 45L32 46L34 46L34 47L35 47L35 48L34 48L34 49L31 49L31 52L33 52L33 53L32 53L32 56L33 56L33 53L34 53L34 55L35 55L35 57L36 57L36 58L37 58L37 57L36 57L36 56L37 56L37 55L38 55L38 58L39 58L39 56L40 56L40 57L41 57L41 58L40 58L40 59L39 59L39 61L41 61L41 60L44 60L44 57L45 57L45 56L43 56L43 58L42 58L42 56L40 56L40 55L46 55L46 56L47 56L47 55L46 55L46 54L48 54L48 56L50 56L50 54L51 54L51 57L46 57L46 58L47 58L47 61L48 61L48 60L50 60L50 62L51 62L51 59L50 59L50 58L52 58L52 59L53 59L53 58L52 58L52 57L53 57L53 56L55 56L55 58L54 58L54 60L56 60L56 59L55 59L55 58L56 58L56 56L57 56L57 55L60 55L60 53L61 53L61 56L63 56L63 55L62 55L62 52L63 52L63 51L62 51L62 52L60 52L60 51L61 51L61 50L58 50L58 51L57 51L57 50L56 50L56 52L54 52L54 51L55 51L55 50L52 50L52 51L49 51L49 50L51 50L51 49L53 49L53 48L54 48L54 49L57 49L57 48L54 48L54 47L53 47L53 46L52 46L52 47L53 47L53 48L51 48L51 47L50 47L50 46L51 46L51 44L50 44L50 43L48 43L48 42L49 42L49 41L48 41L48 42L47 42L47 40L49 40L49 39L48 39L48 38L49 38L49 37L50 37L50 38L52 38L52 37L53 37L53 36L52 36L52 37L51 37L51 35L50 35L50 36L49 36L49 35L48 35L48 34L53 34L53 33L55 33L55 32L56 32L56 30L57 30L57 29L56 29L56 28L55 28L55 29L56 29L56 30L54 30L54 29L53 29L53 28L52 28L52 29L53 29L53 32L51 32L51 33L50 33L50 30L51 30L51 29L50 29L50 28L51 28L51 27L50 27L50 26L51 26L51 25L54 25L54 24L50 24L50 25L49 25L49 27L46 27L46 28L47 28L47 29L45 29L45 28L44 28L44 27L43 27L43 26L47 26L47 23L48 23L48 24L49 24L49 21L50 21L50 22L51 22L51 21L53 21L53 20L52 20L52 19L51 19L51 20L50 20L50 19L48 19L48 20L47 20L47 19L46 19L46 20L47 20L47 21L45 21L45 20L43 20L43 19L45 19L45 18L47 18L47 17L45 17L45 16L44 16L44 15L43 15L43 14L45 14L45 12L46 12L46 14L48 14L48 13L47 13L47 12L46 12L46 11L45 11L45 10L47 10L47 11L48 11L48 12L49 12L49 11L48 11L48 10L49 10L49 9L47 9L47 8L44 8L44 9L43 9L43 8L42 8L42 9L43 9L43 10L41 10L41 12L39 12L39 11L40 11L40 10L39 10L39 9L41 9L41 8L39 8L39 7L40 7L40 5L39 5L39 2L38 2L38 1L37 1L37 2L36 2L36 1L35 1L35 2L34 2L34 1L29 1L29 3L30 3L30 2L31 2L31 3L32 3L32 4L33 4L33 3L32 3L32 2L34 2L34 3L37 3L37 4L35 4L35 7L36 7L36 8L37 8L37 7L38 7L38 10L39 10L39 11L37 11L37 10L36 10L36 9L34 9L34 10L36 10L36 12L37 12L37 13L38 13L38 14L39 14L39 13L43 13L43 14L40 14L40 15L38 15L38 18L39 18L39 17L41 17L41 16L42 16L42 15L43 15L43 16L44 16L44 17L43 17L43 18L40 18L40 19L41 19L41 20L39 20L39 19L37 19L37 17L36 17L36 16L37 16L37 15L36 15L36 14L35 14L35 13L34 13L34 12L32 12L32 11L33 11L33 10L32 10L32 9L30 9L30 8L29 8L29 7L30 7L30 6L29 6L29 7L28 7L28 5L30 5L30 4L27 4L27 1L26 1L26 4L25 4L25 3L24 3L24 2L25 2L25 1ZM40 1L40 2L41 2L41 3L40 3L40 4L41 4L41 5L42 5L42 6L41 6L41 7L42 7L42 6L43 6L43 7L44 7L44 4L46 4L46 3L44 3L44 2L43 2L43 1ZM51 1L51 2L50 2L50 5L52 5L52 6L51 6L51 7L52 7L52 6L53 6L53 5L52 5L52 4L53 4L53 3L51 3L51 2L52 2L52 1ZM37 2L37 3L38 3L38 2ZM42 2L42 3L43 3L43 2ZM21 4L21 5L20 5L20 7L21 7L21 8L20 8L20 9L21 9L21 11L19 11L19 10L18 10L18 9L19 9L19 8L16 8L16 10L18 10L18 11L17 11L17 12L16 12L16 11L15 11L15 12L16 12L16 13L15 13L15 14L13 14L13 13L12 13L12 14L10 14L10 13L11 13L11 12L12 12L12 11L10 11L10 10L11 10L11 9L12 9L12 10L13 10L13 11L14 11L14 10L15 10L15 8L14 8L14 7L13 7L13 6L12 6L12 7L11 7L11 9L10 9L10 10L9 10L9 12L8 12L8 14L10 14L10 15L8 15L8 16L6 16L6 17L8 17L8 18L9 18L9 19L8 19L8 20L11 20L11 22L10 22L10 24L12 24L12 23L13 23L13 21L14 21L14 22L16 22L16 21L14 21L14 19L15 19L15 20L16 20L16 19L17 19L17 20L18 20L18 21L17 21L17 24L18 24L18 25L19 25L19 26L17 26L17 27L16 27L16 28L17 28L17 29L16 29L16 30L15 30L15 31L14 31L14 32L15 32L15 33L14 33L14 35L15 35L15 37L14 37L14 36L13 36L13 33L11 33L11 31L10 31L10 33L11 33L11 34L10 34L10 35L9 35L9 37L8 37L8 38L9 38L9 39L10 39L10 38L13 38L13 40L14 40L14 41L17 41L17 42L16 42L16 43L15 43L15 44L14 44L14 42L11 42L11 41L12 41L12 39L11 39L11 40L10 40L10 42L9 42L9 43L8 43L8 42L6 42L6 43L8 43L8 44L10 44L10 45L11 45L11 44L12 44L12 45L13 45L13 44L14 44L14 45L15 45L15 46L16 46L16 45L15 45L15 44L16 44L16 43L17 43L17 42L18 42L18 43L19 43L19 44L17 44L17 45L20 45L20 41L21 41L21 42L22 42L22 43L23 43L23 42L25 42L25 43L26 43L26 42L27 42L27 43L28 43L28 45L30 45L30 44L29 44L29 43L32 43L32 45L33 45L33 44L34 44L34 45L35 45L35 47L38 47L38 48L36 48L36 50L35 50L35 49L34 49L34 50L35 50L35 51L33 51L33 50L32 50L32 51L33 51L33 52L34 52L34 53L37 53L37 54L36 54L36 55L37 55L37 54L38 54L38 55L40 55L40 54L41 54L41 53L40 53L40 54L38 54L38 53L39 53L39 52L42 52L42 54L43 54L43 53L44 53L44 54L45 54L45 53L44 53L44 52L45 52L45 51L44 51L44 52L42 52L42 50L43 50L43 49L44 49L44 50L46 50L46 51L48 51L48 50L49 50L49 49L50 49L50 48L48 48L48 50L46 50L46 49L47 49L47 48L46 48L46 47L47 47L47 46L44 46L44 44L45 44L45 43L47 43L47 44L46 44L46 45L49 45L49 46L48 46L48 47L49 47L49 46L50 46L50 44L48 44L48 43L47 43L47 42L46 42L46 40L47 40L47 38L45 38L45 39L44 39L44 38L43 38L43 37L42 37L42 38L43 38L43 39L42 39L42 40L43 40L43 39L44 39L44 40L45 40L45 43L44 43L44 41L40 41L40 40L41 40L41 37L40 37L40 38L38 38L38 40L39 40L39 42L38 42L38 41L37 41L37 40L36 40L36 39L37 39L37 38L36 38L36 37L37 37L37 36L35 36L35 32L36 32L36 33L37 33L37 34L36 34L36 35L37 35L37 34L38 34L38 37L39 37L39 36L41 36L41 33L42 33L42 34L43 34L43 35L42 35L42 36L43 36L43 35L44 35L44 36L46 36L46 37L47 37L47 36L48 36L48 37L49 37L49 36L48 36L48 35L47 35L47 34L46 34L46 32L45 32L45 31L43 31L43 32L42 32L42 31L41 31L41 30L44 30L44 28L43 28L43 27L42 27L42 26L43 26L43 25L42 25L42 22L43 22L43 21L42 21L42 22L41 22L41 23L39 23L39 22L37 22L37 20L36 20L36 19L35 19L35 18L32 18L32 16L36 16L36 15L35 15L35 14L34 14L34 13L33 13L33 14L32 14L32 13L29 13L29 10L30 10L30 12L31 12L31 10L30 10L30 9L29 9L29 8L28 8L28 9L26 9L26 10L25 10L25 9L24 9L24 8L27 8L27 6L26 6L26 7L25 7L25 6L24 6L24 8L23 8L23 5L25 5L25 4L23 4L23 5L22 5L22 4ZM26 4L26 5L27 5L27 4ZM42 4L42 5L43 5L43 4ZM31 5L31 8L34 8L34 5ZM36 5L36 7L37 7L37 5ZM38 5L38 7L39 7L39 5ZM21 6L21 7L22 7L22 6ZM32 6L32 7L33 7L33 6ZM45 6L45 7L46 7L46 6ZM56 6L56 7L57 7L57 6ZM12 8L12 9L14 9L14 8ZM22 8L22 9L23 9L23 11L21 11L21 12L20 12L20 13L16 13L16 14L15 14L15 15L13 15L13 14L12 14L12 15L13 15L13 17L11 17L11 19L12 19L12 20L13 20L13 19L14 19L14 18L15 18L15 19L16 19L16 17L17 17L17 19L18 19L18 18L19 18L19 22L18 22L18 23L19 23L19 25L20 25L20 27L19 27L19 29L18 29L18 31L17 31L17 33L16 33L16 36L18 36L18 37L16 37L16 39L14 39L14 40L16 40L16 39L17 39L17 40L18 40L18 39L21 39L21 37L22 37L22 39L23 39L23 40L21 40L21 41L25 41L25 40L26 40L26 41L27 41L27 40L28 40L28 39L29 39L29 40L30 40L30 39L31 39L31 42L33 42L33 41L34 41L34 43L35 43L35 44L37 44L37 45L38 45L38 46L39 46L39 48L38 48L38 50L36 50L36 52L37 52L37 53L38 53L38 52L39 52L39 51L40 51L40 50L41 50L41 49L43 49L43 48L44 48L44 49L45 49L45 48L44 48L44 46L40 46L40 45L42 45L42 44L44 44L44 43L43 43L43 42L41 42L41 44L37 44L37 43L38 43L38 42L37 42L37 41L34 41L34 40L33 40L33 39L36 39L36 38L35 38L35 36L34 36L34 35L33 35L33 36L34 36L34 37L32 37L32 35L29 35L29 34L30 34L30 31L28 31L28 30L30 30L30 29L31 29L31 30L32 30L32 29L33 29L33 30L36 30L36 32L37 32L37 33L38 33L38 34L40 34L40 33L41 33L41 32L40 32L40 33L38 33L38 32L39 32L39 31L40 31L40 29L41 29L41 28L42 28L42 29L43 29L43 28L42 28L42 27L41 27L41 26L40 26L40 27L39 27L39 28L38 28L38 29L33 29L33 28L30 28L30 29L28 29L28 28L29 28L29 27L31 27L31 26L30 26L30 25L31 25L31 24L30 24L30 22L31 22L31 23L33 23L33 22L32 22L32 21L33 21L33 20L32 20L32 21L31 21L31 20L30 20L30 22L29 22L29 21L28 21L28 20L29 20L29 19L28 19L28 20L26 20L26 21L27 21L27 22L29 22L29 23L28 23L28 24L27 24L27 23L25 23L25 24L21 24L21 25L20 25L20 23L19 23L19 22L22 22L22 23L24 23L24 22L23 22L23 18L24 18L24 21L25 21L25 19L27 19L27 18L24 18L24 17L25 17L25 16L26 16L26 17L28 17L28 18L29 18L29 17L31 17L31 16L32 16L32 14L31 14L31 16L30 16L30 14L29 14L29 13L27 13L27 12L26 12L26 13L27 13L27 14L25 14L25 16L24 16L24 15L22 15L22 14L21 14L21 13L23 13L23 14L24 14L24 13L23 13L23 12L24 12L24 11L25 11L25 10L24 10L24 9L23 9L23 8ZM1 9L1 10L2 10L2 9ZM6 9L6 10L7 10L7 9ZM28 9L28 10L29 10L29 9ZM44 9L44 10L45 10L45 9ZM59 10L59 11L60 11L60 10ZM18 11L18 12L19 12L19 11ZM42 11L42 12L43 12L43 11ZM44 11L44 12L45 12L45 11ZM38 12L38 13L39 13L39 12ZM62 12L62 13L64 13L64 14L65 14L65 13L64 13L64 12ZM18 14L18 15L17 15L17 17L19 17L19 18L20 18L20 19L22 19L22 18L23 18L23 17L22 17L22 16L20 16L20 17L19 17L19 15L20 15L20 14ZM27 14L27 15L26 15L26 16L28 16L28 17L29 17L29 16L28 16L28 14ZM15 15L15 16L14 16L14 17L16 17L16 15ZM40 15L40 16L41 16L41 15ZM60 15L60 16L61 16L61 15ZM9 17L9 18L10 18L10 17ZM20 17L20 18L21 18L21 17ZM44 17L44 18L45 18L45 17ZM12 18L12 19L13 19L13 18ZM31 18L31 19L32 19L32 18ZM34 19L34 20L35 20L35 19ZM20 20L20 21L22 21L22 20ZM38 20L38 21L39 21L39 20ZM48 20L48 21L49 21L49 20ZM34 21L34 22L35 22L35 21ZM44 21L44 22L45 22L45 21ZM58 21L58 22L59 22L59 21ZM46 22L46 23L44 23L44 24L46 24L46 23L47 23L47 22ZM34 23L34 24L35 24L35 25L33 25L33 24L32 24L32 25L33 25L33 27L34 27L34 28L37 28L37 27L38 27L38 26L39 26L39 25L41 25L41 24L39 24L39 23ZM28 24L28 25L26 25L26 26L27 26L27 27L26 27L26 28L25 28L25 25L24 25L24 27L23 27L23 28L24 28L24 29L19 29L19 30L20 30L20 31L18 31L18 33L19 33L19 37L18 37L18 38L17 38L17 39L18 39L18 38L20 38L20 37L21 37L21 36L22 36L22 37L23 37L23 38L25 38L25 37L24 37L24 36L25 36L25 35L26 35L26 34L27 34L27 35L28 35L28 33L29 33L29 32L28 32L28 31L27 31L27 33L26 33L26 32L25 32L25 33L22 33L22 35L21 35L21 36L20 36L20 33L21 33L21 32L22 32L22 31L23 31L23 32L24 32L24 31L23 31L23 30L24 30L24 29L26 29L26 30L27 30L27 29L26 29L26 28L28 28L28 27L29 27L29 26L28 26L28 25L29 25L29 24ZM36 24L36 25L35 25L35 26L34 26L34 27L36 27L36 26L38 26L38 25L37 25L37 24ZM22 25L22 26L21 26L21 27L22 27L22 26L23 26L23 25ZM13 26L13 27L14 27L14 26ZM52 26L52 27L55 27L55 26ZM59 26L59 28L58 28L58 30L60 30L60 28L61 28L61 27L60 27L60 26ZM40 27L40 28L41 28L41 27ZM48 28L48 29L47 29L47 30L46 30L46 31L47 31L47 33L49 33L49 32L48 32L48 30L50 30L50 29L49 29L49 28ZM6 29L6 30L8 30L8 29ZM10 29L10 30L11 30L11 29ZM21 30L21 31L22 31L22 30ZM38 30L38 31L39 31L39 30ZM2 31L2 32L3 32L3 31ZM5 31L5 34L8 34L8 31ZM15 31L15 32L16 32L16 31ZM31 31L31 34L34 34L34 31ZM54 31L54 32L55 32L55 31ZM57 31L57 34L60 34L60 31ZM6 32L6 33L7 33L7 32ZM32 32L32 33L33 33L33 32ZM44 32L44 33L43 33L43 34L44 34L44 35L45 35L45 32ZM58 32L58 33L59 33L59 32ZM25 33L25 34L26 34L26 33ZM3 34L3 35L4 35L4 34ZM11 34L11 36L10 36L10 37L9 37L9 38L10 38L10 37L11 37L11 36L12 36L12 37L13 37L13 38L14 38L14 37L13 37L13 36L12 36L12 34ZM17 34L17 35L18 35L18 34ZM23 34L23 35L24 35L24 34ZM54 34L54 37L56 37L56 38L54 38L54 39L56 39L56 40L58 40L58 39L60 39L60 37L61 37L61 36L59 36L59 38L58 38L58 36L57 36L57 35L56 35L56 36L55 36L55 34ZM0 35L0 36L1 36L1 35ZM46 35L46 36L47 36L47 35ZM64 35L64 36L65 36L65 35ZM27 36L27 37L26 37L26 38L27 38L27 39L26 39L26 40L27 40L27 39L28 39L28 37L30 37L30 38L29 38L29 39L30 39L30 38L32 38L32 39L33 39L33 38L32 38L32 37L31 37L31 36ZM0 37L0 38L1 38L1 37ZM0 39L0 41L1 41L1 43L2 43L2 41L1 41L1 39ZM24 39L24 40L25 40L25 39ZM45 39L45 40L46 40L46 39ZM19 40L19 41L18 41L18 42L19 42L19 41L20 41L20 40ZM32 40L32 41L33 41L33 40ZM28 41L28 43L29 43L29 42L30 42L30 41ZM62 41L62 42L63 42L63 41ZM36 42L36 43L37 43L37 42ZM10 43L10 44L11 44L11 43ZM62 43L62 44L63 44L63 43ZM2 45L2 46L3 46L3 45ZM6 46L6 47L7 47L7 46ZM18 46L18 47L20 47L20 46ZM62 46L62 47L63 47L63 46ZM9 47L9 48L10 48L10 47ZM14 47L14 48L13 48L13 50L14 50L14 48L16 48L16 49L15 49L15 50L16 50L16 49L17 49L17 50L18 50L18 49L19 49L19 48L18 48L18 49L17 49L17 48L16 48L16 47ZM24 47L24 49L25 49L25 47ZM32 47L32 48L33 48L33 47ZM40 47L40 48L41 48L41 47ZM42 47L42 48L43 48L43 47ZM1 48L1 49L2 49L2 48ZM39 49L39 50L38 50L38 51L39 51L39 50L40 50L40 49ZM0 51L0 54L2 54L2 55L3 55L3 56L1 56L1 55L0 55L0 56L1 56L1 57L3 57L3 56L4 56L4 57L5 57L5 56L4 56L4 54L2 54L2 53L4 53L4 52L2 52L2 51ZM28 51L28 52L29 52L29 53L28 53L28 54L30 54L30 55L31 55L31 53L30 53L30 52L29 52L29 51ZM52 51L52 52L53 52L53 51ZM58 51L58 52L57 52L57 53L56 53L56 55L55 55L55 56L56 56L56 55L57 55L57 54L59 54L59 53L58 53L58 52L59 52L59 51ZM20 52L20 53L22 53L22 52ZM48 52L48 54L50 54L50 53L51 53L51 54L52 54L52 56L53 56L53 54L55 54L55 53L53 53L53 54L52 54L52 53L51 53L51 52L50 52L50 53L49 53L49 52ZM11 53L11 55L13 55L13 54L12 54L12 53ZM63 53L63 54L64 54L64 53ZM19 54L19 56L18 56L18 55L17 55L17 56L16 56L16 57L17 57L17 56L18 56L18 57L19 57L19 58L20 58L20 57L21 57L21 55L23 55L23 54L21 54L21 55L20 55L20 54ZM10 56L10 57L11 57L11 56ZM27 56L27 57L26 57L26 58L27 58L27 57L29 57L29 56ZM31 57L31 60L34 60L34 57ZM57 57L57 60L60 60L60 57ZM32 58L32 59L33 59L33 58ZM48 58L48 59L49 59L49 58ZM58 58L58 59L59 59L59 58ZM26 59L26 60L27 60L27 61L29 61L29 60L28 60L28 59ZM36 59L36 60L38 60L38 59ZM40 59L40 60L41 60L41 59ZM8 60L8 65L11 65L11 63L10 63L10 61L9 61L9 60ZM34 61L34 62L36 62L36 61ZM28 63L28 64L29 64L29 63ZM52 63L52 64L53 64L53 65L56 65L56 63ZM25 64L25 65L26 65L26 64ZM34 64L34 65L38 65L38 64ZM48 64L48 65L50 65L50 64ZM0 0L0 7L7 7L7 0ZM1 1L1 6L6 6L6 1ZM2 2L2 5L5 5L5 2ZM58 0L58 7L65 7L65 0ZM59 1L59 6L64 6L64 1ZM60 2L60 5L63 5L63 2ZM0 58L0 65L7 65L7 58ZM1 59L1 64L6 64L6 59ZM2 60L2 63L5 63L5 60Z" fill="#000000"/></g></g></svg>
