<?xml version="1.0" encoding="UTF-8"?>
<svg xmlns="http://www.w3.org/2000/svg" version="1.1" width="300" height="300" viewBox="0 0 300 300"><rect x="0" y="0" width="300" height="300" fill="#ffffff"/><g transform="scale(4.615)"><g transform="translate(0,0)"><path fill-rule="evenodd" d="M12 0L12 1L10 1L10 2L9 2L9 1L8 1L8 2L9 2L9 3L8 3L8 4L10 4L10 2L11 2L11 4L12 4L12 5L13 5L13 3L18 3L18 4L17 4L17 5L16 5L16 4L14 4L14 7L13 7L13 6L12 6L12 7L11 7L11 5L10 5L10 7L11 7L11 8L10 8L10 12L8 12L8 11L9 11L9 8L6 8L6 9L5 9L5 8L0 8L0 9L1 9L1 10L0 10L0 11L1 11L1 12L0 12L0 13L1 13L1 14L0 14L0 15L1 15L1 14L2 14L2 13L1 13L1 12L3 12L3 14L4 14L4 15L2 15L2 17L0 17L0 20L1 20L1 21L0 21L0 22L3 22L3 21L4 21L4 23L5 23L5 24L3 24L3 23L2 23L2 25L1 25L1 23L0 23L0 26L1 26L1 27L3 27L3 26L4 26L4 27L5 27L5 28L4 28L4 29L5 29L5 30L1 30L1 31L0 31L0 32L3 32L3 31L4 31L4 34L3 34L3 35L2 35L2 37L1 37L1 35L0 35L0 39L1 39L1 40L0 40L0 41L1 41L1 42L0 42L0 47L1 47L1 50L0 50L0 52L2 52L2 53L0 53L0 54L2 54L2 55L3 55L3 56L1 56L1 55L0 55L0 56L1 56L1 57L3 57L3 56L4 56L4 57L5 57L5 56L4 56L4 54L2 54L2 53L3 53L3 50L5 50L5 52L4 52L4 53L7 53L7 54L5 54L5 55L7 55L7 56L6 56L6 57L7 57L7 56L9 56L9 57L8 57L8 59L9 59L9 60L8 60L8 65L9 65L9 64L10 64L10 65L14 65L14 63L13 63L13 62L12 62L12 61L14 61L14 59L16 59L16 60L17 60L17 64L16 64L16 63L15 63L15 64L16 64L16 65L19 65L19 64L18 64L18 61L20 61L20 60L19 60L19 58L20 58L20 59L22 59L22 58L23 58L23 57L22 57L22 56L23 56L23 54L22 54L22 53L24 53L24 54L25 54L25 53L27 53L27 55L24 55L24 56L28 56L28 57L29 57L29 58L30 58L30 61L29 61L29 60L28 60L28 61L29 61L29 62L27 62L27 61L26 61L26 62L25 62L25 60L24 60L24 59L26 59L26 58L27 58L27 57L26 57L26 58L25 58L25 57L24 57L24 59L23 59L23 61L22 61L22 63L21 63L21 64L20 64L20 65L22 65L22 63L24 63L24 64L23 64L23 65L24 65L24 64L25 64L25 65L26 65L26 64L25 64L25 63L27 63L27 65L29 65L29 64L28 64L28 63L29 63L29 62L30 62L30 61L32 61L32 62L33 62L33 63L35 63L35 64L33 64L33 65L37 65L37 64L36 64L36 63L37 63L37 62L38 62L38 63L39 63L39 64L38 64L38 65L39 65L39 64L41 64L41 65L44 65L44 64L45 64L45 65L47 65L47 64L48 64L48 65L49 65L49 64L48 64L48 61L49 61L49 60L51 60L51 62L50 62L50 63L51 63L51 62L52 62L52 60L54 60L54 61L53 61L53 63L52 63L52 64L50 64L50 65L52 65L52 64L53 64L53 65L56 65L56 62L57 62L57 65L63 65L63 64L64 64L64 60L65 60L65 59L63 59L63 58L62 58L62 59L61 59L61 55L60 55L60 56L59 56L59 55L57 55L57 51L58 51L58 52L59 52L59 53L58 53L58 54L59 54L59 53L60 53L60 54L65 54L65 51L64 51L64 50L65 50L65 49L64 49L64 48L62 48L62 49L63 49L63 50L61 50L61 49L58 49L58 48L60 48L60 47L62 47L62 45L64 45L64 44L65 44L65 43L64 43L64 44L62 44L62 45L60 45L60 46L59 46L59 45L58 45L58 44L59 44L59 43L58 43L58 42L65 42L65 40L64 40L64 38L65 38L65 37L64 37L64 36L65 36L65 35L63 35L63 34L62 34L62 35L61 35L61 32L62 32L62 33L63 33L63 32L65 32L65 31L63 31L63 32L62 32L62 31L61 31L61 30L62 30L62 29L63 29L63 28L62 28L62 29L61 29L61 28L60 28L60 26L61 26L61 27L63 27L63 26L62 26L62 25L64 25L64 26L65 26L65 25L64 25L64 24L65 24L65 23L64 23L64 22L65 22L65 21L64 21L64 22L63 22L63 20L64 20L64 19L63 19L63 18L65 18L65 15L64 15L64 16L62 16L62 14L63 14L63 13L64 13L64 14L65 14L65 13L64 13L64 12L65 12L65 11L63 11L63 10L65 10L65 9L64 9L64 8L63 8L63 9L62 9L62 8L61 8L61 9L62 9L62 11L63 11L63 12L59 12L59 13L62 13L62 14L60 14L60 15L61 15L61 16L60 16L60 18L58 18L58 16L59 16L59 14L57 14L57 15L56 15L56 13L57 13L57 12L58 12L58 11L59 11L59 10L60 10L60 8L59 8L59 10L58 10L58 8L56 8L56 9L54 9L54 10L50 10L50 9L51 9L51 8L53 8L53 6L54 6L54 8L55 8L55 5L54 5L54 4L56 4L56 5L57 5L57 4L56 4L56 3L57 3L57 1L56 1L56 0L55 0L55 1L56 1L56 3L55 3L55 2L54 2L54 3L53 3L53 2L52 2L52 3L53 3L53 6L52 6L52 7L51 7L51 5L50 5L50 4L51 4L51 3L48 3L48 5L46 5L46 7L45 7L45 6L44 6L44 7L43 7L43 6L42 6L42 7L41 7L41 4L40 4L40 3L42 3L42 5L43 5L43 4L44 4L44 5L45 5L45 4L46 4L46 3L47 3L47 1L50 1L50 2L51 2L51 1L50 1L50 0L47 0L47 1L45 1L45 0L44 0L44 1L45 1L45 2L43 2L43 3L42 3L42 1L43 1L43 0L39 0L39 1L37 1L37 0L36 0L36 1L34 1L34 0L33 0L33 1L31 1L31 0L29 0L29 1L28 1L28 2L27 2L27 3L28 3L28 4L30 4L30 5L26 5L26 4L23 4L23 5L25 5L25 6L24 6L24 8L23 8L23 6L22 6L22 5L21 5L21 6L20 6L20 7L19 7L19 5L20 5L20 4L22 4L22 3L19 3L19 1L18 1L18 2L17 2L17 0L16 0L16 1L15 1L15 0L14 0L14 1L13 1L13 0ZM22 0L22 1L21 1L21 2L22 2L22 1L23 1L23 3L26 3L26 2L25 2L25 1L27 1L27 0ZM52 0L52 1L54 1L54 0ZM14 1L14 2L15 2L15 1ZM30 1L30 2L28 2L28 3L31 3L31 1ZM33 2L33 3L32 3L32 4L33 4L33 3L34 3L34 4L35 4L35 9L33 9L33 10L30 10L30 8L29 8L29 7L30 7L30 6L29 6L29 7L28 7L28 6L27 6L27 7L26 7L26 6L25 6L25 8L24 8L24 9L25 9L25 10L24 10L24 12L23 12L23 10L21 10L21 9L23 9L23 8L21 8L21 9L20 9L20 8L19 8L19 9L17 9L17 11L18 11L18 12L17 12L17 13L16 13L16 8L18 8L18 6L17 6L17 7L16 7L16 5L15 5L15 8L14 8L14 9L13 9L13 7L12 7L12 8L11 8L11 9L13 9L13 10L11 10L11 11L12 11L12 12L10 12L10 13L6 13L6 14L7 14L7 15L4 15L4 16L3 16L3 18L1 18L1 19L3 19L3 20L4 20L4 21L5 21L5 22L7 22L7 23L6 23L6 24L5 24L5 25L4 25L4 26L5 26L5 25L6 25L6 26L8 26L8 27L9 27L9 34L11 34L11 32L12 32L12 34L13 34L13 35L11 35L11 36L10 36L10 37L9 37L9 35L8 35L8 37L9 37L9 38L7 38L7 37L6 37L6 36L7 36L7 35L6 35L6 36L4 36L4 35L3 35L3 36L4 36L4 37L2 37L2 38L3 38L3 40L2 40L2 42L1 42L1 43L2 43L2 44L3 44L3 43L5 43L5 42L3 42L3 41L6 41L6 42L7 42L7 43L6 43L6 44L8 44L8 41L9 41L9 42L11 42L11 43L10 43L10 44L12 44L12 45L9 45L9 47L8 47L8 46L7 46L7 45L5 45L5 44L4 44L4 47L3 47L3 45L1 45L1 47L2 47L2 49L6 49L6 50L7 50L7 51L6 51L6 52L7 52L7 53L9 53L9 54L7 54L7 55L9 55L9 54L10 54L10 57L9 57L9 59L10 59L10 60L9 60L9 61L10 61L10 62L11 62L11 63L10 63L10 64L11 64L11 63L12 63L12 62L11 62L11 58L14 58L14 57L15 57L15 58L16 58L16 59L17 59L17 58L19 58L19 57L18 57L18 56L17 56L17 55L16 55L16 56L14 56L14 57L11 57L11 55L12 55L12 56L13 56L13 55L12 55L12 54L13 54L13 52L15 52L15 51L14 51L14 50L18 50L18 51L16 51L16 52L18 52L18 53L14 53L14 54L18 54L18 55L20 55L20 56L21 56L21 53L22 53L22 52L21 52L21 51L22 51L22 50L21 50L21 49L23 49L23 50L24 50L24 51L23 51L23 52L24 52L24 53L25 53L25 52L26 52L26 51L25 51L25 50L26 50L26 49L27 49L27 50L31 50L31 53L28 53L28 52L30 52L30 51L28 51L28 52L27 52L27 53L28 53L28 54L30 54L30 55L29 55L29 57L30 57L30 55L31 55L31 56L33 56L33 55L31 55L31 53L32 53L32 54L33 54L33 53L34 53L34 55L35 55L35 56L37 56L37 55L38 55L38 54L39 54L39 53L41 53L41 54L40 54L40 55L39 55L39 57L38 57L38 58L37 58L37 57L35 57L35 58L36 58L36 59L35 59L35 60L37 60L37 61L34 61L34 62L35 62L35 63L36 63L36 62L37 62L37 61L38 61L38 62L39 62L39 63L40 63L40 62L41 62L41 64L43 64L43 62L42 62L42 61L41 61L41 60L43 60L43 59L45 59L45 58L47 58L47 57L48 57L48 56L49 56L49 57L50 57L50 58L51 58L51 59L52 59L52 57L53 57L53 56L54 56L54 57L55 57L55 58L53 58L53 59L54 59L54 60L56 60L56 59L55 59L55 58L56 58L56 56L57 56L57 55L56 55L56 56L54 56L54 55L55 55L55 54L53 54L53 56L51 56L51 55L50 55L50 54L52 54L52 53L56 53L56 52L54 52L54 51L56 51L56 50L57 50L57 48L55 48L55 47L56 47L56 46L57 46L57 47L59 47L59 46L58 46L58 45L57 45L57 44L58 44L58 43L57 43L57 41L56 41L56 40L58 40L58 41L62 41L62 40L63 40L63 41L64 41L64 40L63 40L63 37L61 37L61 35L60 35L60 37L59 37L59 36L58 36L58 37L59 37L59 38L57 38L57 36L55 36L55 35L56 35L56 30L57 30L57 29L56 29L56 27L57 27L57 28L58 28L58 30L59 30L59 28L58 28L58 26L60 26L60 25L56 25L56 24L55 24L55 23L57 23L57 21L56 21L56 20L58 20L58 22L59 22L59 23L58 23L58 24L59 24L59 23L60 23L60 24L61 24L61 25L62 25L62 24L63 24L63 22L62 22L62 20L63 20L63 19L57 19L57 17L56 17L56 15L55 15L55 14L54 14L54 13L56 13L56 12L57 12L57 9L56 9L56 11L55 11L55 10L54 10L54 11L55 11L55 12L54 12L54 13L53 13L53 12L51 12L51 11L50 11L50 10L49 10L49 9L50 9L50 8L49 8L49 7L50 7L50 5L48 5L48 6L47 6L47 7L46 7L46 8L43 8L43 10L42 10L42 9L41 9L41 8L40 8L40 6L39 6L39 8L40 8L40 9L41 9L41 10L40 10L40 11L38 11L38 10L39 10L39 9L38 9L38 5L40 5L40 4L38 4L38 3L39 3L39 2L36 2L36 3L34 3L34 2ZM45 2L45 3L44 3L44 4L45 4L45 3L46 3L46 2ZM36 3L36 4L37 4L37 5L36 5L36 7L37 7L37 5L38 5L38 4L37 4L37 3ZM8 5L8 7L9 7L9 5ZM31 5L31 8L34 8L34 5ZM21 6L21 7L22 7L22 6ZM32 6L32 7L33 7L33 6ZM48 6L48 7L47 7L47 8L46 8L46 9L49 9L49 8L48 8L48 7L49 7L49 6ZM56 6L56 7L57 7L57 6ZM27 7L27 9L26 9L26 10L25 10L25 12L24 12L24 13L22 13L22 14L21 14L21 13L19 13L19 12L18 12L18 13L19 13L19 14L20 14L20 15L18 15L18 14L16 14L16 13L15 13L15 12L12 12L12 13L10 13L10 14L8 14L8 15L7 15L7 16L6 16L6 17L8 17L8 19L7 19L7 18L6 18L6 19L7 19L7 20L5 20L5 21L10 21L10 23L9 23L9 24L8 24L8 26L9 26L9 27L10 27L10 25L11 25L11 24L15 24L15 23L16 23L16 25L14 25L14 26L13 26L13 25L12 25L12 27L11 27L11 28L10 28L10 30L11 30L11 31L10 31L10 32L11 32L11 31L13 31L13 29L12 29L12 28L16 28L16 27L17 27L17 26L16 26L16 25L17 25L17 24L18 24L18 25L19 25L19 26L18 26L18 27L19 27L19 26L20 26L20 27L21 27L21 28L22 28L22 26L23 26L23 29L21 29L21 31L24 31L24 32L23 32L23 33L21 33L21 32L16 32L16 31L15 31L15 35L14 35L14 36L12 36L12 37L11 37L11 38L9 38L9 39L8 39L8 40L6 40L6 41L8 41L8 40L9 40L9 39L10 39L10 40L11 40L11 41L12 41L12 44L13 44L13 46L12 46L12 47L16 47L16 48L13 48L13 49L12 49L12 48L11 48L11 49L9 49L9 48L8 48L8 49L9 49L9 50L8 50L8 51L9 51L9 50L11 50L11 49L12 49L12 51L10 51L10 52L9 52L9 53L10 53L10 54L11 54L11 53L12 53L12 52L13 52L13 49L21 49L21 47L22 47L22 46L24 46L24 45L26 45L26 46L25 46L25 48L26 48L26 47L27 47L27 45L26 45L26 44L28 44L28 43L30 43L30 44L29 44L29 45L30 45L30 46L29 46L29 47L28 47L28 49L29 49L29 47L33 47L33 48L31 48L31 50L32 50L32 51L33 51L33 50L35 50L35 51L34 51L34 53L35 53L35 54L37 54L37 52L35 52L35 51L37 51L37 50L36 50L36 49L37 49L37 48L41 48L41 47L42 47L42 48L43 48L43 47L42 47L42 46L43 46L43 45L44 45L44 46L45 46L45 45L44 45L44 44L45 44L45 43L46 43L46 45L47 45L47 43L48 43L48 42L49 42L49 41L50 41L50 39L52 39L52 40L53 40L53 39L54 39L54 40L56 40L56 39L54 39L54 38L56 38L56 37L54 37L54 34L55 34L55 33L54 33L54 34L52 34L52 32L53 32L53 31L54 31L54 32L55 32L55 31L54 31L54 30L56 30L56 29L52 29L52 28L53 28L53 27L51 27L51 26L53 26L53 25L51 25L51 24L53 24L53 23L52 23L52 22L55 22L55 21L54 21L54 20L56 20L56 19L52 19L52 18L53 18L53 17L51 17L51 15L52 15L52 16L54 16L54 18L55 18L55 16L54 16L54 15L52 15L52 14L53 14L53 13L51 13L51 12L50 12L50 13L49 13L49 12L48 12L48 13L47 13L47 12L46 12L46 11L47 11L47 10L45 10L45 9L44 9L44 12L43 12L43 11L42 11L42 13L40 13L40 16L39 16L39 18L36 18L36 19L37 19L37 20L36 20L36 22L34 22L34 21L35 21L35 20L34 20L34 19L35 19L35 18L34 18L34 17L38 17L38 16L35 16L35 14L36 14L36 15L39 15L39 14L38 14L38 13L39 13L39 12L38 12L38 13L37 13L37 12L35 12L35 11L36 11L36 10L37 10L37 8L36 8L36 9L35 9L35 10L33 10L33 11L29 11L29 12L31 12L31 13L28 13L28 11L26 11L26 10L27 10L27 9L29 9L29 8L28 8L28 7ZM4 9L4 11L3 11L3 12L4 12L4 11L5 11L5 12L7 12L7 11L8 11L8 10L7 10L7 9L6 9L6 10L5 10L5 9ZM19 9L19 11L20 11L20 9ZM1 10L1 11L2 11L2 10ZM6 10L6 11L7 11L7 10ZM13 10L13 11L15 11L15 10ZM48 10L48 11L49 11L49 10ZM33 11L33 12L32 12L32 13L33 13L33 15L34 15L34 14L35 14L35 12L34 12L34 11ZM40 11L40 12L41 12L41 11ZM26 12L26 13L24 13L24 14L22 14L22 15L24 15L24 16L21 16L21 17L18 17L18 15L16 15L16 14L14 14L14 13L13 13L13 14L11 14L11 15L10 15L10 17L9 17L9 18L10 18L10 19L11 19L11 20L10 20L10 21L11 21L11 20L12 20L12 17L14 17L14 18L13 18L13 21L14 21L14 23L15 23L15 22L16 22L16 21L17 21L17 22L18 22L18 21L19 21L19 22L20 22L20 23L22 23L22 25L27 25L27 27L29 27L29 28L28 28L28 30L25 30L25 32L24 32L24 33L25 33L25 32L26 32L26 33L27 33L27 34L22 34L22 35L21 35L21 36L22 36L22 37L20 37L20 38L19 38L19 39L18 39L18 38L17 38L17 37L18 37L18 36L17 36L17 35L18 35L18 34L19 34L19 36L20 36L20 34L21 34L21 33L18 33L18 34L17 34L17 33L16 33L16 35L15 35L15 36L17 36L17 37L13 37L13 38L15 38L15 39L14 39L14 42L13 42L13 44L14 44L14 45L15 45L15 46L16 46L16 45L17 45L17 46L19 46L19 47L18 47L18 48L19 48L19 47L20 47L20 46L19 46L19 45L24 45L24 43L25 43L25 44L26 44L26 43L27 43L27 42L30 42L30 41L31 41L31 38L30 38L30 37L28 37L28 38L30 38L30 40L29 40L29 39L27 39L27 40L26 40L26 38L27 38L27 36L30 36L30 35L28 35L28 34L29 34L29 33L30 33L30 30L31 30L31 28L32 28L32 29L34 29L34 30L35 30L35 29L34 29L34 28L32 28L32 27L33 27L33 26L35 26L35 28L39 28L39 29L38 29L38 30L37 30L37 31L36 31L36 32L37 32L37 33L36 33L36 35L35 35L35 36L37 36L37 38L39 38L39 39L36 39L36 38L35 38L35 37L32 37L32 40L33 40L33 38L34 38L34 39L35 39L35 41L36 41L36 42L37 42L37 43L35 43L35 42L34 42L34 43L35 43L35 44L37 44L37 43L38 43L38 46L39 46L39 45L43 45L43 44L44 44L44 43L43 43L43 42L48 42L48 41L45 41L45 40L44 40L44 39L46 39L46 40L47 40L47 39L48 39L48 40L49 40L49 37L50 37L50 38L51 38L51 37L53 37L53 36L52 36L52 34L51 34L51 33L50 33L50 32L51 32L51 31L50 31L50 30L51 30L51 28L50 28L50 26L51 26L51 25L50 25L50 26L49 26L49 25L48 25L48 24L51 24L51 23L50 23L50 22L52 22L52 21L53 21L53 20L51 20L51 19L48 19L48 18L49 18L49 17L47 17L47 16L49 16L49 15L50 15L50 14L51 14L51 13L50 13L50 14L48 14L48 15L46 15L46 14L47 14L47 13L45 13L45 12L44 12L44 14L41 14L41 16L40 16L40 17L41 17L41 16L42 16L42 17L45 17L45 18L47 18L47 21L46 21L46 20L44 20L44 18L40 18L40 19L38 19L38 20L37 20L37 22L36 22L36 24L37 24L37 25L35 25L35 24L32 24L32 26L31 26L31 28L30 28L30 26L29 26L29 25L31 25L31 24L29 24L29 25L27 25L27 24L28 24L28 23L29 23L29 22L30 22L30 21L32 21L32 22L33 22L33 23L34 23L34 22L33 22L33 20L32 20L32 19L34 19L34 18L32 18L32 17L33 17L33 16L32 16L32 15L31 15L31 16L29 16L29 17L28 17L28 15L27 15L27 14L28 14L28 13L27 13L27 12ZM33 12L33 13L34 13L34 12ZM4 13L4 14L5 14L5 13ZM26 13L26 14L25 14L25 15L26 15L26 14L27 14L27 13ZM36 13L36 14L37 14L37 13ZM13 14L13 15L12 15L12 16L11 16L11 17L12 17L12 16L13 16L13 15L14 15L14 16L15 16L15 17L17 17L17 16L16 16L16 15L14 15L14 14ZM29 14L29 15L30 15L30 14ZM8 15L8 16L9 16L9 15ZM42 15L42 16L43 16L43 15ZM44 15L44 16L45 16L45 17L46 17L46 16L45 16L45 15ZM57 15L57 16L58 16L58 15ZM4 16L4 17L5 17L5 16ZM31 16L31 17L32 17L32 16ZM61 16L61 18L62 18L62 16ZM21 17L21 18L22 18L22 19L21 19L21 20L20 20L20 21L21 21L21 22L22 22L22 21L23 21L23 22L25 22L25 21L27 21L27 23L26 23L26 24L27 24L27 23L28 23L28 21L29 21L29 20L27 20L27 17L26 17L26 18L25 18L25 17ZM50 17L50 18L51 18L51 17ZM3 18L3 19L5 19L5 18ZM17 18L17 19L18 19L18 18ZM19 18L19 19L20 19L20 18ZM24 18L24 19L23 19L23 20L24 20L24 21L25 21L25 20L26 20L26 19L25 19L25 18ZM29 18L29 19L30 19L30 20L31 20L31 19L30 19L30 18ZM8 19L8 20L9 20L9 19ZM14 19L14 20L15 20L15 21L16 21L16 19ZM24 19L24 20L25 20L25 19ZM40 19L40 20L41 20L41 19ZM42 19L42 20L43 20L43 19ZM17 20L17 21L18 21L18 20ZM21 20L21 21L22 21L22 20ZM48 20L48 22L50 22L50 20ZM59 20L59 22L61 22L61 24L62 24L62 22L61 22L61 20ZM39 21L39 22L38 22L38 23L39 23L39 24L38 24L38 25L37 25L37 26L36 26L36 27L39 27L39 28L41 28L41 29L40 29L40 30L44 30L44 31L39 31L39 30L38 30L38 31L39 31L39 32L38 32L38 33L39 33L39 34L38 34L38 35L39 35L39 36L38 36L38 37L40 37L40 36L41 36L41 35L42 35L42 34L43 34L43 36L45 36L45 37L44 37L44 38L45 38L45 37L47 37L47 36L48 36L48 37L49 37L49 36L50 36L50 37L51 37L51 34L50 34L50 33L49 33L49 32L48 32L48 31L49 31L49 30L50 30L50 28L48 28L48 27L47 27L47 26L48 26L48 25L47 25L47 26L46 26L46 27L47 27L47 28L46 28L46 29L49 29L49 30L48 30L48 31L47 31L47 30L44 30L44 28L45 28L45 27L44 27L44 28L43 28L43 29L42 29L42 27L39 27L39 26L40 26L40 24L42 24L42 26L43 26L43 24L45 24L45 23L47 23L47 22L46 22L46 21L44 21L44 23L43 23L43 24L42 24L42 22L43 22L43 21L42 21L42 22L40 22L40 21ZM12 22L12 23L13 23L13 22ZM39 22L39 23L40 23L40 22ZM10 23L10 24L9 24L9 25L10 25L10 24L11 24L11 23ZM24 23L24 24L25 24L25 23ZM6 24L6 25L7 25L7 24ZM19 24L19 25L20 25L20 26L21 26L21 25L20 25L20 24ZM38 25L38 26L39 26L39 25ZM44 25L44 26L45 26L45 25ZM54 25L54 26L55 26L55 27L54 27L54 28L55 28L55 27L56 27L56 25ZM14 26L14 27L15 27L15 26ZM24 26L24 27L25 27L25 26ZM6 27L6 28L7 28L7 27ZM0 28L0 29L1 29L1 28ZM2 28L2 29L3 29L3 28ZM17 28L17 30L18 30L18 31L20 31L20 30L18 30L18 29L20 29L20 28ZM26 28L26 29L27 29L27 28ZM6 29L6 30L7 30L7 29ZM11 29L11 30L12 30L12 29ZM15 29L15 30L16 30L16 29ZM23 29L23 30L24 30L24 29ZM29 29L29 30L30 30L30 29ZM60 29L60 30L61 30L61 29ZM5 31L5 34L8 34L8 31ZM26 31L26 32L27 32L27 33L29 33L29 31L28 31L28 32L27 32L27 31ZM31 31L31 34L34 34L34 31ZM45 31L45 32L44 32L44 33L43 33L43 34L47 34L47 35L46 35L46 36L47 36L47 35L48 35L48 36L49 36L49 35L50 35L50 34L49 34L49 33L46 33L46 32L47 32L47 31ZM57 31L57 34L60 34L60 31ZM6 32L6 33L7 33L7 32ZM32 32L32 33L33 33L33 32ZM40 32L40 34L39 34L39 35L40 35L40 34L41 34L41 32ZM58 32L58 33L59 33L59 32ZM0 33L0 34L2 34L2 33ZM64 33L64 34L65 34L65 33ZM48 34L48 35L49 35L49 34ZM24 35L24 36L26 36L26 35ZM32 35L32 36L33 36L33 35ZM62 35L62 36L63 36L63 35ZM4 37L4 39L5 39L5 37ZM24 37L24 38L26 38L26 37ZM42 37L42 38L40 38L40 39L39 39L39 40L36 40L36 41L37 41L37 42L38 42L38 43L40 43L40 44L42 44L42 42L43 42L43 41L39 41L39 40L41 40L41 39L42 39L42 40L43 40L43 39L42 39L42 38L43 38L43 37ZM60 37L60 38L61 38L61 40L62 40L62 38L61 38L61 37ZM6 38L6 39L7 39L7 38ZM20 38L20 39L21 39L21 40L17 40L17 39L15 39L15 42L14 42L14 43L15 43L15 45L16 45L16 44L17 44L17 45L19 45L19 44L20 44L20 43L19 43L19 42L20 42L20 41L22 41L22 42L27 42L27 41L29 41L29 40L27 40L27 41L24 41L24 40L23 40L23 39L22 39L22 38ZM46 38L46 39L47 39L47 38ZM52 38L52 39L53 39L53 38ZM58 39L58 40L59 40L59 39ZM12 40L12 41L13 41L13 40ZM22 40L22 41L23 41L23 40ZM16 41L16 42L15 42L15 43L16 43L16 42L17 42L17 43L18 43L18 44L19 44L19 43L18 43L18 42L19 42L19 41L18 41L18 42L17 42L17 41ZM32 41L32 42L31 42L31 45L32 45L32 46L33 46L33 47L35 47L35 48L34 48L34 49L35 49L35 48L37 48L37 47L35 47L35 46L36 46L36 45L35 45L35 46L33 46L33 45L34 45L34 44L33 44L33 43L32 43L32 42L33 42L33 41ZM38 41L38 42L39 42L39 41ZM51 41L51 42L50 42L50 43L51 43L51 42L52 42L52 44L51 44L51 46L50 46L50 44L48 44L48 45L49 45L49 46L50 46L50 47L49 47L49 48L48 48L48 49L49 49L49 48L50 48L50 47L51 47L51 49L52 49L52 48L53 48L53 47L52 47L52 46L53 46L53 45L54 45L54 46L56 46L56 45L55 45L55 44L57 44L57 43L55 43L55 44L54 44L54 43L53 43L53 42L55 42L55 41ZM2 42L2 43L3 43L3 42ZM40 42L40 43L41 43L41 42ZM60 43L60 44L61 44L61 43ZM32 44L32 45L33 45L33 44ZM52 44L52 45L53 45L53 44ZM5 46L5 48L6 48L6 49L7 49L7 48L6 48L6 47L7 47L7 46ZM40 46L40 47L41 47L41 46ZM46 46L46 47L48 47L48 46ZM23 47L23 48L24 48L24 47ZM44 47L44 48L45 48L45 47ZM24 49L24 50L25 50L25 49ZM32 49L32 50L33 50L33 49ZM41 49L41 50L43 50L43 51L42 51L42 52L43 52L43 51L44 51L44 52L46 52L46 53L47 53L47 52L48 52L48 53L49 53L49 54L48 54L48 55L49 55L49 54L50 54L50 52L51 52L51 53L52 53L52 52L53 52L53 51L54 51L54 50L56 50L56 49L54 49L54 50L53 50L53 51L52 51L52 50L50 50L50 52L48 52L48 51L47 51L47 50L46 50L46 49L45 49L45 50L44 50L44 49ZM20 50L20 51L21 51L21 50ZM38 50L38 53L39 53L39 51L40 51L40 52L41 52L41 51L40 51L40 50ZM58 50L58 51L59 51L59 50ZM60 50L60 51L61 51L61 50ZM46 51L46 52L47 52L47 51ZM62 51L62 52L60 52L60 53L62 53L62 52L63 52L63 51ZM20 52L20 53L21 53L21 52ZM32 52L32 53L33 53L33 52ZM18 53L18 54L19 54L19 53ZM42 53L42 54L43 54L43 55L40 55L40 56L41 56L41 57L40 57L40 59L39 59L39 58L38 58L38 59L39 59L39 60L38 60L38 61L39 61L39 62L40 62L40 60L41 60L41 58L44 58L44 56L47 56L47 54L45 54L45 55L44 55L44 54L43 54L43 53ZM43 55L43 56L42 56L42 57L43 57L43 56L44 56L44 55ZM16 56L16 57L17 57L17 56ZM50 56L50 57L51 57L51 56ZM62 56L62 57L64 57L64 58L65 58L65 57L64 57L64 56ZM20 57L20 58L21 58L21 57ZM31 57L31 60L34 60L34 57ZM57 57L57 60L60 60L60 57ZM32 58L32 59L33 59L33 58ZM48 58L48 59L46 59L46 60L49 60L49 58ZM58 58L58 59L59 59L59 58ZM62 59L62 60L63 60L63 59ZM44 60L44 63L45 63L45 62L47 62L47 61L45 61L45 60ZM15 61L15 62L16 62L16 61ZM23 61L23 62L24 62L24 61ZM60 61L60 62L61 62L61 63L62 63L62 64L63 64L63 63L62 63L62 62L63 62L63 61ZM19 62L19 63L20 63L20 62ZM54 62L54 63L53 63L53 64L54 64L54 63L55 63L55 62ZM31 63L31 64L30 64L30 65L32 65L32 63ZM46 63L46 64L47 64L47 63ZM58 63L58 64L59 64L59 63ZM0 0L0 7L7 7L7 0ZM1 1L1 6L6 6L6 1ZM2 2L2 5L5 5L5 2ZM58 0L58 7L65 7L65 0ZM59 1L59 6L64 6L64 1ZM60 2L60 5L63 5L63 2ZM0 58L0 65L7 65L7 58ZM1 59L1 64L6 64L6 59ZM2 60L2 63L5 63L5 60Z" fill="#000000"/></g></g></svg>
