<?xml version="1.0" encoding="UTF-8"?>
<svg xmlns="http://www.w3.org/2000/svg" version="1.1" width="300" height="300" viewBox="0 0 300 300"><rect x="0" y="0" width="300" height="300" fill="#ffffff"/><g transform="scale(4.615)"><g transform="translate(0,0)"><path fill-rule="evenodd" d="M11 0L11 1L10 1L10 2L11 2L11 1L12 1L12 3L8 3L8 4L12 4L12 5L13 5L13 4L14 4L14 7L13 7L13 6L12 6L12 7L13 7L13 8L10 8L10 9L9 9L9 8L6 8L6 9L5 9L5 8L0 8L0 9L1 9L1 10L0 10L0 12L2 12L2 13L1 13L1 14L3 14L3 15L2 15L2 17L1 17L1 18L2 18L2 19L0 19L0 20L2 20L2 22L1 22L1 21L0 21L0 25L1 25L1 26L0 26L0 29L1 29L1 31L0 31L0 32L1 32L1 33L2 33L2 34L0 34L0 35L2 35L2 38L1 38L1 37L0 37L0 39L1 39L1 40L2 40L2 41L1 41L1 42L0 42L0 43L1 43L1 44L3 44L3 45L4 45L4 47L2 47L2 45L1 45L1 48L4 48L4 47L5 47L5 50L4 50L4 49L3 49L3 51L2 51L2 49L0 49L0 51L2 51L2 53L0 53L0 54L2 54L2 55L3 55L3 56L1 56L1 55L0 55L0 56L1 56L1 57L3 57L3 56L4 56L4 57L5 57L5 56L4 56L4 54L5 54L5 55L7 55L7 54L6 54L6 53L7 53L7 52L8 52L8 51L10 51L10 53L8 53L8 54L9 54L9 55L8 55L8 56L9 56L9 57L8 57L8 59L10 59L10 58L11 58L11 57L10 57L10 56L11 56L11 55L12 55L12 56L13 56L13 60L14 60L14 62L15 62L15 63L14 63L14 64L15 64L15 65L22 65L22 64L24 64L24 63L22 63L22 62L24 62L24 61L26 61L26 63L25 63L25 64L27 64L27 61L26 61L26 60L27 60L27 59L26 59L26 60L24 60L24 59L25 59L25 57L24 57L24 59L23 59L23 57L22 57L22 56L24 56L24 55L25 55L25 56L28 56L28 57L30 57L30 61L32 61L32 62L33 62L33 61L34 61L34 62L35 62L35 59L36 59L36 58L37 58L37 59L38 59L38 60L36 60L36 61L37 61L37 62L38 62L38 63L37 63L37 64L33 64L33 65L39 65L39 64L41 64L41 65L43 65L43 63L42 63L42 62L45 62L45 63L44 63L44 64L45 64L45 63L46 63L46 64L48 64L48 65L49 65L49 64L48 64L48 63L47 63L47 62L49 62L49 63L51 63L51 62L52 62L52 60L53 60L53 61L54 61L54 62L55 62L55 63L54 63L54 64L53 64L53 63L52 63L52 64L50 64L50 65L52 65L52 64L53 64L53 65L56 65L56 62L57 62L57 63L59 63L59 64L58 64L58 65L63 65L63 64L64 64L64 60L65 60L65 59L63 59L63 58L62 58L62 59L61 59L61 55L60 55L60 56L59 56L59 55L57 55L57 51L58 51L58 52L59 52L59 53L58 53L58 54L59 54L59 53L60 53L60 54L63 54L63 56L62 56L62 57L64 57L64 58L65 58L65 55L64 55L64 54L65 54L65 53L64 53L64 52L65 52L65 51L63 51L63 50L65 50L65 49L64 49L64 48L62 48L62 49L63 49L63 50L61 50L61 49L60 49L60 51L58 51L58 50L59 50L59 49L58 49L58 48L60 48L60 47L62 47L62 45L64 45L64 44L65 44L65 43L64 43L64 44L62 44L62 43L63 43L63 42L65 42L65 41L63 41L63 40L62 40L62 38L61 38L61 37L63 37L63 39L64 39L64 40L65 40L65 39L64 39L64 38L65 38L65 37L64 37L64 36L62 36L62 35L63 35L63 34L65 34L65 33L63 33L63 32L62 32L62 31L61 31L61 30L63 30L63 28L62 28L62 27L63 27L63 26L62 26L62 25L63 25L63 24L64 24L64 26L65 26L65 24L64 24L64 22L65 22L65 19L63 19L63 18L65 18L65 15L64 15L64 16L62 16L62 15L63 15L63 14L62 14L62 13L64 13L64 14L65 14L65 13L64 13L64 12L65 12L65 11L63 11L63 10L65 10L65 9L64 9L64 8L63 8L63 10L62 10L62 11L61 11L61 12L60 12L60 13L61 13L61 16L60 16L60 18L58 18L58 16L59 16L59 14L57 14L57 15L56 15L56 17L57 17L57 20L56 20L56 19L52 19L52 18L53 18L53 17L51 17L51 15L52 15L52 16L54 16L54 18L55 18L55 16L54 16L54 14L55 14L55 13L51 13L51 14L50 14L50 12L53 12L53 11L54 11L54 12L55 12L55 11L56 11L56 9L57 9L57 12L56 12L56 13L57 13L57 12L58 12L58 11L59 11L59 10L60 10L60 8L59 8L59 10L58 10L58 8L56 8L56 9L54 9L54 10L53 10L53 9L52 9L52 8L53 8L53 6L54 6L54 8L55 8L55 5L54 5L54 4L56 4L56 5L57 5L57 4L56 4L56 3L57 3L57 1L56 1L56 0L55 0L55 1L56 1L56 3L55 3L55 2L54 2L54 3L53 3L53 2L51 2L51 1L50 1L50 0L47 0L47 1L45 1L45 0L41 0L41 1L45 1L45 2L42 2L42 3L41 3L41 2L40 2L40 1L36 1L36 2L35 2L35 1L34 1L34 0L33 0L33 1L31 1L31 0L29 0L29 2L30 2L30 3L31 3L31 4L30 4L30 7L29 7L29 5L25 5L25 4L29 4L29 3L27 3L27 1L28 1L28 0L26 0L26 1L25 1L25 0L21 0L21 1L22 1L22 2L19 2L19 3L20 3L20 4L18 4L18 3L17 3L17 2L18 2L18 1L16 1L16 2L15 2L15 0ZM52 0L52 1L54 1L54 0ZM8 1L8 2L9 2L9 1ZM23 1L23 4L22 4L22 3L21 3L21 4L20 4L20 5L21 5L21 4L22 4L22 6L21 6L21 7L20 7L20 6L19 6L19 5L18 5L18 4L17 4L17 5L16 5L16 3L15 3L15 7L14 7L14 10L13 10L13 9L10 9L10 10L9 10L9 12L10 12L10 14L9 14L9 13L8 13L8 12L7 12L7 11L6 11L6 10L7 10L7 9L6 9L6 10L5 10L5 9L4 9L4 10L3 10L3 9L2 9L2 10L1 10L1 11L2 11L2 12L3 12L3 11L4 11L4 10L5 10L5 11L6 11L6 12L7 12L7 13L3 13L3 14L5 14L5 16L4 16L4 15L3 15L3 17L2 17L2 18L3 18L3 19L2 19L2 20L3 20L3 21L4 21L4 20L5 20L5 19L4 19L4 18L5 18L5 17L6 17L6 18L13 18L13 17L12 17L12 16L13 16L13 15L14 15L14 17L15 17L15 15L16 15L16 17L17 17L17 16L19 16L19 17L18 17L18 18L17 18L17 19L15 19L15 18L14 18L14 20L13 20L13 22L12 22L12 24L11 24L11 23L10 23L10 26L8 26L8 25L9 25L9 23L8 23L8 21L9 21L9 20L10 20L10 22L11 22L11 21L12 21L12 19L6 19L6 20L8 20L8 21L5 21L5 22L4 22L4 24L2 24L2 23L1 23L1 24L2 24L2 25L3 25L3 28L4 28L4 26L5 26L5 27L6 27L6 28L5 28L5 29L4 29L4 30L10 30L10 31L9 31L9 33L12 33L12 34L11 34L11 36L12 36L12 37L10 37L10 34L9 34L9 35L8 35L8 36L9 36L9 38L8 38L8 37L5 37L5 35L4 35L4 37L3 37L3 38L2 38L2 39L3 39L3 38L4 38L4 39L5 39L5 40L4 40L4 41L3 41L3 42L1 42L1 43L3 43L3 42L4 42L4 43L5 43L5 42L7 42L7 43L6 43L6 44L5 44L5 46L8 46L8 44L9 44L9 43L8 43L8 42L7 42L7 41L9 41L9 42L10 42L10 43L11 43L11 44L10 44L10 45L11 45L11 46L12 46L12 47L10 47L10 46L9 46L9 47L6 47L6 48L7 48L7 49L6 49L6 50L5 50L5 52L7 52L7 51L6 51L6 50L11 50L11 51L12 51L12 52L11 52L11 53L10 53L10 54L11 54L11 53L12 53L12 55L13 55L13 56L15 56L15 58L16 58L16 59L15 59L15 60L16 60L16 61L15 61L15 62L16 62L16 61L17 61L17 64L19 64L19 63L20 63L20 62L19 62L19 61L21 61L21 60L22 60L22 61L24 61L24 60L23 60L23 59L22 59L22 58L21 58L21 57L20 57L20 58L19 58L19 57L18 57L18 56L17 56L17 57L16 57L16 55L17 55L17 53L18 53L18 52L17 52L17 51L18 51L18 50L19 50L19 52L20 52L20 50L21 50L21 49L18 49L18 50L17 50L17 49L16 49L16 51L14 51L14 50L13 50L13 51L12 51L12 50L11 50L11 49L12 49L12 47L13 47L13 46L14 46L14 48L15 48L15 47L16 47L16 48L17 48L17 46L18 46L18 48L21 48L21 47L22 47L22 49L23 49L23 48L24 48L24 49L25 49L25 48L26 48L26 49L27 49L27 50L22 50L22 51L21 51L21 52L22 52L22 53L20 53L20 54L18 54L18 55L21 55L21 54L23 54L23 53L26 53L26 54L25 54L25 55L27 55L27 54L30 54L30 55L31 55L31 56L32 56L32 55L33 55L33 56L34 56L34 55L35 55L35 57L36 57L36 56L37 56L37 57L38 57L38 58L39 58L39 57L38 57L38 56L40 56L40 57L41 57L41 58L40 58L40 59L41 59L41 60L40 60L40 61L43 61L43 60L44 60L44 61L45 61L45 60L46 60L46 62L47 62L47 59L48 59L48 60L49 60L49 62L51 62L51 61L50 61L50 60L51 60L51 59L50 59L50 58L52 58L52 59L53 59L53 60L54 60L54 61L55 61L55 60L56 60L56 59L55 59L55 58L56 58L56 56L57 56L57 55L56 55L56 56L55 56L55 54L52 54L52 55L54 55L54 56L55 56L55 58L53 58L53 56L51 56L51 57L46 57L46 58L45 58L45 60L44 60L44 57L45 57L45 56L43 56L43 58L42 58L42 56L40 56L40 54L42 54L42 55L46 55L46 56L47 56L47 55L48 55L48 56L50 56L50 54L51 54L51 53L56 53L56 52L54 52L54 51L56 51L56 48L55 48L55 47L56 47L56 46L57 46L57 47L59 47L59 46L60 46L60 45L61 45L61 44L60 44L60 43L61 43L61 42L57 42L57 41L56 41L56 40L58 40L58 41L62 41L62 40L61 40L61 38L60 38L60 37L61 37L61 36L60 36L60 35L59 35L59 36L58 36L58 37L59 37L59 38L57 38L57 36L55 36L55 35L56 35L56 32L54 32L54 31L55 31L55 30L54 30L54 29L53 29L53 28L52 28L52 29L53 29L53 32L52 32L52 34L51 34L51 33L50 33L50 32L51 32L51 31L50 31L50 30L51 30L51 27L54 27L54 28L55 28L55 29L56 29L56 30L57 30L57 29L56 29L56 27L57 27L57 28L58 28L58 30L61 30L61 29L62 29L62 28L61 28L61 26L60 26L60 25L56 25L56 24L55 24L55 23L57 23L57 22L59 22L59 23L58 23L58 24L59 24L59 23L60 23L60 24L61 24L61 25L62 25L62 24L63 24L63 22L62 22L62 20L63 20L63 21L64 21L64 20L63 20L63 19L58 19L58 20L61 20L61 22L59 22L59 21L56 21L56 20L54 20L54 21L55 21L55 22L53 22L53 20L52 20L52 19L51 19L51 21L50 21L50 22L48 22L48 20L49 20L49 19L47 19L47 20L46 20L46 18L48 18L48 17L45 17L45 16L46 16L46 15L45 15L45 16L44 16L44 17L43 17L43 18L42 18L42 20L40 20L40 21L38 21L38 20L39 20L39 19L38 19L38 18L39 18L39 17L38 17L38 16L40 16L40 17L41 17L41 16L40 16L40 15L41 15L41 14L40 14L40 13L43 13L43 12L44 12L44 14L42 14L42 15L44 15L44 14L47 14L47 16L49 16L49 15L50 15L50 14L49 14L49 13L46 13L46 12L47 12L47 11L48 11L48 12L50 12L50 11L48 11L48 10L49 10L49 9L50 9L50 10L51 10L51 11L52 11L52 9L50 9L50 8L51 8L51 7L52 7L52 6L53 6L53 5L52 5L52 6L51 6L51 7L50 7L50 5L51 5L51 4L53 4L53 3L51 3L51 2L50 2L50 1L49 1L49 2L48 2L48 3L51 3L51 4L50 4L50 5L49 5L49 4L47 4L47 3L46 3L46 2L45 2L45 3L44 3L44 4L43 4L43 5L40 5L40 6L39 6L39 7L40 7L40 6L41 6L41 7L42 7L42 6L43 6L43 7L44 7L44 6L45 6L45 7L46 7L46 6L45 6L45 4L46 4L46 5L47 5L47 8L44 8L44 9L43 9L43 8L42 8L42 9L43 9L43 10L41 10L41 12L39 12L39 11L40 11L40 10L39 10L39 9L41 9L41 8L39 8L39 9L38 9L38 10L39 10L39 11L36 11L36 10L37 10L37 9L33 9L33 11L34 11L34 12L32 12L32 11L31 11L31 12L30 12L30 10L29 10L29 9L27 9L27 7L28 7L28 8L29 8L29 7L28 7L28 6L27 6L27 7L26 7L26 6L25 6L25 7L24 7L24 6L23 6L23 4L25 4L25 3L26 3L26 2L25 2L25 1ZM30 1L30 2L31 2L31 3L32 3L32 4L33 4L33 3L34 3L34 4L35 4L35 7L36 7L36 8L37 8L37 7L38 7L38 6L37 6L37 4L36 4L36 3L37 3L37 2L36 2L36 3L35 3L35 2L34 2L34 1L33 1L33 3L32 3L32 2L31 2L31 1ZM24 2L24 3L25 3L25 2ZM39 2L39 4L38 4L38 5L39 5L39 4L41 4L41 3L40 3L40 2ZM12 3L12 4L13 4L13 3ZM8 5L8 7L9 7L9 5ZM10 5L10 7L11 7L11 5ZM31 5L31 8L34 8L34 5ZM43 5L43 6L44 6L44 5ZM48 5L48 7L49 7L49 5ZM16 6L16 8L17 8L17 9L19 9L19 10L17 10L17 11L15 11L15 10L16 10L16 9L15 9L15 10L14 10L14 11L15 11L15 12L16 12L16 13L14 13L14 12L12 12L12 14L11 14L11 15L10 15L10 16L12 16L12 15L13 15L13 13L14 13L14 14L18 14L18 15L20 15L20 14L18 14L18 13L20 13L20 12L21 12L21 11L20 11L20 9L21 9L21 10L22 10L22 12L23 12L23 13L21 13L21 15L24 15L24 16L23 16L23 17L21 17L21 16L20 16L20 17L21 17L21 19L22 19L22 18L23 18L23 20L26 20L26 19L25 19L25 18L27 18L27 19L28 19L28 21L29 21L29 19L30 19L30 20L31 20L31 19L32 19L32 20L33 20L33 22L32 22L32 21L31 21L31 23L30 23L30 24L29 24L29 22L28 22L28 24L27 24L27 23L26 23L26 24L27 24L27 25L22 25L22 23L21 23L21 22L20 22L20 21L22 21L22 20L19 20L19 18L18 18L18 19L17 19L17 20L18 20L18 21L17 21L17 24L16 24L16 23L13 23L13 25L14 25L14 26L13 26L13 27L11 27L11 26L12 26L12 25L11 25L11 26L10 26L10 30L11 30L11 31L12 31L12 30L15 30L15 31L13 31L13 32L12 32L12 33L14 33L14 36L13 36L13 37L14 37L14 39L12 39L12 38L10 38L10 39L8 39L8 38L6 38L6 39L7 39L7 40L5 40L5 41L7 41L7 40L9 40L9 41L12 41L12 42L13 42L13 43L14 43L14 44L17 44L17 45L20 45L20 44L19 44L19 43L21 43L21 44L23 44L23 45L22 45L22 47L24 47L24 48L25 48L25 47L27 47L27 46L28 46L28 43L29 43L29 45L30 45L30 46L29 46L29 47L28 47L28 48L27 48L27 49L30 49L30 50L27 50L27 52L28 52L28 53L31 53L31 55L32 55L32 53L33 53L33 54L36 54L36 55L39 55L39 54L37 54L37 52L35 52L35 51L36 51L36 49L37 49L37 51L39 51L39 52L38 52L38 53L40 53L40 52L41 52L41 50L43 50L43 52L45 52L45 53L44 53L44 54L45 54L45 53L47 53L47 52L48 52L48 53L49 53L49 54L50 54L50 53L51 53L51 52L50 52L50 51L52 51L52 52L53 52L53 51L54 51L54 50L55 50L55 49L54 49L54 50L53 50L53 51L52 51L52 50L50 50L50 51L49 51L49 52L48 52L48 51L47 51L47 50L46 50L46 51L45 51L45 50L43 50L43 49L44 49L44 48L45 48L45 49L47 49L47 48L46 48L46 47L47 47L47 46L45 46L45 47L44 47L44 44L45 44L45 45L49 45L49 44L51 44L51 46L50 46L50 47L49 47L49 46L48 46L48 47L49 47L49 48L48 48L48 49L49 49L49 48L50 48L50 47L51 47L51 49L52 49L52 48L53 48L53 47L54 47L54 46L56 46L56 45L55 45L55 44L57 44L57 45L58 45L58 46L59 46L59 45L58 45L58 44L59 44L59 43L58 43L58 44L57 44L57 43L55 43L55 44L54 44L54 43L53 43L53 42L55 42L55 41L51 41L51 42L50 42L50 41L49 41L49 40L53 40L53 39L54 39L54 40L56 40L56 39L54 39L54 38L56 38L56 37L54 37L54 34L55 34L55 33L54 33L54 34L52 34L52 35L51 35L51 34L50 34L50 33L49 33L49 32L47 32L47 31L48 31L48 30L50 30L50 28L48 28L48 29L47 29L47 27L49 27L49 25L50 25L50 24L53 24L53 23L51 23L51 22L50 22L50 23L49 23L49 24L48 24L48 22L46 22L46 23L44 23L44 24L46 24L46 23L47 23L47 26L43 26L43 25L42 25L42 23L41 23L41 21L40 21L40 22L38 22L38 21L37 21L37 20L36 20L36 19L37 19L37 16L36 16L36 18L34 18L34 17L33 17L33 18L31 18L31 19L30 19L30 18L27 18L27 17L30 17L30 16L31 16L31 13L32 13L32 14L33 14L33 15L32 15L32 16L35 16L35 15L37 15L37 14L38 14L38 15L39 15L39 14L38 14L38 13L39 13L39 12L34 12L34 13L35 13L35 14L33 14L33 13L32 13L32 12L31 12L31 13L29 13L29 16L28 16L28 15L26 15L26 16L25 16L25 12L24 12L24 10L25 10L25 11L26 11L26 10L27 10L27 9L26 9L26 10L25 10L25 9L24 9L24 8L23 8L23 6L22 6L22 7L21 7L21 8L20 8L20 9L19 9L19 8L18 8L18 7L19 7L19 6L18 6L18 7L17 7L17 6ZM32 6L32 7L33 7L33 6ZM36 6L36 7L37 7L37 6ZM56 6L56 7L57 7L57 6ZM21 8L21 9L23 9L23 8ZM47 8L47 9L49 9L49 8ZM61 8L61 9L62 9L62 8ZM31 9L31 10L32 10L32 9ZM44 9L44 10L45 10L45 11L44 11L44 12L45 12L45 11L47 11L47 10L45 10L45 9ZM34 10L34 11L35 11L35 10ZM54 10L54 11L55 11L55 10ZM19 11L19 12L20 12L20 11ZM27 11L27 12L28 12L28 11ZM42 11L42 12L43 12L43 11ZM62 11L62 12L63 12L63 11ZM7 13L7 14L6 14L6 15L7 15L7 14L8 14L8 13ZM23 13L23 14L24 14L24 13ZM26 13L26 14L28 14L28 13ZM48 14L48 15L49 15L49 14ZM52 14L52 15L53 15L53 14ZM57 15L57 16L58 16L58 15ZM6 16L6 17L8 17L8 16ZM24 16L24 17L25 17L25 16ZM26 16L26 17L27 17L27 16ZM61 16L61 18L62 18L62 16ZM3 17L3 18L4 18L4 17ZM44 17L44 18L45 18L45 17ZM50 17L50 18L51 18L51 17ZM43 19L43 20L42 20L42 22L43 22L43 21L44 21L44 22L45 22L45 21L46 21L46 20L45 20L45 19ZM14 20L14 21L15 21L15 22L16 22L16 21L15 21L15 20ZM35 20L35 21L34 21L34 22L35 22L35 23L33 23L33 24L32 24L32 23L31 23L31 24L30 24L30 25L27 25L27 26L24 26L24 27L25 27L25 29L24 29L24 28L22 28L22 29L24 29L24 30L22 30L22 31L21 31L21 33L16 33L16 31L15 31L15 33L16 33L16 34L18 34L18 35L16 35L16 36L15 36L15 37L16 37L16 38L17 38L17 39L16 39L16 40L20 40L20 39L18 39L18 37L19 37L19 38L21 38L21 37L22 37L22 39L23 39L23 37L22 37L22 36L21 36L21 35L22 35L22 34L21 34L21 33L25 33L25 34L24 34L24 35L23 35L23 36L24 36L24 37L25 37L25 38L24 38L24 41L27 41L27 42L30 42L30 41L31 41L31 40L33 40L33 37L34 37L34 39L35 39L35 38L36 38L36 40L37 40L37 39L38 39L38 41L37 41L37 42L36 42L36 41L35 41L35 40L34 40L34 41L35 41L35 42L33 42L33 41L32 41L32 42L31 42L31 45L32 45L32 47L31 47L31 49L32 49L32 50L33 50L33 51L32 51L32 52L31 52L31 50L30 50L30 51L29 51L29 52L31 52L31 53L32 53L32 52L33 52L33 51L35 51L35 50L33 50L33 49L32 49L32 48L33 48L33 47L36 47L36 48L37 48L37 49L38 49L38 50L39 50L39 51L40 51L40 50L41 50L41 48L43 48L43 46L42 46L42 45L41 45L41 44L40 44L40 46L39 46L39 45L38 45L38 44L39 44L39 43L38 43L38 42L39 42L39 39L40 39L40 38L42 38L42 39L41 39L41 40L40 40L40 41L44 41L44 43L45 43L45 40L46 40L46 42L47 42L47 43L46 43L46 44L49 44L49 43L48 43L48 42L49 42L49 41L48 41L48 42L47 42L47 40L49 40L49 39L50 39L50 38L52 38L52 39L53 39L53 38L52 38L52 37L53 37L53 36L51 36L51 37L50 37L50 36L49 36L49 35L50 35L50 34L49 34L49 33L47 33L47 32L44 32L44 31L46 31L46 30L47 30L47 29L46 29L46 27L45 27L45 28L44 28L44 27L43 27L43 26L42 26L42 27L43 27L43 28L44 28L44 29L43 29L43 30L40 30L40 31L39 31L39 32L37 32L37 31L36 31L36 30L37 30L37 29L35 29L35 28L37 28L37 27L38 27L38 30L39 30L39 29L41 29L41 28L40 28L40 27L41 27L41 26L40 26L40 27L38 27L38 26L39 26L39 25L41 25L41 24L39 24L39 23L38 23L38 22L37 22L37 21L36 21L36 20ZM44 20L44 21L45 21L45 20ZM23 21L23 22L24 22L24 23L23 23L23 24L25 24L25 22L26 22L26 21ZM5 22L5 24L4 24L4 25L5 25L5 26L6 26L6 27L7 27L7 28L6 28L6 29L9 29L9 27L7 27L7 26L6 26L6 25L8 25L8 23L7 23L7 22ZM19 22L19 25L18 25L18 24L17 24L17 25L16 25L16 26L17 26L17 28L16 28L16 29L15 29L15 30L16 30L16 29L17 29L17 30L19 30L19 31L18 31L18 32L19 32L19 31L20 31L20 30L19 30L19 29L21 29L21 27L22 27L22 26L21 26L21 25L20 25L20 24L21 24L21 23L20 23L20 22ZM36 22L36 23L37 23L37 22ZM61 22L61 24L62 24L62 22ZM6 23L6 24L7 24L7 23ZM14 24L14 25L15 25L15 24ZM31 24L31 25L30 25L30 26L31 26L31 27L30 27L30 28L29 28L29 27L26 27L26 28L27 28L27 29L25 29L25 32L26 32L26 31L28 31L28 32L27 32L27 33L26 33L26 34L25 34L25 35L24 35L24 36L25 36L25 37L30 37L30 38L28 38L28 39L30 39L30 38L31 38L31 39L32 39L32 37L33 37L33 35L34 35L34 37L35 37L35 33L37 33L37 32L35 32L35 30L33 30L33 29L32 29L32 28L33 28L33 27L35 27L35 26L36 26L36 25L37 25L37 26L38 26L38 25L39 25L39 24L36 24L36 25L35 25L35 26L33 26L33 25L32 25L32 24ZM19 25L19 26L18 26L18 27L19 27L19 26L20 26L20 25ZM52 25L52 26L53 26L53 25ZM54 25L54 26L55 26L55 27L56 27L56 25ZM32 26L32 27L33 27L33 26ZM50 26L50 27L51 27L51 26ZM58 26L58 28L60 28L60 29L61 29L61 28L60 28L60 26ZM1 27L1 29L2 29L2 31L3 31L3 32L2 32L2 33L4 33L4 31L3 31L3 29L2 29L2 27ZM13 28L13 29L14 29L14 28ZM17 28L17 29L19 29L19 28ZM28 28L28 29L27 29L27 30L28 30L28 29L29 29L29 28ZM30 28L30 29L31 29L31 28ZM44 29L44 30L45 30L45 29ZM29 30L29 33L27 33L27 36L28 36L28 34L30 34L30 30ZM5 31L5 34L8 34L8 31ZM23 31L23 32L24 32L24 31ZM31 31L31 34L34 34L34 31ZM40 31L40 32L39 32L39 34L38 34L38 35L37 35L37 34L36 34L36 35L37 35L37 36L36 36L36 38L37 38L37 36L38 36L38 35L40 35L40 36L41 36L41 35L40 35L40 34L44 34L44 36L46 36L46 37L44 37L44 40L45 40L45 39L46 39L46 40L47 40L47 38L46 38L46 37L47 37L47 34L46 34L46 33L40 33L40 32L41 32L41 31ZM42 31L42 32L43 32L43 31ZM57 31L57 34L60 34L60 31ZM6 32L6 33L7 33L7 32ZM32 32L32 33L33 33L33 32ZM58 32L58 33L59 33L59 32ZM61 32L61 35L62 35L62 34L63 34L63 33L62 33L62 32ZM2 34L2 35L3 35L3 34ZM19 34L19 35L20 35L20 34ZM48 34L48 35L49 35L49 34ZM6 35L6 36L7 36L7 35ZM25 35L25 36L26 36L26 35ZM29 35L29 36L30 36L30 35ZM42 35L42 36L43 36L43 35ZM16 36L16 37L18 37L18 36ZM20 36L20 37L21 37L21 36ZM31 36L31 37L32 37L32 36ZM48 36L48 38L50 38L50 37L49 37L49 36ZM59 36L59 37L60 37L60 36ZM4 37L4 38L5 38L5 37ZM39 37L39 38L38 38L38 39L39 39L39 38L40 38L40 37ZM42 37L42 38L43 38L43 37ZM26 38L26 40L27 40L27 41L30 41L30 40L27 40L27 38ZM10 39L10 40L12 40L12 41L13 41L13 42L14 42L14 43L16 43L16 42L17 42L17 43L19 43L19 41L18 41L18 42L17 42L17 41L16 41L16 42L14 42L14 41L15 41L15 39L14 39L14 40L12 40L12 39ZM42 39L42 40L43 40L43 39ZM58 39L58 40L59 40L59 39ZM22 40L22 41L20 41L20 42L22 42L22 43L23 43L23 44L24 44L24 43L25 43L25 46L26 46L26 45L27 45L27 44L26 44L26 42L22 42L22 41L23 41L23 40ZM32 42L32 43L33 43L33 44L32 44L32 45L34 45L34 46L35 46L35 45L37 45L37 46L36 46L36 47L37 47L37 46L38 46L38 47L39 47L39 48L38 48L38 49L39 49L39 50L40 50L40 48L41 48L41 46L40 46L40 47L39 47L39 46L38 46L38 45L37 45L37 44L36 44L36 42L35 42L35 43L33 43L33 42ZM41 42L41 43L43 43L43 42ZM51 42L51 44L52 44L52 45L54 45L54 44L52 44L52 42ZM7 43L7 44L6 44L6 45L7 45L7 44L8 44L8 43ZM11 44L11 45L12 45L12 44ZM34 44L34 45L35 45L35 44ZM14 45L14 46L16 46L16 45ZM23 45L23 46L24 46L24 45ZM19 46L19 47L20 47L20 46ZM52 46L52 47L53 47L53 46ZM9 47L9 48L8 48L8 49L9 49L9 48L10 48L10 47ZM29 47L29 48L30 48L30 47ZM34 48L34 49L35 49L35 48ZM3 51L3 53L2 53L2 54L4 54L4 51ZM24 51L24 52L26 52L26 51ZM46 51L46 52L47 52L47 51ZM62 51L62 52L60 52L60 53L62 53L62 52L63 52L63 51ZM15 52L15 54L14 54L14 55L16 55L16 53L17 53L17 52ZM34 52L34 53L35 53L35 52ZM49 52L49 53L50 53L50 52ZM42 53L42 54L43 54L43 53ZM63 53L63 54L64 54L64 53ZM46 54L46 55L47 55L47 54ZM28 55L28 56L29 56L29 55ZM6 56L6 57L7 57L7 56ZM9 57L9 58L10 58L10 57ZM26 57L26 58L27 58L27 57ZM31 57L31 60L34 60L34 57ZM57 57L57 60L60 60L60 57ZM18 58L18 59L16 59L16 60L17 60L17 61L19 61L19 58ZM20 58L20 59L21 59L21 58ZM32 58L32 59L33 59L33 58ZM46 58L46 59L47 59L47 58ZM48 58L48 59L49 59L49 58ZM58 58L58 59L59 59L59 58ZM42 59L42 60L43 60L43 59ZM62 59L62 60L61 60L61 61L60 61L60 62L61 62L61 63L62 63L62 64L63 64L63 63L62 63L62 62L63 62L63 61L62 61L62 60L63 60L63 59ZM8 60L8 65L9 65L9 60ZM10 60L10 61L11 61L11 63L12 63L12 64L10 64L10 65L12 65L12 64L13 64L13 63L12 63L12 61L11 61L11 60ZM38 60L38 62L39 62L39 60ZM58 61L58 62L59 62L59 61ZM18 62L18 63L19 63L19 62ZM30 62L30 63L31 63L31 64L29 64L29 63L28 63L28 65L32 65L32 63L31 63L31 62ZM40 62L40 63L41 63L41 64L42 64L42 63L41 63L41 62ZM15 63L15 64L16 64L16 63ZM38 63L38 64L39 64L39 63ZM0 0L0 7L7 7L7 0ZM1 1L1 6L6 6L6 1ZM2 2L2 5L5 5L5 2ZM58 0L58 7L65 7L65 0ZM59 1L59 6L64 6L64 1ZM60 2L60 5L63 5L63 2ZM0 58L0 65L7 65L7 58ZM1 59L1 64L6 64L6 59ZM2 60L2 63L5 63L5 60Z" fill="#000000"/></g></g></svg>
