<?xml version="1.0" encoding="UTF-8"?>
<svg xmlns="http://www.w3.org/2000/svg" version="1.1" width="300" height="300" viewBox="0 0 300 300"><rect x="0" y="0" width="300" height="300" fill="#ffffff"/><g transform="scale(4.615)"><g transform="translate(0,0)"><path fill-rule="evenodd" d="M9 0L9 1L8 1L8 2L10 2L10 0ZM12 0L12 1L13 1L13 2L11 2L11 3L13 3L13 2L14 2L14 3L16 3L16 4L13 4L13 5L11 5L11 6L10 6L10 7L11 7L11 6L12 6L12 7L13 7L13 5L15 5L15 6L14 6L14 10L13 10L13 8L10 8L10 9L9 9L9 8L6 8L6 9L7 9L7 10L6 10L6 11L7 11L7 12L6 12L6 13L4 13L4 15L2 15L2 17L3 17L3 18L2 18L2 19L0 19L0 20L1 20L1 22L0 22L0 23L1 23L1 22L2 22L2 25L1 25L1 27L0 27L0 31L2 31L2 30L3 30L3 31L4 31L4 32L3 32L3 33L4 33L4 35L3 35L3 34L2 34L2 32L0 32L0 33L1 33L1 36L2 36L2 37L3 37L3 36L4 36L4 35L7 35L7 36L6 36L6 37L5 37L5 39L3 39L3 38L0 38L0 39L2 39L2 41L1 41L1 40L0 40L0 44L1 44L1 42L3 42L3 43L4 43L4 42L5 42L5 45L4 45L4 44L3 44L3 45L2 45L2 47L3 47L3 49L1 49L1 48L0 48L0 52L4 52L4 51L5 51L5 53L8 53L8 54L5 54L5 55L7 55L7 56L6 56L6 57L8 57L8 59L10 59L10 61L9 61L9 60L8 60L8 65L10 65L10 64L11 64L11 63L12 63L12 64L13 64L13 62L16 62L16 61L15 61L15 59L16 59L16 60L17 60L17 61L20 61L20 60L19 60L19 59L16 59L16 58L14 58L14 57L11 57L11 56L10 56L10 57L11 57L11 59L10 59L10 58L9 58L9 57L8 57L8 56L9 56L9 55L14 55L14 56L16 56L16 57L17 57L17 56L18 56L18 57L19 57L19 58L20 58L20 59L21 59L21 60L23 60L23 61L22 61L22 62L25 62L25 61L24 61L24 60L25 60L25 59L26 59L26 58L27 58L27 61L26 61L26 62L27 62L27 64L28 64L28 65L29 65L29 64L28 64L28 63L29 63L29 62L30 62L30 63L32 63L32 64L33 64L33 63L36 63L36 62L34 62L34 61L37 61L37 63L39 63L39 65L40 65L40 64L41 64L41 65L44 65L44 64L46 64L46 65L49 65L49 64L48 64L48 63L49 63L49 60L51 60L51 62L50 62L50 63L51 63L51 64L50 64L50 65L51 65L51 64L53 64L53 65L61 65L61 64L62 64L62 65L63 65L63 64L64 64L64 60L65 60L65 59L63 59L63 57L64 57L64 58L65 58L65 57L64 57L64 56L65 56L65 55L64 55L64 54L65 54L65 51L64 51L64 54L63 54L63 52L62 52L62 51L63 51L63 50L61 50L61 49L58 49L58 48L60 48L60 47L61 47L61 48L62 48L62 49L64 49L64 50L65 50L65 49L64 49L64 48L62 48L62 47L63 47L63 46L62 46L62 47L61 47L61 45L58 45L58 44L59 44L59 43L57 43L57 42L61 42L61 43L60 43L60 44L62 44L62 45L64 45L64 44L65 44L65 43L64 43L64 44L62 44L62 43L63 43L63 42L65 42L65 39L64 39L64 38L65 38L65 37L64 37L64 36L65 36L65 35L63 35L63 34L65 34L65 31L63 31L63 28L62 28L62 27L63 27L63 26L62 26L62 27L61 27L61 28L60 28L60 30L58 30L58 28L59 28L59 27L60 27L60 25L61 25L61 24L62 24L62 25L63 25L63 24L62 24L62 22L63 22L63 23L64 23L64 24L65 24L65 23L64 23L64 22L65 22L65 21L63 21L63 20L64 20L64 18L65 18L65 15L64 15L64 16L60 16L60 18L58 18L58 16L59 16L59 14L57 14L57 15L58 15L58 16L56 16L56 13L57 13L57 12L58 12L58 11L59 11L59 12L60 12L60 13L61 13L61 12L60 12L60 10L56 10L56 9L58 9L58 8L55 8L55 5L54 5L54 4L56 4L56 5L57 5L57 4L56 4L56 3L57 3L57 1L56 1L56 0L55 0L55 1L56 1L56 3L55 3L55 2L54 2L54 3L53 3L53 1L54 1L54 0L51 0L51 1L49 1L49 0L48 0L48 1L46 1L46 0L44 0L44 1L43 1L43 0L40 0L40 1L38 1L38 0L35 0L35 1L34 1L34 0L30 0L30 1L32 1L32 3L29 3L29 2L26 2L26 1L27 1L27 0L26 0L26 1L25 1L25 0L22 0L22 1L21 1L21 2L19 2L19 1L18 1L18 2L17 2L17 0ZM15 1L15 2L16 2L16 1ZM22 1L22 2L21 2L21 3L22 3L22 4L20 4L20 5L19 5L19 7L18 7L18 5L16 5L16 6L15 6L15 7L16 7L16 8L15 8L15 10L14 10L14 12L15 12L15 13L14 13L14 14L13 14L13 15L14 15L14 14L15 14L15 16L13 16L13 18L10 18L10 17L9 17L9 18L10 18L10 19L11 19L11 22L10 22L10 21L9 21L9 22L7 22L7 21L8 21L8 20L9 20L9 19L8 19L8 17L5 17L5 16L3 16L3 17L4 17L4 18L3 18L3 22L4 22L4 23L3 23L3 25L2 25L2 26L3 26L3 25L4 25L4 23L5 23L5 26L4 26L4 27L5 27L5 28L8 28L8 29L9 29L9 27L11 27L11 29L10 29L10 30L9 30L9 34L10 34L10 36L9 36L9 35L8 35L8 36L9 36L9 37L6 37L6 38L8 38L8 39L5 39L5 40L3 40L3 42L4 42L4 41L5 41L5 40L9 40L9 41L8 41L8 43L9 43L9 44L11 44L11 45L9 45L9 46L8 46L8 45L6 45L6 46L5 46L5 47L4 47L4 45L3 45L3 47L4 47L4 49L5 49L5 47L6 47L6 48L8 48L8 49L12 49L12 52L11 52L11 50L7 50L7 49L6 49L6 50L7 50L7 51L6 51L6 52L7 52L7 51L9 51L9 53L10 53L10 54L13 54L13 53L14 53L14 54L15 54L15 55L16 55L16 56L17 56L17 54L18 54L18 55L19 55L19 54L20 54L20 55L21 55L21 53L22 53L22 55L23 55L23 56L21 56L21 57L20 57L20 56L19 56L19 57L20 57L20 58L22 58L22 59L23 59L23 60L24 60L24 59L25 59L25 58L26 58L26 57L27 57L27 58L29 58L29 59L28 59L28 60L29 60L29 61L27 61L27 62L29 62L29 61L30 61L30 62L31 62L31 61L30 61L30 58L29 58L29 57L30 57L30 56L33 56L33 55L31 55L31 53L32 53L32 54L34 54L34 55L36 55L36 56L37 56L37 55L38 55L38 58L37 58L37 59L36 59L36 58L35 58L35 60L37 60L37 59L38 59L38 62L39 62L39 61L41 61L41 60L40 60L40 59L43 59L43 60L44 60L44 61L43 61L43 62L40 62L40 63L42 63L42 64L44 64L44 63L45 63L45 62L47 62L47 61L48 61L48 60L49 60L49 57L50 57L50 58L51 58L51 59L52 59L52 57L54 57L54 56L55 56L55 58L53 58L53 59L54 59L54 60L52 60L52 62L51 62L51 63L53 63L53 64L55 64L55 63L56 63L56 64L59 64L59 63L57 63L57 62L59 62L59 61L57 61L57 62L56 62L56 61L55 61L55 62L54 62L54 63L53 63L53 61L54 61L54 60L56 60L56 59L55 59L55 58L56 58L56 56L57 56L57 55L59 55L59 56L60 56L60 55L61 55L61 57L62 57L62 56L63 56L63 54L60 54L60 53L62 53L62 52L60 52L60 51L61 51L61 50L58 50L58 51L57 51L57 55L56 55L56 56L55 56L55 54L53 54L53 56L49 56L49 55L50 55L50 54L52 54L52 53L56 53L56 52L54 52L54 51L56 51L56 48L54 48L54 47L55 47L55 46L56 46L56 45L57 45L57 44L55 44L55 43L56 43L56 42L57 42L57 41L56 41L56 40L58 40L58 41L62 41L62 42L63 42L63 41L62 41L62 40L63 40L63 38L64 38L64 37L61 37L61 36L60 36L60 37L59 37L59 36L58 36L58 37L59 37L59 38L57 38L57 36L55 36L55 35L56 35L56 33L55 33L55 34L54 34L54 37L56 37L56 38L54 38L54 39L53 39L53 38L52 38L52 39L53 39L53 40L50 40L50 41L47 41L47 39L48 39L48 40L49 40L49 37L48 37L48 36L50 36L50 38L51 38L51 37L53 37L53 36L52 36L52 34L53 34L53 32L52 32L52 34L51 34L51 31L50 31L50 30L51 30L51 28L50 28L50 27L48 27L48 26L49 26L49 25L50 25L50 26L52 26L52 25L53 25L53 28L52 28L52 29L56 29L56 30L54 30L54 31L56 31L56 30L57 30L57 29L56 29L56 27L55 27L55 26L57 26L57 25L58 25L58 26L59 26L59 25L58 25L58 24L61 24L61 22L62 22L62 20L63 20L63 19L59 19L59 20L61 20L61 22L59 22L59 21L58 21L58 22L59 22L59 23L57 23L57 21L56 21L56 20L57 20L57 17L56 17L56 16L54 16L54 15L55 15L55 14L54 14L54 13L55 13L55 12L57 12L57 11L56 11L56 10L54 10L54 9L55 9L55 8L54 8L54 6L53 6L53 3L52 3L52 2L51 2L51 4L50 4L50 3L49 3L49 2L47 2L47 4L46 4L46 3L44 3L44 4L43 4L43 3L42 3L42 2L43 2L43 1L40 1L40 2L38 2L38 1L37 1L37 2L36 2L36 1L35 1L35 3L32 3L32 4L35 4L35 5L36 5L36 6L35 6L35 9L33 9L33 10L32 10L32 9L30 9L30 8L29 8L29 7L30 7L30 6L29 6L29 7L28 7L28 6L27 6L27 5L30 5L30 4L28 4L28 3L26 3L26 4L27 4L27 5L24 5L24 6L23 6L23 2L24 2L24 4L25 4L25 2L24 2L24 1ZM33 1L33 2L34 2L34 1ZM37 2L37 3L36 3L36 5L37 5L37 3L38 3L38 2ZM40 2L40 3L41 3L41 2ZM8 3L8 4L9 4L9 3ZM17 3L17 4L18 4L18 3ZM48 3L48 5L46 5L46 4L44 4L44 5L45 5L45 6L44 6L44 8L45 8L45 9L47 9L47 10L43 10L43 9L39 9L39 10L38 10L38 8L36 8L36 9L35 9L35 10L33 10L33 11L32 11L32 12L31 12L31 11L30 11L30 9L29 9L29 8L28 8L28 7L27 7L27 6L26 6L26 8L27 8L27 9L22 9L22 7L23 7L23 6L22 6L22 7L21 7L21 5L20 5L20 7L21 7L21 8L17 8L17 9L16 9L16 10L15 10L15 12L16 12L16 13L19 13L19 14L18 14L18 15L19 15L19 16L18 16L18 17L17 17L17 16L15 16L15 17L14 17L14 18L13 18L13 19L14 19L14 20L13 20L13 21L12 21L12 22L11 22L11 23L10 23L10 22L9 22L9 23L7 23L7 22L6 22L6 21L7 21L7 20L8 20L8 19L7 19L7 18L6 18L6 19L5 19L5 20L6 20L6 21L5 21L5 23L7 23L7 24L6 24L6 25L8 25L8 26L9 26L9 25L8 25L8 24L9 24L9 23L10 23L10 24L11 24L11 25L10 25L10 26L11 26L11 25L12 25L12 27L13 27L13 28L12 28L12 29L11 29L11 31L10 31L10 34L12 34L12 33L13 33L13 34L14 34L14 33L15 33L15 32L16 32L16 33L17 33L17 34L15 34L15 36L13 36L13 35L12 35L12 37L11 37L11 36L10 36L10 37L11 37L11 38L10 38L10 39L11 39L11 40L10 40L10 41L11 41L11 44L12 44L12 45L13 45L13 46L14 46L14 49L13 49L13 51L14 51L14 50L15 50L15 51L16 51L16 52L15 52L15 53L18 53L18 54L19 54L19 53L18 53L18 52L17 52L17 51L18 51L18 49L19 49L19 50L20 50L20 51L21 51L21 52L20 52L20 53L21 53L21 52L22 52L22 53L24 53L24 54L25 54L25 55L24 55L24 56L23 56L23 57L22 57L22 58L25 58L25 57L24 57L24 56L25 56L25 55L27 55L27 57L29 57L29 55L30 55L30 54L28 54L28 53L29 53L29 51L30 51L30 52L32 52L32 53L37 53L37 54L36 54L36 55L37 55L37 54L38 54L38 55L39 55L39 58L38 58L38 59L39 59L39 58L40 58L40 56L41 56L41 54L40 54L40 52L42 52L42 54L43 54L43 55L42 55L42 56L45 56L45 57L44 57L44 58L45 58L45 59L44 59L44 60L45 60L45 61L44 61L44 62L45 62L45 61L47 61L47 60L46 60L46 59L47 59L47 58L48 58L48 57L49 57L49 56L48 56L48 57L47 57L47 58L46 58L46 56L47 56L47 54L46 54L46 56L45 56L45 55L44 55L44 54L43 54L43 52L42 52L42 50L43 50L43 49L44 49L44 48L45 48L45 49L47 49L47 50L44 50L44 52L45 52L45 51L47 51L47 52L48 52L48 53L49 53L49 54L48 54L48 55L49 55L49 54L50 54L50 53L52 53L52 52L53 52L53 51L52 51L52 50L50 50L50 51L51 51L51 52L48 52L48 51L49 51L49 50L48 50L48 49L49 49L49 48L53 48L53 47L52 47L52 46L53 46L53 45L54 45L54 46L55 46L55 44L54 44L54 43L52 43L52 42L55 42L55 41L52 41L52 42L50 42L50 43L52 43L52 44L51 44L51 46L50 46L50 44L48 44L48 43L49 43L49 42L48 42L48 43L47 43L47 42L45 42L45 41L44 41L44 44L43 44L43 43L42 43L42 42L43 42L43 41L42 41L42 39L40 39L40 38L41 38L41 37L39 37L39 35L40 35L40 36L41 36L41 33L42 33L42 34L43 34L43 33L44 33L44 34L45 34L45 35L42 35L42 36L46 36L46 37L47 37L47 36L48 36L48 33L50 33L50 32L48 32L48 30L50 30L50 28L48 28L48 29L47 29L47 28L46 28L46 29L47 29L47 30L45 30L45 31L44 31L44 32L43 32L43 31L42 31L42 32L41 32L41 30L44 30L44 28L45 28L45 27L47 27L47 26L48 26L48 25L49 25L49 24L47 24L47 22L46 22L46 23L45 23L45 21L47 21L47 20L46 20L46 19L47 19L47 18L46 18L46 17L50 17L50 16L46 16L46 15L48 15L48 14L50 14L50 15L52 15L52 16L51 16L51 18L48 18L48 19L49 19L49 20L48 20L48 22L50 22L50 23L51 23L51 24L50 24L50 25L51 25L51 24L53 24L53 23L52 23L52 22L55 22L55 21L54 21L54 20L56 20L56 19L52 19L52 18L55 18L55 17L54 17L54 16L53 16L53 15L52 15L52 14L53 14L53 13L51 13L51 12L53 12L53 11L54 11L54 12L55 12L55 11L54 11L54 10L53 10L53 11L51 11L51 10L50 10L50 11L51 11L51 12L50 12L50 13L49 13L49 12L48 12L48 11L49 11L49 9L50 9L50 8L51 8L51 5L50 5L50 4L49 4L49 3ZM39 4L39 5L38 5L38 7L39 7L39 8L41 8L41 6L42 6L42 8L43 8L43 6L42 6L42 5L43 5L43 4L42 4L42 5L40 5L40 4ZM8 5L8 7L9 7L9 5ZM31 5L31 8L34 8L34 5ZM39 5L39 7L40 7L40 5ZM48 5L48 6L47 6L47 7L46 7L46 6L45 6L45 7L46 7L46 8L47 8L47 7L48 7L48 8L50 8L50 5ZM16 6L16 7L17 7L17 6ZM24 6L24 8L25 8L25 6ZM32 6L32 7L33 7L33 6ZM36 6L36 7L37 7L37 6ZM48 6L48 7L49 7L49 6ZM52 6L52 8L53 8L53 6ZM56 6L56 7L57 7L57 6ZM0 8L0 9L3 9L3 10L4 10L4 11L5 11L5 8ZM59 8L59 9L60 9L60 8ZM61 8L61 10L65 10L65 9L64 9L64 8L63 8L63 9L62 9L62 8ZM17 9L17 10L16 10L16 12L17 12L17 11L18 11L18 12L19 12L19 13L24 13L24 14L23 14L23 15L24 15L24 16L22 16L22 15L21 15L21 16L22 16L22 17L23 17L23 18L24 18L24 17L25 17L25 19L24 19L24 20L23 20L23 21L22 21L22 20L21 20L21 19L22 19L22 18L21 18L21 17L20 17L20 16L19 16L19 17L18 17L18 19L16 19L16 18L17 18L17 17L15 17L15 20L14 20L14 21L13 21L13 24L14 24L14 25L13 25L13 27L14 27L14 28L15 28L15 29L16 29L16 30L15 30L15 31L13 31L13 33L14 33L14 32L15 32L15 31L16 31L16 32L17 32L17 33L18 33L18 34L17 34L17 35L16 35L16 36L17 36L17 37L16 37L16 39L15 39L15 37L12 37L12 38L11 38L11 39L12 39L12 41L13 41L13 45L14 45L14 46L16 46L16 45L17 45L17 47L18 47L18 46L19 46L19 47L20 47L20 46L19 46L19 45L21 45L21 41L20 41L20 44L19 44L19 43L18 43L18 42L19 42L19 41L18 41L18 42L17 42L17 41L16 41L16 42L15 42L15 41L14 41L14 40L16 40L16 39L17 39L17 40L19 40L19 39L21 39L21 38L23 38L23 40L22 40L22 41L25 41L25 42L24 42L24 43L25 43L25 44L26 44L26 45L25 45L25 46L26 46L26 47L24 47L24 48L22 48L22 47L23 47L23 46L22 46L22 47L21 47L21 49L20 49L20 48L19 48L19 49L20 49L20 50L21 50L21 51L22 51L22 50L21 50L21 49L23 49L23 51L24 51L24 53L25 53L25 54L26 54L26 53L28 53L28 52L27 52L27 51L26 51L26 52L25 52L25 51L24 51L24 49L25 49L25 50L26 50L26 49L27 49L27 48L29 48L29 46L30 46L30 45L32 45L32 46L34 46L34 47L35 47L35 48L34 48L34 49L35 49L35 50L33 50L33 49L32 49L32 48L33 48L33 47L32 47L32 48L31 48L31 51L33 51L33 52L34 52L34 51L35 51L35 52L37 52L37 53L38 53L38 54L39 54L39 55L40 55L40 54L39 54L39 53L38 53L38 52L39 52L39 51L40 51L40 50L41 50L41 49L43 49L43 48L42 48L42 47L44 47L44 46L45 46L45 47L46 47L46 48L49 48L49 47L50 47L50 46L49 46L49 45L46 45L46 43L45 43L45 44L44 44L44 46L40 46L40 45L41 45L41 44L39 44L39 43L38 43L38 42L39 42L39 40L40 40L40 41L41 41L41 40L40 40L40 39L38 39L38 38L39 38L39 37L38 37L38 34L40 34L40 33L41 33L41 32L40 32L40 33L38 33L38 32L39 32L39 31L40 31L40 29L42 29L42 28L40 28L40 27L36 27L36 26L37 26L37 25L38 25L38 26L39 26L39 23L40 23L40 22L42 22L42 23L43 23L43 24L42 24L42 25L44 25L44 27L43 27L43 26L41 26L41 27L43 27L43 28L44 28L44 27L45 27L45 26L47 26L47 24L44 24L44 21L45 21L45 20L44 20L44 19L43 19L43 18L40 18L40 19L41 19L41 20L40 20L40 21L38 21L38 20L39 20L39 19L37 19L37 17L36 17L36 16L37 16L37 15L38 15L38 18L39 18L39 17L41 17L41 16L44 16L44 17L45 17L45 16L44 16L44 15L43 15L43 14L45 14L45 15L46 15L46 14L48 14L48 13L45 13L45 12L44 12L44 11L43 11L43 10L42 10L42 11L41 11L41 10L40 10L40 11L41 11L41 12L39 12L39 13L37 13L37 14L36 14L36 13L35 13L35 12L38 12L38 11L37 11L37 10L36 10L36 11L35 11L35 12L34 12L34 11L33 11L33 12L32 12L32 13L33 13L33 14L32 14L32 15L31 15L31 16L30 16L30 14L29 14L29 13L27 13L27 12L28 12L28 11L29 11L29 9L28 9L28 11L27 11L27 10L26 10L26 11L27 11L27 12L26 12L26 13L24 13L24 11L25 11L25 10L22 10L22 11L23 11L23 12L21 12L21 9L20 9L20 12L19 12L19 11L18 11L18 10L19 10L19 9ZM0 10L0 12L1 12L1 13L2 13L2 14L3 14L3 13L2 13L2 12L3 12L3 11L1 11L1 10ZM8 10L8 12L9 12L9 14L8 14L8 13L6 13L6 14L5 14L5 15L6 15L6 16L8 16L8 15L9 15L9 16L10 16L10 15L9 15L9 14L10 14L10 12L11 12L11 15L12 15L12 12L13 12L13 10L10 10L10 11L9 11L9 10ZM11 11L11 12L12 12L12 11ZM42 11L42 12L41 12L41 13L39 13L39 14L38 14L38 15L40 15L40 16L41 16L41 15L42 15L42 14L43 14L43 13L42 13L42 12L43 12L43 11ZM46 11L46 12L47 12L47 11ZM63 11L63 12L62 12L62 13L64 13L64 14L65 14L65 13L64 13L64 12L65 12L65 11ZM30 12L30 13L31 13L31 12ZM33 12L33 13L34 13L34 12ZM26 13L26 14L25 14L25 17L26 17L26 18L27 18L27 19L26 19L26 20L25 20L25 21L23 21L23 22L25 22L25 21L26 21L26 24L27 24L27 25L24 25L24 24L25 24L25 23L24 23L24 24L23 24L23 23L22 23L22 21L21 21L21 20L20 20L20 21L21 21L21 22L19 22L19 21L18 21L18 20L17 20L17 21L16 21L16 20L15 20L15 21L16 21L16 22L14 22L14 23L16 23L16 24L15 24L15 25L14 25L14 27L15 27L15 25L17 25L17 23L18 23L18 22L19 22L19 23L20 23L20 24L18 24L18 25L19 25L19 26L16 26L16 27L17 27L17 30L18 30L18 29L20 29L20 27L19 27L19 26L20 26L20 25L22 25L22 28L24 28L24 30L23 30L23 29L22 29L22 30L21 30L21 32L20 32L20 33L19 33L19 32L18 32L18 33L19 33L19 34L18 34L18 35L17 35L17 36L18 36L18 37L17 37L17 38L18 38L18 39L19 39L19 38L20 38L20 37L22 37L22 36L21 36L21 35L22 35L22 34L27 34L27 37L26 37L26 35L24 35L24 36L25 36L25 37L24 37L24 38L25 38L25 37L26 37L26 38L27 38L27 39L25 39L25 40L27 40L27 41L26 41L26 42L27 42L27 41L29 41L29 40L32 40L32 41L33 41L33 43L32 43L32 42L31 42L31 41L30 41L30 42L29 42L29 43L26 43L26 44L27 44L27 45L26 45L26 46L27 46L27 47L28 47L28 46L27 46L27 45L29 45L29 43L30 43L30 44L32 44L32 45L33 45L33 44L35 44L35 45L34 45L34 46L35 46L35 47L36 47L36 45L37 45L37 46L38 46L38 48L36 48L36 50L35 50L35 51L36 51L36 50L38 50L38 51L39 51L39 50L40 50L40 49L39 49L39 50L38 50L38 48L39 48L39 46L38 46L38 45L39 45L39 44L36 44L36 43L37 43L37 42L38 42L38 41L37 41L37 40L36 40L36 41L37 41L37 42L36 42L36 43L34 43L34 41L35 41L35 39L34 39L34 38L37 38L37 36L35 36L35 32L36 32L36 33L37 33L37 34L36 34L36 35L37 35L37 34L38 34L38 33L37 33L37 32L36 32L36 31L39 31L39 30L38 30L38 29L39 29L39 28L38 28L38 29L37 29L37 28L35 28L35 26L33 26L33 25L37 25L37 24L36 24L36 23L39 23L39 22L37 22L37 20L34 20L34 19L35 19L35 18L34 18L34 17L35 17L35 16L36 16L36 15L35 15L35 14L34 14L34 15L32 15L32 16L31 16L31 17L30 17L30 18L31 18L31 17L32 17L32 18L34 18L34 19L29 19L29 20L27 20L27 19L28 19L28 18L27 18L27 17L29 17L29 16L28 16L28 15L26 15L26 14L27 14L27 13ZM50 13L50 14L51 14L51 13ZM6 14L6 15L7 15L7 14ZM19 14L19 15L20 15L20 14ZM40 14L40 15L41 15L41 14ZM60 14L60 15L61 15L61 14ZM62 14L62 15L63 15L63 14ZM34 15L34 16L35 16L35 15ZM0 16L0 18L1 18L1 16ZM26 16L26 17L27 17L27 16ZM32 16L32 17L33 17L33 16ZM52 16L52 17L53 17L53 16ZM19 17L19 19L20 19L20 17ZM61 17L61 18L62 18L62 17ZM45 18L45 19L46 19L46 18ZM6 19L6 20L7 20L7 19ZM26 20L26 21L27 21L27 20ZM30 20L30 21L28 21L28 23L27 23L27 24L28 24L28 23L29 23L29 22L30 22L30 21L31 21L31 22L33 22L33 20L32 20L32 21L31 21L31 20ZM51 20L51 21L50 21L50 22L52 22L52 21L53 21L53 20ZM17 21L17 22L18 22L18 21ZM34 21L34 22L35 22L35 23L36 23L36 22L35 22L35 21ZM42 21L42 22L43 22L43 21ZM11 23L11 24L12 24L12 23ZM33 23L33 24L32 24L32 25L33 25L33 24L34 24L34 23ZM55 23L55 24L56 24L56 25L57 25L57 23ZM22 24L22 25L23 25L23 24ZM29 24L29 25L27 25L27 27L28 27L28 28L29 28L29 29L27 29L27 28L26 28L26 29L27 29L27 31L26 31L26 30L25 30L25 31L24 31L24 33L25 33L25 31L26 31L26 33L27 33L27 34L30 34L30 31L29 31L29 30L30 30L30 29L31 29L31 30L32 30L32 29L34 29L34 30L36 30L36 29L34 29L34 28L32 28L32 29L31 29L31 28L29 28L29 27L31 27L31 26L30 26L30 25L31 25L31 24ZM40 24L40 25L41 25L41 24ZM54 25L54 26L55 26L55 25ZM64 25L64 26L65 26L65 25ZM5 26L5 27L7 27L7 26ZM24 26L24 28L25 28L25 26ZM54 27L54 28L55 28L55 27ZM57 27L57 28L58 28L58 27ZM2 28L2 29L3 29L3 30L5 30L5 29L4 29L4 28ZM6 29L6 30L7 30L7 29ZM12 29L12 30L13 30L13 29ZM61 29L61 35L62 35L62 36L63 36L63 35L62 35L62 34L63 34L63 33L64 33L64 32L63 32L63 31L62 31L62 29ZM19 30L19 31L20 31L20 30ZM22 30L22 31L23 31L23 30ZM5 31L5 34L8 34L8 31ZM27 31L27 33L29 33L29 31ZM31 31L31 34L34 34L34 31ZM57 31L57 34L60 34L60 31ZM6 32L6 33L7 33L7 32ZM11 32L11 33L12 33L12 32ZM21 32L21 33L20 33L20 35L19 35L19 36L20 36L20 35L21 35L21 34L22 34L22 33L23 33L23 32ZM32 32L32 33L33 33L33 32ZM42 32L42 33L43 33L43 32ZM44 32L44 33L45 33L45 32ZM58 32L58 33L59 33L59 32ZM62 32L62 33L63 33L63 32ZM46 33L46 34L47 34L47 33ZM50 34L50 36L51 36L51 34ZM2 35L2 36L3 36L3 35ZM28 35L28 36L33 36L33 35ZM46 35L46 36L47 36L47 35ZM28 37L28 38L30 38L30 39L31 39L31 37ZM32 37L32 40L33 40L33 41L34 41L34 39L33 39L33 37ZM42 37L42 38L43 38L43 37ZM44 37L44 38L45 38L45 39L43 39L43 40L46 40L46 39L47 39L47 38L45 38L45 37ZM60 37L60 38L61 38L61 40L62 40L62 38L61 38L61 37ZM13 38L13 40L14 40L14 38ZM27 39L27 40L29 40L29 39ZM54 39L54 40L56 40L56 39ZM58 39L58 40L59 40L59 39ZM6 41L6 42L7 42L7 41ZM14 42L14 43L15 43L15 44L14 44L14 45L16 45L16 44L17 44L17 45L19 45L19 44L17 44L17 42L16 42L16 43L15 43L15 42ZM22 42L22 45L23 45L23 42ZM40 42L40 43L41 43L41 42ZM6 43L6 44L7 44L7 43ZM52 44L52 45L53 45L53 44ZM0 46L0 47L1 47L1 46ZM6 46L6 47L7 47L7 46ZM9 46L9 47L8 47L8 48L9 48L9 47L10 47L10 48L13 48L13 47L10 47L10 46ZM46 46L46 47L47 47L47 46ZM48 46L48 47L49 47L49 46ZM57 46L57 48L58 48L58 47L59 47L59 46ZM15 47L15 48L16 48L16 47ZM40 47L40 48L41 48L41 47ZM17 48L17 49L16 49L16 51L17 51L17 49L18 49L18 48ZM25 48L25 49L26 49L26 48ZM28 49L28 50L30 50L30 49ZM53 49L53 50L55 50L55 49ZM1 50L1 51L2 51L2 50ZM3 50L3 51L4 51L4 50ZM58 51L58 52L59 52L59 53L58 53L58 54L59 54L59 53L60 53L60 52L59 52L59 51ZM10 52L10 53L11 53L11 52ZM0 53L0 54L1 54L1 53ZM3 53L3 54L2 54L2 55L3 55L3 56L1 56L1 55L0 55L0 56L1 56L1 57L3 57L3 56L4 56L4 57L5 57L5 56L4 56L4 53ZM31 57L31 60L34 60L34 57ZM41 57L41 58L43 58L43 57ZM57 57L57 60L60 60L60 57ZM32 58L32 59L33 59L33 58ZM58 58L58 59L59 59L59 58ZM11 59L11 61L10 61L10 62L9 62L9 63L10 63L10 62L11 62L11 61L12 61L12 62L13 62L13 61L12 61L12 59ZM13 59L13 60L14 60L14 59ZM62 59L62 60L63 60L63 59ZM60 61L60 62L62 62L62 64L63 64L63 61ZM18 62L18 65L21 65L21 64L19 64L19 63L20 63L20 62ZM32 62L32 63L33 63L33 62ZM14 63L14 64L15 64L15 65L17 65L17 64L16 64L16 63ZM24 63L24 64L25 64L25 65L26 65L26 63ZM46 63L46 64L47 64L47 63ZM30 64L30 65L31 65L31 64ZM34 64L34 65L38 65L38 64ZM0 0L0 7L7 7L7 0ZM1 1L1 6L6 6L6 1ZM2 2L2 5L5 5L5 2ZM58 0L58 7L65 7L65 0ZM59 1L59 6L64 6L64 1ZM60 2L60 5L63 5L63 2ZM0 58L0 65L7 65L7 58ZM1 59L1 64L6 64L6 59ZM2 60L2 63L5 63L5 60Z" fill="#000000"/></g></g></svg>
