<?xml version="1.0" encoding="UTF-8"?>
<svg xmlns="http://www.w3.org/2000/svg" version="1.1" width="300" height="300" viewBox="0 0 300 300"><rect x="0" y="0" width="300" height="300" fill="#ffffff"/><g transform="scale(4.615)"><g transform="translate(0,0)"><path fill-rule="evenodd" d="M13 0L13 1L15 1L15 2L14 2L14 3L15 3L15 2L16 2L16 1L15 1L15 0ZM19 0L19 4L18 4L18 3L17 3L17 4L11 4L11 2L12 2L12 1L8 1L8 2L9 2L9 3L8 3L8 4L9 4L9 5L8 5L8 7L9 7L9 5L10 5L10 7L11 7L11 9L12 9L12 10L13 10L13 12L14 12L14 13L16 13L16 14L17 14L17 16L15 16L15 17L17 17L17 18L14 18L14 19L13 19L13 18L11 18L11 19L13 19L13 20L12 20L12 21L13 21L13 20L14 20L14 21L15 21L15 22L11 22L11 20L10 20L10 18L9 18L9 17L10 17L10 16L9 16L9 15L11 15L11 17L12 17L12 15L11 15L11 14L13 14L13 13L12 13L12 11L11 11L11 10L10 10L10 11L8 11L8 10L6 10L6 11L7 11L7 12L5 12L5 10L4 10L4 9L5 9L5 8L0 8L0 10L1 10L1 11L2 11L2 12L3 12L3 11L4 11L4 13L2 13L2 14L4 14L4 16L3 16L3 17L4 17L4 18L6 18L6 19L7 19L7 20L6 20L6 21L8 21L8 23L9 23L9 27L11 27L11 28L9 28L9 29L11 29L11 30L10 30L10 32L11 32L11 30L12 30L12 29L11 29L11 28L12 28L12 27L11 27L11 26L10 26L10 25L17 25L17 26L16 26L16 27L15 27L15 29L16 29L16 30L14 30L14 28L13 28L13 31L12 31L12 32L13 32L13 35L9 35L9 34L10 34L10 33L9 33L9 30L8 30L8 25L7 25L7 24L6 24L6 23L7 23L7 22L5 22L5 21L4 21L4 19L3 19L3 18L2 18L2 16L0 16L0 18L1 18L1 20L0 20L0 22L1 22L1 23L0 23L0 24L1 24L1 23L2 23L2 25L1 25L1 27L0 27L0 29L1 29L1 27L2 27L2 26L4 26L4 28L3 28L3 31L2 31L2 30L0 30L0 34L1 34L1 35L0 35L0 36L1 36L1 37L0 37L0 38L1 38L1 41L0 41L0 45L1 45L1 44L2 44L2 43L1 43L1 41L2 41L2 40L3 40L3 41L4 41L4 38L6 38L6 39L5 39L5 41L7 41L7 40L6 40L6 39L8 39L8 43L7 43L7 42L4 42L4 43L3 43L3 44L5 44L5 45L4 45L4 46L3 46L3 45L2 45L2 46L0 46L0 48L2 48L2 49L0 49L0 50L1 50L1 51L2 51L2 53L1 53L1 52L0 52L0 54L2 54L2 55L3 55L3 56L1 56L1 55L0 55L0 56L1 56L1 57L3 57L3 56L4 56L4 57L5 57L5 56L4 56L4 54L5 54L5 55L7 55L7 56L6 56L6 57L7 57L7 56L8 56L8 59L10 59L10 61L9 61L9 60L8 60L8 65L9 65L9 63L10 63L10 65L12 65L12 64L13 64L13 65L14 65L14 63L16 63L16 65L17 65L17 62L18 62L18 63L19 63L19 64L18 64L18 65L22 65L22 64L21 64L21 63L22 63L22 62L24 62L24 61L25 61L25 59L26 59L26 58L27 58L27 59L28 59L28 60L29 60L29 61L32 61L32 62L33 62L33 63L31 63L31 62L30 62L30 63L31 63L31 64L29 64L29 63L28 63L28 64L27 64L27 63L25 63L25 65L26 65L26 64L27 64L27 65L31 65L31 64L32 64L32 65L33 65L33 64L34 64L34 65L35 65L35 64L34 64L34 63L36 63L36 61L37 61L37 60L39 60L39 58L38 58L38 57L39 57L39 56L42 56L42 57L40 57L40 60L42 60L42 61L39 61L39 62L38 62L38 63L40 63L40 64L41 64L41 65L44 65L44 64L45 64L45 65L47 65L47 64L48 64L48 65L49 65L49 64L48 64L48 63L49 63L49 62L50 62L50 63L51 63L51 62L52 62L52 60L53 60L53 62L55 62L55 63L54 63L54 64L53 64L53 63L52 63L52 64L50 64L50 65L52 65L52 64L53 64L53 65L56 65L56 62L57 62L57 61L58 61L58 62L59 62L59 64L58 64L58 63L57 63L57 65L63 65L63 64L64 64L64 60L62 60L62 57L63 57L63 58L65 58L65 57L64 57L64 56L65 56L65 55L63 55L63 54L65 54L65 51L64 51L64 53L63 53L63 52L62 52L62 51L63 51L63 50L65 50L65 49L64 49L64 48L62 48L62 49L63 49L63 50L61 50L61 49L58 49L58 48L60 48L60 47L61 47L61 46L62 46L62 45L63 45L63 44L64 44L64 45L65 45L65 44L64 44L64 42L65 42L65 41L63 41L63 40L64 40L64 38L65 38L65 35L63 35L63 34L65 34L65 33L63 33L63 32L62 32L62 31L63 31L63 30L61 30L61 29L64 29L64 28L65 28L65 27L64 27L64 26L65 26L65 25L64 25L64 24L65 24L65 23L64 23L64 22L65 22L65 19L63 19L63 18L65 18L65 15L64 15L64 16L62 16L62 13L64 13L64 14L65 14L65 11L64 11L64 10L65 10L65 9L64 9L64 8L63 8L63 9L62 9L62 8L61 8L61 9L62 9L62 11L63 11L63 12L62 12L62 13L61 13L61 12L60 12L60 11L59 11L59 10L60 10L60 8L59 8L59 10L58 10L58 8L56 8L56 9L54 9L54 8L55 8L55 5L54 5L54 4L56 4L56 5L57 5L57 4L56 4L56 3L57 3L57 1L56 1L56 0L55 0L55 1L56 1L56 3L55 3L55 2L54 2L54 3L53 3L53 2L52 2L52 3L50 3L50 2L51 2L51 1L50 1L50 0L47 0L47 1L43 1L43 0L41 0L41 1L40 1L40 0L39 0L39 1L38 1L38 2L37 2L37 3L36 3L36 5L35 5L35 3L34 3L34 2L36 2L36 0L35 0L35 1L34 1L34 2L32 2L32 0L29 0L29 2L28 2L28 4L29 4L29 2L30 2L30 3L31 3L31 4L30 4L30 5L25 5L25 4L27 4L27 1L28 1L28 0L26 0L26 1L25 1L25 0L21 0L21 1L20 1L20 0ZM52 0L52 1L54 1L54 0ZM17 1L17 2L18 2L18 1ZM21 1L21 2L20 2L20 3L21 3L21 4L19 4L19 5L18 5L18 4L17 4L17 5L11 5L11 7L12 7L12 9L13 9L13 10L14 10L14 12L15 12L15 11L16 11L16 13L18 13L18 16L21 16L21 15L22 15L22 17L25 17L25 16L26 16L26 17L27 17L27 18L25 18L25 19L23 19L23 18L22 18L22 19L20 19L20 18L21 18L21 17L20 17L20 18L19 18L19 17L18 17L18 18L17 18L17 19L18 19L18 18L19 18L19 23L18 23L18 22L17 22L17 21L18 21L18 20L16 20L16 19L15 19L15 21L16 21L16 22L15 22L15 23L16 23L16 24L19 24L19 25L18 25L18 26L20 26L20 27L21 27L21 28L19 28L19 27L18 27L18 28L17 28L17 27L16 27L16 29L17 29L17 32L19 32L19 33L15 33L15 32L16 32L16 31L14 31L14 35L13 35L13 36L14 36L14 37L15 37L15 38L14 38L14 39L13 39L13 42L14 42L14 43L13 43L13 44L12 44L12 41L9 41L9 43L8 43L8 44L7 44L7 43L5 43L5 44L7 44L7 45L5 45L5 47L2 47L2 48L3 48L3 49L2 49L2 51L3 51L3 52L4 52L4 53L3 53L3 54L4 54L4 53L5 53L5 52L7 52L7 53L6 53L6 54L7 54L7 55L8 55L8 56L9 56L9 54L10 54L10 53L11 53L11 56L10 56L10 59L12 59L12 60L11 60L11 62L10 62L10 63L14 63L14 62L16 62L16 61L17 61L17 60L19 60L19 61L18 61L18 62L19 62L19 63L20 63L20 62L19 62L19 61L24 61L24 59L25 59L25 58L22 58L22 59L23 59L23 60L21 60L21 57L25 57L25 56L24 56L24 55L25 55L25 54L23 54L23 50L22 50L22 49L23 49L23 48L24 48L24 49L25 49L25 48L26 48L26 49L27 49L27 50L25 50L25 51L26 51L26 52L24 52L24 53L26 53L26 54L27 54L27 51L28 51L28 52L29 52L29 53L28 53L28 55L27 55L27 56L26 56L26 57L27 57L27 56L29 56L29 57L28 57L28 59L29 59L29 60L30 60L30 58L29 58L29 57L30 57L30 55L31 55L31 56L32 56L32 54L33 54L33 56L34 56L34 55L35 55L35 56L37 56L37 57L36 57L36 58L35 58L35 60L37 60L37 59L36 59L36 58L37 58L37 57L38 57L38 56L39 56L39 55L38 55L38 54L40 54L40 53L41 53L41 55L42 55L42 56L43 56L43 55L45 55L45 56L44 56L44 57L45 57L45 58L47 58L47 61L45 61L45 60L46 60L46 59L45 59L45 60L44 60L44 59L43 59L43 58L41 58L41 59L42 59L42 60L44 60L44 61L43 61L43 62L42 62L42 63L43 63L43 64L44 64L44 63L45 63L45 64L46 64L46 62L47 62L47 61L48 61L48 60L49 60L49 59L50 59L50 60L51 60L51 59L52 59L52 58L53 58L53 57L55 57L55 58L54 58L54 59L53 59L53 60L56 60L56 59L55 59L55 58L56 58L56 56L57 56L57 55L56 55L56 54L57 54L57 52L58 52L58 51L59 51L59 53L61 53L61 54L60 54L60 55L62 55L62 56L63 56L63 55L62 55L62 54L63 54L63 53L62 53L62 52L60 52L60 51L61 51L61 50L60 50L60 51L59 51L59 50L58 50L58 51L57 51L57 52L54 52L54 51L55 51L55 50L56 50L56 49L57 49L57 48L55 48L55 47L56 47L56 46L57 46L57 47L59 47L59 46L60 46L60 45L62 45L62 44L63 44L63 43L62 43L62 42L63 42L63 41L62 41L62 40L63 40L63 38L60 38L60 40L58 40L58 39L59 39L59 38L58 38L58 39L57 39L57 38L54 38L54 40L52 40L52 38L53 38L53 36L52 36L52 38L51 38L51 35L52 35L52 34L54 34L54 37L56 37L56 36L55 36L55 35L56 35L56 34L54 34L54 33L56 33L56 32L54 32L54 31L55 31L55 30L57 30L57 29L56 29L56 27L57 27L57 28L58 28L58 30L59 30L59 28L58 28L58 26L60 26L60 28L61 28L61 27L62 27L62 28L63 28L63 27L62 27L62 26L64 26L64 25L62 25L62 24L63 24L63 22L64 22L64 20L63 20L63 19L60 19L60 18L62 18L62 16L61 16L61 15L60 15L60 14L61 14L61 13L60 13L60 14L59 14L59 11L58 11L58 12L57 12L57 9L56 9L56 11L55 11L55 10L52 10L52 11L53 11L53 12L50 12L50 10L51 10L51 9L53 9L53 8L52 8L52 6L51 6L51 7L50 7L50 6L49 6L49 7L48 7L48 5L49 5L49 4L48 4L48 3L49 3L49 2L50 2L50 1L49 1L49 2L48 2L48 3L47 3L47 4L46 4L46 3L44 3L44 2L43 2L43 1L42 1L42 2L41 2L41 3L40 3L40 1L39 1L39 2L38 2L38 3L37 3L37 5L36 5L36 6L35 6L35 8L37 8L37 7L38 7L38 5L39 5L39 8L38 8L38 9L37 9L37 10L35 10L35 9L33 9L33 10L32 10L32 11L34 11L34 12L30 12L30 11L31 11L31 9L28 9L28 10L26 10L26 9L27 9L27 7L28 7L28 8L29 8L29 7L30 7L30 6L29 6L29 7L28 7L28 6L27 6L27 7L26 7L26 6L25 6L25 5L24 5L24 4L25 4L25 3L26 3L26 2L25 2L25 3L24 3L24 2L23 2L23 4L22 4L22 3L21 3L21 2L22 2L22 1ZM30 1L30 2L31 2L31 1ZM42 2L42 3L43 3L43 4L42 4L42 5L41 5L41 6L40 6L40 8L41 8L41 6L42 6L42 7L43 7L43 8L45 8L45 6L46 6L46 7L47 7L47 8L48 8L48 9L49 9L49 10L50 10L50 9L51 9L51 8L48 8L48 7L47 7L47 5L46 5L46 4L45 4L45 5L43 5L43 4L44 4L44 3L43 3L43 2ZM9 3L9 4L10 4L10 3ZM32 3L32 4L33 4L33 3ZM52 3L52 4L53 4L53 3ZM21 4L21 5L20 5L20 7L21 7L21 8L18 8L18 7L19 7L19 6L18 6L18 7L17 7L17 6L16 6L16 7L17 7L17 8L18 8L18 9L19 9L19 10L20 10L20 9L21 9L21 8L23 8L23 6L24 6L24 7L25 7L25 6L24 6L24 5L23 5L23 6L22 6L22 4ZM50 4L50 5L51 5L51 4ZM31 5L31 8L34 8L34 5ZM42 5L42 6L43 6L43 7L44 7L44 6L43 6L43 5ZM12 6L12 7L13 7L13 6ZM14 6L14 7L15 7L15 6ZM21 6L21 7L22 7L22 6ZM32 6L32 7L33 7L33 6ZM36 6L36 7L37 7L37 6ZM53 6L53 7L54 7L54 6ZM56 6L56 7L57 7L57 6ZM6 8L6 9L10 9L10 8ZM13 8L13 9L14 9L14 10L15 10L15 9L14 9L14 8ZM1 9L1 10L2 10L2 11L3 11L3 9ZM16 9L16 11L17 11L17 9ZM22 9L22 10L21 10L21 11L19 11L19 12L18 12L18 13L20 13L20 12L23 12L23 13L22 13L22 15L24 15L24 16L25 16L25 15L27 15L27 16L28 16L28 17L29 17L29 16L31 16L31 13L29 13L29 16L28 16L28 15L27 15L27 14L28 14L28 13L26 13L26 10L25 10L25 9L24 9L24 10L25 10L25 12L23 12L23 11L22 11L22 10L23 10L23 9ZM39 9L39 10L38 10L38 11L39 11L39 12L38 12L38 13L37 13L37 12L36 12L36 13L35 13L35 14L33 14L33 13L32 13L32 14L33 14L33 15L32 15L32 16L33 16L33 17L35 17L35 18L34 18L34 19L33 19L33 18L31 18L31 17L30 17L30 18L31 18L31 19L29 19L29 18L27 18L27 23L26 23L26 24L25 24L25 25L24 25L24 23L25 23L25 22L26 22L26 21L24 21L24 20L23 20L23 22L24 22L24 23L22 23L22 22L21 22L21 23L19 23L19 24L20 24L20 25L21 25L21 27L22 27L22 28L23 28L23 27L22 27L22 26L23 26L23 25L24 25L24 26L25 26L25 27L24 27L24 29L19 29L19 28L18 28L18 29L19 29L19 30L18 30L18 31L19 31L19 32L20 32L20 33L22 33L22 35L19 35L19 36L20 36L20 37L18 37L18 36L16 36L16 35L18 35L18 34L15 34L15 35L14 35L14 36L16 36L16 37L18 37L18 39L17 39L17 38L16 38L16 40L14 40L14 42L15 42L15 41L19 41L19 42L20 42L20 43L21 43L21 42L23 42L23 41L21 41L21 40L18 40L18 39L20 39L20 37L21 37L21 39L22 39L22 37L23 37L23 34L25 34L25 35L24 35L24 36L25 36L25 37L24 37L24 38L23 38L23 40L24 40L24 39L25 39L25 41L24 41L24 43L23 43L23 45L22 45L22 46L21 46L21 48L20 48L20 49L22 49L22 48L23 48L23 47L24 47L24 48L25 48L25 46L28 46L28 43L30 43L30 42L28 42L28 41L30 41L30 40L31 40L31 42L32 42L32 43L33 43L33 44L32 44L32 45L33 45L33 46L32 46L32 49L31 49L31 48L29 48L29 47L30 47L30 46L31 46L31 45L30 45L30 46L29 46L29 47L28 47L28 49L30 49L30 50L29 50L29 51L30 51L30 50L32 50L32 51L34 51L34 54L35 54L35 52L36 52L36 53L37 53L37 54L36 54L36 55L37 55L37 54L38 54L38 53L40 53L40 52L42 52L42 54L45 54L45 53L44 53L44 52L45 52L45 51L47 51L47 54L46 54L46 55L48 55L48 53L49 53L49 54L50 54L50 56L46 56L46 57L47 57L47 58L48 58L48 59L49 59L49 58L50 58L50 59L51 59L51 58L50 58L50 56L51 56L51 57L52 57L52 56L53 56L53 55L52 55L52 54L50 54L50 53L49 53L49 52L48 52L48 51L47 51L47 50L45 50L45 51L44 51L44 50L43 50L43 49L42 49L42 48L43 48L43 47L42 47L42 48L41 48L41 47L39 47L39 46L38 46L38 44L35 44L35 43L37 43L37 41L39 41L39 40L41 40L41 41L40 41L40 42L38 42L38 43L39 43L39 44L41 44L41 45L40 45L40 46L41 46L41 45L42 45L42 46L44 46L44 48L45 48L45 47L47 47L47 46L44 46L44 44L47 44L47 45L49 45L49 46L48 46L48 47L49 47L49 48L48 48L48 49L49 49L49 48L50 48L50 47L51 47L51 49L52 49L52 48L53 48L53 47L52 47L52 46L56 46L56 45L52 45L52 44L53 44L53 42L52 42L52 41L51 41L51 40L50 40L50 41L49 41L49 40L48 40L48 42L46 42L46 43L44 43L44 44L42 44L42 43L40 43L40 42L43 42L43 41L44 41L44 42L45 42L45 41L47 41L47 40L46 40L46 39L47 39L47 38L45 38L45 39L44 39L44 38L43 38L43 37L44 37L44 36L46 36L46 37L49 37L49 38L48 38L48 39L51 39L51 38L50 38L50 36L46 36L46 35L47 35L47 34L45 34L45 33L44 33L44 32L46 32L46 33L49 33L49 34L48 34L48 35L49 35L49 34L50 34L50 35L51 35L51 34L52 34L52 32L53 32L53 31L54 31L54 30L55 30L55 27L56 27L56 25L60 25L60 26L61 26L61 24L60 24L60 23L59 23L59 22L62 22L62 21L63 21L63 20L62 20L62 21L61 21L61 20L59 20L59 22L58 22L58 20L56 20L56 21L57 21L57 23L55 23L55 24L56 24L56 25L54 25L54 23L52 23L52 22L55 22L55 21L54 21L54 20L55 20L55 19L56 19L56 17L57 17L57 19L59 19L59 18L58 18L58 16L56 16L56 17L55 17L55 16L54 16L54 15L52 15L52 14L56 14L56 15L59 15L59 14L56 14L56 13L57 13L57 12L55 12L55 11L54 11L54 12L53 12L53 13L51 13L51 14L50 14L50 15L49 15L49 16L47 16L47 18L44 18L44 17L42 17L42 16L41 16L41 15L40 15L40 14L41 14L41 13L39 13L39 12L42 12L42 14L43 14L43 15L44 15L44 16L45 16L45 15L48 15L48 14L49 14L49 12L48 12L48 11L47 11L47 10L46 10L46 9L44 9L44 10L45 10L45 11L44 11L44 12L45 12L45 14L43 14L43 12L42 12L42 11L40 11L40 10L41 10L41 9ZM42 9L42 10L43 10L43 9ZM63 9L63 10L64 10L64 9ZM28 10L28 11L27 11L27 12L28 12L28 11L29 11L29 10ZM34 10L34 11L35 11L35 10ZM10 11L10 12L11 12L11 11ZM0 12L0 13L1 13L1 12ZM54 12L54 13L55 13L55 12ZM4 13L4 14L8 14L8 15L9 15L9 13ZM10 13L10 14L11 14L11 13ZM23 13L23 14L24 14L24 13ZM25 13L25 14L26 14L26 13ZM38 13L38 14L35 14L35 15L34 15L34 16L37 16L37 17L36 17L36 18L40 18L40 19L41 19L41 20L39 20L39 19L34 19L34 20L35 20L35 21L33 21L33 20L32 20L32 19L31 19L31 20L29 20L29 19L28 19L28 20L29 20L29 21L28 21L28 22L29 22L29 21L31 21L31 20L32 20L32 21L33 21L33 22L30 22L30 23L31 23L31 24L29 24L29 25L28 25L28 24L26 24L26 25L28 25L28 26L29 26L29 27L31 27L31 28L30 28L30 30L33 30L33 28L34 28L34 30L35 30L35 31L36 31L36 32L37 32L37 33L35 33L35 35L36 35L36 36L33 36L33 35L32 35L32 36L31 36L31 37L30 37L30 36L29 36L29 37L28 37L28 36L27 36L27 37L25 37L25 38L26 38L26 39L27 39L27 37L28 37L28 38L30 38L30 39L32 39L32 40L33 40L33 41L32 41L32 42L33 42L33 41L34 41L34 43L35 43L35 40L33 40L33 39L36 39L36 40L38 40L38 38L39 38L39 37L41 37L41 38L40 38L40 39L41 39L41 40L42 40L42 41L43 41L43 40L44 40L44 41L45 41L45 40L44 40L44 39L43 39L43 38L42 38L42 37L43 37L43 36L44 36L44 35L45 35L45 34L44 34L44 33L43 33L43 32L42 32L42 31L45 31L45 30L47 30L47 29L48 29L48 28L49 28L49 30L48 30L48 32L49 32L49 33L50 33L50 34L51 34L51 33L50 33L50 32L51 32L51 31L50 31L50 30L51 30L51 28L49 28L49 27L48 27L48 26L49 26L49 25L48 25L48 24L49 24L49 23L50 23L50 26L52 26L52 25L53 25L53 24L52 24L52 25L51 25L51 23L50 23L50 22L51 22L51 21L50 21L50 20L52 20L52 21L53 21L53 20L52 20L52 19L55 19L55 18L54 18L54 16L52 16L52 15L51 15L51 17L50 17L50 18L51 18L51 17L53 17L53 18L52 18L52 19L46 19L46 20L47 20L47 21L45 21L45 20L44 20L44 19L43 19L43 18L42 18L42 17L41 17L41 16L39 16L39 15L38 15L38 14L39 14L39 13ZM46 13L46 14L48 14L48 13ZM0 14L0 15L1 15L1 14ZM19 14L19 15L20 15L20 14ZM5 15L5 16L7 16L7 15ZM13 15L13 16L14 16L14 15ZM8 16L8 17L9 17L9 16ZM38 16L38 17L39 17L39 16ZM59 16L59 17L61 17L61 16ZM6 17L6 18L7 18L7 19L8 19L8 18L7 18L7 17ZM48 17L48 18L49 18L49 17ZM25 19L25 20L26 20L26 19ZM1 20L1 22L2 22L2 23L4 23L4 24L5 24L5 25L4 25L4 26L5 26L5 27L6 27L6 28L7 28L7 27L6 27L6 26L7 26L7 25L6 25L6 24L5 24L5 22L4 22L4 21L2 21L2 20ZM9 20L9 22L10 22L10 20ZM20 20L20 21L22 21L22 20ZM36 20L36 21L35 21L35 22L33 22L33 23L32 23L32 24L31 24L31 25L30 25L30 26L31 26L31 25L32 25L32 26L33 26L33 27L32 27L32 28L33 28L33 27L34 27L34 28L35 28L35 30L36 30L36 31L37 31L37 30L38 30L38 33L39 33L39 32L41 32L41 31L42 31L42 30L44 30L44 28L45 28L45 29L47 29L47 28L46 28L46 27L47 27L47 26L46 26L46 24L48 24L48 23L49 23L49 22L50 22L50 21L49 21L49 20L48 20L48 22L46 22L46 24L45 24L45 23L44 23L44 24L45 24L45 27L44 27L44 26L43 26L43 25L40 25L40 24L41 24L41 23L42 23L42 24L43 24L43 23L42 23L42 22L44 22L44 20L43 20L43 21L42 21L42 22L41 22L41 21L40 21L40 22L37 22L37 20ZM38 20L38 21L39 21L39 20ZM35 22L35 24L34 24L34 23L33 23L33 24L32 24L32 25L34 25L34 26L35 26L35 27L36 27L36 28L38 28L38 30L39 30L39 31L40 31L40 29L43 29L43 28L44 28L44 27L43 27L43 26L41 26L41 28L40 28L40 27L39 27L39 28L38 28L38 27L36 27L36 26L37 26L37 25L38 25L38 26L40 26L40 25L39 25L39 24L37 24L37 22ZM40 22L40 23L41 23L41 22ZM10 23L10 24L11 24L11 23ZM21 23L21 25L23 25L23 24L22 24L22 23ZM58 23L58 24L59 24L59 23ZM35 24L35 25L37 25L37 24ZM13 26L13 27L14 27L14 26ZM53 26L53 27L55 27L55 26ZM25 27L25 28L26 28L26 29L24 29L24 30L22 30L22 31L24 31L24 32L22 32L22 33L25 33L25 34L26 34L26 33L27 33L27 32L28 32L28 31L27 31L27 32L25 32L25 31L26 31L26 29L27 29L27 30L28 30L28 29L29 29L29 28L28 28L28 29L27 29L27 28L26 28L26 27ZM42 27L42 28L43 28L43 27ZM4 28L4 30L7 30L7 29L5 29L5 28ZM52 28L52 29L53 29L53 28ZM19 30L19 31L20 31L20 30ZM3 31L3 32L1 32L1 33L3 33L3 35L1 35L1 36L3 36L3 37L4 37L4 36L5 36L5 35L4 35L4 33L3 33L3 32L4 32L4 31ZM5 31L5 34L8 34L8 31ZM29 31L29 33L28 33L28 34L27 34L27 35L29 35L29 34L30 34L30 31ZM31 31L31 34L34 34L34 31ZM57 31L57 34L60 34L60 31ZM6 32L6 33L7 33L7 32ZM32 32L32 33L33 33L33 32ZM58 32L58 33L59 33L59 32ZM41 33L41 34L36 34L36 35L38 35L38 37L39 37L39 35L40 35L40 36L41 36L41 35L42 35L42 36L43 36L43 35L42 35L42 34L43 34L43 33ZM61 33L61 35L59 35L59 36L58 36L58 37L59 37L59 36L60 36L60 37L61 37L61 35L62 35L62 36L63 36L63 37L64 37L64 36L63 36L63 35L62 35L62 34L63 34L63 33ZM3 35L3 36L4 36L4 35ZM6 35L6 36L7 36L7 37L6 37L6 38L8 38L8 39L9 39L9 40L11 40L11 39L12 39L12 37L11 37L11 36L10 36L10 39L9 39L9 38L8 38L8 36L9 36L9 35ZM25 35L25 36L26 36L26 35ZM21 36L21 37L22 37L22 36ZM32 36L32 37L33 37L33 36ZM36 36L36 37L37 37L37 36ZM34 37L34 38L35 38L35 37ZM32 38L32 39L33 39L33 38ZM28 39L28 40L26 40L26 41L25 41L25 43L26 43L26 45L27 45L27 43L26 43L26 41L28 41L28 40L29 40L29 39ZM42 39L42 40L43 40L43 39ZM55 39L55 40L56 40L56 41L57 41L57 42L61 42L61 41L58 41L58 40L56 40L56 39ZM20 41L20 42L21 42L21 41ZM50 41L50 42L48 42L48 44L49 44L49 45L50 45L50 46L51 46L51 45L50 45L50 44L52 44L52 42L51 42L51 41ZM54 41L54 42L55 42L55 41ZM10 42L10 44L9 44L9 45L8 45L8 46L6 46L6 47L5 47L5 50L4 50L4 49L3 49L3 51L4 51L4 52L5 52L5 50L6 50L6 51L7 51L7 52L8 52L8 53L9 53L9 52L8 52L8 49L9 49L9 51L10 51L10 52L11 52L11 53L12 53L12 56L11 56L11 57L12 57L12 56L14 56L14 55L15 55L15 53L17 53L17 54L16 54L16 55L17 55L17 56L15 56L15 57L17 57L17 58L14 58L14 59L13 59L13 58L12 58L12 59L13 59L13 60L12 60L12 62L14 62L14 61L16 61L16 59L17 59L17 58L18 58L18 59L19 59L19 60L20 60L20 58L18 58L18 57L19 57L19 55L20 55L20 57L21 57L21 56L23 56L23 55L20 55L20 53L22 53L22 52L20 52L20 53L19 53L19 50L18 50L18 51L17 51L17 50L16 50L16 49L17 49L17 48L16 48L16 47L15 47L15 49L14 49L14 44L17 44L17 43L18 43L18 45L20 45L20 44L19 44L19 43L18 43L18 42L17 42L17 43L14 43L14 44L13 44L13 47L9 47L9 48L6 48L6 47L8 47L8 46L9 46L9 45L11 45L11 46L12 46L12 44L11 44L11 42ZM50 42L50 43L51 43L51 42ZM54 43L54 44L57 44L57 45L58 45L58 46L59 46L59 45L58 45L58 44L59 44L59 43L58 43L58 44L57 44L57 43ZM60 43L60 44L62 44L62 43ZM33 44L33 45L34 45L34 46L33 46L33 48L34 48L34 49L35 49L35 50L34 50L34 51L35 51L35 50L36 50L36 52L37 52L37 53L38 53L38 52L39 52L39 51L37 51L37 50L39 50L39 49L41 49L41 48L39 48L39 47L38 47L38 46L37 46L37 45L36 45L36 46L35 46L35 45L34 45L34 44ZM15 45L15 46L16 46L16 45ZM23 45L23 46L24 46L24 45ZM17 46L17 47L18 47L18 49L19 49L19 47L20 47L20 46ZM26 47L26 48L27 48L27 47ZM34 47L34 48L35 48L35 47ZM12 48L12 50L11 50L11 49L10 49L10 51L12 51L12 52L13 52L13 53L15 53L15 51L14 51L14 49L13 49L13 48ZM36 48L36 50L37 50L37 49L38 49L38 48ZM6 49L6 50L7 50L7 49ZM32 49L32 50L33 50L33 49ZM54 49L54 50L53 50L53 51L52 51L52 50L50 50L50 51L51 51L51 52L53 52L53 51L54 51L54 50L55 50L55 49ZM21 50L21 51L22 51L22 50ZM40 50L40 51L42 51L42 52L43 52L43 50ZM13 51L13 52L14 52L14 51ZM17 52L17 53L18 53L18 52ZM30 52L30 53L33 53L33 52ZM53 53L53 54L56 54L56 53ZM13 54L13 55L14 55L14 54ZM29 54L29 55L30 55L30 54ZM58 54L58 55L59 55L59 54ZM54 55L54 56L56 56L56 55ZM31 57L31 60L34 60L34 57ZM57 57L57 60L60 60L60 57ZM32 58L32 59L33 59L33 58ZM58 58L58 59L59 59L59 58ZM14 59L14 60L13 60L13 61L14 61L14 60L15 60L15 59ZM26 61L26 62L27 62L27 61ZM34 61L34 62L35 62L35 61ZM44 61L44 62L45 62L45 61ZM50 61L50 62L51 62L51 61ZM60 61L60 62L61 62L61 63L62 63L62 64L63 64L63 63L62 63L62 62L63 62L63 61ZM40 62L40 63L41 63L41 62ZM23 63L23 64L24 64L24 63ZM36 64L36 65L37 65L37 64ZM38 64L38 65L39 65L39 64ZM0 0L0 7L7 7L7 0ZM1 1L1 6L6 6L6 1ZM2 2L2 5L5 5L5 2ZM58 0L58 7L65 7L65 0ZM59 1L59 6L64 6L64 1ZM60 2L60 5L63 5L63 2ZM0 58L0 65L7 65L7 58ZM1 59L1 64L6 64L6 59ZM2 60L2 63L5 63L5 60Z" fill="#000000"/></g></g></svg>
