<?xml version="1.0" encoding="UTF-8"?>
<svg xmlns="http://www.w3.org/2000/svg" version="1.1" width="300" height="300" viewBox="0 0 300 300"><rect x="0" y="0" width="300" height="300" fill="#ffffff"/><g transform="scale(4.615)"><g transform="translate(0,0)"><path fill-rule="evenodd" d="M10 0L10 1L12 1L12 2L9 2L9 1L8 1L8 2L9 2L9 3L8 3L8 4L9 4L9 3L12 3L12 2L14 2L14 3L13 3L13 5L15 5L15 4L14 4L14 3L16 3L16 4L17 4L17 5L16 5L16 7L15 7L15 6L14 6L14 7L15 7L15 8L14 8L14 9L11 9L11 6L12 6L12 7L13 7L13 6L12 6L12 4L10 4L10 5L8 5L8 7L9 7L9 8L6 8L6 9L7 9L7 10L5 10L5 8L0 8L0 9L1 9L1 10L0 10L0 11L1 11L1 10L5 10L5 11L7 11L7 12L6 12L6 13L5 13L5 12L4 12L4 11L2 11L2 12L4 12L4 13L5 13L5 14L4 14L4 15L2 15L2 14L0 14L0 16L1 16L1 15L2 15L2 19L1 19L1 20L2 20L2 22L1 22L1 21L0 21L0 24L1 24L1 25L0 25L0 27L1 27L1 28L0 28L0 29L1 29L1 31L2 31L2 32L4 32L4 34L2 34L2 35L1 35L1 34L0 34L0 36L4 36L4 38L3 38L3 37L2 37L2 38L1 38L1 39L0 39L0 41L1 41L1 42L2 42L2 41L3 41L3 40L4 40L4 42L3 42L3 43L4 43L4 42L5 42L5 43L7 43L7 44L5 44L5 45L4 45L4 44L3 44L3 47L2 47L2 45L0 45L0 48L1 48L1 49L2 49L2 48L3 48L3 50L4 50L4 51L3 51L3 52L2 52L2 50L0 50L0 52L2 52L2 53L3 53L3 54L2 54L2 55L3 55L3 56L1 56L1 55L0 55L0 56L1 56L1 57L3 57L3 56L4 56L4 57L5 57L5 56L4 56L4 53L5 53L5 52L6 52L6 53L7 53L7 52L6 52L6 51L7 51L7 50L9 50L9 51L8 51L8 54L9 54L9 52L13 52L13 54L12 54L12 55L11 55L11 54L10 54L10 55L7 55L7 54L5 54L5 55L7 55L7 56L6 56L6 57L8 57L8 59L9 59L9 58L10 58L10 59L11 59L11 60L8 60L8 65L9 65L9 61L13 61L13 60L14 60L14 61L15 61L15 62L16 62L16 61L15 61L15 60L14 60L14 59L16 59L16 60L17 60L17 61L20 61L20 57L21 57L21 60L24 60L24 62L23 62L23 61L22 61L22 62L21 62L21 64L20 64L20 65L21 65L21 64L24 64L24 63L26 63L26 62L27 62L27 63L28 63L28 64L27 64L27 65L29 65L29 62L27 62L27 61L29 61L29 59L27 59L27 57L29 57L29 58L30 58L30 61L32 61L32 62L33 62L33 61L34 61L34 63L35 63L35 64L34 64L34 65L35 65L35 64L36 64L36 65L37 65L37 64L36 64L36 63L37 63L37 62L38 62L38 63L39 63L39 64L38 64L38 65L40 65L40 64L41 64L41 65L42 65L42 64L41 64L41 63L40 63L40 62L41 62L41 61L39 61L39 60L38 60L38 61L37 61L37 60L35 60L35 57L38 57L38 56L39 56L39 58L38 58L38 59L39 59L39 58L40 58L40 56L41 56L41 55L40 55L40 54L41 54L41 53L39 53L39 52L38 52L38 53L37 53L37 52L35 52L35 51L34 51L34 53L33 53L33 52L32 52L32 53L31 53L31 51L30 51L30 50L27 50L27 49L29 49L29 48L30 48L30 49L31 49L31 50L32 50L32 51L33 51L33 50L32 50L32 49L33 49L33 48L30 48L30 47L31 47L31 46L32 46L32 47L33 47L33 46L35 46L35 47L34 47L34 48L36 48L36 49L37 49L37 48L39 48L39 46L38 46L38 43L39 43L39 44L41 44L41 45L40 45L40 46L41 46L41 47L40 47L40 48L42 48L42 49L39 49L39 50L38 50L38 51L40 51L40 52L42 52L42 54L43 54L43 52L45 52L45 50L44 50L44 48L45 48L45 49L47 49L47 50L46 50L46 51L47 51L47 52L48 52L48 53L49 53L49 54L50 54L50 55L49 55L49 56L48 56L48 57L47 57L47 58L46 58L46 56L47 56L47 54L46 54L46 56L45 56L45 55L42 55L42 56L45 56L45 57L44 57L44 58L45 58L45 59L44 59L44 60L43 60L43 59L42 59L42 62L43 62L43 61L44 61L44 62L45 62L45 63L44 63L44 64L43 64L43 65L44 65L44 64L46 64L46 65L49 65L49 64L48 64L48 63L47 63L47 62L46 62L46 60L45 60L45 59L47 59L47 58L48 58L48 57L49 57L49 59L51 59L51 60L50 60L50 61L51 61L51 62L49 62L49 60L48 60L48 62L49 62L49 63L51 63L51 64L50 64L50 65L51 65L51 64L53 64L53 65L63 65L63 64L64 64L64 60L65 60L65 59L63 59L63 57L64 57L64 58L65 58L65 57L64 57L64 56L65 56L65 55L64 55L64 54L65 54L65 53L64 53L64 52L65 52L65 51L63 51L63 50L65 50L65 49L64 49L64 48L62 48L62 47L61 47L61 45L60 45L60 44L62 44L62 45L64 45L64 44L65 44L65 43L64 43L64 44L62 44L62 43L63 43L63 42L65 42L65 39L64 39L64 38L65 38L65 37L64 37L64 38L63 38L63 40L62 40L62 38L61 38L61 37L63 37L63 36L64 36L64 34L65 34L65 32L64 32L64 31L63 31L63 30L62 30L62 31L61 31L61 29L63 29L63 28L62 28L62 27L63 27L63 26L62 26L62 27L61 27L61 26L60 26L60 27L61 27L61 28L60 28L60 30L58 30L58 28L59 28L59 26L58 26L58 24L59 24L59 25L61 25L61 24L62 24L62 25L63 25L63 24L62 24L62 22L63 22L63 23L64 23L64 24L65 24L65 23L64 23L64 22L65 22L65 21L64 21L64 20L65 20L65 19L64 19L64 18L65 18L65 15L64 15L64 16L62 16L62 18L61 18L61 16L60 16L60 18L58 18L58 16L59 16L59 14L57 14L57 15L56 15L56 14L55 14L55 13L51 13L51 14L50 14L50 12L53 12L53 11L54 11L54 12L55 12L55 11L54 11L54 10L56 10L56 11L57 11L57 12L56 12L56 13L57 13L57 12L58 12L58 11L59 11L59 12L60 12L60 13L61 13L61 12L60 12L60 8L59 8L59 10L56 10L56 9L58 9L58 8L55 8L55 5L54 5L54 4L56 4L56 5L57 5L57 4L56 4L56 3L57 3L57 1L56 1L56 0L55 0L55 1L56 1L56 3L55 3L55 2L54 2L54 3L53 3L53 1L54 1L54 0L51 0L51 1L49 1L49 0L48 0L48 1L46 1L46 0L45 0L45 1L43 1L43 0L42 0L42 1L43 1L43 2L42 2L42 3L43 3L43 4L42 4L42 5L41 5L41 4L40 4L40 3L41 3L41 2L40 2L40 1L41 1L41 0L39 0L39 1L38 1L38 0L36 0L36 1L34 1L34 0L32 0L32 1L33 1L33 2L31 2L31 3L30 3L30 1L31 1L31 0L29 0L29 1L28 1L28 2L27 2L27 0L24 0L24 1L23 1L23 0L21 0L21 1L20 1L20 2L22 2L22 1L23 1L23 2L24 2L24 1L26 1L26 2L25 2L25 4L24 4L24 3L23 3L23 5L24 5L24 7L23 7L23 6L22 6L22 5L20 5L20 4L22 4L22 3L19 3L19 1L18 1L18 0L17 0L17 1L16 1L16 0L15 0L15 1L16 1L16 2L14 2L14 0L13 0L13 1L12 1L12 0ZM17 1L17 2L16 2L16 3L17 3L17 4L18 4L18 3L17 3L17 2L18 2L18 1ZM36 1L36 3L35 3L35 2L33 2L33 3L31 3L31 4L35 4L35 9L33 9L33 10L32 10L32 9L31 9L31 10L30 10L30 8L29 8L29 9L28 9L28 5L29 5L29 7L30 7L30 3L29 3L29 4L28 4L28 3L27 3L27 2L26 2L26 4L27 4L27 8L26 8L26 5L25 5L25 7L24 7L24 8L22 8L22 9L20 9L20 12L19 12L19 11L18 11L18 10L19 10L19 9L17 9L17 8L21 8L21 7L22 7L22 6L21 6L21 7L20 7L20 5L19 5L19 7L18 7L18 5L17 5L17 7L16 7L16 8L15 8L15 9L16 9L16 10L17 10L17 11L16 11L16 12L17 12L17 11L18 11L18 12L19 12L19 13L17 13L17 16L14 16L14 15L15 15L15 14L13 14L13 13L11 13L11 12L10 12L10 11L9 11L9 10L10 10L10 9L8 9L8 11L9 11L9 13L6 13L6 14L9 14L9 15L8 15L8 16L9 16L9 17L6 17L6 16L7 16L7 15L6 15L6 16L3 16L3 17L5 17L5 18L3 18L3 20L4 20L4 21L3 21L3 23L4 23L4 21L6 21L6 22L5 22L5 24L7 24L7 25L6 25L6 26L7 26L7 25L9 25L9 26L8 26L8 27L5 27L5 25L4 25L4 24L3 24L3 26L1 26L1 27L2 27L2 28L3 28L3 26L4 26L4 27L5 27L5 29L3 29L3 30L2 30L2 31L3 31L3 30L8 30L8 29L6 29L6 28L8 28L8 27L9 27L9 26L10 26L10 25L9 25L9 23L8 23L8 22L7 22L7 21L6 21L6 20L8 20L8 21L9 21L9 19L11 19L11 18L12 18L12 17L13 17L13 18L14 18L14 19L13 19L13 20L11 20L11 21L14 21L14 23L15 23L15 25L14 25L14 24L13 24L13 23L11 23L11 22L10 22L10 24L11 24L11 28L10 28L10 29L9 29L9 30L11 30L11 31L10 31L10 33L9 33L9 35L10 35L10 37L6 37L6 38L5 38L5 39L4 39L4 40L7 40L7 39L8 39L8 38L11 38L11 35L10 35L10 34L15 34L15 35L14 35L14 36L13 36L13 37L14 37L14 36L17 36L17 37L16 37L16 39L14 39L14 40L12 40L12 39L11 39L11 40L10 40L10 42L9 42L9 43L8 43L8 42L7 42L7 41L6 41L6 42L7 42L7 43L8 43L8 44L7 44L7 45L6 45L6 46L7 46L7 47L6 47L6 48L7 48L7 49L4 49L4 50L7 50L7 49L8 49L8 48L7 48L7 47L8 47L8 46L10 46L10 47L9 47L9 50L10 50L10 51L11 51L11 49L12 49L12 50L13 50L13 51L14 51L14 52L15 52L15 51L14 51L14 50L18 50L18 51L16 51L16 52L18 52L18 53L15 53L15 55L16 55L16 56L15 56L15 57L14 57L14 58L12 58L12 59L14 59L14 58L16 58L16 59L19 59L19 57L20 57L20 56L19 56L19 57L18 57L18 56L17 56L17 54L18 54L18 55L19 55L19 54L20 54L20 55L21 55L21 57L25 57L25 56L26 56L26 57L27 57L27 56L28 56L28 55L29 55L29 56L30 56L30 55L31 55L31 56L33 56L33 55L32 55L32 54L33 54L33 53L32 53L32 54L30 54L30 53L28 53L28 55L27 55L27 51L26 51L26 54L23 54L23 53L25 53L25 52L24 52L24 51L25 51L25 50L26 50L26 49L27 49L27 48L26 48L26 47L27 47L27 46L28 46L28 47L29 47L29 46L30 46L30 45L27 45L27 44L26 44L26 43L28 43L28 44L31 44L31 45L32 45L32 46L33 46L33 45L32 45L32 44L31 44L31 43L35 43L35 44L34 44L34 45L35 45L35 44L37 44L37 43L38 43L38 42L39 42L39 40L40 40L40 41L41 41L41 40L40 40L40 38L41 38L41 39L42 39L42 41L43 41L43 42L42 42L42 43L41 43L41 42L40 42L40 43L41 43L41 44L42 44L42 45L43 45L43 44L44 44L44 46L42 46L42 48L44 48L44 46L47 46L47 47L46 47L46 48L49 48L49 49L48 49L48 50L49 50L49 51L48 51L48 52L49 52L49 53L50 53L50 54L51 54L51 53L56 53L56 52L54 52L54 51L56 51L56 50L57 50L57 49L56 49L56 48L54 48L54 47L55 47L55 46L56 46L56 47L57 47L57 48L58 48L58 49L61 49L61 50L58 50L58 51L57 51L57 55L56 55L56 56L54 56L54 55L55 55L55 54L52 54L52 55L53 55L53 56L49 56L49 57L50 57L50 58L51 58L51 59L53 59L53 60L52 60L52 62L51 62L51 63L53 63L53 64L55 64L55 63L56 63L56 64L59 64L59 63L58 63L58 62L59 62L59 61L58 61L58 62L56 62L56 61L55 61L55 60L56 60L56 59L55 59L55 58L56 58L56 56L57 56L57 55L59 55L59 56L60 56L60 55L61 55L61 57L62 57L62 56L63 56L63 54L64 54L64 53L63 53L63 54L60 54L60 53L62 53L62 52L63 52L63 51L62 51L62 52L60 52L60 51L61 51L61 50L63 50L63 49L62 49L62 48L58 48L58 47L60 47L60 46L56 46L56 45L57 45L57 44L55 44L55 43L56 43L56 42L57 42L57 43L59 43L59 44L58 44L58 45L59 45L59 44L60 44L60 43L61 43L61 42L57 42L57 41L56 41L56 40L58 40L58 41L62 41L62 42L63 42L63 41L62 41L62 40L61 40L61 38L60 38L60 37L61 37L61 36L60 36L60 37L59 37L59 36L58 36L58 37L59 37L59 38L57 38L57 36L55 36L55 35L56 35L56 34L54 34L54 37L56 37L56 38L54 38L54 39L53 39L53 38L52 38L52 37L53 37L53 36L51 36L51 37L50 37L50 38L52 38L52 39L53 39L53 40L50 40L50 41L47 41L47 39L48 39L48 40L49 40L49 38L48 38L48 36L49 36L49 35L50 35L50 34L51 34L51 35L52 35L52 34L53 34L53 32L52 32L52 34L51 34L51 31L50 31L50 30L51 30L51 27L48 27L48 26L49 26L49 25L50 25L50 26L53 26L53 27L54 27L54 28L55 28L55 29L56 29L56 30L54 30L54 29L53 29L53 28L52 28L52 29L53 29L53 31L55 31L55 32L56 32L56 30L57 30L57 29L56 29L56 27L55 27L55 26L57 26L57 25L56 25L56 24L55 24L55 23L57 23L57 24L58 24L58 23L57 23L57 21L56 21L56 20L57 20L57 17L56 17L56 16L54 16L54 15L55 15L55 14L54 14L54 15L53 15L53 14L52 14L52 15L50 15L50 14L48 14L48 13L46 13L46 12L47 12L47 11L45 11L45 12L44 12L44 11L43 11L43 10L47 10L47 9L45 9L45 8L44 8L44 6L45 6L45 7L46 7L46 8L47 8L47 7L48 7L48 8L49 8L49 11L48 11L48 12L50 12L50 10L51 10L51 11L52 11L52 9L53 9L53 10L54 10L54 9L55 9L55 8L54 8L54 6L53 6L53 5L52 5L52 6L51 6L51 7L52 7L52 6L53 6L53 8L51 8L51 9L50 9L50 8L49 8L49 7L50 7L50 5L51 5L51 4L53 4L53 3L51 3L51 2L48 2L48 3L51 3L51 4L50 4L50 5L49 5L49 4L46 4L46 3L44 3L44 4L46 4L46 5L47 5L47 7L46 7L46 6L45 6L45 5L42 5L42 6L41 6L41 8L38 8L38 5L40 5L40 4L39 4L39 2L38 2L38 1ZM37 2L37 3L36 3L36 4L37 4L37 3L38 3L38 2ZM10 5L10 6L9 6L9 7L10 7L10 6L11 6L11 5ZM31 5L31 8L34 8L34 5ZM36 5L36 7L37 7L37 5ZM48 5L48 7L49 7L49 5ZM32 6L32 7L33 7L33 6ZM39 6L39 7L40 7L40 6ZM42 6L42 8L43 8L43 6ZM56 6L56 7L57 7L57 6ZM36 8L36 9L35 9L35 10L34 10L34 11L29 11L29 10L28 10L28 9L24 9L24 11L23 11L23 12L24 12L24 13L19 13L19 14L20 14L20 15L19 15L19 16L18 16L18 17L16 17L16 18L15 18L15 17L14 17L14 18L15 18L15 19L14 19L14 21L16 21L16 22L15 22L15 23L16 23L16 25L17 25L17 24L18 24L18 25L19 25L19 26L16 26L16 28L17 28L17 30L18 30L18 31L17 31L17 32L16 32L16 31L15 31L15 30L16 30L16 29L15 29L15 30L14 30L14 27L15 27L15 26L14 26L14 25L13 25L13 24L12 24L12 25L13 25L13 28L11 28L11 29L12 29L12 30L14 30L14 32L13 32L13 31L11 31L11 33L12 33L12 32L13 32L13 33L14 33L14 32L15 32L15 33L17 33L17 34L16 34L16 35L17 35L17 36L18 36L18 37L17 37L17 38L18 38L18 39L19 39L19 40L17 40L17 39L16 39L16 40L14 40L14 41L15 41L15 42L16 42L16 43L13 43L13 44L14 44L14 45L16 45L16 46L13 46L13 45L12 45L12 44L10 44L10 43L11 43L11 42L13 42L13 41L12 41L12 40L11 40L11 42L10 42L10 43L9 43L9 44L8 44L8 45L9 45L9 44L10 44L10 46L11 46L11 47L12 47L12 48L13 48L13 50L14 50L14 49L15 49L15 47L16 47L16 49L17 49L17 45L19 45L19 46L18 46L18 49L19 49L19 51L20 51L20 53L21 53L21 54L22 54L22 55L23 55L23 54L22 54L22 53L23 53L23 50L25 50L25 49L26 49L26 48L25 48L25 49L24 49L24 47L23 47L23 49L22 49L22 51L20 51L20 49L21 49L21 46L24 46L24 45L25 45L25 46L27 46L27 45L25 45L25 44L24 44L24 42L25 42L25 41L24 41L24 40L25 40L25 39L27 39L27 41L26 41L26 42L27 42L27 41L30 41L30 42L29 42L29 43L31 43L31 42L32 42L32 41L33 41L33 40L35 40L35 39L34 39L34 38L33 38L33 39L32 39L32 37L35 37L35 38L36 38L36 39L37 39L37 40L36 40L36 41L34 41L34 42L35 42L35 43L36 43L36 42L38 42L38 39L39 39L39 38L38 38L38 39L37 39L37 36L35 36L35 34L36 34L36 35L37 35L37 34L38 34L38 37L40 37L40 36L41 36L41 35L40 35L40 34L41 34L41 33L42 33L42 34L44 34L44 32L45 32L45 35L44 35L44 36L46 36L46 37L47 37L47 36L46 36L46 35L48 35L48 33L50 33L50 32L48 32L48 30L50 30L50 28L48 28L48 29L47 29L47 26L48 26L48 25L49 25L49 24L47 24L47 23L48 23L48 22L50 22L50 23L51 23L51 24L50 24L50 25L51 25L51 24L53 24L53 23L51 23L51 22L50 22L50 21L49 21L49 20L51 20L51 19L52 19L52 20L53 20L53 22L55 22L55 21L54 21L54 20L56 20L56 19L52 19L52 18L55 18L55 17L54 17L54 16L53 16L53 15L52 15L52 16L51 16L51 18L48 18L48 19L49 19L49 20L48 20L48 22L46 22L46 23L44 23L44 24L47 24L47 26L45 26L45 27L44 27L44 25L42 25L42 24L43 24L43 23L42 23L42 22L43 22L43 21L44 21L44 22L45 22L45 21L47 21L47 20L46 20L46 19L47 19L47 18L46 18L46 17L50 17L50 16L46 16L46 15L48 15L48 14L43 14L43 13L39 13L39 12L41 12L41 11L42 11L42 12L43 12L43 11L42 11L42 10L43 10L43 9L39 9L39 10L38 10L38 8ZM61 8L61 10L65 10L65 9L64 9L64 8L63 8L63 9L62 9L62 8ZM22 9L22 10L23 10L23 9ZM36 9L36 10L35 10L35 11L34 11L34 12L37 12L37 13L38 13L38 14L39 14L39 13L38 13L38 12L39 12L39 11L37 11L37 9ZM11 10L11 11L12 11L12 12L14 12L14 13L15 13L15 10L13 10L13 11L12 11L12 10ZM25 10L25 12L26 12L26 13L24 13L24 14L22 14L22 15L24 15L24 17L25 17L25 18L26 18L26 19L24 19L24 18L23 18L23 19L24 19L24 20L23 20L23 21L22 21L22 20L21 20L21 21L20 21L20 20L19 20L19 19L22 19L22 17L23 17L23 16L21 16L21 17L20 17L20 16L19 16L19 17L18 17L18 19L17 19L17 18L16 18L16 21L17 21L17 22L18 22L18 21L19 21L19 22L21 22L21 21L22 21L22 22L23 22L23 21L25 21L25 23L23 23L23 24L22 24L22 25L25 25L25 26L21 26L21 25L20 25L20 26L21 26L21 27L19 27L19 28L20 28L20 29L18 29L18 30L20 30L20 31L19 31L19 33L18 33L18 32L17 32L17 33L18 33L18 34L17 34L17 35L18 35L18 34L19 34L19 33L20 33L20 35L19 35L19 36L22 36L22 37L20 37L20 38L19 38L19 39L21 39L21 38L22 38L22 39L25 39L25 38L23 38L23 37L25 37L25 36L26 36L26 37L27 37L27 38L30 38L30 40L32 40L32 39L31 39L31 37L32 37L32 36L33 36L33 35L32 35L32 36L30 36L30 35L29 35L29 33L30 33L30 31L29 31L29 30L30 30L30 29L31 29L31 28L32 28L32 29L33 29L33 30L35 30L35 31L36 31L36 32L35 32L35 33L36 33L36 32L38 32L38 34L40 34L40 33L41 33L41 32L39 32L39 31L40 31L40 29L41 29L41 28L44 28L44 30L42 30L42 32L44 32L44 31L46 31L46 30L47 30L47 29L46 29L46 27L45 27L45 28L44 28L44 27L43 27L43 26L41 26L41 28L40 28L40 27L38 27L38 26L39 26L39 23L40 23L40 22L42 22L42 21L43 21L43 20L44 20L44 21L45 21L45 20L44 20L44 19L43 19L43 18L45 18L45 19L46 19L46 18L45 18L45 16L44 16L44 15L43 15L43 14L40 14L40 15L39 15L39 16L38 16L38 15L37 15L37 14L36 14L36 13L33 13L33 12L32 12L32 13L33 13L33 15L34 15L34 14L36 14L36 15L35 15L35 17L34 17L34 18L33 18L33 16L32 16L32 15L31 15L31 12L29 12L29 11L28 11L28 12L29 12L29 13L27 13L27 12L26 12L26 11L27 11L27 10ZM40 10L40 11L41 11L41 10ZM21 11L21 12L22 12L22 11ZM63 11L63 12L62 12L62 15L63 15L63 13L64 13L64 14L65 14L65 13L64 13L64 12L65 12L65 11ZM0 12L0 13L1 13L1 12ZM10 13L10 14L11 14L11 16L12 16L12 14L11 14L11 13ZM26 13L26 14L25 14L25 17L26 17L26 18L27 18L27 17L29 17L29 16L28 16L28 15L29 15L29 14L27 14L27 13ZM26 14L26 15L27 15L27 14ZM60 14L60 15L61 15L61 14ZM9 15L9 16L10 16L10 15ZM30 15L30 16L31 16L31 17L30 17L30 18L28 18L28 19L29 19L29 20L27 20L27 21L26 21L26 22L27 22L27 21L29 21L29 20L31 20L31 19L30 19L30 18L32 18L32 16L31 16L31 15ZM40 15L40 16L41 16L41 15ZM42 15L42 16L43 16L43 17L41 17L41 19L40 19L40 20L41 20L41 19L42 19L42 18L43 18L43 17L44 17L44 16L43 16L43 15ZM57 15L57 16L58 16L58 15ZM26 16L26 17L27 17L27 16ZM36 16L36 17L37 17L37 18L36 18L36 19L37 19L37 18L38 18L38 19L39 19L39 18L38 18L38 16ZM52 16L52 17L53 17L53 16ZM9 17L9 18L10 18L10 17ZM63 17L63 18L64 18L64 17ZM6 18L6 19L4 19L4 20L6 20L6 19L8 19L8 18ZM34 18L34 19L32 19L32 20L33 20L33 21L30 21L30 22L32 22L32 24L33 24L33 27L32 27L32 26L31 26L31 25L30 25L30 24L31 24L31 23L30 23L30 24L27 24L27 23L25 23L25 24L27 24L27 25L26 25L26 26L25 26L25 27L24 27L24 28L23 28L23 29L22 29L22 30L21 30L21 31L22 31L22 32L23 32L23 31L24 31L24 32L25 32L25 33L24 33L24 34L23 34L23 33L21 33L21 32L20 32L20 33L21 33L21 35L22 35L22 34L23 34L23 36L24 36L24 35L25 35L25 34L27 34L27 33L26 33L26 31L25 31L25 27L26 27L26 26L27 26L27 27L28 27L28 29L29 29L29 27L28 27L28 25L29 25L29 26L30 26L30 28L31 28L31 27L32 27L32 28L34 28L34 29L35 29L35 30L38 30L38 31L39 31L39 30L38 30L38 29L39 29L39 28L34 28L34 27L36 27L36 26L38 26L38 25L37 25L37 24L38 24L38 23L39 23L39 22L40 22L40 21L39 21L39 20L38 20L38 21L39 21L39 22L37 22L37 20L36 20L36 22L34 22L34 23L35 23L35 25L36 25L36 26L34 26L34 24L33 24L33 21L35 21L35 20L34 20L34 19L35 19L35 18ZM59 19L59 20L61 20L61 22L59 22L59 21L58 21L58 22L59 22L59 24L61 24L61 22L62 22L62 20L63 20L63 19ZM17 20L17 21L18 21L18 20ZM6 22L6 23L7 23L7 24L8 24L8 23L7 23L7 22ZM28 22L28 23L29 23L29 22ZM36 22L36 24L37 24L37 22ZM19 23L19 24L20 24L20 23ZM40 24L40 25L41 25L41 24ZM54 25L54 26L55 26L55 25ZM64 25L64 26L65 26L65 25ZM57 27L57 28L58 28L58 27ZM23 29L23 30L22 30L22 31L23 31L23 30L24 30L24 29ZM26 29L26 30L27 30L27 29ZM5 31L5 34L8 34L8 31ZM31 31L31 34L34 34L34 31ZM57 31L57 34L60 34L60 31ZM62 31L62 32L63 32L63 33L61 33L61 35L62 35L62 36L63 36L63 35L62 35L62 34L63 34L63 33L64 33L64 32L63 32L63 31ZM6 32L6 33L7 33L7 32ZM28 32L28 33L29 33L29 32ZM32 32L32 33L33 33L33 32ZM58 32L58 33L59 33L59 32ZM46 33L46 34L47 34L47 33ZM4 35L4 36L5 36L5 35ZM6 35L6 36L7 36L7 35ZM26 35L26 36L28 36L28 37L29 37L29 36L28 36L28 35ZM42 35L42 36L43 36L43 35ZM42 37L42 38L43 38L43 37ZM44 37L44 39L43 39L43 40L46 40L46 39L47 39L47 38L45 38L45 37ZM2 38L2 40L1 40L1 41L2 41L2 40L3 40L3 38ZM6 38L6 39L7 39L7 38ZM28 39L28 40L29 40L29 39ZM54 39L54 40L56 40L56 39ZM58 39L58 40L59 40L59 39ZM8 40L8 41L9 41L9 40ZM21 40L21 41L20 41L20 43L18 43L18 42L19 42L19 41L18 41L18 42L17 42L17 41L16 41L16 42L17 42L17 44L16 44L16 45L17 45L17 44L19 44L19 45L21 45L21 41L23 41L23 40ZM44 41L44 44L45 44L45 45L49 45L49 44L51 44L51 46L50 46L50 47L49 47L49 46L48 46L48 47L49 47L49 48L53 48L53 47L54 47L54 46L55 46L55 44L54 44L54 42L55 42L55 41L52 41L52 42L53 42L53 43L52 43L52 44L51 44L51 42L50 42L50 43L49 43L49 42L48 42L48 43L47 43L47 42L45 42L45 41ZM22 42L22 43L23 43L23 42ZM0 43L0 44L1 44L1 43ZM42 43L42 44L43 44L43 43ZM46 43L46 44L47 44L47 43ZM48 43L48 44L49 44L49 43ZM22 44L22 45L24 45L24 44ZM52 44L52 45L54 45L54 44ZM11 45L11 46L12 46L12 47L13 47L13 48L14 48L14 47L13 47L13 46L12 46L12 45ZM36 45L36 48L37 48L37 45ZM4 46L4 47L5 47L5 46ZM19 46L19 47L20 47L20 46ZM52 46L52 47L53 47L53 46ZM1 47L1 48L2 48L2 47ZM10 48L10 49L11 49L11 48ZM19 48L19 49L20 49L20 48ZM53 49L53 50L55 50L55 49ZM40 50L40 51L41 51L41 50ZM42 50L42 52L43 52L43 50ZM50 50L50 51L49 51L49 52L50 52L50 51L52 51L52 52L53 52L53 51L52 51L52 50ZM4 51L4 52L5 52L5 51ZM28 51L28 52L30 52L30 51ZM58 51L58 52L59 52L59 53L58 53L58 54L59 54L59 53L60 53L60 52L59 52L59 51ZM21 52L21 53L22 53L22 52ZM0 53L0 54L1 54L1 53ZM18 53L18 54L19 54L19 53ZM34 53L34 55L36 55L36 56L37 56L37 54L35 54L35 53ZM38 53L38 54L39 54L39 53ZM44 53L44 54L45 54L45 53ZM29 54L29 55L30 55L30 54ZM10 55L10 56L9 56L9 57L11 57L11 55ZM12 55L12 56L13 56L13 55ZM24 55L24 56L25 56L25 55ZM26 55L26 56L27 56L27 55ZM16 56L16 57L17 57L17 56ZM31 57L31 60L34 60L34 57ZM41 57L41 58L43 58L43 57ZM53 57L53 58L55 58L55 57ZM57 57L57 60L60 60L60 57ZM22 58L22 59L23 59L23 58ZM24 58L24 59L25 59L25 62L26 62L26 61L27 61L27 60L26 60L26 58ZM32 58L32 59L33 59L33 58ZM36 58L36 59L37 59L37 58ZM58 58L58 59L59 59L59 58ZM40 59L40 60L41 60L41 59ZM62 59L62 60L63 60L63 59ZM44 60L44 61L45 61L45 60ZM53 60L53 61L54 61L54 62L55 62L55 61L54 61L54 60ZM35 61L35 62L36 62L36 61ZM38 61L38 62L39 62L39 61ZM60 61L60 62L62 62L62 64L63 64L63 61ZM17 62L17 63L18 63L18 65L19 65L19 63L20 63L20 62L19 62L19 63L18 63L18 62ZM22 62L22 63L23 63L23 62ZM13 63L13 65L17 65L17 64L16 64L16 63L15 63L15 64L14 64L14 63ZM31 63L31 64L30 64L30 65L33 65L33 64L32 64L32 63ZM46 63L46 64L47 64L47 63ZM10 64L10 65L11 65L11 64ZM0 0L0 7L7 7L7 0ZM1 1L1 6L6 6L6 1ZM2 2L2 5L5 5L5 2ZM58 0L58 7L65 7L65 0ZM59 1L59 6L64 6L64 1ZM60 2L60 5L63 5L63 2ZM0 58L0 65L7 65L7 58ZM1 59L1 64L6 64L6 59ZM2 60L2 63L5 63L5 60Z" fill="#000000"/></g></g></svg>
