<?xml version="1.0" encoding="UTF-8"?>
<svg xmlns="http://www.w3.org/2000/svg" version="1.1" width="300" height="300" viewBox="0 0 300 300"><rect x="0" y="0" width="300" height="300" fill="#ffffff"/><g transform="scale(4.615)"><g transform="translate(0,0)"><path fill-rule="evenodd" d="M10 0L10 1L8 1L8 2L10 2L10 3L8 3L8 4L9 4L9 5L8 5L8 7L9 7L9 6L10 6L10 8L6 8L6 9L9 9L9 11L8 11L8 10L6 10L6 11L8 11L8 12L5 12L5 10L4 10L4 12L3 12L3 11L2 11L2 12L3 12L3 13L4 13L4 14L3 14L3 15L4 15L4 14L5 14L5 16L6 16L6 17L7 17L7 16L8 16L8 17L9 17L9 19L7 19L7 18L5 18L5 17L4 17L4 18L3 18L3 16L1 16L1 15L2 15L2 14L1 14L1 9L5 9L5 8L0 8L0 17L2 17L2 19L5 19L5 20L6 20L6 21L7 21L7 22L4 22L4 21L2 21L2 22L1 22L1 21L0 21L0 22L1 22L1 23L2 23L2 25L4 25L4 26L5 26L5 27L4 27L4 29L9 29L9 30L4 30L4 32L3 32L3 33L1 33L1 32L0 32L0 33L1 33L1 35L0 35L0 38L1 38L1 37L3 37L3 33L4 33L4 35L5 35L5 37L4 37L4 39L5 39L5 40L4 40L4 42L5 42L5 43L4 43L4 45L3 45L3 46L6 46L6 47L7 47L7 48L6 48L6 49L5 49L5 47L3 47L3 49L2 49L2 46L1 46L1 45L0 45L0 46L1 46L1 47L0 47L0 50L1 50L1 49L2 49L2 53L1 53L1 51L0 51L0 53L1 53L1 54L2 54L2 55L3 55L3 56L1 56L1 55L0 55L0 56L1 56L1 57L3 57L3 56L4 56L4 57L5 57L5 56L4 56L4 54L2 54L2 53L3 53L3 49L5 49L5 51L4 51L4 53L5 53L5 51L9 51L9 50L10 50L10 48L11 48L11 52L9 52L9 53L8 53L8 56L9 56L9 57L8 57L8 59L9 59L9 60L8 60L8 65L15 65L15 63L16 63L16 65L17 65L17 61L19 61L19 62L18 62L18 63L19 63L19 64L18 64L18 65L19 65L19 64L20 64L20 65L22 65L22 64L24 64L24 63L23 63L23 62L24 62L24 61L25 61L25 59L26 59L26 58L27 58L27 61L26 61L26 62L25 62L25 63L26 63L26 64L25 64L25 65L26 65L26 64L28 64L28 65L31 65L31 64L30 64L30 61L31 61L31 63L32 63L32 64L33 64L33 63L35 63L35 62L34 62L34 61L39 61L39 62L38 62L38 63L39 63L39 65L40 65L40 64L41 64L41 65L43 65L43 64L45 64L45 65L47 65L47 64L48 64L48 65L50 65L50 64L48 64L48 63L49 63L49 62L50 62L50 63L51 63L51 64L53 64L53 65L54 65L54 64L58 64L58 65L63 65L63 64L64 64L64 61L65 61L65 59L64 59L64 58L65 58L65 56L62 56L62 54L61 54L61 53L60 53L60 55L58 55L58 56L56 56L56 55L57 55L57 54L59 54L59 53L58 53L58 52L59 52L59 51L58 51L58 50L61 50L61 51L60 51L60 52L62 52L62 53L63 53L63 54L65 54L65 52L64 52L64 50L65 50L65 49L64 49L64 48L62 48L62 49L63 49L63 50L61 50L61 49L60 49L60 48L59 48L59 47L57 47L57 51L56 51L56 49L53 49L53 51L52 51L52 52L53 52L53 51L54 51L54 52L56 52L56 53L51 53L51 54L50 54L50 53L49 53L49 52L50 52L50 51L51 51L51 50L49 50L49 48L48 48L48 49L47 49L47 50L46 50L46 48L45 48L45 47L47 47L47 46L46 46L46 44L47 44L47 42L48 42L48 41L49 41L49 44L48 44L48 45L49 45L49 46L48 46L48 47L50 47L50 49L51 49L51 47L52 47L52 48L53 48L53 47L52 47L52 46L55 46L55 47L54 47L54 48L56 48L56 45L57 45L57 44L58 44L58 46L59 46L59 43L58 43L58 41L57 41L57 40L59 40L59 39L58 39L58 37L60 37L60 38L61 38L61 39L60 39L60 40L62 40L62 41L59 41L59 42L61 42L61 43L60 43L60 44L61 44L61 43L63 43L63 44L62 44L62 45L60 45L60 46L62 46L62 45L64 45L64 44L65 44L65 43L63 43L63 42L62 42L62 41L64 41L64 42L65 42L65 41L64 41L64 40L62 40L62 38L65 38L65 37L64 37L64 36L65 36L65 35L63 35L63 34L62 34L62 35L61 35L61 32L62 32L62 33L64 33L64 34L65 34L65 31L64 31L64 32L62 32L62 31L63 31L63 30L62 30L62 31L61 31L61 30L60 30L60 29L64 29L64 28L65 28L65 27L64 27L64 28L59 28L59 26L56 26L56 25L61 25L61 24L62 24L62 27L63 27L63 26L65 26L65 24L64 24L64 22L65 22L65 21L63 21L63 20L62 20L62 21L63 21L63 22L62 22L62 23L61 23L61 24L59 24L59 22L61 22L61 20L58 20L58 19L59 19L59 18L58 18L58 16L56 16L56 17L55 17L55 16L54 16L54 15L52 15L52 14L56 14L56 13L57 13L57 12L58 12L58 11L59 11L59 14L57 14L57 15L59 15L59 16L60 16L60 17L62 17L62 18L61 18L61 19L63 19L63 18L65 18L65 15L64 15L64 16L62 16L62 15L63 15L63 12L60 12L60 11L59 11L59 10L60 10L60 8L59 8L59 10L57 10L57 11L56 11L56 10L55 10L55 5L54 5L54 4L56 4L56 5L57 5L57 4L56 4L56 3L57 3L57 1L56 1L56 0L55 0L55 1L56 1L56 3L55 3L55 2L54 2L54 3L53 3L53 2L52 2L52 1L50 1L50 0L49 0L49 1L48 1L48 0L47 0L47 1L45 1L45 2L44 2L44 0L40 0L40 1L38 1L38 0L35 0L35 1L34 1L34 0L30 0L30 1L32 1L32 3L29 3L29 1L28 1L28 0L26 0L26 1L25 1L25 0L24 0L24 2L23 2L23 0L21 0L21 1L20 1L20 0L19 0L19 1L20 1L20 2L21 2L21 3L20 3L20 4L21 4L21 5L22 5L22 4L23 4L23 5L25 5L25 4L23 4L23 3L28 3L28 4L30 4L30 5L27 5L27 4L26 4L26 5L27 5L27 6L26 6L26 8L27 8L27 9L22 9L22 7L23 7L23 6L22 6L22 7L21 7L21 6L20 6L20 5L19 5L19 4L18 4L18 3L17 3L17 2L18 2L18 1L17 1L17 0L16 0L16 1L15 1L15 0ZM53 0L53 1L54 1L54 0ZM11 1L11 3L10 3L10 6L11 6L11 8L13 8L13 9L15 9L15 8L13 8L13 7L14 7L14 6L15 6L15 7L16 7L16 6L17 6L17 7L18 7L18 6L17 6L17 5L18 5L18 4L17 4L17 3L15 3L15 2L14 2L14 1ZM21 1L21 2L22 2L22 1ZM26 1L26 2L27 2L27 1ZM33 1L33 3L32 3L32 4L33 4L33 3L37 3L37 4L35 4L35 9L33 9L33 10L32 10L32 9L30 9L30 8L29 8L29 7L30 7L30 6L29 6L29 7L28 7L28 6L27 6L27 7L28 7L28 8L29 8L29 9L28 9L28 11L27 11L27 10L26 10L26 11L27 11L27 12L26 12L26 13L25 13L25 16L24 16L24 15L23 15L23 14L24 14L24 13L23 13L23 12L24 12L24 11L25 11L25 10L23 10L23 12L22 12L22 10L21 10L21 9L20 9L20 8L19 8L19 9L17 9L17 8L16 8L16 10L13 10L13 12L12 12L12 10L11 10L11 9L10 9L10 10L11 10L11 12L10 12L10 11L9 11L9 12L8 12L8 14L7 14L7 13L5 13L5 14L7 14L7 15L6 15L6 16L7 16L7 15L8 15L8 16L9 16L9 14L10 14L10 16L11 16L11 19L12 19L12 21L10 21L10 22L7 22L7 23L6 23L6 24L7 24L7 23L8 23L8 24L12 24L12 25L13 25L13 23L16 23L16 24L17 24L17 23L18 23L18 24L21 24L21 23L20 23L20 22L22 22L22 23L23 23L23 24L22 24L22 25L20 25L20 26L19 26L19 25L18 25L18 26L17 26L17 25L16 25L16 29L13 29L13 28L14 28L14 27L15 27L15 24L14 24L14 27L13 27L13 26L12 26L12 27L10 27L10 28L12 28L12 29L10 29L10 31L9 31L9 33L11 33L11 34L10 34L10 36L8 36L8 35L6 35L6 36L7 36L7 37L6 37L6 38L9 38L9 37L11 37L11 36L12 36L12 37L13 37L13 38L10 38L10 39L9 39L9 42L10 42L10 43L9 43L9 44L7 44L7 43L5 43L5 45L6 45L6 46L7 46L7 45L8 45L8 48L7 48L7 49L6 49L6 50L7 50L7 49L8 49L8 48L9 48L9 45L11 45L11 46L10 46L10 47L11 47L11 48L12 48L12 49L14 49L14 50L15 50L15 49L16 49L16 50L17 50L17 51L18 51L18 50L19 50L19 52L22 52L22 53L20 53L20 56L19 56L19 55L18 55L18 54L17 54L17 53L18 53L18 52L17 52L17 53L16 53L16 52L15 52L15 55L14 55L14 53L13 53L13 52L14 52L14 51L13 51L13 52L12 52L12 54L11 54L11 53L10 53L10 55L9 55L9 56L11 56L11 55L12 55L12 56L13 56L13 55L14 55L14 57L15 57L15 56L19 56L19 57L18 57L18 58L17 58L17 57L16 57L16 58L14 58L14 62L16 62L16 61L17 61L17 60L16 60L16 59L18 59L18 60L19 60L19 61L24 61L24 59L25 59L25 58L26 58L26 57L27 57L27 58L29 58L29 59L28 59L28 60L29 60L29 61L27 61L27 62L29 62L29 61L30 61L30 58L29 58L29 57L30 57L30 56L33 56L33 55L31 55L31 53L32 53L32 54L33 54L33 53L34 53L34 55L36 55L36 56L38 56L38 58L39 58L39 57L41 57L41 56L38 56L38 54L39 54L39 55L40 55L40 53L41 53L41 55L42 55L42 57L43 57L43 58L42 58L42 59L41 59L41 58L40 58L40 59L41 59L41 60L40 60L40 62L39 62L39 63L40 63L40 62L41 62L41 63L42 63L42 64L43 64L43 62L41 62L41 61L43 61L43 60L42 60L42 59L43 59L43 58L48 58L48 60L49 60L49 61L50 61L50 62L51 62L51 63L53 63L53 64L54 64L54 63L55 63L55 62L56 62L56 63L57 63L57 62L56 62L56 61L55 61L55 62L54 62L54 61L53 61L53 60L52 60L52 62L51 62L51 61L50 61L50 60L51 60L51 59L53 59L53 57L55 57L55 58L54 58L54 59L55 59L55 60L56 60L56 59L55 59L55 58L56 58L56 56L54 56L54 55L56 55L56 54L52 54L52 55L51 55L51 56L50 56L50 57L49 57L49 58L48 58L48 57L47 57L47 55L48 55L48 56L49 56L49 55L50 55L50 54L47 54L47 53L46 53L46 52L49 52L49 51L48 51L48 50L47 50L47 51L46 51L46 52L44 52L44 49L45 49L45 48L44 48L44 47L45 47L45 46L44 46L44 45L45 45L45 44L46 44L46 43L45 43L45 42L47 42L47 41L48 41L48 40L49 40L49 41L50 41L50 42L51 42L51 43L50 43L50 46L51 46L51 44L52 44L52 45L53 45L53 44L54 44L54 45L56 45L56 44L57 44L57 41L56 41L56 40L57 40L57 38L56 38L56 40L55 40L55 38L54 38L54 39L53 39L53 40L51 40L51 39L52 39L52 38L53 38L53 36L52 36L52 37L51 37L51 35L50 35L50 36L49 36L49 34L51 34L51 33L53 33L53 34L52 34L52 35L54 35L54 37L56 37L56 36L55 36L55 34L56 34L56 32L55 32L55 31L56 31L56 30L57 30L57 29L56 29L56 30L54 30L54 31L53 31L53 32L51 32L51 31L50 31L50 30L51 30L51 29L50 29L50 30L49 30L49 29L47 29L47 28L46 28L46 30L47 30L47 31L46 31L46 32L47 32L47 33L45 33L45 32L44 32L44 33L43 33L43 31L44 31L44 30L45 30L45 28L44 28L44 25L45 25L45 26L47 26L47 27L48 27L48 28L51 28L51 27L53 27L53 26L54 26L54 28L52 28L52 29L54 29L54 28L58 28L58 30L59 30L59 28L58 28L58 27L56 27L56 26L54 26L54 25L55 25L55 24L54 24L54 23L57 23L57 24L58 24L58 23L57 23L57 22L59 22L59 21L56 21L56 20L57 20L57 19L56 19L56 18L57 18L57 17L56 17L56 18L54 18L54 19L55 19L55 20L54 20L54 21L55 21L55 22L53 22L53 20L52 20L52 19L51 19L51 20L50 20L50 18L53 18L53 17L54 17L54 16L49 16L49 14L48 14L48 16L49 16L49 17L46 17L46 14L47 14L47 13L48 13L48 12L49 12L49 13L50 13L50 14L51 14L51 13L53 13L53 12L51 12L51 11L52 11L52 10L51 10L51 9L53 9L53 11L55 11L55 10L54 10L54 8L52 8L52 6L51 6L51 7L50 7L50 5L52 5L52 4L53 4L53 3L52 3L52 4L50 4L50 3L51 3L51 2L50 2L50 1L49 1L49 2L48 2L48 3L46 3L46 2L45 2L45 3L44 3L44 2L43 2L43 1L40 1L40 2L42 2L42 3L40 3L40 4L38 4L38 3L39 3L39 2L38 2L38 1L37 1L37 2L36 2L36 1L35 1L35 2L34 2L34 1ZM11 3L11 6L12 6L12 7L13 7L13 5L15 5L15 6L16 6L16 5L17 5L17 4L16 4L16 5L15 5L15 3L13 3L13 5L12 5L12 3ZM21 3L21 4L22 4L22 3ZM42 3L42 5L43 5L43 6L42 6L42 7L41 7L41 6L40 6L40 5L41 5L41 4L40 4L40 5L38 5L38 4L37 4L37 5L36 5L36 7L37 7L37 5L38 5L38 7L39 7L39 8L38 8L38 9L37 9L37 8L36 8L36 9L35 9L35 10L33 10L33 11L32 11L32 12L33 12L33 13L34 13L34 12L35 12L35 14L34 14L34 15L33 15L33 14L32 14L32 13L29 13L29 11L28 11L28 12L27 12L27 13L26 13L26 14L27 14L27 13L29 13L29 14L28 14L28 17L26 17L26 16L27 16L27 15L26 15L26 16L25 16L25 17L24 17L24 16L23 16L23 15L22 15L22 14L23 14L23 13L22 13L22 14L21 14L21 16L19 16L19 15L20 15L20 14L19 14L19 15L16 15L16 16L14 16L14 18L13 18L13 16L12 16L12 15L11 15L11 16L12 16L12 18L13 18L13 21L12 21L12 23L13 23L13 21L14 21L14 20L16 20L16 19L17 19L17 20L18 20L18 21L17 21L17 22L18 22L18 23L19 23L19 22L20 22L20 21L22 21L22 20L20 20L20 17L21 17L21 16L23 16L23 17L22 17L22 18L21 18L21 19L22 19L22 18L23 18L23 19L24 19L24 20L25 20L25 21L23 21L23 22L26 22L26 24L27 24L27 25L24 25L24 24L25 24L25 23L24 23L24 24L23 24L23 25L22 25L22 26L23 26L23 28L24 28L24 29L22 29L22 31L23 31L23 32L24 32L24 31L23 31L23 30L24 30L24 29L25 29L25 30L27 30L27 31L25 31L25 33L22 33L22 32L21 32L21 29L19 29L19 28L18 28L18 27L17 27L17 28L18 28L18 29L19 29L19 30L18 30L18 31L17 31L17 29L16 29L16 30L14 30L14 33L15 33L15 34L13 34L13 29L12 29L12 34L13 34L13 35L15 35L15 37L14 37L14 36L13 36L13 37L14 37L14 38L13 38L13 39L12 39L12 40L11 40L11 41L10 41L10 42L11 42L11 43L10 43L10 44L11 44L11 43L12 43L12 44L13 44L13 45L12 45L12 46L13 46L13 47L12 47L12 48L14 48L14 47L15 47L15 48L16 48L16 49L17 49L17 48L16 48L16 47L15 47L15 46L16 46L16 45L15 45L15 43L16 43L16 44L17 44L17 47L18 47L18 49L19 49L19 50L20 50L20 51L22 51L22 50L25 50L25 52L26 52L26 51L27 51L27 52L28 52L28 53L27 53L27 54L25 54L25 53L24 53L24 51L23 51L23 53L24 53L24 54L25 54L25 55L24 55L24 56L23 56L23 55L22 55L22 54L21 54L21 56L20 56L20 57L19 57L19 58L18 58L18 59L21 59L21 60L23 60L23 58L25 58L25 57L24 57L24 56L25 56L25 55L27 55L27 57L29 57L29 55L30 55L30 54L28 54L28 53L29 53L29 52L28 52L28 51L30 51L30 52L31 52L31 49L33 49L33 50L32 50L32 51L33 51L33 50L35 50L35 51L34 51L34 53L37 53L37 52L36 52L36 50L38 50L38 53L39 53L39 52L41 52L41 51L42 51L42 52L43 52L43 53L42 53L42 54L43 54L43 55L44 55L44 56L46 56L46 55L47 55L47 54L45 54L45 53L44 53L44 52L43 52L43 51L42 51L42 50L43 50L43 49L41 49L41 50L40 50L40 49L39 49L39 50L38 50L38 48L39 48L39 47L40 47L40 48L41 48L41 47L40 47L40 46L43 46L43 45L44 45L44 44L45 44L45 43L44 43L44 44L43 44L43 43L42 43L42 44L43 44L43 45L39 45L39 46L38 46L38 45L37 45L37 44L39 44L39 42L40 42L40 40L41 40L41 42L43 42L43 41L42 41L42 40L47 40L47 38L48 38L48 39L51 39L51 38L50 38L50 37L49 37L49 36L46 36L46 35L48 35L48 34L49 34L49 32L48 32L48 34L45 34L45 33L44 33L44 34L45 34L45 35L43 35L43 37L42 37L42 38L41 38L41 37L39 37L39 36L38 36L38 37L39 37L39 38L36 38L36 37L37 37L37 36L35 36L35 32L36 32L36 33L37 33L37 34L36 34L36 35L37 35L37 34L38 34L38 35L40 35L40 36L41 36L41 33L40 33L40 32L41 32L41 31L39 31L39 30L38 30L38 31L39 31L39 32L38 32L38 33L37 33L37 32L36 32L36 31L35 31L35 30L34 30L34 29L36 29L36 30L37 30L37 29L38 29L38 28L41 28L41 27L42 27L42 26L43 26L43 25L40 25L40 24L41 24L41 23L42 23L42 24L45 24L45 25L50 25L50 24L53 24L53 22L52 22L52 21L51 21L51 22L50 22L50 20L48 20L48 22L46 22L46 21L47 21L47 18L46 18L46 19L44 19L44 20L43 20L43 19L42 19L42 18L44 18L44 16L45 16L45 15L43 15L43 16L41 16L41 15L42 15L42 14L44 14L44 12L45 12L45 14L46 14L46 13L47 13L47 10L48 10L48 11L51 11L51 10L50 10L50 9L49 9L49 8L50 8L50 7L49 7L49 5L50 5L50 4L49 4L49 3L48 3L48 4L49 4L49 5L48 5L48 7L49 7L49 8L47 8L47 10L46 10L46 11L44 11L44 9L43 9L43 8L42 8L42 7L43 7L43 6L44 6L44 8L45 8L45 6L44 6L44 5L43 5L43 3ZM45 3L45 4L46 4L46 3ZM31 5L31 8L34 8L34 5ZM46 5L46 7L47 7L47 5ZM19 6L19 7L20 7L20 6ZM24 6L24 7L25 7L25 6ZM32 6L32 7L33 7L33 6ZM39 6L39 7L40 7L40 6ZM53 6L53 7L54 7L54 6ZM56 6L56 7L57 7L57 6ZM40 8L40 9L41 9L41 12L40 12L40 11L38 11L38 10L39 10L39 9L38 9L38 10L36 10L36 12L37 12L37 13L38 13L38 14L39 14L39 15L38 15L38 18L39 18L39 17L41 17L41 16L40 16L40 13L41 13L41 14L42 14L42 13L43 13L43 12L44 12L44 11L43 11L43 10L42 10L42 8ZM56 8L56 9L58 9L58 8ZM61 8L61 9L62 9L62 8ZM63 8L63 9L64 9L64 10L65 10L65 9L64 9L64 8ZM19 9L19 10L20 10L20 11L21 11L21 10L20 10L20 9ZM29 9L29 10L30 10L30 12L31 12L31 10L30 10L30 9ZM48 9L48 10L49 10L49 9ZM17 10L17 11L16 11L16 13L17 13L17 14L18 14L18 13L20 13L20 12L19 12L19 11L18 11L18 10ZM62 10L62 11L63 11L63 10ZM14 11L14 13L12 13L12 12L11 12L11 13L12 13L12 14L13 14L13 15L15 15L15 14L14 14L14 13L15 13L15 11ZM17 11L17 12L18 12L18 11ZM33 11L33 12L34 12L34 11ZM42 11L42 12L43 12L43 11ZM38 12L38 13L39 13L39 12ZM50 12L50 13L51 13L51 12ZM60 13L60 16L61 16L61 13ZM64 13L64 14L65 14L65 13ZM29 14L29 17L28 17L28 18L29 18L29 19L28 19L28 20L29 20L29 19L33 19L33 18L35 18L35 19L34 19L34 20L35 20L35 19L36 19L36 20L37 20L37 23L36 23L36 24L37 24L37 23L38 23L38 26L39 26L39 24L40 24L40 23L41 23L41 22L42 22L42 23L45 23L45 22L44 22L44 21L46 21L46 20L44 20L44 21L43 21L43 20L42 20L42 19L41 19L41 18L40 18L40 19L38 19L38 20L37 20L37 17L36 17L36 16L37 16L37 14L35 14L35 15L36 15L36 16L32 16L32 14L31 14L31 16L30 16L30 14ZM16 16L16 18L17 18L17 19L18 19L18 18L19 18L19 17L17 17L17 16ZM31 16L31 17L30 17L30 18L31 18L31 17L32 17L32 18L33 18L33 17L32 17L32 16ZM25 17L25 18L24 18L24 19L25 19L25 20L26 20L26 21L27 21L27 20L26 20L26 19L27 19L27 18L26 18L26 17ZM0 18L0 20L1 20L1 18ZM14 18L14 19L15 19L15 18ZM48 18L48 19L49 19L49 18ZM6 19L6 20L7 20L7 19ZM40 19L40 20L41 20L41 19ZM64 19L64 20L65 20L65 19ZM8 20L8 21L9 21L9 20ZM30 20L30 21L28 21L28 23L27 23L27 24L28 24L28 23L29 23L29 22L30 22L30 21L31 21L31 22L33 22L33 20L32 20L32 21L31 21L31 20ZM15 21L15 22L16 22L16 21ZM34 21L34 22L35 22L35 21ZM42 21L42 22L43 22L43 21ZM2 22L2 23L3 23L3 24L5 24L5 23L4 23L4 22ZM38 22L38 23L39 23L39 22ZM48 22L48 24L50 24L50 23L49 23L49 22ZM51 22L51 23L52 23L52 22ZM33 23L33 24L32 24L32 25L33 25L33 27L34 27L34 26L35 26L35 28L37 28L37 27L36 27L36 26L37 26L37 25L35 25L35 23ZM46 23L46 24L47 24L47 23ZM62 23L62 24L63 24L63 25L64 25L64 24L63 24L63 23ZM0 24L0 25L1 25L1 24ZM29 24L29 25L27 25L27 27L28 27L28 28L29 28L29 27L31 27L31 26L30 26L30 25L31 25L31 24ZM5 25L5 26L7 26L7 27L5 27L5 28L7 28L7 27L8 27L8 25ZM9 25L9 26L11 26L11 25ZM0 26L0 27L1 27L1 28L0 28L0 30L1 30L1 29L3 29L3 28L2 28L2 27L3 27L3 26L2 26L2 27L1 27L1 26ZM20 26L20 27L21 27L21 26ZM24 26L24 28L25 28L25 26ZM40 26L40 27L41 27L41 26ZM48 26L48 27L49 27L49 26ZM50 26L50 27L51 27L51 26ZM60 26L60 27L61 27L61 26ZM26 28L26 29L27 29L27 30L30 30L30 29L31 29L31 30L32 30L32 29L34 29L34 28L30 28L30 29L27 29L27 28ZM43 28L43 29L42 29L42 30L44 30L44 28ZM40 29L40 30L41 30L41 29ZM19 30L19 31L20 31L20 30ZM48 30L48 31L49 31L49 30ZM5 31L5 34L8 34L8 31ZM10 31L10 32L11 32L11 31ZM15 31L15 33L16 33L16 34L15 34L15 35L16 35L16 36L18 36L18 37L15 37L15 38L14 38L14 42L13 42L13 40L12 40L12 43L15 43L15 42L16 42L16 43L17 43L17 44L19 44L19 43L18 43L18 42L19 42L19 41L18 41L18 39L16 39L16 40L15 40L15 38L18 38L18 37L19 37L19 38L20 38L20 39L19 39L19 40L20 40L20 39L21 39L21 37L22 37L22 38L23 38L23 40L22 40L22 41L25 41L25 42L24 42L24 43L25 43L25 44L26 44L26 45L25 45L25 46L26 46L26 45L27 45L27 46L30 46L30 47L31 47L31 45L32 45L32 46L33 46L33 45L32 45L32 44L30 44L30 43L29 43L29 42L30 42L30 41L31 41L31 42L32 42L32 43L33 43L33 41L34 41L34 43L35 43L35 44L34 44L34 45L35 45L35 44L37 44L37 43L38 43L38 42L39 42L39 40L38 40L38 39L36 39L36 38L35 38L35 36L34 36L34 37L32 37L32 40L29 40L29 39L27 39L27 36L32 36L32 35L29 35L29 34L30 34L30 31L28 31L28 32L29 32L29 33L28 33L28 35L26 35L26 38L24 38L24 37L25 37L25 36L23 36L23 37L22 37L22 36L21 36L21 35L22 35L22 34L21 34L21 33L20 33L20 32L19 32L19 33L16 33L16 31ZM31 31L31 34L34 34L34 31ZM57 31L57 34L60 34L60 31ZM6 32L6 33L7 33L7 32ZM26 32L26 33L25 33L25 34L26 34L26 33L27 33L27 32ZM32 32L32 33L33 33L33 32ZM50 32L50 33L51 33L51 32ZM53 32L53 33L54 33L54 34L55 34L55 33L54 33L54 32ZM58 32L58 33L59 33L59 32ZM19 33L19 35L21 35L21 34L20 34L20 33ZM38 33L38 34L40 34L40 33ZM42 33L42 34L43 34L43 33ZM17 34L17 35L18 35L18 34ZM62 35L62 36L63 36L63 35ZM20 36L20 37L21 37L21 36ZM44 36L44 37L45 37L45 39L46 39L46 38L47 38L47 37L45 37L45 36ZM57 36L57 37L58 37L58 36ZM60 36L60 37L61 37L61 38L62 38L62 37L61 37L61 36ZM28 37L28 38L30 38L30 39L31 39L31 37ZM2 38L2 40L1 40L1 39L0 39L0 40L1 40L1 41L0 41L0 44L3 44L3 43L1 43L1 41L2 41L2 42L3 42L3 41L2 41L2 40L3 40L3 38ZM39 38L39 39L40 39L40 38ZM42 38L42 39L43 39L43 38ZM6 39L6 40L5 40L5 41L6 41L6 42L7 42L7 41L8 41L8 40L7 40L7 39ZM25 39L25 40L27 40L27 41L26 41L26 42L27 42L27 41L29 41L29 40L27 40L27 39ZM33 39L33 40L32 40L32 41L33 41L33 40L34 40L34 41L35 41L35 39ZM6 40L6 41L7 41L7 40ZM16 40L16 41L17 41L17 40ZM36 40L36 42L35 42L35 43L37 43L37 42L38 42L38 41L37 41L37 40ZM50 40L50 41L51 41L51 40ZM20 41L20 42L21 42L21 41ZM44 41L44 42L45 42L45 41ZM52 41L52 42L53 42L53 41ZM54 41L54 42L55 42L55 41ZM22 42L22 43L23 43L23 42ZM26 43L26 44L28 44L28 45L30 45L30 44L29 44L29 43ZM40 43L40 44L41 44L41 43ZM52 43L52 44L53 44L53 43ZM54 43L54 44L56 44L56 43ZM6 44L6 45L7 45L7 44ZM20 44L20 45L18 45L18 47L19 47L19 48L21 48L21 49L20 49L20 50L22 50L22 49L25 49L25 50L26 50L26 49L27 49L27 50L30 50L30 49L27 49L27 48L29 48L29 47L27 47L27 48L26 48L26 49L25 49L25 48L24 48L24 47L22 47L22 46L21 46L21 45L23 45L23 46L24 46L24 45L23 45L23 44ZM14 45L14 46L15 46L15 45ZM36 45L36 46L34 46L34 47L35 47L35 48L34 48L34 49L35 49L35 50L36 50L36 48L38 48L38 47L36 47L36 46L37 46L37 45ZM19 46L19 47L20 47L20 46ZM21 47L21 48L22 48L22 47ZM32 47L32 48L33 48L33 47ZM42 47L42 48L43 48L43 47ZM58 48L58 49L59 49L59 48ZM39 50L39 51L40 51L40 50ZM54 50L54 51L55 51L55 50ZM57 51L57 52L58 52L58 51ZM62 51L62 52L63 52L63 53L64 53L64 52L63 52L63 51ZM6 52L6 53L7 53L7 52ZM32 52L32 53L33 53L33 52ZM5 54L5 55L7 55L7 54ZM12 54L12 55L13 55L13 54ZM36 54L36 55L37 55L37 54ZM44 54L44 55L45 55L45 54ZM52 55L52 56L53 56L53 55ZM60 55L60 56L61 56L61 57L62 57L62 56L61 56L61 55ZM6 56L6 57L7 57L7 56ZM21 56L21 57L20 57L20 58L21 58L21 59L22 59L22 58L21 58L21 57L23 57L23 56ZM10 57L10 58L12 58L12 59L13 59L13 58L12 58L12 57ZM31 57L31 60L34 60L34 57ZM36 57L36 58L35 58L35 59L36 59L36 60L38 60L38 59L36 59L36 58L37 58L37 57ZM51 57L51 58L50 58L50 59L51 59L51 58L52 58L52 57ZM57 57L57 60L60 60L60 57ZM32 58L32 59L33 59L33 58ZM58 58L58 59L59 59L59 58ZM61 58L61 61L60 61L60 62L61 62L61 64L63 64L63 63L62 63L62 62L63 62L63 61L62 61L62 60L64 60L64 59L63 59L63 58ZM46 59L46 60L47 60L47 59ZM12 60L12 61L9 61L9 62L10 62L10 63L12 63L12 64L13 64L13 62L12 62L12 61L13 61L13 60ZM15 60L15 61L16 61L16 60ZM44 60L44 63L46 63L46 64L47 64L47 63L46 63L46 62L47 62L47 61L45 61L45 60ZM58 61L58 62L59 62L59 61ZM19 62L19 63L20 63L20 62ZM32 62L32 63L33 63L33 62ZM36 62L36 63L37 63L37 62ZM21 63L21 64L22 64L22 63ZM28 63L28 64L29 64L29 63ZM58 63L58 64L59 64L59 63ZM34 64L34 65L38 65L38 64ZM0 0L0 7L7 7L7 0ZM1 1L1 6L6 6L6 1ZM2 2L2 5L5 5L5 2ZM58 0L58 7L65 7L65 0ZM59 1L59 6L64 6L64 1ZM60 2L60 5L63 5L63 2ZM0 58L0 65L7 65L7 58ZM1 59L1 64L6 64L6 59ZM2 60L2 63L5 63L5 60Z" fill="#000000"/></g></g></svg>
